# File produced by Open Asset Import Library (http://www.assimp.sf.net)
# (assimp v3.2.202087883)

mtllib model_normalized.mtl

# 49 vertex positions
v 0.515677 -0.097673 0.047750
v 0.499434 -0.097673 -0.060538
v 0.515677 -0.097673 -0.060538
v 0.499434 -0.097673 0.047750
v 0.515677 0.097244 -0.060538
v 0.499434 0.097244 0.047750
v 0.499434 0.097244 -0.060538
v 0.515677 0.097244 0.047750
v 0.499434 0.097244 0.014706
v -0.442342 0.095828 0.030887
v 0.499758 0.097201 0.015192
v -0.442342 0.097201 0.015192
v 0.499758 0.095828 0.030887
v 0.499758 0.097244 0.014706
v -0.442342 -0.000237 0.006668
v 0.499758 0.000091 0.006696
v -0.442342 -0.096974 -0.001796
v 0.499758 -0.096974 -0.001796
v -0.441916 0.097244 0.014706
v -0.442342 -0.098347 0.013899
v 0.499758 -0.098347 0.013899
v -0.442342 0.097244 0.014706
v -0.442342 -0.098390 0.014386
v 0.499758 -0.098390 0.014386
v -0.442342 0.095786 0.031374
v 0.499758 0.095786 0.031374
v -0.441916 -0.097673 -0.061348
v -0.441916 -0.097673 0.046939
v -0.441916 -0.097673 0.031185
v -0.441916 -0.016480 0.045825
v -0.458159 -0.097673 0.046939
v -0.458159 -0.097673 -0.061348
v -0.441916 -0.016480 -0.061348
v -0.441916 0.097244 0.046939
v -0.458159 0.097244 0.046939
v -0.441916 0.097244 -0.061348
v -0.441916 -0.000237 -0.061348
v 0.500185 -0.016480 0.045825
v -0.441916 -0.000237 0.045825
v -0.458159 0.097244 -0.061348
v -0.441916 -0.000237 -0.067877
v -0.441916 -0.016480 -0.067877
v -0.441916 -0.000237 0.006667
v 0.500185 -0.000237 -0.067877
v 0.500185 -0.016480 -0.067877
v 0.500185 -0.000237 0.045825
v 0.500185 -0.000237 0.006334
v -0.442342 -0.096932 -0.002283
v 0.499758 -0.096932 -0.002283

# 0 UV coordinates

# 10 vertex normals
vn 0 -0.0254 0
vn 0 0.0254 0
vn 0 0 -0.0254
vn 0 0 0.0254
vn 0.0254 0 0
vn -0.0254 -0 -0
vn 0 0.0253034 0.00221376
vn 0 -0.0253034 -0.00221376
vn 0 0.00221376 -0.0253034
vn 0 -0.00221376 0.0253034

# Mesh 'mesh1_mesh1-geometry' with 28 faces
g mesh1_mesh1-geometry
usemtl material_0_24
f  1//1 2//1 3//1
f  2//1 1//1 4//1
f  3//2 2//2 1//2
f  4//2 1//2 2//2
f  2//3 5//3 3//3
f  3//4 5//4 2//4
f  5//5 1//5 3//5
f  3//6 1//6 5//6
f  1//4 6//4 4//4
f  4//3 6//3 1//3
f  4//6 7//6 2//6
f  2//5 7//5 4//5
f  5//3 2//3 7//3
f  7//4 2//4 5//4
f  1//5 5//5 8//5
f  8//6 5//6 1//6
f  6//4 1//4 8//4
f  8//3 1//3 6//3
f  7//6 4//6 6//6
f  6//5 4//5 7//5
f  9//2 5//2 7//2
f  7//1 5//1 9//1
f  5//2 9//2 8//2
f  8//1 9//1 5//1
f  8//2 9//2 6//2
f  6//1 9//1 8//1
f  7//6 6//6 9//6
f  9//5 6//5 7//5

# Mesh 'mesh2_mesh2-geometry' with 46 faces
g mesh2_mesh2-geometry
usemtl material_0_24
f  10//7 11//7 12//7
f  11//7 10//7 13//7
f  12//8 11//8 10//8
f  13//8 10//8 11//8
f  14//7 12//7 11//7
f  11//8 12//8 14//8
f  11//9 15//9 12//9
f  12//10 15//10 11//10
f  10//5 15//5 12//5
f  12//6 15//6 10//6
f  16//6 13//6 11//6
f  11//5 13//5 16//5
f  9//7 12//7 14//7
f  14//8 12//8 9//8
f  14//6 16//6 11//6
f  11//5 16//5 14//5
f  15//9 11//9 17//9
f  17//10 11//10 15//10
f  10//5 17//5 15//5
f  15//6 17//6 10//6
f  18//6 13//6 16//6
f  16//5 13//5 18//5
f  18//9 11//9 16//9
f  16//10 11//10 18//10
f  19//7 12//7 9//7
f  9//8 12//8 19//8
f  17//9 11//9 18//9
f  18//10 11//10 17//10
f  17//5 10//5 20//5
f  20//6 10//6 17//6
f  13//6 18//6 21//6
f  21//5 18//5 13//5
f  12//7 19//7 22//7
f  22//8 19//8 12//8
f  18//8 20//8 17//8
f  17//7 20//7 18//7
f  20//8 18//8 21//8
f  21//7 18//7 20//7
f  20//8 21//8 23//8
f  23//7 21//7 20//7
f  23//8 21//8 24//8
f  24//7 21//7 23//7
f  24//10 25//10 23//10
f  23//9 25//9 24//9
f  25//10 24//10 26//10
f  26//9 24//9 25//9

# Mesh 'mesh3_mesh3-geometry' with 86 faces
g mesh3_mesh3-geometry
usemtl material_0_24
f  27//5 28//5 29//5
f  28//5 27//5 30//5
f  29//6 28//6 27//6
f  30//6 27//6 28//6
f  31//1 29//1 28//1
f  28//2 29//2 31//2
f  29//1 32//1 27//1
f  27//2 32//2 29//2
f  30//5 27//5 33//5
f  33//6 27//6 30//6
f  28//5 30//5 34//5
f  34//6 30//6 28//6
f  32//1 29//1 31//1
f  31//2 29//2 32//2
f  28//4 35//4 31//4
f  31//3 35//3 28//3
f  32//3 36//3 27//3
f  27//4 36//4 32//4
f  27//3 37//3 33//3
f  33//4 37//4 27//4
f  37//5 30//5 33//5
f  33//6 30//6 37//6
f  33//1 38//1 30//1
f  30//2 38//2 33//2
f  34//5 30//5 39//5
f  39//6 30//6 34//6
f  35//4 28//4 34//4
f  34//3 28//3 35//3
f  35//6 32//6 31//6
f  31//5 32//5 35//5
f  36//3 32//3 40//3
f  40//4 32//4 36//4
f  27//3 36//3 37//3
f  37//4 36//4 27//4
f  33//5 41//5 37//5
f  37//6 41//6 33//6
f  30//5 37//5 39//5
f  39//6 37//6 30//6
f  42//1 38//1 33//1
f  33//2 38//2 42//2
f  38//4 39//4 30//4
f  30//3 39//3 38//3
f  34//5 39//5 43//5
f  43//6 39//6 34//6
f  19//2 35//2 34//2
f  34//1 35//1 19//1
f  32//6 35//6 40//6
f  40//5 35//5 32//5
f  35//2 36//2 40//2
f  40//1 36//1 35//1
f  34//5 37//5 36//5
f  36//6 37//6 34//6
f  41//5 33//5 42//5
f  42//6 33//6 41//6
f  37//2 44//2 41//2
f  41//1 44//1 37//1
f  39//5 37//5 43//5
f  43//6 37//6 39//6
f  38//1 42//1 45//1
f  45//2 42//2 38//2
f  39//4 38//4 46//4
f  46//3 38//3 39//3
f  46//2 43//2 39//2
f  39//1 43//1 46//1
f  34//5 43//5 37//5
f  37//6 43//6 34//6
f  36//2 35//2 19//2
f  19//1 35//1 36//1
f  34//5 36//5 19//5
f  19//6 36//6 34//6
f  44//3 42//3 41//3
f  41//4 42//4 44//4
f  44//2 37//2 47//2
f  47//1 37//1 44//1
f  47//2 37//2 43//2
f  43//1 37//1 47//1
f  42//3 44//3 45//3
f  45//4 44//4 42//4
f  44//5 38//5 45//5
f  45//6 38//6 44//6
f  38//5 44//5 46//5
f  46//6 44//6 38//6
f  43//2 46//2 47//2
f  47//1 46//1 43//1
f  46//5 44//5 47//5
f  47//6 44//6 46//6

# Mesh 'mesh4_mesh4-geometry' with 47 faces
g mesh4_mesh4-geometry
usemtl material_0_0
l  31 32
l  31 35
l  28 31
l  40 32
l  32 27
l  34 35
l  35 40
l  28 34
l  29 28
l  40 36
l  33 27
l  27 29
l  34 19
l  36 37
l  19 36
l  33 30
l  37 33
l  42 33
l  43 37
l  37 41
l  39 30
l  30 38
l  42 41
l  42 45
l  39 43
l  43 15
l  47 43
l  41 44
l  46 39
l  45 38
l  38 46
l  44 45
l  15 17
l  12 15
l  44 47
l  47 46
l  17 20
l  17 18
l  17 48
l  12 11
l  10 12
l  18 16
l  21 18
l  18 49
l  11 13
l  14 11
l  11 16

# Mesh 'mesh5_mesh5-geometry' with 13 faces
g mesh5_mesh5-geometry
usemtl material_0_0
l  4 2
l  1 4
l  6 4
l  2 3
l  7 2
l  3 1
l  1 8
l  9 6
l  8 6
l  5 3
l  7 9
l  5 7
l  5 8

# Mesh 'mesh6_mesh6-geometry' with 1 faces
g mesh6_mesh6-geometry
usemtl material_0_0
l  24 23

