# File produced by Open Asset Import Library (http://www.assimp.sf.net)
# (assimp v3.2.202087883)

mtllib model_normalized.mtl

# 159 vertex positions
v -0.362203 -0.268950 0.030954
v 0.356846 -0.268950 0.078832
v -0.362203 -0.268950 0.078832
v 0.356846 -0.268950 0.030954
v 0.356846 -0.268801 0.081115
v -0.362203 -0.268801 0.081115
v 0.291478 -0.236266 0.030954
v -0.362203 0.044939 0.030954
v 0.356846 0.044939 0.030954
v 0.226110 -0.236266 0.030954
v 0.356846 -0.268354 0.083359
v -0.362203 -0.268354 0.083359
v -0.296835 0.025206 0.030954
v 0.291478 0.025206 0.030954
v 0.160742 -0.236266 0.030954
v 0.226110 -0.203582 0.096322
v -0.362203 -0.267619 0.085525
v -0.231466 0.025206 0.030954
v -0.296835 -0.236266 0.030954
v 0.291478 -0.203582 0.096322
v 0.095374 -0.236266 0.030954
v 0.226110 0.025206 0.030954
v 0.356846 -0.267619 0.085525
v -0.362203 -0.266607 0.087577
v -0.166098 0.025206 0.030954
v -0.231466 -0.007478 0.096322
v -0.231466 -0.236266 0.030954
v -0.296835 -0.203582 0.096322
v 0.356846 0.046629 0.030843
v 0.291478 -0.007478 0.096322
v 0.030006 -0.236266 0.030954
v 0.095374 -0.203582 0.096322
v 0.160742 0.025206 0.030954
v -0.362203 -0.251460 0.096322
v 0.226110 -0.007478 0.096322
v 0.356846 -0.266607 0.087577
v -0.362203 -0.265336 0.089479
v -0.100730 0.025206 0.030954
v -0.296835 -0.007478 0.096322
v -0.231466 -0.203582 0.096322
v -0.166098 -0.236266 0.030954
v -0.362203 0.046629 0.030843
v 0.356846 0.055417 0.096322
v 0.356846 -0.251460 0.096322
v -0.035362 -0.236266 0.030954
v 0.095374 0.025206 0.030954
v 0.160742 -0.203582 0.096322
v 0.160742 -0.007478 0.096322
v 0.356846 -0.265336 0.089479
v -0.362203 -0.263828 0.091199
v -0.035362 0.025206 0.030954
v -0.100730 -0.007478 0.096322
v -0.362203 0.055417 0.096322
v -0.166098 -0.203582 0.096322
v -0.100730 -0.236266 0.030954
v 0.356846 0.048291 0.030513
v -0.035362 -0.203582 0.096322
v 0.030006 0.025206 0.030954
v 0.095374 -0.007478 0.096322
v 0.356846 -0.253743 0.096172
v 0.356846 -0.263828 0.091199
v -0.362203 -0.262108 0.092708
v -0.166098 -0.007478 0.096322
v -0.100730 -0.203582 0.096322
v -0.362203 0.048291 0.030513
v 0.356846 0.049895 0.029968
v 0.030006 -0.203582 0.096322
v 0.030006 -0.007478 0.096322
v -0.362203 -0.253743 0.096172
v 0.356846 -0.262108 0.092708
v -0.362203 -0.260205 0.093979
v -0.362203 0.049895 0.029968
v 0.356846 -0.255987 0.095726
v 0.356846 0.051413 0.029219
v -0.362203 0.064273 0.095742
v -0.035362 -0.007478 0.096322
v 0.356846 -0.260205 0.093979
v -0.362203 -0.258153 0.094991
v -0.362203 -0.255987 0.095726
v -0.362203 0.051413 0.029219
v 0.356846 -0.258153 0.094991
v 0.356846 0.052823 0.028278
v 0.356846 0.064273 0.095742
v -0.362203 0.056155 0.024478
v -0.362203 0.052823 0.028278
v 0.356846 0.054096 0.027160
v 0.356846 0.056155 0.024478
v -0.362203 0.072976 0.094010
v -0.362203 0.055214 0.025887
v -0.362203 0.056904 0.022959
v -0.362203 0.054096 0.027160
v 0.356846 0.055214 0.025887
v 0.356846 0.056904 0.022959
v 0.356846 0.072976 0.094010
v -0.362203 0.123258 -0.361255
v -0.362203 0.057448 0.021354
v 0.356846 0.057448 0.021354
v 0.356846 0.123258 -0.361255
v -0.362203 0.081378 0.091158
v -0.362203 0.057890 -0.361255
v -0.362203 0.057779 0.019693
v 0.356846 0.057779 0.019693
v 0.356846 0.057890 0.018002
v 0.356846 0.081378 0.091158
v -0.362203 0.057890 0.018002
v -0.362203 0.089337 0.087233
v 0.356846 0.057890 -0.361255
v 0.356846 0.089337 0.087233
v -0.362203 0.123258 -0.295887
v -0.362203 0.096716 0.082303
v 0.356846 0.096716 0.082303
v -0.295917 0.123258 -0.295887
v -0.362203 0.123258 -0.036887
v -0.362203 0.103388 0.076452
v 0.356846 0.103388 0.076452
v 0.290541 0.123258 -0.295887
v -0.295917 0.236625 -0.295887
v -0.362203 0.123258 0.028481
v -0.362203 0.236625 -0.036887
v -0.362203 0.109239 0.069780
v 0.356846 0.109239 0.069780
v 0.356846 0.123258 -0.295887
v -0.295917 0.123258 -0.036887
v -0.362203 0.236625 -0.295887
v -0.362203 0.122677 0.037336
v -0.362203 0.114169 0.062402
v 0.356846 0.114169 0.062402
v 0.356846 0.237653 -0.295887
v 0.356846 0.123258 0.028481
v 0.290541 0.123258 -0.036887
v -0.362203 0.236625 -0.361255
v -0.295917 0.236625 -0.036887
v -0.362203 0.120946 0.046040
v -0.295917 0.123258 0.028481
v -0.362203 0.253995 0.028481
v -0.362203 0.118094 0.054443
v 0.356846 0.118094 0.054443
v 0.290541 0.237653 -0.295887
v 0.356846 0.123258 -0.036887
v 0.356846 0.122677 0.037336
v 0.290541 0.237653 -0.036887
v -0.295917 0.236625 -0.361255
v -0.295917 0.253995 -0.361255
v -0.362203 0.236625 0.028481
v -0.295917 0.236625 0.028481
v 0.356846 0.120946 0.046040
v 0.290541 0.237653 -0.361255
v 0.356846 0.237653 -0.036887
v -0.362203 0.253995 -0.361255
v 0.290541 0.253995 0.028481
v 0.356846 0.237653 -0.361255
v 0.356846 0.253995 -0.361255
v -0.295917 0.253995 0.028481
v 0.290541 0.237653 0.028481
v 0.290541 0.253995 -0.361255
v 0.356846 0.237653 0.028481
v 0.356846 0.253995 0.028481
v 0.356930 0.123258 -0.361255
v 0.356930 0.237653 -0.361255

# 0 UV coordinates

# 62 vertex normals
vn 0 -0.0254 0
vn -0 -0.0251827 0.00331536
vn -0 -0.0253456 0.00166124
vn -0.0254 0 0
vn 0 0 -0.0254
vn 0.0254 0 0
vn -0 -0.0245345 0.006574
vn 0 0.0227184 -0.0113592
vn -0 -0.0234666 0.00972015
vn 0 -0.0227184 -0.0113592
vn 0 -0.00166124 -0.0253456
vn 0 -0.00331536 -0.0251827
vn 0 0 0.0254
vn -0 -0.021997 0.0127
vn -0 -0.0201512 0.0154625
vn 0 -0.006574 -0.0245345
vn -0 -0.00166124 0.0253456
vn -0 -0.00331536 0.0251827
vn -0 -0.0179605 0.0179605
vn -0 -0.0154625 0.0201512
vn 0 -0.00972015 -0.0234666
vn 0 0.00166124 0.0253456
vn 0 0.00331536 0.0251827
vn -0 -0.006574 0.0245345
vn -0 -0.0127 0.021997
vn 0 -0.0127 -0.021997
vn -0 -0.00972015 0.0234666
vn 0 -0.0154625 -0.0201512
vn 0 0.006574 0.0245345
vn 0 -0.0179605 -0.0179605
vn 0 -0.021997 -0.0127
vn 0 -0.0201512 -0.0154625
vn 0 -0.0234666 -0.00972015
vn 0 0.00972015 0.0234666
vn 0 -0.0245345 -0.006574
vn 0 -0.0251827 -0.00331536
vn 0 0.0127 0.021997
vn 0 0.0254 0
vn 0 -0.0253456 -0.00166124
vn 0 0.0154625 0.0201512
vn 0 0.0179605 0.0179605
vn 0 0.0201512 0.0154625
vn 0 0.0251827 0.00331536
vn 0 0.0253456 0.00166124
vn 0 0.021997 0.0127
vn 0 0.0245345 0.006574
vn 0 0.0234666 0.00972015
vn 0 0.0253456 -0.00166124
vn 0 0.0251827 -0.00331536
vn 0 0.0245345 -0.006574
vn 0 -0.0227184 0.0113592
vn 0 0.0234666 -0.00972015
vn 0 0.0227184 0.0113592
vn 0 0.021997 -0.0127
vn 0 0.0201512 -0.0154625
vn 0 0.00166124 -0.0253456
vn 0 0.00331536 -0.0251827
vn 0 0.0179605 -0.0179605
vn 0 0.0154625 -0.0201512
vn 0 0.006574 -0.0245345
vn 0 0.0127 -0.021997
vn 0 0.00972015 -0.0234666

# Mesh 'mesh1_mesh1-geometry' with 330 faces
g mesh1_mesh1-geometry
usemtl material_0_24
f  1//1 2//1 3//1
f  2//1 1//1 4//1
f  5//2 3//3 2//3
f  6//4 1//4 3//4
f  7//5 4//5 1//5
f  4//6 5//6 2//6
f  3//3 5//2 6//2
f  1//4 6//4 8//4
f  4//5 7//5 9//5
f  7//5 1//5 10//5
f  5//6 4//6 9//6
f  11//7 6//2 5//2
f  8//4 6//4 12//4
f  8//5 13//5 1//5
f  14//5 9//5 7//5
f  10//5 1//5 15//5
f  16//8 7//8 10//8
f  5//6 9//6 11//6
f  6//2 11//7 12//7
f  8//4 12//4 17//4
f  8//5 18//5 13//5
f  19//5 1//5 13//5
f  9//5 14//5 8//5
f  20//4 14//4 7//4
f  15//5 1//5 21//5
f  10//5 15//5 22//5
f  7//8 16//8 20//8
f  22//6 16//6 10//6
f  11//6 9//6 23//6
f  23//9 12//7 11//7
f  12//7 23//9 17//9
f  8//4 17//4 24//4
f  8//5 25//5 18//5
f  26//10 13//10 18//10
f  27//5 1//5 19//5
f  13//6 28//6 19//6
f  8//5 14//5 22//5
f  8//11 29//12 9//11
f  14//4 20//4 30//4
f  21//5 1//5 31//5
f  32//8 15//8 21//8
f  33//5 22//5 15//5
f  34//13 20//13 16//13
f  16//6 22//6 35//6
f  23//6 9//6 36//6
f  36//14 17//9 23//9
f  17//9 36//14 24//14
f  8//4 24//4 37//4
f  8//5 38//5 25//5
f  18//5 25//5 27//5
f  13//10 26//10 39//10
f  18//4 40//4 26//4
f  41//5 1//5 27//5
f  28//8 27//8 19//8
f  28//6 13//6 39//6
f  30//10 22//10 14//10
f  8//5 22//5 33//5
f  29//12 8//11 42//12
f  43//6 9//6 29//6
f  20//13 44//13 30//13
f  31//5 1//5 45//5
f  21//5 31//5 46//5
f  15//8 32//8 47//8
f  46//6 32//6 21//6
f  47//4 33//4 15//4
f  44//13 20//13 34//13
f  34//13 16//13 47//13
f  22//10 30//10 35//10
f  35//13 48//13 16//13
f  36//6 9//6 49//6
f  49//15 24//14 36//14
f  24//14 49//15 37//15
f  8//4 37//4 50//4
f  8//5 51//5 38//5
f  52//10 25//10 38//10
f  41//5 27//5 25//5
f  40//4 18//4 27//4
f  26//13 53//13 39//13
f  40//13 54//13 26//13
f  55//5 1//5 41//5
f  27//8 28//8 40//8
f  39//13 53//13 28//13
f  8//5 33//5 46//5
f  8//4 53//4 42//4
f  42//12 56//16 29//12
f  44//6 9//6 43//6
f  43//6 29//6 56//6
f  43//13 30//13 44//13
f  45//5 1//5 55//5
f  57//8 31//8 45//8
f  58//5 46//5 31//5
f  34//13 47//13 32//13
f  32//6 46//6 59//6
f  33//4 47//4 48//4
f  34//17 60//18 44//17
f  47//13 16//13 48//13
f  30//13 53//13 35//13
f  35//13 53//13 48//13
f  49//6 9//6 61//6
f  61//19 37//15 49//15
f  37//15 61//19 50//19
f  8//4 50//4 62//4
f  8//5 58//5 51//5
f  38//5 51//5 55//5
f  25//10 52//10 63//10
f  38//4 64//4 52//4
f  25//6 54//6 41//6
f  63//13 53//13 26//13
f  34//13 54//13 40//13
f  63//13 26//13 54//13
f  54//8 55//8 41//8
f  34//13 40//13 28//13
f  34//13 28//13 53//13
f  48//10 46//10 33//10
f  8//5 46//5 58//5
f  8//4 34//4 53//4
f  42//4 53//4 65//4
f  56//16 42//12 65//16
f  60//6 9//6 44//6
f  43//6 56//6 66//6
f  30//13 43//13 53//13
f  45//5 55//5 51//5
f  31//8 57//8 67//8
f  51//6 57//6 45//6
f  67//4 58//4 31//4
f  34//13 32//13 67//13
f  46//10 48//10 59//10
f  59//13 68//13 32//13
f  60//18 34//17 69//18
f  48//13 53//13 59//13
f  61//6 9//6 70//6
f  61//19 62//20 50//19
f  8//4 62//4 71//4
f  68//10 51//10 58//10
f  64//4 38//4 55//4
f  52//13 53//13 63//13
f  54//6 25//6 63//6
f  64//13 57//13 52//13
f  34//13 64//13 54//13
f  55//8 54//8 64//8
f  8//4 69//4 34//4
f  65//4 53//4 72//4
f  65//16 66//21 56//16
f  73//6 9//6 60//6
f  43//6 66//6 74//6
f  43//22 75//23 53//22
f  34//13 67//13 57//13
f  57//6 51//6 76//6
f  58//4 67//4 68//4
f  67//13 32//13 68//13
f  59//13 53//13 68//13
f  69//18 73//24 60//18
f  70//6 9//6 77//6
f  62//20 61//19 70//20
f  70//20 71//25 62//20
f  8//4 71//4 78//4
f  51//10 68//10 76//10
f  76//13 53//13 52//13
f  34//13 57//13 64//13
f  76//13 52//13 57//13
f  8//4 79//4 69//4
f  72//4 53//4 80//4
f  66//21 65//16 72//21
f  81//6 9//6 73//6
f  72//21 74//26 66//21
f  43//6 74//6 82//6
f  75//23 43//22 83//23
f  84//4 53//4 75//4
f  68//13 53//13 76//13
f  73//24 69//18 79//24
f  77//6 9//6 81//6
f  71//25 70//20 77//25
f  77//25 78//27 71//25
f  8//4 78//4 79//4
f  80//4 53//4 85//4
f  74//26 72//21 80//26
f  79//24 81//27 73//24
f  80//26 82//28 74//26
f  43//6 82//6 86//6
f  43//6 87//6 83//6
f  83//23 88//29 75//23
f  89//4 53//4 84//4
f  84//4 75//4 90//4
f  78//27 77//25 81//27
f  81//27 79//24 78//27
f  85//4 53//4 91//4
f  82//28 80//26 85//28
f  85//28 86//30 82//28
f  43//6 86//6 92//6
f  43//6 92//6 87//6
f  83//6 87//6 93//6
f  88//29 83//23 94//29
f  95//4 75//4 88//4
f  91//4 53//4 89//4
f  84//31 92//32 89//32
f  90//4 75//4 96//4
f  90//33 87//31 84//31
f  86//30 85//28 91//30
f  86//30 89//32 92//32
f  92//32 84//31 87//31
f  87//31 90//33 93//33
f  83//6 93//6 97//6
f  83//6 98//6 94//6
f  94//29 99//34 88//29
f  100//4 75//4 95//4
f  95//4 88//4 99//4
f  89//32 86//30 91//30
f  96//4 75//4 101//4
f  96//35 93//33 90//33
f  93//33 96//35 97//35
f  83//6 97//6 102//6
f  103//6 98//6 83//6
f  94//6 98//6 104//6
f  99//34 94//29 104//34
f  105//4 75//4 100//4
f  98//5 100//5 95//5
f  95//4 99//4 106//4
f  101//4 75//4 105//4
f  101//36 97//35 96//35
f  97//35 101//36 102//36
f  83//6 102//6 103//6
f  98//6 103//6 107//6
f  104//6 98//6 108//6
f  104//34 106//37 99//34
f  100//1 103//1 105//1
f  100//5 98//5 107//5
f  109//38 98//38 95//38
f  95//4 106//4 110//4
f  105//39 102//36 101//36
f  102//36 105//39 103//39
f  103//1 100//1 107//1
f  108//6 98//6 111//6
f  106//37 104//34 108//37
f  112//38 98//38 109//38
f  95//4 113//4 109//4
f  108//37 110//40 106//37
f  95//4 110//4 114//4
f  111//6 98//6 115//6
f  110//40 108//37 111//40
f  116//38 98//38 112//38
f  109//5 117//5 112//5
f  95//4 118//4 113//4
f  119//4 109//4 113//4
f  111//40 114//41 110//40
f  95//4 114//4 120//4
f  115//6 98//6 121//6
f  114//41 111//40 115//41
f  98//38 116//38 122//38
f  123//38 116//38 112//38
f  117//5 109//5 124//5
f  117//6 123//6 112//6
f  95//4 125//4 118//4
f  118//38 123//38 113//38
f  109//4 119//4 124//4
f  123//13 119//13 113//13
f  114//41 121//42 120//42
f  95//4 120//4 126//4
f  121//6 98//6 127//6
f  121//42 114//41 115//41
f  116//5 128//5 122//5
f  129//6 98//6 122//6
f  123//38 130//38 116//38
f  131//1 117//1 124//1
f  123//6 117//6 132//6
f  95//4 133//4 125//4
f  125//43 129//44 118//44
f  123//38 118//38 134//38
f  119//4 135//4 124//4
f  119//13 123//13 132//13
f  127//45 120//42 121//42
f  120//42 127//45 126//45
f  95//4 126//4 136//4
f  127//6 98//6 137//6
f  128//5 116//5 138//5
f  128//6 139//6 122//6
f  140//6 98//6 129//6
f  129//6 122//6 139//6
f  123//38 139//38 130//38
f  141//4 116//4 130//4
f  117//1 131//1 142//1
f  124//4 135//4 131//4
f  117//6 143//6 132//6
f  95//4 136//4 133//4
f  133//46 140//43 125//43
f  129//44 125//43 140//43
f  118//44 129//44 134//44
f  134//38 139//38 123//38
f  135//4 119//4 144//4
f  145//1 119//1 132//1
f  137//47 126//45 127//45
f  126//45 137//47 136//47
f  137//6 98//6 146//6
f  116//4 141//4 138//4
f  147//1 128//1 138//1
f  139//6 128//6 148//6
f  146//6 98//6 140//6
f  139//38 134//38 129//38
f  139//13 141//13 130//13
f  131//5 143//5 142//5
f  143//6 117//6 142//6
f  131//4 135//4 149//4
f  132//6 143//6 145//6
f  136//47 146//46 133//46
f  140//43 133//46 146//46
f  119//1 145//1 144//1
f  145//13 135//13 144//13
f  146//46 136//47 137//47
f  141//4 150//4 138//4
f  128//1 147//1 151//1
f  138//4 150//4 147//4
f  128//6 152//6 148//6
f  141//13 139//13 148//13
f  143//5 131//5 149//5
f  135//38 143//38 149//38
f  145//6 143//6 153//6
f  135//13 145//13 153//13
f  150//4 141//4 154//4
f  147//5 152//5 151//5
f  152//6 128//6 151//6
f  147//4 150//4 155//4
f  148//6 152//6 156//6
f  156//1 141//1 148//1
f  143//38 135//38 153//38
f  141//1 156//1 154//1
f  156//13 150//13 154//13
f  152//5 147//5 155//5
f  150//38 152//38 155//38
f  156//6 152//6 157//6
f  150//13 156//13 157//13
f  152//38 150//38 157//38

# Mesh 'mesh1_mesh1-geometry' with 330 faces
g mesh1_mesh1-geometry
usemtl material_1_24
f  3//38 2//38 1//38
f  4//38 1//38 2//38
f  2//48 3//48 5//49
f  3//6 1//6 6//6
f  1//13 4//13 7//13
f  2//4 5//4 4//4
f  6//49 5//49 3//48
f  8//6 6//6 1//6
f  9//13 7//13 4//13
f  10//13 1//13 7//13
f  9//4 4//4 5//4
f  5//49 6//49 11//50
f  12//6 6//6 8//6
f  1//13 13//13 8//13
f  7//13 9//13 14//13
f  15//13 1//13 10//13
f  10//51 7//51 16//51
f  11//4 9//4 5//4
f  12//50 11//50 6//49
f  17//6 12//6 8//6
f  13//13 18//13 8//13
f  13//13 1//13 19//13
f  8//13 14//13 9//13
f  7//6 14//6 20//6
f  21//13 1//13 15//13
f  22//13 15//13 10//13
f  20//51 16//51 7//51
f  10//4 16//4 22//4
f  23//4 9//4 11//4
f  11//50 12//50 23//52
f  17//52 23//52 12//50
f  24//6 17//6 8//6
f  18//13 25//13 8//13
f  18//53 13//53 26//53
f  19//13 1//13 27//13
f  19//4 28//4 13//4
f  22//13 14//13 8//13
f  9//22 29//23 8//22
f  30//6 20//6 14//6
f  31//13 1//13 21//13
f  21//51 15//51 32//51
f  15//13 22//13 33//13
f  16//5 20//5 34//5
f  35//4 22//4 16//4
f  36//4 9//4 23//4
f  23//52 17//52 36//54
f  24//54 36//54 17//52
f  37//6 24//6 8//6
f  25//13 38//13 8//13
f  27//13 25//13 18//13
f  39//53 26//53 13//53
f  26//6 40//6 18//6
f  27//13 1//13 41//13
f  19//51 27//51 28//51
f  39//4 13//4 28//4
f  14//53 22//53 30//53
f  33//13 22//13 8//13
f  42//23 8//22 29//23
f  29//4 9//4 43//4
f  30//5 44//5 20//5
f  45//13 1//13 31//13
f  46//13 31//13 21//13
f  47//51 32//51 15//51
f  21//4 32//4 46//4
f  15//6 33//6 47//6
f  34//5 20//5 44//5
f  47//5 16//5 34//5
f  35//53 30//53 22//53
f  16//5 48//5 35//5
f  49//4 9//4 36//4
f  36//54 24//54 49//55
f  37//55 49//55 24//54
f  50//6 37//6 8//6
f  38//13 51//13 8//13
f  38//53 25//53 52//53
f  25//13 27//13 41//13
f  27//6 18//6 40//6
f  39//5 53//5 26//5
f  26//5 54//5 40//5
f  41//13 1//13 55//13
f  40//51 28//51 27//51
f  28//5 53//5 39//5
f  46//13 33//13 8//13
f  42//6 53//6 8//6
f  29//23 56//29 42//23
f  43//4 9//4 44//4
f  56//4 29//4 43//4
f  44//5 30//5 43//5
f  55//13 1//13 45//13
f  45//51 31//51 57//51
f  31//13 46//13 58//13
f  32//5 47//5 34//5
f  59//4 46//4 32//4
f  48//6 47//6 33//6
f  44//56 60//57 34//56
f  48//5 16//5 47//5
f  35//5 53//5 30//5
f  48//5 53//5 35//5
f  61//4 9//4 49//4
f  49//55 37//55 61//58
f  50//58 61//58 37//55
f  62//6 50//6 8//6
f  51//13 58//13 8//13
f  55//13 51//13 38//13
f  63//53 52//53 25//53
f  52//6 64//6 38//6
f  41//4 54//4 25//4
f  26//5 53//5 63//5
f  40//5 54//5 34//5
f  54//5 26//5 63//5
f  41//51 55//51 54//51
f  28//5 40//5 34//5
f  53//5 28//5 34//5
f  33//53 46//53 48//53
f  58//13 46//13 8//13
f  53//6 34//6 8//6
f  65//6 53//6 42//6
f  65//29 42//23 56//29
f  44//4 9//4 60//4
f  66//4 56//4 43//4
f  53//5 43//5 30//5
f  51//13 55//13 45//13
f  67//51 57//51 31//51
f  45//4 57//4 51//4
f  31//6 58//6 67//6
f  67//5 32//5 34//5
f  59//53 48//53 46//53
f  32//5 68//5 59//5
f  69//57 34//56 60//57
f  59//5 53//5 48//5
f  70//4 9//4 61//4
f  50//58 62//59 61//58
f  71//6 62//6 8//6
f  58//53 51//53 68//53
f  55//6 38//6 64//6
f  63//5 53//5 52//5
f  63//4 25//4 54//4
f  52//5 57//5 64//5
f  54//5 64//5 34//5
f  64//51 54//51 55//51
f  34//6 69//6 8//6
f  72//6 53//6 65//6
f  56//29 66//34 65//29
f  60//4 9//4 73//4
f  74//4 66//4 43//4
f  53//11 75//12 43//11
f  57//5 67//5 34//5
f  76//4 51//4 57//4
f  68//6 67//6 58//6
f  68//5 32//5 67//5
f  68//5 53//5 59//5
f  60//57 73//60 69//57
f  77//4 9//4 70//4
f  70//59 61//58 62//59
f  62//59 71//61 70//59
f  78//6 71//6 8//6
f  76//53 68//53 51//53
f  52//5 53//5 76//5
f  64//5 57//5 34//5
f  57//5 52//5 76//5
f  69//6 79//6 8//6
f  80//6 53//6 72//6
f  72//34 65//29 66//34
f  73//4 9//4 81//4
f  66//34 74//37 72//34
f  82//4 74//4 43//4
f  83//12 43//11 75//12
f  75//6 53//6 84//6
f  76//5 53//5 68//5
f  79//60 69//57 73//60
f  81//4 9//4 77//4
f  77//61 70//59 71//61
f  71//61 78//62 77//61
f  79//6 78//6 8//6
f  85//6 53//6 80//6
f  80//37 72//34 74//37
f  73//60 81//62 79//60
f  74//37 82//40 80//37
f  86//4 82//4 43//4
f  83//4 87//4 43//4
f  75//12 88//16 83//12
f  84//6 53//6 89//6
f  90//6 75//6 84//6
f  81//62 77//61 78//62
f  78//62 79//60 81//62
f  91//6 53//6 85//6
f  85//40 80//37 82//40
f  82//40 86//41 85//40
f  92//4 86//4 43//4
f  87//4 92//4 43//4
f  93//4 87//4 83//4
f  94//16 83//12 88//16
f  88//6 75//6 95//6
f  89//6 53//6 91//6
f  89//42 92//42 84//45
f  96//6 75//6 90//6
f  84//45 87//45 90//47
f  91//41 85//40 86//41
f  92//42 89//42 86//41
f  87//45 84//45 92//42
f  93//47 90//47 87//45
f  97//4 93//4 83//4
f  94//4 98//4 83//4
f  88//16 99//21 94//16
f  95//6 75//6 100//6
f  99//6 88//6 95//6
f  91//41 86//41 89//42
f  101//6 75//6 96//6
f  90//47 93//47 96//46
f  97//46 96//46 93//47
f  102//4 97//4 83//4
f  83//4 98//4 103//4
f  104//4 98//4 94//4
f  104//21 94//16 99//21
f  100//6 75//6 105//6
f  95//13 100//13 98//13
f  106//6 99//6 95//6
f  105//6 75//6 101//6
f  96//46 97//46 101//43
f  102//43 101//43 97//46
f  103//4 102//4 83//4
f  107//4 103//4 98//4
f  108//4 98//4 104//4
f  99//21 106//26 104//21
f  105//38 103//38 100//38
f  107//13 98//13 100//13
f  95//1 98//1 109//1
f  110//6 106//6 95//6
f  101//43 102//43 105//44
f  103//44 105//44 102//43
f  107//38 100//38 103//38
f  111//4 98//4 108//4
f  108//26 104//21 106//26
f  109//1 98//1 112//1
f  109//6 113//6 95//6
f  106//26 110//28 108//26
f  114//6 110//6 95//6
f  115//4 98//4 111//4
f  111//28 108//26 110//28
f  112//1 98//1 116//1
f  112//13 117//13 109//13
f  113//6 118//6 95//6
f  113//6 109//6 119//6
f  110//28 114//30 111//28
f  120//6 114//6 95//6
f  121//4 98//4 115//4
f  115//30 111//28 114//30
f  122//1 116//1 98//1
f  112//1 116//1 123//1
f  124//13 109//13 117//13
f  112//4 123//4 117//4
f  118//6 125//6 95//6
f  113//1 123//1 118//1
f  124//6 119//6 109//6
f  113//5 119//5 123//5
f  120//32 121//32 114//30
f  126//6 120//6 95//6
f  127//4 98//4 121//4
f  115//30 114//30 121//32
f  122//13 128//13 116//13
f  122//4 98//4 129//4
f  116//1 130//1 123//1
f  124//38 117//38 131//38
f  132//4 117//4 123//4
f  125//6 133//6 95//6
f  118//39 129//39 125//36
f  134//1 118//1 123//1
f  124//6 135//6 119//6
f  132//5 123//5 119//5
f  121//32 120//32 127//31
f  126//31 127//31 120//32
f  136//6 126//6 95//6
f  137//4 98//4 127//4
f  138//13 116//13 128//13
f  122//4 139//4 128//4
f  129//4 98//4 140//4
f  139//4 122//4 129//4
f  130//1 139//1 123//1
f  130//6 116//6 141//6
f  142//38 131//38 117//38
f  131//6 135//6 124//6
f  132//4 143//4 117//4
f  133//6 136//6 95//6
f  125//36 140//36 133//35
f  140//36 125//36 129//39
f  134//39 129//39 118//39
f  123//1 139//1 134//1
f  144//6 119//6 135//6
f  132//38 119//38 145//38
f  127//31 126//31 137//33
f  136//33 137//33 126//31
f  146//4 98//4 137//4
f  138//6 141//6 116//6
f  138//38 128//38 147//38
f  148//4 128//4 139//4
f  140//4 98//4 146//4
f  129//1 134//1 139//1
f  130//5 141//5 139//5
f  142//13 143//13 131//13
f  142//4 117//4 143//4
f  149//6 135//6 131//6
f  145//4 143//4 132//4
f  133//35 146//35 136//33
f  146//35 133//35 140//36
f  144//38 145//38 119//38
f  144//5 135//5 145//5
f  137//33 136//33 146//35
f  138//6 150//6 141//6
f  151//38 147//38 128//38
f  147//6 150//6 138//6
f  148//4 152//4 128//4
f  148//5 139//5 141//5
f  149//13 131//13 143//13
f  149//1 143//1 135//1
f  153//4 143//4 145//4
f  153//5 145//5 135//5
f  154//6 141//6 150//6
f  151//13 152//13 147//13
f  151//4 128//4 152//4
f  155//6 150//6 147//6
f  156//4 152//4 148//4
f  148//38 141//38 156//38
f  153//1 135//1 143//1
f  154//38 156//38 141//38
f  154//5 150//5 156//5
f  155//13 147//13 152//13
f  155//1 152//1 150//1
f  157//4 152//4 156//4
f  157//5 156//5 150//5
f  157//1 150//1 152//1

# Mesh 'mesh2_mesh2-geometry' with 1 faces
g mesh2_mesh2-geometry
usemtl material_1_0
l  158 98

# Mesh 'mesh3_mesh3-geometry' with 1 faces
g mesh3_mesh3-geometry
usemtl material_1_0
l  151 159

