# File produced by Open Asset Import Library (http://www.assimp.sf.net)
# (assimp v3.2.202087883)

mtllib model_normalized.mtl

# 90 vertex positions
v -0.116571 -0.123517 0.087250
v -0.116571 -0.126896 -0.092470
v -0.116571 -0.126896 0.087250
v -0.116571 -0.123517 -0.092470
v 0.116571 -0.126896 0.087250
v 0.116571 -0.123517 -0.092470
v 0.116571 -0.126896 -0.092470
v 0.116571 -0.123517 0.087250
v -0.116571 0.227887 0.087250
v -0.116571 0.224508 -0.092470
v -0.116571 0.224508 0.087250
v -0.116571 0.227887 -0.092470
v 0.116571 0.224508 0.087250
v 0.116571 0.227887 -0.092470
v 0.116571 0.224508 -0.092470
v 0.116571 0.227887 0.087250
v -0.116571 0.052185 0.087250
v -0.116571 0.048806 -0.092470
v -0.116571 0.048806 0.087250
v -0.116571 0.052185 -0.092470
v 0.116571 0.048806 0.087250
v 0.116571 0.052185 -0.092470
v 0.116571 0.048806 -0.092470
v 0.116571 0.052185 0.087250
v -0.116571 0.400210 0.087250
v -0.116571 0.396831 -0.092470
v -0.116571 0.396831 0.087250
v -0.116571 0.400210 -0.092470
v 0.116571 0.396831 0.087250
v 0.116571 0.400210 -0.092470
v 0.116571 0.396831 -0.092470
v 0.116571 0.400210 0.087250
v -0.119950 0.575911 0.089990
v 0.119950 0.575911 -0.092470
v -0.119950 0.575911 -0.092470
v 0.119950 0.575911 0.089990
v -0.119950 0.400210 -0.092470
v -0.119950 0.555638 -0.072196
v -0.099677 0.565775 0.089990
v 0.119950 0.555638 0.069717
v 0.119950 0.400210 -0.092470
v -0.119950 0.555638 0.069717
v -0.099677 -0.376933 0.089990
v 0.099677 0.565775 0.089990
v 0.119950 -0.292461 0.069717
v 0.119950 0.555638 -0.072196
v -0.119950 0.396831 -0.092470
v -0.119950 -0.292461 0.069717
v -0.119950 -0.376933 0.089990
v -0.099677 -0.322871 0.089990
v -0.079404 0.545501 0.089990
v 0.119950 -0.376933 0.089990
v 0.119950 -0.312734 0.069717
v 0.119950 0.396831 -0.092470
v -0.119950 -0.292461 -0.072196
v -0.119950 -0.312734 0.069717
v -0.119950 -0.376933 0.069717
v -0.099677 -0.376933 0.069717
v -0.099677 -0.312734 0.089990
v -0.079404 -0.292461 0.089990
v 0.079404 0.545501 0.089990
v 0.099677 -0.312734 0.089990
v 0.119950 -0.376933 0.069717
v 0.119950 -0.322871 0.069717
v 0.119950 -0.292461 -0.072196
v 0.119950 0.396831 -0.095848
v -0.119950 0.396831 -0.095848
v -0.119950 -0.322871 0.069717
v -0.119950 -0.312734 -0.072196
v -0.099677 -0.322871 0.069717
v 0.099677 -0.322871 0.089990
v 0.099677 -0.376933 0.069717
v 0.119950 -0.312734 -0.072196
v -0.119950 -0.322871 -0.072196
v 0.079404 -0.292461 0.089990
v 0.099677 -0.376933 0.089990
v 0.119950 -0.322871 -0.072196
v -0.119950 -0.376933 -0.095848
v 0.099677 -0.322871 0.069717
v 0.099677 -0.322871 -0.072196
v -0.099677 -0.322871 -0.095848
v -0.119950 -0.376933 -0.072196
v -0.099677 -0.322871 -0.072196
v 0.119950 -0.376933 -0.072196
v 0.099677 -0.322871 -0.095848
v -0.099677 -0.376933 -0.095848
v -0.099677 -0.376933 -0.072196
v 0.119950 -0.376933 -0.095848
v 0.099677 -0.376933 -0.072196
v 0.099677 -0.376933 -0.095848

# 76 UV coordinates
vt 0.114583 0 0
vt 0.002083 0.369792 0
vt 0.002083 0 0
vt 0.114583 0.369792 0
vt -0.147917 1.46875 0
vt 0 1.19792 0
vt 0 1.46875 0
vt 0.002083 1.46875 0
vt 0.014583 1.4375 0
vt 0.114583 1.46875 0
vt 0.0125 1.45312 0
vt 0.147917 1.46875 0
vt -0.114583 1.46875 0
vt -0.102083 1.4375 0
vt -0.002083 1.46875 0
vt -0.147917 1.19792 0
vt 0.002083 1.19792 0
vt 0.102083 1.4375 0
vt 0.0125 0 0
vt 0.135417 1.45312 0
vt -0.102083 0.130208 0
vt -0.014583 1.4375 0
vt -0.002083 1.19792 0
vt 0 1.19271 0
vt 0.002083 1.19271 0
vt 0.102083 0.130208 0
vt 0 0 0
vt 0.0125 0.083333 0
vt 0.025 1.42188 0
vt 0.147917 0 0
vt -0.102083 0.098958 0
vt -0.002083 1.19271 0
vt -0.147917 1.19271 0
vt 0.014583 0.130208 0
vt 0.102083 0.098958 0
vt 0.102083 0 0
vt -0.102083 0 0
vt -0.114583 0.03125 0
vt -0.114583 0 0
vt -0.114583 0.083333 0
vt 0.0125 0.098958 0
vt 0.025 0.130208 0
vt 0.122917 1.42188 0
vt 0.135417 0.098958 0
vt -0.102083 0.083333 0
vt -0.014583 0.130208 0
vt 0 0.369792 0
vt 0.102083 0.083333 0
vt 0.014583 0.098958 0
vt -0.102083 0.03125 0
vt 0.135417 0.083333 0
vt -0.114583 0.369792 0
vt -0.102083 0.338542 0
vt -0.102083 0.369792 0
vt -0.014583 0.098958 0
vt 0.014583 0.083333 0
vt -0.0125 0.083333 0
vt 0 0.083333 0
vt -0.0125 0 0
vt -0.114583 0.338542 0
vt 0.122917 0.130208 0
vt 0.135417 0 0
vt -0.135417 0 0
vt -0.147917 0.083333 0
vt -0.147917 0 0
vt -0.014583 0.083333 0
vt -0.014583 0 0
vt 0.114583 0.083333 0
vt -0.135417 0.083333 0
vt -0.014583 0.338542 0
vt -0.014583 0.369792 0
vt 0.014583 0 0
vt -0.014583 0.03125 0
vt 0.147917 0.083333 0
vt 0 0.03125 0
vt 0 0.338542 0

# 6 vertex normals
vn -0.0254 0 0
vn 0.0254 0 0
vn 0 -0.0254 0
vn 0 0.0254 0
vn 0 0 0.0254
vn -0 -0 -0.0254

# Mesh 'mesh1_mesh1-geometry' with 24 faces
g mesh1_mesh1-geometry
usemtl material_0_24
f  1//1 2//1 3//1
f  2//1 1//1 4//1
f  3//2 2//2 1//2
f  4//2 1//2 2//2
f  2//3 5//3 3//3
f  3//4 5//4 2//4
f  5//5 1//5 3//5
f  3//6 1//6 5//6
f  1//4 6//4 4//4
f  4//3 6//3 1//3
f  6//6 2//6 4//6
f  4//5 2//5 6//5
f  5//3 2//3 7//3
f  7//4 2//4 5//4
f  1//5 5//5 8//5
f  8//6 5//6 1//6
f  6//4 1//4 8//4
f  8//3 1//3 6//3
f  2//6 6//6 7//6
f  7//5 6//5 2//5
f  6//2 5//2 7//2
f  7//1 5//1 6//1
f  5//2 6//2 8//2
f  8//1 6//1 5//1

# Mesh 'mesh1_mesh1-geometry' with 24 faces
g mesh1_mesh1-geometry
usemtl material_0_24
f  9//1 10//1 11//1
f  10//1 9//1 12//1
f  11//2 10//2 9//2
f  12//2 9//2 10//2
f  10//3 13//3 11//3
f  11//4 13//4 10//4
f  13//5 9//5 11//5
f  11//6 9//6 13//6
f  9//4 14//4 12//4
f  12//3 14//3 9//3
f  14//6 10//6 12//6
f  12//5 10//5 14//5
f  13//3 10//3 15//3
f  15//4 10//4 13//4
f  9//5 13//5 16//5
f  16//6 13//6 9//6
f  14//4 9//4 16//4
f  16//3 9//3 14//3
f  10//6 14//6 15//6
f  15//5 14//5 10//5
f  14//2 13//2 15//2
f  15//1 13//1 14//1
f  13//2 14//2 16//2
f  16//1 14//1 13//1

# Mesh 'mesh1_mesh1-geometry' with 24 faces
g mesh1_mesh1-geometry
usemtl material_0_24
f  17//1 18//1 19//1
f  18//1 17//1 20//1
f  19//2 18//2 17//2
f  20//2 17//2 18//2
f  18//3 21//3 19//3
f  19//4 21//4 18//4
f  21//5 17//5 19//5
f  19//6 17//6 21//6
f  17//4 22//4 20//4
f  20//3 22//3 17//3
f  22//6 18//6 20//6
f  20//5 18//5 22//5
f  21//3 18//3 23//3
f  23//4 18//4 21//4
f  17//5 21//5 24//5
f  24//6 21//6 17//6
f  22//4 17//4 24//4
f  24//3 17//3 22//3
f  18//6 22//6 23//6
f  23//5 22//5 18//5
f  22//2 21//2 23//2
f  23//1 21//1 22//1
f  21//2 22//2 24//2
f  24//1 22//1 21//1

# Mesh 'mesh1_mesh1-geometry' with 24 faces
g mesh1_mesh1-geometry
usemtl material_0_24
f  25//1 26//1 27//1
f  26//1 25//1 28//1
f  27//2 26//2 25//2
f  28//2 25//2 26//2
f  26//3 29//3 27//3
f  27//4 29//4 26//4
f  29//5 25//5 27//5
f  27//6 25//6 29//6
f  25//4 30//4 28//4
f  28//3 30//3 25//3
f  30//6 26//6 28//6
f  28//5 26//5 30//5
f  29//3 26//3 31//3
f  31//4 26//4 29//4
f  25//5 29//5 32//5
f  32//6 29//6 25//6
f  30//4 25//4 32//4
f  32//3 25//3 30//3
f  26//6 30//6 31//6
f  31//5 30//5 26//5
f  30//2 29//2 31//2
f  31//1 29//1 30//1
f  29//2 30//2 32//2
f  32//1 30//1 29//1

# Mesh 'mesh2_mesh2-geometry' with 106 faces
g mesh2_mesh2-geometry
usemtl material_1_1_8
f  33/1/4 34/2/4 35/3/4
f  34/2/4 33/1/4 36/4/4
f  34/5/6 37/6/6 35/7/6
f  35/8/1 38/9/1 33/10/1
f  33/7/5 39/11/5 36/12/5
f  36/13/2 40/14/2 34/15/2
f  37/6/6 34/5/6 41/16/6
f  37/17/1 38/9/1 35/8/1
f  42/18/1 33/10/1 38/9/1
f  33/7/5 43/19/5 39/11/5
f  36/12/5 39/11/5 44/20/5
f  36/13/2 45/21/2 40/14/2
f  46/22/2 34/15/2 40/14/2
f  46/22/2 41/23/2 34/15/2
f  41/16/6 47/24/6 37/6/6
f  47/25/1 38/9/1 37/17/1
f  48/26/1 33/10/1 42/18/1
f  43/19/5 33/7/5 49/27/5
f  39/11/5 43/19/5 50/28/5
f  39/11/5 51/29/5 44/20/5
f  36/12/5 44/20/5 52/30/5
f  36/13/2 53/31/2 45/21/2
f  46/22/2 54/32/2 41/23/2
f  47/24/6 41/16/6 54/33/6
f  38/9/1 47/25/1 55/34/1
f  56/35/1 33/10/1 48/26/1
f  33/10/1 57/36/1 49/1/1
f  57/37/3 43/38/3 49/39/3
f  58/37/2 50/40/2 43/39/2
f  39/11/5 50/28/5 59/41/5
f  51/29/5 39/11/5 60/42/5
f  44/20/5 51/29/5 61/43/5
f  62/44/5 52/30/5 44/20/5
f  63/37/2 36/13/2 52/39/2
f  36/13/2 64/45/2 53/31/2
f  53/31/2 65/46/2 45/21/2
f  65/46/2 54/32/2 46/22/2
f  66/47/4 47/3/4 54/2/4
f  67/24/1 55/34/1 47/25/1
f  68/48/1 33/10/1 56/35/1
f  48/26/1 69/49/1 56/35/1
f  69/49/1 48/26/1 55/34/1
f  57/36/1 33/10/1 68/48/1
f  43/38/3 57/37/3 58/50/3
f  50/40/2 58/37/2 70/45/2
f  71/51/5 59/41/5 50/28/5
f  59/41/5 60/42/5 39/11/5
f  44/20/5 61/43/5 62/44/5
f  71/51/5 52/30/5 62/44/5
f  36/13/2 63/37/2 64/45/2
f  52/52/3 72/53/3 63/54/3
f  53/31/2 64/45/2 73/55/2
f  65/46/2 53/31/2 73/55/2
f  65/46/2 66/24/2 54/32/2
f  47/3/4 66/47/4 67/27/4
f  67/24/1 69/49/1 55/34/1
f  68/48/1 56/35/1 74/56/1
f  69/49/1 74/56/1 56/35/1
f  70/57/6 57/27/6 68/58/6
f  57/27/6 70/57/6 58/59/6
f  70/50/3 71/60/3 50/38/3
f  59/41/5 71/51/5 62/44/5
f  60/42/5 59/41/5 62/44/5
f  60/42/5 62/44/5 75/61/5
f  75/61/5 62/44/5 61/43/5
f  52/30/5 71/51/5 76/62/5
f  72/63/6 64/64/6 63/65/6
f  72/53/3 52/52/3 76/60/3
f  77/66/2 73/55/2 64/45/2
f  73/55/2 66/24/2 65/46/2
f  66/33/6 78/27/6 67/24/6
f  67/24/1 74/56/1 69/49/1
f  74/67/3 64/54/3 68/37/3
f  68/37/3 79/53/3 70/50/3
f  71/60/3 70/50/3 79/53/3
f  71/68/1 72/36/1 76/1/1
f  64/64/6 72/63/6 79/69/6
f  77/66/2 66/24/2 73/55/2
f  64/54/3 80/70/3 77/71/3
f  78/27/6 66/33/6 81/57/6
f  82/72/1 67/24/1 78/27/1
f  67/24/1 82/72/1 74/56/1
f  83/73/3 64/54/3 74/67/3
f  68/37/3 64/54/3 79/53/3
f  72/36/1 71/68/1 79/48/1
f  84/67/2 66/24/2 77/66/2
f  80/70/3 64/54/3 83/73/3
f  80/51/5 84/30/5 77/74/5
f  81/57/6 66/33/6 85/69/6
f  86/59/6 78/27/6 81/57/6
f  78/27/3 87/73/3 82/67/3
f  87/19/5 74/58/5 82/27/5
f  74/58/5 87/19/5 83/28/5
f  66/24/2 84/67/2 88/27/2
f  81/75/3 80/70/3 83/73/3
f  84/30/5 80/51/5 89/62/5
f  85/69/6 66/33/6 90/63/6
f  80/70/3 81/75/3 85/76/3
f  87/73/3 78/27/3 86/75/3
f  81/58/2 87/67/2 86/27/2
f  87/67/2 81/58/2 83/66/2
f  84/71/3 90/76/3 88/47/3
f  90/63/6 66/33/6 88/65/6
f  85/58/1 89/72/1 80/56/1
f  90/76/3 84/71/3 89/70/3
f  89/72/1 85/58/1 90/27/1

# Mesh 'mesh2_mesh2-geometry' with 106 faces
g mesh2_mesh2-geometry
usemtl material_2_24
f  35//3 34//3 33//3
f  36//3 33//3 34//3
f  35//5 37//5 34//5
f  33//2 38//2 35//2
f  36//6 39//6 33//6
f  34//1 40//1 36//1
f  41//5 34//5 37//5
f  35//2 38//2 37//2
f  38//2 33//2 42//2
f  39//6 43//6 33//6
f  44//6 39//6 36//6
f  40//1 45//1 36//1
f  40//1 34//1 46//1
f  34//1 41//1 46//1
f  37//5 47//5 41//5
f  37//2 38//2 47//2
f  42//2 33//2 48//2
f  49//6 33//6 43//6
f  50//6 43//6 39//6
f  44//6 51//6 39//6
f  52//6 44//6 36//6
f  45//1 53//1 36//1
f  41//1 54//1 46//1
f  54//5 41//5 47//5
f  55//2 47//2 38//2
f  48//2 33//2 56//2
f  49//2 57//2 33//2
f  49//4 43//4 57//4
f  43//1 50//1 58//1
f  59//6 50//6 39//6
f  60//6 39//6 51//6
f  61//6 51//6 44//6
f  44//6 52//6 62//6
f  52//1 36//1 63//1
f  53//1 64//1 36//1
f  45//1 65//1 53//1
f  46//1 54//1 65//1
f  54//3 47//3 66//3
f  47//2 55//2 67//2
f  56//2 33//2 68//2
f  56//2 69//2 48//2
f  55//2 48//2 69//2
f  68//2 33//2 57//2
f  58//4 57//4 43//4
f  70//1 58//1 50//1
f  50//6 59//6 71//6
f  39//6 60//6 59//6
f  62//6 61//6 44//6
f  62//6 52//6 71//6
f  64//1 63//1 36//1
f  63//4 72//4 52//4
f  73//1 64//1 53//1
f  73//1 53//1 65//1
f  54//1 66//1 65//1
f  67//3 66//3 47//3
f  55//2 69//2 67//2
f  74//2 56//2 68//2
f  56//2 74//2 69//2
f  68//5 57//5 70//5
f  58//5 70//5 57//5
f  50//4 71//4 70//4
f  62//6 71//6 59//6
f  62//6 59//6 60//6
f  75//6 62//6 60//6
f  61//6 62//6 75//6
f  76//6 71//6 52//6
f  63//5 64//5 72//5
f  76//4 52//4 72//4
f  64//1 73//1 77//1
f  65//1 66//1 73//1
f  67//5 78//5 66//5
f  69//2 74//2 67//2
f  68//4 64//4 74//4
f  70//4 79//4 68//4
f  79//4 70//4 71//4
f  76//2 72//2 71//2
f  79//5 72//5 64//5
f  73//1 66//1 77//1
f  77//4 80//4 64//4
f  81//5 66//5 78//5
f  78//2 67//2 82//2
f  74//2 82//2 67//2
f  74//4 64//4 83//4
f  79//4 64//4 68//4
f  79//2 71//2 72//2
f  77//1 66//1 84//1
f  83//4 64//4 80//4
f  77//6 84//6 80//6
f  85//5 66//5 81//5
f  81//5 78//5 86//5
f  82//4 87//4 78//4
f  82//6 74//6 87//6
f  83//6 87//6 74//6
f  88//1 84//1 66//1
f  83//4 80//4 81//4
f  89//6 80//6 84//6
f  90//5 66//5 85//5
f  85//4 81//4 80//4
f  86//4 78//4 87//4
f  86//1 87//1 81//1
f  83//1 81//1 87//1
f  88//4 90//4 84//4
f  88//5 66//5 90//5
f  80//2 89//2 85//2
f  89//4 84//4 90//4
f  90//2 85//2 89//2

# Mesh 'mesh2_mesh2-geometry' with 12 faces
g mesh2_mesh2-geometry
usemtl material_0_24
f  55//1 42//1 38//1
f  38//2 42//2 55//2
f  45//2 46//2 40//2
f  40//1 46//1 45//1
f  42//1 55//1 48//1
f  48//2 55//2 42//2
f  46//2 45//2 65//2
f  65//1 45//1 46//1
f  75//5 51//5 60//5
f  60//6 51//6 75//6
f  51//5 75//5 61//5
f  61//6 75//6 51//6

