# File produced by Open Asset Import Library (http://www.assimp.sf.net)
# (assimp v3.2.202087883)

mtllib model_normalized.mtl

# 28 vertex positions
v 0.408166 -0.006794 -0.138806
v -0.408166 -0.006794 0.080328
v -0.408166 -0.006794 -0.138806
v 0.408166 -0.006794 0.080328
v -0.408166 0.083423 -0.138806
v -0.408315 -0.054348 -0.138806
v 0.408166 0.083423 0.080328
v -0.408166 0.083423 0.080328
v -0.455718 0.083423 -0.138806
v 0.408315 -0.054348 -0.138806
v 0.408166 0.083423 -0.138806
v -0.455718 0.083423 0.080328
v -0.455718 -0.139672 -0.138806
v 0.455718 0.083423 -0.138806
v 0.408315 -0.054348 0.127880
v 0.455718 0.173640 0.080328
v -0.408315 -0.139672 -0.138806
v 0.408315 -0.139672 -0.138806
v -0.408315 -0.054348 0.127880
v 0.455718 0.083423 0.080328
v -0.455718 0.173640 0.080328
v -0.455718 -0.139672 0.127880
v -0.408315 -0.139672 0.127880
v 0.455718 -0.139672 -0.138806
v -0.455718 0.173640 0.127880
v 0.408315 -0.139672 0.127880
v 0.455718 -0.139672 0.127880
v 0.455718 0.173640 0.127880

# 61 UV coordinates
vt 0 0 0
vt -53.9751 -212.242 0
vt -53.9751 -214.409 0
vt -59.3568 -212.242 0
vt -59.3568 -214.409 0
vt 141.495 0.47025 0
vt 141.495 1.36238 0
vt 142.939 0.47025 0
vt 59.3568 0.47025 0
vt 53.9741 0 0
vt 53.9751 0.47025 0
vt -142.939 0.47025 0
vt -142.939 1.36238 0
vt -141.495 0.47025 0
vt 59.3568 1.36238 0
vt 142.939 1.36238 0
vt 53.9751 1.36238 0
vt 53.6616 1.36238 0
vt 59.3578 0 0
vt -141.495 1.36238 0
vt -53.6616 -214.409 0
vt -53.6616 -212.242 0
vt 53.6616 -0.84375 0
vt 59.6703 1.36238 0
vt 59.3578 -212.242 0
vt 59.3578 -214.879 0
vt 53.9741 -212.242 0
vt -59.6703 -212.242 0
vt 59.6703 2.2545 0
vt -141.495 -0.84375 0
vt 53.9741 -0.84375 0
vt 59.3578 -0.84375 0
vt 53.9741 -214.879 0
vt -141.495 0 0
vt -143.253 0 0
vt -59.6703 -214.409 0
vt 53.6616 2.2545 0
vt -143.253 -0.84375 0
vt 53.6616 -212.242 0
vt 141.495 -0.84375 0
vt 141.495 0 0
vt 143.253 -0.84375 0
vt 59.6703 -0.84375 0
vt 143.253 0 0
vt -59.3578 0 0
vt -53.6616 2.2545 0
vt -53.9741 0 0
vt 142.939 2.2545 0
vt -53.6616 -214.879 0
vt -143.253 2.2545 0
vt -142.939 2.2545 0
vt 53.6616 -214.879 0
vt 59.6703 -212.242 0
vt 59.6703 -214.879 0
vt -53.9741 -0.84375 0
vt -59.6703 2.2545 0
vt -59.3578 -0.84375 0
vt -59.6703 -0.84375 0
vt 143.253 2.2545 0
vt -59.6703 -214.879 0
vt -53.6616 -0.84375 0

# 6 vertex normals
vn 0 -0.0254 0
vn -0.0254 0 0
vn 0 0 0.0254
vn 0.0254 0 0
vn 0 0.0254 0
vn 0 0 -0.0254

# Mesh 'mesh1_mesh1-geometry' with 52 faces
g mesh1_mesh1-geometry
usemtl material_0_24
f  1/1/1 2/1/1 3/1/1
f  2/1/1 1/1/1 4/1/1
f  2/1/2 5/1/2 3/1/2
f  3/1/3 6/1/3 1/1/3
f  1/1/4 7/1/4 4/1/4
f  7/1/3 2/1/3 4/1/3
f  5/1/2 2/1/2 8/1/2
f  9/1/3 3/1/3 5/1/3
f  9/1/3 6/1/3 3/1/3
f  10/1/3 1/1/3 6/1/3
f  7/1/4 1/1/4 11/1/4
f  2/1/3 7/1/3 8/1/3
f  12/1/1 5/1/1 8/1/1
f  5/1/1 12/1/1 9/1/1
f  13/1/3 6/1/3 9/1/3
f  10/1/3 14/1/3 1/1/3
f  6/1/5 15/1/5 10/1/5
f  1/1/3 14/1/3 11/1/3
f  14/1/1 7/1/1 11/1/1
f  7/1/3 16/1/3 8/1/3
f  8/1/3 16/1/3 12/1/3
f  12/1/4 13/1/4 9/1/4
f  6/1/3 13/1/3 17/1/3
f  18/1/3 14/1/3 10/1/3
f  15/1/5 6/1/5 19/1/5
f  15/1/4 18/1/4 10/1/4
f  7/1/1 14/1/1 20/1/1
f  16/1/3 7/1/3 20/1/3
f  12/1/3 16/1/3 21/1/3
f  12/1/4 22/1/4 13/1/4
f  13/1/5 23/1/5 17/1/5
f  23/1/2 6/1/2 17/1/2
f  14/1/3 18/1/3 24/1/3
f  6/1/2 23/1/2 19/1/2
f  19/1/6 25/1/6 15/1/6
f  18/1/4 15/1/4 26/1/4
f  24/1/2 20/1/2 14/1/2
f  27/1/2 16/1/2 20/1/2
f  16/1/1 25/1/1 21/1/1
f  21/1/4 25/1/4 12/1/4
f  22/1/4 12/1/4 25/1/4
f  23/1/5 13/1/5 22/1/5
f  18/1/5 27/1/5 24/1/5
f  23/1/6 25/1/6 19/1/6
f  28/1/6 15/1/6 25/1/6
f  15/1/6 27/1/6 26/1/6
f  27/1/5 18/1/5 26/1/5
f  27/1/2 20/1/2 24/1/2
f  16/1/2 27/1/2 28/1/2
f  25/1/1 16/1/1 28/1/1
f  25/1/6 23/1/6 22/1/6
f  27/1/6 15/1/6 28/1/6

# Mesh 'mesh1_mesh1-geometry' with 52 faces
g mesh1_mesh1-geometry
usemtl material_1_1_8
f  3/2/5 2/3/5 1/4/5
f  4/5/5 1/4/5 2/3/5
f  3/6/4 5/7/4 2/8/4
f  1/9/6 6/10/6 3/11/6
f  4/12/2 7/13/2 1/14/2
f  4/9/6 2/11/6 7/15/6
f  8/16/4 2/8/4 5/7/4
f  5/17/6 3/11/6 9/18/6
f  3/11/6 6/10/6 9/18/6
f  6/10/6 1/9/6 10/19/6
f  11/20/2 1/14/2 7/13/2
f  8/17/6 7/15/6 2/11/6
f  8/3/5 5/2/5 12/21/5
f  9/22/5 12/21/5 5/2/5
f  9/18/6 6/10/6 13/23/6
f  1/9/6 14/24/6 10/19/6
f  10/25/1 15/26/1 6/27/1
f  11/15/6 14/24/6 1/9/6
f  11/4/5 7/5/5 14/28/5
f  8/17/6 16/29/6 7/15/6
f  12/18/6 16/29/6 8/17/6
f  9/20/2 13/30/2 12/13/2
f  17/31/6 13/23/6 6/10/6
f  10/19/6 14/24/6 18/32/6
f  19/33/1 6/27/1 15/26/1
f  10/34/2 18/30/2 15/35/2
f  20/36/5 14/28/5 7/5/5
f  20/24/6 7/15/6 16/29/6
f  21/37/6 16/29/6 12/18/6
f  13/30/2 22/38/2 12/13/2
f  17/27/1 23/33/1 13/39/1
f  17/40/4 6/41/4 23/42/4
f  24/43/6 18/32/6 14/24/6
f  19/44/4 23/42/4 6/41/4
f  15/45/3 25/46/3 19/47/3
f  26/38/2 15/35/2 18/30/2
f  14/7/4 20/16/4 24/40/4
f  20/16/4 16/48/4 27/42/4
f  21/21/5 25/49/5 16/36/5
f  12/13/2 25/50/2 21/51/2
f  25/50/2 12/13/2 22/38/2
f  22/52/1 13/39/1 23/33/1
f  24/53/1 27/54/1 18/25/1
f  19/47/3 25/46/3 23/55/3
f  25/46/3 15/45/3 28/56/3
f  26/57/3 27/58/3 15/45/3
f  26/26/1 18/25/1 27/54/1
f  24/40/4 20/16/4 27/42/4
f  28/59/4 27/42/4 16/48/4
f  28/60/5 16/36/5 25/49/5
f  22/61/3 23/55/3 25/46/3
f  28/56/3 15/45/3 27/58/3

