# File produced by Open Asset Import Library (http://www.assimp.sf.net)
# (assimp v3.2.202087883)

mtllib model_normalized.mtl

# 116 vertex positions
v 0.384544 0.227938 0.225710
v 0.384544 0.112575 0.197107
v 0.384544 0.227938 0.197107
v 0.384544 -0.002789 0.197107
v -0.384544 0.227938 0.197107
v 0.384544 -0.015607 0.225710
v 0.384544 0.122321 0.159016
v 0.358908 0.112575 0.197107
v -0.384544 0.227938 0.225710
v 0.384544 -0.015607 -0.235743
v -0.384544 -0.015607 0.225710
v 0.384544 0.128492 0.120178
v 0.358908 0.122321 0.159016
v 0.358908 -0.002789 0.197107
v -0.358908 0.112575 0.197107
v 0.384544 -0.002789 -0.235743
v 0.384544 0.131033 0.080941
v 0.358908 0.128492 0.120178
v 0.358908 -0.002789 -0.235743
v -0.384544 0.112575 0.197107
v -0.384544 -0.002789 -0.235743
v 0.384544 0.024624 -0.207553
v -0.384544 -0.015607 -0.235743
v 0.384544 0.129924 0.041634
v 0.358908 0.131033 0.080941
v -0.358908 -0.002789 -0.235743
v 0.358908 0.024624 -0.207553
v -0.358908 -0.002789 0.197107
v -0.384544 0.121592 0.158985
v -0.384544 -0.002789 0.197107
v 0.384544 0.049304 -0.176941
v -0.384544 -0.015607 -0.001872
v 0.384544 0.125173 0.002599
v 0.358908 0.129924 0.041634
v 0.358908 0.049304 -0.176941
v -0.358908 0.121592 0.158985
v -0.358908 0.024007 -0.207164
v 0.384544 0.071037 -0.144174
v 0.384544 0.116822 -0.035825
v 0.358908 0.125173 0.002599
v 0.358908 0.071037 -0.144174
v -0.358908 0.127163 0.120203
v -0.384544 0.127163 0.120203
v -0.384544 0.024007 -0.207164
v 0.384544 0.089636 -0.109529
v 0.384544 0.104942 -0.073306
v 0.358908 0.116822 -0.035825
v -0.358908 0.048139 -0.176300
v 0.358908 0.089636 -0.109529
v -0.358908 0.129242 0.081082
v -0.384544 0.129242 0.081082
v 0.358908 0.104942 -0.073306
v -0.358908 0.069412 -0.143402
v -0.358908 0.127813 0.041932
v -0.384544 0.127813 0.041932
v -0.384544 0.048139 -0.176300
v -0.358908 0.087658 -0.108732
v -0.358908 0.122886 0.003063
v -0.384544 0.122886 0.003063
v -0.384544 0.069412 -0.143402
v -0.358908 0.102728 -0.072569
v -0.358908 0.114502 -0.035204
v -0.384544 0.114502 -0.035204
v -0.384544 0.087658 -0.108732
v -0.384544 0.102728 -0.072569
v 0.384544 -0.162866 -0.193781
v 0.384544 -0.214288 -0.149281
v 0.384544 -0.214288 -0.200553
v 0.384544 -0.114947 -0.173933
v -0.384544 -0.214288 -0.149281
v -0.384544 -0.162866 -0.193781
v -0.384544 -0.114947 -0.173933
v 0.384544 -0.172525 -0.148494
v -0.384544 -0.214288 -0.200553
v -0.384544 -0.073800 -0.142362
v 0.384544 -0.073800 -0.142362
v -0.384544 -0.172525 -0.148494
v 0.384544 -0.132633 -0.136114
v 0.384544 -0.042225 -0.101213
v -0.384544 -0.132633 -0.136114
v -0.384544 -0.042225 -0.101213
v 0.384544 -0.097766 -0.113112
v 0.384544 -0.022377 -0.053296
v -0.384544 -0.097766 -0.113112
v 0.384544 -0.070683 -0.081309
v -0.384544 -0.022377 -0.053296
v -0.384544 -0.070683 -0.081309
v 0.384544 -0.015607 -0.001872
v 0.384544 -0.053526 -0.043228
v -0.384544 -0.053526 -0.043228
v 0.384544 -0.022377 0.049552
v 0.384544 -0.047652 -0.001872
v -0.384544 -0.047652 -0.001872
v -0.384544 -0.022377 0.049552
v 0.384544 -0.053526 0.039484
v -0.384544 -0.053526 0.039484
v 0.384544 -0.042225 0.097468
v 0.384544 -0.070683 0.077565
v -0.384544 -0.070683 0.077565
v -0.384544 -0.042225 0.097468
v 0.384544 -0.073800 0.138618
v 0.384544 -0.097766 0.109368
v -0.384544 -0.097766 0.109368
v -0.384544 -0.073800 0.138618
v -0.384544 -0.114947 0.170194
v 0.384544 -0.132633 0.132370
v -0.384544 -0.132633 0.132370
v 0.384544 -0.114947 0.170194
v -0.384544 -0.172525 0.144754
v 0.384544 -0.172525 0.144754
v -0.384544 -0.162866 0.190042
v -0.384544 -0.214288 0.145536
v 0.384544 -0.162866 0.190042
v -0.384544 -0.214288 0.196809
v 0.384544 -0.214288 0.145536
v 0.384544 -0.214288 0.196809

# 0 UV coordinates

# 104 vertex normals
vn 0.0254 0 0
vn -0.0254 0 0
vn 0 0 -0.0254
vn 0 0 0.0254
vn 0 0.0254 0
vn 0 -0.0254 -0
vn 0 0.0248732 0.00514647
vn 0 0.0246074 0.00629585
vn 0 -0.0248732 -0.00514647
vn 0 -0.0246074 -0.00629585
vn 0 0.0252433 0.00281691
vn 0 -0.0252433 -0.00281691
vn 0 0.0253958 0.000463067
vn 0 -0.0253958 -0.000463067
vn 0 0.024718 0.00584662
vn 0 0.024955 0.00473393
vn 0 -0.024718 -0.00584662
vn 0 -0.024955 -0.00473393
vn 0 0.01821 -0.0177075
vn 0 0.0190126 -0.0168428
vn 0 -0.01821 0.0177075
vn 0 -0.0190126 0.0168428
vn 0 0.0253292 -0.00189476
vn 0 -0.0253292 0.00189476
vn 0 0.0185295 -0.0173729
vn 0 0.0192889 -0.0165257
vn 0 -0.0185295 0.0173729
vn 0 -0.0192889 0.0165257
vn 0 0.020493 -0.0150065
vn 0 -0.020493 0.0150065
vn 0 0.0250442 -0.00423626
vn 0 -0.0250442 0.00423626
vn 0 0.0252784 0.00248229
vn 0 -0.0252784 -0.00248229
vn 0 0.0217968 -0.0130408
vn 0 -0.0217968 0.0130408
vn 0 0.0245433 -0.00654124
vn 0 -0.0245433 0.00654124
vn 0 0.02069 -0.0147337
vn 0 -0.02069 0.0147337
vn 0 0.0229125 -0.0109625
vn 0 -0.0229125 0.0109625
vn 0 0.0238306 -0.0087898
vn 0 -0.0238306 0.0087898
vn 0 0.0253991 0.000210744
vn 0 -0.0253991 -0.000210744
vn 0 0.0219252 -0.0128236
vn 0 -0.0219252 0.0128236
vn 0 0.0253161 -0.00206248
vn 0 -0.0253161 0.00206248
vn 0 0.0229846 -0.0108105
vn 0 -0.0229846 0.0108105
vn 0 0.0250301 -0.00431919
vn 0 -0.0250301 0.00431919
vn 0 0.0238596 -0.00871083
vn 0 -0.0238596 0.00871083
vn 0 0.00331536 -0.0251827
vn 0 0.006574 -0.0245345
vn 0 -0.006574 0.0245345
vn 0 -0.00331536 0.0251827
vn 0 0.0127 -0.021997
vn 0 -0.0127 0.021997
vn 0 -0.00404381 0.025076
vn 0 -0.000477368 0.0253955
vn 0 0.000477368 -0.0253955
vn 0 0.00404381 -0.025076
vn 0 0.0179605 -0.0179605
vn 0 -0.0179605 0.0179605
vn 0 -0.0108663 0.0229583
vn 0 0.0108663 -0.0229583
vn 0 0.021997 -0.0127
vn 0 -0.021997 0.0127
vn 0 -0.0168294 0.0190245
vn 0 0.0168294 -0.0190245
vn 0 0.0245345 -0.006574
vn 0 -0.0245345 0.006574
vn 0 -0.0214612 0.0135859
vn 0 0.0214612 -0.0135859
vn 0 -0.0243954 0.00707268
vn 0 0.0243954 -0.00707268
vn 0 0.0245345 0.006574
vn 0 -0.0245345 -0.006574
vn 0 0.021997 0.0127
vn 0 -0.021997 -0.0127
vn -0 -0.0243954 -0.00707268
vn 0 0.0243954 0.00707268
vn -0 -0.0214612 -0.0135859
vn 0 0.0214612 0.0135859
vn 0 0.0179605 0.0179605
vn 0 -0.0179605 -0.0179605
vn -0 -0.0168294 -0.0190245
vn 0 0.0168294 0.0190245
vn 0 0.0127 0.021997
vn 0 -0.0127 -0.021997
vn -0 -0.0108663 -0.0229583
vn 0 0.0108663 0.0229583
vn 0 0.006574 0.0245345
vn 0 -0.006574 -0.0245345
vn -0 -0.00404381 -0.025076
vn 0 0.00404381 0.025076
vn -0 -0.000477368 -0.0253955
vn 0 0.000477368 0.0253955
vn 0 0.00331536 0.0251827
vn 0 -0.00331536 -0.0251827

# Mesh 'mesh1_mesh1-geometry' with 268 faces
g mesh1_mesh1-geometry
usemtl material_0_24
f  1//1 2//1 3//1
f  2//1 1//1 4//1
f  3//2 2//2 1//2
f  4//2 1//2 2//2
f  2//3 5//3 3//3
f  3//4 5//4 2//4
f  5//5 1//5 3//5
f  3//6 1//6 5//6
f  6//1 4//1 1//1
f  1//2 4//2 6//2
f  4//1 7//1 2//1
f  2//2 7//2 4//2
f  4//3 8//3 2//3
f  2//4 8//4 4//4
f  8//3 5//3 2//3
f  2//4 5//4 8//4
f  1//5 5//5 9//5
f  9//6 5//6 1//6
f  10//1 4//1 6//1
f  6//2 4//2 10//2
f  1//4 11//4 6//4
f  6//3 11//3 1//3
f  4//1 12//1 7//1
f  7//2 12//2 4//2
f  13//7 2//8 7//7
f  7//9 2//10 13//9
f  8//3 4//3 14//3
f  14//4 4//4 8//4
f  2//8 13//7 8//8
f  8//10 13//9 2//10
f  15//3 5//3 8//3
f  8//4 5//4 15//4
f  5//2 11//2 9//2
f  9//1 11//1 5//1
f  11//4 1//4 9//4
f  9//3 1//3 11//3
f  4//1 10//1 16//1
f  16//2 10//2 4//2
f  11//6 10//6 6//6
f  6//5 10//5 11//5
f  4//1 17//1 12//1
f  12//2 17//2 4//2
f  18//11 7//7 12//11
f  12//12 7//9 18//12
f  7//7 18//11 13//7
f  13//9 18//12 7//9
f  4//5 19//5 14//5
f  14//6 19//6 4//6
f  14//3 15//3 8//3
f  8//4 15//4 14//4
f  13//2 14//2 8//2
f  8//1 14//1 13//1
f  5//3 15//3 20//3
f  20//4 15//4 5//4
f  20//2 11//2 5//2
f  5//1 11//1 20//1
f  10//3 21//3 16//3
f  16//4 21//4 10//4
f  22//1 4//1 16//1
f  16//2 4//2 22//2
f  19//5 4//5 16//5
f  16//6 4//6 19//6
f  10//6 11//6 23//6
f  23//5 11//5 10//5
f  4//1 24//1 17//1
f  17//2 24//2 4//2
f  25//13 12//11 17//13
f  17//14 12//12 25//14
f  12//11 25//13 18//11
f  18//12 25//14 12//12
f  18//2 14//2 13//2
f  13//1 14//1 18//1
f  26//5 14//5 19//5
f  19//6 14//6 26//6
f  14//2 27//2 19//2
f  19//1 27//1 14//1
f  15//3 14//3 28//3
f  28//4 14//4 15//4
f  15//15 29//16 20//15
f  20//17 29//18 15//17
f  28//3 20//3 15//3
f  15//4 20//4 28//4
f  30//2 11//2 20//2
f  20//1 11//1 30//1
f  21//3 10//3 23//3
f  23//4 10//4 21//4
f  16//3 21//3 26//3
f  26//4 21//4 16//4
f  4//1 22//1 31//1
f  31//2 22//2 4//2
f  19//19 22//20 16//19
f  16//21 22//22 19//21
f  16//3 26//3 19//3
f  19//4 26//4 16//4
f  23//6 11//6 32//6
f  32//5 11//5 23//5
f  4//1 33//1 24//1
f  24//2 33//2 4//2
f  34//23 17//13 24//23
f  24//24 17//14 34//24
f  17//13 34//23 25//13
f  25//14 34//24 17//14
f  25//2 14//2 18//2
f  18//1 14//1 25//1
f  14//5 26//5 28//5
f  28//6 26//6 14//6
f  27//2 14//2 35//2
f  35//1 14//1 27//1
f  22//20 19//19 27//20
f  27//22 19//21 22//22
f  28//1 36//1 15//1
f  15//2 36//2 28//2
f  29//16 15//15 36//16
f  36//18 15//17 29//18
f  29//2 30//2 20//2
f  20//1 30//1 29//1
f  20//3 28//3 30//3
f  30//4 28//4 20//4
f  30//2 32//2 11//2
f  11//1 32//1 30//1
f  32//2 21//2 23//2
f  23//1 21//1 32//1
f  21//25 37//26 26//25
f  26//27 37//28 21//27
f  21//5 28//5 26//5
f  26//6 28//6 21//6
f  27//20 31//29 22//20
f  22//22 31//30 27//22
f  4//1 31//1 38//1
f  38//2 31//2 4//2
f  4//1 39//1 33//1
f  33//2 39//2 4//2
f  40//31 24//23 33//31
f  33//32 24//24 40//32
f  24//23 40//31 34//23
f  34//24 40//32 24//24
f  34//2 14//2 25//2
f  25//1 14//1 34//1
f  37//1 28//1 26//1
f  26//2 28//2 37//2
f  35//2 14//2 41//2
f  41//1 14//1 35//1
f  31//29 27//20 35//29
f  35//30 27//22 31//30
f  28//1 42//1 36//1
f  36//2 42//2 28//2
f  36//16 43//33 29//16
f  29//18 43//34 36//18
f  43//2 30//2 29//2
f  29//1 30//1 43//1
f  28//5 21//5 30//5
f  30//6 21//6 28//6
f  21//2 32//2 30//2
f  30//1 32//1 21//1
f  37//26 21//25 44//26
f  44//28 21//27 37//28
f  35//29 38//35 31//29
f  31//30 38//36 35//30
f  4//1 38//1 45//1
f  45//2 38//2 4//2
f  4//1 46//1 39//1
f  39//2 46//2 4//2
f  47//37 33//31 39//37
f  39//38 33//32 47//38
f  33//31 47//37 40//31
f  40//32 47//38 33//32
f  40//2 14//2 34//2
f  34//1 14//1 40//1
f  28//1 37//1 48//1
f  48//2 37//2 28//2
f  41//2 14//2 49//2
f  49//1 14//1 41//1
f  38//35 35//29 41//35
f  41//36 35//30 38//36
f  28//1 50//1 42//1
f  42//2 50//2 28//2
f  43//33 36//16 42//33
f  42//34 36//18 43//34
f  51//2 30//2 43//2
f  43//1 30//1 51//1
f  30//2 44//2 21//2
f  21//1 44//1 30//1
f  44//26 48//39 37//26
f  37//28 48//40 44//28
f  41//35 45//41 38//35
f  38//36 45//42 41//36
f  4//1 45//1 46//1
f  46//2 45//2 4//2
f  52//43 39//37 46//43
f  46//44 39//38 52//44
f  39//37 52//43 47//37
f  47//38 52//44 39//38
f  47//2 14//2 40//2
f  40//1 14//1 47//1
f  28//1 48//1 53//1
f  53//2 48//2 28//2
f  49//2 14//2 52//2
f  52//1 14//1 49//1
f  45//41 41//35 49//41
f  49//42 41//36 45//42
f  28//1 54//1 50//1
f  50//2 54//2 28//2
f  51//45 42//33 50//45
f  50//46 42//34 51//46
f  42//33 51//45 43//33
f  43//34 51//46 42//34
f  55//2 30//2 51//2
f  51//1 30//1 55//1
f  44//2 30//2 56//2
f  56//1 30//1 44//1
f  48//39 44//26 56//39
f  56//40 44//28 48//40
f  49//41 46//43 45//41
f  45//42 46//44 49//42
f  46//43 49//41 52//43
f  52//44 49//42 46//44
f  52//2 14//2 47//2
f  47//1 14//1 52//1
f  56//39 53//47 48//39
f  48//40 53//48 56//40
f  28//1 53//1 57//1
f  57//2 53//2 28//2
f  28//1 58//1 54//1
f  54//2 58//2 28//2
f  55//49 50//45 54//49
f  54//50 50//46 55//50
f  50//45 55//49 51//45
f  51//46 55//50 50//46
f  59//2 30//2 55//2
f  55//1 30//1 59//1
f  56//2 30//2 60//2
f  60//1 30//1 56//1
f  53//47 56//39 60//47
f  60//48 56//40 53//48
f  60//47 57//51 53//47
f  53//48 57//52 60//48
f  28//1 57//1 61//1
f  61//2 57//2 28//2
f  28//1 62//1 58//1
f  58//2 62//2 28//2
f  59//53 54//49 58//53
f  58//54 54//50 59//54
f  54//49 59//53 55//49
f  55//50 59//54 54//50
f  63//2 30//2 59//2
f  59//1 30//1 63//1
f  60//2 30//2 64//2
f  64//1 30//1 60//1
f  57//51 60//47 64//51
f  64//52 60//48 57//52
f  64//51 61//55 57//51
f  57//52 61//56 64//52
f  28//1 61//1 62//1
f  62//2 61//2 28//2
f  63//37 58//53 62//37
f  62//38 58//54 63//38
f  58//53 63//37 59//53
f  59//54 63//38 58//54
f  65//2 30//2 63//2
f  63//1 30//1 65//1
f  64//2 30//2 65//2
f  65//1 30//1 64//1
f  61//55 64//51 65//55
f  65//56 64//52 61//56
f  65//55 62//37 61//55
f  61//56 62//38 65//56
f  62//37 65//55 63//37
f  63//38 65//56 62//38

# Mesh 'mesh2_mesh2-geometry' with 200 faces
g mesh2_mesh2-geometry
usemtl material_0_24
f  66//1 67//1 68//1
f  67//1 66//1 69//1
f  68//2 67//2 66//2
f  69//2 66//2 67//2
f  70//6 68//6 67//6
f  67//5 68//5 70//5
f  68//57 71//58 66//58
f  66//59 71//59 68//60
f  66//58 72//61 69//61
f  69//62 72//62 66//59
f  67//1 69//1 73//1
f  73//2 69//2 67//2
f  68//6 70//6 74//6
f  74//5 70//5 68//5
f  73//63 70//64 67//64
f  67//65 70//65 73//66
f  71//58 68//57 74//57
f  74//60 68//60 71//59
f  72//61 66//58 71//58
f  71//59 66//59 72//62
f  75//67 69//61 72//61
f  72//62 69//62 75//68
f  73//1 69//1 76//1
f  76//2 69//2 73//2
f  70//2 71//2 74//2
f  74//1 71//1 70//1
f  70//64 73//63 77//63
f  77//66 73//66 70//65
f  71//2 70//2 72//2
f  72//1 70//1 71//1
f  69//61 75//67 76//67
f  76//68 75//68 69//62
f  72//2 77//2 75//2
f  75//1 77//1 72//1
f  73//1 76//1 78//1
f  78//2 76//2 73//2
f  78//69 77//63 73//63
f  73//66 77//66 78//70
f  72//2 70//2 77//2
f  77//1 70//1 72//1
f  75//67 79//71 76//67
f  76//68 79//72 75//68
f  75//2 77//2 80//2
f  80//1 77//1 75//1
f  78//1 76//1 79//1
f  79//2 76//2 78//2
f  77//63 78//69 80//69
f  80//70 78//70 77//66
f  79//71 75//67 81//71
f  81//72 75//68 79//72
f  75//2 80//2 81//2
f  81//1 80//1 75//1
f  78//1 79//1 82//1
f  82//2 79//2 78//2
f  82//73 80//69 78//69
f  78//70 80//70 82//74
f  81//71 83//75 79//71
f  79//72 83//76 81//72
f  81//2 80//2 84//2
f  84//1 80//1 81//1
f  82//1 79//1 85//1
f  85//2 79//2 82//2
f  80//69 82//73 84//73
f  84//74 82//74 80//70
f  83//75 81//71 86//75
f  86//76 81//72 83//76
f  85//1 79//1 83//1
f  83//2 79//2 85//2
f  81//2 84//2 87//2
f  87//1 84//1 81//1
f  87//77 82//73 85//77
f  85//78 82//74 87//78
f  82//73 87//77 84//73
f  84//74 87//78 82//74
f  81//2 87//2 86//2
f  86//1 87//1 81//1
f  86//75 88//5 83//75
f  83//76 88//6 86//76
f  85//1 83//1 89//1
f  89//2 83//2 85//2
f  85//77 90//79 87//77
f  87//78 90//80 85//78
f  86//2 87//2 90//2
f  90//1 87//1 86//1
f  88//5 86//75 32//5
f  32//6 86//76 88//6
f  89//1 83//1 88//1
f  88//2 83//2 89//2
f  90//79 85//77 89//79
f  89//80 85//78 90//80
f  86//2 90//2 32//2
f  32//1 90//1 86//1
f  32//5 91//81 88//5
f  88//6 91//82 32//6
f  89//1 88//1 92//1
f  92//2 88//2 89//2
f  89//79 93//6 90//79
f  90//80 93//5 89//80
f  32//2 90//2 93//2
f  93//1 90//1 32//1
f  91//81 32//5 94//81
f  94//82 32//6 91//82
f  95//1 88//1 91//1
f  91//2 88//2 95//2
f  92//1 88//1 95//1
f  95//2 88//2 92//2
f  93//6 89//79 92//6
f  92//5 89//80 93//5
f  32//2 93//2 96//2
f  96//1 93//1 32//1
f  32//2 96//2 94//2
f  94//1 96//1 32//1
f  94//81 97//83 91//81
f  91//82 97//84 94//82
f  95//1 91//1 98//1
f  98//2 91//2 95//2
f  96//85 92//6 95//85
f  95//86 92//5 96//86
f  92//6 96//85 93//6
f  93//5 96//86 92//5
f  94//2 96//2 99//2
f  99//1 96//1 94//1
f  97//83 94//81 100//83
f  100//84 94//82 97//84
f  98//1 91//1 97//1
f  97//2 91//2 98//2
f  99//87 95//85 98//87
f  98//88 95//86 99//88
f  95//85 99//87 96//85
f  96//86 99//88 95//86
f  94//2 99//2 100//2
f  100//1 99//1 94//1
f  100//83 101//89 97//83
f  97//84 101//90 100//84
f  98//1 97//1 102//1
f  102//2 97//2 98//2
f  98//87 103//91 99//87
f  99//88 103//92 98//88
f  100//2 99//2 103//2
f  103//1 99//1 100//1
f  101//89 100//83 104//89
f  104//90 100//84 101//90
f  102//1 97//1 101//1
f  101//2 97//2 102//2
f  103//91 98//87 102//91
f  102//92 98//88 103//92
f  100//2 103//2 104//2
f  104//1 103//1 100//1
f  105//93 101//89 104//89
f  104//90 101//90 105//94
f  102//1 101//1 106//1
f  106//2 101//2 102//2
f  106//95 103//91 102//91
f  102//92 103//92 106//96
f  104//2 103//2 107//2
f  107//1 103//1 104//1
f  101//89 105//93 108//93
f  108//94 105//94 101//90
f  104//2 109//2 105//2
f  105//1 109//1 104//1
f  106//1 101//1 110//1
f  110//2 101//2 106//2
f  103//91 106//95 107//95
f  107//96 106//96 103//92
f  104//2 107//2 109//2
f  109//1 107//1 104//1
f  111//97 108//93 105//93
f  105//94 108//94 111//98
f  110//1 101//1 108//1
f  108//2 101//2 110//2
f  105//2 109//2 112//2
f  112//1 109//1 105//1
f  110//99 107//95 106//95
f  106//96 107//96 110//100
f  107//95 110//99 109//99
f  109//100 110//100 107//96
f  108//93 111//97 113//97
f  113//98 111//98 108//94
f  105//2 114//2 111//2
f  111//1 114//1 105//1
f  110//1 108//1 115//1
f  115//2 108//2 110//2
f  109//99 115//101 112//101
f  112//102 115//102 109//100
f  105//2 112//2 114//2
f  114//1 112//1 105//1
f  115//101 109//99 110//99
f  110//100 109//100 115//102
f  114//103 113//97 111//97
f  111//98 113//98 114//104
f  116//1 108//1 113//1
f  113//2 108//2 116//2
f  115//1 108//1 116//1
f  116//2 108//2 115//2
f  115//6 114//6 112//6
f  112//5 114//5 115//5
f  113//97 114//103 116//103
f  116//104 114//104 113//98
f  114//6 115//6 116//6
f  116//5 115//5 114//5

# Mesh 'mesh3_mesh3-geometry' with 137 faces
g mesh3_mesh3-geometry
usemtl material_0_0
l  116 113
l  116 115
l  116 114
l  113 108
l  115 110
l  115 112
l  114 112
l  114 111
l  108 101
l  110 106
l  112 109
l  111 105
l  101 97
l  106 102
l  109 107
l  105 104
l  97 91
l  102 98
l  107 103
l  104 100
l  91 88
l  98 95
l  103 99
l  100 94
l  88 83
l  88 6
l  88 10
l  95 92
l  99 96
l  94 32
l  83 79
l  6 1
l  10 6
l  6 11
l  16 10
l  10 23
l  92 89
l  96 93
l  23 32
l  32 86
l  32 11
l  79 76
l  1 3
l  1 9
l  11 9
l  16 19
l  4 16
l  22 16
l  21 23
l  89 85
l  93 90
l  86 81
l  76 69
l  3 5
l  2 3
l  9 5
l  14 19
l  27 19
l  19 26
l  4 14
l  4 2
l  31 22
l  30 21
l  44 21
l  26 21
l  85 82
l  90 87
l  81 75
l  69 66
l  20 5
l  2 7
l  2 8
l  14 8
l  14 28
l  35 27
l  37 26
l  28 26
l  38 31
l  30 20
l  28 30
l  56 44
l  82 78
l  87 84
l  75 72
l  66 68
l  20 29
l  20 15
l  7 12
l  8 13
l  28 15
l  41 35
l  48 37
l  45 38
l  60 56
l  78 73
l  84 80
l  72 71
l  68 67
l  68 74
l  29 43
l  15 36
l  12 17
l  13 18
l  49 41
l  53 48
l  46 45
l  64 60
l  73 67
l  80 77
l  71 74
l  67 70
l  74 70
l  43 51
l  36 42
l  17 24
l  18 25
l  52 49
l  57 53
l  39 46
l  65 64
l  77 70
l  51 55
l  42 50
l  24 33
l  25 34
l  47 52
l  61 57
l  33 39
l  63 65
l  55 59
l  50 54
l  34 40
l  40 47
l  62 61
l  59 63
l  54 58
l  58 62

