# File produced by Open Asset Import Library (http://www.assimp.sf.net)
# (assimp v3.2.202087883)

mtllib model_normalized.mtl

# 24 vertex positions
v -0.471405 0.125217 0.017172
v 0.471405 0.125217 0.109265
v 0.471405 0.125217 0.017172
v -0.471405 0.125217 0.109265
v 0.441942 0.095754 0.109265
v 0.471405 -0.110485 0.017172
v -0.471405 0.125217 -0.126437
v -0.441942 0.095754 0.017172
v -0.471405 -0.110485 0.109265
v -0.441942 0.095754 0.109265
v 0.441942 0.095754 0.017172
v 0.441942 -0.110485 0.109265
v 0.471405 -0.110485 0.109265
v 0.471405 -0.110485 -0.126437
v 0.441942 -0.110485 0.017172
v 0.471405 0.125217 -0.126437
v -0.441942 0.095754 -0.126437
v -0.471405 -0.110485 0.017172
v 0.441942 0.095754 -0.126437
v -0.441942 -0.110485 -0.126437
v -0.471405 -0.110485 -0.126437
v -0.441942 -0.110485 0.017172
v -0.441942 -0.110485 0.109265
v 0.441942 -0.110485 -0.126437

# 0 UV coordinates

# 10 vertex normals
vn 0 0.0254 0
vn 0 -0.0254 -0
vn -0.0179605 0.0179605 0
vn 0.0179605 -0.0179605 -0
vn 0.0254 0 0
vn -0.0254 0 0
vn 0 0 0.0254
vn 0 -0 -0.0254
vn 0.0179605 0.0179605 0
vn -0.0179605 -0.0179605 0

# Mesh 'mesh1_mesh1-geometry' with 116 faces
g mesh1_mesh1-geometry
usemtl material_0_24
f  1//1 2//1 3//1
f  2//1 1//1 4//1
f  3//2 2//2 1//2
f  4//2 1//2 2//2
f  3//3 5//3 2//3
f  2//4 5//4 3//4
f  2//5 6//5 3//5
f  3//6 6//6 2//6
f  3//1 7//1 1//1
f  1//2 7//2 3//2
f  1//7 8//7 3//7
f  3//8 8//8 1//8
f  1//6 9//6 4//6
f  4//5 9//5 1//5
f  8//9 1//9 4//9
f  4//10 1//10 8//10
f  10//7 2//7 4//7
f  4//8 2//8 10//8
f  3//3 11//3 5//3
f  5//4 11//4 3//4
f  12//7 2//7 5//7
f  5//8 2//8 12//8
f  2//7 10//7 5//7
f  5//8 10//8 2//8
f  6//5 2//5 13//5
f  13//6 2//6 6//6
f  14//5 3//5 6//5
f  6//6 3//6 14//6
f  3//7 15//7 6//7
f  6//8 15//8 3//8
f  7//1 3//1 16//1
f  16//2 3//2 7//2
f  1//9 17//9 7//9
f  7//10 17//10 1//10
f  7//6 18//6 1//6
f  1//5 18//5 7//5
f  17//9 1//9 8//9
f  8//10 1//10 17//10
f  18//7 8//7 1//7
f  1//8 8//8 18//8
f  11//7 3//7 8//7
f  8//8 3//8 11//8
f  9//6 1//6 18//6
f  18//5 1//5 9//5
f  9//7 10//7 4//7
f  4//8 10//8 9//8
f  8//9 4//9 10//9
f  10//10 4//10 8//10
f  16//3 11//3 3//3
f  3//4 11//4 16//4
f  15//7 3//7 11//7
f  11//8 3//8 15//8
f  10//2 11//2 5//2
f  5//1 11//1 10//1
f  11//6 12//6 5//6
f  5//5 12//5 11//5
f  2//7 12//7 13//7
f  13//8 12//8 2//8
f  12//2 6//2 13//2
f  13//1 6//1 12//1
f  3//5 14//5 16//5
f  16//6 14//6 3//6
f  15//2 14//2 6//2
f  6//1 14//1 15//1
f  6//2 12//2 15//2
f  15//1 12//1 6//1
f  19//8 7//8 16//8
f  16//7 7//7 19//7
f  7//8 19//8 17//8
f  17//7 19//7 7//7
f  20//8 7//8 17//8
f  17//7 7//7 20//7
f  18//6 7//6 21//6
f  21//5 7//5 18//5
f  8//5 20//5 17//5
f  17//6 20//6 8//6
f  19//2 8//2 17//2
f  17//1 8//1 19//1
f  8//7 18//7 22//7
f  22//8 18//8 8//8
f  11//2 10//2 8//2
f  8//1 10//1 11//1
f  8//2 19//2 11//2
f  11//1 19//1 8//1
f  22//2 9//2 18//2
f  18//1 9//1 22//1
f  10//7 9//7 23//7
f  23//8 9//8 10//8
f  10//5 22//5 8//5
f  8//6 22//6 10//6
f  11//3 16//3 19//3
f  19//4 16//4 11//4
f  12//6 11//6 15//6
f  15//5 11//5 12//5
f  19//6 15//6 11//6
f  11//5 15//5 19//5
f  14//8 19//8 16//8
f  16//7 19//7 14//7
f  14//2 15//2 24//2
f  24//1 15//1 14//1
f  7//8 20//8 21//8
f  21//7 20//7 7//7
f  20//2 18//2 21//2
f  21//1 18//1 20//1
f  20//5 8//5 22//5
f  22//6 8//6 20//6
f  18//2 20//2 22//2
f  22//1 20//1 18//1
f  9//2 22//2 23//2
f  23//1 22//1 9//1
f  22//5 10//5 23//5
f  23//6 10//6 22//6
f  15//6 19//6 24//6
f  24//5 19//5 15//5
f  19//8 14//8 24//8
f  24//7 14//7 19//7

# Mesh 'mesh2_mesh2-geometry' with 44 faces
g mesh2_mesh2-geometry
usemtl material_0_0
l  16 7
l  16 14
l  16 19
l  3 16
l  7 1
l  21 7
l  17 7
l  14 6
l  14 24
l  19 24
l  19 17
l  11 19
l  2 3
l  3 6
l  3 1
l  1 4
l  1 18
l  21 20
l  18 21
l  20 17
l  17 8
l  6 13
l  15 6
l  24 15
l  5 11
l  8 11
l  11 15
l  4 2
l  13 2
l  5 2
l  4 9
l  10 4
l  9 18
l  22 18
l  22 20
l  8 10
l  22 8
l  13 12
l  15 12
l  10 5
l  12 5
l  9 23
l  10 23
l  23 22

