# File produced by Open Asset Import Library (http://www.assimp.sf.net)
# (assimp v3.2.202087883)

mtllib model_normalized.mtl

# 90 vertex positions
v 0.182959 0.535906 -0.062115
v 0.174245 -0.385853 -0.062115
v 0.182959 -0.385853 -0.062115
v 0.174245 0.535906 -0.062115
v 0.182959 -0.385853 0.066286
v 0.174245 0.535906 0.066286
v 0.174245 0.534962 -0.061151
v 0.174245 -0.385853 0.066286
v 0.182959 0.535906 0.066286
v 0.174245 0.525775 -0.061151
v 0.174244 -0.385853 -0.051978
v 0.174245 0.534962 0.060362
v 0.174245 0.525775 0.060362
v -0.174212 0.525775 -0.061151
v 0.174243 -0.359321 -0.061151
v 0.174244 -0.385853 -0.042799
v 0.174245 0.083289 0.060362
v -0.174212 0.534962 -0.061151
v -0.174212 0.525775 0.060362
v 0.174245 0.401969 -0.061151
v 0.174243 -0.359321 -0.051978
v -0.174213 -0.385853 -0.042799
v 0.174244 -0.385853 0.041893
v 0.174243 -0.359321 0.060362
v 0.174245 0.092472 0.060362
v 0.174245 0.401969 0.060362
v -0.174212 0.534962 0.060362
v -0.174212 0.401969 0.060362
v -0.174213 0.535906 -0.062115
v 0.174245 0.392787 -0.061151
v 0.174243 -0.350138 0.060362
v -0.174214 -0.359321 -0.051978
v -0.174213 -0.385853 -0.051978
v 0.174243 -0.359321 -0.042799
v 0.174244 -0.385853 0.051127
v 0.174243 -0.359321 0.051127
v 0.174245 0.259804 0.060362
v -0.174212 0.092472 0.060362
v 0.174245 0.083289 -0.061151
v 0.174245 0.392787 0.060362
v -0.174213 0.535906 0.066286
v -0.174212 0.401969 -0.061151
v -0.174214 -0.359321 -0.061151
v -0.174212 0.392787 -0.061151
v 0.174245 0.268986 -0.061151
v 0.174244 -0.350138 -0.061151
v 0.172820 -0.359321 -0.061151
v -0.174214 -0.359321 -0.042799
v -0.182927 -0.385853 -0.062115
v 0.174243 -0.359321 0.041893
v -0.174214 -0.385853 0.041893
v -0.174214 -0.359321 0.051072
v 0.174244 -0.196501 0.060362
v -0.174214 -0.350138 0.060362
v 0.174245 0.268986 0.060362
v 0.174245 0.092472 -0.061151
v -0.174212 0.259804 0.060362
v -0.174212 0.083289 0.060362
v -0.174212 0.092472 -0.061151
v 0.174245 -0.040523 -0.061151
v -0.174212 0.392787 0.060362
v -0.182927 0.535906 0.066286
v -0.174213 -0.385853 -0.062115
v -0.174214 -0.350138 -0.061151
v 0.174245 0.259804 -0.061151
v 0.174244 -0.196501 -0.061151
v -0.174214 -0.359321 0.041893
v -0.174214 -0.385853 0.051072
v -0.174214 -0.359321 0.060362
v 0.174244 -0.187318 0.060362
v -0.174214 -0.196501 0.060362
v -0.174212 0.268986 0.060362
v 0.174244 -0.040523 0.060362
v -0.174213 -0.385853 0.066286
v -0.174212 0.259804 -0.061151
v -0.174212 0.083289 -0.061151
v -0.182927 0.535906 -0.062115
v -0.174214 -0.196501 -0.061151
v -0.174212 0.268986 -0.061151
v 0.174244 -0.187318 -0.061151
v -0.174213 -0.385853 0.057020
v 0.174244 -0.049706 0.060362
v -0.174214 -0.187318 0.060362
v -0.174213 -0.040523 0.060362
v 0.174244 -0.049706 -0.061151
v -0.174213 -0.040523 -0.061151
v -0.182927 -0.385853 0.066286
v -0.174214 -0.187318 -0.061151
v -0.174213 -0.049706 0.060362
v -0.174213 -0.049706 -0.061151

# 288 UV coordinates
vt 0 4.02147 0
vt -0.038018 0 0
vt 0 0 0
vt -0.038018 4.02147 0
vt 0.038018 0 0
vt 0 0.56019 0
vt 0.56019 0 0
vt -0.038018 0.56019 0
vt -0.004206 4.01733 0
vt 0.038018 0.56019 0
vt 0.56019 4.02147 0
vt -0.56019 4.02147 0
vt -0.004206 3.97727 0
vt 0.038022 0.044224 0
vt 0.038018 4.02147 0
vt -0.534342 4.01733 0
vt -0.534342 3.97727 0
vt -0.038018 4.01733 0
vt -1.55827 3.97727 0
vt -0.038018 3.97727 0
vt -0.004206 0.115755 0
vt -0.044224 -0 0
vt 0.038022 0.08427 0
vt -0.56019 -0 0
vt -0.534342 2.04678 0
vt 1.55827 0.004206 0
vt 0.038018 0.534342 0
vt 0.038018 0.004206 0
vt -1.55827 0.534342 0
vt -0.038018 0.004206 0
vt -0.038018 0.534342 0
vt -0.004206 3.43712 0
vt -1.55827 4.01733 0
vt -1.55827 0.004206 0
vt -0.044224 0.115755 0
vt -0.044224 0.115757 0
vt -0.08427 1e-06 0
vt -0.044224 1e-06 0
vt 1.55827 0.08427 0
vt 0.038022 0.453766 0
vt -0.534342 0.115755 0
vt -0.534342 2.08684 0
vt -0.534342 3.43712 0
vt 1.55827 0.534342 0
vt -1.55827 3.43712 0
vt 0.534342 3.97727 0
vt 0.004206 4.01733 0
vt 0.004206 3.97727 0
vt 0.004207 4.01733 0
vt 1e-06 4.02146 0
vt 0.004207 3.97727 0
vt 0.534343 3.43712 0
vt 0.534343 3.97727 0
vt -0.004206 3.39705 0
vt -0.004206 0.115754 0
vt -0.534342 0.155817 0
vt -0.044224 0.115754 0
vt -1.55827 0.044224 0
vt -0.038026 0.004206 0
vt -0.038026 0.044224 0
vt -0.038022 0 0
vt -1.55827 0 0
vt -0.038026 0.115755 0
vt -0.08427 0.115757 0
vt 1.55827 0.044224 0
vt 0.038022 0 0
vt 0.038026 0.115755 0
vt 1.55827 0 0
vt 0.038023 0.494054 0
vt -0.453766 1e-06 0
vt -0.494054 0.115755 0
vt -0.534342 0.155818 0
vt -0.534342 2.81688 0
vt 0.038018 2.04678 0
vt 1.55827 2.08684 0
vt 0.038018 2.08684 0
vt -0.004206 2.04678 0
vt -0.534342 3.39705 0
vt -0.038018 3.43712 0
vt 0.534342 4.01733 0
vt 0.560191 4.02146 0
vt 0.534343 4.01733 0
vt -0.004206 3.39706 0
vt 0.004207 0.115754 0
vt 0.004207 3.43712 0
vt -1.55827 3.39706 0
vt -0.038018 3.39706 0
vt -0.004206 2.85694 0
vt -0.004206 0.155817 0
vt -0.08427 0.115754 0
vt -0.044234 0.004206 0
vt -1.55827 0.08427 0
vt -1.55827 0.115755 0
vt -0.038026 0.08427 0
vt 1.59629 0 0
vt 0.084274 3.6e-05 0
vt 0.044228 0.115791 0
vt 0.044228 3.6e-05 0
vt 1.55827 0.115755 0
vt -0.453766 0.115756 0
vt -0.494054 1e-06 0
vt 1.55828 0.453766 0
vt -0.494054 -0 0
vt -0.453766 0.115757 0
vt -0.494054 0.115754 0
vt -0.534342 0.115754 0
vt -0.038026 0.534342 0
vt -1.55828 0.493812 0
vt -0.038026 0.494054 0
vt -0.534342 0.826108 0
vt 1.55828 0.155819 0
vt 0.038026 0.155819 0
vt -0.534342 2.85694 0
vt -0.004206 2.08684 0
vt 1.55827 2.81688 0
vt 0.038018 2.81688 0
vt 1.55827 2.04678 0
vt -0.004206 1.50661 0
vt -0.534342 3.39706 0
vt -1.59629 0.56019 0
vt -1.55827 0.56019 0
vt 1e-06 -1e-06 0
vt 0.004207 0.155817 0
vt 0.004207 3.39705 0
vt 0.004206 3.43712 0
vt 0.534342 3.39706 0
vt 0.534342 3.43712 0
vt -0.004206 2.81688 0
vt 0.038023 0.155819 0
vt -0.004206 0.826108 0
vt -0.004206 0.155818 0
vt 1.55828 0.004206 0
vt 0.038026 0.534342 0
vt 0.038023 0.004206 0
vt -0.453766 0.115754 0
vt -1.55828 0.004206 0
vt 0.044234 0.115755 0
vt 0.084274 0.115791 0
vt 0.534345 0.155851 0
vt 0.044227 0.115787 0
vt 0.084273 0.115787 0
vt 0.044225 -1e-06 0
vt 0.044225 0.115754 0
vt -1.55828 0.453766 0
vt 0.453782 2.2e-05 0
vt 0.084286 0.115777 0
vt 0.084286 2.2e-05 0
vt -0.494054 0.115756 0
vt 1.55828 0 0
vt 1.55828 0.493812 0
vt 0.037945 0 0
vt 0.037947 0.115755 0
vt 1.5582 0 0
vt -0.038026 0.453766 0
vt -1.55828 0.534342 0
vt 1.5582 0.115755 0
vt -0.534342 0.866172 0
vt 1.55827 0.826109 0
vt 0.038023 0.826109 0
vt 1.55828 0.115755 0
vt 1.55828 0.534342 0
vt -0.534342 2.85694 0
vt 1.55827 2.85694 0
vt 0.038018 2.85694 0
vt 0.038021 1.50661 0
vt 0.004206 2.08684 0
vt 0.534342 2.04678 0
vt 0.534342 2.08684 0
vt 0.534343 2.04678 0
vt 0.560191 -1e-06 0
vt 0.534343 2.08684 0
vt 0.004207 2.81687 0
vt 0.004207 2.08684 0
vt 0.534343 2.85694 0
vt 0.534343 2.81687 0
vt -0.534342 1.50661 0
vt 1.55827 3.39706 0
vt 0.038018 3.39706 0
vt 0.534343 3.39705 0
vt 0.004206 3.39706 0
vt -1.59629 0 0
vt 1.59629 4.02147 0
vt 1.55827 4.02147 0
vt -1.55827 4.02147 0
vt 0.004209 0.155851 0
vt 0.004209 0.115787 0
vt 0.004207 0.826107 0
vt 0.004207 2.85694 0
vt -0.004206 2.85694 0
vt -0.004206 0.866172 0
vt 0.453769 0.115787 0
vt 0.453782 0.115777 0
vt 0.493803 3e-06 0
vt 0.453757 0.115758 0
vt 0.453757 3e-06 0
vt 0.493815 0.115787 0
vt 0.534345 0.115787 0
vt 0.493813 0.115754 0
vt 0.519763 -1e-06 0
vt 0.534343 0.115754 0
vt 0.493803 0.115758 0
vt 0.493813 -1e-06 0
vt -0.534342 1.46655 0
vt -0.004206 0.826107 0
vt -0.534342 0.866171 0
vt -0.534342 0.826107 0
vt 1.55827 0.866172 0
vt 0.038023 0.866172 0
vt -1.55827 0.534342 0
vt -0.038023 0.004206 0
vt -0.038023 0.534342 0
vt 0.534343 0.155817 0
vt 0.534343 0.826107 0
vt 0.004206 2.85694 0
vt 0.534342 2.81688 0
vt 0.534342 2.85694 0
vt 1.55827 1.50661 0
vt 0.004206 2.04678 0
vt 0.534343 1.50661 0
vt 0.004206 2.81688 0
vt 0.004207 2.04678 0
vt -0.534342 1.50661 0
vt -0.004206 1.46655 0
vt -0.004206 1.50661 0
vt 1.55827 0.004206 0
vt 0.038021 0.534342 0
vt -0.004206 1.46655 0
vt -1.59629 4.02147 0
vt 0.004207 0.866171 0
vt 0.038021 0.866172 0
vt -0.004206 0.866171 0
vt 1.59629 0.56019 0
vt 1.55827 0.56019 0
vt 1.55827 0.519762 0
vt 1.55827 1.46655 0
vt 0.038021 1.46655 0
vt 0.038023 0.534342 0
vt 1.55827 0.004206 0
vt 1.55827 0.534342 0
vt -1.55827 0.004206 0
vt 0.004206 0.866172 0
vt 0.534342 0.826109 0
vt 0.534342 0.866172 0
vt 0.534343 0.866171 0
vt 0.004206 0.826109 0
vt 1.55827 0.534342 0
vt -0.534342 1.46655 0
vt 0.534343 1.46655 0
vt 0.004207 1.50661 0
vt 0.038018 1.50661 0
vt 0.004207 1.46655 0
vt 0.038021 0.004206 0
vt -1.55827 0.534342 0
vt -0.038021 0.004206 0
vt -0.038021 0.534342 0
vt 0.004206 1.50661 0
vt 0.534342 1.46655 0
vt 0.534342 1.50661 0
vt -1.55827 0.004206 0
vt 0.004206 1.46655 0
vt -0.074839 7.90813 0
vt -3.06746 7.82927 0
vt -0.074839 7.82927 0
vt -3.06746 6.76598 0
vt 0.074839 4.10796 0
vt 3.06746 4.10796 0
vt 0.074839 4.02909 0
vt -0.074839 6.76598 0
vt -3.06746 7.90813 0
vt 0.074839 5.54503 0
vt 3.06746 5.54503 0
vt 3.06746 4.02909 0
vt -3.06746 6.68712 0
vt -0.074839 6.68712 0
vt 0.074849 1.6262 0
vt 3.06747 1.6262 0
vt 0.074854 0.306729 0
vt 3.06748 0.306729 0
vt 0.074839 5.6239 0
vt 3.06746 5.6239 0
vt 0.074844 2.96577 0
vt 0.074839 6.68712 0
vt 3.06746 6.68712 0
vt 0.074849 1.70506 0
vt 3.06747 1.70506 0
vt 3.06747 2.96577 0
vt 0.074844 2.8869 0
vt 3.06747 2.8869 0

# 26 vertex normals
vn 0 0 0.01
vn 0 -0 -0.01
vn 0 0.01 0
vn 0 -0.01 -0
vn -0.01 0 0
vn 0.01 -0 -0
vn 0.01 -1e-08 1e-08
vn -0.01 1e-08 -1e-08
vn 0.01 3.5e-07 -4e-08
vn -0.01 -3.5e-07 4e-08
vn 0.01 -3.2e-07 2e-08
vn -0.01 3.2e-07 -2e-08
vn 0.01 3.3e-07 1e-08
vn -0.01 -3.3e-07 -1e-08
vn -0.01 -2.3e-07 -3e-08
vn 0.01 2.3e-07 3e-08
vn 0.01 2.6e-07 1.2e-07
vn -0.01 -2.6e-07 -1.2e-07
vn -0.01 -2.1e-07 -2e-08
vn 0.01 2.1e-07 2e-08
vn -0.01 -1.4e-07 -1e-07
vn 0.01 1.4e-07 1e-07
vn -1.59e-06 0 0.01
vn -0.01 -2e-08 5e-08
vn 0.01 2e-08 -5e-08
vn 1.59e-06 0 -0.01

# Mesh 'mesh1_mesh1-geometry' with 486 faces
g mesh1_mesh1-geometry
usemtl material_0_1_8
f  1/1/1 2/2/1 3/3/1
f  2/2/1 1/1/1 4/4/1
f  3/3/2 2/2/2 1/1/2
f  4/4/2 1/1/2 2/2/2
f  2/5/3 5/6/3 3/3/3
f  3/3/4 5/6/4 2/5/4
f  5/7/5 1/1/5 3/3/5
f  3/3/6 1/1/6 5/7/6
f  1/3/4 6/8/4 4/2/4
f  4/2/3 6/8/3 1/3/3
f  4/1/7 7/9/7 2/3/7
f  2/3/8 7/9/8 4/1/8
f  5/6/3 2/5/3 8/10/3
f  8/10/4 2/5/4 5/6/4
f  1/1/5 5/7/5 9/11/5
f  9/11/6 5/7/6 1/1/6
f  6/8/4 1/3/4 9/6/4
f  9/6/3 1/3/3 6/8/3
f  7/9/7 4/1/7 6/12/7
f  6/12/8 4/1/8 7/9/8
f  2/3/7 7/9/7 10/13/7
f  10/13/8 7/9/8 2/3/8
f  8/10/3 2/5/3 11/14/3
f  11/14/4 2/5/4 8/10/4
f  6/15/2 5/3/2 8/5/2
f  8/5/1 5/3/1 6/15/1
f  5/3/2 6/15/2 9/1/2
f  9/1/1 6/15/1 5/3/1
f  7/9/7 6/12/7 12/16/7
f  12/16/8 6/12/8 7/9/8
f  7/9/6 13/17/6 10/13/6
f  10/13/5 13/17/5 7/9/5
f  7/18/1 14/19/1 10/20/1
f  10/20/2 14/19/2 7/18/2
f  15/21/7 2/3/7 10/13/7
f  10/13/8 2/3/8 15/21/8
f  2/3/7 15/21/7 11/22/7
f  11/22/8 15/21/8 2/3/8
f  8/10/3 11/14/3 16/23/3
f  16/23/4 11/14/4 8/10/4
f  8/24/7 17/25/7 6/12/7
f  6/12/8 17/25/8 8/24/8
f  12/16/7 6/12/7 13/17/7
f  13/17/8 6/12/8 12/16/8
f  13/17/6 7/9/6 12/16/6
f  12/16/5 7/9/5 13/17/5
f  18/26/3 12/27/3 7/28/3
f  7/28/4 12/27/4 18/26/4
f  19/29/4 10/30/4 13/31/4
f  13/31/3 10/30/3 19/29/3
f  13/17/7 20/32/7 10/13/7
f  10/13/8 20/32/8 13/17/8
f  14/19/1 7/18/1 18/33/1
f  18/33/2 7/18/2 14/19/2
f  10/30/4 19/29/4 14/34/4
f  14/34/3 19/29/3 10/30/3
f  15/21/7 10/13/7 20/32/7
f  20/32/8 10/13/8 15/21/8
f  11/22/7 15/21/7 21/35/7
f  21/35/8 15/21/8 11/22/8
f  21/36/9 16/37/9 11/38/9
f  11/38/10 16/37/10 21/36/10
f  16/23/4 22/39/4 11/14/4
f  23/40/3 8/10/3 16/23/3
f  16/23/4 8/10/4 23/40/4
f  8/24/7 24/41/7 17/25/7
f  17/25/8 24/41/8 8/24/8
f  25/42/7 6/12/7 17/25/7
f  17/25/8 6/12/8 25/42/8
f  13/17/7 6/12/7 26/43/7
f  26/43/8 6/12/8 13/17/8
f  13/20/2 19/19/2 12/18/2
f  12/27/3 18/26/3 27/44/3
f  27/44/4 18/26/4 12/27/4
f  19/19/2 13/20/2 28/45/2
f  20/32/7 13/17/7 26/43/7
f  26/43/8 13/17/8 20/32/8
f  19/46/5 18/47/5 14/48/5
f  14/48/6 18/47/6 19/46/6
f  18/49/8 29/50/8 14/51/8
f  14/51/7 29/50/7 18/49/7
f  14/51/8 28/52/8 19/53/8
f  19/53/7 28/52/7 14/51/7
f  15/21/7 20/32/7 30/54/7
f  30/54/8 20/32/8 15/21/8
f  15/55/11 31/56/11 21/57/11
f  21/57/12 31/56/12 15/55/12
f  32/58/4 15/59/4 21/60/4
f  21/60/3 15/59/3 32/58/3
f  11/61/2 33/62/2 21/63/2
f  16/37/9 21/36/9 34/64/9
f  34/64/10 21/36/10 16/37/10
f  33/65/4 11/14/4 22/39/4
f  16/66/1 34/67/1 22/68/1
f  8/10/3 23/40/3 35/69/3
f  35/69/4 23/40/4 8/10/4
f  34/64/13 23/70/13 16/37/13
f  16/37/14 23/70/14 34/64/14
f  8/24/7 36/71/7 24/41/7
f  24/41/8 36/71/8 8/24/8
f  31/72/7 17/25/7 24/41/7
f  24/41/8 17/25/8 31/72/8
f  37/73/7 6/12/7 25/42/7
f  25/42/8 6/12/8 37/73/8
f  17/74/2 38/75/2 25/76/2
f  39/77/6 25/42/6 17/25/6
f  17/25/5 25/42/5 39/77/5
f  26/43/7 6/12/7 40/78/7
f  40/78/8 6/12/8 26/43/8
f  26/79/2 28/45/2 13/20/2
f  27/33/2 12/18/2 19/19/2
f  18/47/5 19/46/5 27/80/5
f  27/80/6 19/46/6 18/47/6
f  41/81/8 18/49/8 27/82/8
f  27/82/7 18/49/7 41/81/7
f  28/52/8 27/82/8 19/53/8
f  19/53/7 27/82/7 28/52/7
f  42/26/3 26/27/3 20/28/3
f  20/28/4 26/27/4 42/26/4
f  26/43/6 30/83/6 20/32/6
f  20/32/5 30/83/5 26/43/5
f  29/50/8 18/49/8 41/81/8
f  41/81/7 18/49/7 29/50/7
f  14/51/8 29/50/8 43/84/8
f  43/84/7 29/50/7 14/51/7
f  28/52/8 14/51/8 42/85/8
f  42/85/7 14/51/7 28/52/7
f  20/79/1 44/86/1 30/87/1
f  30/87/2 44/86/2 20/79/2
f  15/21/7 30/54/7 45/88/7
f  45/88/8 30/54/8 15/21/8
f  31/56/11 15/55/11 46/89/11
f  46/89/12 15/55/12 31/56/12
f  21/57/11 31/56/11 34/90/11
f  34/90/12 31/56/12 21/57/12
f  15/59/4 32/58/4 47/91/4
f  47/91/3 32/58/3 15/59/3
f  21/60/4 48/92/4 32/58/4
f  32/58/3 48/92/3 21/60/3
f  32/93/2 21/63/2 33/62/2
f  48/92/4 21/60/4 34/94/4
f  34/94/3 21/60/3 48/92/3
f  33/65/3 49/95/3 22/39/3
f  22/39/4 49/95/4 33/65/4
f  22/96/15 32/97/15 33/98/15
f  33/98/16 32/97/16 22/96/16
f  48/99/1 22/68/1 34/67/1
f  50/100/17 35/101/17 23/70/17
f  23/70/18 35/101/18 50/100/18
f  23/40/4 35/69/4 51/102/4
f  36/71/7 8/24/7 35/103/7
f  35/103/8 8/24/8 36/71/8
f  23/70/13 34/64/13 50/104/13
f  50/104/14 34/64/14 23/70/14
f  36/105/11 31/56/11 24/106/11
f  24/106/12 31/56/12 36/105/12
f  24/107/4 52/108/4 36/109/4
f  36/109/3 52/108/3 24/107/3
f  53/110/7 17/25/7 31/72/7
f  31/72/8 17/25/8 53/110/8
f  24/67/2 54/111/2 31/112/2
f  31/112/1 54/111/1 24/67/1
f  55/113/7 6/12/7 37/73/7
f  37/73/8 6/12/8 55/113/8
f  56/114/7 37/73/7 25/42/7
f  25/42/8 37/73/8 56/114/8
f  25/76/2 57/115/2 37/116/2
f  38/75/2 17/74/2 58/117/2
f  25/27/3 59/26/3 38/44/3
f  38/44/4 59/26/4 25/27/4
f  57/115/2 25/76/2 38/75/2
f  25/42/6 39/77/6 56/114/6
f  56/114/5 39/77/5 25/42/5
f  58/29/4 39/30/4 17/31/4
f  17/31/3 39/30/3 58/29/3
f  17/25/7 60/118/7 39/77/7
f  39/77/8 60/118/8 17/25/8
f  40/78/7 6/12/7 55/113/7
f  55/113/8 6/12/8 40/78/8
f  40/87/2 61/86/2 26/79/2
f  30/83/6 26/43/6 40/119/6
f  40/119/5 26/43/5 30/83/5
f  28/45/2 26/79/2 61/86/2
f  26/27/3 42/26/3 28/44/3
f  28/44/4 42/26/4 26/27/4
f  41/81/8 27/82/8 28/52/8
f  28/52/7 27/82/7 41/81/7
f  44/86/1 20/79/1 42/45/1
f  42/45/2 20/79/2 44/86/2
f  62/120/4 29/62/4 41/121/4
f  41/121/3 29/62/3 62/120/3
f  63/122/8 43/84/8 29/50/8
f  29/50/7 43/84/7 63/122/7
f  14/51/8 43/84/8 64/123/8
f  64/123/7 43/84/7 14/51/7
f  14/51/8 44/124/8 42/85/8
f  42/85/7 44/124/7 14/51/7
f  42/125/5 61/126/5 28/127/5
f  28/127/6 61/126/6 42/125/6
f  30/30/4 61/29/4 44/34/4
f  44/34/3 61/29/3 30/30/3
f  40/78/7 45/88/7 30/54/7
f  30/54/8 45/88/8 40/78/8
f  15/21/7 45/88/7 65/128/7
f  65/128/8 45/88/8 15/21/8
f  15/67/2 64/111/2 46/129/2
f  46/129/1 64/111/1 15/67/1
f  15/21/7 66/130/7 46/131/7
f  46/131/8 66/130/8 15/21/8
f  64/132/3 31/133/3 46/134/3
f  46/134/4 31/133/4 64/132/4
f  46/131/7 53/110/7 31/72/7
f  31/72/8 53/110/8 46/131/8
f  34/90/11 31/56/11 50/135/11
f  50/135/12 31/56/12 34/90/12
f  47/91/4 32/58/4 43/136/4
f  43/136/3 32/58/3 47/91/3
f  47/137/2 64/111/2 15/67/2
f  15/67/1 64/111/1 47/137/1
f  32/97/15 22/96/15 48/138/15
f  48/138/16 22/96/16 32/97/16
f  54/139/19 32/140/19 48/141/19
f  48/141/20 32/140/20 54/139/20
f  43/84/8 33/142/8 32/143/8
f  32/143/7 33/142/7 43/84/7
f  34/94/4 67/144/4 48/92/4
f  48/92/3 67/144/3 34/94/3
f  49/95/3 33/65/3 63/68/3
f  63/68/4 33/65/4 49/95/4
f  22/39/3 49/95/3 51/102/3
f  51/102/4 49/95/4 22/39/4
f  51/145/21 48/146/21 22/147/21
f  22/147/22 48/146/22 51/145/22
f  35/101/17 50/100/17 36/148/17
f  36/148/18 50/100/18 35/101/18
f  51/149/2 50/67/2 23/66/2
f  23/66/1 50/67/1 51/149/1
f  68/150/4 51/102/4 35/69/4
f  35/151/23 36/152/23 68/153/23
f  67/144/4 34/94/4 50/154/4
f  50/154/3 34/94/3 67/144/3
f  50/135/11 31/56/11 36/105/11
f  36/105/12 31/56/12 50/135/12
f  52/108/4 24/107/4 69/155/4
f  69/155/3 24/107/3 52/108/3
f  67/144/4 36/109/4 52/108/4
f  52/108/3 36/109/3 67/144/3
f  52/156/23 68/153/23 36/152/23
f  70/157/7 17/25/7 53/110/7
f  53/110/8 17/25/8 70/157/8
f  31/112/2 71/158/2 53/159/2
f  54/111/2 24/67/2 69/160/2
f  69/160/1 24/67/1 54/111/1
f  31/133/3 64/132/3 54/161/3
f  54/161/4 64/132/4 31/133/4
f  71/158/2 31/112/2 54/111/2
f  65/128/6 55/162/6 37/73/6
f  37/73/5 55/162/5 65/128/5
f  37/116/2 72/163/2 55/164/2
f  37/73/7 56/114/7 65/128/7
f  65/128/8 56/114/8 37/73/8
f  59/26/3 25/27/3 56/28/3
f  56/28/4 25/27/4 59/26/4
f  57/29/4 65/30/4 37/31/4
f  37/31/3 65/30/3 57/29/3
f  72/163/2 37/116/2 57/115/2
f  73/165/2 58/117/2 17/74/2
f  59/166/5 58/167/5 38/168/5
f  38/168/6 58/167/6 59/166/6
f  58/169/8 74/170/8 38/171/8
f  38/171/7 74/170/7 58/169/7
f  38/171/8 75/172/8 59/173/8
f  59/173/7 75/172/7 38/171/7
f  38/171/8 72/174/8 57/175/8
f  75/172/8 38/171/8 57/175/8
f  57/175/7 72/174/7 38/171/7
f  57/175/7 38/171/7 75/172/7
f  39/74/2 59/75/2 56/76/2
f  56/76/1 59/75/1 39/74/1
f  15/21/7 56/114/7 39/77/7
f  39/77/8 56/114/8 15/21/8
f  39/30/4 58/29/4 76/34/4
f  76/34/3 58/29/3 39/30/3
f  60/118/7 17/25/7 73/176/7
f  73/176/8 17/25/8 60/118/8
f  15/21/7 39/77/7 60/118/7
f  60/118/8 39/77/8 15/21/8
f  45/88/7 40/78/7 55/113/7
f  55/113/8 40/78/8 45/88/8
f  55/164/2 61/177/2 40/178/2
f  61/29/4 30/30/4 40/31/4
f  40/31/3 30/30/3 61/29/3
f  61/179/8 38/171/8 28/52/8
f  28/52/7 38/171/7 61/179/7
f  41/81/8 28/52/8 38/171/8
f  38/171/7 28/52/7 41/81/7
f  61/126/5 42/125/5 44/180/5
f  44/180/6 42/125/6 61/126/6
f  29/62/4 62/120/4 77/181/4
f  77/181/3 62/120/3 29/62/3
f  74/68/2 62/182/2 41/183/2
f  41/183/1 62/182/1 74/68/1
f  43/84/8 63/122/8 33/142/8
f  33/142/7 63/122/7 43/84/7
f  29/184/1 49/181/1 63/62/1
f  63/62/2 49/181/2 29/184/2
f  64/111/2 47/137/2 43/160/2
f  43/160/1 47/137/1 64/111/1
f  32/140/19 64/185/19 43/186/19
f  43/186/20 64/185/20 32/140/20
f  14/51/8 64/123/8 78/187/8
f  78/187/7 64/123/7 14/51/7
f  14/51/8 79/188/8 44/124/8
f  44/124/7 79/188/7 14/51/7
f  44/124/8 72/174/8 61/179/8
f  61/179/7 72/174/7 44/124/7
f  65/116/2 79/163/2 45/164/2
f  45/164/1 79/163/1 65/116/1
f  55/162/6 65/128/6 45/189/6
f  45/189/5 65/128/5 55/162/5
f  15/21/7 65/128/7 56/114/7
f  56/114/8 65/128/8 15/21/8
f  15/21/7 80/190/7 66/130/7
f  66/130/8 80/190/8 15/21/8
f  53/110/7 46/131/7 66/130/7
f  66/130/8 46/131/8 53/110/8
f  64/185/19 32/140/19 54/139/19
f  54/139/20 32/140/20 64/185/20
f  54/139/19 48/141/19 67/191/19
f  67/191/20 48/141/20 54/139/20
f  48/146/21 51/145/21 67/192/21
f  67/192/22 51/145/22 48/146/22
f  51/102/3 49/95/3 68/150/3
f  68/150/4 49/95/4 51/102/4
f  36/109/4 67/144/4 50/154/4
f  50/154/3 67/144/3 36/109/3
f  50/67/2 51/149/2 67/160/2
f  67/160/1 51/149/1 50/67/1
f  68/193/24 67/194/24 51/195/24
f  51/195/25 67/194/25 68/193/25
f  54/139/19 52/196/19 69/197/19
f  69/197/20 52/196/20 54/139/20
f  52/198/8 81/199/8 69/200/8
f  69/200/7 81/199/7 52/198/7
f  54/139/19 67/191/19 52/196/19
f  52/196/20 67/191/20 54/139/20
f  67/194/24 68/193/24 52/201/24
f  52/201/25 68/193/25 67/194/25
f  81/199/8 52/198/8 68/202/8
f  68/202/7 52/198/7 81/199/7
f  82/203/7 17/25/7 70/157/7
f  70/157/8 17/25/8 82/203/8
f  66/204/11 70/205/11 53/206/11
f  53/206/12 70/205/12 66/204/12
f  53/159/2 83/207/2 70/208/2
f  71/209/4 66/210/4 53/211/4
f  53/211/3 66/210/3 71/209/3
f  83/207/2 53/159/2 71/158/2
f  69/200/8 74/170/8 54/212/8
f  54/212/7 74/170/7 69/200/7
f  54/212/8 78/187/8 64/123/8
f  64/123/7 78/187/7 54/212/7
f  54/212/8 74/170/8 71/213/8
f  78/187/8 54/212/8 71/213/8
f  71/213/7 74/170/7 54/212/7
f  71/213/7 54/212/7 78/187/7
f  55/27/3 79/26/3 72/44/3
f  72/44/4 79/26/4 55/27/4
f  61/177/2 55/164/2 72/163/2
f  65/30/4 57/29/4 75/34/4
f  75/34/3 57/29/3 65/30/3
f  79/214/5 57/215/5 72/216/5
f  72/216/6 57/215/6 79/214/6
f  58/117/2 73/165/2 84/217/2
f  17/25/7 82/203/7 73/176/7
f  73/176/8 82/203/8 17/25/8
f  58/167/5 59/166/5 76/218/5
f  76/218/6 59/166/6 58/167/6
f  84/219/8 74/170/8 58/169/8
f  58/169/7 74/170/7 84/219/7
f  41/81/8 38/171/8 74/170/8
f  74/170/7 38/171/7 41/81/7
f  14/51/8 59/173/8 75/172/8
f  75/172/7 59/173/7 14/51/7
f  72/174/8 38/171/8 61/179/8
f  61/179/7 38/171/7 72/174/7
f  57/215/5 79/214/5 75/220/5
f  75/220/6 79/214/6 57/215/6
f  59/75/2 39/74/2 76/117/2
f  76/117/1 39/74/1 59/75/1
f  76/221/8 84/219/8 58/169/8
f  58/169/7 84/219/7 76/221/7
f  73/222/11 85/223/11 60/224/11
f  60/224/12 85/223/12 73/222/12
f  86/225/3 73/226/3 60/28/3
f  60/28/4 73/226/4 86/225/4
f  15/21/7 60/118/7 85/227/7
f  85/227/8 60/118/8 15/21/8
f  79/26/3 55/27/3 45/28/3
f  45/28/4 55/27/4 79/26/4
f  62/12/6 49/3/6 77/1/6
f  77/1/5 49/3/5 62/12/5
f  49/181/1 29/184/1 77/228/1
f  77/228/2 29/184/2 49/181/2
f  62/182/2 74/68/2 87/95/2
f  87/95/1 74/68/1 62/182/1
f  14/51/8 78/187/8 88/229/8
f  88/229/7 78/187/7 14/51/7
f  14/51/8 75/172/8 79/188/8
f  79/188/7 75/172/7 14/51/7
f  72/174/8 44/124/8 79/188/8
f  79/188/7 44/124/7 72/174/7
f  79/163/2 65/116/2 75/115/2
f  75/115/1 65/116/1 79/163/1
f  15/21/7 85/227/7 80/190/7
f  80/190/8 85/227/8 15/21/8
f  66/159/2 88/207/2 80/230/2
f  80/230/1 88/207/1 66/159/1
f  70/205/11 66/204/11 80/231/11
f  80/231/12 66/204/12 70/205/12
f  87/232/3 68/150/3 49/95/3
f  49/95/4 68/150/4 87/232/4
f  69/200/8 81/199/8 74/170/8
f  74/170/7 81/199/7 69/200/7
f  68/150/3 74/233/3 81/234/3
f  81/234/4 74/233/4 68/150/4
f  80/190/7 82/203/7 70/157/7
f  70/157/8 82/203/8 80/190/8
f  70/208/2 89/235/2 82/236/2
f  70/237/3 88/238/3 83/239/3
f  83/239/4 88/238/4 70/237/4
f  89/235/2 70/208/2 83/207/2
f  66/210/4 71/209/4 78/240/4
f  78/240/3 71/209/3 66/210/3
f  88/241/5 71/242/5 83/243/5
f  83/243/6 71/242/6 88/241/6
f  71/213/8 74/170/8 83/244/8
f  83/244/7 74/170/7 71/213/7
f  71/242/5 88/241/5 78/245/5
f  78/245/6 88/241/6 71/242/6
f  73/226/3 86/225/3 84/246/3
f  84/246/4 86/225/4 73/226/4
f  82/236/2 84/217/2 73/165/2
f  85/223/11 73/222/11 82/247/11
f  82/247/12 73/222/12 85/223/12
f  14/51/8 76/221/8 59/173/8
f  59/173/7 76/221/7 14/51/7
f  89/248/8 74/170/8 84/219/8
f  84/219/7 74/170/7 89/248/7
f  84/219/8 76/221/8 86/249/8
f  86/249/7 76/221/7 84/219/7
f  85/236/2 86/217/2 60/250/2
f  60/250/1 86/217/1 85/236/1
f  49/3/6 62/12/6 87/24/6
f  87/24/5 62/12/5 49/3/5
f  74/233/3 68/150/3 87/232/3
f  87/232/4 68/150/4 74/233/4
f  88/207/2 66/159/2 78/158/2
f  78/158/1 66/159/1 88/207/1
f  14/51/8 88/229/8 90/251/8
f  90/251/7 88/229/7 14/51/7
f  82/203/7 80/190/7 85/227/7
f  85/227/8 80/190/8 82/203/8
f  88/238/3 70/237/3 80/252/3
f  80/252/4 70/237/4 88/238/4
f  89/253/4 85/254/4 82/255/4
f  82/255/3 85/254/3 89/253/3
f  84/217/2 82/236/2 89/235/2
f  83/244/8 90/251/8 88/229/8
f  88/229/7 90/251/7 83/244/7
f  83/244/8 74/170/8 89/248/8
f  90/251/8 83/244/8 89/248/8
f  89/248/7 74/170/7 83/244/7
f  89/248/7 83/244/7 90/251/7
f  86/256/5 89/257/5 84/258/5
f  84/258/6 89/257/6 86/256/6
f  14/51/8 86/249/8 76/221/8
f  76/221/7 86/249/7 14/51/7
f  86/217/2 85/236/2 90/235/2
f  90/235/1 85/236/1 86/217/1
f  14/51/8 90/251/8 86/249/8
f  86/249/7 90/251/7 14/51/7
f  85/254/4 89/253/4 90/259/4
f  90/259/3 89/253/3 85/254/3
f  89/257/5 86/256/5 90/260/5
f  90/260/6 86/256/6 89/257/6

# Mesh 'mesh1_mesh1-geometry' with 10 faces
g mesh1_mesh1-geometry
usemtl material_2_24
f  11/3/3 22/3/3 16/3/3
f  21/3/1 33/3/1 11/3/1
f  22/3/3 11/3/3 33/3/3
f  22/3/2 34/3/2 16/3/2
f  33/3/1 21/3/1 32/3/1
f  34/3/2 22/3/2 48/3/2
f  51/3/3 35/3/3 23/3/3
f  35/3/3 51/3/3 68/3/3
f  68/3/26 36/3/26 35/3/26
f  36/3/26 68/3/26 52/3/26

# Mesh 'mesh1_mesh1-geometry' with 24 faces
g mesh1_mesh1-geometry
usemtl material_1_2_8
f  12/261/1 19/262/1 13/263/1
f  28/264/1 13/263/1 19/262/1
f  25/265/1 38/266/1 17/267/1
f  13/263/1 28/264/1 26/268/1
f  19/262/1 12/261/1 27/269/1
f  37/270/1 57/271/1 25/265/1
f  58/272/1 17/267/1 38/266/1
f  38/266/1 25/265/1 57/271/1
f  26/268/1 61/273/1 40/274/1
f  61/273/1 26/268/1 28/264/1
f  53/275/1 71/276/1 31/277/1
f  54/278/1 31/277/1 71/276/1
f  55/279/1 72/280/1 37/270/1
f  57/271/1 37/270/1 72/280/1
f  17/267/1 58/272/1 73/281/1
f  40/282/1 61/283/1 55/279/1
f  70/284/1 83/285/1 53/275/1
f  71/276/1 53/275/1 83/285/1
f  72/280/1 55/279/1 61/283/1
f  84/286/1 73/281/1 58/272/1
f  82/287/1 89/288/1 70/284/1
f  83/285/1 70/284/1 89/288/1
f  73/281/1 84/286/1 82/287/1
f  89/288/1 82/287/1 84/286/1

