# File produced by Open Asset Import Library (http://www.assimp.sf.net)
# (assimp v3.2.202087883)

mtllib model_normalized.mtl

# 128 vertex positions
v 0.459943 0.131948 0.075453
v -0.456648 0.135348 0.082713
v -0.456614 0.136746 0.085050
v 0.459911 0.130548 0.073114
v -0.456583 0.138014 0.087460
v 0.459975 0.133215 0.077861
v -0.456679 0.133820 0.080456
v 0.459879 0.129022 0.070857
v -0.456710 0.132172 0.078286
v 0.459186 -0.017344 0.077869
v 0.459848 0.127371 0.068687
v -0.456741 0.130403 0.076208
v -0.457372 -0.012545 0.087468
v 0.459066 0.005004 0.055175
v 0.459817 0.125604 0.066609
v -0.456772 0.128522 0.074231
v -0.457493 0.009803 0.064775
v -0.459901 -0.012545 -0.154046
v 0.389081 -0.057206 0.078605
v 0.458858 0.001384 0.037168
v 0.459101 0.013752 0.054173
v 0.459786 0.123724 0.064632
v -0.456801 0.126534 0.072358
v -0.457700 0.006185 0.046767
v -0.457457 0.018553 0.063770
v 0.456657 -0.017344 -0.163645
v -0.387688 -0.053139 0.086739
v -0.459709 -0.012450 -0.135685
v 0.315513 -0.090242 0.079375
v 0.386552 -0.057206 -0.162912
v 0.458652 -0.001917 0.019101
v 0.459138 0.022521 0.053351
v 0.459756 0.121736 0.062759
v -0.456832 0.124447 0.070598
v -0.457907 0.002882 0.028700
v -0.457420 0.027321 0.062950
v 0.456850 -0.017248 -0.145284
v -0.390216 -0.053139 -0.154777
v -0.314470 -0.086943 0.085971
v -0.459514 -0.012032 -0.117330
v 0.239145 -0.116153 0.080174
v 0.312985 -0.090242 -0.162142
v 0.458446 -0.004901 0.000980
v 0.459177 0.031306 0.052711
v 0.459727 0.119648 0.060999
v -0.456859 0.122264 0.068954
v -0.458112 -0.000103 0.010579
v -0.457381 0.036104 0.062310
v 0.457044 -0.016830 -0.126927
v -0.316999 -0.086943 -0.155544
v -0.238378 -0.113653 0.085176
v -0.459317 -0.011290 -0.098983
v 0.160663 -0.134708 0.080997
v 0.236615 -0.116153 -0.161340
v 0.458242 -0.007567 -0.017191
v 0.459219 0.040099 0.052253
v 0.459698 0.117465 0.059355
v -0.456888 0.119994 0.067432
v -0.458317 -0.002768 -0.007592
v -0.457339 0.044900 0.061852
v 0.457240 -0.016091 -0.108580
v -0.240906 -0.113653 -0.156341
v -0.160094 -0.133028 0.084356
v -0.459120 -0.010230 -0.080650
v 0.080777 -0.145737 0.081833
v 0.158134 -0.134708 -0.160518
v 0.458039 -0.009913 -0.035403
v 0.459262 0.048903 0.051980
v 0.459671 0.115194 0.057833
v -0.456915 0.117641 0.066034
v -0.458520 -0.005114 -0.025807
v -0.457296 0.053702 0.061577
v 0.457438 -0.015028 -0.090250
v -0.162623 -0.133028 -0.157161
v -0.080328 -0.144894 0.083519
v -0.458922 -0.008844 -0.062341
v 0.000205 -0.149143 0.082676
v 0.078248 -0.145737 -0.159684
v 0.457837 -0.011938 -0.053655
v 0.459307 0.057711 0.051887
v 0.459643 0.112843 0.056437
v -0.456940 0.115216 0.064768
v -0.458721 -0.007140 -0.044056
v -0.457250 0.062510 0.061486
v 0.457637 -0.013645 -0.071940
v -0.082856 -0.144894 -0.157996
v -0.002324 -0.149143 -0.158839
v 0.459354 0.066517 0.051978
v 0.459618 0.110416 0.055169
v -0.456998 0.106466 0.063766
v -0.457205 0.071315 0.061577
v -0.459276 -0.141926 0.077062
v 0.454474 -0.156319 -0.163623
v 0.459403 0.075321 0.052251
v 0.459561 0.101668 0.054167
v -0.457051 0.097698 0.062946
v -0.457155 0.080119 0.061850
v -0.461933 -0.141922 -0.154026
v 0.456877 -0.156315 0.088257
v 0.459454 0.084114 0.052709
v 0.459507 0.092899 0.053347
v -0.457103 0.088915 0.062306
v -0.458806 -0.109415 0.076165
v 0.455067 -0.121258 -0.162202
v -0.461440 -0.109411 -0.153139
v 0.457442 -0.121254 0.086824
v -0.458458 -0.078423 0.066301
v 0.455722 -0.087937 -0.151205
v -0.460868 -0.078419 -0.143283
v 0.457888 -0.087933 0.075815
v -0.458265 -0.051374 0.048238
v 0.456390 -0.058917 -0.131479
v -0.460259 -0.051370 -0.125231
v 0.458179 -0.058915 0.056080
v -0.458238 -0.030383 0.023390
v 0.457018 -0.036432 -0.104539
v -0.459663 -0.030381 -0.100389
v 0.458293 -0.036430 0.029133
v -0.458383 -0.017093 -0.006298
v 0.457559 -0.022211 -0.072460
v -0.459125 -0.017093 -0.070706
v 0.458222 -0.022208 -0.002951
v -0.458685 -0.012547 -0.038483
v 0.457971 -0.017346 -0.037727
v -0.458685 -0.012547 -0.038522
v 0.457971 -0.017346 -0.037686
v 0.457971 -0.017344 -0.037706
v -0.458685 -0.012545 -0.038502

# 0 UV coordinates

# 110 vertex normals
vn -0.000887 0.857975 -0.51369
vn 0.000887 -0.857975 0.51369
vn -0.999931 0.005236 0.010472
vn 0.999931 -0.005236 -0.010472
vn -0.00024 0.885054 -0.465489
vn 0.00024 -0.885054 0.465489
vn -0.00153 0.8283 -0.560283
vn 0.00153 -0.8283 0.560283
vn 0.010472 -0 0.999945
vn -0.010472 0 -0.999945
vn -0.002168 0.796126 -0.605128
vn 0.002168 -0.796126 0.605128
vn -0.002799 0.761559 -0.64809
vn 0.002799 -0.761559 0.64809
vn 0.005236 0.999986 -5.5e-05
vn -0.005236 -0.999986 5.5e-05
vn -0.003421 0.724711 -0.689045
vn 0.003421 -0.724711 0.689045
vn -0.503317 -0.864086 0.005271
vn -0.461745 -0.887 0.004836
vn 0.503317 0.864086 -0.005271
vn 0.461745 0.887 -0.004836
vn 0.452431 -0.891787 -0.004738
vn 0.494241 -0.869309 -0.005176
vn -0.452431 0.891787 0.004738
vn -0.494241 0.869309 0.005176
vn 0.00307 0.980387 -0.197059
vn -0.00307 -0.980387 0.197059
vn -0.011 -0.113882 -0.993433
vn 0.011 0.113882 0.993433
vn -0.004032 0.685701 -0.727872
vn 0.004032 -0.685701 0.727872
vn 0.005181 0.999973 -0.005254
vn -0.005181 -0.999973 0.005254
vn 0.36585 -0.930666 -0.003831
vn -0.36585 0.930666 0.003831
vn 0.003268 0.983693 -0.179825
vn -0.003268 -0.983693 0.179825
vn -0.010914 -0.093241 -0.995584
vn 0.010914 0.093241 0.995584
vn -0.00463 0.644654 -0.76446
vn 0.00463 -0.644654 0.76446
vn -0.375575 -0.926784 0.003933
vn 0.375575 0.926784 -0.003933
vn 0.004996 0.999727 -0.02281
vn -0.004996 -0.999727 0.02281
vn 0.275972 -0.961161 -0.00289
vn -0.275972 0.961161 0.00289
vn 0.003465 0.986697 -0.162534
vn -0.003465 -0.986697 0.162534
vn -0.010824 -0.072561 -0.997305
vn 0.010824 0.072561 0.997305
vn -0.005214 0.601698 -0.798706
vn 0.005214 -0.601698 0.798706
vn -0.286021 -0.958219 0.002995
vn 0.286021 0.958219 -0.002995
vn 0.004809 0.999174 -0.04036
vn -0.004809 -0.999174 0.04036
vn 0.183608 -0.982998 -0.001923
vn -0.183608 0.982998 0.001923
vn 0.00366 0.989397 -0.145192
vn -0.00366 -0.989397 0.145192
vn -0.010729 -0.051851 -0.998597
vn 0.010729 0.051851 0.998597
vn -0.005781 0.556968 -0.830514
vn 0.005781 -0.556968 0.830514
vn -0.193891 -0.981021 0.00203
vn 0.193891 0.981021 -0.00203
vn 0.004621 0.998312 -0.057897
vn -0.004621 -0.998312 0.057897
vn 0.08959 -0.995978 -0.000938
vn -0.08959 0.995978 0.000938
vn 0.003855 0.991792 -0.127803
vn -0.003855 -0.991792 0.127803
vn -0.01063 -0.031119 -0.999459
vn 0.01063 0.031119 0.999459
vn -0.00633 0.5106 -0.859795
vn 0.00633 -0.5106 0.859795
vn -0.100014 -0.994986 0.001047
vn 0.100014 0.994986 -0.001047
vn 0.004432 0.997142 -0.075415
vn -0.004432 -0.997142 0.075415
vn 0.995267 0.09662 -0.010423
vn -0.995267 -0.09662 0.010423
vn 0.004048 0.993882 -0.110374
vn -0.004048 -0.993882 0.110374
vn -0.010526 -0.010374 -0.999891
vn 0.010526 0.010374 0.999891
vn -0.00686 0.462738 -0.886469
vn 0.00686 -0.462738 0.886469
vn 0.004241 0.995666 -0.092909
vn -0.004241 -0.995666 0.092909
vn 0.015706 0.999877 -0.000164
vn -0.015706 -0.999877 0.000164
vn -0.010417 0.010374 -0.999892
vn 0.010417 -0.010374 0.999892
vn -0.009807 0.113882 -0.993446
vn 0.009807 -0.113882 0.993446
vn -0.010304 0.031119 -0.999463
vn 0.010304 -0.031119 0.999463
vn -0.009938 0.093241 -0.995594
vn 0.009938 -0.093241 0.995594
vn 0.999824 -0.014831 -0.011494
vn -0.999824 0.014831 0.011494
vn -0.999818 0.016518 0.009537
vn 0.999818 -0.016518 -0.009537
vn -0.010186 0.051851 -0.998603
vn 0.010186 -0.051851 0.998603
vn -0.010064 0.072561 -0.997313
vn 0.010064 -0.072561 0.997313

# Mesh 'mesh1_mesh1-geometry' with 444 faces
g mesh1_mesh1-geometry
usemtl material_0_24
f  1//1 2//1 3//1
f  2//1 1//1 4//1
f  3//2 2//2 1//2
f  4//2 1//2 2//2
f  2//3 5//3 3//3
f  3//4 5//4 2//4
f  3//5 6//5 1//5
f  1//6 6//6 3//6
f  4//3 6//3 1//3
f  1//4 6//4 4//4
f  4//7 7//7 2//7
f  2//8 7//8 4//8
f  7//3 5//3 2//3
f  2//4 5//4 7//4
f  6//5 3//5 5//5
f  5//6 3//6 6//6
f  8//3 6//3 4//3
f  4//4 6//4 8//4
f  7//7 4//7 8//7
f  8//8 4//8 7//8
f  9//3 5//3 7//3
f  7//4 5//4 9//4
f  5//9 10//9 6//9
f  6//10 10//10 5//10
f  11//3 6//3 8//3
f  8//4 6//4 11//4
f  8//11 9//11 7//11
f  7//12 9//12 8//12
f  12//3 5//3 9//3
f  9//4 5//4 12//4
f  10//9 5//9 13//9
f  13//10 5//10 10//10
f  14//3 10//3 6//3
f  6//4 10//4 14//4
f  15//3 6//3 11//3
f  11//4 6//4 15//4
f  9//11 8//11 11//11
f  11//12 8//12 9//12
f  16//3 5//3 12//3
f  12//4 5//4 16//4
f  11//13 12//13 9//13
f  9//14 12//14 11//14
f  17//3 13//3 5//3
f  5//4 13//4 17//4
f  10//15 18//15 13//15
f  13//16 18//16 10//16
f  13//9 19//9 10//9
f  10//10 19//10 13//10
f  20//3 10//3 14//3
f  14//4 10//4 20//4
f  14//3 6//3 21//3
f  21//4 6//4 14//4
f  22//3 6//3 15//3
f  15//4 6//4 22//4
f  12//13 11//13 15//13
f  15//14 11//14 12//14
f  23//3 5//3 16//3
f  16//4 5//4 23//4
f  15//17 16//17 12//17
f  12//18 16//18 15//18
f  24//3 13//3 17//3
f  17//4 13//4 24//4
f  17//3 5//3 25//3
f  25//4 5//4 17//4
f  18//15 10//15 26//15
f  26//16 10//16 18//16
f  18//19 27//20 13//19
f  13//21 27//22 18//21
f  13//3 28//3 18//3
f  18//4 28//4 13//4
f  19//9 13//9 29//9
f  29//10 13//10 19//10
f  30//23 10//24 19//23
f  19//25 10//26 30//25
f  31//3 10//3 20//3
f  20//4 10//4 31//4
f  24//27 14//27 20//27
f  20//28 14//28 24//28
f  21//3 6//3 32//3
f  32//4 6//4 21//4
f  14//29 25//29 21//29
f  21//30 25//30 14//30
f  33//3 6//3 22//3
f  22//4 6//4 33//4
f  16//17 15//17 22//17
f  22//18 15//18 16//18
f  34//3 5//3 23//3
f  23//4 5//4 34//4
f  16//31 33//31 23//31
f  23//32 33//32 16//32
f  35//3 13//3 24//3
f  24//4 13//4 35//4
f  14//27 24//27 17//27
f  17//28 24//28 14//28
f  25//3 5//3 36//3
f  36//4 5//4 25//4
f  25//29 14//29 17//29
f  17//30 14//30 25//30
f  10//24 30//23 26//24
f  26//26 30//25 10//26
f  10//3 37//3 26//3
f  26//4 37//4 10//4
f  18//33 37//33 26//33
f  26//34 37//34 18//34
f  30//10 18//10 26//10
f  26//9 18//9 30//9
f  27//20 18//19 38//20
f  38//22 18//21 27//22
f  39//9 13//9 27//9
f  27//10 13//10 39//10
f  28//3 13//3 40//3
f  40//4 13//4 28//4
f  37//33 18//33 28//33
f  28//34 18//34 37//34
f  29//9 13//9 41//9
f  41//10 13//10 29//10
f  42//35 19//23 29//35
f  29//36 19//25 42//36
f  19//23 42//35 30//23
f  30//25 42//36 19//25
f  43//3 10//3 31//3
f  31//4 10//4 43//4
f  35//37 20//37 31//37
f  31//38 20//38 35//38
f  20//37 35//37 24//37
f  24//38 35//38 20//38
f  32//3 6//3 44//3
f  44//4 6//4 32//4
f  21//39 36//39 32//39
f  32//40 36//40 21//40
f  36//39 21//39 25//39
f  25//40 21//40 36//40
f  45//3 6//3 33//3
f  33//4 6//4 45//4
f  33//31 16//31 22//31
f  22//32 16//32 33//32
f  46//3 5//3 34//3
f  34//4 5//4 46//4
f  23//41 45//41 34//41
f  34//42 45//42 23//42
f  45//41 23//41 33//41
f  33//42 23//42 45//42
f  47//3 13//3 35//3
f  35//4 13//4 47//4
f  36//3 5//3 48//3
f  48//4 5//4 36//4
f  37//3 10//3 49//3
f  49//4 10//4 37//4
f  18//10 30//10 42//10
f  42//9 30//9 18//9
f  18//10 50//10 38//10
f  38//9 50//9 18//9
f  38//20 39//43 27//20
f  27//22 39//44 38//22
f  51//9 13//9 39//9
f  39//10 13//10 51//10
f  40//3 13//3 52//3
f  52//4 13//4 40//4
f  49//45 28//45 40//45
f  40//46 28//46 49//46
f  28//45 49//45 37//45
f  37//46 49//46 28//46
f  41//9 13//9 53//9
f  53//10 13//10 41//10
f  54//47 29//35 41//47
f  41//48 29//36 54//48
f  29//35 54//47 42//35
f  42//36 54//48 29//36
f  55//3 10//3 43//3
f  43//4 10//4 55//4
f  47//49 31//49 43//49
f  43//50 31//50 47//50
f  31//49 47//49 35//49
f  35//50 47//50 31//50
f  44//3 6//3 56//3
f  56//4 6//4 44//4
f  32//51 48//51 44//51
f  44//52 48//52 32//52
f  48//51 32//51 36//51
f  36//52 32//52 48//52
f  57//3 6//3 45//3
f  45//4 6//4 57//4
f  58//3 5//3 46//3
f  46//4 5//4 58//4
f  34//53 57//53 46//53
f  46//54 57//54 34//54
f  57//53 34//53 45//53
f  45//54 34//54 57//54
f  59//3 13//3 47//3
f  47//4 13//4 59//4
f  48//3 5//3 60//3
f  60//4 5//4 48//4
f  49//3 10//3 61//3
f  61//4 10//4 49//4
f  18//10 42//10 54//10
f  54//9 42//9 18//9
f  18//10 62//10 50//10
f  50//9 62//9 18//9
f  39//43 38//20 50//43
f  50//44 38//22 39//44
f  63//9 13//9 51//9
f  51//10 13//10 63//10
f  50//43 51//55 39//43
f  39//44 51//56 50//44
f  52//3 13//3 64//3
f  64//4 13//4 52//4
f  61//57 40//57 52//57
f  52//58 40//58 61//58
f  40//57 61//57 49//57
f  49//58 61//58 40//58
f  53//9 13//9 65//9
f  65//10 13//10 53//10
f  66//59 41//47 53//59
f  53//60 41//48 66//60
f  41//47 66//59 54//47
f  54//48 66//60 41//48
f  67//3 10//3 55//3
f  55//4 10//4 67//4
f  59//61 43//61 55//61
f  55//62 43//62 59//62
f  43//61 59//61 47//61
f  47//62 59//62 43//62
f  56//3 6//3 68//3
f  68//4 6//4 56//4
f  44//63 60//63 56//63
f  56//64 60//64 44//64
f  60//63 44//63 48//63
f  48//64 44//64 60//64
f  69//3 6//3 57//3
f  57//4 6//4 69//4
f  70//3 5//3 58//3
f  58//4 5//4 70//4
f  46//65 69//65 58//65
f  58//66 69//66 46//66
f  69//65 46//65 57//65
f  57//66 46//66 69//66
f  71//3 13//3 59//3
f  59//4 13//4 71//4
f  60//3 5//3 72//3
f  72//4 5//4 60//4
f  61//3 10//3 73//3
f  73//4 10//4 61//4
f  18//10 54//10 66//10
f  66//9 54//9 18//9
f  18//10 74//10 62//10
f  62//9 74//9 18//9
f  51//55 50//43 62//55
f  62//56 50//44 51//56
f  75//9 13//9 63//9
f  63//10 13//10 75//10
f  62//55 63//67 51//55
f  51//56 63//68 62//56
f  64//3 13//3 76//3
f  76//4 13//4 64//4
f  73//69 52//69 64//69
f  64//70 52//70 73//70
f  52//69 73//69 61//69
f  61//70 73//70 52//70
f  65//9 13//9 77//9
f  77//10 13//10 65//10
f  78//71 53//59 65//71
f  65//72 53//60 78//72
f  53//59 78//71 66//59
f  66//60 78//72 53//60
f  79//3 10//3 67//3
f  67//4 10//4 79//4
f  71//73 55//73 67//73
f  67//74 55//74 71//74
f  55//73 71//73 59//73
f  59//74 71//74 55//74
f  68//3 6//3 80//3
f  80//4 6//4 68//4
f  56//75 72//75 68//75
f  68//76 72//76 56//76
f  72//75 56//75 60//75
f  60//76 56//76 72//76
f  81//3 6//3 69//3
f  69//4 6//4 81//4
f  82//3 5//3 70//3
f  70//4 5//4 82//4
f  58//77 81//77 70//77
f  70//78 81//78 58//78
f  81//77 58//77 69//77
f  69//78 58//78 81//78
f  83//3 13//3 71//3
f  71//4 13//4 83//4
f  72//3 5//3 84//3
f  84//4 5//4 72//4
f  73//3 10//3 85//3
f  85//4 10//4 73//4
f  18//10 66//10 78//10
f  78//9 66//9 18//9
f  18//10 86//10 74//10
f  74//9 86//9 18//9
f  63//67 62//55 74//67
f  74//68 62//56 63//68
f  77//9 13//9 75//9
f  75//10 13//10 77//10
f  74//67 75//79 63//67
f  63//68 75//80 74//68
f  76//3 13//3 83//3
f  83//4 13//4 76//4
f  85//81 64//81 76//81
f  76//82 64//82 85//82
f  64//81 85//81 73//81
f  73//82 85//82 64//82
f  87//83 65//71 77//83
f  77//84 65//72 87//84
f  65//71 87//83 78//71
f  78//72 87//84 65//72
f  85//3 10//3 79//3
f  79//4 10//4 85//4
f  83//85 67//85 79//85
f  79//86 67//86 83//86
f  67//85 83//85 71//85
f  71//86 83//86 67//86
f  80//3 6//3 88//3
f  88//4 6//4 80//4
f  68//87 84//87 80//87
f  80//88 84//88 68//88
f  84//87 68//87 72//87
f  72//88 68//88 84//88
f  89//3 6//3 81//3
f  81//4 6//4 89//4
f  90//3 5//3 82//3
f  82//4 5//4 90//4
f  70//89 89//89 82//89
f  82//90 89//90 70//90
f  89//89 70//89 81//89
f  81//90 70//90 89//90
f  84//3 5//3 91//3
f  91//4 5//4 84//4
f  18//10 78//10 87//10
f  87//9 78//9 18//9
f  18//10 87//10 86//10
f  86//9 87//9 18//9
f  75//79 74//67 86//79
f  86//80 74//68 75//80
f  86//79 77//83 75//79
f  75//80 77//84 86//80
f  79//91 76//91 83//91
f  83//92 76//92 79//92
f  76//91 79//91 85//91
f  85//92 79//92 76//92
f  87//83 92//93 77//83
f  77//84 92//94 87//84
f  77//83 86//79 87//83
f  87//84 86//80 77//84
f  77//83 93//93 87//83
f  87//84 93//94 77//84
f  88//3 6//3 94//3
f  94//4 6//4 88//4
f  80//95 91//95 88//95
f  88//96 91//96 80//96
f  91//95 80//95 84//95
f  84//96 80//96 91//96
f  95//3 6//3 89//3
f  89//4 6//4 95//4
f  96//3 5//3 90//3
f  90//4 5//4 96//4
f  82//97 95//97 90//97
f  90//98 95//98 82//98
f  95//97 82//97 89//97
f  89//98 82//98 95//98
f  91//3 5//3 97//3
f  97//4 5//4 91//4
f  92//93 87//83 98//93
f  98//94 87//84 92//94
f  93//93 77//83 99//93
f  99//94 77//84 93//94
f  94//3 6//3 100//3
f  100//4 6//4 94//4
f  88//99 97//99 94//99
f  94//100 97//100 88//100
f  97//99 88//99 91//99
f  91//100 88//100 97//100
f  101//3 6//3 95//3
f  95//4 6//4 101//4
f  102//3 5//3 96//3
f  96//4 5//4 102//4
f  90//101 101//101 96//101
f  96//102 101//102 90//102
f  101//101 90//101 95//101
f  95//102 90//102 101//102
f  97//3 5//3 102//3
f  102//4 5//4 97//4
f  98//103 103//103 92//103
f  92//104 103//104 98//104
f  99//105 104//105 93//105
f  93//106 104//106 99//106
f  100//3 6//3 101//3
f  101//4 6//4 100//4
f  94//107 102//107 100//107
f  100//108 102//108 94//108
f  102//107 94//107 97//107
f  97//108 94//108 102//108
f  96//109 100//109 102//109
f  102//110 100//110 96//110
f  100//109 96//109 101//109
f  101//110 96//110 100//110
f  103//103 98//103 105//103
f  105//104 98//104 103//104
f  104//105 99//105 106//105
f  106//106 99//106 104//106
f  103//103 105//103 107//103
f  107//104 105//104 103//104
f  104//105 106//105 108//105
f  108//106 106//106 104//106
f  107//103 105//103 109//103
f  109//104 105//104 107//104
f  108//105 106//105 110//105
f  110//106 106//106 108//106
f  107//103 109//103 111//103
f  111//104 109//104 107//104
f  108//105 110//105 112//105
f  112//106 110//106 108//106
f  111//103 109//103 113//103
f  113//104 109//104 111//104
f  112//105 110//105 114//105
f  114//106 110//106 112//106
f  111//103 113//103 115//103
f  115//104 113//104 111//104
f  112//105 114//105 116//105
f  116//106 114//106 112//106
f  115//103 113//103 117//103
f  117//104 113//104 115//104
f  116//105 114//105 118//105
f  118//106 114//106 116//106
f  115//103 117//103 119//103
f  119//104 117//104 115//104
f  116//105 118//105 120//105
f  120//106 118//106 116//106
f  119//103 117//103 121//103
f  121//104 117//104 119//104
f  120//105 118//105 122//105
f  122//106 118//106 120//106
f  119//103 121//103 123//103
f  123//104 121//104 119//104
f  120//105 122//105 124//105
f  124//106 122//106 120//106
f  123//103 121//103 125//103
f  125//104 121//104 123//104
f  124//105 122//105 126//105
f  126//106 122//106 124//106

# Mesh 'mesh2_mesh2-geometry' with 138 faces
g mesh2_mesh2-geometry
usemtl material_0_0
l  4 1
l  8 4
l  4 2
l  1 6
l  1 3
l  11 8
l  8 7
l  2 3
l  7 2
l  6 10
l  6 5
l  3 5
l  15 11
l  11 9
l  9 7
l  10 13
l  10 26
l  10 19
l  5 13
l  22 15
l  15 12
l  12 9
l  13 18
l  27 13
l  26 37
l  26 18
l  26 30
l  19 29
l  33 22
l  22 16
l  16 12
l  18 28
l  38 18
l  39 27
l  37 49
l  37 28
l  30 42
l  29 41
l  45 33
l  33 23
l  23 16
l  28 40
l  50 38
l  51 39
l  49 61
l  49 40
l  42 54
l  41 53
l  57 45
l  45 34
l  34 23
l  40 52
l  62 50
l  63 51
l  61 73
l  61 52
l  54 66
l  53 65
l  69 57
l  57 46
l  46 34
l  52 64
l  74 62
l  75 63
l  73 85
l  73 64
l  66 78
l  65 77
l  81 69
l  69 58
l  58 46
l  64 76
l  86 74
l  77 75
l  85 79
l  85 76
l  78 87
l  89 81
l  81 70
l  70 58
l  76 83
l  87 86
l  79 67
l  79 83
l  95 89
l  89 82
l  82 70
l  83 71
l  67 55
l  67 71
l  101 95
l  95 90
l  90 82
l  71 59
l  55 43
l  55 59
l  100 101
l  101 96
l  96 90
l  59 47
l  43 31
l  43 47
l  94 100
l  100 102
l  102 96
l  47 35
l  31 20
l  31 35
l  88 94
l  94 97
l  97 102
l  35 24
l  20 14
l  20 24
l  80 88
l  88 91
l  91 97
l  24 17
l  14 21
l  14 17
l  68 80
l  80 84
l  84 91
l  17 25
l  21 32
l  21 25
l  56 68
l  68 72
l  72 84
l  25 36
l  32 44
l  32 36
l  44 56
l  56 60
l  60 72
l  36 48
l  44 48
l  48 60

# Mesh 'mesh3_mesh3-geometry' with 2 faces
g mesh3_mesh3-geometry
usemtl material_0_0
l  127 124
l  126 127

# Mesh 'mesh4_mesh4-geometry' with 2 faces
g mesh4_mesh4-geometry
usemtl material_0_0
l  128 123
l  125 128

# Mesh 'mesh5_mesh5-geometry' with 1 faces
g mesh5_mesh5-geometry
usemtl material_0_0
l  92 98

# Mesh 'mesh6_mesh6-geometry' with 1 faces
g mesh6_mesh6-geometry
usemtl material_0_0
l  93 99

