# File produced by Open Asset Import Library (http://www.assimp.sf.net)
# (assimp v3.2.202087883)

mtllib model_normalized.mtl

# 80 vertex positions
v 0.349327 -0.255797 0.216734
v 0.406054 0.163895 0.216734
v 0.406054 -0.255797 0.216734
v 0.349327 0.163895 0.216734
v 0.406054 -0.255797 0.172805
v 0.349327 -0.177550 0.216734
v 0.349327 0.163895 0.172805
v 0.406054 -0.177550 0.172805
v 0.349327 -0.255797 0.172805
v 0.349327 -0.177550 0.172805
v 0.406054 0.163895 0.172805
v -0.350804 -0.255797 0.172805
v -0.350804 -0.177550 0.216734
v -0.350804 -0.177550 0.172805
v -0.401320 -0.255797 0.216734
v -0.350804 0.181679 0.216734
v 0.406054 0.195906 -0.121154
v 0.406054 -0.177550 -0.069873
v 0.406054 0.195906 -0.069873
v -0.350804 -0.255797 0.216734
v -0.401320 -0.177550 0.172805
v -0.401320 0.181679 0.172805
v -0.350804 0.181679 0.172805
v -0.401320 0.181679 0.216734
v 0.406054 -0.255797 -0.121154
v 0.349327 0.195906 -0.121154
v 0.349327 -0.255797 -0.069873
v 0.349327 -0.177550 -0.069873
v -0.350804 -0.177550 -0.069873
v -0.401320 -0.255797 -0.069873
v -0.401320 -0.177550 -0.069873
v -0.401320 -0.255797 0.172805
v 0.406054 -0.255797 -0.069873
v 0.349327 0.195906 -0.069873
v 0.349327 -0.177550 -0.121154
v -0.350804 -0.255797 -0.069873
v -0.401320 0.192349 -0.121154
v -0.401320 0.192349 -0.069873
v 0.349327 -0.255797 -0.121154
v -0.350804 -0.255797 -0.121154
v -0.350804 -0.177550 -0.121154
v -0.401320 -0.255797 -0.121154
v -0.350804 0.192349 -0.069873
v -0.350804 0.192349 -0.121154
v 0.087867 -0.151185 -0.110484
v 0.329724 0.200928 -0.110484
v 0.329724 -0.151185 -0.110484
v 0.087867 0.200928 -0.110484
v -0.096915 0.197129 -0.110484
v -0.320988 -0.154985 -0.110484
v -0.320988 0.197129 -0.110484
v -0.096915 -0.154985 -0.110484
v -0.075123 -0.152869 -0.114040
v 0.067142 0.199245 -0.114040
v 0.067142 -0.152869 -0.114040
v -0.075123 0.199245 -0.114040
v -0.350804 0.227916 0.216734
v 0.349327 0.227916 0.172805
v 0.349327 0.227916 0.216734
v 0.406054 0.227916 0.172805
v -0.350804 0.227916 0.172805
v 0.406054 0.227916 -0.069873
v -0.401320 0.227916 0.172805
v 0.349327 0.227916 -0.069873
v -0.401320 0.227916 -0.069873
v 0.349327 0.227916 -0.121154
v -0.350804 0.227916 -0.069873
v 0.329724 -0.151185 -0.121154
v -0.350804 0.227916 -0.121154
v 0.329724 0.200928 -0.121154
v 0.067142 -0.152869 -0.121154
v -0.320988 0.197129 -0.121154
v -0.096915 -0.154985 -0.121154
v 0.087867 -0.151185 -0.121154
v -0.096915 0.197129 -0.121154
v -0.320988 -0.154985 -0.121154
v 0.087867 0.200928 -0.121154
v -0.075123 -0.152869 -0.121154
v -0.075123 0.199245 -0.121154
v 0.067142 0.199245 -0.121154

# 92 UV coordinates
vt 3.15073 0 0
vt 0.746354 37.1654 0
vt 0.746354 0 0
vt 3.15073 37.1654 0
vt -13.6193 37.1654 0
vt -15.4812 0 0
vt -13.6193 0 0
vt 15.4812 1.55935 0
vt 13.6193 6.58277 0
vt 13.6193 1.55935 0
vt 3.15073 6.92913 0
vt -15.4812 6.58277 0
vt -13.6193 1.55935 0
vt -13.6193 6.58277 0
vt -15.4812 6.92913 0
vt 15.4812 6.58277 0
vt 13.6193 0 0
vt 15.4812 6.92913 0
vt 13.6193 6.92913 0
vt -15.4812 1.55935 0
vt -15.4812 37.1654 0
vt -3.15073 6.92913 0
vt -0.746354 0 0
vt -0.746354 6.92913 0
vt -3.15073 0 0
vt 15.4812 0 0
vt -13.6193 6.92913 0
vt 32.8256 6.92913 0
vt 34.9667 0 0
vt 32.8256 38.7402 0
vt -27.9406 40 0
vt -25.767 6.92913 0
vt -25.767 40 0
vt -34.9667 6.92913 0
vt -32.8256 0 0
vt -32.8256 6.92913 0
vt -13.6193 68.582 0
vt -15.4812 73.0554 0
vt -15.4812 68.582 0
vt 32.8256 0 0
vt 34.9667 38.7402 0
vt -27.9406 0 0
vt -25.767 1.55935 0
vt -27.9406 6.58277 0
vt -27.9406 1.55935 0
vt 0.746354 6.92913 0
vt 34.9667 6.92913 0
vt 15.4812 68.582 0
vt 13.6193 73.0554 0
vt 13.6193 68.582 0
vt -34.9667 0 0
vt 13.6193 38.7402 0
vt 15.4812 38.7402 0
vt -13.6193 73.0554 0
vt -25.767 0 0
vt -3.15073 40 0
vt -0.746354 40 0
vt -25.767 6.58277 0
vt 25.767 0 0
vt 27.9406 6.92913 0
vt 25.767 6.92913 0
vt 27.9406 39.685 0
vt 15.4812 73.0554 0
vt 25.767 39.685 0
vt 27.9406 1.55935 0
vt 25.767 6.58277 0
vt 25.767 1.55935 0
vt 27.9406 0 0
vt -27.9406 6.92913 0
vt 27.9406 68.582 0
vt 25.767 73.0554 0
vt 25.767 68.582 0
vt -27.9406 73.0554 0
vt -25.767 68.582 0
vt -25.767 73.0554 0
vt 27.9406 6.58277 0
vt -34.9667 39.685 0
vt 27.9406 73.0554 0
vt -27.9406 68.582 0
vt -32.8256 39.685 0
vt 14.2326 9.26378 0
vt 3.9816 40.4449 0
vt 3.9816 9.26378 0
vt 14.2326 40.4449 0
vt 22.0646 40.1084 0
vt 31.5619 8.92726 0
vt 31.5619 40.1084 0
vt 22.0646 8.92726 0
vt 21.141 9.11469 0
vt 15.111 40.2958 0
vt 15.111 9.11469 0
vt 21.141 40.2958 0

# 6 vertex normals
vn 0 0 -1
vn 0 -0 1
vn -1 0 0
vn 1 -0 0
vn 0 1 0
vn 0 -1 0

# Mesh 'mesh1_mesh1-geometry' with 124 faces
g mesh1_mesh1-geometry
usemtl material_0_1_8
f  1/1/1 2/2/1 3/3/1
f  2/2/1 1/1/1 4/4/1
f  3/3/2 2/2/2 1/1/2
f  4/4/2 1/1/2 2/2/2
f  2/5/3 5/6/3 3/7/3
f  3/7/4 5/6/4 2/5/4
f  5/8/5 1/9/5 3/10/5
f  3/10/6 1/9/6 5/8/6
f  4/4/1 1/1/1 6/11/1
f  6/11/2 1/1/2 4/4/2
f  7/12/6 2/13/6 4/14/6
f  4/14/5 2/13/5 7/12/5
f  5/6/3 2/5/3 8/15/3
f  8/15/4 2/5/4 5/6/4
f  1/9/5 5/8/5 9/16/5
f  9/16/6 5/8/6 1/9/6
f  1/17/4 10/18/4 6/19/4
f  6/19/3 10/18/3 1/17/3
f  2/13/6 7/12/6 11/20/6
f  11/20/5 7/12/5 2/13/5
f  8/15/3 2/5/3 11/21/3
f  11/21/4 2/5/4 8/15/4
f  10/22/2 5/23/2 8/24/2
f  8/24/1 5/23/1 10/22/1
f  5/23/2 10/22/2 9/25/2
f  9/25/1 10/22/1 5/23/1
f  10/18/4 1/17/4 9/26/4
f  9/26/3 1/17/3 10/18/3
f  12/6/3 13/27/3 14/15/3
f  14/15/4 13/27/4 12/6/4
f  13/28/1 15/29/1 16/30/1
f  16/30/2 15/29/2 13/28/2
f  17/31/3 18/32/3 19/33/3
f  19/33/4 18/32/4 17/31/4
f  13/27/3 12/6/3 20/7/3
f  20/7/4 12/6/4 13/27/4
f  21/34/2 12/35/2 14/36/2
f  14/36/1 12/35/1 21/34/1
f  16/37/6 22/38/6 23/39/6
f  23/39/5 22/38/5 16/37/5
f  15/29/1 13/28/1 20/40/1
f  20/40/2 13/28/2 15/29/2
f  16/30/1 15/29/1 24/41/1
f  24/41/2 15/29/2 16/30/2
f  25/42/3 18/32/3 17/31/3
f  17/31/4 18/32/4 25/42/4
f  19/43/6 26/44/6 17/45/6
f  17/45/5 26/44/5 19/43/5
f  18/46/1 27/1/1 28/11/1
f  28/11/2 27/1/2 18/46/2
f  29/28/1 30/29/1 31/47/1
f  31/47/2 30/29/2 29/28/2
f  12/48/5 15/49/5 20/50/5
f  20/50/6 15/49/6 12/48/6
f  12/35/2 21/34/2 32/51/2
f  32/51/1 21/34/1 12/35/1
f  24/52/4 21/18/4 22/53/4
f  22/53/3 21/18/3 24/52/3
f  22/38/6 16/37/6 24/54/6
f  24/54/5 16/37/5 22/38/5
f  15/17/4 21/18/4 24/52/4
f  24/52/3 21/18/3 15/17/3
f  18/32/3 25/42/3 33/55/3
f  33/55/4 25/42/4 18/32/4
f  26/56/2 25/23/2 17/57/2
f  17/57/1 25/23/1 26/56/1
f  26/44/6 19/43/6 34/58/6
f  34/58/5 19/43/5 26/44/5
f  27/1/1 18/46/1 33/3/1
f  33/3/2 18/46/2 27/1/2
f  27/59/4 35/60/4 28/61/4
f  28/61/3 35/60/3 27/59/3
f  30/29/1 29/28/1 36/40/1
f  36/40/2 29/28/2 30/29/2
f  30/59/4 37/62/4 31/61/4
f  31/61/3 37/62/3 30/59/3
f  15/49/5 12/48/5 32/63/5
f  32/63/6 12/48/6 15/49/6
f  21/18/4 15/17/4 32/26/4
f  32/26/3 15/17/3 21/18/3
f  31/61/4 37/62/4 38/64/4
f  38/64/3 37/62/3 31/61/3
f  25/65/5 27/66/5 33/67/5
f  33/67/6 27/66/6 25/65/6
f  25/23/2 26/56/2 39/25/2
f  39/25/1 26/56/1 25/23/1
f  35/60/4 27/59/4 39/68/4
f  39/68/3 27/59/3 35/60/3
f  40/42/3 29/32/3 41/69/3
f  41/69/4 29/32/4 40/42/4
f  29/32/3 40/42/3 36/55/3
f  36/55/4 40/42/4 29/32/4
f  40/70/5 30/71/5 36/72/5
f  36/72/6 30/71/6 40/70/6
f  37/62/4 30/59/4 42/68/4
f  42/68/3 30/59/3 37/62/3
f  37/73/6 43/74/6 38/75/6
f  38/75/5 43/74/5 37/73/5
f  27/66/5 25/65/5 39/76/5
f  39/76/6 25/65/6 27/66/6
f  39/25/2 26/56/2 35/22/2
f  35/22/1 26/56/1 39/25/1
f  41/36/2 37/77/2 40/35/2
f  40/35/1 37/77/1 41/36/1
f  30/71/5 40/70/5 42/78/5
f  42/78/6 40/70/6 30/71/6
f  40/35/2 37/77/2 42/51/2
f  42/51/1 37/77/1 40/35/1
f  43/74/6 37/73/6 44/79/6
f  44/79/5 37/73/5 43/74/5
f  37/77/2 41/36/2 44/80/2
f  44/80/1 41/36/1 37/77/1
f  45/81/1 46/82/1 47/83/1
f  47/83/2 46/82/2 45/81/2
f  46/82/1 45/81/1 48/84/1
f  48/84/2 45/81/2 46/82/2
f  49/85/1 50/86/1 51/87/1
f  51/87/2 50/86/2 49/85/2
f  50/86/1 49/85/1 52/88/1
f  52/88/2 49/85/2 50/86/2
f  53/89/1 54/90/1 55/91/1
f  55/91/2 54/90/2 53/89/2
f  54/90/1 53/89/1 56/92/1
f  56/92/2 53/89/2 54/90/2

# Mesh 'mesh1_mesh1-geometry' with 188 faces
g mesh1_mesh1-geometry
usemtl material_1_24
f  4//2 57//2 6//2
f  6//1 57//1 4//1
f  6//4 7//4 4//4
f  4//3 7//3 6//3
f  58//4 4//4 7//4
f  7//3 4//3 58//3
f  6//6 14//6 10//6
f  10//5 14//5 6//5
f  7//4 6//4 10//4
f  10//3 6//3 7//3
f  57//2 4//2 59//2
f  59//1 4//1 57//1
f  6//2 57//2 13//2
f  13//1 57//1 6//1
f  11//2 58//2 7//2
f  7//1 58//1 11//1
f  7//2 8//2 11//2
f  11//1 8//1 7//1
f  4//4 58//4 59//4
f  59//3 58//3 4//3
f  8//4 19//4 11//4
f  11//3 19//3 8//3
f  10//6 31//6 8//6
f  8//5 31//5 10//5
f  8//2 7//2 10//2
f  10//1 7//1 8//1
f  14//6 6//6 13//6
f  13//5 6//5 14//5
f  14//6 31//6 10//6
f  10//5 31//5 14//5
f  59//6 57//6 58//6
f  13//2 57//2 16//2
f  16//1 57//1 13//1
f  58//2 11//2 60//2
f  60//1 11//1 58//1
f  19//4 8//4 18//4
f  18//3 8//3 19//3
f  11//4 19//4 60//4
f  60//3 19//3 11//3
f  8//6 31//6 18//6
f  18//5 31//5 8//5
f  16//3 14//3 13//3
f  13//4 14//4 16//4
f  31//6 14//6 21//6
f  21//5 14//5 31//5
f  61//6 58//6 57//6
f  57//3 23//3 16//3
f  16//4 23//4 57//4
f  60//6 58//6 62//6
f  28//1 19//1 18//1
f  18//2 19//2 28//2
f  60//4 19//4 62//4
f  62//3 19//3 60//3
f  18//6 31//6 29//6
f  29//5 31//5 18//5
f  14//3 16//3 23//3
f  23//4 16//4 14//4
f  14//2 22//2 21//2
f  21//1 22//1 14//1
f  22//3 31//3 21//3
f  21//4 31//4 22//4
f  61//6 62//6 58//6
f  23//3 57//3 61//3
f  61//4 57//4 23//4
f  19//1 28//1 34//1
f  34//2 28//2 19//2
f  18//6 29//6 28//6
f  28//5 29//5 18//5
f  34//1 62//1 19//1
f  19//2 62//2 34//2
f  31//1 43//1 29//1
f  29//2 43//2 31//2
f  22//2 14//2 23//2
f  23//1 14//1 22//1
f  31//3 22//3 38//3
f  38//4 22//4 31//4
f  63//6 62//6 61//6
f  63//2 23//2 61//2
f  61//1 23//1 63//1
f  23//2 63//2 22//2
f  22//1 63//1 23//1
f  28//4 26//4 34//4
f  34//3 26//3 28//3
f  41//6 28//6 29//6
f  29//5 28//5 41//5
f  62//1 34//1 64//1
f  64//2 34//2 62//2
f  43//1 31//1 38//1
f  38//2 31//2 43//2
f  43//3 41//3 29//3
f  29//4 41//4 43//4
f  38//3 22//3 63//3
f  63//4 22//4 38//4
f  65//6 62//6 63//6
f  66//4 34//4 26//4
f  26//3 34//3 66//3
f  26//4 28//4 35//4
f  35//3 28//3 26//3
f  28//6 41//6 35//6
f  35//5 41//5 28//5
f  34//4 66//4 64//4
f  64//3 66//3 34//3
f  64//6 62//6 65//6
f  38//1 67//1 43//1
f  43//2 67//2 38//2
f  41//3 43//3 44//3
f  44//4 43//4 41//4
f  38//3 63//3 65//3
f  65//4 63//4 38//4
f  66//2 68//2 26//2
f  26//2 68//2 35//2
f  41//2 35//2 68//2
f  64//6 67//6 66//6
f  67//6 64//6 65//6
f  67//1 38//1 65//1
f  65//2 38//2 67//2
f  67//3 44//3 43//3
f  43//4 44//4 67//4
f  44//2 41//2 69//2
f  68//2 66//2 70//2
f  71//2 41//2 68//2
f  69//6 66//6 67//6
f  44//3 67//3 69//3
f  69//4 67//4 44//4
f  41//2 72//2 69//2
f  69//2 70//2 66//2
f  68//3 46//3 70//3
f  70//4 46//4 68//4
f  73//2 41//2 71//2
f  74//2 71//2 68//2
f  72//2 75//2 69//2
f  72//2 41//2 76//2
f  77//2 70//2 69//2
f  46//3 68//3 47//3
f  47//4 68//4 46//4
f  46//6 77//6 70//6
f  70//5 77//5 46//5
f  76//2 41//2 73//2
f  78//2 73//2 71//2
f  77//2 71//2 74//2
f  45//5 68//5 74//5
f  74//6 68//6 45//6
f  75//2 79//2 69//2
f  49//6 72//6 75//6
f  75//5 72//5 49//5
f  72//4 50//4 76//4
f  76//3 50//3 72//3
f  80//2 77//2 69//2
f  68//5 45//5 47//5
f  47//6 45//6 68//6
f  77//6 46//6 48//6
f  48//5 46//5 77//5
f  50//5 73//5 76//5
f  76//6 73//6 50//6
f  79//2 73//2 78//2
f  53//5 71//5 78//5
f  78//6 71//6 53//6
f  71//2 77//2 80//2
f  77//4 45//4 74//4
f  74//3 45//3 77//3
f  79//2 80//2 69//2
f  73//2 79//2 75//2
f  72//6 49//6 51//6
f  51//5 49//5 72//5
f  73//3 49//3 75//3
f  75//4 49//4 73//4
f  50//4 72//4 51//4
f  51//3 72//3 50//3
f  45//4 77//4 48//4
f  48//3 77//3 45//3
f  73//5 50//5 52//5
f  52//6 50//6 73//6
f  79//4 53//4 78//4
f  78//3 53//3 79//3
f  71//5 53//5 55//5
f  55//6 53//6 71//6
f  71//3 54//3 80//3
f  80//4 54//4 71//4
f  54//6 79//6 80//6
f  80//5 79//5 54//5
f  49//3 73//3 52//3
f  52//4 73//4 49//4
f  53//4 79//4 56//4
f  56//3 79//3 53//3
f  54//3 71//3 55//3
f  55//4 71//4 54//4
f  79//6 54//6 56//6
f  56//5 54//5 79//5

# Mesh 'mesh1_mesh1-geometry' with 32 faces
g mesh1_mesh1-geometry
usemtl material_2_24
f  58//5 57//5 59//5
f  57//5 58//5 61//5
f  62//5 58//5 60//5
f  58//5 62//5 61//5
f  61//5 62//5 63//5
f  63//5 62//5 65//5
f  65//5 62//5 64//5
f  26//1 68//1 66//1
f  35//1 68//1 26//1
f  68//1 35//1 41//1
f  66//5 67//5 64//5
f  65//5 64//5 67//5
f  69//1 41//1 44//1
f  70//1 66//1 68//1
f  68//1 41//1 71//1
f  67//5 66//5 69//5
f  69//1 72//1 41//1
f  66//1 70//1 69//1
f  71//1 41//1 73//1
f  68//1 71//1 74//1
f  69//1 75//1 72//1
f  76//1 41//1 72//1
f  69//1 70//1 77//1
f  73//1 41//1 76//1
f  71//1 73//1 78//1
f  74//1 71//1 77//1
f  69//1 79//1 75//1
f  69//1 77//1 80//1
f  78//1 73//1 79//1
f  80//1 77//1 71//1
f  69//1 80//1 79//1
f  75//1 79//1 73//1

# Mesh 'mesh2_mesh2-geometry' with 1 faces
g mesh2_mesh2-geometry
usemtl material_1_0
l  18 8

# Mesh 'mesh3_mesh3-geometry' with 1 faces
g mesh3_mesh3-geometry
usemtl material_1_0
l  6 13

# Mesh 'mesh4_mesh4-geometry' with 1 faces
g mesh4_mesh4-geometry
usemtl material_1_0
l  21 31

# Mesh 'mesh5_mesh5-geometry' with 1 faces
g mesh5_mesh5-geometry
usemtl material_1_0
l  41 35

# Mesh 'mesh6_mesh6-geometry' with 2 faces
g mesh6_mesh6-geometry
usemtl material_1_0
l  10 7
l  7 58

# Mesh 'mesh7_mesh7-geometry' with 2 faces
g mesh7_mesh7-geometry
usemtl material_1_0
l  14 23
l  23 61

# Mesh 'mesh8_mesh8-geometry' with 2 faces
g mesh8_mesh8-geometry
usemtl material_1_0
l  29 43
l  43 67

# Mesh 'mesh9_mesh9-geometry' with 2 faces
g mesh9_mesh9-geometry
usemtl material_1_0
l  28 34
l  34 64

# Mesh 'mesh10_mesh10-geometry' with 1 faces
g mesh10_mesh10-geometry
usemtl material_1_0
l  19 62

# Mesh 'mesh11_mesh11-geometry' with 1 faces
g mesh11_mesh11-geometry
usemtl material_1_0
l  38 65

# Mesh 'mesh12_mesh12-geometry' with 1 faces
g mesh12_mesh12-geometry
usemtl material_1_0
l  44 69

# Mesh 'mesh13_mesh13-geometry' with 1 faces
g mesh13_mesh13-geometry
usemtl material_1_0
l  16 57

# Mesh 'mesh14_mesh14-geometry' with 1 faces
g mesh14_mesh14-geometry
usemtl material_1_0
l  22 63

# Mesh 'mesh15_mesh15-geometry' with 1 faces
g mesh15_mesh15-geometry
usemtl material_1_0
l  11 60

# Mesh 'mesh16_mesh16-geometry' with 1 faces
g mesh16_mesh16-geometry
usemtl material_1_0
l  4 59

# Mesh 'mesh17_mesh17-geometry' with 1 faces
g mesh17_mesh17-geometry
usemtl material_1_0
l  74 45

# Mesh 'mesh18_mesh18-geometry' with 1 faces
g mesh18_mesh18-geometry
usemtl material_1_0
l  68 47

# Mesh 'mesh19_mesh19-geometry' with 1 faces
g mesh19_mesh19-geometry
usemtl material_1_0
l  77 48

# Mesh 'mesh20_mesh20-geometry' with 1 faces
g mesh20_mesh20-geometry
usemtl material_1_0
l  70 46

# Mesh 'mesh21_mesh21-geometry' with 1 faces
g mesh21_mesh21-geometry
usemtl material_1_0
l  79 56

# Mesh 'mesh22_mesh22-geometry' with 1 faces
g mesh22_mesh22-geometry
usemtl material_1_0
l  78 53

# Mesh 'mesh23_mesh23-geometry' with 1 faces
g mesh23_mesh23-geometry
usemtl material_1_0
l  80 54

# Mesh 'mesh24_mesh24-geometry' with 1 faces
g mesh24_mesh24-geometry
usemtl material_1_0
l  71 55

# Mesh 'mesh25_mesh25-geometry' with 1 faces
g mesh25_mesh25-geometry
usemtl material_1_0
l  72 51

# Mesh 'mesh26_mesh26-geometry' with 1 faces
g mesh26_mesh26-geometry
usemtl material_1_0
l  76 50

# Mesh 'mesh27_mesh27-geometry' with 1 faces
g mesh27_mesh27-geometry
usemtl material_1_0
l  75 49

# Mesh 'mesh28_mesh28-geometry' with 1 faces
g mesh28_mesh28-geometry
usemtl material_1_0
l  73 52

