# File produced by Open Asset Import Library (http://www.assimp.sf.net)
# (assimp v3.2.202087883)

mtllib model_normalized.mtl

# 32 vertex positions
v 0.480342 0.086729 0.080057
v -0.480342 0.060043 0.080057
v 0.480342 0.060043 0.080057
v -0.480342 0.086729 0.080057
v 0.480342 0.060043 -0.080057
v -0.480342 0.086729 -0.080057
v -0.480342 0.060043 -0.080057
v 0.480342 0.086729 -0.080057
v -0.373599 0.060043 -0.080057
v -0.346913 -0.140100 -0.080057
v -0.373599 -0.140100 -0.080057
v -0.346913 0.060043 -0.080057
v -0.373599 -0.140100 0.080057
v -0.346913 0.060043 0.080057
v -0.346913 -0.140100 0.080057
v -0.373599 0.060043 0.080057
v -0.346913 0.060043 0.013343
v -0.346913 -0.046700 -0.013343
v -0.346913 -0.046700 0.013343
v -0.346913 0.060043 -0.013343
v 0.346913 -0.046700 0.013343
v 0.346913 0.060043 -0.013343
v 0.346913 -0.046700 -0.013343
v 0.346913 0.060043 0.013343
v 0.346913 0.060043 -0.080057
v 0.373599 -0.140100 -0.080057
v 0.346913 -0.140100 -0.080057
v 0.373599 0.060043 -0.080057
v 0.346913 -0.140100 0.080057
v 0.373599 0.060043 0.080057
v 0.373599 -0.140100 0.080057
v 0.346913 0.060043 0.080057

# 32 UV coordinates
vt 1 0.027778 0
vt 0 0 0
vt 1 0 0
vt 0 0.027778 0
vt -1 0.166667 0
vt -1 0 0
vt 0.166667 0 0
vt 0 0.166667 0
vt -0.166667 0.027778 0
vt 0.166667 0.027778 0
vt 1 0.166667 0
vt -0.166667 0 0
vt -1 0.027778 0
vt 0 0.208333 0
vt -0.027778 0 0
vt -0.027778 0.208333 0
vt -0.027778 0.166667 0
vt -0.166667 0.208333 0
vt 0.027778 0 0
vt 0.027778 0.166667 0
vt 0.166667 0.208333 0
vt 0.027778 0.208333 0
vt 0.027778 0.111111 0
vt 0 0.111111 0
vt -0.027778 0.722222 0
vt 0.722222 0 0
vt 0 0.722222 0
vt -0.722222 0.111111 0
vt 0.722222 0.111111 0
vt 0.027778 0.722222 0
vt -0.722222 0 0
vt -0.027778 0.111111 0

# 6 vertex normals
vn 0 0 0.0254
vn 0 -0.0254 0
vn 0.0254 0 0
vn 0 0.0254 0
vn -0.0254 0 0
vn 0 0 -0.0254

# Mesh 'mesh1_mesh1-geometry' with 12 faces
g mesh1_mesh1-geometry
usemtl material_0_1_8
f  1/1/1 2/2/1 3/3/1
f  2/2/1 1/1/1 4/4/1
f  2/2/2 5/5/2 3/6/2
f  5/7/3 1/4/3 3/2/3
f  1/3/4 6/8/4 4/2/4
f  6/9/5 2/2/5 4/4/5
f  5/5/2 2/2/2 7/8/2
f  1/4/3 5/7/3 8/10/3
f  6/8/4 1/3/4 8/11/4
f  2/2/5 6/9/5 7/12/5
f  6/4/6 5/6/6 7/2/6
f  5/6/6 6/4/6 8/13/6

# Mesh 'mesh1_mesh1-geometry' with 12 faces
g mesh1_mesh1-geometry
usemtl material_1_24
f  3//6 2//6 1//6
f  4//6 1//6 2//6
f  3//4 5//4 2//4
f  3//5 1//5 5//5
f  4//2 6//2 1//2
f  4//3 2//3 6//3
f  7//4 2//4 5//4
f  8//5 5//5 1//5
f  8//2 1//2 6//2
f  7//3 6//3 2//3
f  7//1 5//1 6//1
f  8//1 6//1 5//1

# Mesh 'mesh2_mesh2-geometry' with 12 faces
g mesh2_mesh2-geometry
usemtl material_0_1_8
f  9/14/6 10/15/6 11/2/6
f  10/15/6 9/14/6 12/16/6
f  10/17/2 13/2/2 11/8/2
f  13/2/5 9/18/5 11/12/5
f  9/8/4 14/19/4 12/20/4
f  14/14/3 10/7/3 12/21/3
f  13/2/2 10/17/2 15/15/2
f  9/18/5 13/2/5 16/14/5
f  14/19/4 9/8/4 16/2/4
f  10/7/3 14/14/3 15/2/3
f  14/22/1 13/2/1 15/19/1
f  13/2/1 14/22/1 16/14/1

# Mesh 'mesh2_mesh2-geometry' with 12 faces
g mesh2_mesh2-geometry
usemtl material_1_24
f  11//1 10//1 9//1
f  12//1 9//1 10//1
f  11//4 13//4 10//4
f  11//3 9//3 13//3
f  12//2 14//2 9//2
f  12//5 10//5 14//5
f  15//4 10//4 13//4
f  16//3 13//3 9//3
f  16//2 9//2 14//2
f  15//5 14//5 10//5
f  15//6 13//6 14//6
f  16//6 14//6 13//6

# Mesh 'mesh3_mesh3-geometry' with 12 faces
g mesh3_mesh3-geometry
usemtl material_0_1_8
f  17/23/5 18/2/5 19/19/5
f  18/2/5 17/23/5 20/24/5
f  18/2/2 21/25/2 19/15/2
f  21/26/1 17/24/1 19/2/1
f  17/19/4 22/27/4 20/2/4
f  22/28/6 18/2/6 20/24/6
f  21/25/2 18/2/2 23/27/2
f  17/24/1 21/26/1 24/29/1
f  22/27/4 17/19/4 24/30/4
f  18/2/6 22/28/6 23/31/6
f  22/24/3 21/15/3 23/2/3
f  21/15/3 22/24/3 24/32/3

# Mesh 'mesh3_mesh3-geometry' with 12 faces
g mesh3_mesh3-geometry
usemtl material_1_24
f  19//3 18//3 17//3
f  20//3 17//3 18//3
f  19//4 21//4 18//4
f  19//6 17//6 21//6
f  20//2 22//2 17//2
f  20//1 18//1 22//1
f  23//4 18//4 21//4
f  24//6 21//6 17//6
f  24//2 17//2 22//2
f  23//1 22//1 18//1
f  23//5 21//5 22//5
f  24//5 22//5 21//5

# Mesh 'mesh4_mesh4-geometry' with 24 faces
g mesh4_mesh4-geometry
usemtl material_0_1_8
f  25/14/6 26/15/6 27/2/6
f  26/15/6 25/14/6 28/16/6
f  27/2/1 26/15/1 25/14/1
f  28/16/1 25/14/1 26/15/1
f  26/17/2 29/2/2 27/8/2
f  27/8/4 29/2/4 26/17/4
f  29/2/5 25/18/5 27/12/5
f  27/12/3 25/18/3 29/2/3
f  25/8/4 30/19/4 28/20/4
f  28/20/2 30/19/2 25/8/2
f  30/14/3 26/7/3 28/21/3
f  28/21/5 26/7/5 30/14/5
f  29/2/2 26/17/2 31/15/2
f  31/15/4 26/17/4 29/2/4
f  25/18/5 29/2/5 32/14/5
f  32/14/3 29/2/3 25/18/3
f  30/19/4 25/8/4 32/2/4
f  32/2/2 25/8/2 30/19/2
f  26/7/3 30/14/3 31/2/3
f  31/2/5 30/14/5 26/7/5
f  30/22/1 29/2/1 31/19/1
f  31/19/6 29/2/6 30/22/6
f  29/2/1 30/22/1 32/14/1
f  32/14/6 30/22/6 29/2/6

# Mesh 'mesh5_mesh5-geometry' with 12 faces
g mesh5_mesh5-geometry
usemtl material_1_0
l  26 27
l  28 26
l  26 31
l  27 25
l  27 29
l  25 28
l  28 30
l  31 29
l  30 31
l  25 32
l  29 32
l  32 30

