# File produced by Open Asset Import Library (http://www.assimp.sf.net)
# (assimp v3.2.202087883)

mtllib model_normalized.mtl

# 150 vertex positions
v -0.178965 -0.166747 -0.024321
v 0.178965 -0.268705 -0.024321
v -0.178965 -0.268705 -0.024321
v 0.178965 -0.166747 -0.024321
v -0.178965 -0.268705 -0.015717
v 0.178965 -0.166747 -0.015717
v 0.178965 -0.268705 -0.015717
v -0.178965 -0.166747 -0.015717
v 0.180686 -0.270426 -0.015717
v -0.180686 -0.165026 -0.015717
v 0.180686 -0.165026 -0.015717
v -0.180686 -0.270426 -0.015717
v 0.180686 -0.165026 -0.024321
v -0.180686 -0.270426 -0.007113
v -0.180686 -0.270426 -0.024321
v 0.180686 -0.165026 -0.007113
v 0.180686 -0.270426 -0.024321
v 0.180686 -0.152120 -0.024321
v 0.180686 -0.270426 -0.007113
v -0.180686 -0.283332 -0.015717
v -0.180686 -0.165026 -0.024321
v -0.180686 -0.283332 -0.024321
v -0.180686 -0.165026 -0.007113
v 0.180686 -0.152120 -0.015717
v 0.206498 0.428655 -0.024321
v 0.180686 -0.283332 -0.015717
v 0.180686 -0.283332 -0.007113
v -0.180686 -0.283332 -0.007113
v -0.206498 0.428655 -0.024321
v -0.180686 -0.152120 -0.015717
v -0.180686 -0.152120 -0.007113
v 0.180686 -0.152120 -0.007113
v 0.180686 -0.283332 -0.024321
v 0.180686 -0.046720 -0.024321
v -0.180686 -0.388732 -0.024321
v -0.180686 -0.152120 -0.024321
v 0.180686 -0.388732 -0.024321
v 0.180686 -0.388732 -0.015717
v 0.180686 -0.046720 -0.015717
v 0.180686 -0.033814 -0.024321
v -0.180686 -0.388732 -0.015717
v -0.180686 -0.046720 -0.024321
v -0.180686 -0.046720 -0.015717
v -0.180686 -0.414545 -0.024321
v 0.206498 -0.414545 -0.024321
v 0.178965 -0.387012 -0.015717
v -0.178965 -0.285053 -0.015717
v 0.178965 -0.150399 -0.015717
v 0.180686 0.071586 -0.024321
v -0.178965 -0.387012 -0.015717
v -0.180686 -0.033814 -0.024321
v -0.178965 -0.150399 -0.015717
v -0.206498 -0.414545 -0.024321
v 0.180686 -0.414545 -0.024321
v 0.206498 0.428655 0.319842
v 0.180686 -0.414545 0.319842
v 0.178965 -0.285053 -0.015717
v 0.178965 -0.048441 -0.015717
v 0.180686 -0.033814 -0.015717
v 0.180686 0.084492 -0.024321
v -0.180686 -0.414545 0.319842
v -0.180686 0.071586 -0.024321
v -0.180686 -0.033814 -0.015717
v -0.178965 -0.048441 -0.015717
v -0.206498 -0.414545 0.319842
v 0.206498 -0.414545 0.319842
v 0.180686 -0.388732 0.319842
v 0.178965 -0.387012 -0.024321
v -0.178965 -0.285053 -0.024321
v 0.178965 -0.150399 -0.024321
v 0.180686 -0.046720 -0.007113
v 0.180686 0.071586 -0.015717
v 0.180686 0.189892 -0.024321
v -0.180686 -0.388732 0.319842
v -0.180686 0.084492 -0.024321
v -0.180686 0.071586 -0.015717
v -0.180686 -0.033814 -0.007113
v -0.178965 -0.048441 -0.024321
v -0.206498 0.428655 0.319842
v 0.180686 0.402843 -0.024321
v -0.178965 -0.387012 -0.024321
v 0.178965 -0.285053 -0.024321
v -0.178965 -0.150399 -0.024321
v 0.178965 -0.048441 -0.024321
v 0.180686 -0.033814 -0.007113
v 0.178965 -0.032093 -0.015717
v 0.180686 0.084492 -0.015717
v 0.180686 0.202798 -0.024321
v -0.180686 0.189892 -0.024321
v -0.180686 0.084492 -0.015717
v -0.178965 -0.032093 -0.015717
v -0.180686 -0.046720 -0.007113
v -0.180686 0.402843 -0.024321
v 0.180686 0.321104 -0.024321
v 0.178965 0.069865 -0.015717
v 0.180686 0.071586 -0.007113
v 0.180686 0.189892 -0.015717
v 0.180686 0.308198 -0.024321
v -0.180686 0.202798 -0.024321
v -0.180686 0.189892 -0.015717
v -0.180686 0.084492 -0.007113
v -0.178965 0.069865 -0.015717
v -0.180686 0.402843 -0.015717
v -0.180686 0.321104 -0.024321
v 0.180686 0.321104 -0.015717
v 0.178965 -0.032093 -0.024321
v 0.180686 0.084492 -0.007113
v 0.178965 0.086213 -0.015717
v 0.180686 0.202798 -0.015717
v -0.180686 0.308198 -0.024321
v -0.180686 0.202798 -0.015717
v -0.178965 0.086213 -0.015717
v -0.180686 0.071586 -0.007113
v -0.178965 0.069865 -0.024321
v 0.180686 0.402843 -0.015717
v 0.180686 0.308198 -0.015717
v -0.178965 -0.032093 -0.024321
v 0.178965 0.069865 -0.024321
v 0.178965 0.188171 -0.015717
v 0.180686 0.189892 -0.007113
v -0.180686 0.308198 -0.015717
v -0.180686 0.202798 -0.007113
v -0.178965 0.188171 -0.015717
v 0.178965 0.401122 -0.015717
v -0.180686 0.321104 -0.015717
v 0.178965 0.322825 -0.015717
v 0.180686 0.308198 -0.007113
v 0.178965 0.086213 -0.024321
v 0.180686 0.202798 -0.007113
v 0.178965 0.204519 -0.015717
v -0.178965 0.204519 -0.015717
v -0.180686 0.189892 -0.007113
v -0.178965 0.188171 -0.024321
v -0.178965 0.401122 -0.015717
v -0.178965 0.322825 -0.015717
v 0.180686 0.321104 -0.007113
v -0.178965 0.086213 -0.024321
v 0.178965 0.188171 -0.024321
v 0.178965 0.306477 -0.015717
v -0.180686 0.321104 -0.007113
v -0.178965 0.306477 -0.015717
v 0.178965 0.322825 -0.024321
v -0.178965 0.401122 -0.024321
v -0.180686 0.308198 -0.007113
v 0.178965 0.204519 -0.024321
v -0.178965 0.306477 -0.024321
v 0.178965 0.401122 -0.024321
v -0.178965 0.322825 -0.024321
v -0.178965 0.204519 -0.024321
v 0.178965 0.306477 -0.024321

# 0 UV coordinates

# 6 vertex normals
vn 0 0 -0.0254
vn 0 0 0.0254
vn 0 -0.0254 0
vn 0 0.0254 0
vn -0.0254 0 0
vn 0.0254 -0 -0

# Mesh 'mesh1_mesh1-geometry' with 592 faces
g mesh1_mesh1-geometry
usemtl material_0_24
f  1//1 2//1 3//1
f  2//1 1//1 4//1
f  3//2 2//2 1//2
f  4//2 1//2 2//2
f  2//3 5//3 3//3
f  3//4 5//4 2//4
f  5//5 1//5 3//5
f  3//6 1//6 5//6
f  1//4 6//4 4//4
f  4//3 6//3 1//3
f  6//6 2//6 4//6
f  4//5 2//5 6//5
f  5//3 2//3 7//3
f  7//4 2//4 5//4
f  1//5 5//5 8//5
f  8//6 5//6 1//6
f  6//4 1//4 8//4
f  8//3 1//3 6//3
f  2//6 6//6 7//6
f  7//5 6//5 2//5
f  7//1 9//1 5//1
f  5//2 9//2 7//2
f  5//1 10//1 8//1
f  8//2 10//2 5//2
f  8//1 10//1 6//1
f  6//2 10//2 8//2
f  11//1 7//1 6//1
f  6//2 7//2 11//2
f  9//1 7//1 11//1
f  11//2 7//2 9//2
f  12//1 5//1 9//1
f  9//2 5//2 12//2
f  5//1 12//1 10//1
f  10//2 12//2 5//2
f  11//1 6//1 10//1
f  10//2 6//2 11//2
f  13//5 9//5 11//5
f  11//6 9//6 13//6
f  9//3 14//3 12//3
f  12//4 14//4 9//4
f  15//6 10//6 12//6
f  12//5 10//5 15//5
f  10//4 16//4 11//4
f  11//3 16//3 10//3
f  9//5 13//5 17//5
f  17//6 13//6 9//6
f  11//5 18//5 13//5
f  13//6 18//6 11//6
f  14//3 9//3 19//3
f  19//4 9//4 14//4
f  20//6 12//6 14//6
f  14//5 12//5 20//5
f  10//6 15//6 21//6
f  21//5 15//5 10//5
f  12//6 22//6 15//6
f  15//5 22//5 12//5
f  16//4 10//4 23//4
f  23//3 10//3 16//3
f  24//5 11//5 16//5
f  16//6 11//6 24//6
f  25//1 17//1 13//1
f  13//2 17//2 25//2
f  17//5 26//5 9//5
f  9//6 26//6 17//6
f  18//5 11//5 24//5
f  24//6 11//6 18//6
f  25//1 13//1 18//1
f  18//2 13//2 25//2
f  9//5 27//5 19//5
f  19//6 27//6 9//6
f  19//1 28//1 14//1
f  14//2 28//2 19//2
f  22//6 12//6 20//6
f  20//5 12//5 22//5
f  20//6 14//6 28//6
f  28//5 14//5 20//5
f  15//1 29//1 21//1
f  21//2 29//2 15//2
f  21//6 30//6 10//6
f  10//5 30//5 21//5
f  22//1 29//1 15//1
f  15//2 29//2 22//2
f  10//6 31//6 23//6
f  23//5 31//5 10//5
f  31//1 16//1 23//1
f  23//2 16//2 31//2
f  24//5 16//5 32//5
f  32//6 16//6 24//6
f  25//1 33//1 17//1
f  17//2 33//2 25//2
f  26//5 17//5 33//5
f  33//6 17//6 26//6
f  9//5 26//5 27//5
f  27//6 26//6 9//6
f  24//5 34//5 18//5
f  18//6 34//6 24//6
f  25//1 18//1 34//1
f  34//2 18//2 25//2
f  28//1 19//1 27//1
f  27//2 19//2 28//2
f  20//6 35//6 22//6
f  22//5 35//5 20//5
f  27//4 20//4 28//4
f  28//3 20//3 27//3
f  21//1 29//1 36//1
f  36//2 29//2 21//2
f  30//6 21//6 36//6
f  36//5 21//5 30//5
f  10//6 30//6 31//6
f  31//5 30//5 10//5
f  35//1 29//1 22//1
f  22//2 29//2 35//2
f  16//1 31//1 32//1
f  32//2 31//2 16//2
f  31//3 24//3 32//3
f  32//4 24//4 31//4
f  25//1 37//1 33//1
f  33//2 37//2 25//2
f  33//5 38//5 26//5
f  26//6 38//6 33//6
f  20//4 27//4 26//4
f  26//3 27//3 20//3
f  34//5 24//5 39//5
f  39//6 24//6 34//6
f  25//1 34//1 40//1
f  40//2 34//2 25//2
f  35//6 20//6 41//6
f  41//5 20//5 35//5
f  36//1 29//1 42//1
f  42//2 29//2 36//2
f  36//6 43//6 30//6
f  30//5 43//5 36//5
f  24//3 31//3 30//3
f  30//4 31//4 24//4
f  44//1 29//1 35//1
f  35//2 29//2 44//2
f  45//1 37//1 25//1
f  25//2 37//2 45//2
f  38//5 33//5 37//5
f  37//6 33//6 38//6
f  38//1 46//1 26//1
f  26//2 46//2 38//2
f  47//1 20//1 26//1
f  26//2 20//2 47//2
f  24//1 48//1 39//1
f  39//2 48//2 24//2
f  39//5 40//5 34//5
f  34//6 40//6 39//6
f  25//1 40//1 49//1
f  49//2 40//2 25//2
f  50//1 41//1 20//1
f  20//2 41//2 50//2
f  41//6 44//6 35//6
f  35//5 44//5 41//5
f  42//1 29//1 51//1
f  51//2 29//2 42//2
f  43//6 36//6 42//6
f  42//5 36//5 43//5
f  52//1 30//1 43//1
f  43//2 30//2 52//2
f  30//1 52//1 24//1
f  24//2 52//2 30//2
f  29//1 44//1 53//1
f  53//2 44//2 29//2
f  37//1 45//1 54//1
f  54//2 45//2 37//2
f  55//6 45//6 25//6
f  25//5 45//5 55//5
f  37//5 56//5 38//5
f  38//6 56//6 37//6
f  46//1 38//1 50//1
f  50//2 38//2 46//2
f  26//1 46//1 57//1
f  57//2 46//2 26//2
f  50//1 20//1 47//1
f  47//2 20//2 50//2
f  26//1 57//1 47//1
f  47//2 57//2 26//2
f  48//1 24//1 52//1
f  52//2 24//2 48//2
f  39//1 48//1 58//1
f  58//2 48//2 39//2
f  40//5 39//5 59//5
f  59//6 39//6 40//6
f  59//5 49//5 40//5
f  40//6 49//6 59//6
f  25//1 49//1 60//1
f  60//2 49//2 25//2
f  41//1 50//1 38//1
f  38//2 50//2 41//2
f  44//6 41//6 61//6
f  61//5 41//5 44//5
f  51//1 29//1 62//1
f  62//2 29//2 51//2
f  63//6 42//6 51//6
f  51//5 42//5 63//5
f  42//6 63//6 43//6
f  43//5 63//5 42//5
f  52//1 43//1 64//1
f  64//2 43//2 52//2
f  44//3 65//3 53//3
f  53//4 65//4 44//4
f  65//5 29//5 53//5
f  53//6 29//6 65//6
f  45//3 56//3 54//3
f  54//4 56//4 45//4
f  56//5 37//5 54//5
f  54//6 37//6 56//6
f  45//6 55//6 66//6
f  66//5 55//5 45//5
f  29//4 55//4 25//4
f  25//3 55//3 29//3
f  38//5 56//5 67//5
f  67//6 56//6 38//6
f  50//3 68//3 46//3
f  46//4 68//4 50//4
f  68//6 57//6 46//6
f  46//5 57//5 68//5
f  69//5 50//5 47//5
f  47//6 50//6 69//6
f  57//4 69//4 47//4
f  47//3 69//3 57//3
f  52//3 70//3 48//3
f  48//4 70//4 52//4
f  70//6 58//6 48//6
f  48//5 58//5 70//5
f  39//1 58//1 43//1
f  43//2 58//2 39//2
f  59//5 39//5 71//5
f  71//6 39//6 59//6
f  49//5 59//5 72//5
f  72//6 59//6 49//6
f  72//5 60//5 49//5
f  49//6 60//6 72//6
f  25//1 60//1 73//1
f  73//2 60//2 25//2
f  38//3 74//3 41//3
f  41//4 74//4 38//4
f  61//6 41//6 74//6
f  74//5 41//5 61//5
f  65//3 44//3 61//3
f  61//4 44//4 65//4
f  62//1 29//1 75//1
f  75//2 29//2 62//2
f  76//6 51//6 62//6
f  62//5 51//5 76//5
f  51//6 76//6 63//6
f  63//5 76//5 51//5
f  43//6 63//6 77//6
f  77//5 63//5 43//5
f  64//1 43//1 58//1
f  58//2 43//2 64//2
f  78//5 52//5 64//5
f  64//6 52//6 78//6
f  29//5 65//5 79//5
f  79//6 65//6 29//6
f  56//3 45//3 66//3
f  66//4 45//4 56//4
f  55//2 56//2 66//2
f  66//1 56//1 55//1
f  55//4 29//4 79//4
f  79//3 29//3 55//3
f  80//1 29//1 25//1
f  25//2 29//2 80//2
f  56//2 55//2 67//2
f  67//1 55//1 56//1
f  74//3 38//3 67//3
f  67//4 38//4 74//4
f  68//3 50//3 81//3
f  81//4 50//4 68//4
f  57//6 68//6 82//6
f  82//5 68//5 57//5
f  50//5 69//5 81//5
f  81//6 69//6 50//6
f  69//4 57//4 82//4
f  82//3 57//3 69//3
f  70//3 52//3 83//3
f  83//4 52//4 70//4
f  58//6 70//6 84//6
f  84//5 70//5 58//5
f  43//4 71//4 39//4
f  39//3 71//3 43//3
f  59//5 71//5 85//5
f  85//6 71//6 59//6
f  59//1 86//1 72//1
f  72//2 86//2 59//2
f  60//5 72//5 87//5
f  87//6 72//6 60//6
f  87//5 73//5 60//5
f  60//6 73//6 87//6
f  25//1 73//1 88//1
f  88//2 73//2 25//2
f  74//2 65//2 61//2
f  61//1 65//1 74//1
f  75//1 29//1 89//1
f  89//2 29//2 75//2
f  90//6 62//6 75//6
f  75//5 62//5 90//5
f  62//6 90//6 76//6
f  76//5 90//5 62//5
f  91//1 63//1 76//1
f  76//2 63//2 91//2
f  59//3 77//3 63//3
f  63//4 77//4 59//4
f  43//6 77//6 92//6
f  92//5 77//5 43//5
f  58//4 78//4 64//4
f  64//3 78//3 58//3
f  52//5 78//5 83//5
f  83//6 78//6 52//6
f  65//2 74//2 79//2
f  79//1 74//1 65//1
f  79//2 74//2 55//2
f  55//1 74//1 79//1
f  29//1 80//1 93//1
f  93//2 80//2 29//2
f  25//1 94//1 80//1
f  80//2 94//2 25//2
f  67//2 55//2 74//2
f  74//1 55//1 67//1
f  69//1 68//1 81//1
f  81//2 68//2 69//2
f  68//1 69//1 82//1
f  82//2 69//2 68//2
f  78//1 70//1 83//1
f  83//2 70//2 78//2
f  70//1 78//1 84//1
f  84//2 78//2 70//2
f  78//4 58//4 84//4
f  84//3 58//3 78//3
f  71//4 43//4 92//4
f  92//3 43//3 71//3
f  71//1 77//1 85//1
f  85//2 77//2 71//2
f  77//3 59//3 85//3
f  85//4 59//4 77//4
f  86//1 59//1 91//1
f  91//2 59//2 86//2
f  72//1 86//1 95//1
f  95//2 86//2 72//2
f  87//5 72//5 96//5
f  96//6 72//6 87//6
f  73//5 87//5 97//5
f  97//6 87//6 73//6
f  97//5 88//5 73//5
f  73//6 88//6 97//6
f  25//1 88//1 98//1
f  98//2 88//2 25//2
f  89//1 29//1 99//1
f  99//2 29//2 89//2
f  100//6 75//6 89//6
f  89//5 75//5 100//5
f  75//6 100//6 90//6
f  90//5 100//5 75//5
f  76//6 90//6 101//6
f  101//5 90//5 76//5
f  63//1 91//1 59//1
f  59//2 91//2 63//2
f  91//1 76//1 102//1
f  102//2 76//2 91//2
f  77//1 71//1 92//1
f  92//2 71//2 77//2
f  80//3 103//3 93//3
f  93//4 103//4 80//4
f  104//1 29//1 93//1
f  93//2 29//2 104//2
f  25//1 98//1 94//1
f  94//2 98//2 25//2
f  105//5 80//5 94//5
f  94//6 80//6 105//6
f  91//3 106//3 86//3
f  86//4 106//4 91//4
f  106//6 95//6 86//6
f  86//5 95//5 106//5
f  72//1 95//1 76//1
f  76//2 95//2 72//2
f  76//4 96//4 72//4
f  72//3 96//3 76//3
f  87//5 96//5 107//5
f  107//6 96//6 87//6
f  87//1 108//1 97//1
f  97//2 108//2 87//2
f  88//5 97//5 109//5
f  109//6 97//6 88//6
f  109//5 98//5 88//5
f  88//6 98//6 109//6
f  99//1 29//1 110//1
f  110//2 29//2 99//2
f  111//6 89//6 99//6
f  99//5 89//5 111//5
f  89//6 111//6 100//6
f  100//5 111//5 89//5
f  112//1 90//1 100//1
f  100//2 90//2 112//2
f  87//3 101//3 90//3
f  90//4 101//4 87//4
f  76//6 101//6 113//6
f  113//5 101//5 76//5
f  102//1 76//1 95//1
f  95//2 76//2 102//2
f  114//5 91//5 102//5
f  102//6 91//6 114//6
f  103//3 80//3 115//3
f  115//4 80//4 103//4
f  103//6 104//6 93//6
f  93//5 104//5 103//5
f  110//1 29//1 104//1
f  104//2 29//2 110//2
f  116//5 94//5 98//5
f  98//6 94//6 116//6
f  80//5 105//5 115//5
f  115//6 105//6 80//6
f  94//5 116//5 105//5
f  105//6 116//6 94//6
f  106//3 91//3 117//3
f  117//4 91//4 106//4
f  95//6 106//6 118//6
f  118//5 106//5 95//5
f  96//4 76//4 113//4
f  113//3 76//3 96//3
f  96//1 101//1 107//1
f  107//2 101//2 96//2
f  101//3 87//3 107//3
f  107//4 87//4 101//4
f  108//1 87//1 112//1
f  112//2 87//2 108//2
f  97//1 108//1 119//1
f  119//2 108//2 97//2
f  109//5 97//5 120//5
f  120//6 97//6 109//6
f  98//5 109//5 116//5
f  116//6 109//6 98//6
f  121//6 99//6 110//6
f  110//5 99//5 121//5
f  99//6 121//6 111//6
f  111//5 121//5 99//5
f  100//6 111//6 122//6
f  122//5 111//5 100//5
f  90//1 112//1 87//1
f  87//2 112//2 90//2
f  112//1 100//1 123//1
f  123//2 100//2 112//2
f  101//1 96//1 113//1
f  113//2 96//2 101//2
f  95//4 114//4 102//4
f  102//3 114//3 95//3
f  91//5 114//5 117//5
f  117//6 114//6 91//6
f  115//1 124//1 103//1
f  103//2 124//2 115//2
f  104//6 103//6 125//6
f  125//5 103//5 104//5
f  125//6 110//6 104//6
f  104//5 110//5 125//5
f  105//1 126//1 115//1
f  115//2 126//2 105//2
f  105//5 116//5 127//5
f  127//6 116//6 105//6
f  114//1 106//1 117//1
f  117//2 106//2 114//2
f  106//1 114//1 118//1
f  118//2 114//2 106//2
f  114//4 95//4 118//4
f  118//3 95//3 114//3
f  112//3 128//3 108//3
f  108//4 128//4 112//4
f  128//6 119//6 108//6
f  108//5 119//5 128//5
f  97//1 119//1 100//1
f  100//2 119//2 97//2
f  100//4 120//4 97//4
f  97//3 120//3 100//3
f  109//5 120//5 129//5
f  129//6 120//6 109//6
f  109//1 130//1 116//1
f  116//2 130//2 109//2
f  110//6 125//6 121//6
f  121//5 125//5 110//5
f  131//1 111//1 121//1
f  121//2 111//2 131//2
f  109//3 122//3 111//3
f  111//4 122//4 109//4
f  100//6 122//6 132//6
f  132//5 122//5 100//5
f  123//1 100//1 119//1
f  119//2 100//2 123//2
f  133//5 112//5 123//5
f  123//6 112//6 133//6
f  115//1 126//1 124//1
f  124//2 126//2 115//2
f  134//1 103//1 124//1
f  124//2 103//2 134//2
f  135//1 125//1 103//1
f  103//2 125//2 135//2
f  126//1 105//1 135//1
f  135//2 105//2 126//2
f  121//4 127//4 116//4
f  116//3 127//3 121//3
f  105//5 127//5 136//5
f  136//6 127//6 105//6
f  128//3 112//3 137//3
f  137//4 112//4 128//4
f  119//6 128//6 138//6
f  138//5 128//5 119//5
f  120//4 100//4 132//4
f  132//3 100//3 120//3
f  120//1 122//1 129//1
f  129//2 122//2 120//2
f  122//3 109//3 129//3
f  129//4 109//4 122//4
f  130//1 109//1 131//1
f  131//2 109//2 130//2
f  116//1 130//1 139//1
f  139//2 130//2 116//2
f  121//6 125//6 140//6
f  140//5 125//5 121//5
f  111//1 131//1 109//1
f  109//2 131//2 111//2
f  131//1 121//1 141//1
f  141//2 121//2 131//2
f  122//1 120//1 132//1
f  132//2 120//2 122//2
f  119//4 133//4 123//4
f  123//3 133//3 119//3
f  112//5 133//5 137//5
f  137//6 133//6 112//6
f  142//6 124//6 126//6
f  126//5 124//5 142//5
f  135//1 103//1 134//1
f  134//2 103//2 135//2
f  124//4 143//4 134//4
f  134//3 143//3 124//3
f  125//1 135//1 105//1
f  105//2 135//2 125//2
f  135//3 142//3 126//3
f  126//4 142//4 135//4
f  127//4 121//4 144//4
f  144//3 121//3 127//3
f  116//1 139//1 121//1
f  121//2 139//2 116//2
f  127//1 140//1 136//1
f  136//2 140//2 127//2
f  140//3 105//3 136//3
f  136//4 105//4 140//4
f  133//1 128//1 137//1
f  137//2 128//2 133//2
f  128//1 133//1 138//1
f  138//2 133//2 128//2
f  133//4 119//4 138//4
f  138//3 119//3 133//3
f  131//3 145//3 130//3
f  130//4 145//4 131//4
f  145//6 139//6 130//6
f  130//5 139//5 145//5
f  105//3 140//3 125//3
f  125//4 140//4 105//4
f  121//6 140//6 144//6
f  144//5 140//5 121//5
f  141//1 121//1 139//1
f  139//2 121//2 141//2
f  146//5 131//5 141//5
f  141//6 131//6 146//6
f  124//6 142//6 147//6
f  147//5 142//5 124//5
f  143//5 135//5 134//5
f  134//6 135//6 143//6
f  143//4 124//4 147//4
f  147//3 124//3 143//3
f  142//3 135//3 148//3
f  148//4 135//4 142//4
f  140//1 127//1 144//1
f  144//2 127//2 140//2
f  145//3 131//3 149//3
f  149//4 131//4 145//4
f  139//6 145//6 150//6
f  150//5 145//5 139//5
f  139//4 146//4 141//4
f  141//3 146//3 139//3
f  131//5 146//5 149//5
f  149//6 146//6 131//6
f  142//1 143//1 147//1
f  147//2 143//2 142//2
f  135//5 143//5 148//5
f  148//6 143//6 135//6
f  143//1 142//1 148//1
f  148//2 142//2 143//2
f  146//1 145//1 149//1
f  149//2 145//2 146//2
f  145//1 146//1 150//1
f  150//2 146//2 145//2
f  146//4 139//4 150//4
f  150//3 139//3 146//3

# Mesh 'mesh2_mesh2-geometry' with 156 faces
g mesh2_mesh2-geometry
usemtl material_0_0
l  93 29
l  93 80
l  104 93
l  93 103
l  25 29
l  53 29
l  29 79
l  94 80
l  80 115
l  80 25
l  110 104
l  104 125
l  103 115
l  125 103
l  55 25
l  45 25
l  44 53
l  53 65
l  79 55
l  65 79
l  98 94
l  94 105
l  105 115
l  110 121
l  99 110
l  125 140
l  105 125
l  66 55
l  66 45
l  45 54
l  44 35
l  44 61
l  65 61
l  98 116
l  88 98
l  105 136
l  116 121
l  111 121
l  121 144
l  99 111
l  89 99
l  144 140
l  136 140
l  56 66
l  54 37
l  54 56
l  35 41
l  35 22
l  61 74
l  116 127
l  109 116
l  88 109
l  73 88
l  127 136
l  111 109
l  111 122
l  127 144
l  75 89
l  89 100
l  56 67
l  37 33
l  37 38
l  41 74
l  41 38
l  41 20
l  22 15
l  22 20
l  74 67
l  109 129
l  60 73
l  73 97
l  122 129
l  132 122
l  75 90
l  62 75
l  90 100
l  97 100
l  100 132
l  38 67
l  33 17
l  33 26
l  38 26
l  20 26
l  20 28
l  15 21
l  15 12
l  120 129
l  60 87
l  49 60
l  87 97
l  97 120
l  120 132
l  90 87
l  90 101
l  51 62
l  62 76
l  17 13
l  17 9
l  26 27
l  28 27
l  28 14
l  21 36
l  21 10
l  12 9
l  12 10
l  12 14
l  87 107
l  40 49
l  49 72
l  101 107
l  113 101
l  42 51
l  51 63
l  63 76
l  72 76
l  76 113
l  13 18
l  13 11
l  9 11
l  9 19
l  27 19
l  14 19
l  36 42
l  36 30
l  10 11
l  10 23
l  96 107
l  34 40
l  40 59
l  59 72
l  72 96
l  96 113
l  42 43
l  63 59
l  63 77
l  18 34
l  18 24
l  11 16
l  30 24
l  30 43
l  30 31
l  23 16
l  23 31
l  34 39
l  59 85
l  43 39
l  43 92
l  77 85
l  92 77
l  24 39
l  24 32
l  16 32
l  31 32
l  39 71
l  71 85
l  92 71

# Mesh 'mesh3_mesh3-geometry' with 12 faces
g mesh3_mesh3-geometry
usemtl material_0_0
l  1 4
l  3 1
l  1 8
l  4 2
l  4 6
l  2 3
l  3 5
l  5 8
l  8 6
l  2 7
l  6 7
l  7 5

# Mesh 'mesh4_mesh4-geometry' with 12 faces
g mesh4_mesh4-geometry
usemtl material_0_0
l  146 150
l  146 141
l  149 146
l  150 139
l  150 145
l  141 139
l  131 141
l  145 149
l  149 131
l  139 130
l  145 130
l  130 131

# Mesh 'mesh5_mesh5-geometry' with 12 faces
g mesh5_mesh5-geometry
usemtl material_0_0
l  69 82
l  81 69
l  69 47
l  82 68
l  82 57
l  68 81
l  81 50
l  50 47
l  47 57
l  68 46
l  57 46
l  46 50

# Mesh 'mesh6_mesh6-geometry' with 12 faces
g mesh6_mesh6-geometry
usemtl material_0_0
l  138 128
l  138 119
l  133 138
l  128 108
l  128 137
l  119 108
l  123 119
l  133 123
l  137 133
l  108 112
l  137 112
l  112 123

# Mesh 'mesh7_mesh7-geometry' with 12 faces
g mesh7_mesh7-geometry
usemtl material_0_0
l  143 147
l  148 143
l  143 134
l  147 142
l  147 124
l  142 148
l  148 135
l  135 134
l  134 124
l  142 126
l  124 126
l  126 135

# Mesh 'mesh8_mesh8-geometry' with 12 faces
g mesh8_mesh8-geometry
usemtl material_0_0
l  78 84
l  83 78
l  78 64
l  84 70
l  84 58
l  70 83
l  83 52
l  52 64
l  64 58
l  70 48
l  58 48
l  48 52

# Mesh 'mesh9_mesh9-geometry' with 12 faces
g mesh9_mesh9-geometry
usemtl material_0_0
l  118 106
l  114 118
l  118 95
l  106 117
l  106 86
l  117 114
l  114 102
l  95 86
l  102 95
l  117 91
l  86 91
l  91 102

