# File produced by Open Asset Import Library (http://www.assimp.sf.net)
# (assimp v3.2.202087883)

mtllib model_normalized.mtl

# 72 vertex positions
v -0.470391 -0.164815 -0.123716
v -0.470391 -0.149587 -0.109202
v -0.470391 0.078939 -0.123716
v -0.470391 -0.164815 0.114797
v -0.470391 0.078939 -0.109202
v -0.470391 -0.149587 0.100479
v -0.452420 0.029140 -0.109202
v -0.470391 0.078939 0.100479
v -0.452420 0.065834 -0.109202
v -0.397737 0.078939 -0.109202
v -0.452420 -0.149587 -0.109202
v -0.470391 0.078939 0.114797
v -0.452420 0.029140 0.100479
v -0.452420 -0.149587 0.100479
v -0.415726 0.065834 -0.109202
v -0.452420 0.029140 0.114797
v -0.452420 -0.164815 0.114797
v -0.452420 0.065834 0.100479
v -0.397737 0.065834 -0.109202
v -0.452420 0.065834 0.114797
v -0.397737 0.078939 0.100479
v -0.415726 0.065834 0.100479
v 0.401672 0.078939 -0.109202
v 0.419343 0.065834 -0.109202
v 0.466938 0.078939 -0.109202
v 0.466938 -0.164815 -0.109202
v 0.466938 0.078939 -0.123716
v 0.401672 0.044004 -0.109202
v 0.419343 0.064070 -0.109202
v -0.389139 0.078939 0.114797
v -0.397737 0.044004 0.100479
v 0.449982 0.065834 -0.109202
v 0.466938 -0.164815 -0.123716
v 0.449982 0.064070 -0.109202
v 0.401672 0.078939 0.114797
v 0.449982 0.064070 0.114797
v 0.466938 0.078939 0.114797
v 0.419343 0.064048 0.100479
v 0.401672 0.044004 0.100479
v 0.401672 0.078939 0.100479
v 0.419343 0.044004 -0.109202
v -0.415726 0.065834 0.114797
v -0.415726 0.029140 0.100479
v 0.449982 -0.164815 -0.109202
v -0.389139 0.047487 0.114797
v 0.466938 -0.164815 0.100479
v 0.466938 0.078939 0.100479
v 0.449982 0.064048 0.100479
v 0.419343 0.064048 0.114797
v 0.449982 -0.164815 0.114797
v 0.419343 0.029140 0.100479
v -0.415726 0.029140 -0.109202
v 0.449982 0.064070 -0.123716
v 0.449982 -0.164815 -0.123716
v -0.415726 0.029140 0.114797
v 0.401672 0.047487 0.114797
v 0.466938 -0.164815 0.114797
v 0.449982 -0.164815 0.100479
v 0.419343 0.029140 -0.109202
v 0.419343 0.029140 0.114797
v 0.449982 0.064070 0.100479
v -0.452420 -0.164815 -0.123716
v -0.452420 0.029140 -0.123716
v -0.452420 -0.164815 -0.109202
v -0.452420 0.065834 -0.123716
v -0.415726 0.065834 -0.123716
v -0.415726 0.029140 -0.123716
v 0.419343 0.064070 -0.123716
v -0.397737 0.044004 -0.109202
v 0.419343 0.029140 -0.123716
v 0.449982 -0.164815 0.125281
v 0.448591 -0.164815 0.125281

# 96 UV coordinates
vt 0 -0 0
vt 0.060852 0.062473 0
vt 0 1 0
vt 1 0 0
vt 0.060852 1 0
vt 0.939973 0.062473 0
vt 0.060852 0.795699 0
vt 0.939973 1 0
vt 0.060852 0.946237 0
vt 1 1 0
vt 0.939973 0.795699 0
vt 1 0.795699 0
vt 0.939973 0.946237 0
vt 1 0.946237 0
vt 0.060852 0 0
vt 0.060852 0.856679 0
vt 0.060852 0.938999 0
vt 0.939973 0.856679 0
vt 1 0.938999 0
vt 0.939973 0.938907 0
vt 1 0.870968 0
vt 0.939973 0 0
vt 1 0.938907 0
vt 0 0.938999 0
vt 0.939973 0.938999 0
vt 0.980828 0 0
vt 0.980828 0.795699 0
vt 0.980828 0.946237 0
vt 0.94168 0.946237 0
vt 0.018091 0.938999 0
vt 0.050779 0.938999 0
vt 0.050779 0.795699 0
vt 0.94168 0.795699 0
vt 0.018091 0 0
vt 1 0.060852 0
vt 0.922488 0.060852 0
vt 0.069628 0.060852 0
vt 0.069628 0.939973 0
vt 0.922488 0.939973 0
vt 1 0.939973 0
vt 0 0.060852 0
vt 0.069628 1 0
vt 0.913316 1 0
vt 0 0.939973 0
vt 0.020198 0.782085 0
vt 0.081659 1 0
vt 0.020198 0.942654 0
vt 0.020198 0 0
vt 0.06144 0.942654 0
vt 0.081659 0.942654 0
vt 1 0.942654 0
vt 1 0.934934 0
vt 1 0.847129 0
vt 0.06144 0.782085 0
vt 1 0.782085 0
vt 0.939148 1 0
vt 0.939148 0 0
vt 0.939148 0.078514 0
vt 0.060027 0.078514 0
vt 0.060027 1 0
vt 0 0.078514 0
vt 1 0.078514 0
vt 0.063916 0.078514 0
vt 0.063916 1 0
vt 0.019172 0 0
vt 0.019172 0.795699 0
vt 0.019172 0.946237 0
vt 0.086684 1 0
vt 0.981909 0.938999 0
vt 0.930372 1 0
vt 0.05832 0.946237 0
vt 0.086684 0.870968 0
vt 0.949221 0.938907 0
vt 0.981909 0 0
vt 0.930372 0.870968 0
vt 0.05832 0.795699 0
vt 0.949221 0.795699 0
vt 0.441631 0.826416 0
vt 0.031853 0.776728 0
vt 0.146027 0.814273 0
vt 0.327457 0.788871 0
vt 0.960087 0.060852 0
vt 0.960087 0 0
vt 0.960087 0.939973 0
vt 0.960087 1 0
vt 0.018444 0 0
vt 0.018444 0.060852 0
vt 0.270711 0.946237 0
vt 0.270711 0.938999 0
vt 0 0.856679 0
vt 0.74018 0.946237 0
vt 0.74018 0.938999 0
vt 0.270711 0.856679 0
vt 0.74018 0 0
vt 0 0.624873 0
vt 1 0.425543 0

# 6 vertex normals
vn -0.0254 0 0
vn 0 0 0.0254
vn 0 -0 -0.0254
vn 0.0254 -0 -0
vn 0 -0.0254 0
vn 0 0.0254 0

# Mesh 'mesh1_mesh1-geometry' with 64 faces
g mesh1_mesh1-geometry
usemtl material_0_1_8
f  1/1/1 2/2/1 3/3/1
f  2/2/1 1/1/1 4/4/1
f  5/5/1 3/3/1 2/2/1
f  2/2/1 4/4/1 6/6/1
f  2/2/2 7/7/2 5/5/2
f  6/6/1 4/4/1 8/8/1
f  5/5/2 9/9/2 10/5/2
f  7/7/2 2/2/2 11/2/2
f  5/5/2 7/7/2 9/9/2
f  8/8/1 4/4/1 12/10/1
f  13/11/3 6/6/3 8/8/3
f  6/6/3 13/11/3 14/6/3
f  15/9/2 10/5/2 9/9/2
f  16/12/2 4/4/2 17/4/2
f  4/4/2 16/12/2 12/10/2
f  13/11/3 8/8/3 18/13/3
f  15/9/2 19/9/2 10/5/2
f  12/10/2 16/12/2 20/14/2
f  21/8/3 22/13/3 8/8/3
f  18/13/3 8/8/3 22/13/3
f  23/5/2 24/9/2 25/5/2
f  26/15/4 27/3/4 25/5/4
f  28/16/2 29/17/2 23/5/2
f  15/9/2 24/9/2 19/9/2
f  12/10/2 20/14/2 30/10/2
f  31/18/3 22/13/3 21/8/3
f  23/5/2 29/17/2 24/9/2
f  32/9/2 25/5/2 24/9/2
f  27/3/4 26/15/4 33/1/4
f  34/17/2 26/15/2 25/5/2
f  35/10/2 36/19/2 37/10/2
f  38/20/3 39/18/3 40/8/3
f  29/17/2 28/16/2 41/16/2
f  15/9/2 29/17/2 24/9/2
f  42/14/2 30/10/2 20/14/2
f  31/18/3 43/11/3 22/13/3
f  34/17/2 25/5/2 32/9/2
f  26/15/2 34/17/2 44/15/2
f  42/14/2 45/21/2 30/10/2
f  37/10/4 46/22/4 47/8/4
f  47/8/3 48/20/3 40/8/3
f  35/10/2 49/23/2 36/19/2
f  50/4/2 37/10/2 36/19/2
f  51/11/3 39/18/3 38/20/3
f  38/20/3 40/8/3 48/20/3
f  39/18/3 51/11/3 31/18/3
f  15/9/2 41/16/2 29/17/2
f  52/7/2 41/16/2 15/9/2
f  43/11/3 31/18/3 51/11/3
f  53/24/1 44/15/1 34/17/1
f  44/15/1 53/24/1 54/1/1
f  45/21/2 55/12/2 56/21/2
f  56/21/2 49/23/2 35/10/2
f  55/12/2 45/21/2 42/14/2
f  46/22/4 37/10/4 57/4/4
f  46/22/3 48/20/3 47/8/3
f  37/10/2 50/4/2 57/4/2
f  50/4/1 36/19/1 58/22/1
f  41/16/2 52/7/2 59/7/2
f  60/12/2 56/21/2 55/12/2
f  56/21/2 60/12/2 49/23/2
f  48/20/3 46/22/3 58/22/3
f  58/22/1 36/19/1 48/20/1
f  61/25/1 48/20/1 36/19/1

# Mesh 'mesh1_mesh1-geometry' with 80 faces
g mesh1_mesh1-geometry
usemtl material_1_24
f  3/1/4 2/1/4 1/1/4
f  4/1/4 1/1/4 2/1/4
f  2/1/4 3/1/4 5/1/4
f  1/1/2 62/1/2 3/1/2
f  62/1/5 4/1/5 1/1/5
f  6/1/4 4/1/4 2/1/4
f  5/1/5 3/1/5 10/1/5
f  63/1/2 3/1/2 62/1/2
f  64/1/5 4/1/5 62/1/5
f  8/1/4 4/1/4 6/1/4
f  6/1/5 2/1/5 14/1/5
f  10/1/5 3/1/5 23/1/5
f  65/1/2 3/1/2 63/1/2
f  4/1/5 64/1/5 17/1/5
f  12/1/4 4/1/4 8/1/4
f  8/1/2 6/1/2 13/1/2
f  11/1/5 14/1/5 2/1/5
f  14/1/2 13/1/2 6/1/2
f  3/1/5 27/1/5 23/1/5
f  40/1/5 10/1/5 23/1/5
f  66/1/2 3/1/2 65/1/2
f  8/1/5 21/1/5 12/1/5
f  18/1/2 8/1/2 13/1/2
f  25/1/5 23/1/5 27/1/5
f  3/1/2 66/1/2 27/1/2
f  35/1/5 10/1/5 40/1/5
f  12/1/5 21/1/5 30/1/5
f  8/1/2 22/1/2 21/1/2
f  22/1/2 8/1/2 18/1/2
f  66/1/2 53/1/2 27/1/2
f  30/1/5 10/1/5 35/1/5
f  35/1/5 40/1/5 37/1/5
f  10/1/4 31/1/4 19/1/4
f  15/1/4 67/1/4 66/1/4
f  10/1/5 30/1/5 21/1/5
f  21/1/2 22/1/2 31/1/2
f  27/1/2 53/1/2 33/1/2
f  53/1/2 66/1/2 68/1/2
f  47/1/5 37/1/5 40/1/5
f  40/1/2 39/1/2 38/1/2
f  39/1/6 28/1/6 31/1/6
f  69/1/4 19/1/4 31/1/4
f  21/1/4 31/1/4 10/1/4
f  67/1/4 15/1/4 52/1/4
f  67/1/2 70/1/2 66/1/2
f  22/1/2 43/1/2 31/1/2
f  42/1/4 43/1/4 22/1/4
f  29/1/2 32/1/2 24/1/2
f  54/1/2 33/1/2 53/1/2
f  68/1/2 66/1/2 70/1/2
f  68/1/6 34/1/6 53/1/6
f  53/1/5 34/1/5 68/1/5
f  40/1/2 48/1/2 47/1/2
f  38/1/2 39/1/2 51/1/2
f  48/1/2 40/1/2 38/1/2
f  69/1/6 31/1/6 28/1/6
f  31/1/2 51/1/2 39/1/2
f  41/1/4 59/1/4 29/1/4
f  70/1/5 52/1/5 67/1/5
f  51/1/2 31/1/2 43/1/2
f  43/1/4 42/1/4 55/1/4
f  32/1/2 29/1/2 34/1/2
f  34/1/4 44/1/4 53/1/4
f  54/1/4 53/1/4 44/1/4
f  68/1/4 29/1/4 70/1/4
f  34/1/6 68/1/6 29/1/6
f  29/1/5 68/1/5 34/1/5
f  47/1/2 48/1/2 46/1/2
f  58/1/4 36/1/4 50/1/4
f  51/1/4 38/1/4 60/1/4
f  59/1/4 70/1/4 29/1/4
f  52/1/5 70/1/5 59/1/5
f  51/1/5 60/1/5 43/1/5
f  55/1/5 43/1/5 60/1/5
f  50/1/5 46/1/5 57/1/5
f  58/1/2 46/1/2 48/1/2
f  48/1/4 36/1/4 58/1/4
f  46/1/5 50/1/5 58/1/5
f  49/1/4 60/1/4 38/1/4
f  36/1/4 48/1/4 61/1/4

# Mesh 'mesh1_mesh1-geometry' with 11 faces
g mesh1_mesh1-geometry
usemtl material_0_31_8
f  3/10/3 62/26/3 1/4/3
f  62/26/3 3/10/3 63/27/3
f  63/27/3 3/10/3 65/28/3
f  65/28/3 3/10/3 66/29/3
f  27/3/3 66/29/3 3/10/3
f  27/3/3 53/30/3 66/29/3
f  33/1/3 53/30/3 27/3/3
f  68/31/3 66/29/3 53/30/3
f  66/29/3 70/32/3 67/33/3
f  53/30/3 33/1/3 54/34/3
f  70/32/3 66/29/3 68/31/3

# Mesh 'mesh1_mesh1-geometry' with 3 faces
g mesh1_mesh1-geometry
usemtl material_0_5_8
f  1/1/6 4/3/6 62/4/6
f  62/4/6 4/3/6 64/35/6
f  17/10/6 64/35/6 4/3/6

# Mesh 'mesh1_mesh1-geometry' with 12 faces
g mesh1_mesh1-geometry
usemtl material_0_33_8
f  10/36/6 3/4/6 5/35/6
f  23/37/6 3/4/6 10/36/6
f  23/37/6 27/1/6 3/4/6
f  23/37/6 10/36/6 40/38/6
f  12/10/6 21/39/6 8/40/6
f  27/1/6 23/37/6 25/41/6
f  40/38/6 10/36/6 35/42/6
f  30/43/6 21/39/6 12/10/6
f  35/42/6 10/36/6 30/43/6
f  37/3/6 40/38/6 35/42/6
f  21/39/6 30/43/6 10/36/6
f  40/38/6 37/3/6 47/44/6

# Mesh 'mesh1_mesh1-geometry' with 11 faces
g mesh1_mesh1-geometry
usemtl material_0_19_8
f  5/3/3 7/45/3 2/1/3
f  10/46/3 9/47/3 5/3/3
f  11/48/3 2/1/3 7/45/3
f  9/47/3 7/45/3 5/3/3
f  9/47/3 10/46/3 15/49/3
f  10/46/3 19/50/3 15/49/3
f  19/50/3 24/51/3 15/49/3
f  24/51/3 29/52/3 15/49/3
f  29/52/3 41/53/3 15/49/3
f  15/49/3 41/53/3 52/54/3
f  59/55/3 52/54/3 41/53/3

# Mesh 'mesh1_mesh1-geometry' with 2 faces
g mesh1_mesh1-geometry
usemtl material_0_3_8
f  14/3/6 2/4/6 6/10/6
f  2/4/6 14/3/6 11/1/6

# Mesh 'mesh1_mesh1-geometry' with 7 faces
g mesh1_mesh1-geometry
usemtl material_0_7_8
f  7/56/4 62/4/4 63/10/4
f  62/4/4 7/56/4 64/57/4
f  64/57/4 7/56/4 11/58/4
f  11/58/4 17/1/4 64/57/4
f  17/1/4 11/58/4 14/59/4
f  16/3/4 14/59/4 13/60/4
f  17/1/4 14/59/4 16/3/4

# Mesh 'mesh1_mesh1-geometry' with 3 faces
g mesh1_mesh1-geometry
usemtl material_0_21_8
f  63/10/1 62/4/1 7/3/1
f  64/1/1 7/3/1 62/4/1
f  11/61/1 7/3/1 64/1/1

# Mesh 'mesh1_mesh1-geometry' with 2 faces
g mesh1_mesh1-geometry
usemtl material_0_12_8
f  65/3/1 7/4/1 9/10/1
f  7/4/1 65/3/1 63/1/1

# Mesh 'mesh1_mesh1-geometry' with 4 faces
g mesh1_mesh1-geometry
usemtl material_0_11_8
f  9/5/4 7/15/4 65/3/4
f  63/1/4 65/3/4 7/15/4
f  13/22/4 18/8/4 16/4/4
f  20/10/4 16/4/4 18/8/4

# Mesh 'mesh1_mesh1-geometry' with 4 faces
g mesh1_mesh1-geometry
usemtl material_0_8_8
f  64/4/1 17/1/1 11/62/1
f  14/63/1 11/62/1 17/1/1
f  13/64/1 14/63/1 16/3/1
f  16/3/1 14/63/1 17/1/1

# Mesh 'mesh1_mesh1-geometry' with 15 faces
g mesh1_mesh1-geometry
usemtl material_0_27_8
f  17/65/3 4/1/3 16/66/3
f  12/3/3 16/66/3 4/1/3
f  20/67/3 16/66/3 12/3/3
f  30/68/3 20/67/3 12/3/3
f  37/10/3 36/69/3 35/70/3
f  20/67/3 30/68/3 42/71/3
f  30/68/3 45/72/3 42/71/3
f  36/69/3 49/73/3 35/70/3
f  36/69/3 37/10/3 50/74/3
f  56/75/3 55/76/3 45/72/3
f  35/70/3 49/73/3 56/75/3
f  42/71/3 45/72/3 55/76/3
f  57/4/3 50/74/3 37/10/3
f  55/76/3 56/75/3 60/77/3
f  49/73/3 60/77/3 56/75/3

# Mesh 'mesh1_mesh1-geometry' with 2 faces
g mesh1_mesh1-geometry
usemtl material_0_13_8
f  40/78/4 28/79/4 23/80/4
f  28/79/4 40/78/4 39/81/4

# Mesh 'mesh1_mesh1-geometry' with 2 faces
g mesh1_mesh1-geometry
usemtl material_0_14_8
f  23/10/1 28/4/1 40/3/1
f  39/1/1 40/3/1 28/4/1

# Mesh 'mesh1_mesh1-geometry' with 2 faces
g mesh1_mesh1-geometry
usemtl material_0_17_8
f  15/3/6 65/4/6 9/10/6
f  65/4/6 15/3/6 66/1/6

# Mesh 'mesh1_mesh1-geometry' with 6 faces
g mesh1_mesh1-geometry
usemtl material_0_16_8
f  9/35/5 65/4/5 15/82/5
f  66/83/5 15/82/5 65/4/5
f  22/84/5 42/85/5 18/40/5
f  20/10/5 18/40/5 42/85/5
f  33/1/5 26/41/5 54/86/5
f  44/87/5 54/86/5 26/41/5

# Mesh 'mesh1_mesh1-geometry' with 2 faces
g mesh1_mesh1-geometry
usemtl material_0_10_8
f  16/4/1 18/3/1 13/1/1
f  18/3/1 16/4/1 20/10/1

# Mesh 'mesh1_mesh1-geometry' with 8 faces
g mesh1_mesh1-geometry
usemtl material_0_22_8
f  25/10/3 24/88/3 23/3/3
f  23/3/3 29/89/3 28/90/3
f  24/88/3 29/89/3 23/3/3
f  24/88/3 25/10/3 32/91/3
f  25/10/3 26/4/3 34/92/3
f  41/93/3 28/90/3 29/89/3
f  32/91/3 25/10/3 34/92/3
f  44/94/3 34/92/3 26/4/3

# Mesh 'mesh1_mesh1-geometry' with 2 faces
g mesh1_mesh1-geometry
usemtl material_0_32_8
f  25/3/1 27/10/1 26/1/1
f  33/4/1 26/1/1 27/10/1

# Mesh 'mesh1_mesh1-geometry' with 3 faces
g mesh1_mesh1-geometry
usemtl material_0_20_8
f  19/95/1 31/4/1 10/3/1
f  31/4/1 19/95/1 69/1/1
f  10/3/1 31/4/1 21/10/1

# Mesh 'mesh1_mesh1-geometry' with 2 faces
g mesh1_mesh1-geometry
usemtl material_0_9_8
f  66/10/1 67/4/1 15/3/1
f  52/1/1 15/3/1 67/4/1

# Mesh 'mesh1_mesh1-geometry' with 2 faces
g mesh1_mesh1-geometry
usemtl material_0_15_8
f  18/4/6 42/3/6 22/1/6
f  42/3/6 18/4/6 20/10/6

# Mesh 'mesh1_mesh1-geometry' with 2 faces
g mesh1_mesh1-geometry
usemtl material_0_25_8
f  45/1/2 35/10/2 30/3/2
f  35/10/2 45/1/2 56/4/2

# Mesh 'mesh1_mesh1-geometry' with 2 faces
g mesh1_mesh1-geometry
usemtl material_0_26_8
f  30/3/3 35/10/3 45/1/3
f  56/4/3 45/1/3 35/10/3

# Mesh 'mesh1_mesh1-geometry' with 2 faces
g mesh1_mesh1-geometry
usemtl material_0_28_8
f  31/3/5 28/4/5 39/10/5
f  28/4/5 31/3/5 69/1/5

# Mesh 'mesh1_mesh1-geometry' with 2 faces
g mesh1_mesh1-geometry
usemtl material_0_18_8
f  22/10/1 43/4/1 42/3/1
f  55/1/1 42/3/1 43/4/1

# Mesh 'mesh1_mesh1-geometry' with 2 faces
g mesh1_mesh1-geometry
usemtl material_0_6_8
f  24/3/3 32/10/3 29/1/3
f  34/4/3 29/1/3 32/10/3

# Mesh 'mesh1_mesh1-geometry' with 2 faces
g mesh1_mesh1-geometry
usemtl material_0_34_8
f  54/4/6 26/3/6 33/1/6
f  26/3/6 54/4/6 44/10/6

# Mesh 'mesh1_mesh1-geometry' with 2 faces
g mesh1_mesh1-geometry
usemtl material_0_29_8
f  47/10/1 46/4/1 37/3/1
f  57/1/1 37/3/1 46/4/1

# Mesh 'mesh1_mesh1-geometry' with 3 faces
g mesh1_mesh1-geometry
usemtl material_0_24_8
f  29/10/1 59/4/1 41/96/1
f  70/1/1 29/10/1 68/3/1
f  29/10/1 70/1/1 59/4/1

# Mesh 'mesh1_mesh1-geometry' with 2 faces
g mesh1_mesh1-geometry
usemtl material_0_30_8
f  67/1/6 52/3/6 70/4/6
f  59/10/6 70/4/6 52/3/6

# Mesh 'mesh1_mesh1-geometry' with 2 faces
g mesh1_mesh1-geometry
usemtl material_0_2_8
f  60/4/1 38/3/1 51/1/1
f  38/3/1 60/4/1 49/10/1

# Mesh 'mesh1_mesh1-geometry' with 2 faces
g mesh1_mesh1-geometry
usemtl material_0_4_8
f  43/4/6 60/3/6 51/1/6
f  60/3/6 43/4/6 55/10/6

# Mesh 'mesh1_mesh1-geometry' with 2 faces
g mesh1_mesh1-geometry
usemtl material_0_23_8
f  57/10/6 46/4/6 50/3/6
f  58/1/6 50/3/6 46/4/6

# Mesh 'mesh2_mesh2-geometry' with 3 faces
g mesh2_mesh2-geometry
usemtl material_1_0
l  68 53
l  29 68
l  53 34

# Mesh 'mesh3_mesh3-geometry' with 1 faces
g mesh3_mesh3-geometry
usemtl material_1_0
l  71 72

