# File produced by Open Asset Import Library (http://www.assimp.sf.net)
# (assimp v3.2.202087883)

mtllib model_normalized.mtl

# 154 vertex positions
v 0.300699 -0.415498 0.397145
v -0.104120 -0.431068 0.397145
v 0.300699 -0.431068 0.397145
v -0.104120 -0.415498 0.397145
v 0.300699 -0.431068 -0.095904
v -0.104120 -0.415498 -0.095904
v -0.104120 -0.431068 -0.095904
v 0.300699 -0.415498 -0.095904
v -0.119690 0.202110 -0.095904
v -0.119690 -0.431068 0.397145
v -0.119690 0.202110 0.397145
v -0.119690 -0.431068 -0.095904
v -0.104120 0.202110 0.397145
v -0.104120 0.202110 -0.095904
v 0.316269 -0.431068 -0.095904
v 0.316269 0.202110 0.397145
v 0.316269 -0.431068 0.397145
v 0.316269 0.202110 -0.095904
v 0.300699 0.202110 -0.095904
v 0.300699 -0.431068 -0.095904
v 0.300699 -0.431068 0.397145
v 0.300699 0.202110 0.397145
v 0.300699 0.186540 0.386765
v -0.104120 -0.415498 0.386765
v 0.300699 -0.415498 0.386765
v -0.104120 0.186540 0.386765
v 0.300699 -0.415498 0.384170
v -0.104120 0.186540 0.384170
v -0.104120 -0.415498 0.384170
v 0.300699 0.186540 0.384170
v -0.104120 0.103501 0.397145
v -0.104120 0.186540 0.397145
v -0.104120 0.103501 0.386765
v 0.300699 0.186540 0.397145
v 0.300699 0.103501 0.386765
v 0.300699 0.103501 0.397145
v 0.300699 0.186540 0.386765
v -0.104120 0.067171 -0.080334
v -0.104120 0.202110 -0.080334
v -0.104120 0.067171 -0.095904
v 0.300699 0.202110 -0.080334
v 0.300699 0.067171 -0.095904
v 0.300699 0.067171 -0.080334
v 0.300699 0.202110 -0.095904
v 0.300699 0.186540 0.314105
v 0.300699 0.202110 0.397145
v 0.300699 0.186540 0.397145
v 0.300699 0.202110 0.314105
v -0.104120 0.202110 0.314105
v -0.104120 0.186540 0.314105
v -0.119690 -0.431068 -0.033624
v -0.119690 -0.514108 0.397145
v -0.119690 -0.514108 -0.033624
v 0.316269 -0.431068 0.397145
v 0.316269 -0.514108 -0.033624
v 0.316269 -0.514108 0.397145
v 0.316269 -0.431068 -0.033624
v 0.314971 -0.431068 -0.114069
v 0.314971 0.196920 -0.095904
v 0.314971 -0.431068 -0.095904
v 0.314971 0.196920 -0.114069
v -0.118392 -0.431068 -0.095904
v -0.118392 0.196920 -0.114069
v -0.118392 0.196920 -0.095904
v -0.118392 -0.431068 -0.114069
v -0.087252 0.126894 -0.147804
v -0.085005 0.130362 -0.145955
v -0.085005 0.126775 -0.146507
v -0.087252 0.131047 -0.147165
v -0.085005 0.120959 -0.146507
v -0.089500 0.130362 -0.145955
v -0.085005 0.133171 -0.143395
v -0.085005 0.120959 -0.143911
v -0.087252 0.120959 -0.147804
v -0.089500 0.126775 -0.146507
v -0.087252 0.134499 -0.144019
v -0.085005 0.128990 -0.143534
v -0.085005 0.126536 -0.143911
v -0.089500 0.120959 -0.146507
v -0.089500 0.133171 -0.143395
v -0.085005 0.133776 -0.140127
v -0.085005 0.130514 -0.142146
v -0.087252 0.126417 -0.142614
v -0.089500 0.126536 -0.143911
v -0.089500 0.128990 -0.143534
v -0.087252 0.135200 -0.140236
v -0.087252 0.129185 -0.141522
v -0.087252 0.128305 -0.142324
v -0.087252 0.120959 -0.142614
v -0.089500 0.120959 -0.143911
v -0.089500 0.130514 -0.142146
v -0.089500 0.133776 -0.140127
v -0.085005 0.133776 -0.114069
v -0.085005 0.130928 -0.139910
v -0.087252 0.135200 -0.114069
v -0.087252 0.129504 -0.139801
v -0.089500 0.130928 -0.139910
v -0.089500 0.133776 -0.114069
v -0.085005 0.132352 -0.114069
v -0.087252 0.129504 -0.114069
v -0.089500 0.130928 -0.114069
v -0.089500 0.132352 -0.114069
v -0.085005 0.130928 -0.114069
v -0.087252 0.064062 -0.142616
v -0.089500 0.121972 -0.143911
v -0.089500 0.064062 -0.143913
v -0.087252 0.121972 -0.142614
v -0.089500 0.121972 -0.146507
v -0.085005 0.121972 -0.143911
v -0.089500 0.064062 -0.146508
v -0.085005 0.064062 -0.143913
v -0.087252 0.121972 -0.147804
v -0.085005 0.121972 -0.146507
v -0.087252 0.064062 -0.147806
v -0.085005 0.064062 -0.146508
v -0.085005 0.055313 -0.114069
v -0.087252 0.056738 -0.139801
v -0.087252 0.056738 -0.114069
v -0.085005 0.055313 -0.139910
v -0.089500 0.055313 -0.139910
v -0.085005 0.052465 -0.140127
v -0.085005 0.055727 -0.142146
v -0.089500 0.055313 -0.114069
v -0.089500 0.055727 -0.142146
v -0.085005 0.052465 -0.114069
v -0.087252 0.057056 -0.141522
v -0.089500 0.052465 -0.114069
v -0.089500 0.052465 -0.140127
v -0.087252 0.051041 -0.114069
v -0.085005 0.053070 -0.143395
v -0.087252 0.057936 -0.142324
v -0.089500 0.057251 -0.143534
v -0.089500 0.053070 -0.143395
v -0.087252 0.051041 -0.140236
v -0.085005 0.057251 -0.143534
v -0.087252 0.051742 -0.144019
v -0.085005 0.055879 -0.145955
v -0.085005 0.059705 -0.143911
v -0.089500 0.059705 -0.143911
v -0.089500 0.055879 -0.145955
v -0.087252 0.055194 -0.147165
v -0.087252 0.059825 -0.142614
v -0.085005 0.065282 -0.143911
v -0.089500 0.065282 -0.143911
v -0.089500 0.065282 -0.146507
v -0.087252 0.059347 -0.147804
v -0.085005 0.065282 -0.146507
v -0.087252 0.065282 -0.142614
v -0.089500 0.059467 -0.146507
v -0.085005 0.059467 -0.146507
v -0.087252 0.065282 -0.147804
v -0.098930 -0.514108 0.376385
v -0.098930 -0.514108 0.397145
v -0.119690 -0.514108 0.376385

# 0 UV coordinates

# 94 vertex normals
vn 0 0 0.0254
vn 0 -0.0254 0
vn 0.06604 0 0
vn 0 0.0254 0
vn -0.06604 0 0
vn 0 0 -0.0254
vn -0.0254 0 0
vn 0.0254 0 0
vn 0 0 0.00423334
vn 0 0 -0.00423334
vn -0.0172278 0 0
vn 0.0172278 0 0
vn -0.0366889 0 0
vn 0 0.0275167 0
vn 0 -0.0275167 0
vn 0.0366889 0 0
vn 0 0 0.00427789
vn 0 0 -0.00427789
vn -0.0592667 0 0
vn 0.0592667 0 0
vn 0.0461065 0 0
vn -0.0461065 -0 0
vn 0 0 0.04445
vn 0 0 -0.04445
vn 0 -0.0321822 0
vn 0 0.0321822 0
vn 0 0.00232798 -0.0253113
vn 0.019593 0.00813438 -0.0143648
vn 0.0192293 0.00152097 -0.016537
vn 0 0.0127824 -0.0225729
vn 0.021997 0 -0.0127
vn -0.019593 0.00813438 -0.0143648
vn 0.019593 0.0157669 -0.00741106
vn 0.021997 0 0.0127
vn -0.0192293 0.00152097 -0.016537
vn 0 0.024776 -0.0116457
vn 0.019593 -0.00813438 0.0143648
vn 0.0192293 -0.00152097 0.016537
vn -0.021997 0 -0.0127
vn -0.019593 0.0157669 -0.00741106
vn 0.0192293 0.018151 -0.00138572
vn 0.019593 -0.0157669 0.00741106
vn 0 -0.00232798 0.0253113
vn -0.0192293 -0.00152097 0.016537
vn -0.019593 -0.00813438 0.0143648
vn 0 0.0277817 -0.00212098
vn 0 -0.024776 0.0116457
vn 0 -0.0127824 0.0225729
vn -0.021997 -0 0.0127
vn -0.019593 -0.0157669 0.00741106
vn -0.0192293 0.018151 -0.00138572
vn 0.021997 0.0139395 0
vn 0.0192293 -0.018151 0.00138572
vn 0 0.027879 0
vn 0 -0.0277817 0.00212098
vn -0.0192293 -0.018151 0.00138572
vn -0.021997 0.0139395 0
vn 0.0253999 0 0
vn 0 -0.027879 0
vn -0.021997 -0.0139395 -0
vn -0.0253999 0 -0
vn 0.021997 -0.0139395 0
vn 0 -8.96304e-07 0.0254
vn -0.0219971 -4.48152e-07 0.0127
vn -0.0219971 4.48152e-07 -0.0127
vn 0.0219971 -4.48152e-07 0.0127
vn 0 8.96304e-07 -0.0254
vn 0.0219971 4.48152e-07 -0.0127
vn 0 0.0277817 0.00212098
vn 0.0192293 0.018151 0.00138572
vn -0.0192293 0.018151 0.00138572
vn 0.0192293 -0.018151 -0.00138572
vn 0.019593 0.0157669 0.00741106
vn -0.019593 0.0157669 0.00741106
vn 0 0.024776 0.0116457
vn -0.0192293 -0.018151 -0.00138572
vn 0.019593 -0.0157669 -0.00741106
vn 0 0.0127824 0.0225729
vn -0.019593 0.00813438 0.0143648
vn -0.019593 -0.0157669 -0.00741106
vn 0 -0.0274902 -0.00422714
vn 0.019593 0.00813438 0.0143648
vn 0 -0.024776 -0.0116457
vn 0.019593 -0.00813438 -0.0143648
vn 0.0192293 0.00152097 0.016537
vn -0.0192293 0.00152097 0.016537
vn -0.019593 -0.00813438 -0.0143648
vn 0 -0.0127824 -0.0225729
vn 0 0.00232798 0.0253113
vn 0 -0.00232798 -0.0253113
vn -0.0192293 -0.00152097 -0.016537
vn 0.0192293 -0.00152097 -0.016537
vn 0 -0.0277817 -0.00212098
vn 0 0.0274902 0.00422714

# Mesh 'mesh1_mesh1-geometry' with 10 faces
g mesh1_mesh1-geometry
usemtl material_0_24
f  1//1 2//1 3//1
f  2//1 1//1 4//1
f  2//2 5//2 3//2
f  5//3 1//3 3//3
f  1//4 6//4 4//4
f  6//5 2//5 4//5
f  5//2 2//2 7//2
f  1//3 5//3 8//3
f  6//4 1//4 8//4
f  2//5 6//5 7//5

# Mesh 'mesh1_mesh1-geometry' with 14 faces
g mesh1_mesh1-geometry
usemtl material_1_24
f  3//6 2//6 1//6
f  4//6 1//6 2//6
f  3//4 5//4 2//4
f  3//5 1//5 5//5
f  4//2 6//2 1//2
f  4//3 2//3 6//3
f  7//4 2//4 5//4
f  8//5 5//5 1//5
f  8//2 1//2 6//2
f  7//3 6//3 2//3
f  6//6 5//6 7//6
f  7//1 5//1 6//1
f  5//6 6//6 8//6
f  8//1 6//1 5//1

# Mesh 'mesh2_mesh2-geometry' with 3 faces
g mesh2_mesh2-geometry
usemtl material_1_0
l  5 7
l  7 6
l  8 6

# Mesh 'mesh3_mesh3-geometry' with 2 faces
g mesh3_mesh3-geometry
usemtl material_0_24
f  9//7 10//7 11//7
f  10//7 9//7 12//7

# Mesh 'mesh3_mesh3-geometry' with 2 faces
g mesh3_mesh3-geometry
usemtl material_1_24
f  11//8 10//8 9//8
f  12//8 9//8 10//8

# Mesh 'mesh4_mesh4-geometry' with 8 faces
g mesh4_mesh4-geometry
usemtl material_0_24
f  7//8 13//8 2//8
f  13//8 7//8 14//8
f  13//1 10//1 2//1
f  2//2 12//2 7//2
f  9//4 13//4 14//4
f  10//1 13//1 11//1
f  12//2 2//2 10//2
f  13//4 9//4 11//4

# Mesh 'mesh4_mesh4-geometry' with 12 faces
g mesh4_mesh4-geometry
usemtl material_1_24
f  2//7 13//7 7//7
f  14//7 7//7 13//7
f  2//6 10//6 13//6
f  7//4 12//4 2//4
f  7//6 9//6 14//6
f  14//1 9//1 7//1
f  14//2 13//2 9//2
f  11//6 13//6 10//6
f  10//4 2//4 12//4
f  9//6 7//6 12//6
f  12//1 7//1 9//1
f  11//2 9//2 13//2

# Mesh 'mesh5_mesh5-geometry' with 2 faces
g mesh5_mesh5-geometry
usemtl material_0_24
f  15//8 16//8 17//8
f  16//8 15//8 18//8

# Mesh 'mesh5_mesh5-geometry' with 2 faces
g mesh5_mesh5-geometry
usemtl material_1_24
f  17//7 16//7 15//7
f  18//7 15//7 16//7

# Mesh 'mesh6_mesh6-geometry' with 12 faces
g mesh6_mesh6-geometry
usemtl material_1_24
f  19//6 15//6 20//6
f  15//6 19//6 18//6
f  20//1 15//1 19//1
f  18//1 19//1 15//1
f  20//4 21//4 15//4
f  20//8 19//8 21//8
f  18//2 16//2 19//2
f  17//4 15//4 21//4
f  22//8 21//8 19//8
f  22//2 19//2 16//2
f  17//6 21//6 16//6
f  22//6 16//6 21//6

# Mesh 'mesh6_mesh6-geometry' with 8 faces
g mesh6_mesh6-geometry
usemtl material_0_24
f  15//2 21//2 20//2
f  21//7 19//7 20//7
f  19//4 16//4 18//4
f  21//2 15//2 17//2
f  19//7 21//7 22//7
f  16//4 19//4 22//4
f  16//1 21//1 17//1
f  21//1 16//1 22//1

# Mesh 'mesh7_mesh7-geometry' with 3 faces
g mesh7_mesh7-geometry
usemtl material_1_0
l  19 18
l  19 20
l  20 15

# Mesh 'mesh8_mesh8-geometry' with 12 faces
g mesh8_mesh8-geometry
usemtl material_0_24
f  23//9 24//9 25//9
f  24//9 23//9 26//9
f  24//2 27//2 25//2
f  27//3 23//3 25//3
f  23//4 28//4 26//4
f  28//5 24//5 26//5
f  27//2 24//2 29//2
f  23//3 27//3 30//3
f  28//4 23//4 30//4
f  24//5 28//5 29//5
f  28//10 27//10 29//10
f  27//10 28//10 30//10

# Mesh 'mesh8_mesh8-geometry' with 12 faces
g mesh8_mesh8-geometry
usemtl material_1_24
f  25//10 24//10 23//10
f  26//10 23//10 24//10
f  25//4 27//4 24//4
f  25//5 23//5 27//5
f  26//2 28//2 23//2
f  26//3 24//3 28//3
f  29//4 24//4 27//4
f  30//5 27//5 23//5
f  30//2 23//2 28//2
f  29//3 28//3 24//3
f  29//9 27//9 28//9
f  30//9 28//9 27//9

# Mesh 'mesh9_mesh9-geometry' with 12 faces
g mesh9_mesh9-geometry
usemtl material_0_24
f  26//11 31//11 32//11
f  31//11 26//11 33//11
f  31//1 34//1 32//1
f  34//4 26//4 32//4
f  26//6 35//6 33//6
f  35//2 31//2 33//2
f  34//1 31//1 36//1
f  26//4 34//4 37//4
f  35//6 26//6 37//6
f  31//2 35//2 36//2
f  35//12 34//12 36//12
f  34//12 35//12 37//12

# Mesh 'mesh9_mesh9-geometry' with 12 faces
g mesh9_mesh9-geometry
usemtl material_1_24
f  32//12 31//12 26//12
f  33//12 26//12 31//12
f  32//6 34//6 31//6
f  32//2 26//2 34//2
f  33//1 35//1 26//1
f  33//4 31//4 35//4
f  36//6 31//6 34//6
f  37//2 34//2 26//2
f  37//1 26//1 35//1
f  36//4 35//4 31//4
f  36//11 34//11 35//11
f  37//11 35//11 34//11

# Mesh 'mesh10_mesh10-geometry' with 10 faces
g mesh10_mesh10-geometry
usemtl material_0_24
f  14//13 38//13 39//13
f  38//13 14//13 40//13
f  38//1 41//1 39//1
f  41//14 14//14 39//14
f  42//15 38//15 40//15
f  41//1 38//1 43//1
f  14//14 41//14 44//14
f  38//15 42//15 43//15
f  42//16 41//16 43//16
f  41//16 42//16 44//16

# Mesh 'mesh10_mesh10-geometry' with 14 faces
g mesh10_mesh10-geometry
usemtl material_1_24
f  39//16 38//16 14//16
f  40//16 14//16 38//16
f  39//6 41//6 38//6
f  39//15 14//15 41//15
f  14//6 42//6 40//6
f  40//1 42//1 14//1
f  40//14 38//14 42//14
f  43//6 38//6 41//6
f  44//15 41//15 14//15
f  42//6 14//6 44//6
f  44//1 14//1 42//1
f  43//14 42//14 38//14
f  43//13 41//13 42//13
f  44//13 42//13 41//13

# Mesh 'mesh11_mesh11-geometry' with 12 faces
g mesh11_mesh11-geometry
usemtl material_0_24
f  45//3 46//3 47//3
f  46//3 45//3 48//3
f  46//17 32//17 47//17
f  32//2 45//2 47//2
f  45//18 49//18 48//18
f  49//4 46//4 48//4
f  32//17 46//17 13//17
f  45//2 32//2 50//2
f  49//18 45//18 50//18
f  46//4 49//4 13//4
f  49//5 32//5 13//5
f  32//5 49//5 50//5

# Mesh 'mesh11_mesh11-geometry' with 12 faces
g mesh11_mesh11-geometry
usemtl material_1_24
f  47//5 46//5 45//5
f  48//5 45//5 46//5
f  47//18 32//18 46//18
f  47//4 45//4 32//4
f  48//17 49//17 45//17
f  48//2 46//2 49//2
f  13//18 46//18 32//18
f  50//4 32//4 45//4
f  50//17 45//17 49//17
f  13//2 49//2 46//2
f  13//3 32//3 49//3
f  50//3 49//3 32//3

# Mesh 'mesh12_mesh12-geometry' with 12 faces
g mesh12_mesh12-geometry
usemtl material_0_24
f  51//19 52//19 10//19
f  52//19 51//19 53//19
f  52//1 54//1 10//1
f  54//4 51//4 10//4
f  51//6 55//6 53//6
f  53//2 56//2 52//2
f  54//1 52//1 56//1
f  51//4 54//4 57//4
f  55//6 51//6 57//6
f  56//2 53//2 55//2
f  55//20 54//20 56//20
f  54//20 55//20 57//20

# Mesh 'mesh12_mesh12-geometry' with 12 faces
g mesh12_mesh12-geometry
usemtl material_1_24
f  10//20 52//20 51//20
f  53//20 51//20 52//20
f  10//6 54//6 52//6
f  10//2 51//2 54//2
f  53//1 55//1 51//1
f  52//4 56//4 53//4
f  56//6 52//6 54//6
f  57//2 54//2 51//2
f  57//1 51//1 55//1
f  55//4 53//4 56//4
f  56//19 54//19 55//19
f  57//19 55//19 54//19

# Mesh 'mesh13_mesh13-geometry' with 24 faces
g mesh13_mesh13-geometry
usemtl material_1_24
f  58//21 59//21 60//21
f  59//21 58//21 61//21
f  60//22 59//22 58//22
f  61//22 58//22 59//22
f  59//23 62//23 60//23
f  60//24 62//24 59//24
f  62//25 58//25 60//25
f  60//26 58//26 62//26
f  58//24 63//24 61//24
f  61//23 63//23 58//23
f  63//26 59//26 61//26
f  61//25 59//25 63//25
f  62//23 59//23 64//23
f  64//24 59//24 62//24
f  58//25 62//25 65//25
f  65//26 62//26 58//26
f  63//24 58//24 65//24
f  65//23 58//23 63//23
f  59//26 63//26 64//26
f  64//25 63//25 59//25
f  63//22 62//22 64//22
f  64//21 62//21 63//21
f  62//22 63//22 65//22
f  65//21 63//21 62//21

# Mesh 'mesh14_mesh14-geometry' with 12 faces
g mesh14_mesh14-geometry
usemtl material_1_0
l  59 60
l  59 61
l  64 59
l  60 58
l  60 62
l  61 58
l  63 61
l  62 64
l  64 63
l  58 65
l  62 65
l  65 63

# Mesh 'mesh15_mesh15-geometry' with 62 faces
g mesh15_mesh15-geometry
usemtl material_2_24
f  66//27 67//28 68//29
f  67//28 66//27 69//30
f  67//28 70//31 68//29
f  70//31 66//27 68//29
f  66//27 71//32 69//30
f  69//30 72//33 67//28
f  67//28 73//34 70//31
f  66//27 70//31 74//6
f  71//32 66//27 75//35
f  71//32 76//36 69//30
f  72//33 69//30 76//36
f  72//33 77//37 67//28
f  67//28 78//38 73//34
f  74//6 75//35 66//27
f  79//39 71//32 75//35
f  76//36 71//32 80//40
f  76//36 81//41 72//33
f  72//33 82//42 77//37
f  67//28 77//37 78//38
f  83//43 73//34 78//38
f  75//35 74//6 79//39
f  79//39 84//44 71//32
f  85//45 80//40 71//32
f  80//40 86//46 76//36
f  81//41 76//36 86//46
f  81//41 82//42 72//33
f  87//47 77//37 82//42
f  88//48 78//38 77//37
f  73//34 83//43 89//1
f  78//38 88//48 83//43
f  84//44 79//39 90//49
f  85//45 71//32 84//44
f  91//50 80//40 85//45
f  86//46 80//40 92//51
f  86//46 93//52 81//41
f  81//41 94//53 82//42
f  77//37 87//47 88//48
f  94//53 87//47 82//42
f  84//44 89//1 83//43
f  88//48 84//44 83//43
f  89//1 84//44 90//49
f  84//44 88//48 85//45
f  91//50 92//51 80//40
f  88//48 91//50 85//45
f  92//51 95//54 86//46
f  93//52 86//46 95//54
f  93//52 94//53 81//41
f  91//50 88//48 87//47
f  87//47 94//53 96//55
f  97//56 92//51 91//50
f  95//54 92//51 98//57
f  99//58 94//53 93//52
f  87//47 97//56 91//50
f  94//53 100//59 96//55
f  97//56 87//47 96//55
f  101//60 92//51 97//56
f  92//51 102//61 98//57
f  94//53 99//58 103//62
f  100//59 94//53 103//62
f  101//60 96//55 100//59
f  96//55 101//60 97//56
f  102//61 92//51 101//60

# Mesh 'mesh15_mesh15-geometry' with 62 faces
g mesh15_mesh15-geometry
usemtl material_1_24
f  68//44 67//45 66//43
f  69//48 66//43 67//45
f  68//44 70//49 67//45
f  68//44 66//43 70//49
f  69//48 71//37 66//43
f  67//45 72//50 69//48
f  70//49 73//39 67//45
f  74//1 70//49 66//43
f  75//38 66//43 71//37
f  69//48 76//47 71//37
f  76//47 69//48 72//50
f  67//45 77//32 72//50
f  73//39 78//35 67//45
f  66//43 75//38 74//1
f  75//38 71//37 79//34
f  80//42 71//37 76//47
f  72//50 81//56 76//47
f  77//32 82//40 72//50
f  78//35 77//32 67//45
f  78//35 73//39 83//27
f  79//34 74//1 75//38
f  71//37 84//29 79//34
f  71//37 80//42 85//28
f  76//47 86//55 80//42
f  86//55 76//47 81//56
f  72//50 82//40 81//56
f  82//40 77//32 87//36
f  77//32 78//35 88//30
f  89//6 83//27 73//39
f  83//27 88//30 78//35
f  90//31 79//34 84//29
f  84//29 71//37 85//28
f  85//28 80//42 91//33
f  92//53 80//42 86//55
f  81//56 93//60 86//55
f  82//40 94//51 81//56
f  88//30 87//36 77//32
f  82//40 87//36 94//51
f  83//27 89//6 84//29
f  83//27 84//29 88//30
f  90//31 84//29 89//6
f  85//28 88//30 84//29
f  80//42 92//53 91//33
f  85//28 91//33 88//30
f  86//55 95//59 92//53
f  95//59 86//55 93//60
f  81//56 94//51 93//60
f  87//36 88//30 91//33
f  96//46 94//51 87//36
f  91//33 92//53 97//41
f  98//62 92//53 95//59
f  93//60 94//51 99//61
f  91//33 97//41 87//36
f  96//46 100//54 94//51
f  96//46 87//36 97//41
f  97//41 92//53 101//52
f  98//62 102//58 92//53
f  103//57 99//61 94//51
f  103//57 94//51 100//54
f  100//54 96//46 101//52
f  97//41 101//52 96//46
f  101//52 92//53 102//58

# Mesh 'mesh16_mesh16-geometry' with 12 faces
g mesh16_mesh16-geometry
usemtl material_2_24
f  104//63 105//64 106//64
f  105//64 104//63 107//63
f  108//65 106//64 105//64
f  104//63 109//66 107//63
f  106//64 108//65 110//65
f  109//66 104//63 111//66
f  112//67 110//65 108//65
f  111//66 113//68 109//66
f  110//65 112//67 114//67
f  113//68 111//66 115//68
f  112//67 115//68 114//67
f  115//68 112//67 113//68

# Mesh 'mesh16_mesh16-geometry' with 12 faces
g mesh16_mesh16-geometry
usemtl material_1_24
f  106//68 105//68 104//67
f  107//67 104//67 105//68
f  105//68 106//68 108//66
f  107//67 109//65 104//67
f  110//66 108//66 106//68
f  111//65 104//67 109//65
f  108//66 110//66 112//63
f  109//65 113//64 111//65
f  114//63 112//63 110//66
f  115//64 111//65 113//64
f  114//63 115//64 112//63
f  113//64 112//63 115//64

# Mesh 'mesh17_mesh17-geometry' with 60 faces
g mesh17_mesh17-geometry
usemtl material_2_24
f  116//52 117//69 118//54
f  117//69 116//52 119//70
f  120//71 118//54 117//69
f  116//52 121//72 119//70
f  122//73 117//69 119//70
f  118//54 120//71 123//57
f  117//69 124//74 120//71
f  121//72 116//52 125//62
f  119//70 121//72 122//73
f  117//69 122//73 126//75
f  120//71 127//60 123//57
f  124//74 117//69 126//75
f  128//76 120//71 124//74
f  129//59 121//72 125//62
f  122//73 121//72 130//77
f  122//73 131//78 126//75
f  127//60 120//71 128//76
f  126//75 132//79 124//74
f  128//76 124//74 133//80
f  121//72 129//59 134//59
f  134//81 130//77 121//72
f  122//73 130//77 135//82
f  131//78 122//73 135//82
f  132//79 126//75 131//78
f  134//59 127//60 128//76
f  133//80 124//74 132//79
f  136//83 128//76 133//80
f  127//60 134//59 129//59
f  130//77 134//81 136//83
f  135//82 130//77 137//84
f  138//85 131//78 135//82
f  131//78 139//86 132//79
f  128//76 136//83 134//81
f  133//80 132//79 140//87
f  133//80 141//88 136//83
f  136//83 137//84 130//77
f  135//82 137//84 138//85
f  131//78 138//85 142//89
f  139//86 131//78 142//89
f  140//87 132//79 139//86
f  141//88 133//80 140//87
f  137//84 136//83 141//88
f  138//85 137//84 143//34
f  143//34 142//89 138//85
f  142//89 144//49 139//86
f  139//86 145//39 140//87
f  140//87 146//90 141//88
f  146//90 137//84 141//88
f  143//34 137//84 147//31
f  142//89 143//34 148//1
f  144//49 142//89 148//1
f  145//39 139//86 144//49
f  140//87 145//39 149//91
f  146//90 140//87 149//91
f  137//84 146//90 150//92
f  147//31 137//84 150//92
f  151//6 149//91 145//39
f  149//91 151//6 146//90
f  151//6 150//92 146//90
f  150//92 151//6 147//31

# Mesh 'mesh17_mesh17-geometry' with 60 faces
g mesh17_mesh17-geometry
usemtl material_1_24
f  118//59 117//93 116//60
f  119//76 116//60 117//93
f  117//93 118//59 120//72
f  119//76 121//71 116//60
f  119//76 117//93 122//80
f  123//62 120//72 118//59
f  120//72 124//77 117//93
f  125//57 116//60 121//71
f  122//80 121//71 119//76
f  126//83 122//80 117//93
f  123//62 127//52 120//72
f  126//83 117//93 124//77
f  124//77 120//72 128//70
f  125//57 121//71 129//54
f  130//74 121//71 122//80
f  126//83 131//88 122//80
f  128//70 120//72 127//52
f  124//77 132//84 126//83
f  133//73 124//77 128//70
f  134//54 129//54 121//71
f  121//71 130//74 134//94
f  135//87 130//74 122//80
f  135//87 122//80 131//88
f  131//88 126//83 132//84
f  128//70 127//52 134//54
f  132//84 124//77 133//73
f  133//73 128//70 136//75
f  129//54 134//54 127//52
f  136//75 134//94 130//74
f  137//79 130//74 135//87
f  135//87 131//88 138//91
f  132//84 139//92 131//88
f  134//94 136//75 128//70
f  140//82 132//84 133//73
f  136//75 141//78 133//73
f  130//74 137//79 136//75
f  138//91 137//79 135//87
f  142//90 138//91 131//88
f  142//90 131//88 139//92
f  139//92 132//84 140//82
f  140//82 133//73 141//78
f  141//78 136//75 137//79
f  143//39 137//79 138//91
f  138//91 142//90 143//39
f  139//92 144//31 142//90
f  140//82 145//34 139//92
f  141//78 146//89 140//82
f  141//78 137//79 146//89
f  147//49 137//79 143//39
f  148//6 143//39 142//90
f  148//6 142//90 144//31
f  144//31 139//92 145//34
f  149//85 145//34 140//82
f  149//85 140//82 146//89
f  150//86 146//89 137//79
f  150//86 137//79 147//49
f  145//34 149//85 151//1
f  146//89 151//1 149//85
f  146//89 150//86 151//1
f  147//49 151//1 150//86

# Mesh 'mesh18_mesh18-geometry' with 4 faces
g mesh18_mesh18-geometry
usemtl material_1_24
f  52//2 152//2 153//2
f  152//2 52//2 154//2
f  153//4 152//4 52//4
f  154//4 52//4 152//4

