# File produced by Open Asset Import Library (http://www.assimp.sf.net)
# (assimp v3.2.202087883)

mtllib model_normalized.mtl

# 44 vertex positions
v 0.188853 0.070075 -0.096747
v 0.244777 0.070075 -0.098323
v 0.244777 0.070075 -0.096747
v 0.188853 0.070075 -0.098323
v 0.244777 -0.054769 0.108045
v 0.308971 0.112608 -0.096747
v 0.188853 -0.054769 -0.098323
v 0.244777 -0.054769 -0.098323
v 0.244777 0.070075 0.108045
v 0.308971 0.070075 -0.096747
v -0.344391 0.112608 -0.096747
v 0.188853 -0.054769 -0.096747
v 0.244777 -0.055163 0.108045
v 0.188853 0.070075 0.108045
v 0.308971 0.070075 0.108045
v -0.344391 0.069681 -0.096747
v -0.344391 0.112608 0.108045
v 0.188853 -0.055163 -0.098323
v 0.188853 -0.054769 0.108045
v 0.244777 -0.055163 -0.098323
v 0.308971 0.112608 0.108045
v -0.282559 0.069681 -0.096747
v -0.228512 0.069681 -0.096747
v 0.188853 -0.055163 -0.096747
v 0.188853 -0.055163 0.108045
v -0.344391 0.069681 0.108045
v -0.282559 0.069681 0.108045
v -0.228512 0.069681 0.108045
v -0.282559 -0.054769 -0.096747
v -0.228512 -0.054769 0.108045
v -0.228512 -0.054769 -0.096747
v -0.282559 -0.054769 0.108045
v -0.282559 -0.055163 -0.096747
v -0.228512 -0.055163 -0.096747
v -0.228512 -0.055163 0.108045
v -0.282559 -0.055163 0.108045
v 0.393671 -0.054769 -0.232180
v 0.393671 -0.055163 -0.232180
v -0.444923 -0.054769 -0.232180
v -0.444923 -0.055163 -0.232180
v 0.393671 -0.054769 0.286099
v 0.393671 -0.055163 0.286099
v -0.444923 -0.054769 0.286099
v -0.444923 -0.055163 0.286099

# 73 UV coordinates
vt 0 0 0
vt -6.07569 1.98125 0
vt -2.82569 0 0
vt -6.10069 1.98125 0
vt -3.25042 1.98125 0
vt -1.34417 2.65625 0
vt -2.36292 1.98125 0
vt -3.25042 0 0
vt -6.10069 0 0
vt -2.82569 1.98125 0
vt -1.34417 1.98125 0
vt -11.7129 2.65625 0
vt -2.36292 0 0
vt -2.82569 -0.00625 0
vt 2.36292 -6.10069 0
vt 2.36292 -2.82569 0
vt 3.25042 -6.10069 0
vt 2.36292 1.98125 0
vt 3.25042 1.98125 0
vt 2.36292 0 0
vt 2.36292 -6.07569 0
vt 1.34417 -2.82569 0
vt 1.34417 -6.07569 0
vt -6.07569 2.65625 0
vt -11.7129 1.975 0
vt -11.7129 -6.07569 0
vt -11.7129 -2.82569 0
vt -1.34417 -6.07569 0
vt 6.07569 1.98125 0
vt 6.07569 0 0
vt 2.82569 1.98125 0
vt 3.25042 -6.07569 0
vt 3.25042 -2.82569 0
vt -3.25042 -0.00625 0
vt -6.10069 -0.00625 0
vt 3.25042 0 0
vt 2.36292 -0.00625 0
vt 11.7129 2.65625 0
vt 1.34417 1.98125 0
vt -2.82569 2.65625 0
vt -10.7317 1.975 0
vt 6.07569 2.65625 0
vt 6.07569 1.975 0
vt 2.82569 2.65625 0
vt -1.34417 -2.82569 0
vt 2.82569 0 0
vt 3.24855 -6.07569 0
vt 3.24855 -2.82569 0
vt 9.87205 -6.07569 0
vt -2.36292 -0.00625 0
vt 3.25042 -0.00625 0
vt 11.7129 1.975 0
vt 1.34417 2.65625 0
vt -9.87392 1.975 0
vt 10.7317 -6.07569 0
vt 10.7317 -2.82569 0
vt 11.7129 -6.07569 0
vt 2.82569 1.975 0
vt 9.87205 -2.82569 0
vt 9.87392 1.975 0
vt -10.7317 0 0
vt 11.7129 -2.82569 0
vt -2.82569 1.975 0
vt -6.07569 1.975 0
vt 10.7317 1.975 0
vt -9.87392 0 0
vt -6.07569 0 0
vt 9.87392 0 0
vt 9.87392 -6.07569 0
vt 9.87392 -2.82569 0
vt 10.7317 0 0
vt 9.87392 -0.00625 0
vt 10.7317 -0.00625 0

# 8 vertex normals
vn 0 -0.0254 0
vn 0 0.0254 0
vn -0.0254 0 0
vn 0 0 0.0254
vn 0.0254 0 0
vn 0 0 -0.0254
vn -2.39776e-05 0.0254 0
vn 2.39776e-05 -0.0254 -0

# Mesh 'mesh1_mesh1-geometry' with 74 faces
g mesh1_mesh1-geometry
usemtl material_0_24
f  1/1/1 2/1/1 3/1/1
f  2/1/1 1/1/1 4/1/1
f  3/1/2 2/1/2 1/1/2
f  4/1/2 1/1/2 2/1/2
f  2/1/3 5/1/3 3/1/3
f  3/1/4 6/1/4 1/1/4
f  1/1/5 7/1/5 4/1/5
f  4/1/3 7/1/3 1/1/3
f  7/1/4 2/1/4 4/1/4
f  5/1/3 2/1/3 8/1/3
f  3/1/3 5/1/3 9/1/3
f  6/1/4 3/1/4 10/1/4
f  11/1/4 1/1/4 6/1/4
f  7/1/5 1/1/5 12/1/5
f  12/1/3 1/1/3 7/1/3
f  7/1/4 8/1/4 2/1/4
f  8/1/3 13/1/3 5/1/3
f  7/1/2 5/1/2 8/1/2
f  5/1/6 14/1/6 9/1/6
f  15/1/2 3/1/2 9/1/2
f  3/1/2 15/1/2 10/1/2
f  15/1/3 6/1/3 10/1/3
f  16/1/4 1/1/4 11/1/4
f  6/1/1 17/1/1 11/1/1
f  14/1/5 12/1/5 1/1/5
f  12/1/5 18/1/5 7/1/5
f  7/1/3 18/1/3 12/1/3
f  19/1/2 7/1/2 12/1/2
f  18/1/4 8/1/4 7/1/4
f  13/1/3 8/1/3 20/1/3
f  13/1/6 19/1/6 5/1/6
f  5/1/2 7/1/2 19/1/2
f  14/1/6 5/1/6 19/1/6
f  14/1/6 17/1/6 9/1/6
f  9/1/6 17/1/6 15/1/6
f  6/1/3 15/1/3 21/1/3
f  22/1/4 1/1/4 16/1/4
f  17/1/5 16/1/5 11/1/5
f  17/1/1 6/1/1 21/1/1
f  12/1/5 14/1/5 19/1/5
f  23/1/7 14/1/7 1/1/7
f  18/1/5 12/1/5 24/1/5
f  24/1/3 12/1/3 18/1/3
f  8/1/4 18/1/4 20/1/4
f  19/1/6 13/1/6 25/1/6
f  14/1/6 26/1/6 17/1/6
f  15/1/6 17/1/6 21/1/6
f  1/1/4 22/1/4 23/1/4
f  16/1/2 27/1/2 22/1/2
f  16/1/5 17/1/5 26/1/5
f  14/1/7 23/1/7 28/1/7
f  28/1/6 26/1/6 14/1/6
f  29/1/4 23/1/4 22/1/4
f  27/1/2 16/1/2 26/1/2
f  27/1/5 29/1/5 22/1/5
f  23/1/3 30/1/3 28/1/3
f  26/1/6 28/1/6 27/1/6
f  23/1/4 29/1/4 31/1/4
f  29/1/5 27/1/5 32/1/5
f  30/1/3 23/1/3 31/1/3
f  30/1/6 27/1/6 28/1/6
f  33/1/4 31/1/4 29/1/4
f  29/1/6 31/1/6 33/1/6
f  29/1/2 30/1/2 31/1/2
f  27/1/6 30/1/6 32/1/6
f  32/1/5 33/1/5 29/1/5
f  29/1/3 33/1/3 32/1/3
f  30/1/2 29/1/2 32/1/2
f  31/1/4 33/1/4 34/1/4
f  34/1/6 33/1/6 31/1/6
f  30/1/6 35/1/6 32/1/6
f  33/1/5 32/1/5 36/1/5
f  36/1/3 32/1/3 33/1/3
f  32/1/6 35/1/6 36/1/6

# Mesh 'mesh1_mesh1-geometry' with 54 faces
g mesh1_mesh1-geometry
usemtl material_1_1_8
f  3/2/5 5/3/5 2/4/5
f  1/5/6 6/6/6 3/7/6
f  4/5/6 2/7/6 7/8/6
f  8/9/5 2/4/5 5/3/5
f  9/10/5 5/3/5 3/2/5
f  10/11/6 3/7/6 6/6/6
f  6/6/6 1/5/6 11/12/6
f  2/7/6 8/13/6 7/8/6
f  5/3/5 13/14/5 8/9/5
f  8/15/1 5/16/1 7/17/1
f  9/18/4 14/19/4 5/20/4
f  9/16/1 3/21/1 15/22/1
f  10/23/1 15/22/1 3/21/1
f  10/2/5 6/24/5 15/10/5
f  11/12/6 1/5/6 16/25/6
f  11/26/2 17/27/2 6/28/2
f  1/29/3 12/30/3 14/31/3
f  12/32/1 7/17/1 19/33/1
f  7/8/6 8/13/6 18/34/6
f  20/35/5 8/9/5 13/14/5
f  5/20/4 19/36/4 13/37/4
f  19/33/1 7/17/1 5/16/1
f  19/36/4 5/20/4 14/19/4
f  9/18/4 17/38/4 14/19/4
f  15/39/4 17/38/4 9/18/4
f  21/40/5 15/10/5 6/24/5
f  16/25/6 1/5/6 22/41/6
f  11/42/3 16/43/3 17/44/3
f  21/45/2 6/28/2 17/27/2
f  19/46/3 14/31/3 12/30/3
f  1/47/8 14/48/8 23/49/8
f  20/50/6 18/34/6 8/13/6
f  25/51/4 13/37/4 19/36/4
f  17/38/4 26/52/4 14/19/4
f  21/53/4 17/38/4 15/39/4
f  23/54/6 22/41/6 1/5/6
f  22/55/1 27/56/1 16/57/1
f  26/58/3 17/44/3 16/43/3
f  28/59/8 23/49/8 14/48/8
f  14/19/4 26/52/4 28/60/4
f  22/41/6 23/54/6 29/61/6
f  26/62/1 16/57/1 27/56/1
f  22/43/3 29/30/3 27/58/3
f  28/63/5 30/3/5 23/64/5
f  27/65/4 28/60/4 26/52/4
f  31/66/6 29/61/6 23/54/6
f  32/46/3 27/58/3 29/30/3
f  31/67/5 23/64/5 30/3/5
f  28/60/4 27/65/4 30/68/4
f  31/69/1 30/70/1 29/55/1
f  32/71/4 30/68/4 27/65/4
f  32/56/1 29/55/1 30/70/1
f  32/71/4 35/72/4 30/68/4
f  36/73/4 35/72/4 32/71/4

# Mesh 'mesh2_mesh2-geometry' with 3 faces
g mesh2_mesh2-geometry
usemtl material_0_0
l  7 12
l  7 18
l  20 12

# Mesh 'mesh3_mesh3-geometry' with 4 faces
g mesh3_mesh3-geometry
usemtl material_0_0
l  4 1
l  2 4
l  1 3
l  3 2

# Mesh 'mesh4_mesh4-geometry' with 1 faces
g mesh4_mesh4-geometry
usemtl material_0_0
l  37 38

# Mesh 'mesh5_mesh5-geometry' with 1 faces
g mesh5_mesh5-geometry
usemtl material_0_0
l  39 40

# Mesh 'mesh6_mesh6-geometry' with 1 faces
g mesh6_mesh6-geometry
usemtl material_0_0
l  41 42

# Mesh 'mesh7_mesh7-geometry' with 1 faces
g mesh7_mesh7-geometry
usemtl material_0_0
l  43 44

# Mesh 'mesh8_mesh8-geometry' with 1 faces
g mesh8_mesh8-geometry
usemtl material_0_0
l  29 33

# Mesh 'mesh9_mesh9-geometry' with 1 faces
g mesh9_mesh9-geometry
usemtl material_0_0
l  32 36

