# File produced by Open Asset Import Library (http://www.assimp.sf.net)
# (assimp v3.2.202087883)

mtllib model_normalized.mtl

# 149 vertex positions
v -0.387537 0.046084 0.153338
v 0.382273 -0.004752 0.153338
v -0.387537 -0.004752 0.153338
v 0.382273 0.046084 0.153338
v -0.387537 -0.004752 0.175125
v 0.382273 0.046084 0.175125
v 0.382273 -0.004752 0.175125
v -0.387537 0.046084 0.175125
v -0.387537 -0.004752 -0.151681
v 0.382273 -0.004752 -0.173468
v 0.382273 -0.004752 -0.151681
v -0.387537 -0.004752 -0.173468
v 0.382273 0.046084 -0.151681
v -0.387537 0.046084 -0.173468
v -0.387537 0.046084 -0.151681
v 0.382273 0.046084 -0.173468
v 0.382273 -0.277091 -0.122632
v 0.433110 -0.277091 -0.173468
v 0.433110 -0.277091 -0.122632
v 0.382273 -0.277091 -0.173468
v 0.433110 0.056978 -0.122632
v 0.382273 0.056978 -0.173468
v 0.433110 0.056978 -0.173468
v 0.382273 0.056978 -0.122632
v 0.382273 -0.277091 0.175125
v 0.433110 -0.277091 0.124289
v 0.433110 -0.277091 0.175125
v 0.382273 -0.277091 0.124289
v 0.433110 0.056978 0.175125
v 0.382273 0.056978 0.124289
v 0.433110 0.056978 0.124289
v 0.382273 0.056978 0.175125
v 0.407692 -0.081007 0.124289
v 0.433110 -0.081007 -0.122632
v 0.433110 -0.081007 0.124289
v 0.407692 -0.081007 -0.122632
v 0.433110 -0.030170 0.124289
v 0.407692 -0.030170 -0.122632
v 0.433110 -0.030170 -0.122632
v 0.407692 -0.030170 0.124289
v -0.387537 -0.277091 0.124289
v -0.438374 -0.277091 0.175125
v -0.438374 -0.277091 0.124289
v -0.387537 -0.277091 0.175125
v -0.438374 0.056978 0.124289
v -0.387537 0.056978 0.175125
v -0.438374 0.056978 0.175125
v -0.387537 0.056978 0.124289
v -0.387537 -0.277091 -0.173468
v -0.438374 -0.277091 -0.122632
v -0.438374 -0.277091 -0.173468
v -0.387537 -0.277091 -0.122632
v -0.438374 0.056978 -0.173468
v -0.387537 0.056978 -0.122632
v -0.438374 0.056978 -0.122632
v -0.387537 0.056978 -0.173468
v -0.412956 -0.081007 -0.122632
v -0.438374 -0.081007 0.124289
v -0.438374 -0.081007 -0.122632
v -0.412956 -0.081007 0.124289
v -0.438374 -0.030170 -0.122632
v -0.412956 -0.030170 0.124289
v -0.438374 -0.030170 0.124289
v -0.412956 -0.030170 -0.122632
v -0.387537 0.056978 -0.162575
v -0.336701 0.056978 0.164232
v -0.336701 0.056978 -0.162575
v -0.387537 0.056978 0.164232
v -0.336701 0.046084 -0.162575
v -0.387537 0.046084 0.164232
v -0.336701 0.046084 0.164232
v -0.387537 0.046084 -0.162575
v 0.331437 0.056978 -0.162575
v 0.382273 0.056978 0.164232
v 0.382273 0.056978 -0.162575
v 0.331437 0.056978 0.164232
v 0.382273 0.046084 -0.162575
v 0.331437 0.046084 -0.151681
v 0.331437 0.046084 0.164232
v 0.382273 0.046084 0.164232
v 0.331437 0.046084 -0.162575
v 0.331437 0.046084 0.153338
v 0.331437 -0.004752 -0.151681
v 0.331437 -0.004752 0.153338
v 0.331437 -0.004752 -0.173468
v 0.331437 -0.004752 0.175125
v -0.147879 0.056978 -0.162575
v -0.097043 0.056978 0.164232
v -0.097043 0.056978 -0.162575
v -0.147879 0.056978 0.164232
v -0.097043 0.046084 -0.162575
v -0.147879 0.046084 -0.151681
v -0.147879 0.046084 0.164232
v -0.097043 0.046084 0.164232
v -0.147879 0.046084 -0.162575
v -0.147879 0.046084 0.153338
v -0.147879 -0.004752 -0.151681
v -0.147879 -0.004752 0.153338
v -0.147879 -0.004752 -0.173468
v -0.147879 -0.004752 0.175125
v 0.091779 0.056978 -0.162575
v 0.142615 0.056978 0.164232
v 0.142615 0.056978 -0.162575
v 0.091779 0.056978 0.164232
v 0.142615 0.046084 -0.162575
v 0.091779 0.046084 -0.151681
v 0.091779 0.046084 0.164232
v 0.142615 0.046084 0.164232
v 0.091779 0.046084 -0.162575
v 0.091779 0.046084 0.153338
v 0.091779 -0.004752 -0.151681
v 0.091779 -0.004752 0.153338
v 0.091779 -0.004752 -0.173468
v 0.091779 -0.004752 0.175125
v -0.438374 0.056978 0.175125
v 0.433110 0.067871 0.175125
v -0.438374 0.067871 0.124289
v 0.433110 0.067871 0.124289
v -0.438374 0.067871 0.175125
v -0.438374 0.056978 -0.122632
v -0.438374 0.056978 -0.173468
v 0.433110 0.067871 -0.122632
v -0.438374 0.067871 -0.173468
v 0.433110 0.067871 -0.173468
v -0.438374 0.067871 -0.122632
v -0.438374 0.056978 0.100686
v 0.433110 0.056978 0.049850
v 0.433110 0.056978 0.100686
v -0.438374 0.056978 0.049850
v 0.433110 0.067871 0.100686
v -0.438374 0.067871 0.049850
v 0.433110 0.067871 0.049850
v -0.438374 0.067871 0.100686
v -0.438374 0.056978 0.026247
v 0.433110 0.056978 -0.024590
v 0.433110 0.056978 0.026247
v -0.438374 0.056978 -0.024590
v 0.433110 0.067871 0.026247
v -0.438374 0.067871 -0.024590
v 0.433110 0.067871 -0.024590
v -0.438374 0.067871 0.026247
v -0.438374 0.056978 -0.048192
v 0.433110 0.056978 -0.099029
v 0.433110 0.056978 -0.048192
v -0.438374 0.056978 -0.099029
v 0.433110 0.067871 -0.048192
v -0.438374 0.067871 -0.099029
v 0.433110 0.067871 -0.099029
v -0.438374 0.067871 -0.048192

# 69 UV coordinates
vt 0.736111 0.309028 0
vt 0 0.260417 0
vt 0.736111 0.260417 0
vt 0 0.309028 0
vt 0 0.288194 0
vt -0.736111 0.309028 0
vt -0.736111 0.288194 0
vt 0.736111 0.288194 0
vt -0.736111 0.260417 0
vt -0.736111 0.020833 0
vt 0 0 0
vt 0 0.020833 0
vt -0.736111 0 0
vt 0.736111 0 0
vt 0.736111 0.020833 0
vt -0.048611 0.048611 0
vt 0 0.048611 0
vt -0.048611 0 0
vt -0.048611 0.319444 0
vt 0 0.319444 0
vt 0.048611 0 0
vt 0.048611 0.319444 0
vt 0.048611 0.048611 0
vt -0.024306 0.284722 0
vt 0 0.284722 0
vt -0.024306 0.048611 0
vt -0.048611 0.1875 0
vt -0.284722 0.236111 0
vt -0.284722 0.1875 0
vt 0 0.236111 0
vt -0.024306 0.1875 0
vt 0 0.1875 0
vt 0.284722 0.1875 0
vt 0.048611 0.236111 0
vt 0.048611 0.1875 0
vt 0.024306 0.236111 0
vt 0.024306 0.1875 0
vt -0.048611 0.236111 0
vt -0.024306 0.236111 0
vt 0.284722 0.236111 0
vt 0.024306 0.048611 0
vt 0.024306 0.284722 0
vt 0.048611 0.010417 0
vt 0 0.322917 0
vt 0 0.010417 0
vt 0.048611 0.322917 0
vt -0.322917 0.059028 0
vt -0.010417 0.048611 0
vt -0.010417 0.059028 0
vt 0.048611 0.059028 0
vt 0 0.059028 0
vt 0.010417 0.059028 0
vt 0.020833 0.048611 0
vt 0.322917 0.059028 0
vt -0.048611 0.059028 0
vt -0.322917 0.048611 0
vt 0.010417 0.048611 0
vt 0.3125 0.048611 0
vt 0.322917 0.048611 0
vt -0.048611 0.322917 0
vt -0.048611 0.010417 0
vt -0.048611 0.020833 0
vt -0.048611 0.3125 0
vt -0.833333 0.048611 0
vt -0.833333 0 0
vt 0.833333 0.010417 0
vt 0.833333 0 0
vt -0.833333 0.010417 0
vt 0.833333 0.048611 0

# 6 vertex normals
vn 0 0 -0.0254
vn 0 0 0.0254
vn 0 -0.0254 0
vn 0 0.0254 0
vn 0.0254 0 0
vn -0.0254 0 0

# Mesh 'mesh1_mesh1-geometry' with 16 faces
g mesh1_mesh1-geometry
usemtl material_0_1_8
f  1/1/1 2/2/1 3/3/1
f  2/2/1 1/1/1 4/4/1
f  3/3/2 2/2/2 1/1/2
f  4/4/2 1/1/2 2/2/2
f  2/5/3 5/6/3 3/7/3
f  3/7/4 5/6/4 2/5/4
f  1/8/4 6/4/4 4/5/4
f  4/5/3 6/4/3 1/8/3
f  5/6/3 2/5/3 7/4/3
f  7/4/4 2/5/4 5/6/4
f  6/4/4 1/8/4 8/1/4
f  8/1/3 1/8/3 6/4/3
f  6/4/2 5/9/2 7/2/2
f  7/2/1 5/9/1 6/4/1
f  5/9/2 6/4/2 8/6/2
f  8/6/1 6/4/1 5/9/1

# Mesh 'mesh2_mesh2-geometry' with 1 faces
g mesh2_mesh2-geometry
usemtl material_1_0
l  2 3

# Mesh 'mesh3_mesh3-geometry' with 1 faces
g mesh3_mesh3-geometry
usemtl material_1_0
l  4 1

# Mesh 'mesh4_mesh4-geometry' with 1 faces
g mesh4_mesh4-geometry
usemtl material_1_0
l  6 8

# Mesh 'mesh5_mesh5-geometry' with 1 faces
g mesh5_mesh5-geometry
usemtl material_1_0
l  7 5

# Mesh 'mesh6_mesh6-geometry' with 16 faces
g mesh6_mesh6-geometry
usemtl material_0_1_8
f  9/10/3 10/11/3 11/12/3
f  10/11/3 9/10/3 12/13/3
f  11/12/4 10/11/4 9/10/4
f  12/13/4 9/10/4 10/11/4
f  13/4/2 9/9/2 11/2/2
f  11/2/1 9/9/1 13/4/1
f  14/1/1 10/2/1 12/3/1
f  12/3/2 10/2/2 14/1/2
f  9/9/2 13/4/2 15/6/2
f  15/6/1 13/4/1 9/9/1
f  10/2/1 14/1/1 16/4/1
f  16/4/2 14/1/2 10/2/2
f  13/12/4 14/14/4 15/15/4
f  15/15/3 14/14/3 13/12/3
f  14/14/4 13/12/4 16/11/4
f  16/11/3 13/12/3 14/14/3

# Mesh 'mesh7_mesh7-geometry' with 1 faces
g mesh7_mesh7-geometry
usemtl material_1_0
l  11 9

# Mesh 'mesh8_mesh8-geometry' with 1 faces
g mesh8_mesh8-geometry
usemtl material_1_0
l  10 12

# Mesh 'mesh9_mesh9-geometry' with 1 faces
g mesh9_mesh9-geometry
usemtl material_1_0
l  16 14

# Mesh 'mesh10_mesh10-geometry' with 1 faces
g mesh10_mesh10-geometry
usemtl material_1_0
l  13 15

# Mesh 'mesh11_mesh11-geometry' with 24 faces
g mesh11_mesh11-geometry
usemtl material_0_1_8
f  17/16/3 18/11/3 19/17/3
f  18/11/3 17/16/3 20/18/3
f  19/17/4 18/11/4 17/16/4
f  20/18/4 17/16/4 18/11/4
f  18/11/5 21/19/5 19/18/5
f  19/18/6 21/19/6 18/11/6
f  21/20/2 17/18/2 19/11/2
f  19/11/1 17/18/1 21/20/1
f  17/21/6 22/20/6 20/11/6
f  20/11/5 22/20/5 17/21/5
f  22/22/1 18/11/1 20/21/1
f  20/21/2 18/11/2 22/22/2
f  21/19/5 18/11/5 23/20/5
f  23/20/6 18/11/6 21/19/6
f  17/18/2 21/20/2 24/19/2
f  24/19/1 21/20/1 17/18/1
f  22/20/6 17/21/6 24/22/6
f  24/22/5 17/21/5 22/20/5
f  18/11/1 22/22/1 23/20/1
f  23/20/2 22/22/2 18/11/2
f  22/21/4 21/17/4 23/11/4
f  23/11/3 21/17/3 22/21/3
f  21/17/4 22/21/4 24/23/4
f  24/23/3 22/21/3 21/17/3

# Mesh 'mesh12_mesh12-geometry' with 12 faces
g mesh12_mesh12-geometry
usemtl material_1_0
l  19 18
l  17 19
l  19 21
l  18 20
l  18 23
l  20 17
l  17 24
l  21 23
l  24 21
l  20 22
l  23 22
l  22 24

# Mesh 'mesh11_mesh11-geometry' with 24 faces
g mesh11_mesh11-geometry
usemtl material_0_1_8
f  25/16/3 26/11/3 27/17/3
f  26/11/3 25/16/3 28/18/3
f  27/17/4 26/11/4 25/16/4
f  28/18/4 25/16/4 26/11/4
f  26/11/5 29/19/5 27/18/5
f  27/18/6 29/19/6 26/11/6
f  29/20/2 25/18/2 27/11/2
f  27/11/1 25/18/1 29/20/1
f  25/21/6 30/20/6 28/11/6
f  28/11/5 30/20/5 25/21/5
f  30/22/1 26/11/1 28/21/1
f  28/21/2 26/11/2 30/22/2
f  29/19/5 26/11/5 31/20/5
f  31/20/6 26/11/6 29/19/6
f  25/18/2 29/20/2 32/19/2
f  32/19/1 29/20/1 25/18/1
f  30/20/6 25/21/6 32/22/6
f  32/22/5 25/21/5 30/20/5
f  26/11/1 30/22/1 31/20/1
f  31/20/2 30/22/2 26/11/2
f  30/21/4 29/17/4 31/11/4
f  31/11/3 29/17/3 30/21/3
f  29/17/4 30/21/4 32/23/4
f  32/23/3 30/21/3 29/17/3

# Mesh 'mesh12_mesh12-geometry' with 12 faces
g mesh12_mesh12-geometry
usemtl material_1_0
l  27 26
l  25 27
l  27 29
l  26 28
l  26 31
l  28 25
l  25 32
l  29 31
l  32 29
l  28 30
l  31 30
l  30 32

# Mesh 'mesh13_mesh13-geometry' with 24 faces
g mesh13_mesh13-geometry
usemtl material_0_1_8
f  33/24/3 34/17/3 35/25/3
f  34/17/3 33/24/3 36/26/3
f  35/25/4 34/17/4 33/24/4
f  36/26/4 33/24/4 34/17/4
f  34/27/5 37/28/5 35/29/5
f  35/29/6 37/28/6 34/27/6
f  37/30/2 33/31/2 35/32/2
f  35/32/1 33/31/1 37/30/1
f  33/33/6 38/34/6 36/35/6
f  36/35/5 38/34/5 33/33/5
f  38/36/1 34/32/1 36/37/1
f  36/37/2 34/32/2 38/36/2
f  37/28/5 34/27/5 39/38/5
f  39/38/6 34/27/6 37/28/6
f  33/31/2 37/30/2 40/39/2
f  40/39/1 37/30/1 33/31/1
f  38/34/6 33/33/6 40/40/6
f  40/40/5 33/33/5 38/34/5
f  34/32/1 38/36/1 39/30/1
f  39/30/2 38/36/2 34/32/2
f  38/41/4 37/25/4 39/17/4
f  39/17/3 37/25/3 38/41/3
f  37/25/4 38/41/4 40/42/4
f  40/42/3 38/41/3 37/25/3

# Mesh 'mesh14_mesh14-geometry' with 12 faces
g mesh14_mesh14-geometry
usemtl material_1_0
l  33 35
l  36 33
l  40 33
l  35 37
l  34 35
l  36 34
l  38 36
l  37 40
l  38 40
l  39 37
l  34 39
l  39 38

# Mesh 'mesh11_mesh11-geometry' with 24 faces
g mesh11_mesh11-geometry
usemtl material_0_1_8
f  41/16/3 42/11/3 43/17/3
f  42/11/3 41/16/3 44/18/3
f  43/17/4 42/11/4 41/16/4
f  44/18/4 41/16/4 42/11/4
f  42/11/6 45/19/6 43/18/6
f  43/18/5 45/19/5 42/11/5
f  45/20/1 41/18/1 43/11/1
f  43/11/2 41/18/2 45/20/2
f  41/21/5 46/20/5 44/11/5
f  44/11/6 46/20/6 41/21/6
f  46/22/2 42/11/2 44/21/2
f  44/21/1 42/11/1 46/22/1
f  45/19/6 42/11/6 47/20/6
f  47/20/5 42/11/5 45/19/5
f  41/18/1 45/20/1 48/19/1
f  48/19/2 45/20/2 41/18/2
f  46/20/5 41/21/5 48/22/5
f  48/22/6 41/21/6 46/20/6
f  42/11/2 46/22/2 47/20/2
f  47/20/1 46/22/1 42/11/1
f  46/21/4 45/17/4 47/11/4
f  47/11/3 45/17/3 46/21/3
f  45/17/4 46/21/4 48/23/4
f  48/23/3 46/21/3 45/17/3

# Mesh 'mesh12_mesh12-geometry' with 12 faces
g mesh12_mesh12-geometry
usemtl material_1_0
l  43 42
l  41 43
l  43 45
l  42 44
l  42 47
l  44 41
l  41 48
l  45 47
l  48 45
l  44 46
l  47 46
l  46 48

# Mesh 'mesh11_mesh11-geometry' with 24 faces
g mesh11_mesh11-geometry
usemtl material_0_1_8
f  49/16/3 50/11/3 51/17/3
f  50/11/3 49/16/3 52/18/3
f  51/17/4 50/11/4 49/16/4
f  52/18/4 49/16/4 50/11/4
f  50/11/6 53/19/6 51/18/6
f  51/18/5 53/19/5 50/11/5
f  53/20/1 49/18/1 51/11/1
f  51/11/2 49/18/2 53/20/2
f  49/21/5 54/20/5 52/11/5
f  52/11/6 54/20/6 49/21/6
f  54/22/2 50/11/2 52/21/2
f  52/21/1 50/11/1 54/22/1
f  53/19/6 50/11/6 55/20/6
f  55/20/5 50/11/5 53/19/5
f  49/18/1 53/20/1 56/19/1
f  56/19/2 53/20/2 49/18/2
f  54/20/5 49/21/5 56/22/5
f  56/22/6 49/21/6 54/20/6
f  50/11/2 54/22/2 55/20/2
f  55/20/1 54/22/1 50/11/1
f  54/21/4 53/17/4 55/11/4
f  55/11/3 53/17/3 54/21/3
f  53/17/4 54/21/4 56/23/4
f  56/23/3 54/21/3 53/17/3

# Mesh 'mesh12_mesh12-geometry' with 12 faces
g mesh12_mesh12-geometry
usemtl material_1_0
l  51 50
l  49 51
l  51 53
l  50 52
l  50 55
l  52 49
l  49 56
l  53 55
l  56 53
l  52 54
l  55 54
l  54 56

# Mesh 'mesh13_mesh13-geometry' with 24 faces
g mesh13_mesh13-geometry
usemtl material_0_1_8
f  57/24/3 58/17/3 59/25/3
f  58/17/3 57/24/3 60/26/3
f  59/25/4 58/17/4 57/24/4
f  60/26/4 57/24/4 58/17/4
f  58/27/6 61/28/6 59/29/6
f  59/29/5 61/28/5 58/27/5
f  61/30/1 57/31/1 59/32/1
f  59/32/2 57/31/2 61/30/2
f  57/33/5 62/34/5 60/35/5
f  60/35/6 62/34/6 57/33/6
f  62/36/2 58/32/2 60/37/2
f  60/37/1 58/32/1 62/36/1
f  61/28/6 58/27/6 63/38/6
f  63/38/5 58/27/5 61/28/5
f  57/31/1 61/30/1 64/39/1
f  64/39/2 61/30/2 57/31/2
f  62/34/5 57/33/5 64/40/5
f  64/40/6 57/33/6 62/34/6
f  58/32/2 62/36/2 63/30/2
f  63/30/1 62/36/1 58/32/1
f  62/41/4 61/25/4 63/17/4
f  63/17/3 61/25/3 62/41/3
f  61/25/4 62/41/4 64/42/4
f  64/42/3 62/41/3 61/25/3

# Mesh 'mesh14_mesh14-geometry' with 12 faces
g mesh14_mesh14-geometry
usemtl material_1_0
l  57 59
l  60 57
l  64 57
l  59 61
l  58 59
l  60 58
l  62 60
l  61 64
l  62 64
l  63 61
l  58 63
l  63 62

# Mesh 'mesh15_mesh15-geometry' with 32 faces
g mesh15_mesh15-geometry
usemtl material_0_1_8
f  65/43/4 66/44/4 67/45/4
f  66/44/4 65/43/4 68/46/4
f  67/45/3 66/44/3 65/43/3
f  68/46/3 65/43/3 66/44/3
f  66/47/5 69/48/5 67/49/5
f  67/49/6 69/48/6 66/47/6
f  69/17/1 65/50/1 67/51/1
f  67/51/2 65/50/2 69/17/2
f  65/52/6 15/53/6 68/54/6
f  68/54/5 15/53/5 65/52/5
f  70/16/2 66/51/2 68/55/2
f  68/55/1 66/51/1 70/16/1
f  69/48/5 66/47/5 71/56/5
f  71/56/6 66/47/6 69/48/6
f  65/50/1 69/17/1 72/23/1
f  72/23/2 69/17/2 65/50/2
f  15/53/6 65/52/6 72/57/6
f  72/57/5 65/52/5 15/53/5
f  68/54/6 15/53/6 1/58/6
f  1/58/5 15/53/5 68/54/5
f  66/51/2 70/16/2 71/17/2
f  71/17/1 70/16/1 66/51/1
f  68/54/6 1/58/6 70/59/6
f  70/59/5 1/58/5 68/54/5
f  70/60/3 69/45/3 71/44/3
f  71/44/4 69/45/4 70/60/4
f  72/61/3 69/45/3 15/62/3
f  15/62/4 69/45/4 72/61/4
f  15/62/3 70/60/3 1/63/3
f  1/63/4 70/60/4 15/62/4
f  69/45/3 70/60/3 15/62/3
f  15/62/4 70/60/4 69/45/4

# Mesh 'mesh16_mesh16-geometry' with 18 faces
g mesh16_mesh16-geometry
usemtl material_1_0
l  67 65
l  66 67
l  69 67
l  65 68
l  65 72
l  68 66
l  71 66
l  69 72
l  71 69
l  70 68
l  72 15
l  70 71
l  1 70
l  9 15
l  15 1
l  3 1
l  12 9
l  5 3

# Mesh 'mesh15_mesh15-geometry' with 32 faces
g mesh15_mesh15-geometry
usemtl material_0_1_8
f  73/43/4 74/44/4 75/45/4
f  74/44/4 73/43/4 76/46/4
f  75/45/3 74/44/3 73/43/3
f  76/46/3 73/43/3 74/44/3
f  74/47/5 77/48/5 75/49/5
f  75/49/6 77/48/6 74/47/6
f  77/17/1 73/50/1 75/51/1
f  75/51/2 73/50/2 77/17/2
f  73/52/6 78/53/6 76/54/6
f  76/54/5 78/53/5 73/52/5
f  79/16/2 74/51/2 76/55/2
f  76/55/1 74/51/1 79/16/1
f  77/48/5 74/47/5 80/56/5
f  80/56/6 74/47/6 77/48/6
f  73/50/1 77/17/1 81/23/1
f  81/23/2 77/17/2 73/50/2
f  78/53/6 73/52/6 81/57/6
f  81/57/5 73/52/5 78/53/5
f  76/54/6 78/53/6 82/58/6
f  82/58/5 78/53/5 76/54/5
f  74/51/2 79/16/2 80/17/2
f  80/17/1 79/16/1 74/51/1
f  76/54/6 82/58/6 79/59/6
f  79/59/5 82/58/5 76/54/5
f  79/60/3 77/45/3 80/44/3
f  80/44/4 77/45/4 79/60/4
f  81/61/3 77/45/3 78/62/3
f  78/62/4 77/45/4 81/61/4
f  78/62/3 79/60/3 82/63/3
f  82/63/4 79/60/4 78/62/4
f  77/45/3 79/60/3 78/62/3
f  78/62/4 79/60/4 77/45/4

# Mesh 'mesh16_mesh16-geometry' with 18 faces
g mesh16_mesh16-geometry
usemtl material_1_0
l  75 73
l  74 75
l  77 75
l  73 76
l  73 81
l  76 74
l  80 74
l  77 81
l  80 77
l  79 76
l  81 78
l  79 80
l  82 79
l  83 78
l  78 82
l  84 82
l  85 83
l  86 84

# Mesh 'mesh15_mesh15-geometry' with 32 faces
g mesh15_mesh15-geometry
usemtl material_0_1_8
f  87/43/4 88/44/4 89/45/4
f  88/44/4 87/43/4 90/46/4
f  89/45/3 88/44/3 87/43/3
f  90/46/3 87/43/3 88/44/3
f  88/47/5 91/48/5 89/49/5
f  89/49/6 91/48/6 88/47/6
f  91/17/1 87/50/1 89/51/1
f  89/51/2 87/50/2 91/17/2
f  87/52/6 92/53/6 90/54/6
f  90/54/5 92/53/5 87/52/5
f  93/16/2 88/51/2 90/55/2
f  90/55/1 88/51/1 93/16/1
f  91/48/5 88/47/5 94/56/5
f  94/56/6 88/47/6 91/48/6
f  87/50/1 91/17/1 95/23/1
f  95/23/2 91/17/2 87/50/2
f  92/53/6 87/52/6 95/57/6
f  95/57/5 87/52/5 92/53/5
f  90/54/6 92/53/6 96/58/6
f  96/58/5 92/53/5 90/54/5
f  88/51/2 93/16/2 94/17/2
f  94/17/1 93/16/1 88/51/1
f  90/54/6 96/58/6 93/59/6
f  93/59/5 96/58/5 90/54/5
f  93/60/3 91/45/3 94/44/3
f  94/44/4 91/45/4 93/60/4
f  95/61/3 91/45/3 92/62/3
f  92/62/4 91/45/4 95/61/4
f  92/62/3 93/60/3 96/63/3
f  96/63/4 93/60/4 92/62/4
f  91/45/3 93/60/3 92/62/3
f  92/62/4 93/60/4 91/45/4

# Mesh 'mesh16_mesh16-geometry' with 18 faces
g mesh16_mesh16-geometry
usemtl material_1_0
l  89 87
l  88 89
l  91 89
l  87 90
l  87 95
l  90 88
l  94 88
l  91 95
l  94 91
l  93 90
l  95 92
l  93 94
l  96 93
l  97 92
l  92 96
l  98 96
l  99 97
l  100 98

# Mesh 'mesh15_mesh15-geometry' with 32 faces
g mesh15_mesh15-geometry
usemtl material_0_1_8
f  101/43/4 102/44/4 103/45/4
f  102/44/4 101/43/4 104/46/4
f  103/45/3 102/44/3 101/43/3
f  104/46/3 101/43/3 102/44/3
f  102/47/5 105/48/5 103/49/5
f  103/49/6 105/48/6 102/47/6
f  105/17/1 101/50/1 103/51/1
f  103/51/2 101/50/2 105/17/2
f  101/52/6 106/53/6 104/54/6
f  104/54/5 106/53/5 101/52/5
f  107/16/2 102/51/2 104/55/2
f  104/55/1 102/51/1 107/16/1
f  105/48/5 102/47/5 108/56/5
f  108/56/6 102/47/6 105/48/6
f  101/50/1 105/17/1 109/23/1
f  109/23/2 105/17/2 101/50/2
f  106/53/6 101/52/6 109/57/6
f  109/57/5 101/52/5 106/53/5
f  104/54/6 106/53/6 110/58/6
f  110/58/5 106/53/5 104/54/5
f  102/51/2 107/16/2 108/17/2
f  108/17/1 107/16/1 102/51/1
f  104/54/6 110/58/6 107/59/6
f  107/59/5 110/58/5 104/54/5
f  107/60/3 105/45/3 108/44/3
f  108/44/4 105/45/4 107/60/4
f  109/61/3 105/45/3 106/62/3
f  106/62/4 105/45/4 109/61/4
f  106/62/3 107/60/3 110/63/3
f  110/63/4 107/60/4 106/62/4
f  105/45/3 107/60/3 106/62/3
f  106/62/4 107/60/4 105/45/4

# Mesh 'mesh16_mesh16-geometry' with 18 faces
g mesh16_mesh16-geometry
usemtl material_1_0
l  103 101
l  102 103
l  105 103
l  101 104
l  101 109
l  104 102
l  108 102
l  105 109
l  108 105
l  107 104
l  109 106
l  107 108
l  110 107
l  111 106
l  106 110
l  112 110
l  113 111
l  114 112

# Mesh 'mesh17_mesh17-geometry' with 24 faces
g mesh17_mesh17-geometry
usemtl material_0_1_8
f  115/64/3 31/11/3 29/17/3
f  31/11/3 115/64/3 45/65/3
f  29/17/4 31/11/4 115/64/4
f  45/65/4 115/64/4 31/11/4
f  31/11/5 116/61/5 29/18/5
f  29/18/6 116/61/6 31/11/6
f  116/45/2 115/65/2 29/11/2
f  29/11/1 115/65/1 116/45/1
f  115/21/6 117/45/6 45/11/6
f  45/11/5 117/45/5 115/21/5
f  117/66/1 31/11/1 45/67/1
f  45/67/2 31/11/2 117/66/2
f  116/61/5 31/11/5 118/45/5
f  118/45/6 31/11/6 116/61/6
f  115/65/2 116/45/2 119/68/2
f  119/68/1 116/45/1 115/65/1
f  117/45/6 115/21/6 119/43/6
f  119/43/5 115/21/5 117/45/5
f  31/11/1 117/66/1 118/45/1
f  118/45/2 117/66/2 31/11/2
f  117/67/4 116/17/4 118/11/4
f  118/11/3 116/17/3 117/67/3
f  116/17/4 117/67/4 119/69/4
f  119/69/3 117/67/3 116/17/3

# Mesh 'mesh18_mesh18-geometry' with 12 faces
g mesh18_mesh18-geometry
usemtl material_1_0
l  29 115
l  31 29
l  29 116
l  115 45
l  115 119
l  45 31
l  31 118
l  118 116
l  116 119
l  45 117
l  119 117
l  117 118

# Mesh 'mesh17_mesh17-geometry' with 24 faces
g mesh17_mesh17-geometry
usemtl material_0_1_8
f  120/64/3 23/11/3 21/17/3
f  23/11/3 120/64/3 121/65/3
f  21/17/4 23/11/4 120/64/4
f  121/65/4 120/64/4 23/11/4
f  23/11/5 122/61/5 21/18/5
f  21/18/6 122/61/6 23/11/6
f  122/45/2 120/65/2 21/11/2
f  21/11/1 120/65/1 122/45/1
f  120/21/6 123/45/6 121/11/6
f  121/11/5 123/45/5 120/21/5
f  123/66/1 23/11/1 121/67/1
f  121/67/2 23/11/2 123/66/2
f  122/61/5 23/11/5 124/45/5
f  124/45/6 23/11/6 122/61/6
f  120/65/2 122/45/2 125/68/2
f  125/68/1 122/45/1 120/65/1
f  123/45/6 120/21/6 125/43/6
f  125/43/5 120/21/5 123/45/5
f  23/11/1 123/66/1 124/45/1
f  124/45/2 123/66/2 23/11/2
f  123/67/4 122/17/4 124/11/4
f  124/11/3 122/17/3 123/67/3
f  122/17/4 123/67/4 125/69/4
f  125/69/3 123/67/3 122/17/3

# Mesh 'mesh18_mesh18-geometry' with 12 faces
g mesh18_mesh18-geometry
usemtl material_1_0
l  21 120
l  23 21
l  21 122
l  120 121
l  120 125
l  121 23
l  23 124
l  124 122
l  122 125
l  121 123
l  125 123
l  123 124

# Mesh 'mesh17_mesh17-geometry' with 24 faces
g mesh17_mesh17-geometry
usemtl material_0_1_8
f  126/64/3 127/11/3 128/17/3
f  127/11/3 126/64/3 129/65/3
f  128/17/4 127/11/4 126/64/4
f  129/65/4 126/64/4 127/11/4
f  127/11/5 130/61/5 128/18/5
f  128/18/6 130/61/6 127/11/6
f  130/45/2 126/65/2 128/11/2
f  128/11/1 126/65/1 130/45/1
f  126/21/6 131/45/6 129/11/6
f  129/11/5 131/45/5 126/21/5
f  131/66/1 127/11/1 129/67/1
f  129/67/2 127/11/2 131/66/2
f  130/61/5 127/11/5 132/45/5
f  132/45/6 127/11/6 130/61/6
f  126/65/2 130/45/2 133/68/2
f  133/68/1 130/45/1 126/65/1
f  131/45/6 126/21/6 133/43/6
f  133/43/5 126/21/5 131/45/5
f  127/11/1 131/66/1 132/45/1
f  132/45/2 131/66/2 127/11/2
f  131/67/4 130/17/4 132/11/4
f  132/11/3 130/17/3 131/67/3
f  130/17/4 131/67/4 133/69/4
f  133/69/3 131/67/3 130/17/3

# Mesh 'mesh18_mesh18-geometry' with 12 faces
g mesh18_mesh18-geometry
usemtl material_1_0
l  128 126
l  127 128
l  128 130
l  126 129
l  126 133
l  129 127
l  127 132
l  132 130
l  130 133
l  129 131
l  133 131
l  131 132

# Mesh 'mesh17_mesh17-geometry' with 24 faces
g mesh17_mesh17-geometry
usemtl material_0_1_8
f  134/64/3 135/11/3 136/17/3
f  135/11/3 134/64/3 137/65/3
f  136/17/4 135/11/4 134/64/4
f  137/65/4 134/64/4 135/11/4
f  135/11/5 138/61/5 136/18/5
f  136/18/6 138/61/6 135/11/6
f  138/45/2 134/65/2 136/11/2
f  136/11/1 134/65/1 138/45/1
f  134/21/6 139/45/6 137/11/6
f  137/11/5 139/45/5 134/21/5
f  139/66/1 135/11/1 137/67/1
f  137/67/2 135/11/2 139/66/2
f  138/61/5 135/11/5 140/45/5
f  140/45/6 135/11/6 138/61/6
f  134/65/2 138/45/2 141/68/2
f  141/68/1 138/45/1 134/65/1
f  139/45/6 134/21/6 141/43/6
f  141/43/5 134/21/5 139/45/5
f  135/11/1 139/66/1 140/45/1
f  140/45/2 139/66/2 135/11/2
f  139/67/4 138/17/4 140/11/4
f  140/11/3 138/17/3 139/67/3
f  138/17/4 139/67/4 141/69/4
f  141/69/3 139/67/3 138/17/3

# Mesh 'mesh18_mesh18-geometry' with 12 faces
g mesh18_mesh18-geometry
usemtl material_1_0
l  136 134
l  135 136
l  136 138
l  134 137
l  134 141
l  137 135
l  135 140
l  140 138
l  138 141
l  137 139
l  141 139
l  139 140

# Mesh 'mesh17_mesh17-geometry' with 24 faces
g mesh17_mesh17-geometry
usemtl material_0_1_8
f  142/64/3 143/11/3 144/17/3
f  143/11/3 142/64/3 145/65/3
f  144/17/4 143/11/4 142/64/4
f  145/65/4 142/64/4 143/11/4
f  143/11/5 146/61/5 144/18/5
f  144/18/6 146/61/6 143/11/6
f  146/45/2 142/65/2 144/11/2
f  144/11/1 142/65/1 146/45/1
f  142/21/6 147/45/6 145/11/6
f  145/11/5 147/45/5 142/21/5
f  147/66/1 143/11/1 145/67/1
f  145/67/2 143/11/2 147/66/2
f  146/61/5 143/11/5 148/45/5
f  148/45/6 143/11/6 146/61/6
f  142/65/2 146/45/2 149/68/2
f  149/68/1 146/45/1 142/65/1
f  147/45/6 142/21/6 149/43/6
f  149/43/5 142/21/5 147/45/5
f  143/11/1 147/66/1 148/45/1
f  148/45/2 147/66/2 143/11/2
f  147/67/4 146/17/4 148/11/4
f  148/11/3 146/17/3 147/67/3
f  146/17/4 147/67/4 149/69/4
f  149/69/3 147/67/3 146/17/3

# Mesh 'mesh18_mesh18-geometry' with 12 faces
g mesh18_mesh18-geometry
usemtl material_1_0
l  144 142
l  143 144
l  144 146
l  142 145
l  142 149
l  145 143
l  143 148
l  148 146
l  146 149
l  145 147
l  149 147
l  147 148

# Mesh 'mesh19_mesh19-geometry' with 4 faces
g mesh19_mesh19-geometry
usemtl material_1_24
f  13//5 10//5 16//5
f  10//5 13//5 11//5
f  16//6 10//6 13//6
f  11//6 13//6 10//6

# Mesh 'mesh20_mesh20-geometry' with 4 faces
g mesh20_mesh20-geometry
usemtl material_1_24
f  6//5 2//5 4//5
f  2//5 6//5 7//5
f  4//6 2//6 6//6
f  7//6 6//6 2//6

