# File produced by Open Asset Import Library (http://www.assimp.sf.net)
# (assimp v3.2.202087883)

mtllib model_normalized.mtl

# 142 vertex positions
v 0.405539 -0.005981 0.059151
v 0.405539 0.187507 0.081406
v 0.405539 0.183146 0.101079
v 0.405539 0.014171 0.042978
v 0.365237 0.183473 0.099604
v 0.365237 0.183146 0.101079
v 0.405539 -0.005981 -0.128220
v 0.365237 0.187507 0.081406
v 0.365237 -0.005981 0.059151
v 0.405539 0.014171 -0.128220
v 0.365237 0.014171 0.042978
v 0.365237 -0.004469 0.057938
v 0.345086 0.183473 0.099604
v 0.345086 -0.005981 0.059151
v 0.365237 -0.005981 -0.128220
v 0.365237 -0.004469 -0.128220
v 0.365237 0.014171 -0.128220
v 0.345086 0.183146 0.101079
v 0.345086 -0.004469 0.057938
v 0.345086 -0.005981 -0.128220
v 0.345086 -0.004469 -0.128220
v -0.365237 -0.004469 -0.128220
v 0.365237 0.015682 -0.128220
v -0.365237 0.015682 -0.128220
v 0.365237 -0.004469 -0.082881
v -0.365237 0.015682 -0.082881
v 0.365237 0.015682 -0.082881
v -0.365237 -0.004469 -0.082881
v -0.405539 0.183146 0.101079
v -0.405539 0.187507 0.081406
v -0.405539 -0.005981 0.059151
v -0.365237 0.183473 0.099604
v -0.405539 0.014171 0.042978
v -0.365237 0.183146 0.101079
v -0.365237 0.187507 0.081406
v -0.405539 -0.005981 -0.128220
v -0.365237 -0.005981 0.059151
v -0.345086 0.183473 0.099604
v -0.365237 -0.004469 0.057938
v -0.405539 0.014171 -0.128220
v -0.365237 0.014171 0.042978
v -0.345086 -0.005981 0.059151
v -0.345086 0.183146 0.101079
v -0.365237 -0.005981 -0.128220
v -0.365237 0.014171 -0.128220
v -0.345086 -0.004469 0.057938
v -0.345086 -0.005981 -0.128220
v -0.345086 -0.004469 -0.128220
v -0.365237 -0.004469 -0.075324
v 0.365237 0.015682 -0.075324
v 0.365237 -0.004469 -0.075324
v -0.365237 0.015682 -0.075324
v 0.365237 -0.004469 -0.029984
v -0.365237 0.015682 -0.029984
v 0.365237 0.015682 -0.029984
v -0.365237 -0.004469 -0.029984
v -0.365237 -0.004469 -0.022427
v 0.365237 0.015682 -0.022427
v 0.365237 -0.004469 -0.022427
v -0.365237 0.015682 -0.022427
v 0.365237 -0.004469 0.022913
v -0.365237 0.015682 0.022913
v 0.365237 0.015682 0.022913
v -0.365237 -0.004469 0.022913
v -0.365237 0.187834 0.079930
v 0.365237 0.187834 0.079930
v 0.365237 0.143569 0.070117
v -0.365237 0.139207 0.089791
v 0.365237 0.139207 0.089791
v -0.365237 0.143569 0.070117
v -0.365237 0.136191 0.068482
v 0.365237 0.131830 0.088155
v 0.365237 0.136191 0.068482
v -0.365237 0.131830 0.088155
v 0.365237 0.091926 0.058668
v -0.365237 0.087565 0.078342
v 0.365237 0.087565 0.078342
v -0.365237 0.091926 0.058668
v -0.365237 0.084549 0.057033
v 0.365237 0.080187 0.076706
v 0.365237 0.084549 0.057033
v -0.365237 0.080187 0.076706
v 0.365237 0.040284 0.047219
v -0.365237 0.035922 0.066893
v 0.365237 0.035922 0.066893
v -0.365237 0.040284 0.047219
v -0.405539 -0.131925 -0.012521
v 0.405539 -0.131925 0.007630
v -0.405539 -0.131925 0.007630
v 0.405539 -0.131925 -0.012521
v -0.405539 -0.111774 0.007630
v 0.405539 -0.111774 -0.012521
v 0.405539 -0.111774 0.007630
v -0.405539 -0.111774 -0.012521
v -0.445841 -0.131925 -0.097933
v -0.405539 -0.131925 0.067681
v -0.445841 -0.131925 0.067681
v -0.405539 -0.131925 -0.097933
v -0.445841 -0.111774 0.065815
v -0.405539 -0.111774 -0.097933
v -0.405539 -0.111774 0.065815
v -0.445841 -0.111774 -0.097933
v -0.405539 -0.202453 -0.118084
v -0.445841 -0.202453 0.094449
v -0.445841 -0.202453 -0.118084
v -0.405539 -0.202453 0.094449
v -0.445841 -0.182302 -0.097933
v -0.405539 0.069586 -0.118084
v -0.405539 -0.182302 -0.097933
v -0.405539 0.069586 0.069260
v -0.445841 0.069586 -0.118084
v -0.445841 -0.182302 0.072346
v -0.405539 0.049435 -0.097933
v -0.405539 -0.182302 0.072346
v -0.445841 0.069586 0.069260
v -0.445841 0.049435 -0.097933
v -0.405539 0.049435 0.050889
v -0.445841 0.049435 0.050889
v 0.405539 -0.131925 -0.097933
v 0.445841 -0.131925 0.067681
v 0.405539 -0.131925 0.067681
v 0.445841 -0.131925 -0.097933
v 0.405539 -0.111774 0.065815
v 0.445841 -0.111774 -0.097933
v 0.445841 -0.111774 0.065815
v 0.405539 -0.111774 -0.097933
v 0.445841 -0.202453 -0.118084
v 0.405539 -0.202453 0.094449
v 0.405539 -0.202453 -0.118084
v 0.445841 -0.202453 0.094449
v 0.405539 -0.182302 -0.097933
v 0.445841 0.069586 -0.118084
v 0.445841 -0.182302 -0.097933
v 0.445841 0.069586 0.069260
v 0.405539 0.069586 -0.118084
v 0.405539 -0.182302 0.072346
v 0.445841 0.049435 -0.097933
v 0.445841 -0.182302 0.072346
v 0.405539 0.069586 0.069260
v 0.405539 0.049435 -0.097933
v 0.445841 0.049435 0.050889
v 0.405539 0.049435 0.050889

# 0 UV coordinates

# 12 vertex normals
vn 0.01 0 -0
vn -0.01 0 0
vn 0 0.00976296 0.0021644
vn 0 -0.00976296 -0.0021644
vn 0 -0.0021644 0.00976296
vn 0 0.0021644 -0.00976296
vn 0 -0.01 -0
vn 0 0.01 0
vn 0 0 -0.01
vn 0 0 0.01
vn 0 0.00092198 0.00995741
vn 0 -0.00092198 -0.00995741

# Mesh 'mesh1_mesh1-geometry' with 84 faces
g mesh1_mesh1-geometry
usemtl material_0_24
f  1//1 2//1 3//1
f  2//1 1//1 4//1
f  3//2 2//2 1//2
f  4//2 1//2 2//2
f  2//3 5//3 3//3
f  3//4 5//4 2//4
f  6//5 1//5 3//5
f  3//6 1//6 6//6
f  4//1 1//1 7//1
f  7//2 1//2 4//2
f  4//6 8//6 2//6
f  2//5 8//5 4//5
f  5//3 2//3 8//3
f  8//4 2//4 5//4
f  3//3 5//3 6//3
f  6//4 5//4 3//4
f  1//5 6//5 9//5
f  9//6 6//6 1//6
f  9//7 7//7 1//7
f  1//8 7//8 9//8
f  4//1 7//1 10//1
f  10//2 7//2 4//2
f  8//6 4//6 11//6
f  11//5 4//5 8//5
f  8//2 12//2 5//2
f  5//1 12//1 8//1
f  5//2 9//2 6//2
f  6//1 9//1 5//1
f  13//3 6//3 5//3
f  5//4 6//4 13//4
f  6//5 14//5 9//5
f  9//6 14//6 6//6
f  7//7 9//7 15//7
f  15//8 9//8 7//8
f  7//9 16//9 10//9
f  10//10 16//10 7//10
f  17//8 4//8 10//8
f  10//7 4//7 17//7
f  4//8 17//8 11//8
f  11//7 17//7 4//7
f  12//2 8//2 11//2
f  11//1 8//1 12//1
f  9//2 5//2 12//2
f  12//1 5//1 9//1
f  12//6 13//6 5//6
f  5//5 13//5 12//5
f  6//3 13//3 18//3
f  18//4 13//4 6//4
f  14//5 6//5 18//5
f  18//6 6//6 14//6
f  14//7 15//7 9//7
f  9//8 15//8 14//8
f  9//2 12//2 15//2
f  15//1 12//1 9//1
f  16//9 7//9 15//9
f  15//10 7//10 16//10
f  10//9 16//9 17//9
f  17//10 16//10 10//10
f  16//2 11//2 17//2
f  17//1 11//1 16//1
f  12//2 11//2 16//2
f  16//1 11//1 12//1
f  13//6 12//6 19//6
f  19//5 12//5 13//5
f  13//2 14//2 18//2
f  18//1 14//1 13//1
f  15//7 14//7 20//7
f  20//8 14//8 15//8
f  15//2 12//2 16//2
f  16//1 12//1 15//1
f  15//9 21//9 16//9
f  16//10 21//10 15//10
f  21//8 12//8 16//8
f  16//7 12//7 21//7
f  12//8 21//8 19//8
f  19//7 21//7 12//7
f  14//2 13//2 19//2
f  19//1 13//1 14//1
f  14//2 19//2 20//2
f  20//1 19//1 14//1
f  21//9 15//9 20//9
f  20//10 15//10 21//10
f  20//2 19//2 21//2
f  21//1 19//1 20//1

# Mesh 'mesh2_mesh2-geometry' with 34 faces
g mesh2_mesh2-geometry
usemtl material_1_0
l  9 6
l  9 1
l  9 14
l  15 9
l  6 18
l  6 5
l  6 3
l  1 3
l  7 1
l  20 14
l  14 18
l  15 20
l  15 16
l  15 7
l  18 13
l  12 5
l  5 13
l  5 8
l  3 2
l  7 10
l  20 21
l  16 21
l  16 17
l  16 12
l  19 13
l  12 19
l  11 8
l  8 2
l  4 2
l  10 4
l  17 10
l  21 19
l  17 11
l  11 4

# Mesh 'mesh3_mesh3-geometry' with 24 faces
g mesh3_mesh3-geometry
usemtl material_2_24
f  22//9 23//9 16//9
f  23//9 22//9 24//9
f  16//10 23//10 22//10
f  24//10 22//10 23//10
f  23//1 25//1 16//1
f  16//2 25//2 23//2
f  25//7 22//7 16//7
f  16//8 22//8 25//8
f  22//2 26//2 24//2
f  24//1 26//1 22//1
f  26//8 23//8 24//8
f  24//7 23//7 26//7
f  25//1 23//1 27//1
f  27//2 23//2 25//2
f  22//7 25//7 28//7
f  28//8 25//8 22//8
f  26//2 22//2 28//2
f  28//1 22//1 26//1
f  23//8 26//8 27//8
f  27//7 26//7 23//7
f  26//10 25//10 27//10
f  27//9 25//9 26//9
f  25//10 26//10 28//10
f  28//9 26//9 25//9

# Mesh 'mesh4_mesh4-geometry' with 12 faces
g mesh4_mesh4-geometry
usemtl material_1_0
l  25 28
l  16 25
l  25 27
l  28 26
l  28 22
l  22 16
l  16 23
l  23 27
l  27 26
l  26 24
l  22 24
l  24 23

# Mesh 'mesh5_mesh5-geometry' with 84 faces
g mesh5_mesh5-geometry
usemtl material_0_24
f  29//2 30//2 31//2
f  31//1 30//1 29//1
f  29//3 32//3 30//3
f  30//4 32//4 29//4
f  33//2 31//2 30//2
f  30//1 31//1 33//1
f  29//5 31//5 34//5
f  34//6 31//6 29//6
f  34//3 32//3 29//3
f  29//4 32//4 34//4
f  35//3 30//3 32//3
f  32//4 30//4 35//4
f  36//2 31//2 33//2
f  33//1 31//1 36//1
f  30//6 35//6 33//6
f  33//5 35//5 30//5
f  37//5 34//5 31//5
f  31//6 34//6 37//6
f  34//1 37//1 32//1
f  32//2 37//2 34//2
f  32//3 34//3 38//3
f  38//4 34//4 32//4
f  32//1 39//1 35//1
f  35//2 39//2 32//2
f  31//7 36//7 37//7
f  37//8 36//8 31//8
f  40//2 36//2 33//2
f  33//1 36//1 40//1
f  41//6 33//6 35//6
f  35//5 33//5 41//5
f  37//5 42//5 34//5
f  34//6 42//6 37//6
f  39//1 32//1 37//1
f  37//2 32//2 39//2
f  43//3 38//3 34//3
f  34//4 38//4 43//4
f  32//6 38//6 39//6
f  39//5 38//5 32//5
f  41//1 35//1 39//1
f  39//2 35//2 41//2
f  44//7 37//7 36//7
f  36//8 37//8 44//8
f  40//9 22//9 36//9
f  36//10 22//10 40//10
f  40//8 33//8 45//8
f  45//7 33//7 40//7
f  41//8 45//8 33//8
f  33//7 45//7 41//7
f  37//7 44//7 42//7
f  42//8 44//8 37//8
f  43//5 34//5 42//5
f  42//6 34//6 43//6
f  44//1 39//1 37//1
f  37//2 39//2 44//2
f  43//1 42//1 38//1
f  38//2 42//2 43//2
f  46//6 39//6 38//6
f  38//5 39//5 46//5
f  22//1 41//1 39//1
f  39//2 41//2 22//2
f  44//9 36//9 22//9
f  22//10 36//10 44//10
f  45//9 22//9 40//9
f  40//10 22//10 45//10
f  45//1 41//1 22//1
f  22//2 41//2 45//2
f  47//7 42//7 44//7
f  44//8 42//8 47//8
f  22//1 39//1 44//1
f  44//2 39//2 22//2
f  46//1 38//1 42//1
f  42//2 38//2 46//2
f  46//8 48//8 39//8
f  39//7 48//7 46//7
f  22//8 39//8 48//8
f  48//7 39//7 22//7
f  22//9 48//9 44//9
f  44//10 48//10 22//10
f  47//1 46//1 42//1
f  42//2 46//2 47//2
f  47//9 44//9 48//9
f  48//10 44//10 47//10
f  48//1 46//1 47//1
f  47//2 46//2 48//2

# Mesh 'mesh6_mesh6-geometry' with 34 faces
g mesh6_mesh6-geometry
usemtl material_1_0
l  34 32
l  37 34
l  34 43
l  34 29
l  39 32
l  32 38
l  32 35
l  37 31
l  37 42
l  44 37
l  43 38
l  42 43
l  31 29
l  29 30
l  39 46
l  22 39
l  46 38
l  41 35
l  35 30
l  36 31
l  47 42
l  44 47
l  44 22
l  44 36
l  33 30
l  48 46
l  22 48
l  22 45
l  41 33
l  45 41
l  36 40
l  47 48
l  40 33
l  45 40

# Mesh 'mesh7_mesh7-geometry' with 24 faces
g mesh7_mesh7-geometry
usemtl material_2_24
f  49//9 50//9 51//9
f  50//9 49//9 52//9
f  51//10 50//10 49//10
f  52//10 49//10 50//10
f  50//1 53//1 51//1
f  51//2 53//2 50//2
f  53//7 49//7 51//7
f  51//8 49//8 53//8
f  49//2 54//2 52//2
f  52//1 54//1 49//1
f  54//8 50//8 52//8
f  52//7 50//7 54//7
f  53//1 50//1 55//1
f  55//2 50//2 53//2
f  49//7 53//7 56//7
f  56//8 53//8 49//8
f  54//2 49//2 56//2
f  56//1 49//1 54//1
f  50//8 54//8 55//8
f  55//7 54//7 50//7
f  54//10 53//10 55//10
f  55//9 53//9 54//9
f  53//10 54//10 56//10
f  56//9 54//9 53//9

# Mesh 'mesh8_mesh8-geometry' with 12 faces
g mesh8_mesh8-geometry
usemtl material_1_0
l  53 56
l  51 53
l  53 55
l  56 54
l  56 49
l  49 51
l  51 50
l  50 55
l  55 54
l  54 52
l  49 52
l  52 50

# Mesh 'mesh9_mesh9-geometry' with 24 faces
g mesh9_mesh9-geometry
usemtl material_2_24
f  57//9 58//9 59//9
f  58//9 57//9 60//9
f  59//10 58//10 57//10
f  60//10 57//10 58//10
f  58//1 61//1 59//1
f  59//2 61//2 58//2
f  61//7 57//7 59//7
f  59//8 57//8 61//8
f  57//2 62//2 60//2
f  60//1 62//1 57//1
f  62//8 58//8 60//8
f  60//7 58//7 62//7
f  61//1 58//1 63//1
f  63//2 58//2 61//2
f  57//7 61//7 64//7
f  64//8 61//8 57//8
f  62//2 57//2 64//2
f  64//1 57//1 62//1
f  58//8 62//8 63//8
f  63//7 62//7 58//7
f  62//10 61//10 63//10
f  63//9 61//9 62//9
f  61//10 62//10 64//10
f  64//9 62//9 61//9

# Mesh 'mesh10_mesh10-geometry' with 12 faces
g mesh10_mesh10-geometry
usemtl material_1_0
l  61 64
l  59 61
l  61 63
l  64 62
l  64 57
l  57 59
l  59 58
l  58 63
l  63 62
l  62 60
l  57 60
l  60 58

# Mesh 'mesh11_mesh11-geometry' with 24 faces
g mesh11_mesh11-geometry
usemtl material_2_24
f  65//3 5//3 66//3
f  5//3 65//3 32//3
f  66//4 5//4 65//4
f  32//4 65//4 5//4
f  5//1 67//1 66//1
f  66//2 67//2 5//2
f  67//6 65//6 66//6
f  66//5 65//5 67//5
f  65//2 68//2 32//2
f  32//1 68//1 65//1
f  68//5 5//5 32//5
f  32//6 5//6 68//6
f  67//1 5//1 69//1
f  69//2 5//2 67//2
f  65//6 67//6 70//6
f  70//5 67//5 65//5
f  68//2 65//2 70//2
f  70//1 65//1 68//1
f  5//5 68//5 69//5
f  69//6 68//6 5//6
f  68//4 67//4 69//4
f  69//3 67//3 68//3
f  67//4 68//4 70//4
f  70//3 68//3 67//3

# Mesh 'mesh12_mesh12-geometry' with 12 faces
g mesh12_mesh12-geometry
usemtl material_1_0
l  67 70
l  66 67
l  67 69
l  70 68
l  70 65
l  65 66
l  66 5
l  5 69
l  69 68
l  68 32
l  65 32
l  32 5

# Mesh 'mesh13_mesh13-geometry' with 24 faces
g mesh13_mesh13-geometry
usemtl material_2_24
f  71//3 72//3 73//3
f  72//3 71//3 74//3
f  73//4 72//4 71//4
f  74//4 71//4 72//4
f  72//1 75//1 73//1
f  73//2 75//2 72//2
f  75//6 71//6 73//6
f  73//5 71//5 75//5
f  71//2 76//2 74//2
f  74//1 76//1 71//1
f  76//5 72//5 74//5
f  74//6 72//6 76//6
f  75//1 72//1 77//1
f  77//2 72//2 75//2
f  71//6 75//6 78//6
f  78//5 75//5 71//5
f  76//2 71//2 78//2
f  78//1 71//1 76//1
f  72//5 76//5 77//5
f  77//6 76//6 72//6
f  76//4 75//4 77//4
f  77//3 75//3 76//3
f  75//4 76//4 78//4
f  78//3 76//3 75//3

# Mesh 'mesh14_mesh14-geometry' with 12 faces
g mesh14_mesh14-geometry
usemtl material_1_0
l  75 78
l  73 75
l  75 77
l  78 76
l  78 71
l  71 73
l  73 72
l  72 77
l  77 76
l  76 74
l  71 74
l  74 72

# Mesh 'mesh15_mesh15-geometry' with 24 faces
g mesh15_mesh15-geometry
usemtl material_2_24
f  79//3 80//3 81//3
f  80//3 79//3 82//3
f  81//4 80//4 79//4
f  82//4 79//4 80//4
f  80//1 83//1 81//1
f  81//2 83//2 80//2
f  83//6 79//6 81//6
f  81//5 79//5 83//5
f  79//2 84//2 82//2
f  82//1 84//1 79//1
f  84//5 80//5 82//5
f  82//6 80//6 84//6
f  83//1 80//1 85//1
f  85//2 80//2 83//2
f  79//6 83//6 86//6
f  86//5 83//5 79//5
f  84//2 79//2 86//2
f  86//1 79//1 84//1
f  80//5 84//5 85//5
f  85//6 84//6 80//6
f  84//4 83//4 85//4
f  85//3 83//3 84//3
f  83//4 84//4 86//4
f  86//3 84//3 83//3

# Mesh 'mesh16_mesh16-geometry' with 12 faces
g mesh16_mesh16-geometry
usemtl material_1_0
l  83 86
l  81 83
l  83 85
l  86 84
l  86 79
l  79 81
l  81 80
l  80 85
l  85 84
l  84 82
l  79 82
l  82 80

# Mesh 'mesh17_mesh17-geometry' with 24 faces
g mesh17_mesh17-geometry
usemtl material_3_24
f  87//7 88//7 89//7
f  88//7 87//7 90//7
f  89//8 88//8 87//8
f  90//8 87//8 88//8
f  88//10 91//10 89//10
f  89//9 91//9 88//9
f  91//2 87//2 89//2
f  89//1 87//1 91//1
f  87//9 92//9 90//9
f  90//10 92//10 87//10
f  92//1 88//1 90//1
f  90//2 88//2 92//2
f  91//10 88//10 93//10
f  93//9 88//9 91//9
f  87//2 91//2 94//2
f  94//1 91//1 87//1
f  92//9 87//9 94//9
f  94//10 87//10 92//10
f  88//1 92//1 93//1
f  93//2 92//2 88//2
f  92//8 91//8 93//8
f  93//7 91//7 92//7
f  91//8 92//8 94//8
f  94//7 92//7 91//7

# Mesh 'mesh18_mesh18-geometry' with 12 faces
g mesh18_mesh18-geometry
usemtl material_1_0
l  87 89
l  90 87
l  87 94
l  89 88
l  89 91
l  88 90
l  90 92
l  94 91
l  92 94
l  88 93
l  91 93
l  93 92

# Mesh 'mesh19_mesh19-geometry' with 24 faces
g mesh19_mesh19-geometry
usemtl material_3_24
f  95//7 96//7 97//7
f  96//7 95//7 98//7
f  97//8 96//8 95//8
f  98//8 95//8 96//8
f  96//11 99//11 97//11
f  97//12 99//12 96//12
f  99//2 95//2 97//2
f  97//1 95//1 99//1
f  95//9 100//9 98//9
f  98//10 100//10 95//10
f  100//1 96//1 98//1
f  98//2 96//2 100//2
f  99//11 96//11 101//11
f  101//12 96//12 99//12
f  95//2 99//2 102//2
f  102//1 99//1 95//1
f  100//9 95//9 102//9
f  102//10 95//10 100//10
f  96//1 100//1 101//1
f  101//2 100//2 96//2
f  100//8 99//8 101//8
f  101//7 99//7 100//7
f  99//8 100//8 102//8
f  102//7 100//7 99//7

# Mesh 'mesh20_mesh20-geometry' with 12 faces
g mesh20_mesh20-geometry
usemtl material_1_0
l  95 98
l  95 102
l  97 95
l  98 96
l  98 100
l  102 100
l  99 102
l  99 97
l  97 96
l  101 96
l  100 101
l  99 101

# Mesh 'mesh21_mesh21-geometry' with 64 faces
g mesh21_mesh21-geometry
usemtl material_3_24
f  103//7 104//7 105//7
f  104//7 103//7 106//7
f  105//8 104//8 103//8
f  106//8 103//8 104//8
f  107//2 105//2 104//2
f  104//1 105//1 107//1
f  105//9 108//9 103//9
f  103//10 108//10 105//10
f  103//1 109//1 106//1
f  106//2 109//2 103//2
f  110//11 104//11 106//11
f  106//12 104//12 110//12
f  105//2 107//2 111//2
f  111//1 107//1 105//1
f  107//2 104//2 112//2
f  112//1 104//1 107//1
f  108//9 105//9 111//9
f  111//10 105//10 108//10
f  108//1 113//1 103//1
f  103//2 113//2 108//2
f  109//1 103//1 113//1
f  113//2 103//2 109//2
f  106//1 109//1 114//1
f  114//2 109//2 106//2
f  104//11 110//11 115//11
f  115//12 110//12 104//12
f  114//1 110//1 106//1
f  106//2 110//2 114//2
f  111//2 107//2 116//2
f  116//1 107//1 111//1
f  115//2 112//2 104//2
f  104//1 112//1 115//1
f  114//8 107//8 112//8
f  112//7 107//7 114//7
f  111//8 110//8 108//8
f  108//7 110//7 111//7
f  113//1 108//1 110//1
f  110//2 108//2 113//2
f  113//10 107//10 109//10
f  109//9 107//9 113//9
f  107//8 114//8 109//8
f  109//7 114//7 107//7
f  110//8 111//8 115//8
f  115//7 111//7 110//7
f  117//1 110//1 114//1
f  114//2 110//2 117//2
f  107//10 113//10 116//10
f  116//9 113//9 107//9
f  116//2 115//2 111//2
f  111//1 115//1 116//1
f  115//2 118//2 112//2
f  112//1 118//1 115//1
f  118//12 114//12 112//12
f  112//11 114//11 118//11
f  113//1 110//1 117//1
f  117//2 110//2 113//2
f  114//12 118//12 117//12
f  117//11 118//11 114//11
f  113//7 118//7 116//7
f  116//8 118//8 113//8
f  115//2 116//2 118//2
f  118//1 116//1 115//1
f  118//7 113//7 117//7
f  117//8 113//8 118//8

# Mesh 'mesh22_mesh22-geometry' with 12 faces
g mesh22_mesh22-geometry
usemtl material_1_0
l  105 104
l  105 111
l  105 103
l  104 115
l  104 106
l  111 108
l  115 111
l  103 106
l  103 108
l  115 110
l  106 110
l  110 108

# Mesh 'mesh23_mesh23-geometry' with 12 faces
g mesh23_mesh23-geometry
usemtl material_1_0
l  109 114
l  107 109
l  109 113
l  112 114
l  114 117
l  107 112
l  107 116
l  116 113
l  117 113
l  112 118
l  118 117
l  118 116

# Mesh 'mesh24_mesh24-geometry' with 24 faces
g mesh24_mesh24-geometry
usemtl material_3_24
f  119//7 120//7 121//7
f  120//7 119//7 122//7
f  121//8 120//8 119//8
f  122//8 119//8 120//8
f  120//11 123//11 121//11
f  121//12 123//12 120//12
f  123//2 119//2 121//2
f  121//1 119//1 123//1
f  119//9 124//9 122//9
f  122//10 124//10 119//10
f  124//1 120//1 122//1
f  122//2 120//2 124//2
f  123//11 120//11 125//11
f  125//12 120//12 123//12
f  119//2 123//2 126//2
f  126//1 123//1 119//1
f  124//9 119//9 126//9
f  126//10 119//10 124//10
f  120//1 124//1 125//1
f  125//2 124//2 120//2
f  124//8 123//8 125//8
f  125//7 123//7 124//7
f  123//8 124//8 126//8
f  126//7 124//7 123//7

# Mesh 'mesh25_mesh25-geometry' with 12 faces
g mesh25_mesh25-geometry
usemtl material_1_0
l  119 122
l  119 126
l  121 119
l  122 120
l  122 124
l  126 124
l  123 126
l  123 121
l  121 120
l  125 120
l  124 125
l  123 125

# Mesh 'mesh26_mesh26-geometry' with 64 faces
g mesh26_mesh26-geometry
usemtl material_3_24
f  127//7 128//7 129//7
f  128//7 127//7 130//7
f  129//8 128//8 127//8
f  130//8 127//8 128//8
f  131//2 129//2 128//2
f  128//1 129//1 131//1
f  129//9 132//9 127//9
f  127//10 132//10 129//10
f  127//1 133//1 130//1
f  130//2 133//2 127//2
f  134//11 128//11 130//11
f  130//12 128//12 134//12
f  129//2 131//2 135//2
f  135//1 131//1 129//1
f  131//2 128//2 136//2
f  136//1 128//1 131//1
f  132//9 129//9 135//9
f  135//10 129//10 132//10
f  132//1 137//1 127//1
f  127//2 137//2 132//2
f  133//1 127//1 137//1
f  137//2 127//2 133//2
f  130//1 133//1 138//1
f  138//2 133//2 130//2
f  128//11 134//11 139//11
f  139//12 134//12 128//12
f  138//1 134//1 130//1
f  130//2 134//2 138//2
f  135//2 131//2 140//2
f  140//1 131//1 135//1
f  139//2 136//2 128//2
f  128//1 136//1 139//1
f  138//8 131//8 136//8
f  136//7 131//7 138//7
f  135//8 134//8 132//8
f  132//7 134//7 135//7
f  137//1 132//1 134//1
f  134//2 132//2 137//2
f  137//10 131//10 133//10
f  133//9 131//9 137//9
f  131//8 138//8 133//8
f  133//7 138//7 131//7
f  134//8 135//8 139//8
f  139//7 135//7 134//7
f  141//1 134//1 138//1
f  138//2 134//2 141//2
f  131//10 137//10 140//10
f  140//9 137//9 131//9
f  140//2 139//2 135//2
f  135//1 139//1 140//1
f  139//2 142//2 136//2
f  136//1 142//1 139//1
f  142//12 138//12 136//12
f  136//11 138//11 142//11
f  137//1 134//1 141//1
f  141//2 134//2 137//2
f  138//12 142//12 141//12
f  141//11 142//11 138//11
f  137//7 142//7 140//7
f  140//8 142//8 137//8
f  139//2 140//2 142//2
f  142//1 140//1 139//1
f  142//7 137//7 141//7
f  141//8 137//8 142//8

# Mesh 'mesh27_mesh27-geometry' with 12 faces
g mesh27_mesh27-geometry
usemtl material_1_0
l  129 128
l  129 135
l  129 127
l  128 139
l  128 130
l  135 132
l  139 135
l  127 130
l  127 132
l  139 134
l  130 134
l  134 132

# Mesh 'mesh28_mesh28-geometry' with 12 faces
g mesh28_mesh28-geometry
usemtl material_1_0
l  133 138
l  131 133
l  133 137
l  136 138
l  138 141
l  131 136
l  131 140
l  140 137
l  141 137
l  136 142
l  142 141
l  142 140

