# File produced by Open Asset Import Library (http://www.assimp.sf.net)
# (assimp v3.2.202087883)

mtllib model_normalized.mtl

# 51 vertex positions
v 0.328121 -0.163294 -0.270569
v 0.409294 -0.163294 0.195407
v 0.328121 -0.163294 0.195407
v 0.409294 -0.163294 -0.270569
v 0.328121 -0.078063 0.195407
v 0.409294 0.007169 -0.270569
v 0.409294 -0.078063 0.195407
v 0.328121 0.007169 -0.270569
v 0.409294 -0.019054 -0.127203
v 0.409294 -0.061837 0.106703
v 0.328121 0.207973 0.195407
v 0.328121 -0.061837 0.106703
v 0.409294 0.004728 -0.257224
v 0.409294 -0.013453 -0.157823
v 0.409294 0.207973 0.195407
v 0.409294 -0.037078 -0.028662
v 0.409294 0.072968 0.121646
v 0.409294 0.207973 0.136612
v 0.328121 0.072968 0.121646
v -0.393813 -0.014449 -0.158005
v 0.409257 0.010142 -0.153508
v -0.393813 -0.037788 -0.028792
v 0.409279 -0.023698 -0.026215
v 0.328121 0.207973 0.136612
v -0.393813 0.003732 -0.257406
v 0.409257 0.028323 -0.252908
v -0.393813 -0.019764 -0.127333
v 0.409279 -0.005674 -0.124756
v -0.311770 0.207973 0.195407
v -0.311770 0.072967 0.121657
v -0.393842 0.009146 -0.153690
v -0.393820 -0.024408 -0.026344
v -0.311770 0.207973 0.136612
v -0.393842 0.027327 -0.253090
v -0.393820 -0.006384 -0.124886
v -0.393813 0.207973 0.195407
v -0.393813 0.207973 0.136612
v -0.311770 -0.078063 0.195407
v -0.311770 -0.062039 0.106703
v -0.393813 0.072967 0.121657
v -0.393813 0.159342 0.195407
v -0.393813 -0.078063 0.195407
v -0.393813 -0.062039 0.106703
v -0.311770 -0.163294 0.195407
v -0.311770 0.003732 -0.257406
v -0.393813 -0.163294 0.195407
v -0.393813 -0.062033 0.106667
v -0.393813 -0.163294 -0.257406
v -0.311770 -0.163294 -0.257406
v -0.393813 -0.043260 0.002740
v 0.409294 -0.043065 0.002776

# 155 UV coordinates
vt 0 0 0
vt -0.623329 0 0
vt -0.684025 0.06373 0
vt -0.684025 0 0
vt 0.000402 0.06373 0
vt -0.348023 0 0
vt 0.000402 0 0
vt 0.684025 0 0
vt 0.623329 0.127461 0
vt 0.623329 0 0
vt 0.348023 0.127461 0
vt -0.000402 0 0
vt 0.348023 0 0
vt -0.623329 0.06373 0
vt -0.348023 0.127461 0
vt 0.684025 0.127461 0
vt 0.240824 0.107853 0
vt 0.065925 0.075862 0
vt -0.000402 0.06373 0
vt -0.684025 0.277608 0
vt -0.065925 0.075862 0
vt 0.263719 0.112041 0
vt -0.000402 0.277608 0
vt -0.623329 0.277608 0
vt 0.000402 0.277608 0
vt 0.338044 0.125635 0
vt 0.167141 0.094376 0
vt 0.054752 0.176661 0
vt 0.043561 0.623329 0
vt -0.000402 0.684025 0
vt -0.000402 0.623329 0
vt -0.054751 0.176661 0
vt 0.684024 0.068136 0
vt 0.623329 0.169552 0
vt 0.623329 0.068136 0
vt 0.043561 0.277608 0
vt 0.043561 0.684025 0
vt -0.043561 0.277608 0
vt 0.684025 0.169552 0
vt 0.043561 1.16249 0
vt -0.000402 1.22383 0
vt -0.000402 1.16249 0
vt 0.054744 0.17666 0
vt 0.043561 1.22383 0
vt -1.22383 0.277608 0
vt -1.16249 0.06373 0
vt -1.16249 0.277608 0
vt 0.065925 0.075711 0
vt 0.000402 0.241246 0
vt -1.22383 0.06373 0
vt 1.22383 0.067993 0
vt 1.16249 0.169559 0
vt 1.16249 0.067993 0
vt 1.22383 0.169559 0
vt -0.054743 0.17666 0
vt -1.22383 0.241246 0
vt -1.16249 0 0
vt -1.16249 0.078334 0
vt -1.22383 0.010933 0
vt -1.16249 0.010933 0
vt 0.338181 0.124891 0
vt -1.22383 0.078334 0
vt -0.065925 0.075711 0
vt -1.22383 0 0
vt -0.065952 0.075716 0
vt -0.338181 0 0
vt 0.338181 0 0
vt 1.22383 0 0
vt 1.16249 0.124891 0
vt 1.16249 0 0
vt -0.338181 0.124891 0
vt -0.143661 0.089753 0
vt 1.22383 0.124891 0
vt -0.240921 0.107322 0
vt -0.912033 0.487036 0
vt -0.831106 0.47351 0
vt -0.831106 0.487036 0
vt -0.912033 0.104665 0
vt -0.831106 0.241859 0
vt -0.831106 0.372766 0
vt -0.831106 0.341732 0
vt -0.831106 0.104665 0
vt 1.6342 0.36151 0
vt 0.834244 0.467771 0
vt 0.833549 0.367029 0
vt 0.450537 0.168545 0
vt 0.347135 0.173942 0
vt 0.351437 0.150418 0
vt 1.63287 0.233839 0
vt 0.832699 0.337645 0
vt 0.832208 0.237773 0
vt 0.320964 0.144538 0
vt 0.220281 0.139908 0
vt 0.222721 0.126569 0
vt 1.6349 0.462252 0
vt -0.831136 0.107597 0
vt -1.63178 0.082674 0
vt -0.831106 0.083683 0
vt 0.446235 0.192068 0
vt 1.63336 0.333711 0
vt -0.831118 0.097244 0
vt -1.63178 0.082964 0
vt 0.318524 0.157878 0
vt 0.912033 0.22607 0
vt 0.831105 0.361491 0
vt 0.831105 0.22607 0
vt 0.912033 0.361491 0
vt 0.058082 0.912033 0
vt -0.000536 1.54998 0
vt -0.000536 0.912033 0
vt 1.54998 0.226073 0
vt 0.912032 0.361495 0
vt 0.912032 0.226074 0
vt -0.347135 0.173942 0
vt -0.450537 0.168545 0
vt -0.351437 0.150418 0
vt 1.63178 0.082674 0
vt 0.831136 0.107597 0
vt 0.831106 0.083683 0
vt -1.63181 0.106588 0
vt -0.834244 0.467771 0
vt -1.6342 0.36151 0
vt -0.833549 0.367029 0
vt -0.220281 0.139908 0
vt -0.320964 0.144538 0
vt -0.222721 0.126569 0
vt 1.63178 0.082964 0
vt 0.831118 0.097244 0
vt -1.63179 0.096525 0
vt -0.832699 0.337645 0
vt -1.63287 0.233839 0
vt -0.832208 0.237773 0
vt 0.058082 1.54998 0
vt 1.54998 0.361494 0
vt -0.446235 0.192068 0
vt 1.63181 0.106588 0
vt -1.6349 0.462252 0
vt -0.318524 0.157878 0
vt 1.63179 0.096525 0
vt -1.63336 0.333711 0
vt 1.54998 0.226078 0
vt 1.63178 0.361499 0
vt 1.54998 0.361499 0
vt 1.63178 0.226078 0
vt -1.54998 0.473327 0
vt -1.63178 0.104445 0
vt -1.54998 0.104445 0
vt -1.63178 0.104481 0
vt -1.63178 0.20977 0
vt -1.63178 0.341549 0
vt -1.6319 0.102249 0
vt -0.831371 0.208633 0
vt -1.63204 0.207538 0
vt -1.63178 0.473327 0
vt -0.831227 0.103344 0

# 32 vertex normals
vn 0 -0.001 0
vn 0 0.001 0
vn 0 0 -0.001
vn 0.001 -0 0
vn 0 -0 0.001
vn -0.001 0 0
vn 0 0.00098368 0.000179925
vn 0 -0.00098368 -0.000179925
vn 3e-09 -0.000110179 0.000993912
vn -1.261e-06 0.00098368 0.000179924
vn -0.000999999 -1.24e-06 -2.27e-07
vn -8.99e-07 0.00098368 0.000179925
vn -0.001 -8.84e-07 -1.62e-07
vn 0 0.000179925 -0.00098368
vn 3e-09 -0.000110175 0.000993912
vn 8e-09 -0.000110137 0.000993916
vn 0.000999999 1.24e-06 2.27e-07
vn -0 -0.000179925 0.00098368
vn 1.261e-06 -0.00098368 -0.000179924
vn 0.001 8.84e-07 1.62e-07
vn 8.99e-07 -0.00098368 -0.000179925
vn 3e-09 -0.000110098 0.000993921
vn 3e-09 -0.000110094 0.000993921
vn 0 -0.000984074 -0.000177759
vn 2.47e-07 -0.000984074 -0.000177759
vn -3e-09 0.000110179 -0.000993912
vn -3e-09 0.000110094 -0.000993921
vn 0 0.000984074 0.000177759
vn -3e-09 0.000110175 -0.000993912
vn -8e-09 0.000110137 -0.000993916
vn -3e-09 0.000110098 -0.000993921
vn -2.47e-07 0.000984074 0.000177759

# Mesh 'mesh1_mesh1-geometry' with 112 faces
g mesh1_mesh1-geometry
usemtl material_0_24
f  1/1/1 2/1/1 3/1/1
f  2/1/1 1/1/1 4/1/1
f  3/1/2 2/1/2 1/1/2
f  4/1/2 1/1/2 2/1/2
f  3/1/3 5/1/3 2/1/3
f  3/1/4 1/1/4 5/1/4
f  4/1/5 6/1/5 1/1/5
f  4/1/6 2/1/6 6/1/6
f  7/1/3 2/1/3 5/1/3
f  8/1/4 5/1/4 1/1/4
f  8/1/5 1/1/5 6/1/5
f  9/1/6 6/1/6 2/1/6
f  7/1/6 10/1/6 2/1/6
f  5/1/3 11/1/3 7/1/3
f  10/1/7 5/1/7 7/1/7
f  7/1/8 5/1/8 10/1/8
f  12/1/4 5/1/4 8/1/4
f  6/1/8 13/1/8 8/1/8
f  14/1/6 6/1/6 9/1/6
f  10/1/6 9/1/6 2/1/6
f  7/1/6 15/1/6 10/1/6
f  15/1/3 7/1/3 11/1/3
f  5/1/4 12/1/4 11/1/4
f  5/1/7 10/1/7 12/1/7
f  12/1/8 10/1/8 5/1/8
f  8/1/8 16/1/8 12/1/8
f  13/1/8 14/1/8 8/1/8
f  13/1/6 6/1/6 14/1/6
f  14/1/8 9/1/8 8/1/8
f  16/1/6 9/1/6 10/1/6
f  17/1/6 10/1/6 15/1/6
f  15/1/1 11/1/1 18/1/1
f  19/1/4 11/1/4 12/1/4
f  10/1/8 12/1/8 16/1/8
f  10/1/9 17/1/9 12/1/9
f  9/1/8 16/1/8 8/1/8
f  14/1/10 13/1/10 20/1/10
f  14/1/11 21/1/11 13/1/11
f  16/1/12 9/1/12 22/1/12
f  16/1/13 23/1/13 9/1/13
f  18/1/6 17/1/6 15/1/6
f  24/1/1 18/1/1 11/1/1
f  24/1/4 11/1/4 19/1/4
f  19/1/9 12/1/9 17/1/9
f  25/1/10 20/1/10 13/1/10
f  14/1/14 20/1/14 21/1/14
f  26/1/11 13/1/11 21/1/11
f  27/1/12 22/1/12 9/1/12
f  16/1/14 22/1/14 23/1/14
f  28/1/13 9/1/13 23/1/13
f  17/1/15 18/1/15 19/1/15
f  24/1/15 19/1/15 18/1/15
f  11/1/1 29/1/1 24/1/1
f  19/1/16 24/1/16 30/1/16
f  20/1/17 25/1/17 31/1/17
f  13/1/18 26/1/18 25/1/18
f  31/1/14 21/1/14 20/1/14
f  21/1/19 31/1/19 26/1/19
f  22/1/20 27/1/20 32/1/20
f  9/1/18 28/1/18 27/1/18
f  32/1/14 23/1/14 22/1/14
f  23/1/21 32/1/21 28/1/21
f  33/1/1 24/1/1 29/1/1
f  33/1/16 30/1/16 24/1/16
f  34/1/17 31/1/17 25/1/17
f  34/1/18 25/1/18 26/1/18
f  34/1/19 26/1/19 31/1/19
f  35/1/20 32/1/20 27/1/20
f  35/1/18 27/1/18 28/1/18
f  35/1/21 28/1/21 32/1/21
f  29/1/1 36/1/1 33/1/1
f  33/1/6 30/1/6 29/1/6
f  33/1/22 37/1/22 30/1/22
f  37/1/1 33/1/1 36/1/1
f  29/1/3 38/1/3 36/1/3
f  30/1/6 39/1/6 29/1/6
f  40/1/22 30/1/22 37/1/22
f  36/1/4 41/1/4 37/1/4
f  42/1/3 36/1/3 38/1/3
f  38/1/6 29/1/6 39/1/6
f  39/1/23 30/1/23 43/1/23
f  40/1/23 43/1/23 30/1/23
f  37/1/4 41/1/4 40/1/4
f  41/1/3 36/1/3 42/1/3
f  38/1/3 44/1/3 42/1/3
f  38/1/24 42/1/24 39/1/24
f  39/1/6 45/1/6 38/1/6
f  39/1/24 43/1/24 45/1/24
f  43/1/24 39/1/24 42/1/24
f  40/1/4 41/1/4 43/1/4
f  42/1/4 43/1/4 41/1/4
f  46/1/3 42/1/3 44/1/3
f  38/1/6 45/1/6 44/1/6
f  47/1/24 45/1/24 43/1/24
f  43/1/4 42/1/4 47/1/4
f  46/1/4 48/1/4 42/1/4
f  48/1/1 44/1/1 46/1/1
f  46/1/2 44/1/2 48/1/2
f  49/1/6 44/1/6 45/1/6
f  50/1/24 45/1/24 47/1/24
f  47/1/4 42/1/4 48/1/4
f  44/1/1 48/1/1 49/1/1
f  49/1/2 48/1/2 44/1/2
f  49/1/5 45/1/5 48/1/5
f  27/1/24 45/1/24 50/1/24
f  50/1/4 47/1/4 25/1/4
f  50/1/25 51/1/25 47/1/25
f  25/1/4 47/1/4 48/1/4
f  25/1/5 48/1/5 45/1/5
f  25/1/24 45/1/24 27/1/24
f  27/1/4 50/1/4 25/1/4
f  10/1/25 47/1/25 51/1/25

# Mesh 'mesh1_mesh1-geometry' with 55 faces
g mesh1_mesh1-geometry
usemtl material_1_1_8
f  2/2/5 5/3/5 3/4/5
f  5/5/6 1/6/6 3/7/6
f  1/8/3 6/9/3 4/10/3
f  6/11/4 2/12/4 4/13/4
f  5/3/5 2/2/5 7/14/5
f  1/6/6 5/5/6 8/15/6
f  6/9/3 1/8/3 8/16/3
f  2/12/4 6/11/4 9/17/4
f  2/12/4 10/18/4 7/19/4
f  7/14/5 11/20/5 5/3/5
f  8/15/6 5/5/6 12/21/6
f  9/17/4 6/11/4 14/22/4
f  2/12/4 9/17/4 10/18/4
f  10/18/4 15/23/4 7/19/4
f  11/20/5 7/14/5 15/24/5
f  11/25/6 12/21/6 5/5/6
f  14/22/4 6/11/4 13/26/4
f  10/18/4 9/17/4 16/27/4
f  15/23/4 10/18/4 17/28/4
f  18/29/2 11/30/2 15/31/2
f  12/21/6 11/25/6 19/32/6
f  12/33/26 17/34/26 10/35/26
f  15/23/4 17/28/4 18/36/4
f  11/30/2 18/29/2 24/37/2
f  19/32/6 11/25/6 24/38/6
f  17/34/26 12/33/26 19/39/26
f  33/40/2 36/41/2 29/42/2
f  29/23/4 30/43/4 33/36/4
f  36/41/2 33/40/2 37/44/2
f  36/45/5 38/46/5 29/47/5
f  29/23/4 39/48/4 30/43/4
f  37/38/6 41/49/6 36/25/6
f  38/46/5 36/45/5 42/50/5
f  39/48/4 29/23/4 38/19/4
f  43/51/27 30/52/27 39/53/27
f  30/52/27 43/51/27 40/54/27
f  40/55/6 41/49/6 37/38/6
f  42/50/5 36/45/5 41/56/5
f  42/50/5 44/57/5 38/46/5
f  39/58/28 42/59/28 38/60/28
f  38/19/4 45/61/4 39/48/4
f  42/59/28 39/58/28 43/62/28
f  43/63/6 41/49/6 40/55/6
f  41/49/6 43/63/6 42/5/6
f  44/57/5 42/50/5 46/64/5
f  44/12/4 45/61/4 38/19/4
f  47/65/6 42/5/6 43/63/6
f  42/5/6 48/66/6 46/7/6
f  45/61/4 44/12/4 49/67/4
f  48/66/6 42/5/6 47/65/6
f  48/68/3 45/69/3 49/70/3
f  25/71/6 47/65/6 50/72/6
f  48/66/6 47/65/6 25/71/6
f  45/69/3 48/68/3 25/73/3
f  25/71/6 50/72/6 27/74/6

# Mesh 'mesh1_mesh1-geometry' with 45 faces
g mesh1_mesh1-geometry
usemtl material_2_2_8
f  8/75/7 13/76/7 6/77/7
f  12/78/7 16/79/7 8/75/7
f  8/75/7 14/80/7 13/76/7
f  8/75/7 9/81/7 14/80/7
f  16/79/7 12/78/7 10/82/7
f  8/75/7 16/79/7 9/81/7
f  20/83/19 13/84/19 14/85/19
f  13/86/17 21/87/17 14/88/17
f  22/89/21 9/90/21 16/91/21
f  9/92/20 23/93/20 16/94/20
f  13/84/19 20/83/19 25/95/19
f  21/96/18 20/97/18 14/98/18
f  21/87/17 13/86/17 26/99/17
f  9/90/21 22/89/21 27/100/21
f  23/101/18 22/102/18 16/98/18
f  23/93/20 9/92/20 28/103/20
f  19/104/29 18/105/29 17/106/29
f  18/105/29 19/104/29 24/107/29
f  24/108/2 29/109/2 11/110/2
f  30/111/30 24/112/30 19/113/30
f  31/114/11 25/115/11 20/116/11
f  25/117/14 26/118/14 13/119/14
f  20/97/18 21/96/18 31/120/18
f  26/121/10 31/122/10 21/123/10
f  32/124/13 27/125/13 22/126/13
f  27/127/14 28/128/14 9/119/14
f  22/102/18 23/101/18 32/129/18
f  28/130/12 32/131/12 23/132/12
f  29/109/2 24/108/2 33/133/2
f  24/112/30 30/111/30 33/134/30
f  25/115/11 31/114/11 34/135/11
f  26/118/14 25/117/14 34/136/14
f  31/122/10 26/121/10 34/137/10
f  27/125/13 32/124/13 35/138/13
f  28/128/14 27/127/14 35/139/14
f  32/131/12 28/130/12 35/140/12
f  30/141/31 37/142/31 33/143/31
f  37/142/31 30/141/31 40/144/31
f  45/145/28 43/146/28 39/147/28
f  43/146/28 45/145/28 47/148/28
f  47/148/28 45/145/28 50/149/28
f  50/149/28 45/145/28 27/150/28
f  47/151/32 51/152/32 50/153/32
f  27/150/28 45/145/28 25/154/28
f  51/152/32 47/151/32 10/155/32

# Mesh 'mesh2_mesh2-geometry' with 4 faces
g mesh2_mesh2-geometry
usemtl material_0_0
l  2 4
l  3 2
l  4 1
l  1 3

# Mesh 'mesh3_mesh3-geometry' with 4 faces
g mesh3_mesh3-geometry
usemtl material_0_0
l  44 46
l  49 44
l  46 48
l  48 49

# Mesh 'mesh4_mesh4-geometry' with 1 faces
g mesh4_mesh4-geometry
usemtl material_0_0
l  8 45

