# File produced by Open Asset Import Library (http://www.assimp.sf.net)
# (assimp v3.2.202087883)

mtllib model_normalized.mtl

# 165 vertex positions
v -0.448520 0.148937 0.135822
v 0.453415 0.139542 0.135822
v -0.448520 0.139542 0.135822
v 0.453415 0.148937 0.135822
v -0.448520 0.139542 0.091978
v 0.453415 0.148937 0.091978
v 0.453415 0.139542 0.091978
v -0.448520 0.148937 0.091978
v -0.448520 0.148937 0.082583
v 0.453415 0.139542 0.082583
v -0.448520 0.139542 0.082583
v 0.453415 0.148937 0.082583
v -0.448520 0.139542 0.038739
v 0.453415 0.148937 0.038739
v 0.453415 0.139542 0.038739
v -0.448520 0.148937 0.038739
v -0.448520 0.148937 0.029343
v 0.453415 0.139542 0.029343
v -0.448520 0.139542 0.029343
v 0.453415 0.148937 0.029343
v -0.448520 0.139542 -0.014501
v 0.453415 0.148937 -0.014501
v 0.453415 0.139542 -0.014501
v -0.448520 0.148937 -0.014501
v -0.448520 -0.001386 -0.014501
v 0.453415 -0.010781 -0.014501
v -0.448520 -0.010781 -0.014501
v 0.453415 -0.001386 -0.014501
v -0.448520 -0.010781 -0.058345
v 0.453415 -0.001386 -0.058345
v 0.453415 -0.010781 -0.058345
v -0.448520 -0.001386 -0.058345
v -0.448520 -0.001386 -0.067740
v 0.453415 -0.010781 -0.067740
v -0.448520 -0.010781 -0.067740
v 0.453415 -0.001386 -0.067740
v -0.448520 -0.010781 -0.111584
v 0.453415 -0.001386 -0.111584
v 0.453415 -0.010781 -0.111584
v -0.448520 -0.001386 -0.111584
v -0.448520 -0.001386 -0.120980
v 0.453415 -0.010781 -0.120980
v -0.448520 -0.010781 -0.120980
v 0.453415 -0.001386 -0.120980
v -0.448520 -0.010781 -0.164824
v 0.453415 -0.001386 -0.164824
v 0.453415 -0.010781 -0.164824
v -0.448520 -0.001386 -0.164824
v -0.439125 0.095698 0.135822
v -0.439125 0.139542 -0.014501
v -0.439125 0.095698 -0.014501
v -0.439125 0.139542 0.135822
v -0.429729 0.139542 -0.014501
v -0.429729 0.095698 -0.014501
v -0.429729 0.139542 0.135822
v -0.429729 0.095698 0.135822
v -0.439125 -0.054625 0.135822
v -0.439125 -0.010781 -0.164824
v -0.439125 -0.054625 -0.164824
v -0.439125 -0.010781 0.135822
v -0.429729 -0.010781 -0.164824
v -0.429729 -0.054625 -0.164824
v -0.429729 -0.010781 0.135822
v -0.429729 -0.054625 0.135822
v 0.444023 -0.161104 -0.164824
v 0.444023 -0.010781 -0.120980
v 0.444023 -0.010781 -0.164824
v 0.444023 -0.161104 -0.120980
v 0.453415 -0.161104 -0.120980
v 0.453415 -0.161104 -0.164824
v 0.434627 -0.054625 0.135822
v 0.434627 -0.010781 -0.164824
v 0.434627 -0.054625 -0.164824
v 0.434627 -0.010781 0.135822
v 0.444023 -0.054625 -0.164824
v 0.444023 -0.010781 0.135822
v 0.444023 -0.054625 0.135822
v -0.006946 -0.054625 0.135822
v -0.006946 -0.010781 -0.164824
v -0.006946 -0.054625 -0.164824
v -0.006946 -0.010781 0.135822
v 0.002449 -0.010781 -0.164824
v 0.002449 -0.054625 -0.164824
v 0.002449 -0.010781 0.135822
v 0.002449 -0.054625 0.135822
v -0.006946 0.095698 0.135822
v -0.006946 0.139542 -0.014501
v -0.006946 0.095698 -0.014501
v -0.006946 0.139542 0.135822
v 0.002449 0.139542 -0.014501
v 0.002449 0.095698 -0.014501
v 0.002449 0.139542 0.135822
v 0.002449 0.095698 0.135822
v -0.448520 -0.161104 -0.014501
v -0.448520 -0.161104 0.029343
v -0.439125 0.139542 0.029343
v -0.439125 0.139542 -0.014501
v -0.439125 -0.161104 0.029343
v -0.439125 -0.161104 -0.014501
v -0.448520 -0.161104 0.091978
v -0.448520 -0.161104 0.135822
v -0.439125 0.139542 0.135822
v -0.439125 0.139542 0.091978
v -0.439125 -0.161104 0.135822
v -0.439125 -0.161104 0.091978
v 0.444023 -0.161104 -0.014501
v 0.444023 0.139542 0.029343
v 0.444023 0.139542 -0.014501
v 0.444023 -0.161104 0.029343
v 0.453415 -0.161104 0.029343
v 0.453415 -0.161104 -0.014501
v 0.444023 -0.161104 0.091978
v 0.444023 0.139542 0.135822
v 0.444023 0.139542 0.091978
v 0.444023 -0.161104 0.135822
v 0.453415 -0.161104 0.135822
v 0.453415 -0.161104 0.091978
v 0.002449 -0.161104 0.091978
v 0.002449 0.139542 0.135822
v 0.002449 0.139542 0.091978
v 0.002449 -0.161104 0.135822
v 0.011844 0.139542 0.135822
v 0.011844 0.139542 0.091978
v 0.011844 -0.161104 0.135822
v 0.011844 -0.161104 0.091978
v 0.002449 -0.161104 -0.014501
v 0.002449 0.139542 0.029343
v 0.002449 0.139542 -0.014501
v 0.002449 -0.161104 0.029343
v 0.011844 0.139542 0.029343
v 0.011844 0.139542 -0.014501
v 0.011844 -0.161104 0.029343
v 0.011844 -0.161104 -0.014501
v 0.002449 -0.161104 -0.164824
v 0.002449 -0.010781 -0.120980
v 0.002449 -0.010781 -0.164824
v 0.002449 -0.161104 -0.120980
v 0.011844 -0.010781 -0.120980
v 0.011844 -0.010781 -0.164824
v 0.011844 -0.161104 -0.120980
v 0.011844 -0.161104 -0.164824
v -0.448520 -0.161104 -0.164824
v -0.448520 -0.161104 -0.120980
v -0.439125 -0.010781 -0.120980
v -0.439125 -0.161104 -0.120980
v -0.439125 -0.161104 -0.164824
v 0.434627 0.139542 -0.014501
v 0.434627 0.095698 0.135822
v 0.434627 0.139542 0.135822
v 0.434627 0.095698 -0.014501
v 0.444023 0.095698 0.135822
v 0.444023 0.095698 -0.014501
v 0.444023 0.139542 -0.014501
v 0.453415 -0.161104 0.082583
v -0.448520 -0.161104 0.082583
v -0.448520 -0.117259 0.082583
v 0.453415 -0.117259 0.091978
v 0.453415 -0.117259 0.082583
v -0.448520 -0.117259 0.091978
v -0.448520 -0.161104 -0.111584
v 0.453415 -0.161104 -0.111584
v -0.448520 -0.117259 -0.120980
v 0.453415 -0.117259 -0.111584
v 0.453415 -0.117259 -0.120980
v -0.448520 -0.117259 -0.111584

# 36 UV coordinates
vt 0 0 0
vt 1 0 0
vt 1 0.010417 0
vt 0 0.010417 0
vt -1 0.048611 0
vt 0 0.048611 0
vt -0.048611 0 0
vt -0.048611 0.010417 0
vt 0.048611 0.010417 0
vt 0.048611 0 0
vt -1 0 0
vt -1 0.010417 0
vt 0.166667 0 0
vt 0.166667 0.048611 0
vt 0.010417 0.048611 0
vt 0.020833 0 0
vt 0.020833 0.048611 0
vt -0.010417 0 0
vt -0.020833 0.166667 0
vt -0.020833 0 0
vt -0.010417 0.048611 0
vt -0.020833 0.048611 0
vt 0.010417 0.166667 0
vt 0.020833 0.166667 0
vt 0.010417 0 0
vt -0.010417 0.166667 0
vt -0.166667 0 0
vt -0.166667 0.048611 0
vt 0.333333 0 0
vt 0.333333 0.048611 0
vt -0.020833 0.333333 0
vt 0.010417 0.333333 0
vt 0.020833 0.333333 0
vt -0.010417 0.333333 0
vt -0.333333 0.048611 0
vt -0.333333 0 0

# 6 vertex normals
vn 0 0 -0.0254
vn 0.0254 0 0
vn 0 -0.0254 0
vn -0.0254 0 0
vn 0 0 0.0254
vn 0 0.0254 0

# Mesh 'mesh1_mesh1-geometry' with 10 faces
g mesh1_mesh1-geometry
usemtl material_0_24
f  1/1/1 2/1/1 3/1/1
f  2/1/1 1/1/1 4/1/1
f  5/1/2 1/1/2 3/1/2
f  1/1/3 6/1/3 4/1/3
f  6/1/4 2/1/4 4/1/4
f  2/1/4 6/1/4 7/1/4
f  1/1/2 5/1/2 8/1/2
f  6/1/3 1/1/3 8/1/3
f  6/1/5 5/1/5 7/1/5
f  5/1/5 6/1/5 8/1/5

# Mesh 'mesh1_mesh1-geometry' with 14 faces
g mesh1_mesh1-geometry
usemtl material_1_1_8
f  3/2/5 2/1/5 1/3/5
f  4/4/5 1/3/5 2/1/5
f  3/5/3 7/1/3 2/6/3
f  2/6/6 7/1/6 3/5/6
f  3/7/4 1/8/4 5/1/4
f  4/6/6 6/1/6 1/5/6
f  4/9/2 2/10/2 6/4/2
f  7/1/3 3/5/3 5/11/3
f  5/11/6 3/5/6 7/1/6
f  7/1/2 6/4/2 2/10/2
f  8/4/4 5/1/4 1/8/4
f  8/11/6 1/5/6 6/1/6
f  7/1/1 5/11/1 6/4/1
f  8/12/1 6/4/1 5/11/1

# Mesh 'mesh1_mesh1-geometry' with 10 faces
g mesh1_mesh1-geometry
usemtl material_0_24
f  9/1/1 10/1/1 11/1/1
f  10/1/1 9/1/1 12/1/1
f  13/1/2 9/1/2 11/1/2
f  9/1/3 14/1/3 12/1/3
f  14/1/4 10/1/4 12/1/4
f  10/1/4 14/1/4 15/1/4
f  9/1/2 13/1/2 16/1/2
f  14/1/3 9/1/3 16/1/3
f  14/1/5 13/1/5 15/1/5
f  13/1/5 14/1/5 16/1/5

# Mesh 'mesh1_mesh1-geometry' with 14 faces
g mesh1_mesh1-geometry
usemtl material_1_1_8
f  11/2/5 10/1/5 9/3/5
f  12/4/5 9/3/5 10/1/5
f  11/5/3 15/1/3 10/6/3
f  10/6/6 15/1/6 11/5/6
f  11/7/4 9/8/4 13/1/4
f  12/6/6 14/1/6 9/5/6
f  12/9/2 10/10/2 14/4/2
f  15/1/3 11/5/3 13/11/3
f  13/11/6 11/5/6 15/1/6
f  15/1/2 14/4/2 10/10/2
f  16/4/4 13/1/4 9/8/4
f  16/11/6 9/5/6 14/1/6
f  15/1/1 13/11/1 14/4/1
f  16/12/1 14/4/1 13/11/1

# Mesh 'mesh1_mesh1-geometry' with 10 faces
g mesh1_mesh1-geometry
usemtl material_0_24
f  17/1/1 18/1/1 19/1/1
f  18/1/1 17/1/1 20/1/1
f  21/1/2 17/1/2 19/1/2
f  17/1/3 22/1/3 20/1/3
f  22/1/4 18/1/4 20/1/4
f  18/1/4 22/1/4 23/1/4
f  17/1/2 21/1/2 24/1/2
f  22/1/3 17/1/3 24/1/3
f  22/1/5 21/1/5 23/1/5
f  21/1/5 22/1/5 24/1/5

# Mesh 'mesh1_mesh1-geometry' with 14 faces
g mesh1_mesh1-geometry
usemtl material_1_1_8
f  19/2/5 18/1/5 17/3/5
f  20/4/5 17/3/5 18/1/5
f  19/5/3 23/1/3 18/6/3
f  18/6/6 23/1/6 19/5/6
f  19/7/4 17/8/4 21/1/4
f  20/6/6 22/1/6 17/5/6
f  20/9/2 18/10/2 22/4/2
f  23/1/3 19/5/3 21/11/3
f  21/11/6 19/5/6 23/1/6
f  23/1/2 22/4/2 18/10/2
f  24/4/4 21/1/4 17/8/4
f  24/11/6 17/5/6 22/1/6
f  23/1/1 21/11/1 22/4/1
f  24/12/1 22/4/1 21/11/1

# Mesh 'mesh1_mesh1-geometry' with 10 faces
g mesh1_mesh1-geometry
usemtl material_0_24
f  25/1/1 26/1/1 27/1/1
f  26/1/1 25/1/1 28/1/1
f  29/1/2 25/1/2 27/1/2
f  25/1/3 30/1/3 28/1/3
f  30/1/4 26/1/4 28/1/4
f  26/1/4 30/1/4 31/1/4
f  25/1/2 29/1/2 32/1/2
f  30/1/3 25/1/3 32/1/3
f  30/1/5 29/1/5 31/1/5
f  29/1/5 30/1/5 32/1/5

# Mesh 'mesh1_mesh1-geometry' with 14 faces
g mesh1_mesh1-geometry
usemtl material_1_1_8
f  27/2/5 26/1/5 25/3/5
f  28/4/5 25/3/5 26/1/5
f  27/5/3 31/1/3 26/6/3
f  26/6/6 31/1/6 27/5/6
f  27/7/4 25/8/4 29/1/4
f  28/6/6 30/1/6 25/5/6
f  28/9/2 26/10/2 30/4/2
f  31/1/3 27/5/3 29/11/3
f  29/11/6 27/5/6 31/1/6
f  31/1/2 30/4/2 26/10/2
f  32/4/4 29/1/4 25/8/4
f  32/11/6 25/5/6 30/1/6
f  31/1/1 29/11/1 30/4/1
f  32/12/1 30/4/1 29/11/1

# Mesh 'mesh1_mesh1-geometry' with 10 faces
g mesh1_mesh1-geometry
usemtl material_0_24
f  33/1/1 34/1/1 35/1/1
f  34/1/1 33/1/1 36/1/1
f  37/1/2 33/1/2 35/1/2
f  33/1/3 38/1/3 36/1/3
f  38/1/4 34/1/4 36/1/4
f  34/1/4 38/1/4 39/1/4
f  33/1/2 37/1/2 40/1/2
f  38/1/3 33/1/3 40/1/3
f  38/1/5 37/1/5 39/1/5
f  37/1/5 38/1/5 40/1/5

# Mesh 'mesh1_mesh1-geometry' with 14 faces
g mesh1_mesh1-geometry
usemtl material_1_1_8
f  35/2/5 34/1/5 33/3/5
f  36/4/5 33/3/5 34/1/5
f  35/5/3 39/1/3 34/6/3
f  34/6/6 39/1/6 35/5/6
f  35/7/4 33/8/4 37/1/4
f  36/6/6 38/1/6 33/5/6
f  36/9/2 34/10/2 38/4/2
f  39/1/3 35/5/3 37/11/3
f  37/11/6 35/5/6 39/1/6
f  39/1/2 38/4/2 34/10/2
f  40/4/4 37/1/4 33/8/4
f  40/11/6 33/5/6 38/1/6
f  39/1/1 37/11/1 38/4/1
f  40/12/1 38/4/1 37/11/1

# Mesh 'mesh1_mesh1-geometry' with 10 faces
g mesh1_mesh1-geometry
usemtl material_0_24
f  41/1/1 42/1/1 43/1/1
f  42/1/1 41/1/1 44/1/1
f  45/1/2 41/1/2 43/1/2
f  41/1/3 46/1/3 44/1/3
f  46/1/4 42/1/4 44/1/4
f  42/1/4 46/1/4 47/1/4
f  41/1/2 45/1/2 48/1/2
f  46/1/3 41/1/3 48/1/3
f  46/1/5 45/1/5 47/1/5
f  45/1/5 46/1/5 48/1/5

# Mesh 'mesh1_mesh1-geometry' with 14 faces
g mesh1_mesh1-geometry
usemtl material_1_1_8
f  43/2/5 42/1/5 41/3/5
f  44/4/5 41/3/5 42/1/5
f  43/5/3 47/1/3 42/6/3
f  42/6/6 47/1/6 43/5/6
f  43/7/4 41/8/4 45/1/4
f  44/6/6 46/1/6 41/5/6
f  44/9/2 42/10/2 46/4/2
f  47/1/3 43/5/3 45/11/3
f  45/11/6 43/5/6 47/1/6
f  47/1/2 46/4/2 42/10/2
f  48/4/4 45/1/4 41/8/4
f  48/11/6 41/5/6 46/1/6
f  47/1/1 45/11/1 46/4/1
f  48/12/1 46/4/1 45/11/1

# Mesh 'mesh2_mesh2-geometry' with 12 faces
g mesh2_mesh2-geometry
usemtl material_1_1_8
f  49/13/4 50/6/4 51/1/4
f  50/6/4 49/13/4 52/14/4
f  53/15/1 51/16/1 50/17/1
f  54/18/3 49/19/3 51/20/3
f  49/20/5 55/21/5 52/22/5
f  55/23/6 50/16/6 52/24/6
f  51/16/1 53/15/1 54/25/1
f  50/16/6 55/23/6 53/25/6
f  49/19/3 54/18/3 56/26/3
f  55/21/5 49/20/5 56/18/5
f  53/6/2 56/27/2 54/1/2
f  56/27/2 53/6/2 55/28/2

# Mesh 'mesh2_mesh2-geometry' with 12 faces
g mesh2_mesh2-geometry
usemtl material_0_24
f  51//2 50//2 49//2
f  52//2 49//2 50//2
f  50//5 51//5 53//5
f  51//6 49//6 54//6
f  52//1 55//1 49//1
f  52//3 50//3 55//3
f  54//5 53//5 51//5
f  53//3 55//3 50//3
f  56//6 54//6 49//6
f  56//1 49//1 55//1
f  54//4 56//4 53//4
f  55//4 53//4 56//4

# Mesh 'mesh3_mesh3-geometry' with 12 faces
g mesh3_mesh3-geometry
usemtl material_1_1_8
f  57/29/4 58/6/4 59/1/4
f  58/6/4 57/29/4 60/30/4
f  61/15/1 59/16/1 58/17/1
f  62/18/3 57/31/3 59/20/3
f  57/20/5 63/21/5 60/22/5
f  63/32/6 58/16/6 60/33/6
f  59/16/1 61/15/1 62/25/1
f  58/16/6 63/32/6 61/25/6
f  57/31/3 62/18/3 64/34/3
f  63/21/5 57/20/5 64/18/5
f  63/35/2 62/1/2 61/6/2
f  62/1/2 63/35/2 64/36/2

# Mesh 'mesh3_mesh3-geometry' with 12 faces
g mesh3_mesh3-geometry
usemtl material_0_24
f  59//2 58//2 57//2
f  60//2 57//2 58//2
f  58//5 59//5 61//5
f  59//6 57//6 62//6
f  60//1 63//1 57//1
f  60//3 58//3 63//3
f  62//5 61//5 59//5
f  61//3 63//3 58//3
f  64//6 62//6 57//6
f  64//1 57//1 63//1
f  61//4 62//4 63//4
f  64//4 63//4 62//4

# Mesh 'mesh2_mesh2-geometry' with 12 faces
g mesh2_mesh2-geometry
usemtl material_1_1_8
f  65/13/4 66/6/4 67/1/4
f  66/6/4 65/13/4 68/14/4
f  42/15/6 67/16/6 66/17/6
f  47/18/1 65/19/1 67/20/1
f  65/20/3 69/21/3 68/22/3
f  69/23/5 66/16/5 68/24/5
f  67/16/6 42/15/6 47/25/6
f  66/16/5 69/23/5 42/25/5
f  65/19/1 47/18/1 70/26/1
f  69/21/3 65/20/3 70/18/3
f  42/6/2 70/27/2 47/1/2
f  70/27/2 42/6/2 69/28/2

# Mesh 'mesh2_mesh2-geometry' with 12 faces
g mesh2_mesh2-geometry
usemtl material_0_24
f  67//2 66//2 65//2
f  68//2 65//2 66//2
f  66//3 67//3 42//3
f  67//5 65//5 47//5
f  68//6 69//6 65//6
f  68//1 66//1 69//1
f  47//3 42//3 67//3
f  42//1 69//1 66//1
f  70//5 47//5 65//5
f  70//6 65//6 69//6
f  47//4 70//4 42//4
f  69//4 42//4 70//4

# Mesh 'mesh3_mesh3-geometry' with 12 faces
g mesh3_mesh3-geometry
usemtl material_1_1_8
f  71/29/4 72/6/4 73/1/4
f  72/6/4 71/29/4 74/30/4
f  67/15/1 73/16/1 72/17/1
f  75/18/3 71/31/3 73/20/3
f  71/20/5 76/21/5 74/22/5
f  76/32/6 72/16/6 74/33/6
f  73/16/1 67/15/1 75/25/1
f  72/16/6 76/32/6 67/25/6
f  71/31/3 75/18/3 77/34/3
f  76/21/5 71/20/5 77/18/5
f  76/35/2 75/1/2 67/6/2
f  75/1/2 76/35/2 77/36/2

# Mesh 'mesh3_mesh3-geometry' with 12 faces
g mesh3_mesh3-geometry
usemtl material_0_24
f  73//2 72//2 71//2
f  74//2 71//2 72//2
f  72//5 73//5 67//5
f  73//6 71//6 75//6
f  74//1 76//1 71//1
f  74//3 72//3 76//3
f  75//5 67//5 73//5
f  67//3 76//3 72//3
f  77//6 75//6 71//6
f  77//1 71//1 76//1
f  67//4 75//4 76//4
f  77//4 76//4 75//4

# Mesh 'mesh3_mesh3-geometry' with 12 faces
g mesh3_mesh3-geometry
usemtl material_1_1_8
f  78/29/4 79/6/4 80/1/4
f  79/6/4 78/29/4 81/30/4
f  82/15/1 80/16/1 79/17/1
f  83/18/3 78/31/3 80/20/3
f  78/20/5 84/21/5 81/22/5
f  84/32/6 79/16/6 81/33/6
f  80/16/1 82/15/1 83/25/1
f  79/16/6 84/32/6 82/25/6
f  78/31/3 83/18/3 85/34/3
f  84/21/5 78/20/5 85/18/5
f  84/35/2 83/1/2 82/6/2
f  83/1/2 84/35/2 85/36/2

# Mesh 'mesh3_mesh3-geometry' with 12 faces
g mesh3_mesh3-geometry
usemtl material_0_24
f  80//2 79//2 78//2
f  81//2 78//2 79//2
f  79//5 80//5 82//5
f  80//6 78//6 83//6
f  81//1 84//1 78//1
f  81//3 79//3 84//3
f  83//5 82//5 80//5
f  82//3 84//3 79//3
f  85//6 83//6 78//6
f  85//1 78//1 84//1
f  82//4 83//4 84//4
f  85//4 84//4 83//4

# Mesh 'mesh2_mesh2-geometry' with 12 faces
g mesh2_mesh2-geometry
usemtl material_1_1_8
f  86/13/4 87/6/4 88/1/4
f  87/6/4 86/13/4 89/14/4
f  90/15/1 88/16/1 87/17/1
f  91/18/3 86/19/3 88/20/3
f  86/20/5 92/21/5 89/22/5
f  92/23/6 87/16/6 89/24/6
f  88/16/1 90/15/1 91/25/1
f  87/16/6 92/23/6 90/25/6
f  86/19/3 91/18/3 93/26/3
f  92/21/5 86/20/5 93/18/5
f  90/6/2 93/27/2 91/1/2
f  93/27/2 90/6/2 92/28/2

# Mesh 'mesh2_mesh2-geometry' with 12 faces
g mesh2_mesh2-geometry
usemtl material_0_24
f  88//2 87//2 86//2
f  89//2 86//2 87//2
f  87//5 88//5 90//5
f  88//6 86//6 91//6
f  89//1 92//1 86//1
f  89//3 87//3 92//3
f  91//5 90//5 88//5
f  90//3 92//3 87//3
f  93//6 91//6 86//6
f  93//1 86//1 92//1
f  91//4 93//4 90//4
f  92//4 90//4 93//4

# Mesh 'mesh3_mesh3-geometry' with 12 faces
g mesh3_mesh3-geometry
usemtl material_1_1_8
f  94/29/4 19/6/4 21/1/4
f  19/6/4 94/29/4 95/30/4
f  96/15/6 21/16/6 19/17/6
f  97/18/1 94/31/1 21/20/1
f  94/20/3 98/21/3 95/22/3
f  98/32/5 19/16/5 95/33/5
f  21/16/6 96/15/6 97/25/6
f  19/16/5 98/32/5 96/25/5
f  94/31/1 97/18/1 99/34/1
f  98/21/3 94/20/3 99/18/3
f  98/35/2 97/1/2 96/6/2
f  97/1/2 98/35/2 99/36/2

# Mesh 'mesh3_mesh3-geometry' with 12 faces
g mesh3_mesh3-geometry
usemtl material_0_24
f  21//2 19//2 94//2
f  95//2 94//2 19//2
f  19//3 21//3 96//3
f  21//5 94//5 97//5
f  95//6 98//6 94//6
f  95//1 19//1 98//1
f  97//3 96//3 21//3
f  96//1 98//1 19//1
f  99//5 97//5 94//5
f  99//6 94//6 98//6
f  96//4 97//4 98//4
f  99//4 98//4 97//4

# Mesh 'mesh3_mesh3-geometry' with 12 faces
g mesh3_mesh3-geometry
usemtl material_1_1_8
f  100/29/4 3/6/4 5/1/4
f  3/6/4 100/29/4 101/30/4
f  102/15/6 5/16/6 3/17/6
f  103/18/1 100/31/1 5/20/1
f  100/20/3 104/21/3 101/22/3
f  104/32/5 3/16/5 101/33/5
f  5/16/6 102/15/6 103/25/6
f  3/16/5 104/32/5 102/25/5
f  100/31/1 103/18/1 105/34/1
f  104/21/3 100/20/3 105/18/3
f  104/35/2 103/1/2 102/6/2
f  103/1/2 104/35/2 105/36/2

# Mesh 'mesh3_mesh3-geometry' with 12 faces
g mesh3_mesh3-geometry
usemtl material_0_24
f  5//2 3//2 100//2
f  101//2 100//2 3//2
f  3//3 5//3 102//3
f  5//5 100//5 103//5
f  101//6 104//6 100//6
f  101//1 3//1 104//1
f  103//3 102//3 5//3
f  102//1 104//1 3//1
f  105//5 103//5 100//5
f  105//6 100//6 104//6
f  102//4 103//4 104//4
f  105//4 104//4 103//4

# Mesh 'mesh3_mesh3-geometry' with 12 faces
g mesh3_mesh3-geometry
usemtl material_1_1_8
f  106/29/4 107/6/4 108/1/4
f  107/6/4 106/29/4 109/30/4
f  18/15/6 108/16/6 107/17/6
f  23/18/1 106/31/1 108/20/1
f  106/20/3 110/21/3 109/22/3
f  110/32/5 107/16/5 109/33/5
f  108/16/6 18/15/6 23/25/6
f  107/16/5 110/32/5 18/25/5
f  106/31/1 23/18/1 111/34/1
f  110/21/3 106/20/3 111/18/3
f  110/35/2 23/1/2 18/6/2
f  23/1/2 110/35/2 111/36/2

# Mesh 'mesh3_mesh3-geometry' with 12 faces
g mesh3_mesh3-geometry
usemtl material_0_24
f  108//2 107//2 106//2
f  109//2 106//2 107//2
f  107//3 108//3 18//3
f  108//5 106//5 23//5
f  109//6 110//6 106//6
f  109//1 107//1 110//1
f  23//3 18//3 108//3
f  18//1 110//1 107//1
f  111//5 23//5 106//5
f  111//6 106//6 110//6
f  18//4 23//4 110//4
f  111//4 110//4 23//4

# Mesh 'mesh3_mesh3-geometry' with 12 faces
g mesh3_mesh3-geometry
usemtl material_1_1_8
f  112/29/4 113/6/4 114/1/4
f  113/6/4 112/29/4 115/30/4
f  2/15/6 114/16/6 113/17/6
f  7/18/1 112/31/1 114/20/1
f  112/20/3 116/21/3 115/22/3
f  116/32/5 113/16/5 115/33/5
f  114/16/6 2/15/6 7/25/6
f  113/16/5 116/32/5 2/25/5
f  112/31/1 7/18/1 117/34/1
f  116/21/3 112/20/3 117/18/3
f  116/35/2 7/1/2 2/6/2
f  7/1/2 116/35/2 117/36/2

# Mesh 'mesh3_mesh3-geometry' with 12 faces
g mesh3_mesh3-geometry
usemtl material_0_24
f  114//2 113//2 112//2
f  115//2 112//2 113//2
f  113//3 114//3 2//3
f  114//5 112//5 7//5
f  115//6 116//6 112//6
f  115//1 113//1 116//1
f  7//3 2//3 114//3
f  2//1 116//1 113//1
f  117//5 7//5 112//5
f  117//6 112//6 116//6
f  2//4 7//4 116//4
f  117//4 116//4 7//4

# Mesh 'mesh3_mesh3-geometry' with 12 faces
g mesh3_mesh3-geometry
usemtl material_1_1_8
f  118/29/4 119/6/4 120/1/4
f  119/6/4 118/29/4 121/30/4
f  122/15/6 120/16/6 119/17/6
f  123/18/1 118/31/1 120/20/1
f  118/20/3 124/21/3 121/22/3
f  124/32/5 119/16/5 121/33/5
f  120/16/6 122/15/6 123/25/6
f  119/16/5 124/32/5 122/25/5
f  118/31/1 123/18/1 125/34/1
f  124/21/3 118/20/3 125/18/3
f  124/35/2 123/1/2 122/6/2
f  123/1/2 124/35/2 125/36/2

# Mesh 'mesh3_mesh3-geometry' with 12 faces
g mesh3_mesh3-geometry
usemtl material_0_24
f  120//2 119//2 118//2
f  121//2 118//2 119//2
f  119//3 120//3 122//3
f  120//5 118//5 123//5
f  121//6 124//6 118//6
f  121//1 119//1 124//1
f  123//3 122//3 120//3
f  122//1 124//1 119//1
f  125//5 123//5 118//5
f  125//6 118//6 124//6
f  122//4 123//4 124//4
f  125//4 124//4 123//4

# Mesh 'mesh3_mesh3-geometry' with 12 faces
g mesh3_mesh3-geometry
usemtl material_1_1_8
f  126/29/4 127/6/4 128/1/4
f  127/6/4 126/29/4 129/30/4
f  130/15/6 128/16/6 127/17/6
f  131/18/1 126/31/1 128/20/1
f  126/20/3 132/21/3 129/22/3
f  132/32/5 127/16/5 129/33/5
f  128/16/6 130/15/6 131/25/6
f  127/16/5 132/32/5 130/25/5
f  126/31/1 131/18/1 133/34/1
f  132/21/3 126/20/3 133/18/3
f  132/35/2 131/1/2 130/6/2
f  131/1/2 132/35/2 133/36/2

# Mesh 'mesh3_mesh3-geometry' with 12 faces
g mesh3_mesh3-geometry
usemtl material_0_24
f  128//2 127//2 126//2
f  129//2 126//2 127//2
f  127//3 128//3 130//3
f  128//5 126//5 131//5
f  129//6 132//6 126//6
f  129//1 127//1 132//1
f  131//3 130//3 128//3
f  130//1 132//1 127//1
f  133//5 131//5 126//5
f  133//6 126//6 132//6
f  130//4 131//4 132//4
f  133//4 132//4 131//4

# Mesh 'mesh2_mesh2-geometry' with 12 faces
g mesh2_mesh2-geometry
usemtl material_1_1_8
f  134/13/4 135/6/4 136/1/4
f  135/6/4 134/13/4 137/14/4
f  138/15/6 136/16/6 135/17/6
f  139/18/1 134/19/1 136/20/1
f  134/20/3 140/21/3 137/22/3
f  140/23/5 135/16/5 137/24/5
f  136/16/6 138/15/6 139/25/6
f  135/16/5 140/23/5 138/25/5
f  134/19/1 139/18/1 141/26/1
f  140/21/3 134/20/3 141/18/3
f  138/6/2 141/27/2 139/1/2
f  141/27/2 138/6/2 140/28/2

# Mesh 'mesh2_mesh2-geometry' with 12 faces
g mesh2_mesh2-geometry
usemtl material_0_24
f  136//2 135//2 134//2
f  137//2 134//2 135//2
f  135//3 136//3 138//3
f  136//5 134//5 139//5
f  137//6 140//6 134//6
f  137//1 135//1 140//1
f  139//3 138//3 136//3
f  138//1 140//1 135//1
f  141//5 139//5 134//5
f  141//6 134//6 140//6
f  139//4 141//4 138//4
f  140//4 138//4 141//4

# Mesh 'mesh2_mesh2-geometry' with 12 faces
g mesh2_mesh2-geometry
usemtl material_1_1_8
f  142/13/4 43/6/4 45/1/4
f  43/6/4 142/13/4 143/14/4
f  144/15/6 45/16/6 43/17/6
f  58/18/1 142/19/1 45/20/1
f  142/20/3 145/21/3 143/22/3
f  145/23/5 43/16/5 143/24/5
f  45/16/6 144/15/6 58/25/6
f  43/16/5 145/23/5 144/25/5
f  142/19/1 58/18/1 146/26/1
f  145/21/3 142/20/3 146/18/3
f  144/6/2 146/27/2 58/1/2
f  146/27/2 144/6/2 145/28/2

# Mesh 'mesh2_mesh2-geometry' with 12 faces
g mesh2_mesh2-geometry
usemtl material_0_24
f  45//2 43//2 142//2
f  143//2 142//2 43//2
f  43//3 45//3 144//3
f  45//5 142//5 58//5
f  143//6 145//6 142//6
f  143//1 43//1 145//1
f  58//3 144//3 45//3
f  144//1 145//1 43//1
f  146//5 58//5 142//5
f  146//6 142//6 145//6
f  58//4 146//4 144//4
f  145//4 144//4 146//4

# Mesh 'mesh2_mesh2-geometry' with 12 faces
g mesh2_mesh2-geometry
usemtl material_1_1_8
f  147/13/4 148/6/4 149/1/4
f  148/6/4 147/13/4 150/14/4
f  151/15/5 149/16/5 148/17/5
f  113/18/6 147/19/6 149/20/6
f  147/20/1 152/21/1 150/22/1
f  152/23/3 148/16/3 150/24/3
f  149/16/5 151/15/5 113/25/5
f  148/16/3 152/23/3 151/25/3
f  147/19/6 113/18/6 153/26/6
f  152/21/1 147/20/1 153/18/1
f  151/6/2 153/27/2 113/1/2
f  153/27/2 151/6/2 152/28/2

# Mesh 'mesh2_mesh2-geometry' with 12 faces
g mesh2_mesh2-geometry
usemtl material_0_24
f  149//2 148//2 147//2
f  150//2 147//2 148//2
f  148//1 149//1 151//1
f  149//3 147//3 113//3
f  150//5 152//5 147//5
f  150//6 148//6 152//6
f  113//1 151//1 149//1
f  151//6 152//6 148//6
f  153//3 113//3 147//3
f  153//5 147//5 152//5
f  113//4 153//4 151//4
f  152//4 151//4 153//4

# Mesh 'mesh1_mesh1-geometry' with 10 faces
g mesh1_mesh1-geometry
usemtl material_0_24
f  100/1/6 154/1/6 155/1/6
f  154/1/6 100/1/6 117/1/6
f  156/1/2 100/1/2 155/1/2
f  100/1/1 157/1/1 117/1/1
f  157/1/4 154/1/4 117/1/4
f  154/1/4 157/1/4 158/1/4
f  100/1/2 156/1/2 159/1/2
f  157/1/1 100/1/1 159/1/1
f  157/1/3 156/1/3 158/1/3
f  156/1/3 157/1/3 159/1/3

# Mesh 'mesh1_mesh1-geometry' with 14 faces
g mesh1_mesh1-geometry
usemtl material_1_1_8
f  155/2/3 154/1/3 100/3/3
f  117/4/3 100/3/3 154/1/3
f  155/5/1 158/1/1 154/6/1
f  154/6/5 158/1/5 155/5/5
f  155/7/4 100/8/4 156/1/4
f  117/6/5 157/1/5 100/5/5
f  117/9/2 154/10/2 157/4/2
f  158/1/1 155/5/1 156/11/1
f  156/11/5 155/5/5 158/1/5
f  158/1/2 157/4/2 154/10/2
f  159/4/4 156/1/4 100/8/4
f  159/11/5 100/5/5 157/1/5
f  158/1/6 156/11/6 157/4/6
f  159/12/6 157/4/6 156/11/6

# Mesh 'mesh1_mesh1-geometry' with 10 faces
g mesh1_mesh1-geometry
usemtl material_0_24
f  160/1/6 69/1/6 143/1/6
f  69/1/6 160/1/6 161/1/6
f  162/1/2 160/1/2 143/1/2
f  160/1/1 163/1/1 161/1/1
f  163/1/4 69/1/4 161/1/4
f  69/1/4 163/1/4 164/1/4
f  160/1/2 162/1/2 165/1/2
f  163/1/1 160/1/1 165/1/1
f  163/1/3 162/1/3 164/1/3
f  162/1/3 163/1/3 165/1/3

# Mesh 'mesh1_mesh1-geometry' with 14 faces
g mesh1_mesh1-geometry
usemtl material_1_1_8
f  143/2/3 69/1/3 160/3/3
f  161/4/3 160/3/3 69/1/3
f  143/5/1 164/1/1 69/6/1
f  69/6/5 164/1/5 143/5/5
f  143/7/4 160/8/4 162/1/4
f  161/6/5 163/1/5 160/5/5
f  161/9/2 69/10/2 163/4/2
f  164/1/1 143/5/1 162/11/1
f  162/11/5 143/5/5 164/1/5
f  164/1/2 163/4/2 69/10/2
f  165/4/4 162/1/4 160/8/4
f  165/11/5 160/5/5 163/1/5
f  164/1/6 162/11/6 163/4/6
f  165/12/6 163/4/6 162/11/6

