# File produced by Open Asset Import Library (http://www.assimp.sf.net)
# (assimp v3.2.202087883)

mtllib model_normalized.mtl

# 65 vertex positions
v 0.510226 0.068171 0.112884
v -0.384025 0.050974 0.112884
v 0.510226 0.050974 0.112884
v -0.384025 0.068171 0.112884
v -0.384025 0.050974 0.101419
v 0.510226 0.068171 -0.116411
v 0.510226 0.050974 0.101419
v -0.392624 0.068171 -0.116411
v -0.392624 0.068171 -0.104947
v 0.510226 0.050974 -0.116411
v -0.384025 0.028045 0.101419
v -0.392624 0.050974 0.101419
v -0.392624 0.068171 0.112884
v -0.392624 0.050974 -0.116411
v -0.392624 0.028045 0.101419
v -0.384025 0.050974 0.078489
v 0.533155 0.050974 -0.082017
v 0.533155 0.050974 0.078489
v -0.392624 0.050974 -0.104947
v -0.384025 0.050974 -0.082017
v -0.384025 0.050974 -0.104947
v 0.510226 0.050974 -0.104947
v 0.510226 -0.155392 0.124348
v 0.510226 -0.155392 0.101419
v 0.510226 0.073904 0.124348
v 0.510226 0.073904 -0.127876
v 0.533155 -0.155392 0.101419
v 0.533155 -0.155392 0.124348
v 0.510226 0.028045 0.101419
v -0.384025 -0.155392 0.101419
v -0.384025 0.073904 -0.127876
v 0.533155 0.073904 0.124348
v 0.510226 -0.155392 -0.127876
v 0.533155 0.028045 0.078489
v 0.533155 0.050974 0.101419
v -0.384025 -0.155392 0.124348
v -0.406955 -0.155392 0.101419
v -0.392624 0.050974 0.078489
v -0.384025 0.073904 0.124348
v 0.533155 0.028045 0.101419
v 0.533155 0.073904 -0.127876
v 0.510226 -0.155392 -0.104947
v 0.533155 -0.155392 -0.127876
v -0.406955 0.050974 0.101419
v -0.406955 -0.155392 0.124348
v -0.406955 0.050974 0.078489
v -0.406955 0.073904 0.124348
v 0.510226 0.028045 -0.104947
v -0.406955 0.028045 0.101419
v -0.392624 0.050974 -0.082017
v 0.533155 0.028045 -0.082017
v 0.533155 0.050974 -0.104947
v -0.406955 0.073904 -0.127876
v -0.384025 0.028045 -0.104947
v -0.406955 0.050974 -0.104947
v 0.533155 -0.155392 -0.104947
v -0.406955 0.028045 0.078489
v -0.406955 0.050974 -0.082017
v 0.533155 0.028045 -0.104947
v -0.384025 -0.155392 -0.127876
v -0.384025 -0.155392 -0.104947
v -0.406955 0.028045 -0.104947
v -0.406955 0.028045 -0.082017
v -0.406955 -0.155392 -0.127876
v -0.406955 -0.155392 -0.104947

# 29 UV coordinates
vt 1.09361 0.213255 0
vt 0.240595 0.19685 0
vt 1.09361 0.19685 0
vt 0.240595 0.213255 0
vt -0.240595 0.021872 0
vt -1.09361 0.010936 0
vt -0.240595 0.010936 0
vt 1.09361 0.229659 0
vt 0.240595 0.010936 0
vt 1.09361 0.010936 0
vt -1.09361 0.021872 0
vt 0.232393 0.229659 0
vt 0.232393 0.218723 0
vt -1.09361 0.19685 0
vt -0.232393 0.213255 0
vt -1.09361 0.213255 0
vt -0.240595 0.174978 0
vt -0.232393 0.19685 0
vt -0.240595 0.19685 0
vt 0.232393 0.010936 0
vt -0.232393 0.174978 0
vt -0.240595 0.043745 0
vt -1.11549 0.19685 0
vt -1.11549 0.043745 0
vt -1.09361 0.229659 0
vt -0.232393 0.218723 0
vt -0.232393 0.229659 0
vt -0.240595 0.218723 0
vt -1.09361 0.218723 0

# 6 vertex normals
vn 0 0 0.0254
vn 0 -0.0254 -0
vn 0 0.0254 0
vn 0 0 -0.0254
vn 0.0254 0 0
vn -0.0254 0 0

# Mesh 'mesh1_mesh1-geometry' with 17 faces
g mesh1_mesh1-geometry
usemtl material_0_1_8
f  1/1/1 2/2/1 3/3/1
f  2/2/1 1/1/1 4/4/1
f  5/5/2 3/6/2 2/7/2
f  6/8/3 4/9/3 1/10/3
f  3/6/2 5/5/2 7/11/2
f  8/12/3 4/9/3 6/8/3
f  9/13/3 4/9/3 8/12/3
f  10/14/4 8/15/4 6/16/4
f  11/17/4 12/18/4 5/19/4
f  4/9/3 9/13/3 13/20/3
f  8/15/4 10/14/4 14/18/4
f  12/18/4 11/17/4 15/21/4
f  16/22/2 17/23/2 18/24/2
f  10/25/2 19/26/2 14/27/2
f  17/23/2 16/22/2 20/19/2
f  19/26/2 10/25/2 21/28/2
f  21/28/2 10/25/2 22/29/2

# Mesh 'mesh1_mesh1-geometry' with 167 faces
g mesh1_mesh1-geometry
usemtl material_1_24
f  3//4 2//4 1//4
f  4//4 1//4 2//4
f  2//3 3//3 5//3
f  1//5 23//5 3//5
f  1//2 4//2 6//2
f  7//3 5//3 3//3
f  24//5 3//5 23//5
f  23//5 1//5 25//5
f  6//2 4//2 8//2
f  6//5 26//5 1//5
f  5//4 7//4 11//4
f  7//3 16//3 5//3
f  5//2 16//2 7//2
f  7//5 3//5 24//5
f  24//3 23//3 27//3
f  26//5 25//5 1//5
f  23//4 25//4 28//4
f  8//2 4//2 9//2
f  6//1 8//1 10//1
f  10//5 26//5 6//5
f  29//4 11//4 7//4
f  5//1 12//1 11//1
f  30//6 5//6 11//6
f  16//3 7//3 18//3
f  18//2 7//2 16//2
f  5//6 31//6 16//6
f  12//2 16//2 5//2
f  5//3 16//3 12//3
f  29//5 7//5 24//5
f  28//3 27//3 23//3
f  24//1 27//1 29//1
f  25//2 26//2 32//2
f  32//4 28//4 25//4
f  13//2 9//2 4//2
f  8//6 19//6 9//6
f  9//5 19//5 8//5
f  14//1 10//1 8//1
f  26//5 10//5 33//5
f  29//3 34//3 11//3
f  29//1 35//1 7//1
f  7//4 35//4 29//4
f  15//1 11//1 12//1
f  5//6 30//6 36//6
f  30//1 11//1 37//1
f  18//3 7//3 35//3
f  35//2 7//2 18//2
f  16//1 38//1 18//1
f  18//3 17//3 16//3
f  5//6 39//6 31//6
f  16//6 31//6 20//6
f  16//2 12//2 38//2
f  38//3 12//3 16//3
f  28//6 32//6 27//6
f  40//1 29//1 27//1
f  41//2 32//2 26//2
f  19//6 8//6 14//6
f  14//5 8//5 19//5
f  14//3 19//3 10//3
f  33//5 10//5 42//5
f  33//1 43//1 26//1
f  11//3 34//3 15//3
f  40//3 34//3 29//3
f  35//1 29//1 40//1
f  40//4 29//4 35//4
f  15//1 37//1 11//1
f  15//4 44//4 12//4
f  12//1 44//1 15//1
f  36//3 30//3 45//3
f  39//6 5//6 36//6
f  37//3 45//3 30//3
f  18//6 34//6 35//6
f  18//6 35//6 41//6
f  38//1 46//1 18//1
f  16//3 20//3 38//3
f  20//3 16//3 17//3
f  17//6 18//6 41//6
f  39//2 47//2 31//2
f  20//6 31//6 21//6
f  38//2 12//2 46//2
f  35//6 27//6 32//6
f  40//6 27//6 35//6
f  41//6 35//6 32//6
f  41//1 26//1 43//1
f  21//3 10//3 19//3
f  42//5 10//5 48//5
f  33//3 42//3 43//3
f  15//3 34//3 49//3
f  40//6 35//6 34//6
f  49//1 37//1 15//1
f  44//4 15//4 49//4
f  49//1 15//1 44//1
f  44//2 46//2 12//2
f  36//4 45//4 39//4
f  45//5 37//5 47//5
f  18//1 46//1 34//1
f  38//3 50//3 46//3
f  20//3 50//3 38//3
f  17//4 51//4 20//4
f  17//3 21//3 20//3
f  20//2 21//2 17//2
f  52//6 17//6 41//6
f  53//2 31//2 47//2
f  47//4 39//4 45//4
f  21//6 31//6 54//6
f  50//2 21//2 20//2
f  20//3 21//3 50//3
f  43//6 52//6 41//6
f  22//3 10//3 21//3
f  21//2 50//2 19//2
f  19//3 50//3 21//3
f  55//1 21//1 19//1
f  19//4 21//4 55//4
f  22//5 48//5 10//5
f  42//4 48//4 56//4
f  56//3 43//3 42//3
f  57//3 49//3 34//3
f  44//5 37//5 49//5
f  44//5 49//5 46//5
f  46//5 53//5 44//5
f  44//5 47//5 37//5
f  57//1 34//1 46//1
f  58//3 46//3 50//3
f  20//4 58//4 50//4
f  20//4 51//4 58//4
f  51//6 17//6 59//6
f  21//3 17//3 22//3
f  22//2 17//2 21//2
f  52//6 59//6 17//6
f  22//3 17//3 52//3
f  52//2 17//2 22//2
f  31//1 53//1 60//1
f  53//5 47//5 44//5
f  54//6 31//6 61//6
f  54//1 48//1 21//1
f  21//1 62//1 54//1
f  54//4 62//4 21//4
f  52//6 43//6 59//6
f  22//1 21//1 48//1
f  19//3 55//3 50//3
f  62//1 21//1 55//1
f  55//4 21//4 62//4
f  22//4 59//4 48//4
f  48//1 59//1 22//1
f  59//4 56//4 48//4
f  56//6 59//6 43//6
f  57//5 46//5 49//5
f  58//5 53//5 46//5
f  58//3 50//3 55//3
f  63//4 58//4 51//4
f  59//3 48//3 51//3
f  59//4 22//4 52//4
f  52//1 22//1 59//1
f  64//1 60//1 53//1
f  61//6 31//6 60//6
f  61//4 65//4 54//4
f  48//3 54//3 51//3
f  62//3 63//3 54//3
f  62//4 54//4 65//4
f  62//5 55//5 63//5
f  62//5 53//5 55//5
f  55//5 53//5 58//5
f  58//5 63//5 55//5
f  51//3 54//3 63//3
f  64//3 65//3 60//3
f  64//5 53//5 65//5
f  61//3 60//3 65//3
f  65//5 53//5 62//5

# Mesh 'mesh1_mesh1-geometry' with 108 faces
g mesh1_mesh1-geometry
usemtl material_2_24
f  3//6 23//6 1//6
f  23//6 3//6 24//6
f  25//6 1//6 23//6
f  1//6 26//6 6//6
f  11//1 7//1 5//1
f  24//6 3//6 7//6
f  27//2 23//2 24//2
f  1//6 25//6 26//6
f  28//1 25//1 23//1
f  6//6 26//6 10//6
f  7//1 11//1 29//1
f  11//5 5//5 30//5
f  16//5 31//5 5//5
f  24//6 7//6 29//6
f  23//2 27//2 28//2
f  29//4 27//4 24//4
f  32//3 26//3 25//3
f  25//1 28//1 32//1
f  33//6 10//6 26//6
f  11//2 34//2 29//2
f  36//5 30//5 5//5
f  37//4 11//4 30//4
f  18//4 38//4 16//4
f  31//5 39//5 5//5
f  20//5 31//5 16//5
f  27//5 32//5 28//5
f  27//4 29//4 40//4
f  26//3 32//3 41//3
f  42//6 10//6 33//6
f  26//4 43//4 33//4
f  15//2 34//2 11//2
f  29//2 34//2 40//2
f  11//4 37//4 15//4
f  45//2 30//2 36//2
f  36//5 5//5 39//5
f  30//2 45//2 37//2
f  35//5 34//5 18//5
f  41//5 35//5 18//5
f  18//4 46//4 38//4
f  38//2 20//2 16//2
f  41//5 18//5 17//5
f  31//3 47//3 39//3
f  21//5 31//5 20//5
f  46//3 12//3 38//3
f  32//5 27//5 35//5
f  35//5 27//5 40//5
f  32//5 35//5 41//5
f  43//4 26//4 41//4
f  48//6 10//6 42//6
f  43//2 42//2 33//2
f  49//2 34//2 15//2
f  34//5 35//5 40//5
f  15//4 37//4 49//4
f  12//3 46//3 44//3
f  39//1 45//1 36//1
f  47//6 37//6 45//6
f  34//4 46//4 18//4
f  46//2 50//2 38//2
f  38//2 50//2 20//2
f  20//1 51//1 17//1
f  41//5 17//5 52//5
f  47//3 31//3 53//3
f  45//1 39//1 47//1
f  54//5 31//5 21//5
f  41//5 52//5 43//5
f  10//6 48//6 22//6
f  56//1 48//1 42//1
f  42//2 43//2 56//2
f  34//2 49//2 57//2
f  49//6 37//6 44//6
f  46//6 49//6 44//6
f  44//6 53//6 46//6
f  37//6 47//6 44//6
f  46//4 34//4 57//4
f  50//2 46//2 58//2
f  50//1 58//1 20//1
f  58//1 51//1 20//1
f  59//5 17//5 51//5
f  17//5 59//5 52//5
f  60//4 53//4 31//4
f  44//6 47//6 53//6
f  61//5 31//5 54//5
f  21//4 48//4 54//4
f  59//5 43//5 52//5
f  48//4 21//4 22//4
f  50//2 55//2 19//2
f  48//1 56//1 59//1
f  43//5 59//5 56//5
f  49//6 46//6 57//6
f  46//6 53//6 58//6
f  55//2 50//2 58//2
f  51//1 58//1 63//1
f  51//2 48//2 59//2
f  53//4 60//4 64//4
f  60//5 31//5 61//5
f  54//1 65//1 61//1
f  51//2 54//2 48//2
f  54//2 63//2 62//2
f  65//1 54//1 62//1
f  63//6 55//6 62//6
f  55//6 53//6 62//6
f  58//6 53//6 55//6
f  55//6 63//6 58//6
f  63//2 54//2 51//2
f  60//2 65//2 64//2
f  65//6 53//6 64//6
f  65//2 60//2 61//2
f  62//6 53//6 65//6

# Mesh 'mesh2_mesh2-geometry' with 3 faces
g mesh2_mesh2-geometry
usemtl material_1_0
l  12 15
l  38 12
l  44 12

# Mesh 'mesh3_mesh3-geometry' with 1 faces
g mesh3_mesh3-geometry
usemtl material_1_0
l  19 50

# Mesh 'mesh4_mesh4-geometry' with 1 faces
g mesh4_mesh4-geometry
usemtl material_1_0
l  22 52

# Mesh 'mesh5_mesh5-geometry' with 1 faces
g mesh5_mesh5-geometry
usemtl material_1_0
l  7 35

