# File produced by Open Asset Import Library (http://www.assimp.sf.net)
# (assimp v3.2.202087883)

mtllib model_normalized.mtl

# 84 vertex positions
v -0.298633 -0.090127 0.054731
v 0.273219 -0.090127 0.063210
v 0.273219 -0.090127 0.054731
v -0.298633 -0.090127 0.063210
v 0.273219 -0.090127 0.086762
v 0.273219 -0.372756 0.063210
v 0.273219 -0.372756 0.054731
v 0.273219 -0.090127 -0.290076
v -0.298633 -0.090127 0.086762
v -0.298633 -0.372756 0.054731
v -0.298633 -0.372756 0.063210
v 0.281698 -0.090127 -0.290076
v 0.273219 -0.419860 0.086762
v -0.298633 -0.090127 -0.290076
v -0.298633 -0.419860 -0.290076
v 0.281698 -0.090127 0.086762
v -0.307112 -0.081648 -0.290076
v 0.281698 -0.419860 -0.290076
v -0.307112 -0.090127 0.086762
v -0.298633 -0.419860 0.086762
v 0.281698 -0.419860 0.086762
v 0.281698 -0.081648 -0.054552
v 0.281698 -0.081648 0.086762
v 0.273219 -0.419860 -0.290076
v -0.307112 -0.090127 -0.290076
v 0.281698 -0.081648 -0.290076
v -0.307112 -0.419860 0.086762
v 0.281698 -0.081648 -0.007447
v -0.307112 -0.419860 -0.290076
v -0.012707 -0.081648 0.086762
v 0.281698 0.286711 -0.007447
v 0.273219 -0.081648 -0.054552
v 0.281698 0.286711 0.086762
v 0.273219 -0.081648 -0.007447
v -0.307112 -0.081648 -0.054552
v 0.273219 -0.081648 0.086762
v -0.021186 -0.081648 0.086762
v 0.273219 0.286711 -0.007447
v -0.307112 -0.081648 -0.007447
v -0.298633 -0.081648 -0.054552
v -0.012707 -0.081648 -0.054552
v -0.307112 -0.081648 0.086762
v -0.012707 0.034229 0.086762
v 0.281698 0.295190 0.086762
v -0.307112 0.286711 -0.007447
v 0.273219 0.034229 0.086762
v 0.273219 0.034229 -0.007447
v -0.298633 -0.081648 -0.007447
v -0.012707 -0.081648 -0.007447
v -0.298633 -0.081648 0.086762
v -0.021186 0.160470 0.086762
v 0.273219 0.286711 0.086762
v 0.281698 0.295190 -0.007447
v -0.298633 0.286711 -0.007447
v -0.307112 0.295190 -0.007447
v 0.273219 0.042708 0.086762
v -0.021186 -0.081648 -0.007447
v -0.012707 0.286711 -0.007447
v -0.021186 -0.081648 -0.054552
v -0.298633 0.160470 0.086762
v -0.012707 0.042708 0.086762
v -0.021186 0.160470 -0.007447
v -0.012707 0.034229 -0.007447
v 0.273219 0.168949 0.086762
v -0.012707 0.286711 0.086762
v -0.298633 0.286711 0.086762
v -0.307112 0.286711 0.086762
v 0.273219 0.042708 -0.007447
v 0.273219 0.160470 0.086762
v -0.298633 0.168949 -0.007447
v -0.012707 0.168949 -0.007447
v -0.021186 0.286711 -0.007447
v -0.012707 0.160470 0.086762
v -0.012707 0.042708 -0.007447
v 0.273219 0.168949 -0.007447
v -0.021186 0.286711 0.086762
v -0.307112 0.295190 0.086762
v 0.273219 0.160470 -0.007447
v -0.298633 0.160470 -0.007447
v -0.012707 0.160470 -0.007447
v -0.298633 0.168949 0.086762
v -0.021186 0.168949 0.086762
v -0.021186 0.168949 -0.007447
v -0.012707 0.168949 0.086762

# 167 UV coordinates
vt 0 0 0
vt 2.5252 0.4 0
vt 4.9532 2.8 0
vt 2.5252 2.8 0
vt -4.9532 15.5961 0
vt -2.5252 12.6681 0
vt -2.5252 15.5961 0
vt -4.9532 0.4 0
vt -2.5252 2.8 0
vt -4.9532 2.8 0
vt 7.83407 2.8 0
vt 7.93407 0 0
vt 7.93407 2.8 0
vt -2.5252 0.4 0
vt 7.83407 0.4 0
vt 4.9532 0.4 0
vt 7.79807 2.8 0
vt 6.33407 2.8 0
vt 7.79807 0.4 0
vt -4.9532 12.6681 0
vt -7.93407 2.8 0
vt -7.83407 0.4 0
vt -7.83407 2.8 0
vt -6.33407 0 0
vt -7.79807 2.8 0
vt -7.79807 0.4 0
vt -2.5252 0 0
vt -2.48919 2.8 0
vt -2.5252 15.6681 0
vt -4.9532 15.6681 0
vt -6.33407 2.8 0
vt 4.98919 2.872 0
vt 2.48919 0 0
vt 2.48919 2.8 0
vt -7.93407 0 0
vt -7.33407 2.872 0
vt -2.48919 2.872 0
vt -2.48919 0 0
vt 6.33407 0 0
vt 4.9532 0 0
vt 4.98919 2.8 0
vt 2.5252 0 0
vt 2.48919 2.872 0
vt -4.98919 0 0
vt -4.98919 2.8 0
vt -4.9532 0 0
vt -4.98919 15.8681 0
vt -4.9532 15.8681 0
vt -6.33407 2.872 0
vt -7.53407 2.872 0
vt -7.93407 2.872 0
vt -2.5252 15.8681 0
vt -2.48919 12.6681 0
vt -2.48919 15.8681 0
vt 4.98919 0 0
vt 6.33407 2.872 0
vt 4.98919 12.6681 0
vt 2.48919 14.6681 0
vt 2.48919 12.6681 0
vt -3.73919 2.872 0
vt -4.98919 12.6681 0
vt -7.53407 6 0
vt -7.93407 6 0
vt 7.33407 2.872 0
vt 2.5252 14.6681 0
vt -2.5252 2.872 0
vt -3.7752 2.872 0
vt 2.48919 4.70937 0
vt 2.5252 7.86284 0
vt 2.48919 7.86284 0
vt 2.5252 4.70937 0
vt -2.48919 6 0
vt 7.53407 2.872 0
vt 4.9532 14.6681 0
vt 4.98919 14.6681 0
vt 2.5252 15.0681 0
vt 3.73919 14.6681 0
vt 3.73919 15.8681 0
vt 2.5252 15.8681 0
vt -4.98919 2.872 0
vt -3.73919 3.856 0
vt -7.93407 6.072 0
vt 2.5252 6 0
vt 4.98919 6 0
vt 2.48919 6 0
vt 7.53407 6 0
vt -2.5252 3.856 0
vt 7.93407 2.872 0
vt 7.53407 3.856 0
vt 3.7752 15.8681 0
vt 4.98919 7.86284 0
vt 4.9532 4.70937 0
vt 4.98919 4.70937 0
vt 3.73919 15.0681 0
vt -4.9532 2.872 0
vt -3.7752 4.928 0
vt -7.93407 3.856 0
vt -7.53407 6.072 0
vt -2.48919 6.072 0
vt -2.5252 6 0
vt 4.9532 6 0
vt 4.98919 6.072 0
vt -2.5252 3.928 0
vt 7.93407 3.856 0
vt 3.7752 15.0681 0
vt 4.9532 15.8681 0
vt 4.9532 15.0681 0
vt 4.9532 7.86284 0
vt 3.7752 14.6681 0
vt -4.9532 4.928 0
vt -3.73919 3.928 0
vt 7.53407 4.928 0
vt 7.93407 4.928 0
vt -7.53407 3.856 0
vt 7.93407 5 0
vt 7.93407 6 0
vt -3.73919 15.8681 0
vt -2.5252 15.0681 0
vt -2.5252 5 0
vt 2.48919 6.072 0
vt 4.98919 15.0681 0
vt 2.48919 15.8681 0
vt 2.48919 15.0681 0
vt -4.9532 6 0
vt 3.73919 6 0
vt 7.53407 6.072 0
vt 7.53407 3.928 0
vt -2.5252 4.928 0
vt -7.93407 4.928 0
vt -7.53407 5 0
vt 3.73919 4.70937 0
vt 3.7752 7.86284 0
vt 3.73919 7.86284 0
vt 3.7752 4.70937 0
vt -4.98919 6 0
vt -3.73919 4.928 0
vt -3.7752 15.0681 0
vt -3.7752 15.8681 0
vt -7.53407 3.928 0
vt -3.73919 15.0681 0
vt 7.53407 5 0
vt -3.7752 6 0
vt -3.73919 6 0
vt 4.98919 15.8681 0
vt 3.7752 6 0
vt -4.9532 15.0681 0
vt 7.93407 6.072 0
vt 2.5252 3.856 0
vt 3.73919 3.928 0
vt 2.5252 3.928 0
vt 7.93407 3.928 0
vt -7.53407 4.928 0
vt -4.9532 5 0
vt -7.93407 3.928 0
vt 3.73919 3.856 0
vt -3.7752 5 0
vt -4.98919 6.072 0
vt -7.93407 5 0
vt 4.9532 5 0
vt 3.7752 4.928 0
vt 4.9532 4.928 0
vt 3.73919 5 0
vt 2.5252 4.928 0
vt 3.73919 4.928 0
vt 2.5252 5 0
vt -3.73919 5 0
vt 3.7752 5 0

# 8 vertex normals
vn 0 0.001 0
vn 0 -0.001 -0
vn -0.001 0 0
vn 0.001 0 0
vn 0 0 0.001
vn 0 -0 -0.001
vn 0 -0.000126844 0.000991923
vn 0 0.000126844 -0.000991923

# Mesh 'mesh1_mesh1-geometry' with 258 faces
g mesh1_mesh1-geometry
usemtl material_0_24
f  1/1/1 2/1/1 3/1/1
f  2/1/1 1/1/1 4/1/1
f  3/1/2 2/1/2 1/1/2
f  4/1/2 1/1/2 2/1/2
f  3/1/2 5/1/2 2/1/2
f  2/1/1 5/1/1 3/1/1
f  3/1/3 6/1/3 2/1/3
f  2/1/4 6/1/4 3/1/4
f  3/1/5 1/1/5 7/1/5
f  3/1/1 8/1/1 1/1/1
f  9/1/2 1/1/2 4/1/2
f  4/1/1 1/1/1 9/1/1
f  4/1/4 10/1/4 1/1/4
f  1/1/3 10/1/3 4/1/3
f  4/1/6 2/1/6 11/1/6
f  12/1/2 5/1/2 3/1/2
f  3/1/1 5/1/1 12/1/1
f  5/1/4 13/1/4 2/1/4
f  6/1/3 3/1/3 7/1/3
f  7/1/4 3/1/4 6/1/4
f  6/1/6 11/1/6 2/1/6
f  2/1/4 13/1/4 6/1/4
f  10/1/5 7/1/5 1/1/5
f  7/1/4 8/1/4 3/1/4
f  14/1/1 1/1/1 8/1/1
f  8/1/2 12/1/2 3/1/2
f  3/1/1 12/1/1 8/1/1
f  1/1/2 9/1/2 14/1/2
f  14/1/1 9/1/1 1/1/1
f  4/1/3 11/1/3 9/1/3
f  10/1/4 4/1/4 11/1/4
f  11/1/3 4/1/3 10/1/3
f  10/1/3 1/1/3 15/1/3
f  5/1/2 12/1/2 16/1/2
f  16/1/1 12/1/1 5/1/1
f  5/1/6 16/1/6 13/1/6
f  7/1/1 10/1/1 6/1/1
f  6/1/4 13/1/4 7/1/4
f  11/1/1 6/1/1 10/1/1
f  7/1/4 13/1/4 8/1/4
f  14/1/3 15/1/3 1/1/3
f  8/1/5 17/1/5 14/1/5
f  12/1/5 8/1/5 18/1/5
f  12/1/5 17/1/5 8/1/5
f  14/1/2 9/1/2 19/1/2
f  19/1/1 9/1/1 14/1/1
f  9/1/3 11/1/3 20/1/3
f  11/1/3 10/1/3 20/1/3
f  20/1/3 10/1/3 15/1/3
f  16/1/3 12/1/3 21/1/3
f  16/1/3 22/1/3 12/1/3
f  16/1/6 5/1/6 23/1/6
f  21/1/6 13/1/6 16/1/6
f  24/1/4 8/1/4 13/1/4
f  14/1/5 25/1/5 15/1/5
f  25/1/5 14/1/5 17/1/5
f  24/1/5 18/1/5 8/1/5
f  18/1/3 21/1/3 12/1/3
f  26/1/5 17/1/5 12/1/5
f  19/1/6 9/1/6 27/1/6
f  19/1/6 23/1/6 9/1/6
f  14/1/2 19/1/2 25/1/2
f  25/1/1 19/1/1 14/1/1
f  20/1/6 27/1/6 9/1/6
f  20/1/1 15/1/1 27/1/1
f  26/1/3 12/1/3 22/1/3
f  28/1/3 22/1/3 16/1/3
f  9/1/6 23/1/6 5/1/6
f  23/1/3 28/1/3 16/1/3
f  21/1/1 18/1/1 13/1/1
f  24/1/1 13/1/1 18/1/1
f  29/1/5 15/1/5 25/1/5
f  25/1/4 17/1/4 19/1/4
f  26/1/2 22/1/2 17/1/2
f  19/1/4 27/1/4 25/1/4
f  30/1/6 23/1/6 19/1/6
f  29/1/1 27/1/1 15/1/1
f  22/1/3 28/1/3 31/1/3
f  32/1/1 28/1/1 22/1/1
f  22/1/2 28/1/2 32/1/2
f  23/1/3 33/1/3 28/1/3
f  34/1/1 23/1/1 28/1/1
f  28/1/2 23/1/2 34/1/2
f  29/1/4 25/1/4 27/1/4
f  35/1/4 19/1/4 17/1/4
f  32/1/2 17/1/2 22/1/2
f  36/1/6 23/1/6 30/1/6
f  30/1/6 19/1/6 37/1/6
f  33/1/3 31/1/3 28/1/3
f  31/1/7 38/1/7 22/1/7
f  28/1/1 32/1/1 34/1/1
f  34/1/2 32/1/2 28/1/2
f  32/1/7 22/1/7 38/1/7
f  23/1/6 36/1/6 33/1/6
f  23/1/1 34/1/1 36/1/1
f  36/1/2 34/1/2 23/1/2
f  39/1/4 19/1/4 35/1/4
f  35/1/2 17/1/2 40/1/2
f  34/1/2 17/1/2 32/1/2
f  36/1/2 30/1/2 41/1/2
f  42/1/6 37/1/6 19/1/6
f  30/1/6 37/1/6 43/1/6
f  38/1/1 33/1/1 31/1/1
f  31/1/2 33/1/2 38/1/2
f  33/1/3 44/1/3 31/1/3
f  31/1/5 45/1/5 38/1/5
f  32/1/4 38/1/4 34/1/4
f  46/1/6 33/1/6 36/1/6
f  36/1/2 17/1/2 34/1/2
f  34/1/4 47/1/4 36/1/4
f  42/1/4 19/1/4 39/1/4
f  35/1/4 45/1/4 39/1/4
f  48/1/1 35/1/1 39/1/1
f  39/1/2 35/1/2 48/1/2
f  40/1/2 17/1/2 37/1/2
f  35/1/1 48/1/1 40/1/1
f  40/1/2 48/1/2 35/1/2
f  35/1/7 40/1/7 45/1/7
f  49/1/2 41/1/2 30/1/2
f  41/1/2 17/1/2 36/1/2
f  50/1/6 37/1/6 42/1/6
f  51/1/6 43/1/6 37/1/6
f  30/1/3 43/1/3 49/1/3
f  33/1/1 38/1/1 52/1/1
f  52/1/2 38/1/2 33/1/2
f  53/1/3 31/1/3 44/1/3
f  33/1/6 52/1/6 44/1/6
f  45/1/5 54/1/5 38/1/5
f  55/1/5 45/1/5 31/1/5
f  47/1/4 34/1/4 38/1/4
f  56/1/6 33/1/6 46/1/6
f  46/1/4 36/1/4 47/1/4
f  42/1/4 39/1/4 45/1/4
f  50/1/1 39/1/1 42/1/1
f  42/1/2 39/1/2 50/1/2
f  39/1/1 50/1/1 48/1/1
f  48/1/2 50/1/2 39/1/2
f  37/1/2 17/1/2 57/1/2
f  37/1/2 50/1/2 40/1/2
f  48/1/2 40/1/2 50/1/2
f  40/1/3 48/1/3 54/1/3
f  54/1/7 45/1/7 40/1/7
f  41/1/3 49/1/3 58/1/3
f  59/1/1 49/1/1 41/1/1
f  41/1/2 49/1/2 59/1/2
f  59/1/2 17/1/2 41/1/2
f  50/1/6 42/1/6 60/1/6
f  61/1/6 43/1/6 51/1/6
f  51/1/4 37/1/4 62/1/4
f  43/1/3 63/1/3 49/1/3
f  52/1/4 64/1/4 38/1/4
f  52/1/1 38/1/1 65/1/1
f  52/1/6 33/1/6 64/1/6
f  53/1/5 55/1/5 31/1/5
f  53/1/2 44/1/2 55/1/2
f  66/1/6 44/1/6 52/1/6
f  38/1/5 54/1/5 58/1/5
f  45/1/1 66/1/1 54/1/1
f  54/1/2 66/1/2 45/1/2
f  45/1/4 55/1/4 67/1/4
f  68/1/4 47/1/4 38/1/4
f  69/1/6 33/1/6 56/1/6
f  46/1/6 43/1/6 56/1/6
f  68/1/3 46/1/3 56/1/3
f  56/1/4 46/1/4 68/1/4
f  46/1/3 68/1/3 47/1/3
f  47/1/4 68/1/4 46/1/4
f  46/1/1 47/1/1 43/1/1
f  67/1/4 42/1/4 45/1/4
f  50/1/3 60/1/3 48/1/3
f  57/1/2 17/1/2 59/1/2
f  57/1/4 62/1/4 37/1/4
f  70/1/3 54/1/3 48/1/3
f  71/1/3 58/1/3 49/1/3
f  58/1/7 72/1/7 41/1/7
f  49/1/1 59/1/1 57/1/1
f  57/1/2 59/1/2 49/1/2
f  59/1/7 41/1/7 72/1/7
f  67/1/6 60/1/6 42/1/6
f  61/1/6 56/1/6 43/1/6
f  63/1/4 61/1/4 43/1/4
f  43/1/3 61/1/3 63/1/3
f  73/1/6 61/1/6 51/1/6
f  51/1/1 62/1/1 60/1/1
f  63/1/3 74/1/3 49/1/3
f  63/1/1 43/1/1 47/1/1
f  64/1/4 75/1/4 38/1/4
f  58/1/1 65/1/1 38/1/1
f  65/1/6 76/1/6 52/1/6
f  64/1/6 33/1/6 69/1/6
f  77/1/2 55/1/2 44/1/2
f  67/1/6 44/1/6 66/1/6
f  66/1/6 52/1/6 76/1/6
f  72/1/5 58/1/5 54/1/5
f  66/1/1 45/1/1 67/1/1
f  67/1/2 45/1/2 66/1/2
f  54/1/3 70/1/3 66/1/3
f  54/1/1 66/1/1 72/1/1
f  77/1/4 67/1/4 55/1/4
f  68/1/5 74/1/5 47/1/5
f  78/1/4 68/1/4 38/1/4
f  69/1/4 56/1/4 78/1/4
f  68/1/4 78/1/4 56/1/4
f  68/1/2 56/1/2 74/1/2
f  60/1/3 79/1/3 48/1/3
f  59/1/4 72/1/4 57/1/4
f  62/1/4 57/1/4 72/1/4
f  79/1/3 70/1/3 48/1/3
f  58/1/3 71/1/3 65/1/3
f  80/1/3 71/1/3 49/1/3
f  72/1/1 65/1/1 58/1/1
f  58/1/2 65/1/2 72/1/2
f  81/1/6 60/1/6 67/1/6
f  61/1/2 74/1/2 56/1/2
f  61/1/4 63/1/4 74/1/4
f  74/1/3 63/1/3 61/1/3
f  61/1/3 73/1/3 74/1/3
f  51/1/6 64/1/6 73/1/6
f  79/1/1 60/1/1 62/1/1
f  60/1/6 64/1/6 51/1/6
f  74/1/3 80/1/3 49/1/3
f  63/1/5 47/1/5 74/1/5
f  75/1/4 78/1/4 38/1/4
f  75/1/3 69/1/3 64/1/3
f  64/1/4 69/1/4 75/1/4
f  75/1/2 64/1/2 71/1/2
f  65/1/1 72/1/1 76/1/1
f  76/1/2 72/1/2 65/1/2
f  76/1/6 65/1/6 82/1/6
f  69/1/6 73/1/6 64/1/6
f  77/1/6 44/1/6 67/1/6
f  66/1/6 81/1/6 67/1/6
f  76/1/1 72/1/1 66/1/1
f  81/1/3 66/1/3 70/1/3
f  69/1/3 75/1/3 78/1/3
f  78/1/4 75/1/4 69/1/4
f  69/1/1 78/1/1 73/1/1
f  79/1/4 81/1/4 60/1/4
f  60/1/3 81/1/3 79/1/3
f  83/1/4 62/1/4 72/1/4
f  81/1/4 79/1/4 70/1/4
f  70/1/3 79/1/3 81/1/3
f  79/1/5 62/1/5 70/1/5
f  84/1/3 65/1/3 71/1/3
f  80/1/5 78/1/5 71/1/5
f  81/1/6 64/1/6 60/1/6
f  80/1/3 74/1/3 73/1/3
f  75/1/5 71/1/5 78/1/5
f  84/1/2 71/1/2 64/1/2
f  76/1/4 82/1/4 72/1/4
f  84/1/6 82/1/6 65/1/6
f  81/1/2 70/1/2 82/1/2
f  80/1/1 73/1/1 78/1/1
f  83/1/5 70/1/5 62/1/5
f  82/1/4 83/1/4 72/1/4
f  84/1/6 64/1/6 81/1/6
f  82/1/6 84/1/6 81/1/6
f  83/1/2 82/1/2 70/1/2

# Mesh 'mesh1_mesh1-geometry' with 182 faces
g mesh1_mesh1-geometry
usemtl material_1_1_8
f  7/2/6 1/3/6 3/4/6
f  1/5/2 8/6/2 3/7/2
f  11/8/5 2/9/5 4/10/5
f  2/11/3 13/12/3 5/13/3
f  2/9/5 11/8/5 6/14/5
f  6/15/3 13/12/3 2/11/3
f  1/3/6 7/2/6 10/16/6
f  3/17/3 8/18/3 7/19/3
f  8/6/2 1/5/2 14/20/2
f  9/21/4 11/22/4 4/23/4
f  15/24/4 1/25/4 10/26/4
f  13/27/5 16/28/5 5/9/5
f  6/29/2 10/5/2 7/7/2
f  7/19/3 13/12/3 6/15/3
f  10/5/2 6/29/2 11/30/2
f  8/18/3 13/12/3 7/19/3
f  1/25/4 15/24/4 14/31/4
f  14/3/6 17/32/6 8/4/6
f  18/33/6 8/4/6 12/34/6
f  8/4/6 17/32/6 12/34/6
f  20/35/4 11/22/4 9/21/4
f  20/35/4 10/26/4 11/22/4
f  15/24/4 10/26/4 20/35/4
f  21/35/4 12/31/4 16/21/4
f  12/31/4 22/36/4 16/21/4
f  23/37/5 5/9/5 16/28/5
f  16/28/5 13/27/5 21/38/5
f  13/12/3 8/18/3 24/39/3
f  15/40/6 25/41/6 14/3/6
f  17/32/6 14/3/6 25/41/6
f  8/4/6 18/33/6 24/42/6
f  12/31/4 21/35/4 18/24/4
f  12/34/6 17/32/6 26/43/6
f  27/44/5 9/10/5 19/45/5
f  9/10/5 23/37/5 19/45/5
f  9/10/5 27/44/5 20/46/5
f  27/47/2 15/20/2 20/48/2
f  22/36/4 12/31/4 26/49/4
f  16/21/4 22/36/4 28/50/4
f  5/9/5 23/37/5 9/10/5
f  16/21/4 28/50/4 23/51/4
f  13/52/2 18/53/2 21/54/2
f  18/53/2 13/52/2 24/6/2
f  25/41/6 15/40/6 29/55/6
f  19/13/3 17/56/3 25/18/3
f  17/57/1 22/58/1 26/59/1
f  25/18/3 27/12/3 19/13/3
f  19/45/5 23/37/5 30/60/5
f  15/20/2 27/47/2 29/61/2
f  31/62/4 28/50/4 22/36/4
f  28/50/4 33/63/4 23/51/4
f  27/12/3 25/18/3 29/39/3
f  17/56/3 19/13/3 35/64/3
f  22/58/1 17/57/1 32/65/1
f  30/60/5 23/37/5 36/66/5
f  37/67/5 19/45/5 30/60/5
f  28/50/4 31/62/4 33/63/4
f  22/68/8 38/69/8 31/70/8
f  38/69/8 22/68/8 32/71/8
f  33/72/5 36/66/5 23/37/5
f  35/64/3 19/13/3 39/73/3
f  40/74/1 17/57/1 35/75/1
f  32/65/1 17/57/1 34/76/1
f  41/77/1 30/78/1 36/79/1
f  19/45/5 37/67/5 42/80/5
f  43/81/5 37/67/5 30/60/5
f  31/62/4 44/82/4 33/63/4
f  38/83/6 45/84/6 31/85/6
f  34/73/3 38/86/3 32/64/3
f  36/66/5 33/72/5 46/87/5
f  34/76/1 17/57/1 36/79/1
f  36/88/3 47/89/3 34/73/3
f  39/73/3 19/13/3 42/88/3
f  39/73/3 45/86/3 35/64/3
f  37/90/1 17/57/1 40/74/1
f  45/91/8 40/92/8 35/93/8
f  30/78/1 41/77/1 49/94/1
f  36/79/1 17/57/1 41/77/1
f  42/80/5 37/67/5 50/95/5
f  37/67/5 43/81/5 51/96/5
f  49/50/4 43/97/4 30/51/4
f  44/82/4 31/62/4 53/98/4
f  44/99/5 52/100/5 33/72/5
f  38/83/6 54/101/6 45/84/6
f  31/85/6 45/84/6 55/102/6
f  38/86/3 34/73/3 47/89/3
f  46/87/5 33/72/5 56/103/5
f  47/89/3 36/88/3 46/104/3
f  45/86/3 39/73/3 42/88/3
f  57/105/1 17/57/1 37/90/1
f  40/74/1 50/106/1 37/90/1
f  50/106/1 40/74/1 48/107/1
f  54/62/4 48/50/4 40/36/4
f  40/92/8 45/91/8 54/108/8
f  58/62/4 49/50/4 41/36/4
f  41/77/1 17/57/1 59/109/1
f  60/110/5 42/80/5 50/95/5
f  51/96/5 43/81/5 61/111/5
f  62/112/3 37/88/3 51/113/3
f  49/50/4 63/114/4 43/97/4
f  38/86/3 64/115/3 52/116/3
f  65/117/2 38/118/2 52/52/2
f  64/119/5 33/72/5 52/100/5
f  31/85/6 55/102/6 53/120/6
f  55/121/1 44/122/1 53/123/1
f  52/100/5 44/99/5 66/124/5
f  58/125/6 54/101/6 38/83/6
f  67/116/3 55/126/3 45/86/3
f  38/86/3 47/89/3 68/127/3
f  56/103/5 33/72/5 69/128/5
f  56/103/5 43/81/5 46/87/5
f  43/117/2 47/118/2 46/52/2
f  45/86/3 42/88/3 67/116/3
f  48/50/4 60/129/4 50/51/4
f  59/109/1 17/57/1 57/105/1
f  37/88/3 62/112/3 57/73/3
f  48/50/4 54/62/4 70/130/4
f  49/50/4 58/62/4 71/130/4
f  41/131/8 72/132/8 58/133/8
f  72/132/8 41/131/8 59/134/8
f  42/80/5 60/110/5 67/135/5
f  43/81/5 56/103/5 61/111/5
f  51/96/5 61/111/5 73/136/5
f  60/48/2 62/137/2 51/138/2
f  49/50/4 74/139/4 63/114/4
f  47/118/2 43/117/2 63/140/2
f  38/86/3 75/141/3 64/115/3
f  38/118/2 65/117/2 58/140/2
f  52/100/5 76/142/5 65/143/5
f  69/128/5 33/72/5 64/119/5
f  44/122/1 55/121/1 77/144/1
f  66/124/5 44/99/5 67/135/5
f  76/142/5 52/100/5 66/124/5
f  54/101/6 58/125/6 72/145/6
f  66/63/4 70/130/4 54/62/4
f  72/137/2 66/48/2 54/146/2
f  55/126/3 67/116/3 77/147/3
f  47/148/6 74/149/6 68/150/6
f  38/86/3 68/127/3 78/112/3
f  78/112/3 56/151/3 69/113/3
f  56/151/3 78/112/3 68/127/3
f  74/94/1 56/79/1 68/76/1
f  48/50/4 79/152/4 60/129/4
f  57/73/3 72/86/3 59/64/3
f  72/86/3 57/73/3 62/112/3
f  48/50/4 70/130/4 79/152/4
f  65/63/4 71/130/4 58/62/4
f  49/50/4 71/130/4 80/152/4
f  67/135/5 60/110/5 81/153/5
f  56/79/1 74/94/1 61/78/1
f  74/139/4 73/129/4 61/154/4
f  73/136/5 64/119/5 51/96/5
f  62/137/2 60/48/2 79/146/2
f  51/96/5 64/119/5 60/110/5
f  49/50/4 80/152/4 74/139/4
f  74/149/6 47/148/6 63/155/6
f  38/86/3 78/112/3 75/141/3
f  71/94/1 64/79/1 75/76/1
f  82/156/5 65/143/5 76/142/5
f  64/119/5 73/136/5 69/128/5
f  67/135/5 44/99/5 77/157/5
f  67/135/5 81/153/5 66/124/5
f  66/48/2 72/137/2 76/138/2
f  70/130/4 66/63/4 81/158/4
f  73/117/2 78/118/2 69/52/2
f  72/86/3 62/112/3 83/141/3
f  70/159/6 62/160/6 79/161/6
f  71/130/4 65/63/4 84/158/4
f  71/162/6 78/163/6 80/164/6
f  60/110/5 64/119/5 81/153/5
f  73/129/4 74/139/4 80/152/4
f  78/163/6 71/162/6 75/165/6
f  64/79/1 71/94/1 84/78/1
f  72/86/3 82/115/3 76/116/3
f  65/143/5 82/156/5 84/166/5
f  82/90/1 70/107/1 81/106/1
f  78/118/2 73/117/2 80/140/2
f  62/160/6 70/159/6 83/167/6
f  72/86/3 83/141/3 82/115/3
f  81/153/5 64/119/5 84/166/5
f  81/153/5 84/166/5 82/156/5
f  70/107/1 82/90/1 83/105/1

# Mesh 'mesh2_mesh2-geometry' with 5 faces
g mesh2_mesh2-geometry
usemtl material_0_0
l  4 9
l  2 4
l  4 1
l  5 2
l  2 3

# Mesh 'mesh3_mesh3-geometry' with 1 faces
g mesh3_mesh3-geometry
usemtl material_0_0
l  28 34

# Mesh 'mesh4_mesh4-geometry' with 1 faces
g mesh4_mesh4-geometry
usemtl material_0_0
l  39 48

