# File produced by Open Asset Import Library (http://www.assimp.sf.net)
# (assimp v3.2.202087883)

mtllib model_normalized.mtl

# 44 vertex positions
v 0.286876 -0.145254 0.084512
v 0.264092 -0.108403 0.084512
v 0.275009 -0.145254 0.084512
v 0.286876 0.162221 0.084512
v 0.264092 -0.108403 -0.078834
v 0.286876 -0.145254 -0.078834
v 0.220493 -0.101093 0.084512
v 0.275009 -0.145254 -0.078834
v 0.286876 0.162221 -0.069225
v 0.176692 -0.095106 0.084512
v 0.220493 -0.101093 -0.078834
v 0.286876 0.162221 -0.078834
v 0.286876 0.657063 0.084512
v -0.287237 0.162221 -0.069225
v 0.132730 -0.090448 0.084512
v -0.287237 0.162221 -0.078834
v 0.286876 0.657063 -0.069225
v -0.287237 0.162221 0.084512
v -0.287237 0.657063 -0.069225
v 0.088648 -0.087122 0.084512
v 0.176692 -0.095106 -0.078834
v 0.000283 -0.084479 -0.078834
v -0.287237 0.657063 0.084512
v 0.000283 -0.084479 0.084512
v -0.287237 -0.145254 0.084512
v -0.287237 -0.145254 -0.078834
v 0.044486 -0.085132 0.084512
v 0.132730 -0.090448 -0.078834
v 0.044486 -0.085132 -0.078834
v -0.043920 -0.085165 -0.078834
v -0.043920 -0.085165 0.084512
v -0.263507 -0.108599 0.084512
v -0.277469 -0.145254 -0.078834
v 0.088648 -0.087122 -0.078834
v -0.088082 -0.087188 -0.078834
v -0.088082 -0.087188 0.084512
v -0.277469 -0.145254 0.084512
v -0.219916 -0.101257 0.084512
v -0.263507 -0.108599 -0.078834
v -0.132160 -0.090546 -0.078834
v -0.132160 -0.090546 0.084512
v -0.219916 -0.101257 -0.078834
v -0.176118 -0.095238 0.084512
v -0.176118 -0.095238 -0.078834

# 158 UV coordinates
vt 0.829861 0 0
vt 0.796926 0.053267 0
vt 0.812707 -0 0
vt 0.829861 0.444444 0
vt -0 -0.175302 0
vt -0 -0.230857 0
vt -0.236111 -0.175302 0
vt -0.812707 -0 0
vt -0.829861 0.236111 0
vt -0.829861 -0 0
vt 0.236111 0 0
vt 0 0.444444 0
vt 0 0 0
vt 0.733905 0.063833 0
vt -0.236111 -0.230857 0
vt 0.063903 0 0
vt 0 0.236111 0
vt -0 -0.777149 0
vt -0.236111 -0.777149 0
vt -0 -0.713249 0
vt -0.812707 0.236111 0
vt 0.222222 0.444444 0
vt 0.670593 0.072486 0
vt -0.796926 0.053267 0
vt 0.063903 0.236111 0
vt -0.236111 -0.713249 0
vt 0.236111 0.444444 0
vt 0 1.15972 0
vt 0 0.222222 0
vt 0.829861 0.222222 0
vt 0.607048 0.07922 0
vt 0.127806 0 0
vt -0 -0.7185 0
vt -0.236111 -0.7185 0
vt -0 -0.654599 0
vt -0.829861 0.444444 0
vt -0.733905 0.063833 0
vt 0.829861 0.236111 0
vt 0.222222 1.15972 0
vt 0.829861 1.15972 0
vt 0.543329 0.084027 0
vt 0.191709 -0 0
vt 0.127806 0.236111 0
vt -0 -0.659221 0
vt -0.236111 -0.659221 0
vt -0 -0.595321 0
vt -0.236111 -0.654599 0
vt -0.670593 0.072486 0
vt -0.415599 0.087847 0
vt -0.829861 1.15972 0
vt 0.415599 0.087847 0
vt -0.222222 1.15972 0
vt -0.222222 0.444444 0
vt -0.236111 0 0
vt -0.236111 0.444444 0
vt 0.479493 0.086904 0
vt 0.255612 0 0
vt 0.191709 0.236111 0
vt -0 -0.599368 0
vt -0.236111 -0.599368 0
vt -0 -0.535468 0
vt -0.236111 -0.595321 0
vt -0.607048 0.07922 0
vt -0.479493 0.086904 0
vt -0.351706 0.086856 0
vt 0.351706 0.086856 0
vt 0.034298 0.052983 0
vt -0.014116 0 0
vt 0.319515 -0 0
vt 0.255612 0.236111 0
vt -0 -0.538995 0
vt -0.236111 -0.538995 0
vt -0 -0.475095 0
vt -0.236111 -0.535468 0
vt -0.543329 0.084027 0
vt 0.319515 0.236111 0
vt 0.383418 0 0
vt 0.383418 0.236111 0
vt -0.236111 -0.414257 0
vt -0 -0.414257 0
vt -0.236111 -0.478158 0
vt -0.287873 0.083932 0
vt 0.447321 -0 0
vt 0.447321 0.236111 0
vt 0.236111 0.353011 0
vt -0 0.353011 0
vt 0.236111 0.416911 0
vt 0.287873 0.083932 0
vt -0 0.416911 0
vt -0 -0.478158 0
vt -0.014116 0.236111 0
vt 0.014116 -0 0
vt 0.097311 0.063596 0
vt -0.034298 0.052983 0
vt -0.236111 -0.475095 0
vt -0.224157 0.079077 0
vt 0.511225 -0 0
vt 0.511225 0.236111 0
vt 0.236111 0.291412 0
vt -0 0.291412 0
vt 0.236111 0.355312 0
vt -0 0.355312 0
vt 0.224157 0.079077 0
vt 0.236111 0.005025 0
vt -0 0.061722 0
vt -0 0.005025 0
vt 0.766837 0 0
vt 0.702934 0.236111 0
vt 0.702934 0 0
vt -0 0.106522 0
vt 0.236111 0.106522 0
vt -0 0.042621 0
vt 0.160617 0.072297 0
vt -0.097311 0.063596 0
vt 0.236111 0.061722 0
vt -0.160617 0.072297 0
vt 0.575128 0 0
vt 0.575128 0.236111 0
vt 0.236111 0.229517 0
vt -0 0.229517 0
vt 0.236111 0.293417 0
vt -0 0.293417 0
vt 0.766837 0.236111 0
vt 0.236111 0.042621 0
vt 0.639031 0.236111 0
vt 0.236111 0.105064 0
vt -0 0.105064 0
vt 0.236111 0.168965 0
vt 0.639031 0 0
vt -0 0.168965 0
vt 0.236111 0.167382 0
vt -0 0.167382 0
vt 0.236111 0.231282 0
vt -0 0.231282 0
vt 0 1 0
vt 1 0 0
vt 1 1 0
vt 1 -0.197191 0
vt 0.979329 -0.197191 0
vt 0.979329 -0 0
vt 0 -0.197191 0
vt 0.01701 -0 0
vt 0.01701 -0.197191 0
vt 0.039687 0.119851 0
vt 0.020671 0 0
vt 0.115629 0.143624 0
vt 0.191921 0.163095 0
vt 0.499194 0.197656 0
vt 0.268494 0.178245 0
vt 0.422201 0.195534 0
vt 0.576187 0.195427 0
vt 0.98299 0 0
vt 0.345278 0.189061 0
vt 0.653108 0.188847 0
vt 0.95867 0.119212 0
vt 0.729887 0.177924 0
vt 0.882738 0.14309 0
vt 0.806453 0.162667 0

# 36 vertex normals
vn 0 0 0.0254
vn 0 0 -0.0254
vn 0.0243537 0.00721512 0
vn 0 -0.0254 -0
vn 0.0254 0 -0
vn -0.0254 0 0
vn -0.00382024 -0.0251111 0
vn -0.00419984 -0.0250504 0
vn 0.00419984 0.0250504 0
vn 0.00382024 0.0251111 0
vn 0 0.0254 0
vn -0.00305849 -0.0252152 0
vn 0.00305849 0.0252152 0
vn -0.00229395 -0.0252962 0
vn 0.00229395 0.0252962 0
vn -0.0015273 -0.0253541 0
vn 0.0015273 0.0253541 0
vn -0.000759282 -0.0253886 0
vn 0.000759282 0.0253886 0
vn 9.4742e-06 -0.0254 -0
vn -9.4742e-06 0.0254 0
vn 0.00077818 -0.0253881 -0
vn -0.00077818 0.0253881 0
vn 0.0015462 -0.0253529 -0
vn -0.0015462 0.0253529 0
vn 0.0237362 -0.00904169 -0
vn -0.0237362 0.00904169 0
vn 0.00421848 -0.0250472 -0
vn 0.00383893 -0.0251082 -0
vn -0.00383893 0.0251082 0
vn -0.00421848 0.0250472 0
vn 0.0023128 -0.0252945 -0
vn -0.0023128 0.0252945 0
vn 0.00307729 -0.0252129 -0
vn -0.00307729 0.0252129 0
vn -0.0243537 -0.00721512 0

# Mesh 'mesh1_mesh1-geometry' with 147 faces
g mesh1_mesh1-geometry
usemtl material_0_1_8
f  1/1/1 2/2/1 3/3/1
f  2/2/1 1/1/1 4/4/1
f  3/3/2 2/2/2 1/1/2
f  4/4/2 1/1/2 2/2/2
f  2/5/3 3/6/3 5/7/3
f  3/8/4 6/9/4 1/10/4
f  6/11/5 4/12/5 1/13/5
f  1/13/6 4/12/6 6/11/6
f  2/2/1 4/4/1 7/14/1
f  7/14/2 4/4/2 2/2/2
f  8/15/3 5/7/3 3/6/3
f  7/16/7 5/17/8 2/13/8
f  2/18/9 5/19/9 7/20/10
f  6/9/4 3/8/4 8/21/4
f  4/12/5 6/11/5 9/22/5
f  9/22/6 6/11/6 4/12/6
f  7/14/1 4/4/1 10/23/1
f  10/23/2 4/4/2 7/14/2
f  8/8/1 6/10/1 5/24/1
f  5/17/8 7/16/7 11/25/7
f  11/26/10 7/20/10 5/19/9
f  9/22/5 6/11/5 12/27/5
f  12/27/6 6/11/6 9/22/6
f  9/22/5 13/28/5 4/12/5
f  4/12/6 13/28/6 9/22/6
f  14/29/11 4/1/11 9/30/11
f  9/30/4 4/1/4 14/29/4
f  10/23/1 4/4/1 15/31/1
f  15/31/2 4/4/2 10/23/2
f  10/32/12 11/25/7 7/16/7
f  7/33/10 11/34/10 10/35/13
f  12/36/1 5/24/1 6/10/1
f  11/37/1 5/24/1 12/36/1
f  16/17/11 9/30/11 12/38/11
f  12/38/4 9/30/4 16/17/4
f  13/28/5 9/22/5 17/39/5
f  17/39/6 9/22/6 13/28/6
f  13/40/1 18/12/1 4/4/1
f  4/4/2 18/12/2 13/40/2
f  4/1/11 14/29/11 18/13/11
f  18/13/4 14/29/4 4/1/4
f  9/30/11 16/17/11 14/29/11
f  14/29/4 16/17/4 9/30/4
f  14/12/1 9/36/1 19/28/1
f  15/31/1 4/4/1 20/41/1
f  20/41/2 4/4/2 15/31/2
f  15/42/14 21/43/12 10/32/12
f  10/44/13 21/45/13 15/46/15
f  11/25/7 10/32/12 21/43/12
f  21/47/13 10/35/13 11/34/10
f  21/48/1 11/37/1 12/36/1
f  16/12/1 22/49/1 12/36/1
f  17/50/1 19/28/1 9/36/1
f  19/29/11 13/1/11 17/30/11
f  17/30/4 13/1/4 19/29/4
f  18/12/1 13/40/1 23/28/1
f  23/28/2 13/40/2 18/12/2
f  18/12/1 24/51/1 4/4/1
f  4/4/2 24/51/2 18/12/2
f  18/12/6 19/52/6 14/53/6
f  14/53/5 19/52/5 18/12/5
f  14/53/6 25/13/6 18/12/6
f  18/12/5 25/13/5 14/53/5
f  26/54/6 14/53/6 16/55/6
f  16/55/5 14/53/5 26/54/5
f  20/41/1 4/4/1 27/56/1
f  27/56/2 4/4/2 20/41/2
f  20/57/16 28/58/14 15/42/14
f  15/59/15 28/60/15 20/61/17
f  21/43/12 15/42/14 28/58/14
f  28/62/15 15/46/15 21/45/13
f  28/63/1 21/48/1 12/36/1
f  22/49/1 29/64/1 12/36/1
f  22/49/1 16/12/1 30/65/1
f  13/1/11 19/29/11 23/13/11
f  23/13/4 19/29/4 13/1/4
f  19/52/6 18/12/6 23/28/6
f  23/28/5 18/12/5 19/52/5
f  18/12/1 31/66/1 24/51/1
f  24/51/2 31/66/2 18/12/2
f  27/56/1 4/4/1 24/51/1
f  24/51/2 4/4/2 27/56/2
f  25/13/6 14/53/6 26/54/6
f  26/54/5 14/53/5 25/13/5
f  25/13/1 32/67/1 18/12/1
f  18/12/2 32/67/2 25/13/2
f  26/13/1 33/68/1 16/12/1
f  27/69/18 34/70/16 20/57/16
f  20/71/17 34/72/17 27/73/19
f  28/58/14 20/57/16 34/70/16
f  34/74/17 20/61/17 28/60/15
f  34/75/1 28/63/1 12/36/1
f  29/64/1 34/75/1 12/36/1
f  29/76/18 24/77/20 22/78/20
f  22/79/21 24/80/21 29/81/19
f  30/65/1 16/12/1 35/82/1
f  22/78/20 31/83/22 30/84/22
f  30/85/23 31/86/23 22/87/21
f  18/12/1 36/88/1 31/66/1
f  31/66/2 36/88/2 18/12/2
f  31/83/22 22/78/20 24/77/20
f  24/89/21 22/87/21 31/86/23
f  24/77/20 29/76/18 27/69/18
f  27/90/19 29/81/19 24/80/21
f  33/91/4 25/13/4 26/17/4
f  32/67/1 25/13/1 37/92/1
f  37/92/2 25/13/2 32/67/2
f  18/12/1 32/67/1 38/93/1
f  38/93/2 32/67/2 18/12/2
f  39/94/1 16/12/1 33/68/1
f  34/70/16 27/69/18 29/76/18
f  29/95/19 27/73/19 34/72/17
f  35/82/1 16/12/1 40/96/1
f  30/84/22 36/97/24 35/98/24
f  35/99/25 36/100/25 30/101/23
f  36/97/24 30/84/22 31/83/22
f  31/102/23 30/101/23 36/100/25
f  18/12/1 41/103/1 36/88/1
f  36/88/2 41/103/2 18/12/2
f  25/13/4 33/91/4 37/68/4
f  33/104/26 32/105/26 37/106/26
f  37/106/27 32/105/27 33/104/27
f  32/107/28 42/108/29 38/109/29
f  38/110/30 42/111/30 32/112/31
f  18/12/1 38/93/1 43/113/1
f  43/113/2 38/93/2 18/12/2
f  42/114/1 16/12/1 39/94/1
f  32/105/26 33/104/26 39/115/26
f  39/115/27 33/104/27 32/105/27
f  40/96/1 16/12/1 44/116/1
f  35/98/24 41/117/32 40/118/32
f  40/119/33 41/120/33 35/121/25
f  41/117/32 35/98/24 36/97/24
f  36/122/25 35/121/25 41/120/33
f  18/12/1 43/113/1 41/103/1
f  41/103/2 43/113/2 18/12/2
f  42/108/29 32/107/28 39/123/28
f  39/124/31 32/112/31 42/111/30
f  44/125/34 38/109/29 42/108/29
f  42/126/30 38/127/30 44/128/35
f  38/109/29 44/125/34 43/129/34
f  43/130/35 44/128/35 38/127/30
f  44/116/1 16/12/1 42/114/1
f  40/118/32 43/129/34 44/125/34
f  44/131/35 43/132/35 40/133/33
f  43/129/34 40/118/32 41/117/32
f  41/134/33 40/133/33 43/132/35

# Mesh 'mesh1_mesh1-geometry' with 2 faces
g mesh1_mesh1-geometry
usemtl material_1_5_8
f  5/135/36 3/136/36 2/137/36
f  3/136/36 5/135/36 8/13/36

# Mesh 'mesh1_mesh1-geometry' with 4 faces
g mesh1_mesh1-geometry
usemtl material_1_3_8
f  1/138/11 6/136/11 3/139/11
f  8/140/11 3/139/11 6/136/11
f  26/13/11 25/141/11 33/142/11
f  37/143/11 33/142/11 25/141/11

# Mesh 'mesh1_mesh1-geometry' with 17 faces
g mesh1_mesh1-geometry
usemtl material_1_4_8
f  5/144/2 6/13/2 8/145/2
f  6/13/2 5/144/2 12/135/2
f  12/135/2 5/144/2 11/146/2
f  12/135/2 11/146/2 21/147/2
f  12/135/2 22/148/2 16/137/2
f  12/135/2 21/147/2 28/149/2
f  12/135/2 29/150/2 22/148/2
f  30/151/2 16/137/2 22/148/2
f  16/137/2 33/152/2 26/136/2
f  12/135/2 28/149/2 34/153/2
f  12/135/2 34/153/2 29/150/2
f  35/154/2 16/137/2 30/151/2
f  33/152/2 16/137/2 39/155/2
f  40/156/2 16/137/2 35/154/2
f  39/155/2 16/137/2 42/157/2
f  44/158/2 16/137/2 40/156/2
f  42/157/2 16/137/2 44/158/2

# Mesh 'mesh1_mesh1-geometry' with 2 faces
g mesh1_mesh1-geometry
usemtl material_1_2_8
f  19/137/2 9/13/2 14/136/2
f  9/13/2 19/137/2 17/135/2

# Mesh 'mesh2_mesh2-geometry' with 3 faces
g mesh2_mesh2-geometry
usemtl material_2_0
l  19 23
l  17 19
l  23 13

# Mesh 'mesh3_mesh3-geometry' with 4 faces
g mesh3_mesh3-geometry
usemtl material_2_0
l  12 16
l  9 12
l  16 14
l  9 14

