# File produced by Open Asset Import Library (http://www.assimp.sf.net)
# (assimp v3.2.202087883)

mtllib model_normalized.mtl

# 169 vertex positions
v 0.174992 -0.326311 -0.090640
v 0.174992 -0.326311 0.028234
v 0.174992 0.595691 -0.090640
v 0.183690 -0.326311 -0.090640
v 0.174992 -0.307465 0.028234
v 0.183690 -0.326311 0.028234
v 0.174992 -0.305682 0.028298
v 0.183690 -0.307465 0.028234
v 0.183690 0.595691 -0.090640
v 0.174992 -0.303908 0.028491
v 0.183690 -0.305682 0.028298
v 0.183690 0.595691 0.036932
v 0.174992 -0.302153 0.028811
v 0.183690 -0.303908 0.028491
v 0.174992 0.595691 0.036932
v 0.183690 -0.288620 0.036932
v 0.174992 -0.300425 0.029256
v 0.183690 -0.302153 0.028811
v 0.174992 -0.288620 0.036932
v 0.174992 0.588444 0.031133
v 0.183690 -0.289825 0.035617
v 0.174992 -0.299152 0.029684
v 0.183690 -0.300425 0.029256
v 0.174992 -0.261099 0.031133
v 0.174992 0.588444 0.029684
v 0.183690 -0.291123 0.034392
v 0.175717 -0.299152 0.029684
v 0.183690 -0.298733 0.029825
v 0.174992 -0.289825 0.035617
v 0.175717 0.588444 0.029684
v 0.175717 -0.261099 0.031133
v 0.174992 -0.291123 0.034392
v 0.183690 -0.292505 0.033264
v 0.175717 0.588444 0.031133
v 0.175717 -0.295862 0.031133
v 0.174992 -0.292505 0.033264
v 0.183690 -0.293965 0.032238
v 0.175717 -0.298733 0.029825
v 0.183690 -0.297087 0.030514
v 0.174992 -0.295862 0.031133
v 0.174992 -0.293965 0.032238
v 0.183690 -0.295495 0.031319
v 0.175717 -0.297087 0.030514
v 0.174992 -0.295495 0.031319
v -0.172933 0.446160 0.028760
v 0.174992 0.446160 -0.090114
v -0.172933 0.446160 -0.090114
v 0.174992 0.446160 0.028760
v -0.172933 0.437462 -0.090114
v 0.174992 0.437462 0.028760
v 0.174992 0.437462 -0.090114
v -0.172933 0.437462 0.028760
v -0.172933 0.295397 0.027540
v 0.174992 0.295397 -0.091335
v -0.172933 0.295397 -0.091335
v 0.174992 0.295397 0.027540
v -0.172933 0.286699 -0.091335
v 0.174992 0.286699 0.027540
v 0.174992 0.286699 -0.091335
v -0.172933 0.286699 0.027540
v -0.172933 -0.006122 0.029684
v 0.174992 -0.006122 -0.089190
v -0.172933 -0.006122 -0.089190
v 0.174992 -0.006122 0.029684
v -0.172933 -0.014821 -0.089190
v 0.174992 -0.014821 0.029684
v 0.174992 -0.014821 -0.089190
v -0.172933 -0.014821 0.029684
v -0.172933 -0.156878 0.027725
v 0.174992 -0.156878 -0.091149
v -0.172933 -0.156878 -0.091149
v 0.174992 -0.156878 0.027725
v -0.172933 -0.165576 -0.091149
v 0.174992 -0.165576 0.027725
v 0.174992 -0.165576 -0.091149
v -0.172933 -0.165576 0.027725
v -0.172933 0.594965 0.036932
v 0.174992 0.594965 -0.089190
v -0.172933 0.594965 -0.089190
v 0.174992 0.594965 0.036932
v -0.172933 0.586266 -0.089190
v -0.172933 0.586992 0.029684
v 0.174992 0.586266 0.036932
v 0.174992 0.586992 0.031319
v 0.174992 0.586266 -0.089190
v -0.172933 0.586992 0.031133
v -0.172933 0.586266 0.036932
v 0.174992 0.586992 0.029870
v 0.174992 0.586266 0.029870
v -0.172933 0.586266 0.029684
v -0.172933 0.586266 0.031133
v 0.174992 0.586266 0.031319
v -0.172933 0.595691 -0.090640
v -0.172933 -0.326311 0.028234
v -0.172933 -0.326311 -0.090640
v -0.172933 -0.307465 0.028234
v -0.181631 -0.326311 -0.090640
v -0.172933 -0.305682 0.028298
v -0.181631 -0.307465 0.028234
v -0.181631 -0.326311 0.028234
v -0.181631 0.595691 -0.090640
v -0.172933 -0.303908 0.028491
v -0.181631 -0.305682 0.028298
v -0.181631 0.595691 0.036932
v -0.172933 -0.302153 0.028811
v -0.181631 -0.303908 0.028491
v -0.172933 0.595691 0.036932
v -0.181631 -0.288620 0.036932
v -0.172933 -0.300425 0.029256
v -0.181631 -0.302153 0.028811
v -0.172933 -0.288620 0.036932
v -0.172933 0.588444 0.031133
v -0.181631 -0.289825 0.035617
v -0.172933 -0.299152 0.029684
v -0.181631 -0.300425 0.029256
v -0.172933 -0.261099 0.031133
v -0.172933 0.588444 0.029684
v -0.181631 -0.291123 0.034392
v -0.173658 -0.299152 0.029684
v -0.181631 -0.298733 0.029825
v -0.172933 -0.289825 0.035617
v -0.173658 -0.261099 0.031133
v -0.173658 0.588444 0.029684
v -0.181631 -0.292505 0.033264
v -0.172933 -0.291123 0.034392
v -0.173658 0.588444 0.031133
v -0.173658 -0.295862 0.031133
v -0.181631 -0.293965 0.032238
v -0.172933 -0.292505 0.033264
v -0.173658 -0.298733 0.029825
v -0.181631 -0.297087 0.030514
v -0.172933 -0.295862 0.031133
v -0.181631 -0.295495 0.031319
v -0.172933 -0.293965 0.032238
v -0.173658 -0.297087 0.030514
v -0.172933 -0.295495 0.031319
v 0.174992 -0.291519 -0.081217
v -0.172933 -0.326311 -0.081217
v -0.172933 -0.291519 -0.081217
v 0.174992 -0.326311 -0.081217
v -0.172933 -0.291519 -0.072519
v 0.174992 -0.326311 -0.072519
v -0.172933 -0.326311 -0.072519
v 0.174992 -0.291519 -0.072519
v -0.172933 -0.282821 0.029684
v 0.174992 -0.282821 -0.089190
v -0.172933 -0.282821 -0.089190
v 0.174992 -0.282821 0.029684
v -0.172933 -0.291519 -0.089190
v 0.174992 -0.291519 0.029684
v 0.174992 -0.291519 -0.089190
v -0.172933 -0.291519 0.029684
v -0.172933 0.144643 0.029684
v 0.174992 0.144643 -0.089190
v -0.172933 0.144643 -0.089190
v 0.174992 0.144643 0.029684
v -0.172933 0.135945 -0.089190
v 0.174992 0.135945 0.029684
v 0.174992 0.135945 -0.089190
v -0.172933 0.135945 0.029684
v -0.173658 0.586992 0.031133
v -0.173658 -0.291519 0.029684
v -0.173658 -0.291519 0.031133
v -0.173658 0.586992 0.029684
v 0.175717 -0.291519 0.031133
v -0.172933 0.586992 0.029684
v 0.175717 0.586992 0.031133
v 0.175717 0.586992 0.029684
v 0.175717 -0.291519 0.029684

# 0 UV coordinates

# 38 vertex normals
vn -0.0254 0 0
vn 0.0254 -0 0
vn 0 -0.0254 0
vn 0 0.0254 0
vn 0 0 -0.0254
vn 0 -0 0.0254
vn -0 -0.00182895 0.0253341
vn -0 -0.000915061 0.0253835
vn 0 0.00182895 -0.0253341
vn 0 0.000915061 -0.0253835
vn -0 -0.00364838 0.0251366
vn 0 0.00364838 -0.0251366
vn -0 -0.00544888 0.0248087
vn 0 0.00544888 -0.0248087
vn 0 -0.00722112 0.0243519
vn 0 0.00722112 -0.0243519
vn -0 -0.0187226 0.0171647
vn -0 -0.018092 0.017828
vn 0 0.018092 -0.017828
vn 0 0.0187226 -0.0171647
vn 0 -0.00809374 0.024076
vn 0 0.00809374 -0.024076
vn 0 -0.00895584 0.0237687
vn 0 0.00895584 -0.0237687
vn -0 -0.0167613 0.0190845
vn 0 0.0167613 -0.0190845
vn -0 -0.0153437 0.0202418
vn 0 0.0153437 -0.0202418
vn -0 -0.0138463 0.0212941
vn 0 0.0138463 -0.0212941
vn -0 -0.0106441 0.0230622
vn 0 0.0106441 -0.0230622
vn -0 -0.011468 0.0226637
vn -0 -0.0122771 0.0222359
vn 0 0.0122771 -0.0222359
vn 0 0.011468 -0.0226637
vn -1.35636e-05 0 0.0254
vn 1.35636e-05 0 -0.0254

# Mesh 'mesh1_mesh1-geometry' with 168 faces
g mesh1_mesh1-geometry
usemtl material_0_24
f  1//1 2//1 3//1
f  3//2 2//2 1//2
f  1//3 4//3 2//3
f  2//4 4//4 1//4
f  5//1 3//1 2//1
f  2//2 3//2 5//2
f  1//5 3//5 4//5
f  4//6 3//6 1//6
f  6//3 2//3 4//3
f  4//4 2//4 6//4
f  7//1 3//1 5//1
f  5//2 3//2 7//2
f  5//6 2//6 8//6
f  8//5 2//5 5//5
f  9//5 4//5 3//5
f  3//6 4//6 9//6
f  6//6 8//6 2//6
f  2//5 8//5 6//5
f  6//2 4//2 8//2
f  8//1 4//1 6//1
f  10//1 3//1 7//1
f  7//2 3//2 10//2
f  7//7 5//8 11//7
f  11//9 5//10 7//9
f  8//8 11//7 5//8
f  5//10 11//9 8//10
f  9//2 8//2 4//2
f  4//1 8//1 9//1
f  9//4 3//4 12//4
f  12//3 3//3 9//3
f  13//1 3//1 10//1
f  10//2 3//2 13//2
f  10//11 7//7 14//11
f  14//12 7//9 10//12
f  11//7 14//11 7//7
f  7//9 14//12 11//9
f  11//2 8//2 9//2
f  9//1 8//1 11//1
f  15//4 12//4 3//4
f  3//3 12//3 15//3
f  12//2 16//2 9//2
f  9//1 16//1 12//1
f  17//1 3//1 13//1
f  13//2 3//2 17//2
f  13//13 10//11 18//13
f  18//14 10//12 13//14
f  14//11 18//13 10//11
f  10//12 18//14 14//12
f  14//2 11//2 9//2
f  9//1 11//1 14//1
f  15//6 19//6 12//6
f  12//5 19//5 15//5
f  3//1 20//1 15//1
f  15//2 20//2 3//2
f  16//6 12//6 19//6
f  19//5 12//5 16//5
f  16//2 21//2 9//2
f  9//1 21//1 16//1
f  22//1 3//1 17//1
f  17//2 3//2 22//2
f  17//15 13//13 23//15
f  23//16 13//14 17//16
f  18//13 23//15 13//13
f  13//14 23//16 18//14
f  18//2 14//2 9//2
f  9//1 14//1 18//1
f  15//1 24//1 19//1
f  19//2 24//2 15//2
f  20//1 3//1 25//1
f  25//2 3//2 20//2
f  20//1 24//1 15//1
f  15//2 24//2 20//2
f  16//17 19//17 21//18
f  21//19 19//20 16//20
f  21//2 26//2 9//2
f  9//1 26//1 21//1
f  25//1 3//1 22//1
f  22//2 3//2 25//2
f  22//21 17//15 27//21
f  27//22 17//16 22//22
f  23//15 28//23 17//15
f  17//16 28//24 23//16
f  23//2 18//2 9//2
f  9//1 18//1 23//1
f  19//1 24//1 29//1
f  29//2 24//2 19//2
f  25//3 30//3 20//3
f  20//4 30//4 25//4
f  24//5 20//5 31//5
f  31//6 20//6 24//6
f  29//18 21//18 19//17
f  19//20 21//19 29//19
f  26//25 21//18 32//25
f  32//26 21//19 26//26
f  26//2 33//2 9//2
f  9//1 33//1 26//1
f  25//6 22//6 30//6
f  30//5 22//5 25//5
f  27//21 17//15 28//23
f  28//24 17//16 27//22
f  27//6 30//6 22//6
f  22//5 30//5 27//5
f  28//2 23//2 9//2
f  9//1 23//1 28//1
f  29//1 24//1 32//1
f  32//2 24//2 29//2
f  34//3 20//3 30//3
f  30//4 20//4 34//4
f  34//5 31//5 20//5
f  20//6 31//6 34//6
f  31//5 35//5 24//5
f  24//6 35//6 31//6
f  29//18 32//25 21//18
f  21//19 32//26 29//19
f  32//25 36//27 26//25
f  26//26 36//28 32//26
f  33//27 26//25 36//27
f  36//28 26//26 33//28
f  33//2 37//2 9//2
f  9//1 37//1 33//1
f  27//21 28//23 38//23
f  38//24 28//24 27//22
f  27//1 38//1 30//1
f  30//2 38//2 27//2
f  39//2 28//2 9//2
f  9//1 28//1 39//1
f  32//1 24//1 36//1
f  36//2 24//2 32//2
f  34//1 30//1 31//1
f  31//2 30//2 34//2
f  31//1 30//1 35//1
f  35//2 30//2 31//2
f  40//5 24//5 35//5
f  35//6 24//6 40//6
f  36//27 41//29 33//27
f  33//28 41//30 36//28
f  37//29 33//27 41//29
f  41//30 33//28 37//30
f  37//2 42//2 9//2
f  9//1 42//1 37//1
f  28//23 39//31 38//23
f  38//24 39//32 28//24
f  43//1 30//1 38//1
f  38//2 30//2 43//2
f  42//2 39//2 9//2
f  9//1 39//1 42//1
f  36//1 24//1 41//1
f  41//2 24//2 36//2
f  35//1 30//1 43//1
f  43//2 30//2 35//2
f  40//1 44//1 24//1
f  24//2 44//2 40//2
f  40//33 35//33 44//34
f  44//35 35//36 40//36
f  41//29 44//34 37//29
f  37//30 44//35 41//30
f  42//34 37//29 44//34
f  44//35 37//30 42//35
f  43//31 38//23 39//31
f  39//32 38//24 43//32
f  39//31 42//34 43//31
f  43//32 42//35 39//32
f  41//1 24//1 44//1
f  44//2 24//2 41//2
f  35//33 43//31 42//34
f  42//35 43//32 35//36
f  44//34 35//33 42//34
f  42//35 35//36 44//35

# Mesh 'mesh2_mesh2-geometry' with 55 faces
g mesh2_mesh2-geometry
usemtl material_0_0
l  9 12
l  4 9
l  3 9
l  15 12
l  12 16
l  1 4
l  4 6
l  1 3
l  3 15
l  15 19
l  19 16
l  16 21
l  1 2
l  2 6
l  6 8
l  19 29
l  21 26
l  2 5
l  11 8
l  5 8
l  29 32
l  26 33
l  7 5
l  14 11
l  32 36
l  33 37
l  10 7
l  18 14
l  36 41
l  37 42
l  13 10
l  23 18
l  41 44
l  42 39
l  17 13
l  28 23
l  44 40
l  39 28
l  22 17
l  24 40
l  40 35
l  25 22
l  22 27
l  24 20
l  24 31
l  31 35
l  35 43
l  20 25
l  25 30
l  38 27
l  30 27
l  20 34
l  31 34
l  43 38
l  34 30

# Mesh 'mesh3_mesh3-geometry' with 12 faces
g mesh3_mesh3-geometry
usemtl material_1_24
f  45//4 46//4 47//4
f  46//4 45//4 48//4
f  46//5 49//5 47//5
f  49//1 45//1 47//1
f  45//6 50//6 48//6
f  50//2 46//2 48//2
f  49//5 46//5 51//5
f  45//1 49//1 52//1
f  50//6 45//6 52//6
f  46//2 50//2 51//2
f  50//3 49//3 51//3
f  49//3 50//3 52//3

# Mesh 'mesh3_mesh3-geometry' with 12 faces
g mesh3_mesh3-geometry
usemtl material_0_24
f  47//3 46//3 45//3
f  48//3 45//3 46//3
f  47//6 49//6 46//6
f  47//2 45//2 49//2
f  48//5 50//5 45//5
f  48//1 46//1 50//1
f  51//6 46//6 49//6
f  52//2 49//2 45//2
f  52//5 45//5 50//5
f  51//1 50//1 46//1
f  51//4 49//4 50//4
f  52//4 50//4 49//4

# Mesh 'mesh3_mesh3-geometry' with 12 faces
g mesh3_mesh3-geometry
usemtl material_1_24
f  53//4 54//4 55//4
f  54//4 53//4 56//4
f  54//5 57//5 55//5
f  57//1 53//1 55//1
f  53//6 58//6 56//6
f  58//2 54//2 56//2
f  57//5 54//5 59//5
f  53//1 57//1 60//1
f  58//6 53//6 60//6
f  54//2 58//2 59//2
f  58//3 57//3 59//3
f  57//3 58//3 60//3

# Mesh 'mesh3_mesh3-geometry' with 12 faces
g mesh3_mesh3-geometry
usemtl material_0_24
f  55//3 54//3 53//3
f  56//3 53//3 54//3
f  55//6 57//6 54//6
f  55//2 53//2 57//2
f  56//5 58//5 53//5
f  56//1 54//1 58//1
f  59//6 54//6 57//6
f  60//2 57//2 53//2
f  60//5 53//5 58//5
f  59//1 58//1 54//1
f  59//4 57//4 58//4
f  60//4 58//4 57//4

# Mesh 'mesh3_mesh3-geometry' with 12 faces
g mesh3_mesh3-geometry
usemtl material_1_24
f  61//4 62//4 63//4
f  62//4 61//4 64//4
f  62//5 65//5 63//5
f  65//1 61//1 63//1
f  61//6 66//6 64//6
f  66//2 62//2 64//2
f  65//5 62//5 67//5
f  61//1 65//1 68//1
f  66//6 61//6 68//6
f  62//2 66//2 67//2
f  66//3 65//3 67//3
f  65//3 66//3 68//3

# Mesh 'mesh3_mesh3-geometry' with 12 faces
g mesh3_mesh3-geometry
usemtl material_0_24
f  63//3 62//3 61//3
f  64//3 61//3 62//3
f  63//6 65//6 62//6
f  63//2 61//2 65//2
f  64//5 66//5 61//5
f  64//1 62//1 66//1
f  67//6 62//6 65//6
f  68//2 65//2 61//2
f  68//5 61//5 66//5
f  67//1 66//1 62//1
f  67//4 65//4 66//4
f  68//4 66//4 65//4

# Mesh 'mesh3_mesh3-geometry' with 12 faces
g mesh3_mesh3-geometry
usemtl material_1_24
f  69//4 70//4 71//4
f  70//4 69//4 72//4
f  70//5 73//5 71//5
f  73//1 69//1 71//1
f  69//6 74//6 72//6
f  74//2 70//2 72//2
f  73//5 70//5 75//5
f  69//1 73//1 76//1
f  74//6 69//6 76//6
f  70//2 74//2 75//2
f  74//3 73//3 75//3
f  73//3 74//3 76//3

# Mesh 'mesh3_mesh3-geometry' with 12 faces
g mesh3_mesh3-geometry
usemtl material_0_24
f  71//3 70//3 69//3
f  72//3 69//3 70//3
f  71//6 73//6 70//6
f  71//2 69//2 73//2
f  72//5 74//5 69//5
f  72//1 70//1 74//1
f  75//6 70//6 73//6
f  76//2 73//2 69//2
f  76//5 69//5 74//5
f  75//1 74//1 70//1
f  75//4 73//4 74//4
f  76//4 74//4 73//4

# Mesh 'mesh4_mesh4-geometry' with 56 faces
g mesh4_mesh4-geometry
usemtl material_0_24
f  77//4 78//4 79//4
f  78//4 77//4 80//4
f  79//3 78//3 77//3
f  80//3 77//3 78//3
f  78//5 81//5 79//5
f  79//6 81//6 78//6
f  79//1 82//1 77//1
f  77//2 82//2 79//2
f  77//6 83//6 80//6
f  80//5 83//5 77//5
f  80//2 84//2 78//2
f  78//1 84//1 80//1
f  81//5 78//5 85//5
f  85//6 78//6 81//6
f  81//1 82//1 79//1
f  79//2 82//2 81//2
f  86//1 77//1 82//1
f  82//2 77//2 86//2
f  83//6 77//6 87//6
f  87//5 77//5 83//5
f  83//2 84//2 80//2
f  80//1 84//1 83//1
f  88//2 78//2 84//2
f  84//1 78//1 88//1
f  78//2 89//2 85//2
f  85//1 89//1 78//1
f  89//3 81//3 85//3
f  85//4 81//4 89//4
f  82//1 81//1 90//1
f  90//2 81//2 82//2
f  91//1 77//1 86//1
f  86//2 77//2 91//2
f  88//3 86//3 82//3
f  82//4 86//4 88//4
f  77//1 91//1 87//1
f  87//2 91//2 77//2
f  87//3 92//3 83//3
f  83//4 92//4 87//4
f  84//2 83//2 92//2
f  92//1 83//1 84//1
f  89//2 78//2 88//2
f  88//1 78//1 89//1
f  86//3 88//3 84//3
f  84//4 88//4 86//4
f  81//3 89//3 90//3
f  90//4 89//4 81//4
f  89//37 82//37 90//37
f  90//38 82//38 89//38
f  84//38 91//38 86//38
f  86//37 91//37 84//37
f  82//37 89//37 88//37
f  88//38 89//38 82//38
f  92//3 87//3 91//3
f  91//4 87//4 92//4
f  91//38 84//38 92//38
f  92//37 84//37 91//37

# Mesh 'mesh5_mesh5-geometry' with 24 faces
g mesh5_mesh5-geometry
usemtl material_0_0
l  77 80
l  79 77
l  77 87
l  80 78
l  80 83
l  78 79
l  79 81
l  87 83
l  91 87
l  78 85
l  83 92
l  81 90
l  85 81
l  92 91
l  91 86
l  89 85
l  92 84
l  90 89
l  90 82
l  84 86
l  82 86
l  89 88
l  84 88
l  82 88

# Mesh 'mesh6_mesh6-geometry' with 168 faces
g mesh6_mesh6-geometry
usemtl material_0_24
f  93//2 94//2 95//2
f  94//2 93//2 96//2
f  95//1 94//1 93//1
f  96//1 93//1 94//1
f  94//3 97//3 95//3
f  95//4 97//4 94//4
f  97//5 93//5 95//5
f  95//6 93//6 97//6
f  96//2 93//2 98//2
f  98//1 93//1 96//1
f  99//6 94//6 96//6
f  96//5 94//5 99//5
f  97//3 94//3 100//3
f  100//4 94//4 97//4
f  93//5 97//5 101//5
f  101//6 97//6 93//6
f  98//2 93//2 102//2
f  102//1 93//1 98//1
f  103//7 96//8 98//7
f  98//9 96//10 103//9
f  94//6 99//6 100//6
f  100//5 99//5 94//5
f  96//8 103//7 99//8
f  99//10 103//9 96//10
f  99//1 97//1 100//1
f  100//2 97//2 99//2
f  97//1 99//1 101//1
f  101//2 99//2 97//2
f  104//4 93//4 101//4
f  101//3 93//3 104//3
f  102//2 93//2 105//2
f  105//1 93//1 102//1
f  106//11 98//7 102//11
f  102//12 98//9 106//12
f  98//7 106//11 103//7
f  103//9 106//12 98//9
f  101//1 99//1 103//1
f  103//2 99//2 101//2
f  93//4 104//4 107//4
f  107//3 104//3 93//3
f  101//1 108//1 104//1
f  104//2 108//2 101//2
f  105//2 93//2 109//2
f  109//1 93//1 105//1
f  110//13 102//11 105//13
f  105//14 102//12 110//14
f  102//11 110//13 106//11
f  106//12 110//14 102//12
f  101//1 103//1 106//1
f  106//2 103//2 101//2
f  104//6 111//6 107//6
f  107//5 111//5 104//5
f  107//2 112//2 93//2
f  93//1 112//1 107//1
f  101//1 113//1 108//1
f  108//2 113//2 101//2
f  111//6 104//6 108//6
f  108//5 104//5 111//5
f  109//2 93//2 114//2
f  114//1 93//1 109//1
f  115//15 105//13 109//15
f  109//16 105//14 115//16
f  105//13 115//15 110//13
f  110//14 115//16 105//14
f  101//1 106//1 110//1
f  110//2 106//2 101//2
f  111//2 116//2 107//2
f  107//1 116//1 111//1
f  107//2 116//2 112//2
f  112//1 116//1 107//1
f  117//2 93//2 112//2
f  112//1 93//1 117//1
f  101//1 118//1 113//1
f  113//2 118//2 101//2
f  113//18 111//17 108//17
f  108//20 111//20 113//19
f  114//2 93//2 117//2
f  117//1 93//1 114//1
f  119//21 109//15 114//21
f  114//22 109//16 119//22
f  109//15 120//23 115//15
f  115//16 120//24 109//16
f  101//1 110//1 115//1
f  115//2 110//2 101//2
f  121//2 116//2 111//2
f  111//1 116//1 121//1
f  122//5 112//5 116//5
f  116//6 112//6 122//6
f  112//3 123//3 117//3
f  117//4 123//4 112//4
f  101//1 124//1 118//1
f  118//2 124//2 101//2
f  125//25 113//18 118//25
f  118//26 113//19 125//26
f  111//17 113//18 121//18
f  121//19 113//19 111//20
f  123//6 114//6 117//6
f  117//5 114//5 123//5
f  120//23 109//15 119//21
f  119//22 109//16 120//24
f  114//6 123//6 119//6
f  119//5 123//5 114//5
f  101//1 115//1 120//1
f  120//2 115//2 101//2
f  125//2 116//2 121//2
f  121//1 116//1 125//1
f  112//5 122//5 126//5
f  126//6 122//6 112//6
f  116//5 127//5 122//5
f  122//6 127//6 116//6
f  123//3 112//3 126//3
f  126//4 112//4 123//4
f  101//1 128//1 124//1
f  124//2 128//2 101//2
f  129//27 118//25 124//27
f  124//28 118//26 129//28
f  113//18 125//25 121//18
f  121//19 125//26 113//19
f  118//25 129//27 125//25
f  125//26 129//28 118//26
f  130//23 120//23 119//21
f  119//22 120//24 130//24
f  123//2 130//2 119//2
f  119//1 130//1 123//1
f  101//1 120//1 131//1
f  131//2 120//2 101//2
f  129//2 116//2 125//2
f  125//1 116//1 129//1
f  122//2 123//2 126//2
f  126//1 123//1 122//1
f  127//5 116//5 132//5
f  132//6 116//6 127//6
f  127//2 123//2 122//2
f  122//1 123//1 127//1
f  101//1 133//1 128//1
f  128//2 133//2 101//2
f  134//29 124//27 128//29
f  128//30 124//28 134//30
f  124//27 134//29 129//27
f  129//28 134//30 124//28
f  130//23 131//31 120//23
f  120//24 131//32 130//24
f  130//2 123//2 135//2
f  135//1 123//1 130//1
f  101//1 131//1 133//1
f  133//2 131//2 101//2
f  134//2 116//2 129//2
f  129//1 116//1 134//1
f  116//2 136//2 132//2
f  132//1 136//1 116//1
f  136//34 127//33 132//33
f  132//36 127//36 136//35
f  135//2 123//2 127//2
f  127//1 123//1 135//1
f  136//34 128//29 133//34
f  133//35 128//30 136//35
f  128//29 136//34 134//29
f  134//30 136//35 128//30
f  131//31 130//23 135//31
f  135//32 130//24 131//32
f  135//31 133//34 131//31
f  131//32 133//35 135//32
f  136//2 116//2 134//2
f  134//1 116//1 136//1
f  133//34 127//33 136//34
f  136//35 127//36 133//35
f  133//34 135//31 127//33
f  127//36 135//32 133//35

# Mesh 'mesh7_mesh7-geometry' with 55 faces
g mesh7_mesh7-geometry
usemtl material_0_0
l  101 104
l  97 101
l  93 101
l  107 104
l  104 108
l  95 97
l  97 100
l  95 93
l  93 107
l  107 111
l  111 108
l  108 113
l  95 94
l  94 100
l  100 99
l  111 121
l  113 118
l  94 96
l  103 99
l  96 99
l  121 125
l  118 124
l  98 96
l  106 103
l  125 129
l  124 128
l  102 98
l  110 106
l  129 134
l  128 133
l  105 102
l  115 110
l  134 136
l  133 131
l  109 105
l  120 115
l  136 132
l  131 120
l  114 109
l  116 132
l  132 127
l  117 114
l  114 119
l  116 112
l  116 122
l  122 127
l  127 135
l  112 117
l  117 123
l  130 119
l  123 119
l  112 126
l  122 126
l  135 130
l  126 123

# Mesh 'mesh8_mesh8-geometry' with 24 faces
g mesh8_mesh8-geometry
usemtl material_1_24
f  137//5 138//5 139//5
f  138//5 137//5 140//5
f  139//6 138//6 137//6
f  140//6 137//6 138//6
f  138//1 141//1 139//1
f  139//2 141//2 138//2
f  141//4 137//4 139//4
f  139//3 137//3 141//3
f  137//2 142//2 140//2
f  140//1 142//1 137//1
f  142//3 138//3 140//3
f  140//4 138//4 142//4
f  141//1 138//1 143//1
f  143//2 138//2 141//2
f  137//4 141//4 144//4
f  144//3 141//3 137//3
f  142//2 137//2 144//2
f  144//1 137//1 142//1
f  138//3 142//3 143//3
f  143//4 142//4 138//4
f  142//6 141//6 143//6
f  143//5 141//5 142//5
f  141//6 142//6 144//6
f  144//5 142//5 141//5

# Mesh 'mesh9_mesh9-geometry' with 12 faces
g mesh9_mesh9-geometry
usemtl material_0_0
l  137 140
l  139 137
l  137 144
l  140 138
l  140 142
l  138 139
l  139 141
l  144 142
l  141 144
l  138 143
l  142 143
l  143 141

# Mesh 'mesh10_mesh10-geometry' with 24 faces
g mesh10_mesh10-geometry
usemtl material_1_24
f  145//4 146//4 147//4
f  146//4 145//4 148//4
f  147//3 146//3 145//3
f  148//3 145//3 146//3
f  146//5 149//5 147//5
f  147//6 149//6 146//6
f  149//1 145//1 147//1
f  147//2 145//2 149//2
f  145//6 150//6 148//6
f  148//5 150//5 145//5
f  150//2 146//2 148//2
f  148//1 146//1 150//1
f  149//5 146//5 151//5
f  151//6 146//6 149//6
f  145//1 149//1 152//1
f  152//2 149//2 145//2
f  150//6 145//6 152//6
f  152//5 145//5 150//5
f  146//2 150//2 151//2
f  151//1 150//1 146//1
f  150//3 149//3 151//3
f  151//4 149//4 150//4
f  149//3 150//3 152//3
f  152//4 150//4 149//4

# Mesh 'mesh3_mesh3-geometry' with 12 faces
g mesh3_mesh3-geometry
usemtl material_1_24
f  153//4 154//4 155//4
f  154//4 153//4 156//4
f  154//5 157//5 155//5
f  157//1 153//1 155//1
f  153//6 158//6 156//6
f  158//2 154//2 156//2
f  157//5 154//5 159//5
f  153//1 157//1 160//1
f  158//6 153//6 160//6
f  154//2 158//2 159//2
f  158//3 157//3 159//3
f  157//3 158//3 160//3

# Mesh 'mesh3_mesh3-geometry' with 12 faces
g mesh3_mesh3-geometry
usemtl material_0_24
f  155//3 154//3 153//3
f  156//3 153//3 154//3
f  155//6 157//6 154//6
f  155//2 153//2 157//2
f  156//5 158//5 153//5
f  156//1 154//1 158//1
f  159//6 154//6 157//6
f  160//2 157//2 153//2
f  160//5 153//5 158//5
f  159//1 158//1 154//1
f  159//4 157//4 158//4
f  160//4 158//4 157//4

# Mesh 'mesh11_mesh11-geometry' with 32 faces
g mesh11_mesh11-geometry
usemtl material_0_24
f  161//1 162//1 163//1
f  162//1 161//1 164//1
f  163//2 162//2 161//2
f  164//2 161//2 162//2
f  162//3 165//3 163//3
f  163//4 165//4 162//4
f  165//6 161//6 163//6
f  163//5 161//5 165//5
f  161//4 166//4 164//4
f  164//3 166//3 161//3
f  166//5 162//5 164//5
f  164//6 162//6 166//6
f  152//3 165//3 162//3
f  162//4 165//4 152//4
f  161//6 165//6 167//6
f  167//5 165//5 161//5
f  166//4 161//4 168//4
f  168//3 161//3 166//3
f  162//5 166//5 152//5
f  152//6 166//6 162//6
f  165//3 152//3 169//3
f  169//4 152//4 165//4
f  165//2 168//2 167//2
f  167//1 168//1 165//1
f  168//4 161//4 167//4
f  167//3 161//3 168//3
f  168//5 152//5 166//5
f  166//6 152//6 168//6
f  152//5 168//5 169//5
f  169//6 168//6 152//6
f  168//2 165//2 169//2
f  169//1 165//1 168//1

# Mesh 'mesh12_mesh12-geometry' with 1 faces
g mesh12_mesh12-geometry
usemtl material_0_0
l  97 101

# Mesh 'mesh13_mesh13-geometry' with 15 faces
g mesh13_mesh13-geometry
usemtl material_0_0
l  162 163
l  162 164
l  152 162
l  163 161
l  163 165
l  164 161
l  166 164
l  152 166
l  169 152
l  161 167
l  165 167
l  165 169
l  168 166
l  169 168
l  167 168

