# File produced by Open Asset Import Library (http://www.assimp.sf.net)
# (assimp v3.2.202087883)

mtllib model_normalized.mtl

# 140 vertex positions
v -0.449049 0.143052 0.098699
v 0.449049 0.143052 -0.116476
v 0.449049 0.143052 0.098699
v -0.449049 0.143052 -0.116476
v 0.449049 0.147730 0.098699
v -0.449049 0.147730 -0.116476
v 0.449049 0.147730 -0.116476
v -0.449049 0.147730 0.098699
v 0.449049 0.152407 -0.116476
v 0.449049 0.152407 0.098699
v -0.449049 0.152407 0.098699
v -0.449049 0.152407 -0.116476
v -0.435016 -0.198411 -0.074372
v -0.435016 0.143052 -0.088405
v -0.435016 -0.198411 -0.088405
v -0.435016 0.143052 -0.074372
v -0.402273 -0.198411 -0.088405
v -0.435016 -0.153798 -0.074372
v -0.402273 0.143052 -0.074372
v -0.402273 0.143052 -0.088405
v -0.402273 -0.198411 -0.074372
v -0.435016 -0.198411 -0.060339
v -0.435016 0.143052 -0.060339
v -0.402273 -0.198411 -0.060339
v -0.402273 0.143052 -0.060339
v -0.402273 -0.153798 -0.074372
v -0.016372 -0.198411 -0.074372
v -0.016372 0.143052 -0.088405
v -0.016372 -0.198411 -0.088405
v -0.016372 0.143052 -0.074372
v 0.016372 -0.198411 -0.088405
v -0.016372 -0.153798 -0.074372
v 0.016372 0.143052 -0.074372
v 0.016372 0.143052 -0.088405
v 0.016372 -0.198411 -0.074372
v -0.016372 -0.198411 -0.060339
v -0.016372 0.143052 -0.060339
v 0.016372 -0.198411 -0.060339
v 0.016372 0.143052 -0.060339
v 0.016372 -0.153798 -0.074372
v -0.016372 -0.198411 0.070630
v -0.016372 0.143052 0.056597
v -0.016372 -0.198411 0.056597
v -0.016372 0.143052 0.070630
v 0.016372 -0.198411 0.056597
v -0.016372 -0.153798 0.070630
v 0.016372 0.143052 0.070630
v 0.016372 0.143052 0.056597
v 0.016372 -0.198411 0.070630
v -0.016372 -0.198411 0.084663
v -0.016372 0.143052 0.084663
v 0.016372 -0.198411 0.084663
v 0.016372 0.143052 0.084663
v 0.016372 -0.153798 0.070630
v -0.449049 0.143052 -0.102440
v 0.449049 0.143052 -0.088405
v 0.449049 0.143052 -0.102440
v -0.449049 0.143052 -0.088405
v 0.449049 0.110309 -0.102440
v -0.449049 0.110309 -0.088405
v 0.449049 0.110309 -0.088405
v -0.449049 0.110309 -0.102440
v 0.402273 -0.198411 -0.074372
v 0.402273 0.143052 -0.088405
v 0.402273 -0.198411 -0.088405
v 0.402273 0.143052 -0.074372
v 0.435016 -0.198411 -0.088405
v 0.402273 -0.153798 -0.074372
v 0.435016 0.143052 -0.074372
v 0.435016 0.143052 -0.088405
v 0.435016 -0.198411 -0.074372
v 0.402273 -0.198411 -0.060339
v 0.402273 0.143052 -0.060339
v 0.435016 -0.198411 -0.060339
v 0.435016 0.143052 -0.060339
v 0.435016 -0.153798 -0.074372
v -0.435016 0.143052 0.084663
v -0.449049 0.143052 0.084663
v -0.435016 0.110309 -0.088405
v -0.449049 0.110309 0.084663
v -0.435016 0.110309 0.084663
v 0.449049 0.143052 0.084663
v 0.435016 0.143052 0.084663
v 0.435016 0.110309 0.084663
v 0.449049 0.110309 0.084663
v 0.435016 0.110309 -0.088405
v -0.449049 0.110309 0.098699
v 0.449049 0.110309 0.098699
v 0.402273 -0.198411 0.070630
v 0.402273 0.143052 0.056597
v 0.402273 -0.198411 0.056597
v 0.402273 0.143052 0.070630
v 0.435016 -0.198411 0.056597
v 0.402273 -0.153798 0.070630
v 0.435016 0.143052 0.070630
v 0.435016 0.143052 0.056597
v 0.435016 -0.198411 0.070630
v 0.402273 -0.198411 0.084663
v 0.402273 0.143052 0.084663
v 0.435016 -0.198411 0.084663
v 0.435016 -0.153798 0.070630
v -0.435016 -0.198411 0.070630
v -0.435016 0.143052 0.056597
v -0.435016 -0.198411 0.056597
v -0.435016 0.143052 0.070630
v -0.402273 -0.198411 0.056597
v -0.435016 -0.153798 0.070630
v -0.402273 0.143052 0.070630
v -0.402273 0.143052 0.056597
v -0.402273 -0.198411 0.070630
v -0.435016 -0.198411 0.084663
v -0.402273 -0.198411 0.084663
v -0.402273 0.143052 0.084663
v -0.402273 -0.153798 0.070630
v -0.449049 0.185150 0.084666
v -0.449049 0.152407 0.084666
v -0.449049 0.185150 0.098699
v 0.449049 0.152407 0.084666
v 0.449049 0.185150 0.098699
v 0.449049 0.185150 0.084666
v -0.435016 -0.053406 -0.060339
v 0.435016 -0.067439 -0.060339
v -0.435016 -0.067439 -0.060339
v 0.435016 -0.053406 -0.060339
v -0.435016 -0.067439 -0.046306
v 0.435016 -0.053406 -0.046306
v 0.435016 -0.067439 -0.046306
v -0.435016 -0.053406 -0.046306
v -0.435016 -0.053406 0.042564
v 0.435016 -0.067439 0.042564
v -0.435016 -0.067439 0.042564
v 0.435016 -0.053406 0.042564
v -0.435016 -0.067439 0.056597
v 0.435016 -0.053406 0.056597
v 0.435016 -0.067439 0.056597
v -0.435016 -0.053406 0.056597
v -0.435016 -0.048728 -0.060339
v -0.435016 -0.048728 0.056597
v 0.435016 -0.048728 0.056597
v 0.435016 -0.048728 -0.060339

# 0 UV coordinates

# 6 vertex normals
vn 0 -0.0254 0
vn 0 0.0254 0
vn 0.0254 0 0
vn -0.0254 0 0
vn 0 0 0.0254
vn 0 -0 -0.0254

# Mesh 'mesh1_mesh1-geometry' with 44 faces
g mesh1_mesh1-geometry
usemtl material_0_24
f  1//1 2//1 3//1
f  2//1 1//1 4//1
f  3//2 2//2 1//2
f  4//2 1//2 2//2
f  2//3 5//3 3//3
f  3//4 5//4 2//4
f  5//5 1//5 3//5
f  3//6 1//6 5//6
f  1//4 6//4 4//4
f  4//3 6//3 1//3
f  6//6 2//6 4//6
f  4//5 2//5 6//5
f  5//3 2//3 7//3
f  7//4 2//4 5//4
f  1//5 5//5 8//5
f  8//6 5//6 1//6
f  6//4 1//4 8//4
f  8//3 1//3 6//3
f  2//6 6//6 7//6
f  7//5 6//5 2//5
f  8//1 7//1 5//1
f  5//2 7//2 8//2
f  9//3 5//3 7//3
f  7//4 5//4 9//4
f  10//5 8//5 5//5
f  5//6 8//6 10//6
f  11//4 6//4 8//4
f  8//3 6//3 11//3
f  7//1 8//1 6//1
f  6//2 8//2 7//2
f  6//6 9//6 7//6
f  7//5 9//5 6//5
f  5//3 9//3 10//3
f  10//4 9//4 5//4
f  8//5 10//5 11//5
f  11//6 10//6 8//6
f  6//4 11//4 12//4
f  12//3 11//3 6//3
f  9//6 6//6 12//6
f  12//5 6//5 9//5
f  12//2 10//2 9//2
f  9//1 10//1 12//1
f  10//2 12//2 11//2
f  11//1 12//1 10//1

# Mesh 'mesh2_mesh2-geometry' with 20 faces
g mesh2_mesh2-geometry
usemtl material_1_0
l  5 7
l  10 5
l  5 8
l  5 3
l  7 6
l  2 7
l  7 9
l  9 10
l  10 11
l  11 8
l  8 1
l  8 6
l  3 1
l  3 2
l  4 6
l  6 12
l  2 4
l  9 12
l  12 11
l  1 4

# Mesh 'mesh3_mesh3-geometry' with 48 faces
g mesh3_mesh3-geometry
usemtl material_0_24
f  13//4 14//4 15//4
f  14//4 13//4 16//4
f  15//3 14//3 13//3
f  16//3 13//3 14//3
f  14//6 17//6 15//6
f  15//5 17//5 14//5
f  17//1 13//1 15//1
f  15//2 13//2 17//2
f  16//4 13//4 18//4
f  18//3 13//3 16//3
f  19//2 14//2 16//2
f  16//1 14//1 19//1
f  17//6 14//6 20//6
f  20//5 14//5 17//5
f  13//1 17//1 21//1
f  21//2 17//2 13//2
f  22//4 18//4 13//4
f  13//3 18//3 22//3
f  18//4 22//4 16//4
f  16//3 22//3 18//3
f  14//2 19//2 20//2
f  20//1 19//1 14//1
f  19//1 23//1 16//1
f  16//2 23//2 19//2
f  19//3 17//3 20//3
f  20//4 17//4 19//4
f  17//3 19//3 21//3
f  21//4 19//4 17//4
f  13//2 24//2 21//2
f  21//1 24//1 13//1
f  24//2 13//2 22//2
f  22//1 13//1 24//1
f  16//4 22//4 23//4
f  23//3 22//3 16//3
f  23//1 19//1 25//1
f  25//2 19//2 23//2
f  21//3 19//3 26//3
f  26//4 19//4 21//4
f  24//4 26//4 21//4
f  21//3 26//3 24//3
f  23//6 24//6 22//6
f  22//5 24//5 23//5
f  19//4 24//4 25//4
f  25//3 24//3 19//3
f  24//6 23//6 25//6
f  25//5 23//5 24//5
f  26//4 24//4 19//4
f  19//3 24//3 26//3

# Mesh 'mesh4_mesh4-geometry' with 23 faces
g mesh4_mesh4-geometry
usemtl material_1_0
l  16 14
l  18 16
l  23 16
l  16 19
l  14 15
l  14 20
l  18 26
l  13 18
l  22 23
l  23 25
l  25 19
l  19 20
l  26 19
l  13 15
l  15 17
l  17 20
l  21 26
l  22 13
l  13 21
l  22 24
l  24 25
l  21 17
l  24 21

# Mesh 'mesh5_mesh5-geometry' with 48 faces
g mesh5_mesh5-geometry
usemtl material_0_24
f  27//4 28//4 29//4
f  28//4 27//4 30//4
f  29//3 28//3 27//3
f  30//3 27//3 28//3
f  28//6 31//6 29//6
f  29//5 31//5 28//5
f  31//1 27//1 29//1
f  29//2 27//2 31//2
f  30//4 27//4 32//4
f  32//3 27//3 30//3
f  33//2 28//2 30//2
f  30//1 28//1 33//1
f  31//6 28//6 34//6
f  34//5 28//5 31//5
f  27//1 31//1 35//1
f  35//2 31//2 27//2
f  36//4 32//4 27//4
f  27//3 32//3 36//3
f  32//4 36//4 30//4
f  30//3 36//3 32//3
f  28//2 33//2 34//2
f  34//1 33//1 28//1
f  33//1 37//1 30//1
f  30//2 37//2 33//2
f  33//3 31//3 34//3
f  34//4 31//4 33//4
f  31//3 33//3 35//3
f  35//4 33//4 31//4
f  27//2 38//2 35//2
f  35//1 38//1 27//1
f  38//2 27//2 36//2
f  36//1 27//1 38//1
f  30//4 36//4 37//4
f  37//3 36//3 30//3
f  37//1 33//1 39//1
f  39//2 33//2 37//2
f  35//3 33//3 40//3
f  40//4 33//4 35//4
f  38//4 40//4 35//4
f  35//3 40//3 38//3
f  37//6 38//6 36//6
f  36//5 38//5 37//5
f  33//4 38//4 39//4
f  39//3 38//3 33//3
f  38//6 37//6 39//6
f  39//5 37//5 38//5
f  40//4 38//4 33//4
f  33//3 38//3 40//3

# Mesh 'mesh6_mesh6-geometry' with 23 faces
g mesh6_mesh6-geometry
usemtl material_1_0
l  30 28
l  32 30
l  37 30
l  30 33
l  28 29
l  28 34
l  32 40
l  27 32
l  36 37
l  37 39
l  39 33
l  33 34
l  40 33
l  27 29
l  29 31
l  31 34
l  35 40
l  36 27
l  27 35
l  36 38
l  38 39
l  35 31
l  38 35

# Mesh 'mesh7_mesh7-geometry' with 48 faces
g mesh7_mesh7-geometry
usemtl material_0_24
f  41//4 42//4 43//4
f  42//4 41//4 44//4
f  43//3 42//3 41//3
f  44//3 41//3 42//3
f  42//6 45//6 43//6
f  43//5 45//5 42//5
f  45//1 41//1 43//1
f  43//2 41//2 45//2
f  44//4 41//4 46//4
f  46//3 41//3 44//3
f  47//2 42//2 44//2
f  44//1 42//1 47//1
f  45//6 42//6 48//6
f  48//5 42//5 45//5
f  41//1 45//1 49//1
f  49//2 45//2 41//2
f  50//4 46//4 41//4
f  41//3 46//3 50//3
f  46//4 50//4 44//4
f  44//3 50//3 46//3
f  42//2 47//2 48//2
f  48//1 47//1 42//1
f  47//1 51//1 44//1
f  44//2 51//2 47//2
f  47//3 45//3 48//3
f  48//4 45//4 47//4
f  45//3 47//3 49//3
f  49//4 47//4 45//4
f  41//2 52//2 49//2
f  49//1 52//1 41//1
f  52//2 41//2 50//2
f  50//1 41//1 52//1
f  44//4 50//4 51//4
f  51//3 50//3 44//3
f  51//1 47//1 53//1
f  53//2 47//2 51//2
f  49//3 47//3 54//3
f  54//4 47//4 49//4
f  52//4 54//4 49//4
f  49//3 54//3 52//3
f  51//6 52//6 50//6
f  50//5 52//5 51//5
f  47//4 52//4 53//4
f  53//3 52//3 47//3
f  52//6 51//6 53//6
f  53//5 51//5 52//5
f  54//4 52//4 47//4
f  47//3 52//3 54//3

# Mesh 'mesh8_mesh8-geometry' with 23 faces
g mesh8_mesh8-geometry
usemtl material_1_0
l  44 42
l  46 44
l  51 44
l  44 47
l  42 43
l  42 48
l  46 54
l  41 46
l  50 51
l  51 53
l  53 47
l  47 48
l  54 47
l  41 43
l  43 45
l  45 48
l  49 54
l  50 41
l  41 49
l  50 52
l  52 53
l  49 45
l  52 49

# Mesh 'mesh9_mesh9-geometry' with 24 faces
g mesh9_mesh9-geometry
usemtl material_0_24
f  55//2 56//2 57//2
f  56//2 55//2 58//2
f  57//1 56//1 55//1
f  58//1 55//1 56//1
f  56//3 59//3 57//3
f  57//4 59//4 56//4
f  59//6 55//6 57//6
f  57//5 55//5 59//5
f  55//4 60//4 58//4
f  58//3 60//3 55//3
f  60//5 56//5 58//5
f  58//6 56//6 60//6
f  59//3 56//3 61//3
f  61//4 56//4 59//4
f  55//6 59//6 62//6
f  62//5 59//5 55//5
f  60//4 55//4 62//4
f  62//3 55//3 60//3
f  56//5 60//5 61//5
f  61//6 60//6 56//6
f  60//1 59//1 61//1
f  61//2 59//2 60//2
f  59//1 60//1 62//1
f  62//2 60//2 59//2

# Mesh 'mesh10_mesh10-geometry' with 12 faces
g mesh10_mesh10-geometry
usemtl material_1_0
l  58 55
l  58 56
l  60 58
l  55 57
l  55 62
l  56 57
l  61 56
l  60 61
l  62 60
l  57 59
l  62 59
l  59 61

# Mesh 'mesh11_mesh11-geometry' with 48 faces
g mesh11_mesh11-geometry
usemtl material_0_24
f  63//4 64//4 65//4
f  64//4 63//4 66//4
f  65//3 64//3 63//3
f  66//3 63//3 64//3
f  64//6 67//6 65//6
f  65//5 67//5 64//5
f  67//1 63//1 65//1
f  65//2 63//2 67//2
f  66//4 63//4 68//4
f  68//3 63//3 66//3
f  69//2 64//2 66//2
f  66//1 64//1 69//1
f  67//6 64//6 70//6
f  70//5 64//5 67//5
f  63//1 67//1 71//1
f  71//2 67//2 63//2
f  72//4 68//4 63//4
f  63//3 68//3 72//3
f  68//4 72//4 66//4
f  66//3 72//3 68//3
f  64//2 69//2 70//2
f  70//1 69//1 64//1
f  69//1 73//1 66//1
f  66//2 73//2 69//2
f  69//3 67//3 70//3
f  70//4 67//4 69//4
f  67//3 69//3 71//3
f  71//4 69//4 67//4
f  63//2 74//2 71//2
f  71//1 74//1 63//1
f  74//2 63//2 72//2
f  72//1 63//1 74//1
f  66//4 72//4 73//4
f  73//3 72//3 66//3
f  73//1 69//1 75//1
f  75//2 69//2 73//2
f  71//3 69//3 76//3
f  76//4 69//4 71//4
f  74//4 76//4 71//4
f  71//3 76//3 74//3
f  73//6 74//6 72//6
f  72//5 74//5 73//5
f  69//4 74//4 75//4
f  75//3 74//3 69//3
f  74//6 73//6 75//6
f  75//5 73//5 74//5
f  76//4 74//4 69//4
f  69//3 74//3 76//3

# Mesh 'mesh12_mesh12-geometry' with 23 faces
g mesh12_mesh12-geometry
usemtl material_1_0
l  66 64
l  68 66
l  73 66
l  66 69
l  64 65
l  64 70
l  68 76
l  63 68
l  72 73
l  73 75
l  75 69
l  69 70
l  76 69
l  63 65
l  65 67
l  67 70
l  71 76
l  72 63
l  63 71
l  72 74
l  74 75
l  71 67
l  74 71

# Mesh 'mesh13_mesh13-geometry' with 24 faces
g mesh13_mesh13-geometry
usemtl material_0_24
f  58//2 77//2 14//2
f  77//2 58//2 78//2
f  14//1 77//1 58//1
f  78//1 58//1 77//1
f  77//3 79//3 14//3
f  14//4 79//4 77//4
f  79//6 58//6 14//6
f  14//5 58//5 79//5
f  58//4 80//4 78//4
f  78//3 80//3 58//3
f  80//5 77//5 78//5
f  78//6 77//6 80//6
f  79//3 77//3 81//3
f  81//4 77//4 79//4
f  58//6 79//6 60//6
f  60//5 79//5 58//5
f  80//4 58//4 60//4
f  60//3 58//3 80//3
f  77//5 80//5 81//5
f  81//6 80//6 77//6
f  80//1 79//1 81//1
f  81//2 79//2 80//2
f  79//1 80//1 60//1
f  60//2 80//2 79//2

# Mesh 'mesh14_mesh14-geometry' with 12 faces
g mesh14_mesh14-geometry
usemtl material_1_0
l  58 14
l  78 58
l  58 60
l  14 77
l  14 79
l  77 78
l  78 80
l  60 79
l  80 60
l  77 81
l  79 81
l  81 80

# Mesh 'mesh15_mesh15-geometry' with 24 faces
g mesh15_mesh15-geometry
usemtl material_0_24
f  70//2 82//2 56//2
f  82//2 70//2 83//2
f  56//1 82//1 70//1
f  83//1 70//1 82//1
f  82//3 61//3 56//3
f  56//4 61//4 82//4
f  61//6 70//6 56//6
f  56//5 70//5 61//5
f  70//4 84//4 83//4
f  83//3 84//3 70//3
f  84//5 82//5 83//5
f  83//6 82//6 84//6
f  61//3 82//3 85//3
f  85//4 82//4 61//4
f  70//6 61//6 86//6
f  86//5 61//5 70//5
f  84//4 70//4 86//4
f  86//3 70//3 84//3
f  82//5 84//5 85//5
f  85//6 84//6 82//6
f  84//1 61//1 85//1
f  85//2 61//2 84//2
f  61//1 84//1 86//1
f  86//2 84//2 61//2

# Mesh 'mesh16_mesh16-geometry' with 12 faces
g mesh16_mesh16-geometry
usemtl material_1_0
l  70 56
l  83 70
l  70 86
l  56 82
l  56 61
l  82 83
l  83 84
l  86 61
l  84 86
l  82 85
l  61 85
l  85 84

# Mesh 'mesh17_mesh17-geometry' with 24 faces
g mesh17_mesh17-geometry
usemtl material_0_24
f  78//2 3//2 82//2
f  3//2 78//2 1//2
f  82//1 3//1 78//1
f  1//1 78//1 3//1
f  3//3 85//3 82//3
f  82//4 85//4 3//4
f  85//6 78//6 82//6
f  82//5 78//5 85//5
f  78//4 87//4 1//4
f  1//3 87//3 78//3
f  87//5 3//5 1//5
f  1//6 3//6 87//6
f  85//3 3//3 88//3
f  88//4 3//4 85//4
f  78//6 85//6 80//6
f  80//5 85//5 78//5
f  87//4 78//4 80//4
f  80//3 78//3 87//3
f  3//5 87//5 88//5
f  88//6 87//6 3//6
f  87//1 85//1 88//1
f  88//2 85//2 87//2
f  85//1 87//1 80//1
f  80//2 87//2 85//2

# Mesh 'mesh18_mesh18-geometry' with 12 faces
g mesh18_mesh18-geometry
usemtl material_1_0
l  1 78
l  1 3
l  87 1
l  78 82
l  78 80
l  3 82
l  88 3
l  87 88
l  80 87
l  82 85
l  80 85
l  85 88

# Mesh 'mesh19_mesh19-geometry' with 48 faces
g mesh19_mesh19-geometry
usemtl material_0_24
f  89//4 90//4 91//4
f  90//4 89//4 92//4
f  91//3 90//3 89//3
f  92//3 89//3 90//3
f  90//6 93//6 91//6
f  91//5 93//5 90//5
f  93//1 89//1 91//1
f  91//2 89//2 93//2
f  92//4 89//4 94//4
f  94//3 89//3 92//3
f  95//2 90//2 92//2
f  92//1 90//1 95//1
f  93//6 90//6 96//6
f  96//5 90//5 93//5
f  89//1 93//1 97//1
f  97//2 93//2 89//2
f  98//4 94//4 89//4
f  89//3 94//3 98//3
f  94//4 98//4 92//4
f  92//3 98//3 94//3
f  90//2 95//2 96//2
f  96//1 95//1 90//1
f  95//1 99//1 92//1
f  92//2 99//2 95//2
f  95//3 93//3 96//3
f  96//4 93//4 95//4
f  93//3 95//3 97//3
f  97//4 95//4 93//4
f  89//2 100//2 97//2
f  97//1 100//1 89//1
f  100//2 89//2 98//2
f  98//1 89//1 100//1
f  92//4 98//4 99//4
f  99//3 98//3 92//3
f  99//1 95//1 83//1
f  83//2 95//2 99//2
f  97//3 95//3 101//3
f  101//4 95//4 97//4
f  100//4 101//4 97//4
f  97//3 101//3 100//3
f  99//6 100//6 98//6
f  98//5 100//5 99//5
f  95//4 100//4 83//4
f  83//3 100//3 95//3
f  100//6 99//6 83//6
f  83//5 99//5 100//5
f  101//4 100//4 95//4
f  95//3 100//3 101//3

# Mesh 'mesh20_mesh20-geometry' with 23 faces
g mesh20_mesh20-geometry
usemtl material_1_0
l  92 90
l  94 92
l  99 92
l  92 95
l  90 91
l  90 96
l  94 101
l  89 94
l  98 99
l  99 83
l  83 95
l  95 96
l  101 95
l  89 91
l  91 93
l  93 96
l  97 101
l  98 89
l  89 97
l  98 100
l  100 83
l  97 93
l  100 97

# Mesh 'mesh21_mesh21-geometry' with 48 faces
g mesh21_mesh21-geometry
usemtl material_0_24
f  102//4 103//4 104//4
f  103//4 102//4 105//4
f  104//3 103//3 102//3
f  105//3 102//3 103//3
f  103//6 106//6 104//6
f  104//5 106//5 103//5
f  106//1 102//1 104//1
f  104//2 102//2 106//2
f  105//4 102//4 107//4
f  107//3 102//3 105//3
f  108//2 103//2 105//2
f  105//1 103//1 108//1
f  106//6 103//6 109//6
f  109//5 103//5 106//5
f  102//1 106//1 110//1
f  110//2 106//2 102//2
f  111//4 107//4 102//4
f  102//3 107//3 111//3
f  107//4 111//4 105//4
f  105//3 111//3 107//3
f  103//2 108//2 109//2
f  109//1 108//1 103//1
f  108//1 77//1 105//1
f  105//2 77//2 108//2
f  108//3 106//3 109//3
f  109//4 106//4 108//4
f  106//3 108//3 110//3
f  110//4 108//4 106//4
f  102//2 112//2 110//2
f  110//1 112//1 102//1
f  112//2 102//2 111//2
f  111//1 102//1 112//1
f  105//4 111//4 77//4
f  77//3 111//3 105//3
f  77//1 108//1 113//1
f  113//2 108//2 77//2
f  110//3 108//3 114//3
f  114//4 108//4 110//4
f  112//4 114//4 110//4
f  110//3 114//3 112//3
f  77//6 112//6 111//6
f  111//5 112//5 77//5
f  108//4 112//4 113//4
f  113//3 112//3 108//3
f  112//6 77//6 113//6
f  113//5 77//5 112//5
f  114//4 112//4 108//4
f  108//3 112//3 114//3

# Mesh 'mesh22_mesh22-geometry' with 23 faces
g mesh22_mesh22-geometry
usemtl material_1_0
l  105 103
l  107 105
l  77 105
l  105 108
l  103 104
l  103 109
l  107 114
l  102 107
l  111 77
l  77 113
l  113 108
l  108 109
l  114 108
l  102 104
l  104 106
l  106 109
l  110 114
l  111 102
l  102 110
l  111 112
l  112 113
l  110 106
l  112 110

# Mesh 'mesh23_mesh23-geometry' with 24 faces
g mesh23_mesh23-geometry
usemtl material_0_24
f  11//4 115//4 116//4
f  115//4 11//4 117//4
f  116//3 115//3 11//3
f  117//3 11//3 115//3
f  115//6 118//6 116//6
f  116//5 118//5 115//5
f  118//1 11//1 116//1
f  116//2 11//2 118//2
f  11//5 119//5 117//5
f  117//6 119//6 11//6
f  119//2 115//2 117//2
f  117//1 115//1 119//1
f  118//6 115//6 120//6
f  120//5 115//5 118//5
f  11//1 118//1 10//1
f  10//2 118//2 11//2
f  119//5 11//5 10//5
f  10//6 11//6 119//6
f  115//2 119//2 120//2
f  120//1 119//1 115//1
f  119//3 118//3 120//3
f  120//4 118//4 119//4
f  118//3 119//3 10//3
f  10//4 119//4 118//4

# Mesh 'mesh24_mesh24-geometry' with 12 faces
g mesh24_mesh24-geometry
usemtl material_1_0
l  116 11
l  115 116
l  116 118
l  11 117
l  11 10
l  117 115
l  115 120
l  120 118
l  118 10
l  117 119
l  10 119
l  119 120

# Mesh 'mesh25_mesh25-geometry' with 24 faces
g mesh25_mesh25-geometry
usemtl material_0_24
f  121//6 122//6 123//6
f  122//6 121//6 124//6
f  123//5 122//5 121//5
f  124//5 121//5 122//5
f  122//1 125//1 123//1
f  123//2 125//2 122//2
f  125//4 121//4 123//4
f  123//3 121//3 125//3
f  121//2 126//2 124//2
f  124//1 126//1 121//1
f  126//3 122//3 124//3
f  124//4 122//4 126//4
f  125//1 122//1 127//1
f  127//2 122//2 125//2
f  121//4 125//4 128//4
f  128//3 125//3 121//3
f  126//2 121//2 128//2
f  128//1 121//1 126//1
f  122//3 126//3 127//3
f  127//4 126//4 122//4
f  126//5 125//5 127//5
f  127//6 125//6 126//6
f  125//5 126//5 128//5
f  128//6 126//6 125//6

# Mesh 'mesh26_mesh26-geometry' with 12 faces
g mesh26_mesh26-geometry
usemtl material_1_0
l  123 122
l  121 123
l  123 125
l  122 124
l  122 127
l  124 121
l  121 128
l  125 127
l  128 125
l  124 126
l  127 126
l  126 128

# Mesh 'mesh27_mesh27-geometry' with 24 faces
g mesh27_mesh27-geometry
usemtl material_0_24
f  129//6 130//6 131//6
f  130//6 129//6 132//6
f  131//5 130//5 129//5
f  132//5 129//5 130//5
f  130//1 133//1 131//1
f  131//2 133//2 130//2
f  133//4 129//4 131//4
f  131//3 129//3 133//3
f  129//2 134//2 132//2
f  132//1 134//1 129//1
f  134//3 130//3 132//3
f  132//4 130//4 134//4
f  133//1 130//1 135//1
f  135//2 130//2 133//2
f  129//4 133//4 136//4
f  136//3 133//3 129//3
f  134//2 129//2 136//2
f  136//1 129//1 134//1
f  130//3 134//3 135//3
f  135//4 134//4 130//4
f  134//5 133//5 135//5
f  135//6 133//6 134//6
f  133//5 134//5 136//5
f  136//6 134//6 133//6

# Mesh 'mesh28_mesh28-geometry' with 12 faces
g mesh28_mesh28-geometry
usemtl material_1_0
l  131 130
l  129 131
l  131 133
l  130 132
l  130 135
l  132 129
l  129 136
l  133 135
l  136 133
l  132 134
l  135 134
l  134 136

# Mesh 'mesh29_mesh29-geometry' with 24 faces
g mesh29_mesh29-geometry
usemtl material_0_24
f  136//4 137//4 121//4
f  137//4 136//4 138//4
f  121//3 137//3 136//3
f  138//3 136//3 137//3
f  137//6 124//6 121//6
f  121//5 124//5 137//5
f  124//1 136//1 121//1
f  121//2 136//2 124//2
f  136//5 139//5 138//5
f  138//6 139//6 136//6
f  139//2 137//2 138//2
f  138//1 137//1 139//1
f  124//6 137//6 140//6
f  140//5 137//5 124//5
f  136//1 124//1 134//1
f  134//2 124//2 136//2
f  139//5 136//5 134//5
f  134//6 136//6 139//6
f  137//2 139//2 140//2
f  140//1 139//1 137//1
f  139//3 124//3 140//3
f  140//4 124//4 139//4
f  124//3 139//3 134//3
f  134//4 139//4 124//4

# Mesh 'mesh30_mesh30-geometry' with 12 faces
g mesh30_mesh30-geometry
usemtl material_1_0
l  136 121
l  138 136
l  136 134
l  121 137
l  121 124
l  137 138
l  138 139
l  134 124
l  139 134
l  137 140
l  124 140
l  140 139

