# File produced by Open Asset Import Library (http://www.assimp.sf.net)
# (assimp v3.2.202087883)

mtllib model_normalized.mtl

# 92 vertex positions
v 0.298821 0.063229 0.092840
v 0.305444 0.063229 0.019987
v 0.351805 0.063229 0.092840
v 0.298821 0.063229 -0.092604
v 0.345182 0.063229 0.019987
v 0.298821 0.066540 0.092840
v 0.305444 0.063229 -0.019751
v 0.351805 0.063229 -0.092604
v 0.345182 -0.132900 0.019987
v 0.351805 0.066540 0.092840
v 0.298821 0.066540 -0.092604
v 0.345182 0.063229 -0.019751
v 0.305444 -0.132900 -0.019751
v 0.351805 0.066540 -0.092604
v 0.305444 -0.132900 0.019987
v 0.345182 -0.137867 0.019987
v 0.298821 -0.132900 0.092840
v 0.345182 -0.132900 -0.019751
v 0.305444 -0.137867 -0.019751
v 0.298821 -0.132900 -0.092604
v 0.305444 -0.137867 0.019987
v 0.351805 -0.132900 0.092840
v 0.351805 -0.132900 -0.092604
v 0.351805 -0.137867 0.092840
v 0.345182 -0.137867 -0.019751
v 0.298821 -0.137867 -0.092604
v 0.351805 -0.137867 -0.092604
v 0.298821 -0.137867 0.092840
v -0.469319 0.086969 0.054671
v 0.483264 0.066540 0.054671
v -0.469319 0.066540 0.054671
v 0.483264 0.086969 0.054671
v -0.469319 0.066540 0.102611
v 0.483264 0.086969 0.102611
v 0.483264 0.066540 0.102611
v -0.469319 0.086969 0.102611
v 0.483264 0.066540 -0.051082
v 0.483264 0.086969 -0.003470
v 0.483264 0.066540 -0.003470
v 0.483264 0.086969 -0.051082
v -0.469319 0.086969 -0.003470
v -0.469319 0.066540 -0.003470
v -0.469319 0.086969 -0.051082
v -0.469319 0.066540 -0.051082
v -0.326018 0.086969 0.001729
v -0.469319 0.086969 0.049394
v -0.469319 0.086969 0.001729
v 0.483264 0.086969 0.049394
v -0.469319 0.066540 0.001709
v 0.483264 0.086969 0.001709
v 0.483264 0.086969 0.001729
v 0.483264 0.066540 0.049394
v -0.469319 0.066540 0.049394
v -0.469319 0.086969 0.001709
v 0.483264 0.066540 0.001709
v 0.483264 0.086969 -0.054801
v -0.469319 0.086969 -0.102413
v -0.469319 0.086969 -0.054801
v 0.483264 0.086969 -0.102413
v -0.469319 0.066540 -0.054801
v 0.483264 0.066540 -0.054801
v 0.483264 0.066540 -0.102413
v -0.469319 0.066540 -0.102413
v -0.326018 0.071222 0.001729
v -0.336985 0.063229 0.092840
v -0.330362 0.063229 0.019987
v -0.284001 0.063229 0.092840
v -0.336985 0.063229 -0.092604
v -0.290624 0.063229 0.019987
v -0.336985 0.066540 0.092840
v -0.330362 0.063229 -0.019751
v -0.284001 0.063229 -0.092604
v -0.290624 -0.132900 0.019987
v -0.284001 0.066540 0.092840
v -0.336985 0.066540 -0.092604
v -0.290624 0.063229 -0.019751
v -0.330362 -0.132900 -0.019751
v -0.284001 0.066540 -0.092604
v -0.330362 -0.132900 0.019987
v -0.290624 -0.137867 0.019987
v -0.336985 -0.132900 0.092840
v -0.290624 -0.132900 -0.019751
v -0.330362 -0.137867 -0.019751
v -0.336985 -0.132900 -0.092604
v -0.330362 -0.137867 0.019987
v -0.284001 -0.132900 0.092840
v -0.284001 -0.132900 -0.092604
v -0.284001 -0.137867 0.092840
v -0.290624 -0.137867 -0.019751
v -0.336985 -0.137867 -0.092604
v -0.284001 -0.137867 -0.092604
v -0.336985 -0.137867 0.092840

# 0 UV coordinates

# 6 vertex normals
vn 0 -0.0254 0
vn 0 0 0.0254
vn -0.0254 0 0
vn 0.0254 0 0
vn 0 0.0254 0
vn 0 0 -0.0254

# Mesh 'mesh1_mesh1-geometry' with 58 faces
g mesh1_mesh1-geometry
usemtl material_0_24
f  1//1 2//1 3//1
f  2//1 1//1 4//1
f  5//1 3//1 2//1
f  3//2 6//2 1//2
f  6//3 4//3 1//3
f  2//1 4//1 7//1
f  3//1 5//1 8//1
f  2//2 9//2 5//2
f  6//2 3//2 10//2
f  4//3 6//3 11//3
f  7//1 4//1 12//1
f  13//3 2//3 7//3
f  8//1 5//1 12//1
f  14//4 3//4 8//4
f  9//2 2//2 15//2
f  9//4 12//4 5//4
f  3//4 14//4 10//4
f  14//5 6//5 10//5
f  6//5 14//5 11//5
f  14//6 4//6 11//6
f  8//1 12//1 4//1
f  12//6 13//6 7//6
f  2//3 13//3 15//3
f  4//6 14//6 8//6
f  15//2 16//2 9//2
f  15//5 17//5 9//5
f  12//4 9//4 18//4
f  13//6 12//6 18//6
f  19//3 15//3 13//3
f  20//5 15//5 13//5
f  16//2 15//2 21//2
f  16//4 18//4 9//4
f  17//5 15//5 20//5
f  22//5 9//5 17//5
f  9//5 23//5 18//5
f  18//6 19//6 13//6
f  18//5 23//5 13//5
f  15//3 19//3 21//3
f  20//5 13//5 23//5
f  16//1 24//1 21//1
f  18//4 16//4 25//4
f  26//3 17//3 20//3
f  9//5 22//5 23//5
f  17//2 24//2 22//2
f  19//6 18//6 25//6
f  21//1 26//1 19//1
f  23//6 26//6 20//6
f  24//1 16//1 27//1
f  28//1 21//1 24//1
f  27//1 16//1 25//1
f  17//3 26//3 28//3
f  24//4 23//4 22//4
f  24//2 17//2 28//2
f  19//1 26//1 25//1
f  21//1 28//1 26//1
f  26//6 23//6 27//6
f  23//4 24//4 27//4
f  27//1 25//1 26//1

# Mesh 'mesh1_mesh1-geometry' with 62 faces
g mesh1_mesh1-geometry
usemtl material_1_24
f  3//5 2//5 1//5
f  4//5 1//5 2//5
f  2//5 3//5 5//5
f  1//6 6//6 3//6
f  1//4 4//4 6//4
f  7//5 4//5 2//5
f  8//5 5//5 3//5
f  5//6 9//6 2//6
f  10//6 3//6 6//6
f  11//4 6//4 4//4
f  12//5 4//5 7//5
f  7//4 2//4 13//4
f  12//5 5//5 8//5
f  8//3 3//3 14//3
f  15//6 2//6 9//6
f  5//3 12//3 9//3
f  10//3 14//3 3//3
f  10//1 6//1 14//1
f  11//1 14//1 6//1
f  11//2 4//2 14//2
f  4//5 12//5 8//5
f  7//2 13//2 12//2
f  15//4 13//4 2//4
f  8//2 14//2 4//2
f  9//6 16//6 15//6
f  9//1 17//1 15//1
f  18//3 9//3 12//3
f  18//2 12//2 13//2
f  13//4 15//4 19//4
f  13//1 15//1 20//1
f  21//6 15//6 16//6
f  9//3 18//3 16//3
f  20//1 15//1 17//1
f  17//1 9//1 22//1
f  18//1 23//1 9//1
f  13//2 19//2 18//2
f  13//1 23//1 18//1
f  21//4 19//4 15//4
f  23//1 13//1 20//1
f  21//5 24//5 16//5
f  19//1 16//1 21//1
f  21//5 16//5 19//5
f  25//3 16//3 18//3
f  20//4 17//4 26//4
f  23//1 22//1 9//1
f  22//6 24//6 17//6
f  25//2 18//2 19//2
f  19//5 26//5 21//5
f  20//2 26//2 23//2
f  27//5 16//5 24//5
f  24//5 21//5 28//5
f  16//1 19//1 25//1
f  25//5 19//5 16//5
f  25//5 16//5 27//5
f  28//4 26//4 17//4
f  22//3 23//3 24//3
f  28//6 17//6 24//6
f  25//5 26//5 19//5
f  26//5 28//5 21//5
f  27//2 23//2 26//2
f  27//3 24//3 23//3
f  26//5 25//5 27//5

# Mesh 'mesh2_mesh2-geometry' with 12 faces
g mesh2_mesh2-geometry
usemtl material_2_24
f  29//6 30//6 31//6
f  30//6 29//6 32//6
f  30//1 33//1 31//1
f  33//3 29//3 31//3
f  29//5 34//5 32//5
f  34//4 30//4 32//4
f  33//1 30//1 35//1
f  29//3 33//3 36//3
f  34//5 29//5 36//5
f  30//4 34//4 35//4
f  35//2 36//2 33//2
f  36//2 35//2 34//2

# Mesh 'mesh2_mesh2-geometry' with 12 faces
g mesh2_mesh2-geometry
usemtl material_1_24
f  31//2 30//2 29//2
f  32//2 29//2 30//2
f  31//5 33//5 30//5
f  31//4 29//4 33//4
f  32//1 34//1 29//1
f  32//3 30//3 34//3
f  35//5 30//5 33//5
f  36//4 33//4 29//4
f  36//1 29//1 34//1
f  35//3 34//3 30//3
f  33//6 36//6 35//6
f  34//6 35//6 36//6

# Mesh 'mesh3_mesh3-geometry' with 12 faces
g mesh3_mesh3-geometry
usemtl material_2_24
f  37//4 38//4 39//4
f  38//4 37//4 40//4
f  41//2 39//2 38//2
f  42//1 37//1 39//1
f  37//6 43//6 40//6
f  43//5 38//5 40//5
f  39//2 41//2 42//2
f  38//5 43//5 41//5
f  37//1 42//1 44//1
f  43//6 37//6 44//6
f  43//3 42//3 41//3
f  42//3 43//3 44//3

# Mesh 'mesh3_mesh3-geometry' with 12 faces
g mesh3_mesh3-geometry
usemtl material_1_24
f  39//3 38//3 37//3
f  40//3 37//3 38//3
f  38//6 39//6 41//6
f  39//5 37//5 42//5
f  40//2 43//2 37//2
f  40//1 38//1 43//1
f  42//6 41//6 39//6
f  41//1 43//1 38//1
f  44//5 42//5 37//5
f  44//2 37//2 43//2
f  41//4 42//4 43//4
f  44//4 43//4 42//4

# Mesh 'mesh4_mesh4-geometry' with 18 faces
g mesh4_mesh4-geometry
usemtl material_1_24
f  45//1 46//1 47//1
f  46//1 45//1 48//1
f  46//4 49//4 47//4
f  47//1 50//1 45//1
f  48//1 45//1 51//1
f  52//6 46//6 48//6
f  49//4 46//4 53//4
f  47//4 49//4 54//4
f  50//1 47//1 54//1
f  45//1 50//1 51//1
f  51//3 52//3 48//3
f  46//6 52//6 53//6
f  52//5 49//5 53//5
f  55//2 54//2 49//2
f  54//2 55//2 50//2
f  55//3 51//3 50//3
f  52//3 51//3 55//3
f  49//5 52//5 55//5

# Mesh 'mesh4_mesh4-geometry' with 18 faces
g mesh4_mesh4-geometry
usemtl material_2_24
f  47//5 46//5 45//5
f  48//5 45//5 46//5
f  47//3 49//3 46//3
f  45//5 50//5 47//5
f  51//5 45//5 48//5
f  48//2 46//2 52//2
f  53//3 46//3 49//3
f  54//3 49//3 47//3
f  54//5 47//5 50//5
f  51//5 50//5 45//5
f  48//4 52//4 51//4
f  53//2 52//2 46//2
f  53//1 49//1 52//1
f  49//6 54//6 55//6
f  50//6 55//6 54//6
f  50//4 51//4 55//4
f  55//4 51//4 52//4
f  55//1 52//1 49//1

# Mesh 'mesh5_mesh5-geometry' with 12 faces
g mesh5_mesh5-geometry
usemtl material_2_24
f  56//5 57//5 58//5
f  57//5 56//5 59//5
f  57//3 60//3 58//3
f  58//2 61//2 56//2
f  56//4 62//4 59//4
f  62//6 57//6 59//6
f  60//3 57//3 63//3
f  61//2 58//2 60//2
f  62//4 56//4 61//4
f  57//6 62//6 63//6
f  62//1 60//1 63//1
f  60//1 62//1 61//1

# Mesh 'mesh5_mesh5-geometry' with 12 faces
g mesh5_mesh5-geometry
usemtl material_1_24
f  58//1 57//1 56//1
f  59//1 56//1 57//1
f  58//4 60//4 57//4
f  56//6 61//6 58//6
f  59//3 62//3 56//3
f  59//2 57//2 62//2
f  63//4 57//4 60//4
f  60//6 58//6 61//6
f  61//3 56//3 62//3
f  63//2 62//2 57//2
f  63//5 60//5 62//5
f  61//5 62//5 60//5

# Mesh 'mesh6_mesh6-geometry' with 1 faces
g mesh6_mesh6-geometry
usemtl material_1_0
l  45 64

# Mesh 'mesh7_mesh7-geometry' with 58 faces
g mesh7_mesh7-geometry
usemtl material_0_24
f  65//1 66//1 67//1
f  66//1 65//1 68//1
f  69//1 67//1 66//1
f  67//2 70//2 65//2
f  70//3 68//3 65//3
f  66//1 68//1 71//1
f  67//1 69//1 72//1
f  66//2 73//2 69//2
f  70//2 67//2 74//2
f  68//3 70//3 75//3
f  71//1 68//1 76//1
f  77//3 66//3 71//3
f  72//1 69//1 76//1
f  78//4 67//4 72//4
f  73//2 66//2 79//2
f  73//4 76//4 69//4
f  67//4 78//4 74//4
f  78//5 70//5 74//5
f  70//5 78//5 75//5
f  78//6 68//6 75//6
f  72//1 76//1 68//1
f  76//6 77//6 71//6
f  66//3 77//3 79//3
f  68//6 78//6 72//6
f  79//2 80//2 73//2
f  79//5 81//5 73//5
f  76//4 73//4 82//4
f  77//6 76//6 82//6
f  83//3 79//3 77//3
f  84//5 79//5 77//5
f  80//2 79//2 85//2
f  80//4 82//4 73//4
f  81//5 79//5 84//5
f  86//5 73//5 81//5
f  73//5 87//5 82//5
f  82//6 83//6 77//6
f  82//5 87//5 77//5
f  79//3 83//3 85//3
f  84//5 77//5 87//5
f  80//1 88//1 85//1
f  82//4 80//4 89//4
f  90//3 81//3 84//3
f  73//5 86//5 87//5
f  81//2 88//2 86//2
f  83//6 82//6 89//6
f  85//1 90//1 83//1
f  87//6 90//6 84//6
f  88//1 80//1 91//1
f  92//1 85//1 88//1
f  91//1 80//1 89//1
f  81//3 90//3 92//3
f  88//4 87//4 86//4
f  88//2 81//2 92//2
f  83//1 90//1 89//1
f  85//1 92//1 90//1
f  90//6 87//6 91//6
f  87//4 88//4 91//4
f  91//1 89//1 90//1

# Mesh 'mesh7_mesh7-geometry' with 62 faces
g mesh7_mesh7-geometry
usemtl material_1_24
f  67//5 66//5 65//5
f  68//5 65//5 66//5
f  66//5 67//5 69//5
f  65//6 70//6 67//6
f  65//4 68//4 70//4
f  71//5 68//5 66//5
f  72//5 69//5 67//5
f  69//6 73//6 66//6
f  74//6 67//6 70//6
f  75//4 70//4 68//4
f  76//5 68//5 71//5
f  71//4 66//4 77//4
f  76//5 69//5 72//5
f  72//3 67//3 78//3
f  79//6 66//6 73//6
f  69//3 76//3 73//3
f  74//3 78//3 67//3
f  74//1 70//1 78//1
f  75//1 78//1 70//1
f  75//2 68//2 78//2
f  68//5 76//5 72//5
f  71//2 77//2 76//2
f  79//4 77//4 66//4
f  72//2 78//2 68//2
f  73//6 80//6 79//6
f  73//1 81//1 79//1
f  82//3 73//3 76//3
f  82//2 76//2 77//2
f  77//4 79//4 83//4
f  77//1 79//1 84//1
f  85//6 79//6 80//6
f  73//3 82//3 80//3
f  84//1 79//1 81//1
f  81//1 73//1 86//1
f  82//1 87//1 73//1
f  77//2 83//2 82//2
f  77//1 87//1 82//1
f  85//4 83//4 79//4
f  87//1 77//1 84//1
f  85//5 88//5 80//5
f  83//1 80//1 85//1
f  85//5 80//5 83//5
f  89//3 80//3 82//3
f  84//4 81//4 90//4
f  87//1 86//1 73//1
f  86//6 88//6 81//6
f  89//2 82//2 83//2
f  83//5 90//5 85//5
f  84//2 90//2 87//2
f  91//5 80//5 88//5
f  88//5 85//5 92//5
f  80//1 83//1 89//1
f  89//5 83//5 80//5
f  89//5 80//5 91//5
f  92//4 90//4 81//4
f  86//3 87//3 88//3
f  92//6 81//6 88//6
f  89//5 90//5 83//5
f  90//5 92//5 85//5
f  91//2 87//2 90//2
f  91//3 88//3 87//3
f  90//5 89//5 91//5

