# File produced by Open Asset Import Library (http://www.assimp.sf.net)
# (assimp v3.2.202087883)

mtllib model_normalized.mtl

# 16 vertex positions
v -0.395227 0.170227 -0.207491
v -0.412710 -0.232468 0.145874
v -0.395227 -0.232468 -0.207491
v -0.412710 0.170227 0.145874
v -0.409168 0.144360 0.074275
v 0.401214 0.071857 0.086500
v -0.407792 0.071857 0.046475
v 0.399839 0.144360 0.114300
v -0.405716 -0.045868 0.004505
v 0.411534 -0.045868 -0.122096
v 0.403290 -0.045868 0.044530
v -0.397472 -0.045868 -0.162121
v 0.413778 0.170227 -0.167466
v 0.396295 -0.232468 0.185899
v 0.413778 -0.232468 -0.167466
v 0.396295 0.170227 0.185899

# 12 UV coordinates
vt 0.999683 0.975306 0
vt -0 0 0
vt 1 0.000239 0
vt -0.000317 0.975068 0
vt -19.9937 -227.878 0
vt -21 -227 0
vt -19.9937 -227 0
vt -21 -227.878 0
vt 1 -0.126298 0
vt 0 -2 0
vt -0 -0.126299 0
vt 1 -2 0

# 6 vertex normals
vn 0.0446495 0 0.002209
vn -0.0446495 0 -0.002209
vn 0.00117173 0.00910356 -0.0236835
vn -0.00117173 -0.00910356 0.0236835
vn 0 -0.0254 0
vn 0 0.0254 0

# Mesh 'mesh1_mesh1-geometry' with 4 faces
g mesh1_mesh1-geometry
usemtl material_0_1_8
f  1/1/1 2/2/1 3/3/1
f  2/2/1 1/1/1 4/4/1
f  3/3/2 2/2/2 1/1/2
f  4/4/2 1/1/2 2/2/2

# Mesh 'mesh2_mesh2-geometry' with 4 faces
g mesh2_mesh2-geometry
usemtl material_1_2_8
f  5/5/3 6/6/3 7/7/3
f  6/6/3 5/5/3 8/8/3
f  7/7/4 6/6/4 5/5/4
f  8/8/4 5/5/4 6/6/4

# Mesh 'mesh3_mesh3-geometry' with 4 faces
g mesh3_mesh3-geometry
usemtl material_1_2_8
f  9/9/5 10/10/5 11/11/5
f  10/10/5 9/9/5 12/12/5
f  11/11/6 10/10/6 9/9/6
f  12/12/6 9/9/6 10/10/6

# Mesh 'mesh4_mesh4-geometry' with 4 faces
g mesh4_mesh4-geometry
usemtl material_0_1_8
f  13/1/1 14/2/1 15/3/1
f  14/2/1 13/1/1 16/4/1
f  15/3/2 14/2/2 13/1/2
f  16/4/2 13/1/2 14/2/2

