# File produced by Open Asset Import Library (http://www.assimp.sf.net)
# (assimp v3.2.202087883)

mtllib model_normalized.mtl

# 164 vertex positions
v -0.272788 -0.248234 0.186619
v 0.459990 -0.248234 -0.063456
v 0.459990 -0.248234 0.186619
v -0.272788 -0.248234 -0.063456
v -0.272788 -0.236603 -0.063456
v 0.459990 -0.236603 0.186619
v 0.459990 -0.236603 -0.063456
v -0.272788 -0.236603 0.186619
v -0.272788 0.286810 0.186619
v 0.459990 0.286810 0.198251
v 0.459990 0.286810 0.186619
v -0.272788 0.286810 0.198251
v 0.459990 0.217022 0.186619
v -0.272788 0.217022 0.198251
v -0.272788 0.217022 0.186619
v 0.459990 0.217022 0.198251
v -0.255341 -0.224971 -0.080903
v 0.442543 -0.224971 -0.063456
v 0.442543 -0.224971 -0.080903
v -0.255341 -0.224971 -0.063456
v 0.442543 -0.259865 -0.080903
v -0.255341 -0.259865 -0.080903
v -0.255341 -0.259865 -0.063456
v 0.442543 -0.259865 -0.063456
v -0.272788 0.263547 0.177896
v 0.459990 -0.236603 0.177896
v -0.272788 -0.236603 0.177896
v 0.459990 0.263547 0.177896
v 0.459990 0.263547 0.186619
v -0.272788 -0.236603 0.186619
v 0.459990 -0.236603 0.186619
v -0.272788 0.263547 0.186619
v 0.459990 -0.259865 0.198251
v 0.459990 0.286810 -0.063456
v 0.459990 -0.259865 -0.063456
v 0.459990 0.286810 0.198251
v 0.471621 -0.259865 -0.063456
v 0.471621 0.286810 0.198251
v 0.471621 -0.259865 0.198251
v 0.471621 0.286810 -0.063456
v -0.272788 -0.259865 -0.063456
v -0.272788 0.286810 -0.063456
v -0.272788 -0.259865 0.198251
v -0.272788 0.286810 0.198251
v -0.284420 -0.259865 -0.063456
v -0.284420 0.286810 0.198251
v -0.284420 -0.259865 0.198251
v -0.284420 0.286810 -0.063456
v -0.290235 -0.259865 -0.063456
v -0.290235 0.286810 -0.063456
v -0.290235 -0.259865 -0.080903
v -0.255341 0.286810 -0.063456
v -0.255341 0.286810 -0.080903
v -0.290235 0.286810 -0.080903
v 0.477437 0.286810 -0.063456
v 0.477437 -0.259865 -0.063456
v 0.442543 0.286810 -0.063456
v 0.477437 -0.259865 -0.080903
v 0.442543 0.286810 -0.080903
v 0.477437 0.286810 -0.080903
v -0.272788 0.263547 0.186619
v 0.459990 0.263547 -0.063456
v 0.459990 0.263547 0.186619
v -0.272788 0.263547 -0.063456
v -0.272788 0.275179 -0.063456
v 0.459990 0.275179 0.186619
v 0.459990 0.275179 -0.063456
v -0.272788 0.275179 0.186619
v -0.255341 0.286810 -0.080903
v 0.442543 0.286810 -0.063456
v 0.442543 0.286810 -0.080903
v -0.255341 0.286810 -0.063456
v 0.442543 0.251916 -0.080903
v -0.255341 0.251916 -0.080903
v -0.255341 0.251916 -0.063456
v 0.442543 0.251916 -0.063456
v -0.272788 0.048367 0.186619
v 0.459990 0.048367 0.198251
v 0.459990 0.048367 0.186619
v -0.272788 0.048367 0.198251
v 0.459990 -0.021422 0.186619
v -0.272788 -0.021422 0.198251
v -0.272788 -0.021422 0.186619
v 0.459990 -0.021422 0.198251
v 0.163389 0.251916 -0.080903
v 0.349492 -0.224971 -0.080903
v 0.163389 -0.224971 -0.080903
v 0.349492 0.251916 -0.080903
v 0.163389 -0.224971 -0.063456
v 0.349492 0.251916 -0.063456
v 0.163389 0.251916 -0.063456
v 0.349492 -0.224971 -0.063456
v -0.272788 0.022196 -0.063456
v 0.459990 0.022196 0.177896
v 0.459990 0.022196 -0.063456
v -0.272788 0.022196 0.177896
v 0.459990 0.004749 -0.063456
v -0.272788 0.004749 0.177896
v -0.272788 0.004749 -0.063456
v 0.459990 0.004749 0.177896
v -0.272788 -0.190077 0.186619
v 0.459990 -0.190077 0.198251
v 0.459990 -0.190077 0.186619
v -0.272788 -0.190077 0.198251
v 0.459990 -0.259865 0.186619
v -0.272788 -0.259865 0.198251
v -0.272788 -0.259865 0.186619
v -0.285874 -0.255504 -0.080903
v -0.285874 0.282449 -0.098350
v -0.285874 -0.255504 -0.098350
v -0.285874 0.282449 -0.080903
v 0.193921 -0.255504 -0.098350
v 0.193921 0.282449 -0.080903
v 0.193921 0.282449 -0.098350
v 0.193921 -0.255504 -0.080903
v -0.256645 0.078172 -0.126337
v -0.256645 0.078172 -0.132880
v -0.257522 0.078172 -0.129609
v -0.254250 0.078172 -0.123943
v -0.254250 0.078172 -0.135275
v -0.250979 0.078172 -0.123066
v -0.256645 -0.185716 -0.132880
v -0.256645 -0.185716 -0.126337
v -0.257522 -0.185716 -0.129609
v -0.254250 -0.185716 -0.135275
v -0.254250 -0.185716 -0.123943
v -0.250979 0.078172 -0.136152
v -0.250979 -0.185716 -0.123066
v -0.247708 0.078172 -0.123943
v -0.250979 -0.185716 -0.136152
v -0.247708 0.078172 -0.135275
v -0.247708 -0.185716 -0.123943
v -0.245313 0.078172 -0.126337
v -0.247708 -0.185716 -0.135275
v -0.245313 0.078172 -0.132880
v -0.245313 -0.185716 -0.126337
v -0.244437 0.078172 -0.129609
v -0.245313 -0.185716 -0.132880
v -0.244437 -0.185716 -0.129609
v -0.246055 -0.185716 -0.125596
v -0.246055 -0.164470 -0.098350
v -0.246055 -0.185716 -0.098350
v -0.246055 -0.164470 -0.125596
v -0.255903 -0.185716 -0.098350
v -0.247708 -0.164470 -0.123943
v -0.255903 -0.164470 -0.098350
v -0.250979 -0.164470 -0.123066
v -0.254250 -0.164470 -0.123943
v -0.255903 -0.164470 -0.125596
v -0.255903 -0.185716 -0.125596
v -0.255903 0.078172 -0.098350
v -0.255903 0.078172 -0.125596
v -0.246055 0.078172 -0.098350
v -0.255903 0.056926 -0.098350
v -0.255903 0.056926 -0.125596
v -0.246055 0.056926 -0.098350
v -0.254250 0.056926 -0.123943
v -0.246055 0.056926 -0.125596
v -0.246055 0.078172 -0.125596
v -0.250979 0.056926 -0.123066
v -0.247708 0.056926 -0.123943
v 0.250625 -0.190077 0.186619
v 0.250625 -0.126221 0.186619
v 0.459990 -0.126221 0.186619

# 123 UV coordinates
vt -0.514067 -3.80446 0
vt -0.738026 -4.27995 0
vt -0.514067 -4.27995 0
vt -0.738025 -3.80446 0
vt -0.738026 -4.78047 0
vt -0.514067 -4.30497 0
vt -0.738026 -4.30497 0
vt -0.514067 -4.78047 0
vt -0.734277 -0.213443 0
vt -0.744693 -0.807193 0
vt -0.734277 -0.807193 0
vt -0.744693 -0.213443 0
vt -0.807193 -0.838443 0
vt -0.744693 -1.43219 0
vt -0.744693 -0.838443 0
vt -0.807193 -0.213443 0
vt -0.807193 -1.43219 0
vt -0.807193 -0.807193 0
vt -0.81761 -0.807193 0
vt -0.81761 -0.213443 0
vt 0.5625 0 0
vt 0 0.015625 0
vt 0 0 0
vt 0.5625 0.015625 0
vt 0.5625 0.03125 0
vt 0 0.03125 0
vt -0.5625 0.015625 0
vt -0.5625 0 0
vt -1.06615 -3.81697 0
vt -1.0349 -4.26744 0
vt -1.0349 -3.81697 0
vt -1.06615 -4.26744 0
vt -1.23288 -4.66596 0
vt -0.639132 -4.24887 0
vt -1.23288 -4.24887 0
vt -0.639132 -4.66596 0
vt -0.607882 -4.66596 0
vt -0.014132 -4.24887 0
vt -0.607882 -4.24887 0
vt -0.014132 -4.66597 0
vt -1.66005 -3.21073 0
vt -1.89442 -3.77323 0
vt -1.89442 -3.21073 0
vt -1.66005 -3.77323 0
vt -1.89442 -3.20031 0
vt -1.64963 -3.77323 0
vt -1.66005 -3.78364 0
vt -1.66005 -3.20031 0
vt -1.64963 -3.21073 0
vt -1.89442 -3.78364 0
vt -0.234375 0.5625 0
vt -0.234375 0 0
vt 0 0.5625 0
vt -1.41005 -3.32276 0
vt -1.4413 -3.32276 0
vt -1.41005 -3.77323 0
vt -1.41005 -3.30714 0
vt -1.4413 -3.77323 0
vt -1.4413 -3.30714 0
vt -1.4413 -3.78885 0
vt -1.41005 -3.78885 0
vt -0.015625 0 0
vt -0.015625 0.5625 0
vt 0.015625 0.5625 0
vt 0.015625 0 0
vt 0.03125 0 0
vt 0.03125 0.5625 0
vt 0.0625 0.5 0
vt 0.0625 0 0
vt 0 0.5 0
vt -0.015625 0.5 0
vt 0.015625 0.5 0
vt -0.0625 0 0
vt -0.0625 0.5 0
vt -0.52188 -4.30497 0
vt -0.52188 -4.78047 0
vt -0.750539 -4.30497 0
vt -0.509367 -4.78047 0
vt -0.750539 -4.78047 0
vt -0.509367 -4.30497 0
vt -0.52188 -3.80446 0
vt -0.52188 -4.27995 0
vt -0.132897 0 0
vt -0.148522 0.492188 0
vt -0.148522 0 0
vt -0.132897 0.492188 0
vt 0.796408 0.492188 0
vt 0.456564 0 0
vt 0.796408 0 0
vt -0.456564 -0.148522 0
vt -0.796408 -0.132897 0
vt -0.796408 -0.148522 0
vt -0.796408 0 0
vt -0.456564 0.492188 0
vt -0.796408 0.492188 0
vt 0.456564 -0.132897 0
vt 0.796408 -0.148522 0
vt 0.796408 -0.132897 0
vt 0.456564 0.492188 0
vt -0.456564 -0.132897 0
vt -0.456564 0 0
vt 0.456564 -0.148522 0
vt 0.132897 0.492188 0
vt 0.148522 0 0
vt 0.148522 0.492188 0
vt 0.132897 0 0
vt -0.351314 9.47189 0
vt -0.332661 -0.625198 0
vt -0.329728 9.47188 0
vt -0.354248 -0.625191 0
vt -0.413223 -0.625174 0
vt -0.410289 9.4719 0
vt -0.490851 9.47193 0
vt -0.493785 -0.625151 0
vt -0.571413 9.47195 0
vt -0.574347 -0.625127 0
vt -0.630388 9.47197 0
vt -0.633322 -0.62511 0
vt -0.654909 -0.625104 0
vt -0.651975 9.47198 0
vt 1 0 0
vt 0 1 0
vt 1 1 0

# 24 vertex normals
vn 0 -0.0254 0
vn 0 0.0254 0
vn 0 0 -0.0254
vn 0 0 0.0254
vn -0.0254 0 0
vn 0 -0.0221074 0
vn 0 0.0221074 0
vn 0.0254 -0 -0
vn -0.0677333 0 0
vn 0.0677333 0 0
vn -0.0321149 0 0
vn 0 -0.0248624 0
vn 0 0.0248624 0
vn 0.0321149 0 0
vn 0 0.0189257 0
vn 0 -0.0189257 0
vn 0.021997 0 0.0127
vn 0.021997 0 -0.0127
vn 0.0127 0 -0.021997
vn 0.0127 0 0.021997
vn -0.0127 0 -0.021997
vn -0.0127 -0 0.021997
vn -0.021997 0 -0.0127
vn -0.021997 -0 0.0127

# Mesh 'mesh1_mesh1-geometry' with 2 faces
g mesh1_mesh1-geometry
usemtl material_0_4_8
f  1/1/1 2/2/1 3/3/1
f  2/2/1 1/1/1 4/4/1

# Mesh 'mesh1_mesh1-geometry' with 2 faces
g mesh1_mesh1-geometry
usemtl material_1_24
f  3//2 2//2 1//2
f  4//2 1//2 2//2

# Mesh 'mesh2_mesh2-geometry' with 2 faces
g mesh2_mesh2-geometry
usemtl material_0_4_8
f  5/5/2 6/6/2 7/7/2
f  6/6/2 5/5/2 8/8/2

# Mesh 'mesh2_mesh2-geometry' with 2 faces
g mesh2_mesh2-geometry
usemtl material_1_24
f  7//1 6//1 5//1
f  8//1 5//1 6//1

# Mesh 'mesh3_mesh3-geometry' with 8 faces
g mesh3_mesh3-geometry
usemtl material_0_4_8
f  9/9/2 10/10/2 11/11/2
f  10/10/2 9/9/2 12/12/2
f  13/13/3 9/14/3 11/15/3
f  14/16/4 10/10/4 12/12/4
f  9/14/3 13/13/3 15/17/3
f  10/10/4 14/16/4 16/18/4
f  13/19/1 14/16/1 15/20/1
f  14/16/1 13/19/1 16/18/1

# Mesh 'mesh3_mesh3-geometry' with 8 faces
g mesh3_mesh3-geometry
usemtl material_1_24
f  11//1 10//1 9//1
f  12//1 9//1 10//1
f  11//4 9//4 13//4
f  12//3 10//3 14//3
f  15//4 13//4 9//4
f  16//3 14//3 10//3
f  15//2 14//2 13//2
f  16//2 13//2 14//2

# Mesh 'mesh4_mesh4-geometry' with 6 faces
g mesh4_mesh4-geometry
usemtl material_2_3_8
f  17/21/2 18/22/2 19/23/2
f  18/22/2 17/21/2 20/24/2
f  21/23/3 17/25/3 19/26/3
f  17/25/3 21/23/3 22/21/3
f  21/23/1 23/27/1 22/28/1
f  23/27/1 21/23/1 24/22/1

# Mesh 'mesh4_mesh4-geometry' with 8 faces
g mesh4_mesh4-geometry
usemtl material_1_24
f  19/23/1 18/23/1 17/23/1
f  20/23/1 17/23/1 18/23/1
f  19/23/4 17/23/4 21/23/4
f  20/23/3 18/23/3 23/23/3
f  22/23/4 21/23/4 17/23/4
f  24/23/3 23/23/3 18/23/3
f  22/23/2 23/23/2 21/23/2
f  24/23/2 21/23/2 23/23/2

# Mesh 'mesh4_mesh4-geometry' with 2 faces
g mesh4_mesh4-geometry
usemtl material_0_4_8
f  23/29/4 18/30/4 20/31/4
f  18/30/4 23/29/4 24/32/4

# Mesh 'mesh5_mesh5-geometry' with 2 faces
g mesh5_mesh5-geometry
usemtl material_0_4_8
f  25/33/3 26/34/3 27/35/3
f  26/34/3 25/33/3 28/36/3

# Mesh 'mesh5_mesh5-geometry' with 2 faces
g mesh5_mesh5-geometry
usemtl material_1_24
f  27//4 26//4 25//4
f  28//4 25//4 26//4

# Mesh 'mesh6_mesh6-geometry' with 2 faces
g mesh6_mesh6-geometry
usemtl material_0_4_8
f  29/37/4 30/38/4 31/39/4
f  30/38/4 29/37/4 32/40/4

# Mesh 'mesh6_mesh6-geometry' with 2 faces
g mesh6_mesh6-geometry
usemtl material_1_24
f  31//3 30//3 29//3
f  32//3 29//3 30//3

# Mesh 'mesh7_mesh7-geometry' with 8 faces
g mesh7_mesh7-geometry
usemtl material_0_4_8
f  33/41/5 34/42/5 35/43/5
f  34/42/5 33/41/5 36/44/5
f  37/45/6 33/41/6 35/43/6
f  33/41/4 38/46/4 36/44/4
f  38/47/7 34/42/7 36/44/7
f  33/41/6 37/45/6 39/48/6
f  38/46/4 33/41/4 39/49/4
f  34/42/7 38/47/7 40/50/7

# Mesh 'mesh7_mesh7-geometry' with 10 faces
g mesh7_mesh7-geometry
usemtl material_1_24
f  35/23/8 34/23/8 33/23/8
f  36/23/8 33/23/8 34/23/8
f  35/23/7 33/23/7 37/23/7
f  36/23/3 38/23/3 33/23/3
f  36/23/6 34/23/6 38/23/6
f  39/23/7 37/23/7 33/23/7
f  39/23/3 33/23/3 38/23/3
f  40/23/6 38/23/6 34/23/6
f  39/23/5 38/23/5 37/23/5
f  40/23/5 37/23/5 38/23/5

# Mesh 'mesh7_mesh7-geometry' with 2 faces
g mesh7_mesh7-geometry
usemtl material_2_3_8
f  37/23/8 38/51/8 39/52/8
f  38/51/8 37/23/8 40/53/8

# Mesh 'mesh8_mesh8-geometry' with 8 faces
g mesh8_mesh8-geometry
usemtl material_0_4_8
f  41/43/8 42/42/8 43/41/8
f  44/44/8 43/41/8 42/42/8
f  41/43/6 43/41/6 45/45/6
f  44/44/4 46/46/4 43/41/4
f  44/44/7 42/42/7 46/47/7
f  47/48/6 45/45/6 43/41/6
f  47/49/4 43/41/4 46/46/4
f  48/50/7 46/47/7 42/42/7

# Mesh 'mesh8_mesh8-geometry' with 10 faces
g mesh8_mesh8-geometry
usemtl material_1_24
f  43/23/5 42/23/5 41/23/5
f  42/23/5 43/23/5 44/23/5
f  45/23/7 43/23/7 41/23/7
f  43/23/3 46/23/3 44/23/3
f  46/23/6 42/23/6 44/23/6
f  43/23/7 45/23/7 47/23/7
f  46/23/3 43/23/3 47/23/3
f  42/23/6 46/23/6 48/23/6
f  45/23/8 46/23/8 47/23/8
f  46/23/8 45/23/8 48/23/8

# Mesh 'mesh8_mesh8-geometry' with 2 faces
g mesh8_mesh8-geometry
usemtl material_2_3_8
f  47/52/5 46/51/5 45/23/5
f  48/53/5 45/23/5 46/51/5

# Mesh 'mesh9_mesh9-geometry' with 6 faces
g mesh9_mesh9-geometry
usemtl material_0_4_8
f  49/54/4 23/55/4 50/56/4
f  49/54/6 51/57/6 23/55/6
f  52/58/4 50/56/4 23/55/4
f  22/59/6 23/55/6 51/57/6
f  52/58/7 53/60/7 50/56/7
f  54/61/7 50/56/7 53/60/7

# Mesh 'mesh9_mesh9-geometry' with 12 faces
g mesh9_mesh9-geometry
usemtl material_1_24
f  50/23/3 23/23/3 49/23/3
f  23/23/7 51/23/7 49/23/7
f  23/23/3 50/23/3 52/23/3
f  51/23/8 50/23/8 49/23/8
f  51/23/7 23/23/7 22/23/7
f  50/23/6 53/23/6 52/23/6
f  53/23/5 23/23/5 52/23/5
f  50/23/8 51/23/8 54/23/8
f  23/23/5 53/23/5 22/23/5
f  53/23/4 51/23/4 22/23/4
f  53/23/6 50/23/6 54/23/6
f  51/23/4 53/23/4 54/23/4

# Mesh 'mesh9_mesh9-geometry' with 6 faces
g mesh9_mesh9-geometry
usemtl material_2_3_8
f  49/62/5 50/63/5 51/23/5
f  52/64/8 23/65/8 53/53/8
f  54/53/5 51/23/5 50/63/5
f  22/23/8 53/53/8 23/65/8
f  22/66/3 51/23/3 53/67/3
f  54/53/3 53/67/3 51/23/3

# Mesh 'mesh10_mesh10-geometry' with 6 faces
g mesh10_mesh10-geometry
usemtl material_0_4_8
f  55/56/4 24/55/4 56/54/4
f  24/55/4 55/56/4 57/58/4
f  24/55/6 58/57/6 56/54/6
f  55/56/7 59/60/7 57/58/7
f  58/57/6 24/55/6 21/59/6
f  59/60/7 55/56/7 60/61/7

# Mesh 'mesh10_mesh10-geometry' with 12 faces
g mesh10_mesh10-geometry
usemtl material_1_24
f  56/23/3 24/23/3 55/23/3
f  57/23/3 55/23/3 24/23/3
f  56/23/7 58/23/7 24/23/7
f  56/23/5 55/23/5 58/23/5
f  57/23/6 59/23/6 55/23/6
f  57/23/8 24/23/8 59/23/8
f  21/23/7 24/23/7 58/23/7
f  60/23/5 58/23/5 55/23/5
f  60/23/6 55/23/6 59/23/6
f  21/23/8 59/23/8 24/23/8
f  21/23/4 58/23/4 59/23/4
f  60/23/4 59/23/4 58/23/4

# Mesh 'mesh10_mesh10-geometry' with 6 faces
g mesh10_mesh10-geometry
usemtl material_2_3_8
f  58/23/8 55/63/8 56/62/8
f  59/53/5 24/65/5 57/64/5
f  55/63/8 58/23/8 60/53/8
f  24/65/5 59/53/5 21/23/5
f  59/67/3 58/23/3 21/66/3
f  58/23/3 59/67/3 60/53/3

# Mesh 'mesh1_mesh1-geometry' with 2 faces
g mesh1_mesh1-geometry
usemtl material_0_4_8
f  61/1/1 62/2/1 63/3/1
f  62/2/1 61/1/1 64/4/1

# Mesh 'mesh1_mesh1-geometry' with 2 faces
g mesh1_mesh1-geometry
usemtl material_1_24
f  63//2 62//2 61//2
f  64//2 61//2 62//2

# Mesh 'mesh2_mesh2-geometry' with 2 faces
g mesh2_mesh2-geometry
usemtl material_0_4_8
f  65/5/2 66/6/2 67/7/2
f  66/6/2 65/5/2 68/8/2

# Mesh 'mesh2_mesh2-geometry' with 2 faces
g mesh2_mesh2-geometry
usemtl material_1_24
f  67//1 66//1 65//1
f  68//1 65//1 66//1

# Mesh 'mesh4_mesh4-geometry' with 6 faces
g mesh4_mesh4-geometry
usemtl material_2_3_8
f  69/21/2 70/22/2 71/23/2
f  70/22/2 69/21/2 72/24/2
f  73/23/3 69/25/3 71/26/3
f  69/25/3 73/23/3 74/21/3
f  73/23/1 75/27/1 74/28/1
f  75/27/1 73/23/1 76/22/1

# Mesh 'mesh4_mesh4-geometry' with 8 faces
g mesh4_mesh4-geometry
usemtl material_1_24
f  71/23/1 70/23/1 69/23/1
f  72/23/1 69/23/1 70/23/1
f  71/23/4 69/23/4 73/23/4
f  72/23/3 70/23/3 75/23/3
f  74/23/4 73/23/4 69/23/4
f  76/23/3 75/23/3 70/23/3
f  74/23/2 75/23/2 73/23/2
f  76/23/2 73/23/2 75/23/2

# Mesh 'mesh4_mesh4-geometry' with 2 faces
g mesh4_mesh4-geometry
usemtl material_0_4_8
f  75/29/4 70/30/4 72/31/4
f  70/30/4 75/29/4 76/32/4

# Mesh 'mesh3_mesh3-geometry' with 8 faces
g mesh3_mesh3-geometry
usemtl material_0_4_8
f  77/9/2 78/10/2 79/11/2
f  78/10/2 77/9/2 80/12/2
f  81/13/3 77/14/3 79/15/3
f  82/16/4 78/10/4 80/12/4
f  77/14/3 81/13/3 83/17/3
f  78/10/4 82/16/4 84/18/4
f  81/19/1 82/16/1 83/20/1
f  82/16/1 81/19/1 84/18/1

# Mesh 'mesh3_mesh3-geometry' with 8 faces
g mesh3_mesh3-geometry
usemtl material_1_24
f  79//1 78//1 77//1
f  80//1 77//1 78//1
f  79//4 77//4 81//4
f  80//3 78//3 82//3
f  83//4 81//4 77//4
f  84//3 82//3 78//3
f  83//2 82//2 81//2
f  84//2 81//2 82//2

# Mesh 'mesh11_mesh11-geometry' with 6 faces
g mesh11_mesh11-geometry
usemtl material_2_3_8
f  85/68/3 86/23/3 87/69/3
f  86/23/3 85/68/3 88/70/3
f  89/65/9 85/70/9 87/23/9
f  90/71/10 86/23/10 88/70/10
f  85/70/9 89/65/9 91/72/9
f  86/23/10 90/71/10 92/62/10

# Mesh 'mesh11_mesh11-geometry' with 8 faces
g mesh11_mesh11-geometry
usemtl material_1_24
f  87/23/4 86/23/4 85/23/4
f  88/23/4 85/23/4 86/23/4
f  87/23/10 85/23/10 89/23/10
f  88/23/9 86/23/9 90/23/9
f  91/23/10 89/23/10 85/23/10
f  92/23/9 90/23/9 86/23/9
f  91/23/3 90/23/3 89/23/3
f  92/23/3 89/23/3 90/23/3

# Mesh 'mesh11_mesh11-geometry' with 2 faces
g mesh11_mesh11-geometry
usemtl material_0_4_8
f  89/73/4 90/70/4 91/74/4
f  90/70/4 89/73/4 92/23/4

# Mesh 'mesh12_mesh12-geometry' with 8 faces
g mesh12_mesh12-geometry
usemtl material_0_4_8
f  93/5/2 94/75/2 95/7/2
f  94/75/2 93/5/2 96/76/2
f  97/77/3 93/5/3 95/7/3
f  98/78/4 94/75/4 96/76/4
f  93/5/3 97/77/3 99/79/3
f  94/75/4 98/78/4 100/80/4
f  97/2/1 98/81/1 99/4/1
f  98/81/1 97/2/1 100/82/1

# Mesh 'mesh12_mesh12-geometry' with 8 faces
g mesh12_mesh12-geometry
usemtl material_1_24
f  95//1 94//1 93//1
f  96//1 93//1 94//1
f  95//4 93//4 97//4
f  96//3 94//3 98//3
f  99//4 97//4 93//4
f  100//3 98//3 94//3
f  99//2 98//2 97//2
f  100//2 97//2 98//2

# Mesh 'mesh3_mesh3-geometry' with 8 faces
g mesh3_mesh3-geometry
usemtl material_0_4_8
f  101/9/2 102/10/2 103/11/2
f  102/10/2 101/9/2 104/12/2
f  105/13/3 101/14/3 103/15/3
f  106/16/4 102/10/4 104/12/4
f  101/14/3 105/13/3 107/17/3
f  102/10/4 106/16/4 33/18/4
f  105/19/1 106/16/1 107/20/1
f  106/16/1 105/19/1 33/18/1

# Mesh 'mesh3_mesh3-geometry' with 8 faces
g mesh3_mesh3-geometry
usemtl material_1_24
f  103//1 102//1 101//1
f  104//1 101//1 102//1
f  103//4 101//4 105//4
f  104//3 102//3 106//3
f  107//4 105//4 101//4
f  33//3 106//3 102//3
f  107//2 106//2 105//2
f  33//2 105//2 106//2

# Mesh 'mesh13_mesh13-geometry' with 12 faces
g mesh13_mesh13-geometry
usemtl material_2_3_8
f  108/83/11 109/84/11 110/85/11
f  109/84/11 108/83/11 111/86/11
f  109/87/3 112/88/3 110/89/3
f  112/90/12 108/91/12 110/92/12
f  108/93/4 113/94/4 111/95/4
f  113/96/13 109/97/13 111/98/13
f  112/88/3 109/87/3 114/99/3
f  108/91/12 112/90/12 115/100/12
f  113/94/4 108/93/4 115/101/4
f  109/97/13 113/96/13 114/102/13
f  113/103/14 112/104/14 114/105/14
f  112/104/14 113/103/14 115/106/14

# Mesh 'mesh13_mesh13-geometry' with 12 faces
g mesh13_mesh13-geometry
usemtl material_1_24
f  110//14 109//14 108//14
f  111//14 108//14 109//14
f  110//4 112//4 109//4
f  110//13 108//13 112//13
f  111//3 113//3 108//3
f  111//12 109//12 113//12
f  114//4 109//4 112//4
f  115//13 112//13 108//13
f  115//3 108//3 113//3
f  114//12 113//12 109//12
f  114//11 112//11 113//11
f  115//11 113//11 112//11

# Mesh 'mesh14_mesh14-geometry' with 20 faces
g mesh14_mesh14-geometry
usemtl material_3_24
f  116/23/15 117/23/15 118/23/15
f  117/23/15 116/23/15 119/23/15
f  117/23/15 119/23/15 120/23/15
f  120/23/15 119/23/15 121/23/15
f  122/23/16 123/23/16 124/23/16
f  123/23/16 125/23/16 126/23/16
f  120/23/15 121/23/15 127/23/15
f  123/23/16 122/23/16 125/23/16
f  126/23/16 125/23/16 128/23/16
f  127/23/15 121/23/15 129/23/15
f  128/23/16 125/23/16 130/23/16
f  127/23/15 129/23/15 131/23/15
f  128/23/16 130/23/16 132/23/16
f  131/23/15 129/23/15 133/23/15
f  132/23/16 130/23/16 134/23/16
f  131/23/15 133/23/15 135/23/15
f  132/23/16 134/23/16 136/23/16
f  135/23/15 133/23/15 137/23/15
f  136/23/16 134/23/16 138/23/16
f  136/23/16 138/23/16 139/23/16

# Mesh 'mesh14_mesh14-geometry' with 44 faces
g mesh14_mesh14-geometry
usemtl material_1_24
f  118/23/16 117/23/16 116/23/16
f  119/23/16 116/23/16 117/23/16
f  118/23/8 124/23/8 117/23/17
f  116/23/18 123/23/18 118/23/8
f  119/23/19 126/23/19 116/23/18
f  120/23/16 119/23/16 117/23/16
f  122/23/17 117/23/17 124/23/8
f  124/23/8 118/23/8 123/23/18
f  123/23/18 116/23/18 126/23/19
f  119/23/19 121/23/3 126/23/19
f  121/23/16 119/23/16 120/23/16
f  120/23/20 117/23/17 125/23/20
f  122/23/17 125/23/20 117/23/17
f  124/23/15 123/23/15 122/23/15
f  126/23/15 125/23/15 123/23/15
f  128/23/3 126/23/19 121/23/3
f  127/23/16 121/23/16 120/23/16
f  125/23/20 130/23/4 120/23/20
f  125/23/15 122/23/15 123/23/15
f  128/23/15 125/23/15 126/23/15
f  121/23/3 129/23/21 128/23/3
f  129/23/16 121/23/16 127/23/16
f  127/23/4 120/23/20 130/23/4
f  130/23/15 125/23/15 128/23/15
f  132/23/21 128/23/3 129/23/21
f  131/23/16 129/23/16 127/23/16
f  130/23/4 134/23/22 127/23/4
f  132/23/15 130/23/15 128/23/15
f  129/23/21 133/23/23 132/23/21
f  133/23/16 129/23/16 131/23/16
f  131/23/22 127/23/4 134/23/22
f  134/23/15 130/23/15 132/23/15
f  136/23/23 132/23/21 133/23/23
f  135/23/16 133/23/16 131/23/16
f  131/23/22 134/23/22 135/23/24
f  136/23/15 134/23/15 132/23/15
f  136/23/23 133/23/23 139/23/5
f  137/23/16 133/23/16 135/23/16
f  138/23/24 135/23/24 134/23/22
f  138/23/15 134/23/15 136/23/15
f  137/23/5 139/23/5 133/23/23
f  139/23/15 138/23/15 136/23/15
f  135/23/24 138/23/24 137/23/5
f  139/23/5 137/23/5 138/23/24

# Mesh 'mesh14_mesh14-geometry' with 24 faces
g mesh14_mesh14-geometry
usemtl material_4_2_8
f  117/107/23 124/108/5 118/109/5
f  118/109/5 123/110/24 116/107/24
f  116/107/24 126/111/22 119/112/22
f  124/108/5 117/107/23 122/110/23
f  123/110/24 118/109/5 124/108/5
f  126/111/22 116/107/24 123/110/24
f  126/111/22 121/113/4 119/112/22
f  125/111/21 117/107/23 120/112/21
f  117/107/23 125/111/21 122/110/23
f  121/113/4 126/111/22 128/114/4
f  120/112/21 130/114/3 125/111/21
f  128/114/4 129/115/20 121/113/4
f  130/114/3 120/112/21 127/113/3
f  129/115/20 128/114/4 132/116/20
f  127/113/3 134/116/19 130/114/3
f  132/116/20 133/117/17 129/115/20
f  134/116/19 127/113/3 131/115/19
f  133/117/17 132/116/20 136/118/17
f  135/117/18 134/116/19 131/115/19
f  139/119/8 133/117/17 136/118/17
f  134/116/19 135/117/18 138/118/18
f  133/117/17 139/119/8 137/120/8
f  137/120/8 138/118/18 135/117/18
f  138/118/18 137/120/8 139/119/8

# Mesh 'mesh15_mesh15-geometry' with 16 faces
g mesh15_mesh15-geometry
usemtl material_3_24
f  140//8 141//8 142//8
f  141//8 140//8 143//8
f  141//4 144//4 142//4
f  142//1 132//1 140//1
f  145//2 141//2 143//2
f  144//4 141//4 146//4
f  144//1 126//1 142//1
f  142//1 128//1 132//1
f  147//2 141//2 145//2
f  148//2 146//2 141//2
f  149//5 144//5 146//5
f  126//1 144//1 150//1
f  142//1 126//1 128//1
f  148//2 141//2 147//2
f  146//2 148//2 149//2
f  144//5 149//5 150//5

# Mesh 'mesh15_mesh15-geometry' with 16 faces
g mesh15_mesh15-geometry
usemtl material_1_24
f  142//5 141//5 140//5
f  143//5 140//5 141//5
f  142//3 144//3 141//3
f  140//2 132//2 142//2
f  143//1 141//1 145//1
f  146//3 141//3 144//3
f  142//2 126//2 144//2
f  132//2 128//2 142//2
f  145//1 141//1 147//1
f  141//1 146//1 148//1
f  146//8 144//8 149//8
f  150//2 144//2 126//2
f  128//2 126//2 142//2
f  147//1 141//1 148//1
f  149//1 148//1 146//1
f  150//8 149//8 144//8

# Mesh 'mesh16_mesh16-geometry' with 16 faces
g mesh16_mesh16-geometry
usemtl material_3_24
f  151//2 119//2 152//2
f  119//2 151//2 153//2
f  152//5 154//5 151//5
f  154//4 153//4 151//4
f  119//2 153//2 121//2
f  154//5 152//5 155//5
f  153//4 154//4 156//4
f  121//2 153//2 129//2
f  157//1 154//1 155//1
f  154//1 157//1 156//1
f  158//8 153//8 156//8
f  129//2 153//2 159//2
f  156//1 157//1 160//1
f  153//8 158//8 159//8
f  156//1 161//1 158//1
f  156//1 160//1 161//1

# Mesh 'mesh16_mesh16-geometry' with 16 faces
g mesh16_mesh16-geometry
usemtl material_1_24
f  152//1 119//1 151//1
f  153//1 151//1 119//1
f  151//8 154//8 152//8
f  151//3 153//3 154//3
f  121//1 153//1 119//1
f  155//8 152//8 154//8
f  156//3 154//3 153//3
f  129//1 153//1 121//1
f  155//2 154//2 157//2
f  156//2 157//2 154//2
f  156//5 153//5 158//5
f  159//1 153//1 129//1
f  160//2 157//2 156//2
f  159//5 158//5 153//5
f  158//2 161//2 156//2
f  161//2 160//2 156//2

# Mesh 'mesh17_mesh17-geometry' with 4 faces
g mesh17_mesh17-geometry
usemtl material_1_1_0
f  162/23/4 103/121/4 163/122/4
f  162/23/3 163/122/3 103/121/3
f  164/123/4 163/122/4 103/121/4
f  164/123/3 103/121/3 163/122/3

