# File produced by Open Asset Import Library (http://www.assimp.sf.net)
# (assimp v3.2.202087883)

mtllib model_normalized.mtl

# 122 vertex positions
v 0.443221 0.084693 0.007657
v 0.441786 0.084693 0.047848
v 0.443221 0.084693 0.047848
v 0.441786 0.084693 0.007657
v 0.443221 -0.090177 0.047848
v 0.387571 -0.090177 0.007657
v 0.370005 0.107065 0.047848
v 0.443221 -0.229110 0.047848
v 0.443221 -0.090177 0.007657
v 0.387302 -0.046460 0.007657
v 0.370005 0.107065 0.007657
v 0.386494 0.084693 0.047848
v 0.387750 -0.229110 0.047848
v 0.443221 -0.163147 0.012466
v 0.443221 -0.090177 -0.201427
v 0.387436 -0.068319 0.007657
v 0.386898 0.019116 0.007657
v 0.386494 0.084693 0.007657
v 0.297105 0.125462 0.047848
v 0.386898 0.019116 0.047848
v 0.322900 0.099407 0.047848
v 0.387750 -0.163147 0.047848
v 0.387750 -0.229110 0.012466
v 0.443221 -0.229110 0.012466
v -0.388843 -0.090177 0.007657
v 0.387436 -0.068319 0.047848
v -0.388707 -0.073097 0.007657
v 0.387167 -0.024601 0.007657
v 0.322900 0.099407 0.007657
v 0.297105 0.125462 0.007657
v 0.387302 -0.046460 0.047848
v 0.386763 0.040975 0.047848
v 0.387571 -0.090177 0.047848
v 0.443221 -0.163147 -0.161690
v -0.444314 -0.090177 0.007657
v -0.388843 -0.090177 0.047848
v -0.388843 -0.051238 0.007657
v 0.387167 -0.024601 0.047848
v 0.387032 -0.002742 0.007657
v 0.386763 0.040975 0.007657
v 0.223304 0.139829 0.047848
v 0.258752 0.111477 0.047848
v 0.386629 0.062834 0.047848
v -0.388707 0.014342 0.047848
v 0.258752 0.111477 0.007657
v -0.388843 -0.163147 0.047848
v 0.387750 -0.163147 0.012466
v 0.443221 -0.229110 -0.161690
v 0.387750 -0.163147 -0.161690
v -0.444314 -0.090177 -0.201427
v -0.388843 0.036200 0.007657
v -0.388707 -0.073097 0.047848
v -0.388843 -0.051238 0.047848
v -0.388707 -0.029378 0.007657
v -0.388707 0.014342 0.007657
v 0.386629 0.062834 0.007657
v -0.388843 0.079919 0.047848
v 0.223304 0.139829 0.007657
v 0.387032 -0.002742 0.047848
v -0.388707 0.058061 0.047848
v -0.388843 0.036200 0.047848
v -0.388843 -0.163147 0.010224
v 0.443221 -0.229110 -0.201427
v 0.387750 -0.163147 -0.201427
v -0.444314 -0.090177 0.047848
v -0.388843 -0.007519 0.007657
v -0.388843 0.079919 0.007657
v -0.388707 -0.029378 0.047848
v -0.388707 0.058061 0.007657
v 0.148826 0.150122 0.047848
v 0.194161 0.120890 0.047848
v 0.194161 0.120890 0.007657
v -0.388843 -0.229110 0.047848
v 0.387750 -0.229110 -0.201427
v 0.387750 -0.229110 -0.161690
v -0.388843 -0.163147 -0.201427
v -0.444314 -0.163147 -0.168224
v -0.444314 0.084693 0.047848
v -0.388843 -0.007519 0.047848
v -0.444314 0.084693 0.007657
v -0.388843 0.084693 0.007657
v 0.148826 0.150122 0.007657
v -0.388843 -0.229110 0.010224
v -0.388843 -0.163147 -0.168224
v -0.444314 -0.229110 -0.201427
v -0.444314 -0.163147 0.010224
v -0.444314 -0.229110 0.047848
v -0.388843 0.084693 0.047848
v 0.073895 0.156309 0.047848
v 0.129236 0.127623 0.047848
v 0.129236 0.127623 0.007657
v -0.444314 -0.229110 0.010224
v -0.388843 -0.229110 -0.168224
v -0.388843 -0.229110 -0.201427
v -0.444314 -0.229110 -0.168224
v -0.372532 0.107065 0.007657
v -0.325247 0.099407 0.047848
v 0.073895 0.156309 0.007657
v -0.372532 0.107065 0.047848
v -0.325247 0.099407 0.007657
v -0.001263 0.158374 0.047848
v 0.064085 0.131668 0.047848
v 0.064085 0.131668 0.007657
v -0.299632 0.125462 0.007657
v -0.261099 0.111477 0.047848
v -0.299632 0.125462 0.047848
v -0.001263 0.158374 0.007657
v -0.261099 0.111477 0.007657
v -0.076423 0.156309 0.047848
v -0.001175 0.133018 0.047848
v -0.001175 0.133018 0.007657
v -0.225831 0.139829 0.007657
v -0.196509 0.120890 0.047848
v -0.225831 0.139829 0.047848
v -0.076423 0.156309 0.007657
v -0.066435 0.131668 0.047848
v -0.196509 0.120890 0.007657
v -0.066435 0.131668 0.007657
v -0.151351 0.150122 0.047848
v -0.131583 0.127623 0.047848
v -0.151351 0.150122 0.007657
v -0.131583 0.127623 0.007657

# 0 UV coordinates

# 58 vertex normals
vn 0 0.0254 0
vn -0 -0.0254 0
vn 0 0 -0.0254
vn -0.0254 0 0
vn 0 -0 0.0254
vn -0.0075579 -0.0242495 0
vn -0.00688909 -0.0244479 0
vn -0.00553636 -0.0247893 0
vn 0.0253995 0.000156362 0
vn 0.00521259 0.0248594 0
vn 0.00572526 0.0247463 0
vn 0.0254 -0 0
vn -0.000156362 0.0253995 0
vn -0.00416695 -0.0250559 0
vn 0.00418079 0.0250536 0
vn -0.0253995 -0.000156362 0
vn 0.000156362 -0.0253995 0
vn -0.00278498 -0.0252469 0
vn 0.00314188 0.0252049 0
vn -0.00139459 -0.0253617 0
vn 0.00209756 0.0253132 0
vn 0.0075579 -0.0242495 0
vn 0.00688909 -0.0244479 0
vn -0.00572526 0.0247463 0
vn -0.00521259 0.0248594 0
vn 0.00104968 0.0253783 0
vn 0.00553636 -0.0247893 0
vn -0.00418079 0.0250536 0
vn 0.00139459 -0.0253617 0
vn 0.00416695 -0.0250559 0
vn -0.00314188 0.0252049 0
vn 0.00278498 -0.0252469 0
vn -0.00104968 0.0253783 0
vn -0.00209756 0.0253132 0
vn 0.0075579 0.0242495 0
vn 0.00688909 0.0244479 0
vn 0.00553636 0.0247893 0
vn -0.00521259 -0.0248594 0
vn -0.00572526 -0.0247463 0
vn 0.00416695 0.0250559 0
vn -0.00418079 -0.0250536 0
vn 0.00278498 0.0252469 0
vn -0.00314188 -0.0252049 0
vn 0.00139459 0.0253617 0
vn -0.00209756 -0.0253132 0
vn -0.0075579 0.0242495 0
vn -0.00688909 0.0244479 0
vn 0.00572526 -0.0247463 -0
vn 0.00521259 -0.0248594 -0
vn -0.00104968 -0.0253783 0
vn -0.00553636 0.0247893 0
vn 0.00418079 -0.0250536 -0
vn -0.00139459 0.0253617 0
vn -0.00416695 0.0250559 0
vn 0.00314188 -0.0252049 -0
vn -0.00278498 0.0252469 0
vn 0.00104968 -0.0253783 -0
vn 0.00209756 -0.0253132 -0

# Mesh 'mesh1_mesh1-geometry' with 272 faces
g mesh1_mesh1-geometry
usemtl material_0_24
f  1//1 2//1 3//1
f  2//1 1//1 4//1
f  3//2 2//2 1//2
f  4//2 1//2 2//2
f  3//3 5//3 2//3
f  3//4 1//4 5//4
f  4//5 6//5 1//5
f  2//6 7//7 4//6
f  8//3 2//3 5//3
f  9//4 5//4 1//4
f  9//5 1//5 6//5
f  10//5 6//5 4//5
f  11//7 4//6 7//7
f  7//3 2//3 12//3
f  13//3 2//3 8//3
f  5//4 14//4 8//4
f  9//4 15//4 5//4
f  9//2 6//2 15//2
f  16//5 6//5 10//5
f  17//5 10//5 4//5
f  11//5 18//5 4//5
f  7//7 19//8 11//7
f  12//3 2//3 20//3
f  21//3 7//3 12//3
f  22//3 2//3 13//3
f  13//1 8//1 23//1
f  24//4 8//4 14//4
f  15//4 14//4 5//4
f  25//2 15//2 6//2
f  16//9 26//9 6//9
f  16//5 10//5 27//5
f  28//5 10//5 17//5
f  18//5 17//5 4//5
f  29//5 18//5 11//5
f  30//8 11//7 19//8
f  19//3 7//3 21//3
f  20//3 2//3 31//3
f  32//3 12//3 20//3
f  21//10 12//11 29//10
f  22//3 33//3 2//3
f  13//12 23//12 22//12
f  24//1 23//1 8//1
f  24//5 14//5 23//5
f  14//4 15//4 34//4
f  35//2 15//2 25//2
f  25//2 6//2 36//2
f  33//9 6//9 26//9
f  16//13 27//13 26//13
f  37//5 27//5 10//5
f  28//9 38//9 10//9
f  39//5 28//5 17//5
f  40//5 17//5 18//5
f  18//11 29//10 12//11
f  30//5 29//5 11//5
f  19//8 41//14 30//8
f  42//3 19//3 21//3
f  31//3 2//3 33//3
f  38//3 20//3 31//3
f  43//3 12//3 32//3
f  20//3 44//3 32//3
f  29//10 45//15 21//10
f  22//3 46//3 33//3
f  47//12 22//12 23//12
f  47//5 23//5 14//5
f  34//4 15//4 48//4
f  34//1 49//1 14//1
f  50//2 15//2 35//2
f  35//5 25//5 51//5
f  33//2 36//2 6//2
f  25//4 36//4 37//4
f  26//3 31//3 33//3
f  52//13 26//13 27//13
f  27//16 53//16 37//16
f  37//9 53//9 27//9
f  37//17 10//17 53//17
f  31//9 10//9 38//9
f  28//13 54//13 38//13
f  28//5 39//5 54//5
f  17//9 20//9 39//9
f  17//5 40//5 55//5
f  56//5 40//5 18//5
f  12//17 57//17 18//17
f  45//5 29//5 30//5
f  58//14 30//8 41//14
f  41//3 19//3 42//3
f  42//15 21//10 45//15
f  59//3 20//3 38//3
f  43//3 60//3 12//3
f  32//9 40//9 43//9
f  61//3 32//3 44//3
f  44//13 20//13 55//13
f  36//3 33//3 46//3
f  46//1 22//1 62//1
f  47//1 62//1 22//1
f  47//1 14//1 49//1
f  63//4 48//4 15//4
f  34//3 48//3 49//3
f  50//5 64//5 15//5
f  35//12 65//12 50//12
f  51//5 25//5 66//5
f  67//5 35//5 51//5
f  53//4 37//4 36//4
f  37//5 66//5 25//5
f  26//3 52//3 31//3
f  53//16 27//16 52//16
f  52//9 27//9 53//9
f  37//4 53//4 66//4
f  31//17 53//17 10//17
f  68//13 38//13 54//13
f  66//5 54//5 39//5
f  59//9 39//9 20//9
f  17//13 55//13 20//13
f  51//5 55//5 40//5
f  56//9 43//9 40//9
f  56//5 18//5 69//5
f  67//17 18//17 57//17
f  57//3 12//3 60//3
f  58//5 45//5 30//5
f  41//14 70//18 58//14
f  71//3 41//3 42//3
f  45//15 72//19 42//15
f  38//3 68//3 59//3
f  60//13 43//13 69//13
f  32//17 61//17 40//17
f  61//16 55//16 44//16
f  44//9 55//9 61//9
f  46//3 61//3 36//3
f  46//4 62//4 73//4
f  49//1 62//1 47//1
f  63//1 74//1 48//1
f  63//5 15//5 74//5
f  75//3 49//3 48//3
f  64//5 74//5 15//5
f  76//5 64//5 50//5
f  65//12 77//12 50//12
f  65//12 35//12 78//12
f  66//4 79//4 51//4
f  35//5 67//5 80//5
f  51//4 61//4 67//4
f  36//3 61//3 53//3
f  53//3 31//3 52//3
f  79//4 66//4 53//4
f  79//16 54//16 68//16
f  68//9 54//9 79//9
f  54//16 79//16 66//16
f  66//9 79//9 54//9
f  66//17 39//17 79//17
f  59//17 79//17 39//17
f  55//16 61//16 51//16
f  51//9 61//9 55//9
f  51//17 40//17 61//17
f  56//13 69//13 43//13
f  67//5 69//5 18//5
f  69//16 57//16 67//16
f  67//9 57//9 69//9
f  81//12 57//12 67//12
f  67//4 57//4 81//4
f  57//4 67//4 61//4
f  57//16 69//16 60//16
f  60//9 69//9 57//9
f  72//5 45//5 58//5
f  82//18 58//14 70//18
f  70//3 41//3 71//3
f  71//19 42//15 72//19
f  79//3 59//3 68//3
f  73//3 61//3 46//3
f  83//4 73//4 62//4
f  84//1 62//1 49//1
f  75//1 48//1 74//1
f  75//12 74//12 49//12
f  64//12 49//12 74//12
f  76//1 84//1 64//1
f  85//5 76//5 50//5
f  50//12 77//12 85//12
f  77//12 65//12 86//12
f  80//12 78//12 35//12
f  65//3 78//3 87//3
f  61//4 51//4 79//4
f  67//5 81//5 80//5
f  79//3 53//3 61//3
f  57//12 81//12 88//12
f  88//4 81//4 57//4
f  57//3 61//3 87//3
f  82//5 72//5 58//5
f  70//18 89//20 82//18
f  90//3 70//3 71//3
f  72//19 91//21 71//19
f  87//3 61//3 73//3
f  83//1 92//1 73//1
f  83//5 62//5 92//5
f  84//1 77//1 62//1
f  64//1 84//1 49//1
f  84//4 76//4 93//4
f  94//5 76//5 85//5
f  95//12 85//12 77//12
f  86//12 65//12 92//12
f  86//1 62//1 77//1
f  80//22 96//23 78//22
f  78//3 57//3 87//3
f  87//12 92//12 65//12
f  80//5 81//5 96//5
f  88//24 97//25 81//24
f  57//3 78//3 88//3
f  91//5 72//5 82//5
f  98//20 82//18 89//20
f  89//3 70//3 90//3
f  90//21 71//19 91//21
f  87//1 73//1 92//1
f  86//5 92//5 62//5
f  84//3 93//3 77//3
f  94//4 93//4 76//4
f  94//1 85//1 93//1
f  95//1 93//1 85//1
f  95//3 77//3 93//3
f  99//23 78//22 96//23
f  81//5 100//5 96//5
f  100//25 81//24 97//25
f  88//3 99//3 97//3
f  78//3 99//3 88//3
f  98//5 91//5 82//5
f  89//20 101//2 98//20
f  102//3 89//3 90//3
f  91//21 103//26 90//21
f  96//23 104//27 99//23
f  96//5 100//5 104//5
f  97//25 105//28 100//25
f  99//3 106//3 97//3
f  103//5 91//5 98//5
f  107//2 98//20 101//2
f  101//3 89//3 102//3
f  102//26 90//21 103//26
f  106//27 99//23 104//27
f  100//5 108//5 104//5
f  108//28 100//25 105//28
f  97//3 106//3 105//3
f  107//5 103//5 98//5
f  101//2 109//29 107//2
f  110//3 101//3 102//3
f  103//26 111//1 102//26
f  104//27 112//30 106//27
f  104//5 108//5 112//5
f  105//28 113//31 108//28
f  106//3 114//3 105//3
f  111//5 103//5 107//5
f  115//29 107//2 109//29
f  109//3 101//3 116//3
f  116//3 101//3 110//3
f  110//1 102//26 111//1
f  114//30 106//27 112//30
f  108//5 117//5 112//5
f  117//31 108//28 113//31
f  105//3 114//3 113//3
f  118//5 111//5 107//5
f  115//5 118//5 107//5
f  109//29 119//32 115//29
f  120//3 109//3 116//3
f  116//33 110//1 118//33
f  111//1 118//33 110//1
f  112//30 121//32 114//30
f  112//5 117//5 121//5
f  113//31 120//34 117//31
f  114//3 119//3 113//3
f  122//5 118//5 115//5
f  121//32 115//29 119//32
f  119//3 109//3 120//3
f  120//34 116//33 122//34
f  118//33 122//34 116//33
f  119//32 114//30 121//32
f  117//5 122//5 121//5
f  122//34 117//31 120//34
f  113//3 119//3 120//3
f  121//5 122//5 115//5

# Mesh 'mesh1_mesh1-geometry' with 248 faces
g mesh1_mesh1-geometry
usemtl material_1_24
f  2//5 5//5 3//5
f  5//12 1//12 3//12
f  1//3 6//3 4//3
f  4//35 7//36 2//35
f  5//5 2//5 8//5
f  1//12 5//12 9//12
f  6//3 1//3 9//3
f  4//3 6//3 10//3
f  7//36 4//35 11//36
f  12//5 2//5 7//5
f  8//5 2//5 13//5
f  8//12 14//12 5//12
f  5//12 15//12 9//12
f  15//1 6//1 9//1
f  10//3 6//3 16//3
f  4//3 10//3 17//3
f  4//3 18//3 11//3
f  11//36 19//37 7//36
f  20//5 2//5 12//5
f  12//5 7//5 21//5
f  13//5 2//5 22//5
f  23//2 8//2 13//2
f  14//12 8//12 24//12
f  5//12 14//12 15//12
f  6//1 15//1 25//1
f  6//16 26//16 16//16
f  27//3 10//3 16//3
f  17//3 10//3 28//3
f  4//3 17//3 18//3
f  11//3 18//3 29//3
f  19//37 11//36 30//37
f  21//5 7//5 19//5
f  31//5 2//5 20//5
f  20//5 12//5 32//5
f  29//38 12//39 21//38
f  2//5 33//5 22//5
f  22//4 23//4 13//4
f  8//2 23//2 24//2
f  23//3 14//3 24//3
f  34//12 15//12 14//12
f  25//1 15//1 35//1
f  36//1 6//1 25//1
f  26//16 6//16 33//16
f  26//17 27//17 16//17
f  10//3 27//3 37//3
f  10//16 38//16 28//16
f  17//3 28//3 39//3
f  18//3 17//3 40//3
f  12//39 29//38 18//39
f  11//3 29//3 30//3
f  30//37 41//40 19//37
f  21//5 19//5 42//5
f  33//5 2//5 31//5
f  31//5 20//5 38//5
f  32//5 12//5 43//5
f  32//5 44//5 20//5
f  21//38 45//41 29//38
f  33//5 46//5 22//5
f  23//4 22//4 47//4
f  14//3 23//3 47//3
f  48//12 15//12 34//12
f  14//2 49//2 34//2
f  35//1 15//1 50//1
f  51//3 25//3 35//3
f  6//1 36//1 33//1
f  37//12 36//12 25//12
f  33//5 31//5 26//5
f  27//17 26//17 52//17
f  53//13 10//13 37//13
f  38//16 10//16 31//16
f  38//17 54//17 28//17
f  54//3 39//3 28//3
f  39//16 20//16 17//16
f  55//3 40//3 17//3
f  18//3 40//3 56//3
f  18//13 57//13 12//13
f  30//3 29//3 45//3
f  41//40 30//37 58//40
f  42//5 19//5 41//5
f  45//41 21//38 42//41
f  38//5 20//5 59//5
f  12//5 60//5 43//5
f  43//16 40//16 32//16
f  44//5 32//5 61//5
f  55//17 20//17 44//17
f  46//5 33//5 36//5
f  62//2 22//2 46//2
f  22//2 62//2 47//2
f  49//2 14//2 47//2
f  15//12 48//12 63//12
f  49//5 48//5 34//5
f  15//3 64//3 50//3
f  50//4 65//4 35//4
f  66//3 25//3 51//3
f  51//3 35//3 67//3
f  36//12 37//12 53//12
f  25//3 66//3 37//3
f  31//5 52//5 26//5
f  66//12 53//12 37//12
f  10//13 53//13 31//13
f  54//17 38//17 68//17
f  39//3 54//3 66//3
f  20//16 39//16 59//16
f  20//17 55//17 17//17
f  40//3 55//3 51//3
f  40//16 43//16 56//16
f  69//3 18//3 56//3
f  57//13 18//13 67//13
f  60//5 12//5 57//5
f  30//3 45//3 58//3
f  58//40 70//42 41//40
f  42//5 41//5 71//5
f  42//41 72//43 45//41
f  59//5 68//5 38//5
f  69//17 43//17 60//17
f  40//13 61//13 32//13
f  36//5 61//5 46//5
f  73//12 62//12 46//12
f  47//2 62//2 49//2
f  48//2 74//2 63//2
f  74//3 15//3 63//3
f  48//5 49//5 75//5
f  15//3 74//3 64//3
f  50//3 64//3 76//3
f  50//4 77//4 65//4
f  78//4 35//4 65//4
f  51//12 79//12 66//12
f  80//3 67//3 35//3
f  67//12 61//12 51//12
f  53//5 61//5 36//5
f  52//5 31//5 53//5
f  53//12 66//12 79//12
f  79//13 39//13 66//13
f  39//13 79//13 59//13
f  61//13 40//13 51//13
f  43//17 69//17 56//17
f  18//3 69//3 67//3
f  61//12 67//12 57//12
f  58//3 45//3 72//3
f  70//42 58//40 82//42
f  71//5 41//5 70//5
f  72//43 42//41 71//43
f  68//5 59//5 79//5
f  46//5 61//5 73//5
f  62//12 73//12 83//12
f  49//2 62//2 84//2
f  74//2 48//2 75//2
f  49//4 74//4 75//4
f  74//4 49//4 64//4
f  64//2 84//2 76//2
f  50//3 76//3 85//3
f  85//4 77//4 50//4
f  86//4 65//4 77//4
f  35//4 78//4 80//4
f  87//5 78//5 65//5
f  79//12 51//12 61//12
f  80//3 81//3 67//3
f  61//5 53//5 79//5
f  87//5 61//5 57//5
f  58//3 72//3 82//3
f  82//42 89//44 70//42
f  71//5 70//5 90//5
f  71//43 91//45 72//43
f  73//5 61//5 87//5
f  73//2 92//2 83//2
f  92//3 62//3 83//3
f  62//2 77//2 84//2
f  49//2 84//2 64//2
f  93//12 76//12 84//12
f  85//3 76//3 94//3
f  77//4 85//4 95//4
f  92//4 65//4 86//4
f  77//2 62//2 86//2
f  78//46 96//47 80//46
f  87//5 57//5 78//5
f  65//4 92//4 87//4
f  96//3 81//3 80//3
f  81//48 97//49 88//48
f  88//5 78//5 57//5
f  82//3 72//3 91//3
f  89//44 82//42 98//44
f  90//5 70//5 89//5
f  91//45 71//43 90//45
f  92//2 73//2 87//2
f  62//3 92//3 86//3
f  77//5 93//5 84//5
f  76//12 93//12 94//12
f  93//2 85//2 94//2
f  85//2 93//2 95//2
f  93//5 77//5 95//5
f  96//47 78//46 99//47
f  96//3 100//3 81//3
f  97//49 81//48 100//49
f  97//5 99//5 88//5
f  88//5 99//5 78//5
f  82//3 91//3 98//3
f  98//44 101//1 89//44
f  90//5 89//5 102//5
f  90//45 103//50 91//45
f  99//47 104//51 96//47
f  104//3 100//3 96//3
f  100//49 105//52 97//49
f  97//5 106//5 99//5
f  98//3 91//3 103//3
f  101//1 98//44 107//1
f  102//5 89//5 101//5
f  103//50 90//45 102//50
f  104//51 99//47 106//51
f  104//3 108//3 100//3
f  105//52 100//49 108//52
f  105//5 106//5 97//5
f  98//3 103//3 107//3
f  107//1 109//53 101//1
f  102//5 101//5 110//5
f  102//50 111//2 103//50
f  106//51 112//54 104//51
f  112//3 108//3 104//3
f  108//52 113//55 105//52
f  105//5 114//5 106//5
f  107//3 103//3 111//3
f  109//53 107//1 115//53
f  116//5 101//5 109//5
f  110//5 101//5 116//5
f  111//2 102//50 110//2
f  112//54 106//51 114//54
f  112//3 117//3 108//3
f  113//55 108//52 117//55
f  113//5 114//5 105//5
f  107//3 111//3 118//3
f  107//3 118//3 115//3
f  115//53 119//56 109//53
f  116//5 109//5 120//5
f  118//57 110//2 116//57
f  110//2 118//57 111//2
f  114//54 121//56 112//54
f  121//3 117//3 112//3
f  117//55 120//58 113//55
f  113//5 119//5 114//5
f  115//3 118//3 122//3
f  119//56 115//53 121//56
f  120//5 109//5 119//5
f  122//58 116//57 120//58
f  116//57 122//58 118//57
f  121//56 114//54 119//56
f  121//3 122//3 117//3
f  120//58 117//55 122//58
f  120//5 119//5 113//5
f  115//3 122//3 121//3

# Mesh 'mesh2_mesh2-geometry' with 4 faces
g mesh2_mesh2-geometry
usemtl material_0_0
l  1 3
l  1 4
l  2 3
l  4 2

# Mesh 'mesh3_mesh3-geometry' with 3 faces
g mesh3_mesh3-geometry
usemtl material_0_0
l  57 60
l  60 69
l  67 69

# Mesh 'mesh4_mesh4-geometry' with 1 faces
g mesh4_mesh4-geometry
usemtl material_0_0
l  81 88

# Mesh 'mesh5_mesh5-geometry' with 1 faces
g mesh5_mesh5-geometry
usemtl material_0_0
l  27 52

# Mesh 'mesh6_mesh6-geometry' with 1 faces
g mesh6_mesh6-geometry
usemtl material_0_0
l  55 44

