# File produced by Open Asset Import Library (http://www.assimp.sf.net)
# (assimp v3.2.202087883)

mtllib model_normalized.mtl

# 118 vertex positions
v -0.287859 0.119136 0.084837
v -0.287859 -0.155838 0.162173
v -0.287859 -0.155838 0.213731
v -0.287859 -0.018351 0.097726
v -0.276402 -0.155838 0.162173
v -0.276402 0.119136 0.084837
v -0.287859 0.119136 0.033279
v -0.276402 -0.155838 0.213731
v 0.333688 0.119136 0.213731
v -0.276402 0.119136 0.033279
v -0.333688 0.119136 0.213731
v -0.150372 0.119136 0.013229
v -0.150372 0.119136 0.001772
v -0.333688 0.119136 -0.198730
v 0.333688 0.119136 -0.198730
v 0.333688 0.130593 0.213731
v -0.098814 0.119136 0.013229
v -0.333688 0.130593 -0.198730
v -0.333688 0.130593 0.213731
v -0.150372 0.119136 0.007501
v -0.287859 -0.018351 0.001772
v -0.287859 -0.018351 0.013229
v -0.098814 0.119136 0.007501
v -0.098814 0.119136 0.001772
v 0.333688 0.130593 -0.198730
v -0.287859 -0.018351 0.007501
v -0.287859 -0.069909 0.013229
v -0.287859 -0.018351 -0.198730
v -0.287859 -0.069909 0.001772
v -0.287859 -0.069909 0.007501
v -0.287859 -0.018351 -0.044057
v -0.287859 -0.069909 -0.324760
v -0.287859 -0.069909 0.339761
v -0.287859 -0.018351 0.213731
v -0.287859 -0.018351 -0.082725
v -0.287859 -0.018351 0.339761
v -0.287859 -0.018351 0.299660
v -0.287859 -0.018351 -0.129986
v -0.299316 -0.069909 0.339761
v 0.310773 -0.018351 0.351218
v -0.299316 -0.018351 -0.198730
v -0.299316 -0.069909 -0.324760
v -0.299316 -0.018351 0.339761
v 0.287859 -0.018351 0.339761
v -0.299316 -0.018351 0.213731
v -0.299316 -0.018351 -0.324760
v 0.299316 -0.018351 -0.198730
v -0.287859 -0.018351 -0.245991
v -0.287859 -0.018351 -0.324760
v 0.299316 -0.018351 0.339761
v 0.287859 -0.018351 0.213731
v -0.310773 -0.018351 -0.336217
v 0.287859 -0.018351 -0.198730
v 0.310773 -0.006894 -0.198730
v -0.287859 -0.018351 -0.284659
v -0.310773 -0.018351 0.351218
v -0.310773 -0.018351 0.213731
v 0.299316 -0.018351 0.213731
v 0.287859 -0.018351 0.299660
v 0.287859 -0.069909 0.339761
v 0.310773 -0.018351 -0.336217
v -0.310773 -0.018351 -0.198730
v 0.287859 -0.018351 -0.245991
v 0.310773 -0.018351 -0.198730
v 0.310773 -0.006894 0.351218
v 0.310773 -0.018351 0.213731
v 0.299316 -0.069909 -0.324760
v 0.299316 -0.069909 0.339761
v 0.287859 -0.069909 0.013229
v 0.287859 -0.018351 0.097726
v 0.287859 -0.018351 -0.324760
v -0.310773 -0.006894 -0.336217
v 0.287859 -0.018351 -0.284659
v 0.287859 -0.069909 -0.324760
v 0.287859 -0.018351 -0.129986
v 0.299316 -0.018351 -0.324760
v -0.310773 -0.006894 -0.198730
v -0.310773 -0.006894 0.213731
v -0.310773 -0.006894 0.351218
v 0.287859 -0.018351 0.013229
v 0.310773 -0.006894 -0.336217
v 0.287859 -0.018351 -0.082725
v 0.310773 -0.006894 0.213731
v 0.287859 -0.018351 0.007501
v 0.287859 -0.018351 -0.044057
v 0.287859 -0.069909 0.007501
v 0.098814 0.119136 0.013229
v 0.287859 -0.018351 0.001772
v 0.287859 -0.069909 0.001772
v 0.150372 0.119136 0.013229
v 0.150372 0.119136 0.001772
v 0.150372 0.119136 0.007501
v 0.098814 0.119136 0.007501
v 0.098814 0.119136 0.001772
v -0.287859 0.119136 -0.069836
v -0.276402 -0.155838 -0.198730
v -0.287859 -0.155838 -0.198730
v -0.276402 0.119136 -0.069836
v -0.287859 -0.155838 -0.147172
v -0.276402 -0.155838 -0.147172
v -0.287859 0.119136 -0.018278
v -0.276402 0.119136 -0.018278
v 0.276402 0.119136 0.033279
v 0.287859 -0.155838 0.162173
v 0.276402 -0.155838 0.162173
v 0.276402 -0.155838 0.213731
v 0.276402 0.119136 0.084837
v 0.287859 0.119136 0.033279
v 0.287859 0.119136 0.084837
v 0.287859 -0.155838 0.213731
v 0.276402 0.119136 -0.069836
v 0.287859 -0.155838 -0.198730
v 0.276402 -0.155838 -0.198730
v 0.287859 0.119136 -0.069836
v 0.276402 -0.155838 -0.147172
v 0.287859 -0.155838 -0.147172
v 0.276402 0.119136 -0.018278
v 0.287859 0.119136 -0.018278

# 259 UV coordinates
vt -0.1125 0.8 0
vt 0 0 0
vt 0.075 0 0
vt -0.09375 0.4 0
vt -0.066667 0 0
vt -0.05 -0.15 0
vt -0.05 0 0
vt 0.05 -0.063665 0
vt 0.066667 0.819865 0
vt 0.05 0.819865 0
vt -0.1875 0.8 0
vt -0.05 0.441765 0
vt -0.066667 -0.15 0
vt 0.066667 -0.063665 0
vt -0.954154 -0.15 0
vt -0.05 0.225 0
vt -0.066667 0.225 0
vt -0.066667 0.375 0
vt 0.016667 -0.15 0
vt -0.05 0.375 0
vt -0.066667 0.88353 0
vt -0.05 0.88353 0
vt 0.1125 0.8 0
vt -0.075 0 0
vt -0.25 0.433333 0
vt -0.25 0.466667 0
vt 0.1875 0.8 0
vt 0.016667 1.05 0
vt -0.954154 1.05 0
vt 0.954154 0.833333 0
vt -0.016667 0.8 0
vt 0.954154 0.8 0
vt -0.325 0.433333 0
vt 0.075 0.8 0
vt -0.525 0.833333 0
vt -0.525 0.8 0
vt -0.016667 0.833333 0
vt 0.525 0.8 0
vt -0.075 0.833333 0
vt -0.075 0.8 0
vt -0.25 0.45 0
vt -0.233333 0.353553 0
vt -0.216667 0.919239 0
vt -0.233333 0.919239 0
vt -0.225 0.919239 0
vt 0.05 0.4 0
vt 0.325 0.8 0
vt 0.25 0.8 0
vt -0.325 0.45 0
vt -0.325 0.466667 0
vt 0.016667 0.833333 0
vt -0.954154 0.8 0
vt 0.016667 0.8 0
vt 0.075 0.833333 0
vt 0.954154 -0.15 0
vt -0.016667 1.05 0
vt -0.016667 -0.15 0
vt 0.525 0.833333 0
vt -0.225 0.353553 0
vt -0.325 0.8 0
vt -0.05 0.4 0
vt -0.25 0.8 0
vt 0.05 0.25 0
vt -0.216667 0.353553 0
vt 0.216667 1.02531 0
vt 0.233333 1.02531 0
vt 0.225 1.02531 0
vt -0.954154 0.833333 0
vt 0.954154 1.05 0
vt 0.05 1.05 0
vt 0.05 0.45 0
vt 0.05 0.466667 0
vt 0.225 0.4 0
vt 0.233333 0.25 0
vt 0.233333 0.4 0
vt -0.05 0.25 0
vt 0.225 0.25 0
vt 0.216667 0.4 0
vt 0.216667 0.25 0
vt 0.09375 0.4 0
vt 0.216667 0.247487 0
vt 0.05 0.433333 0
vt 0.05 0.6 0
vt 0.708333 0.25 0
vt 0.225 0.247487 0
vt 0.233333 0.247487 0
vt -0.05 -0.516667 0
vt -0.05 0.45 0
vt -0.05 0.433333 0
vt -0.075 0.4 0
vt 0.05 0.1875 0
vt 0.3 0.4 0
vt 0.05 0.7125 0
vt -0.05 0.466667 0
vt -0.05 1.41667 0
vt -0.258333 0.4 0
vt -0.258333 0.25 0
vt -0.2 0.4 0
vt 0.05 -0.15 0
vt 0.35625 0.4 0
vt 0.05 0.85 0
vt -0.033333 -0.516667 0
vt 0.033333 0.25 0
vt 0.05 -0.4 0
vt 0.92082 -0.55 0
vt 0.05 -0.516667 0
vt 0.033333 1.05 0
vt 0.425 0.4 0
vt 0.525 0.4 0
vt -0.033333 1.41667 0
vt 0.033333 0.4 0
vt 0.887487 -0.516667 0
vt 0.033333 -0.15 0
vt 0.033333 1.41667 0
vt 0.904154 0.4 0
vt 0.59375 0.4 0
vt 0.258333 0.25 0
vt 0.075 0.4 0
vt -0.708333 0.25 0
vt -0.033333 0.25 0
vt 0.033333 -0.516667 0
vt 0.258333 0.4 0
vt 0.904154 -0.516667 0
vt 0.887487 -0.15 0
vt -0.033333 0.4 0
vt -0.887487 0.4 0
vt -0.525 0.4 0
vt 0.05 1.41667 0
vt -0.708333 0.4 0
vt 0.016667 1.45 0
vt 0.887487 0.4 0
vt 0.92082 0.433333 0
vt 0.65 0.4 0
vt 0.887487 1.05 0
vt 0.05 1.1875 0
vt 0.708333 0.4 0
vt 0.016667 -0.55 0
vt 0.904154 -0.15 0
vt 0.887487 -0.4 0
vt 0.887487 0.25 0
vt -0.904154 0.4 0
vt 0.92082 1.45 0
vt 0.904154 1.05 0
vt 0.887487 1.1875 0
vt 0.92082 0.4 0
vt 0.016667 0.4 0
vt 0.05 1.3 0
vt -0.92082 0.4 0
vt -0.016667 0.4 0
vt 0.92082 -0.15 0
vt 0.2 0.4 0
vt 0.904154 0.25 0
vt -0.216667 0.25 0
vt 0.887487 0.1875 0
vt 0.887487 1.41667 0
vt -0.725 0.433333 0
vt -0.725 0.4 0
vt -0.016667 0.433333 0
vt 0.887487 1.3 0
vt -0.59375 0.4 0
vt 0.887487 0.85 0
vt 0.92082 1.05 0
vt 0.904154 1.41667 0
vt 0.725 0.4 0
vt 0.525 0.433333 0
vt 0.016667 0.433333 0
vt 0.275 0.4 0
vt 0.075 0.433333 0
vt -0.275 0.433333 0
vt -0.275 0.4 0
vt -0.887487 -0.516667 0
vt -0.904154 1.41667 0
vt -0.904154 -0.516667 0
vt 0.887487 0.433333 0
vt -0.525 0.433333 0
vt -0.92082 0.433333 0
vt -0.65 0.4 0
vt -0.425 0.4 0
vt 0.887487 0.7125 0
vt 0.725 0.433333 0
vt 0.275 0.433333 0
vt -0.075 0.433333 0
vt -0.887487 0.433333 0
vt -0.216667 0.4 0
vt 0.887487 0.45 0
vt -0.904154 0.25 0
vt -0.35625 0.4 0
vt 0.887487 0.6 0
vt -0.887487 0.45 0
vt 0.612487 0.8 0
vt -0.225 0.4 0
vt 0.887487 0.466667 0
vt 0.233333 -0.972254 0
vt 0.216667 -0.972254 0
vt 0.225 -0.972254 0
vt -0.887487 0.25 0
vt -0.3 0.4 0
vt -0.887487 0.466667 0
vt -0.216667 -1.07832 0
vt -0.233333 -1.07832 0
vt -0.225 -1.07832 0
vt -0.225 0.25 0
vt 0.687487 0.8 0
vt -0.216667 -0.300502 0
vt -0.233333 0.4 0
vt 0.233333 -0.406568 0
vt -0.887487 1.41667 0
vt -0.233333 0.25 0
vt 0.225 -0.406568 0
vt 0.216667 -0.406568 0
vt -0.225 -0.300502 0
vt -0.612487 0.8 0
vt -0.687487 0.8 0
vt -0.233333 -0.300502 0
vt -0.05 0.437874 0
vt -0.066667 -0.445656 0
vt -0.05 -0.445656 0
vt -0.066667 0.437874 0
vt -0.066667 1.05 0
vt -0.05 0.9 0
vt -0.05 1.05 0
vt -0.3375 0.8 0
vt -0.525 0 0
vt 0.3375 0.8 0
vt 0.45 0 0
vt 0.525 0 0
vt -0.066667 0.9 0
vt -0.45 0 0
vt -0.2625 0.8 0
vt 0.2625 0.8 0
vt 0.066667 0.501539 0
vt 0.05 -0.38199 0
vt 0.066667 -0.38199 0
vt 0.05 0.059774 0
vt 0.05 0.501539 0
vt -0.87082 0.88353 0
vt -0.887487 0 0
vt -0.87082 0 0
vt -0.887487 0.441765 0
vt -0.87082 -0.15 0
vt -0.887487 0.88353 0
vt -0.887487 -0.15 0
vt 0.887487 0.819865 0
vt 0.87082 -0.063665 0
vt 0.887487 -0.063665 0
vt 0.87082 0.819865 0
vt -0.87082 0.437874 0
vt -0.887487 -0.445656 0
vt -0.87082 -0.445656 0
vt -0.887487 0.437874 0
vt -0.887487 1.05 0
vt -0.87082 0.9 0
vt -0.87082 1.05 0
vt -0.887487 0.9 0
vt 0.887487 0.059774 0
vt 0.87082 -0.38199 0
vt 0.887487 -0.38199 0
vt 0.87082 0.501539 0
vt 0.887487 0.501539 0

# 14 vertex normals
vn -0.0254 0 0
vn 0.0254 0 0
vn 0 -0.0254 0
vn 0 0.0254 0
vn 0 0.0107806 0.0229987
vn 0 -0.0107806 -0.0229987
vn 0 0 0.0254
vn 0 0 -0.0254
vn -0.0179605 0.0179605 0
vn 0.0179605 -0.0179605 0
vn 0.0179605 0.0179605 0
vn -0.0179605 -0.0179605 -0
vn 0 0.0107806 -0.0229987
vn -0 -0.0107806 0.0229987

# Mesh 'mesh1_mesh1-geometry' with 428 faces
g mesh1_mesh1-geometry
usemtl material_0_1_8
f  1/1/1 2/2/1 3/3/1
f  2/2/1 1/1/1 4/4/1
f  3/3/2 2/2/2 1/1/2
f  4/4/2 1/1/2 2/2/2
f  5/5/3 3/6/3 2/7/3
f  2/7/4 3/6/4 5/5/4
f  3/8/5 6/9/5 1/10/5
f  1/10/6 6/9/6 3/8/6
f  4/4/1 1/1/1 7/11/1
f  7/11/2 1/1/2 4/4/2
f  4/12/6 5/5/6 2/7/6
f  2/7/5 5/5/5 4/12/5
f  3/6/3 5/5/3 8/13/3
f  8/13/4 5/5/4 3/6/4
f  6/9/5 3/8/5 8/14/5
f  8/14/6 3/8/6 6/9/6
f  9/15/3 1/16/3 6/17/3
f  6/17/4 1/16/4 9/15/4
f  1/16/3 10/18/3 6/17/3
f  6/17/4 10/18/4 1/16/4
f  1/16/3 11/19/3 7/20/3
f  7/20/4 11/19/4 1/16/4
f  10/18/3 1/16/3 7/20/3
f  7/20/4 1/16/4 10/18/4
f  10/21/6 4/12/6 7/22/6
f  7/22/5 4/12/5 10/21/5
f  5/5/6 4/12/6 10/21/6
f  10/21/5 4/12/5 5/5/5
f  5/2/2 6/23/2 8/24/2
f  8/24/1 6/23/1 5/2/1
f  11/19/3 1/16/3 9/15/3
f  9/15/4 1/16/4 11/19/4
f  9/15/3 6/17/3 12/25/3
f  12/25/4 6/17/4 9/15/4
f  10/18/3 13/26/3 6/17/3
f  6/17/4 13/26/4 10/18/4
f  6/23/2 5/2/2 10/27/2
f  10/27/1 5/2/1 6/23/1
f  14/28/3 7/20/3 11/19/3
f  11/19/4 7/20/4 14/28/4
f  7/20/3 15/29/3 10/18/3
f  10/18/4 15/29/4 7/20/4
f  16/30/7 11/31/7 9/32/7
f  9/32/8 11/31/8 16/30/8
f  12/25/3 6/17/3 13/26/3
f  13/26/4 6/17/4 12/25/4
f  9/15/3 12/25/3 17/33/3
f  17/33/4 12/25/4 9/15/4
f  10/18/3 15/29/3 13/26/3
f  13/26/4 15/29/4 10/18/4
f  7/20/3 14/28/3 15/29/3
f  15/29/4 14/28/4 7/20/4
f  11/34/1 18/35/1 14/36/1
f  14/36/2 18/35/2 11/34/2
f  11/31/7 16/30/7 19/37/7
f  19/37/8 16/30/8 11/31/8
f  15/38/2 16/39/2 9/40/2
f  9/40/1 16/39/1 15/38/1
f  12/25/3 13/26/3 20/41/3
f  20/41/4 13/26/4 12/25/4
f  21/42/9 12/43/9 13/44/9
f  13/44/9 12/43/9 20/45/9
f  13/44/10 12/43/10 21/42/10
f  20/45/10 12/43/10 13/44/10
f  22/46/7 17/47/7 12/48/7
f  12/48/8 17/47/8 22/46/8
f  12/25/3 23/49/3 17/33/3
f  17/33/4 23/49/4 12/25/4
f  9/15/3 17/33/3 15/29/3
f  15/29/4 17/33/4 9/15/4
f  13/26/3 15/29/3 24/50/3
f  24/50/4 15/29/4 13/26/4
f  18/51/8 15/52/8 14/53/8
f  14/53/7 15/52/7 18/51/7
f  18/35/1 11/34/1 19/54/1
f  19/54/2 11/34/2 18/35/2
f  16/55/4 18/56/4 19/57/4
f  19/57/3 18/56/3 16/55/3
f  16/39/2 15/38/2 25/58/2
f  25/58/1 15/38/1 16/39/1
f  24/50/3 20/41/3 13/26/3
f  13/26/4 20/41/4 24/50/4
f  23/49/3 12/25/3 20/41/3
f  20/41/4 12/25/4 23/49/4
f  26/59/9 12/43/9 21/42/9
f  21/42/10 12/43/10 26/59/10
f  24/60/8 21/61/8 13/62/8
f  13/62/7 21/61/7 24/60/7
f  17/47/7 22/46/7 27/63/7
f  27/63/8 22/46/8 17/47/8
f  12/43/9 26/59/9 22/64/9
f  22/64/10 26/59/10 12/43/10
f  23/49/3 15/29/3 17/33/3
f  17/33/4 15/29/4 23/49/4
f  17/65/10 24/66/10 23/67/10
f  23/67/9 24/66/9 17/65/9
f  24/50/3 15/29/3 23/49/3
f  23/49/4 15/29/4 24/50/4
f  15/52/8 18/51/8 25/68/8
f  25/68/7 18/51/7 15/52/7
f  18/56/4 16/55/4 25/69/4
f  25/69/3 16/55/3 18/56/3
f  20/41/3 24/50/3 23/49/3
f  23/49/4 24/50/4 20/41/4
f  28/70/4 26/71/4 21/72/4
f  21/72/3 26/71/3 28/70/3
f  26/73/2 29/74/2 21/75/2
f  21/75/1 29/74/1 26/73/1
f  21/61/8 24/60/8 29/76/8
f  29/76/7 24/60/7 21/61/7
f  30/77/2 22/78/2 27/79/2
f  27/79/1 22/78/1 30/77/1
f  4/80/2 27/79/2 22/78/2
f  22/78/1 27/79/1 4/80/1
f  27/81/10 24/66/10 17/65/10
f  17/65/9 24/66/9 27/81/9
f  22/78/2 30/77/2 26/73/2
f  26/73/1 30/77/1 22/78/1
f  28/70/4 22/82/4 26/71/4
f  26/71/3 22/82/3 28/70/3
f  28/70/4 21/72/4 31/83/4
f  31/83/3 21/72/3 28/70/3
f  29/74/2 26/73/2 30/77/2
f  30/77/1 26/73/1 29/74/1
f  32/84/2 21/75/2 29/74/2
f  29/74/1 21/75/1 32/84/1
f  24/66/10 30/85/10 29/86/10
f  29/86/9 30/85/9 24/66/9
f  30/85/10 24/66/10 27/81/10
f  27/81/9 24/66/9 30/85/9
f  33/87/3 30/88/3 27/89/3
f  27/89/4 30/88/4 33/87/4
f  34/90/2 27/79/2 4/80/2
f  4/80/1 27/79/1 34/90/1
f  28/70/4 4/91/4 22/82/4
f  22/82/3 4/91/3 28/70/3
f  21/75/2 32/84/2 31/92/2
f  31/92/1 32/84/1 21/75/1
f  28/70/4 31/83/4 35/93/4
f  35/93/3 31/83/3 28/70/3
f  33/87/3 29/94/3 30/88/3
f  30/88/4 29/94/4 33/87/4
f  33/87/3 32/95/3 29/94/3
f  29/94/4 32/95/4 33/87/4
f  27/79/2 36/96/2 33/97/2
f  33/97/1 36/96/1 27/79/1
f  37/98/2 27/79/2 34/90/2
f  34/90/1 27/79/1 37/98/1
f  28/70/4 34/99/4 4/91/4
f  4/91/3 34/99/3 28/70/3
f  31/92/2 32/84/2 35/100/2
f  35/100/1 32/84/1 31/92/1
f  28/70/4 35/93/4 38/101/4
f  38/101/3 35/93/3 28/70/3
f  39/102/3 32/95/3 33/87/3
f  33/87/4 32/95/4 39/102/4
f  36/96/2 27/79/2 37/98/2
f  37/98/1 27/79/1 36/96/1
f  36/46/7 39/103/7 33/63/7
f  33/63/8 39/103/8 36/46/8
f  37/104/4 40/105/4 34/99/4
f  34/99/3 40/105/3 37/104/3
f  34/99/4 36/106/4 37/104/4
f  37/104/3 36/106/3 34/99/3
f  41/107/4 34/99/4 28/70/4
f  28/70/3 34/99/3 41/107/3
f  35/100/2 32/84/2 38/108/2
f  38/108/1 32/84/1 35/100/1
f  38/108/2 32/84/2 28/109/2
f  28/109/1 32/84/1 38/108/1
f  32/95/3 39/102/3 42/110/3
f  42/110/4 39/102/4 32/95/4
f  36/106/4 40/105/4 37/104/4
f  37/104/3 40/105/3 36/106/3
f  39/103/7 36/46/7 43/111/7
f  43/111/8 36/46/8 39/103/8
f  34/99/4 40/105/4 44/112/4
f  44/112/3 40/105/3 34/99/3
f  45/113/4 36/106/4 34/99/4
f  34/99/3 36/106/3 45/113/3
f  34/99/4 41/107/4 45/113/4
f  45/113/3 41/107/3 34/99/3
f  28/70/4 46/114/4 41/107/4
f  41/107/3 46/114/3 28/70/3
f  28/46/7 47/115/7 41/111/7
f  41/111/8 47/115/8 28/46/8
f  28/109/2 32/84/2 48/116/2
f  48/116/1 32/84/1 28/109/1
f  39/117/1 45/118/1 42/119/1
f  42/119/2 45/118/2 39/117/2
f  42/120/8 49/61/8 32/76/8
f  32/76/7 49/61/7 42/120/7
f  43/121/4 40/105/4 36/106/4
f  36/106/3 40/105/3 43/121/3
f  36/106/4 45/113/4 43/121/4
f  43/121/3 45/113/3 36/106/3
f  45/118/1 39/117/1 43/122/1
f  43/122/2 39/117/2 45/118/2
f  44/112/4 40/105/4 50/123/4
f  50/123/3 40/105/3 44/112/3
f  44/112/4 51/124/4 34/99/4
f  34/99/3 51/124/3 44/112/3
f  45/125/8 51/126/8 34/61/8
f  34/61/7 51/126/7 45/125/7
f  42/119/1 45/118/1 41/127/1
f  41/127/2 45/118/2 42/119/2
f  46/114/4 28/70/4 49/128/4
f  49/128/3 28/70/3 46/114/3
f  42/119/1 41/127/1 46/129/1
f  46/129/2 41/127/2 42/119/2
f  52/130/4 41/107/4 46/114/4
f  46/114/3 41/107/3 52/130/3
f  47/115/7 28/46/7 53/131/7
f  53/131/8 28/46/8 47/115/8
f  47/115/7 54/132/7 41/111/7
f  41/111/8 54/132/8 47/115/8
f  48/116/2 32/84/2 55/133/2
f  55/133/1 32/84/1 48/116/1
f  53/134/4 48/135/4 28/70/4
f  28/70/3 48/135/3 53/134/3
f  49/128/4 28/70/4 48/135/4
f  48/135/3 28/70/3 49/128/3
f  49/61/8 42/120/8 46/125/8
f  46/125/7 42/120/7 49/61/7
f  55/133/2 32/84/2 49/136/2
f  49/136/1 32/84/1 55/133/1
f  43/121/4 56/137/4 40/105/4
f  40/105/3 56/137/3 43/121/3
f  45/113/4 57/19/4 43/121/4
f  43/121/3 57/19/3 45/113/3
f  50/123/4 40/105/4 58/138/4
f  58/138/3 40/105/3 50/123/3
f  50/123/4 59/139/4 44/112/4
f  44/112/3 59/139/3 50/123/3
f  60/140/7 50/115/7 44/131/7
f  44/131/8 50/115/8 60/140/8
f  51/124/4 44/112/4 59/139/4
f  59/139/3 44/112/3 51/124/3
f  51/126/8 45/125/8 58/141/8
f  58/141/7 45/125/7 51/126/7
f  61/142/4 46/114/4 49/128/4
f  49/128/3 46/114/3 61/142/3
f  41/107/4 52/130/4 62/28/4
f  62/28/3 52/130/3 41/107/3
f  52/130/4 46/114/4 61/142/4
f  61/142/3 46/114/3 52/130/3
f  47/143/4 63/144/4 53/134/4
f  53/134/3 63/144/3 47/143/3
f  53/134/4 58/138/4 47/143/4
f  47/143/3 58/138/3 53/134/3
f  54/132/7 47/115/7 64/145/7
f  64/145/8 47/115/8 54/132/8
f  41/111/7 54/132/7 62/146/7
f  62/146/8 54/132/8 41/111/8
f  48/135/4 53/134/4 55/147/4
f  55/147/3 53/134/3 48/135/3
f  49/128/4 48/135/4 55/147/4
f  55/147/3 48/135/3 49/128/3
f  55/147/4 53/134/4 49/128/4
f  49/128/3 53/134/3 55/147/3
f  56/137/4 43/121/4 57/19/4
f  57/19/3 43/121/3 56/137/3
f  65/132/7 56/146/7 40/145/7
f  40/145/8 56/146/8 65/132/8
f  66/148/8 45/125/8 57/149/8
f  57/149/7 45/125/7 66/148/7
f  58/138/4 40/105/4 66/150/4
f  66/150/3 40/105/3 58/138/3
f  50/96/2 67/84/2 58/90/2
f  58/90/1 67/84/1 50/96/1
f  51/124/4 50/123/4 58/138/4
f  58/138/3 50/123/3 51/124/3
f  59/139/4 50/123/4 51/124/4
f  51/124/3 50/123/3 59/139/3
f  59/151/1 60/117/1 44/122/1
f  44/122/2 60/117/2 59/151/2
f  50/115/7 60/140/7 68/152/7
f  68/152/8 60/140/8 50/115/8
f  69/153/1 59/151/1 51/118/1
f  51/118/2 59/151/2 69/153/2
f  58/141/8 45/125/8 66/148/8
f  66/148/7 45/125/7 58/141/7
f  58/138/4 70/154/4 51/124/4
f  51/124/3 70/154/3 58/138/3
f  61/142/4 49/128/4 71/155/4
f  71/155/3 49/128/3 61/142/3
f  62/127/1 72/156/1 52/157/1
f  52/157/2 72/156/2 62/127/2
f  72/158/8 61/148/8 52/149/8
f  52/149/7 61/148/7 72/158/7
f  63/144/4 47/143/4 73/159/4
f  73/159/3 47/143/3 63/144/3
f  71/155/4 53/134/4 63/144/4
f  63/144/3 53/134/3 71/155/3
f  74/119/1 53/127/1 63/160/1
f  63/160/2 53/127/2 74/119/2
f  75/161/4 58/138/4 53/134/4
f  53/134/3 58/138/3 75/161/3
f  58/90/2 67/84/2 47/109/2
f  47/109/1 67/84/1 58/90/1
f  64/162/4 76/163/4 47/143/4
f  47/143/3 76/163/3 64/162/3
f  61/164/2 54/165/2 64/109/2
f  64/109/1 54/165/1 61/164/1
f  62/146/7 54/132/7 77/166/7
f  77/166/8 54/132/8 62/146/8
f  71/155/4 49/128/4 53/134/4
f  53/134/3 49/128/3 71/155/3
f  56/167/1 78/168/1 57/118/1
f  57/118/2 78/168/2 56/167/2
f  56/146/7 65/132/7 79/166/7
f  79/166/8 65/132/8 56/146/8
f  66/90/2 65/169/2 40/170/2
f  40/170/1 65/169/1 66/90/1
f  66/148/8 57/149/8 78/158/8
f  78/158/7 57/149/7 66/148/7
f  67/84/2 50/96/2 68/97/2
f  68/97/1 50/96/1 67/84/1
f  60/117/1 59/151/1 69/153/1
f  69/153/2 59/151/2 60/117/2
f  60/171/3 67/172/3 68/173/3
f  68/173/4 67/172/4 60/171/4
f  69/153/1 51/118/1 70/4/1
f  70/4/2 51/118/2 69/153/2
f  70/154/4 58/138/4 80/174/4
f  80/174/3 58/138/3 70/154/3
f  61/142/4 71/155/4 76/163/4
f  76/163/3 71/155/3 61/142/3
f  72/156/1 62/127/1 77/175/1
f  77/175/2 62/127/2 72/156/2
f  61/148/8 72/158/8 81/176/8
f  81/176/7 72/158/7 61/148/7
f  73/159/4 47/143/4 71/155/4
f  71/155/3 47/143/3 73/159/3
f  71/155/4 63/144/4 73/159/4
f  73/159/3 63/144/3 71/155/3
f  74/119/1 63/160/1 73/177/1
f  73/177/2 63/160/2 74/119/2
f  74/119/1 75/178/1 53/127/1
f  53/127/2 75/178/2 74/119/2
f  82/179/4 58/138/4 75/161/4
f  75/161/3 58/138/3 82/179/3
f  47/109/2 67/84/2 76/136/2
f  76/136/1 67/84/1 47/109/1
f  61/142/4 76/163/4 64/162/4
f  64/162/3 76/163/3 61/142/3
f  71/155/4 47/143/4 76/163/4
f  76/163/3 47/143/3 71/155/3
f  54/165/2 61/164/2 81/180/2
f  81/180/1 61/164/1 54/165/1
f  54/162/4 72/130/4 77/28/4
f  77/28/3 72/130/3 54/162/3
f  78/168/1 56/167/1 79/181/1
f  79/181/2 56/167/2 78/168/2
f  65/105/4 78/19/4 79/137/4
f  79/137/3 78/19/3 65/105/3
f  65/169/2 66/90/2 83/182/2
f  83/182/1 66/90/1 65/169/1
f  66/148/8 78/158/8 83/176/8
f  83/176/7 78/158/7 66/148/7
f  69/183/3 67/172/3 60/171/3
f  60/171/4 67/172/4 69/183/4
f  69/153/1 70/4/1 80/184/1
f  80/184/2 70/4/2 69/153/2
f  80/174/4 58/138/4 84/185/4
f  84/185/3 58/138/3 80/174/3
f  67/186/8 71/126/8 76/141/8
f  76/141/7 71/126/7 67/186/7
f  72/130/4 54/162/4 81/142/4
f  81/142/3 54/162/3 72/130/3
f  74/119/1 73/177/1 71/129/1
f  71/129/2 73/177/2 74/119/2
f  74/119/1 82/187/1 75/178/1
f  75/178/2 82/187/2 74/119/2
f  85/188/4 58/138/4 82/179/4
f  82/179/3 58/138/3 85/188/3
f  78/19/4 65/105/4 83/150/4
f  83/150/3 65/105/3 78/19/3
f  86/189/3 67/172/3 69/183/3
f  69/183/4 67/172/4 86/189/4
f  80/131/7 87/190/7 69/140/7
f  69/140/8 87/190/8 80/131/8
f  84/191/1 69/153/1 80/184/1
f  80/184/2 69/153/2 84/191/2
f  84/185/4 58/138/4 88/192/4
f  88/192/3 58/138/3 84/185/3
f  88/193/11 80/194/11 84/195/11
f  84/195/12 80/194/12 88/193/12
f  71/126/8 67/186/8 74/196/8
f  74/196/7 67/186/7 71/126/7
f  74/119/1 85/197/1 82/187/1
f  82/187/2 85/197/2 74/119/2
f  88/192/4 58/138/4 85/188/4
f  85/188/3 58/138/3 88/192/3
f  89/198/3 67/172/3 86/189/3
f  86/189/4 67/172/4 89/198/4
f  69/199/12 89/200/12 86/201/12
f  86/201/11 89/200/11 69/199/11
f  69/153/1 84/191/1 86/202/1
f  86/202/2 84/191/2 69/153/2
f  87/190/7 80/131/7 90/203/7
f  90/203/8 80/131/8 87/190/8
f  87/204/12 89/200/12 69/199/12
f  69/199/11 89/200/11 87/204/11
f  88/205/1 86/202/1 84/191/1
f  84/191/2 86/202/2 88/205/2
f  91/206/11 80/194/11 88/193/11
f  88/193/12 80/194/12 91/206/12
f  67/172/3 89/198/3 74/207/3
f  74/207/4 89/198/4 67/172/4
f  89/208/1 85/197/1 74/119/1
f  74/119/2 85/197/2 89/208/2
f  85/197/1 89/208/1 88/205/1
f  88/205/2 89/208/2 85/197/2
f  86/202/1 88/205/1 89/208/1
f  89/208/2 88/205/2 86/202/2
f  80/194/11 92/209/11 90/210/11
f  90/210/12 92/209/12 80/194/12
f  93/211/12 89/200/12 87/204/12
f  87/204/11 89/200/11 93/211/11
f  92/209/11 80/194/11 91/206/11
f  91/206/12 80/194/12 92/209/12
f  88/126/8 94/212/8 91/213/8
f  91/213/7 94/212/7 88/126/7
f  94/212/8 88/126/8 89/196/8
f  89/196/7 88/126/7 94/212/7
f  89/200/12 93/211/12 94/214/12
f  94/214/11 93/211/11 89/200/11

# Mesh 'mesh2_mesh2-geometry' with 24 faces
g mesh2_mesh2-geometry
usemtl material_0_1_8
f  95/215/13 96/216/13 97/217/13
f  96/216/13 95/215/13 98/218/13
f  97/217/14 96/216/14 95/215/14
f  98/218/14 95/215/14 96/216/14
f  96/219/3 99/220/3 97/221/3
f  97/221/4 99/220/4 96/219/4
f  35/187/1 95/222/1 97/223/1
f  97/223/2 95/222/2 35/187/2
f  98/224/2 100/225/2 96/226/2
f  96/226/1 100/225/1 98/224/1
f  99/220/3 96/219/3 100/227/3
f  100/227/4 96/219/4 99/220/4
f  35/187/1 97/223/1 99/228/1
f  99/228/2 97/223/2 35/187/2
f  95/222/1 35/187/1 101/229/1
f  101/229/2 35/187/2 95/222/2
f  100/225/2 98/224/2 102/230/2
f  102/230/1 98/224/1 100/225/1
f  102/231/14 99/232/14 100/233/14
f  100/233/13 99/232/13 102/231/13
f  99/232/14 102/231/14 35/234/14
f  35/234/13 102/231/13 99/232/13
f  35/234/14 102/231/14 101/235/14
f  101/235/13 102/231/13 35/234/13

# Mesh 'mesh3_mesh3-geometry' with 24 faces
g mesh3_mesh3-geometry
usemtl material_0_1_8
f  103/236/6 104/237/6 105/238/6
f  104/237/6 103/236/6 70/239/6
f  105/238/5 104/237/5 103/236/5
f  70/239/5 103/236/5 104/237/5
f  104/237/3 106/240/3 105/238/3
f  105/238/4 106/240/4 104/237/4
f  105/2/1 107/1/1 103/11/1
f  103/11/2 107/1/2 105/2/2
f  70/239/6 103/236/6 108/241/6
f  108/241/5 103/236/5 70/239/5
f  109/23/2 104/2/2 70/80/2
f  70/80/1 104/2/1 109/23/1
f  106/240/3 104/237/3 110/242/3
f  110/242/4 104/237/4 106/240/4
f  107/1/1 105/2/1 106/3/1
f  106/3/2 105/2/2 107/1/2
f  109/23/2 70/80/2 108/27/2
f  108/27/1 70/80/1 109/23/1
f  104/2/2 109/23/2 110/24/2
f  110/24/1 109/23/1 104/2/1
f  109/243/5 106/244/5 110/245/5
f  110/245/6 106/244/6 109/243/6
f  106/244/5 109/243/5 107/246/5
f  107/246/6 109/243/6 106/244/6

# Mesh 'mesh4_mesh4-geometry' with 24 faces
g mesh4_mesh4-geometry
usemtl material_0_1_8
f  111/247/13 112/248/13 113/249/13
f  112/248/13 111/247/13 114/250/13
f  113/249/14 112/248/14 111/247/14
f  114/250/14 111/247/14 112/248/14
f  112/251/3 115/252/3 113/253/3
f  113/253/4 115/252/4 112/251/4
f  115/228/1 111/222/1 113/223/1
f  113/223/2 111/222/2 115/228/2
f  114/224/2 82/100/2 112/226/2
f  112/226/1 82/100/1 114/224/1
f  115/252/3 112/251/3 116/254/3
f  116/254/4 112/251/4 115/252/4
f  111/222/1 115/228/1 117/229/1
f  117/229/2 115/228/2 111/222/2
f  82/100/2 114/224/2 118/230/2
f  118/230/1 114/224/1 82/100/1
f  112/226/2 82/100/2 116/225/2
f  116/225/1 82/100/1 112/226/1
f  82/255/14 115/256/14 116/257/14
f  116/257/13 115/256/13 82/255/13
f  115/256/14 82/255/14 117/258/14
f  117/258/13 82/255/13 115/256/13
f  117/258/14 82/255/14 118/259/14
f  118/259/13 82/255/13 117/258/13

