# File produced by Open Asset Import Library (http://www.assimp.sf.net)
# (assimp v3.2.202087883)

mtllib model_normalized.mtl

# 44 vertex positions
v -0.401090 0.275381 0.162354
v 0.401090 0.007781 0.162354
v 0.401090 0.275381 0.162354
v 0.401090 -0.081419 0.162354
v -0.401090 -0.081419 0.162354
v -0.401090 0.007781 0.162354
v -0.401090 -0.218723 0.162354
v 0.401090 -0.163186 0.162354
v -0.401090 -0.163186 0.162354
v 0.401090 -0.218723 0.162354
v 0.401090 -0.163186 -0.127356
v -0.401090 -0.218723 -0.127356
v -0.401090 -0.163186 -0.127356
v 0.401090 -0.218723 -0.127356
v 0.401090 0.275381 0.131858
v 0.401090 0.007781 0.093739
v 0.401090 0.225004 0.108963
v -0.401090 0.275381 0.131858
v 0.401090 0.062334 0.085790
v 0.401090 0.026488 0.013708
v 0.401090 0.172012 0.093477
v -0.401090 0.007781 0.093739
v 0.401090 -0.163186 -0.142604
v 0.401090 -0.081419 -0.142604
v 0.401090 -0.050427 -0.170243
v -0.401090 0.062334 0.085790
v 0.401090 0.117435 0.085703
v 0.401090 0.031494 -0.068431
v -0.401090 0.172012 0.093477
v -0.401090 0.225004 0.108963
v -0.401090 0.026488 0.013708
v -0.401090 -0.163186 -0.142604
v -0.401090 -0.081419 -0.142604
v -0.401090 -0.050427 -0.170243
v 0.401090 -0.017261 -0.172859
v 0.401090 -0.081419 -0.157852
v 0.401090 0.022647 -0.150228
v -0.401090 0.117435 0.085703
v -0.401090 0.031494 -0.068431
v -0.401090 -0.017261 -0.172859
v -0.401090 -0.081419 -0.157852
v 0.401090 0.015214 -0.165476
v -0.401090 0.022647 -0.150228
v -0.401090 0.015214 -0.165476

# 0 UV coordinates

# 38 vertex normals
vn -0 0 0.0254
vn 0 0.0113592 0.0227184
vn 0.0254 0 0
vn -0.0254 0 0
vn 0 0 -0.0254
vn 0 -0.0113592 -0.0227184
vn 0 -0.0254 0
vn 0 0.0254 0
vn 0 0.00883933 -0.0238123
vn 0 0.0105095 -0.0231238
vn -0 -0.0105095 0.0231238
vn -0 -0.00883933 0.0238123
vn 0 -0.00366199 -0.0251346
vn 0 -0.00185595 -0.0253321
vn 0 0.00185595 0.0253321
vn 0 0.00366199 0.0251346
vn 0 -0.0247333 -0.0057815
vn 0 -0.0251325 -0.00367629
vn 0 0.0247333 0.0057815
vn 0 0.0251325 0.00367629
vn 0 0.00536697 -0.0248265
vn -0 -0.00536697 0.0248265
vn 0 0.00177538 -0.0253379
vn -0 -0.00177538 0.0253379
vn -0 -0.025393 0.000595147
vn 0 0.025393 -0.000595147
vn 0 -0.00577911 -0.0247338
vn 0 0.00183764 -0.0253334
vn -0 -0.00183764 0.0253334
vn 0 0.00577911 0.0247338
vn 0 -0.00942929 -0.0235849
vn 0 0.00942929 0.0235849
vn -0 -0.0244061 0.00703562
vn 0 0.0244061 -0.00703562
vn 0 0.00563113 -0.0247679
vn -0 -0.00563113 0.0247679
vn -0 -0.0228315 0.0111303
vn 0 0.0228315 -0.0111303

# Mesh 'mesh1_mesh1-geometry' with 12 faces
g mesh1_mesh1-geometry
usemtl material_0_24
f  1//1 2//1 3//1
f  2//1 1//1 4//2
f  4//2 1//1 5//2
f  5//2 1//1 6//1
f  7//1 8//1 9//1
f  8//3 10//3 11//3
f  12//4 9//4 13//4
f  8//1 7//1 10//1
f  9//4 12//4 7//4
f  14//3 11//3 10//3
f  11//5 12//5 13//5
f  12//5 11//5 14//5

# Mesh 'mesh1_mesh1-geometry' with 144 faces
g mesh1_mesh1-geometry
usemtl material_1_24
f  3//5 2//5 1//5
f  4//6 1//5 2//5
f  3//3 2//3 15//3
f  15//4 2//4 3//4
f  1//7 15//7 3//7
f  3//8 15//8 1//8
f  5//6 1//5 4//6
f  16//3 2//3 4//3
f  4//4 2//4 16//4
f  15//3 2//3 17//3
f  17//4 2//4 15//4
f  15//7 1//7 18//7
f  18//8 1//8 15//8
f  6//5 1//5 5//6
f  5//2 8//1 4//2
f  4//6 8//5 5//6
f  2//3 16//3 19//3
f  19//4 16//4 2//4
f  20//3 16//3 4//3
f  4//4 16//4 20//4
f  17//3 2//3 21//3
f  21//4 2//4 17//4
f  17//9 18//10 15//10
f  15//11 18//11 17//12
f  1//3 6//3 18//3
f  18//4 6//4 1//4
f  22//3 6//3 5//3
f  5//4 6//4 22//4
f  8//1 5//2 9//1
f  9//5 5//6 8//5
f  11//3 4//3 8//3
f  8//4 4//4 11//4
f  4//3 23//3 24//3
f  24//4 23//4 4//4
f  25//3 4//3 24//3
f  24//4 4//4 25//4
f  16//13 26//14 19//14
f  19//15 26//15 16//16
f  27//3 2//3 19//3
f  19//4 2//4 27//4
f  22//17 20//18 16//17
f  16//19 20//20 22//19
f  28//3 20//3 4//3
f  4//4 20//4 28//4
f  21//3 2//3 27//3
f  27//4 2//4 21//4
f  29//21 17//9 21//21
f  21//22 17//12 29//22
f  18//10 17//9 30//9
f  30//12 17//12 18//11
f  18//3 6//3 30//3
f  30//4 6//4 18//4
f  6//3 22//3 26//3
f  26//4 22//4 6//4
f  31//3 22//3 5//3
f  5//4 22//4 31//4
f  13//3 5//3 9//3
f  9//4 5//4 13//4
f  9//5 8//5 7//5
f  4//3 11//3 23//3
f  23//4 11//4 4//4
f  11//4 10//4 8//4
f  24//5 32//5 33//5
f  33//1 32//1 24//1
f  5//3 32//3 33//3
f  33//4 32//4 5//4
f  34//3 5//3 33//3
f  33//4 5//4 34//4
f  32//5 24//5 23//5
f  23//1 24//1 32//1
f  35//3 4//3 25//3
f  25//4 4//4 35//4
f  25//3 24//3 36//3
f  36//4 24//4 25//4
f  26//14 16//13 22//13
f  22//16 16//16 26//15
f  26//14 27//23 19//14
f  19//15 27//24 26//15
f  20//18 22//17 31//18
f  31//20 22//19 20//20
f  31//18 28//25 20//18
f  20//20 28//26 31//20
f  28//3 4//3 37//3
f  37//4 4//4 28//4
f  38//23 21//21 27//23
f  27//24 21//22 38//24
f  17//9 29//21 30//9
f  30//12 29//22 17//12
f  21//21 38//23 29//21
f  29//22 38//24 21//22
f  30//3 6//3 29//3
f  29//4 6//4 30//4
f  38//3 6//3 26//3
f  26//4 6//4 38//4
f  39//3 31//3 5//3
f  5//4 31//4 39//4
f  5//3 13//3 32//3
f  32//4 13//4 5//4
f  13//3 9//3 12//3
f  10//5 7//5 8//5
f  7//3 12//3 9//3
f  10//4 11//4 14//4
f  40//3 5//3 34//3
f  34//4 5//4 40//4
f  34//3 33//3 41//3
f  41//4 33//4 34//4
f  42//3 4//3 35//3
f  35//4 4//4 42//4
f  25//27 40//28 35//28
f  35//29 40//29 25//30
f  36//31 34//27 25//27
f  25//30 34//30 36//32
f  27//23 26//14 38//23
f  38//24 26//15 27//24
f  28//25 31//18 39//25
f  39//26 31//20 28//26
f  37//3 4//3 42//3
f  42//4 4//4 37//4
f  39//25 37//33 28//25
f  28//26 37//34 39//26
f  29//3 6//3 38//3
f  38//4 6//4 29//4
f  39//3 5//3 43//3
f  43//4 5//4 39//4
f  13//1 12//1 11//1
f  14//1 11//1 12//1
f  44//3 5//3 40//3
f  40//4 5//4 44//4
f  40//28 25//27 34//27
f  34//30 25//30 40//29
f  34//27 36//31 41//31
f  41//32 36//32 34//30
f  40//28 42//35 35//28
f  35//29 42//36 40//29
f  43//33 42//37 37//33
f  37//34 42//38 43//34
f  37//33 39//25 43//33
f  43//34 39//26 37//34
f  43//3 5//3 44//3
f  44//4 5//4 43//4
f  42//35 40//28 44//35
f  44//36 40//29 42//36
f  42//37 43//33 44//37
f  44//38 43//34 42//38

# Mesh 'mesh1_mesh1-geometry' with 12 faces
g mesh1_mesh1-geometry
usemtl material_2_24
f  24//8 5//2 4//2
f  4//6 5//6 24//7
f  5//2 24//8 33//8
f  33//7 24//7 5//6
f  11//8 9//8 8//8
f  8//7 9//7 11//7
f  9//8 11//8 13//8
f  13//7 11//7 9//7
f  7//7 14//7 10//7
f  10//8 14//8 7//8
f  14//7 7//7 12//7
f  12//8 7//8 14//8

# Mesh 'mesh2_mesh2-geometry' with 1 faces
g mesh2_mesh2-geometry
usemtl material_2_0
l  14 12

# Mesh 'mesh3_mesh3-geometry' with 1 faces
g mesh3_mesh3-geometry
usemtl material_2_0
l  10 7

