# File produced by Open Asset Import Library (http://www.assimp.sf.net)
# (assimp v3.2.202087883)

mtllib model_normalized.mtl

# 28 vertex positions
v -0.450914 0.070272 0.177633
v -0.444082 0.042944 -0.170801
v -0.444082 0.042944 0.170801
v -0.450914 0.070272 -0.177633
v 0.444082 0.042944 0.170801
v -0.444082 0.097600 0.170801
v 0.444082 0.042944 -0.170801
v 0.450914 0.070272 0.177633
v -0.444082 0.097600 -0.170801
v 0.444082 0.097600 0.170801
v 0.450914 0.070272 -0.177633
v 0.444082 0.097600 -0.170801
v -0.204961 0.042944 -0.092232
v -0.174217 -0.148353 0.122977
v -0.174217 -0.148353 -0.122977
v -0.204961 0.042944 0.092232
v -0.420170 -0.148353 -0.122977
v -0.420170 -0.148353 0.122977
v -0.389426 0.042944 -0.092232
v -0.389426 0.042944 0.092232
v 0.389426 0.042944 -0.092232
v 0.420170 -0.148353 0.122977
v 0.420170 -0.148353 -0.122977
v 0.389426 0.042944 0.092232
v 0.174217 -0.148353 -0.122977
v 0.174217 -0.148353 0.122977
v 0.204961 0.042944 -0.092232
v 0.204961 0.042944 0.092232

# 0 UV coordinates

# 18 vertex normals
vn -0.0246416 -0.00616042 0
vn 0.0246416 0.00616042 0
vn 0 -0.0254 0
vn 0 0.0254 0
vn 0 -0.00616042 0.0246416
vn 0 0.00616042 -0.0246416
vn -0.0246416 0.00616042 0
vn 0.0246416 -0.00616042 -0
vn -0 -0.00616042 -0.0246416
vn 0 0.00616042 0.0246416
vn 0.0250782 0.00403042 0
vn -0.0250782 -0.00403042 0
vn 0 0.00403042 -0.0250782
vn 0 -0.00403042 0.0250782
vn 0 0.00403042 0.0250782
vn 0 -0.00403042 -0.0250782
vn -0.0250782 0.00403042 0
vn 0.0250782 -0.00403042 0

# Mesh 'mesh1_mesh1-geometry' with 40 faces
g mesh1_mesh1-geometry
usemtl material_0_24
f  1//1 2//1 3//1
f  2//1 1//1 4//1
f  3//2 2//2 1//2
f  4//2 1//2 2//2
f  2//3 5//3 3//3
f  3//4 5//4 2//4
f  5//5 1//5 3//5
f  3//6 1//6 5//6
f  6//7 4//7 1//7
f  1//8 4//8 6//8
f  4//9 7//9 2//9
f  2//10 7//10 4//10
f  5//3 2//3 7//3
f  7//4 2//4 5//4
f  1//5 5//5 8//5
f  8//6 5//6 1//6
f  4//7 6//7 9//7
f  9//8 6//8 4//8
f  1//10 10//10 6//10
f  6//9 10//9 1//9
f  7//9 4//9 11//9
f  11//10 4//10 7//10
f  11//8 5//8 7//8
f  7//7 5//7 11//7
f  5//8 11//8 8//8
f  8//7 11//7 5//7
f  10//10 1//10 8//10
f  8//9 1//9 10//9
f  6//4 12//4 9//4
f  9//3 12//3 6//3
f  12//6 4//6 9//6
f  9//5 4//5 12//5
f  12//4 6//4 10//4
f  10//3 6//3 12//3
f  4//6 12//6 11//6
f  11//5 12//5 4//5
f  12//2 8//2 11//2
f  11//1 8//1 12//1
f  8//2 12//2 10//2
f  10//1 12//1 8//1

# Mesh 'mesh2_mesh2-geometry' with 16 faces
g mesh2_mesh2-geometry
usemtl material_0_24
f  13//11 14//11 15//11
f  14//11 13//11 16//11
f  15//12 14//12 13//12
f  16//12 13//12 14//12
f  17//13 13//13 15//13
f  15//14 13//14 17//14
f  16//15 18//15 14//15
f  14//16 18//16 16//16
f  13//13 17//13 19//13
f  19//14 17//14 13//14
f  18//15 16//15 20//15
f  20//16 16//16 18//16
f  17//17 20//17 19//17
f  19//18 20//18 17//18
f  20//17 17//17 18//17
f  18//18 17//18 20//18

# Mesh 'mesh2_mesh2-geometry' with 16 faces
g mesh2_mesh2-geometry
usemtl material_0_24
f  21//11 22//11 23//11
f  22//11 21//11 24//11
f  23//12 22//12 21//12
f  24//12 21//12 22//12
f  25//13 21//13 23//13
f  23//14 21//14 25//14
f  24//15 26//15 22//15
f  22//16 26//16 24//16
f  21//13 25//13 27//13
f  27//14 25//14 21//14
f  26//15 24//15 28//15
f  28//16 24//16 26//16
f  25//17 28//17 27//17
f  27//18 28//18 25//18
f  28//17 25//17 26//17
f  26//18 25//18 28//18

