# File produced by Open Asset Import Library (http://www.assimp.sf.net)
# (assimp v3.2.202087883)

mtllib model_normalized.mtl

# 124 vertex positions
v -0.018880 0.280575 -0.030225
v -0.009596 0.225607 -0.030225
v -0.009596 0.280575 -0.030225
v -0.018880 0.225607 -0.030225
v -0.009596 0.280575 -0.044950
v -0.018880 0.225607 -0.044950
v -0.009596 0.225607 -0.044950
v -0.018880 0.280575 -0.044950
v -0.007868 0.280575 -0.030225
v -0.007868 0.225607 -0.030225
v 0.001416 0.280575 -0.030225
v -0.007868 0.280575 -0.044950
v 0.001416 0.225607 -0.030225
v -0.007868 0.225607 -0.044950
v 0.001416 0.225607 -0.044950
v 0.001416 0.280575 -0.044950
v 0.149706 -0.061538 -0.037479
v 0.088139 -0.061538 -0.037479
v 0.149706 -0.074164 -0.037479
v 0.149706 -0.061538 -0.052205
v 0.088139 -0.074164 -0.037479
v 0.088139 -0.061538 -0.052205
v 0.088139 -0.074164 -0.052205
v 0.149706 -0.074164 -0.052205
v 0.149706 -0.165177 -0.037479
v 0.088139 -0.165177 -0.037479
v 0.149706 -0.177803 -0.037479
v 0.149706 -0.165177 -0.052205
v 0.088139 -0.177803 -0.037479
v 0.088139 -0.165177 -0.052205
v 0.088139 -0.177803 -0.052205
v 0.149706 -0.177803 -0.052205
v -0.167170 -0.074164 -0.037479
v -0.105604 -0.061538 -0.037479
v -0.167170 -0.061538 -0.037479
v -0.105604 -0.074164 -0.037479
v -0.167170 -0.061538 -0.052205
v -0.105604 -0.074164 -0.052205
v -0.105604 -0.061538 -0.052205
v -0.167170 -0.074164 -0.052205
v -0.167170 -0.177803 -0.037479
v -0.105604 -0.165177 -0.037479
v -0.167170 -0.165177 -0.037479
v -0.105604 -0.177803 -0.037479
v -0.167170 -0.165177 -0.052205
v -0.105604 -0.177803 -0.052205
v -0.105604 -0.165177 -0.052205
v -0.167170 -0.177803 -0.052205
v -0.210057 -0.150386 -0.047887
v 0.192592 -0.237259 -0.047887
v -0.210057 -0.237259 -0.047887
v 0.192592 -0.150386 -0.047887
v -0.210057 -0.054876 -0.047887
v 0.192592 -0.141749 -0.047887
v -0.210057 -0.141749 -0.047887
v 0.192592 -0.054876 -0.047887
v -0.210057 -0.237259 0.168028
v -0.235443 0.601014 -0.047887
v 0.192592 -0.150386 -0.040632
v 0.217978 0.601014 -0.047887
v 0.192592 -0.237259 -0.026295
v -0.210057 -0.237259 0.146437
v -0.210057 -0.262645 -0.047887
v -0.210057 -0.150386 -0.040632
v 0.217978 -0.262645 -0.047887
v 0.192592 -0.237259 0.146437
v 0.192592 -0.262645 -0.026295
v -0.210057 -0.262645 0.146437
v -0.210057 -0.237259 -0.026295
v -0.235443 -0.262645 -0.047887
v -0.210057 -0.141749 -0.040632
v 0.192592 -0.141749 -0.040632
v 0.192592 -0.262645 -0.047887
v 0.217978 0.572634 -0.027606
v 0.192592 -0.237259 0.168028
v 0.217978 -0.237259 -0.026295
v -0.210057 -0.262645 0.168028
v -0.235443 -0.237259 0.146437
v -0.235443 -0.262645 -0.026295
v -0.210057 -0.262645 -0.026295
v -0.210057 -0.046240 -0.047887
v 0.217978 0.601014 0.168028
v 0.217978 -0.196024 -0.027606
v 0.192592 -0.046240 -0.047887
v 0.192592 -0.262645 0.168028
v -0.235443 0.601014 0.168028
v 0.217978 -0.237259 0.146437
v 0.217978 -0.262645 -0.026295
v -0.235443 -0.262645 0.168028
v -0.235443 -0.262645 0.146437
v -0.235443 -0.237259 -0.026295
v -0.235443 -0.206422 -0.027044
v -0.210057 0.575627 -0.047887
v -0.210057 -0.046240 -0.040632
v 0.192592 0.601014 -0.047887
v 0.217978 0.572634 0.136489
v 0.213660 -0.196024 -0.027606
v 0.192592 -0.054876 -0.040632
v 0.192592 0.575627 -0.047887
v 0.192592 -0.262645 0.146437
v 0.217978 -0.196024 0.136489
v 0.217978 -0.262645 0.146437
v -0.235443 -0.206422 0.141369
v -0.235443 0.570872 -0.027044
v -0.008732 0.575627 -0.047887
v -0.210057 0.575627 -0.040632
v -0.210057 -0.054876 -0.040632
v 0.213660 0.572634 0.136489
v 0.213660 0.572634 -0.027606
v 0.192592 -0.046240 -0.040632
v 0.217978 -0.262645 0.168028
v -0.235443 0.570872 0.141369
v -0.231124 0.570872 -0.027044
v -0.008732 -0.046240 -0.040632
v -0.008732 0.575627 -0.040632
v 0.213660 -0.196024 0.136489
v 0.192592 0.575627 -0.040632
v -0.231124 -0.206422 0.141369
v -0.231124 -0.206422 -0.027044
v -0.231124 0.570872 0.141369
v 0.192592 -0.237259 0.168028
v 0.217978 -0.237259 0.168028
v 0.217978 -0.237259 -0.026295
v 0.217978 -0.262645 -0.026295

# 318 UV coordinates
vt -0.211614 0.870079 0
vt 0 -0 0
vt 0 0.870079 0
vt -0.211614 -0 0
vt -0.870079 0.33563 0
vt -0.870079 0 0
vt 0 0.33563 0
vt 0.870079 0 0
vt 0.211614 0.33563 0
vt 0.211614 0 0
vt -0.211614 0.33563 0
vt 0.870079 0.33563 0
vt 0.211614 0.870079 0
vt 1 0.476323 0
vt 1 0 0
vt 0 0.476323 0
vt 1 1 0
vt 0 0.523677 0
vt 1 0.523677 0
vt 0 1 0
vt 1.25515 0.040822 0
vt 0.074441 0.040822 0
vt 1.25515 0.180519 0
vt 0.074441 0.180519 0
vt -1.25515 0.016735 0
vt -1.25515 0.363939 0
vt -0.074441 0.016735 0
vt -0.112716 0.040599 0
vt -0.06123 0.970075 0
vt -0.112716 0.136924 0
vt 1.32959 1.38881 0
vt 0.074441 0.016735 0
vt 0.074441 0.028401 0
vt 1.25515 0.016735 0
vt -0.963052 0.970645 0
vt -0.888611 0.041169 0
vt -0.888611 0.137494 0
vt 0 1.38881 0
vt -0.074441 0.051456 0
vt -1.25515 0.329219 0
vt -0.112716 0.012451 0
vt 1.25515 0 0
vt -0.112716 0.1465 0
vt 1.25515 0.194408 0
vt 1.25515 0.028401 0
vt 0.030517 0.180519 0
vt 0.030517 0.194408 0
vt 0.051791 0.180519 0
vt -0.963052 0.013021 0
vt -0.888611 0.147071 0
vt 0.074441 0.194408 0
vt -0.074441 0.329219 0
vt 0.093831 0.040822 0
vt 0.093831 0 0
vt 0.030517 0.040822 0
vt -0.60034 0.040822 0
vt -0.60034 0 0
vt -0.663653 0.040822 0
vt -1.25515 0.051456 0
vt -0.06123 0.012451 0
vt 1.32959 0 0
vt -0.030517 0.040822 0
vt -0.030517 0 0
vt -0.093831 0.040822 0
vt -0.112716 0.242825 0
vt 1.25515 0.334105 0
vt -0.030517 0.194408 0
vt -0.030517 0.180519 0
vt -0.051791 0.194408 0
vt -0.051791 0.180519 0
vt 0.051791 0.194408 0
vt -0.888611 0.013021 0
vt 0.074441 0 0
vt -0.089987 1.34318 0
vt -0.030517 1.38881 0
vt -0.888611 0.243395 0
vt 0.074441 0.334105 0
vt -0.074441 0.363939 0
vt 0 0.051456 0
vt 0.030517 0 0
vt -1.06448 0.237482 0
vt -1.07739 0.253856 0
vt -1.06423 0.259528 0
vt -0.074441 0.040822 0
vt 0 0.040822 0
vt -0.074441 0 0
vt -0.663653 0 0
vt 1.32959 0.040822 0
vt -1.32959 0.329219 0
vt -1.32959 0.016735 0
vt -1.32959 0.051456 0
vt 0.030517 1.38881 0
vt -0.093831 0 0
vt -0.112716 0.252401 0
vt 1.25515 0.347993 0
vt -1.25515 0.028401 0
vt -0.074441 0.028401 0
vt 0 0.016735 0
vt -0.663653 1.38881 0
vt -0.089987 0.10713 0
vt -0.888611 0.252972 0
vt 0.074441 0.347993 0
vt 0.663653 0.040822 0
vt 0.663653 0 0
vt 0.60034 0.040822 0
vt -1.25515 0.040822 0
vt -1.32959 1.38881 0
vt 0 0.329219 0
vt -1.07764 0.231809 0
vt -1.25515 0 0
vt -1.32959 0 0
vt -1.32959 0.363939 0
vt 0.091633 0.090411 0
vt -0.112716 0.941927 0
vt 1.25515 1.34799 0
vt -0.030517 0.347993 0
vt -0.030517 0.334105 0
vt -0.051791 0.347993 0
vt -1.10493 0.8936 0
vt -1.46307 0.892188 0
vt -1.10363 0.897288 0
vt 0 0.363939 0
vt -0.571171 1.34318 0
vt -1.06809 0.882878 0
vt -0.683415 0.395953 0
vt -1.07442 0.289323 0
vt 0 0.10713 0
vt -0.012663 0.10713 0
vt 0 1.34318 0
vt 0.030517 0.334105 0
vt 0.030517 0.347993 0
vt 0.051791 0.334105 0
vt -0.888611 0.942497 0
vt 0.074441 1.34799 0
vt 0.60034 0 0
vt -0.571171 0.10713 0
vt -1.41969 0.233085 0
vt -1.06293 0.405202 0
vt -1.41823 0.255028 0
vt 0.585479 0.090411 0
vt -1.32959 0.040822 0
vt 0.091633 1.34034 0
vt -0.521022 0.941927 0
vt 0.664793 1.34799 0
vt -0.030517 1.34799 0
vt -0.051791 1.34799 0
vt -0.051791 0.334105 0
vt -1.48619 0.82631 0
vt 1.32959 0.363939 0
vt -0.888611 0.970645 0
vt 0.074441 1.38881 0
vt -0.967941 0.988108 0
vt -1.35894 0.881478 0
vt 0 0.313223 0
vt 0 0.049348 0
vt -0.012663 0.313223 0
vt -0.67709 0.989508 0
vt -0.012663 1.34318 0
vt -1.39644 0.290281 0
vt 0.012663 0.049348 0
vt 0.051791 0.347993 0
vt 0.030517 1.34799 0
vt -1.06439 0.383259 0
vt 0.663653 1.38881 0
vt 0.585479 1.34034 0
vt -1.32959 1.34034 0
vt -1.31692 1.34034 0
vt -1.32959 0.090411 0
vt -0.929328 0.941927 0
vt -0.664793 0.016735 0
vt 0.664793 0.347993 0
vt -1.12675 0.83141 0
vt 1.32959 0.016735 0
vt -0.929328 0.970075 0
vt 0.012663 1.34318 0
vt -0.012663 0.049348 0
vt -1.00544 0.396911 0
vt 0.012663 0.313223 0
vt 0.051791 1.34799 0
vt 1.32959 0.321069 0
vt 1.32959 0.05025 0
vt 1.31692 0.321069 0
vt 1.32959 0.090411 0
vt 1.31692 0.090411 0
vt 1.32959 1.34034 0
vt -1.31692 0.090411 0
vt -1.32959 0.05025 0
vt -1.32959 0.321069 0
vt -1.31692 0.05025 0
vt -0.664793 0.028401 0
vt 0.012663 0.10713 0
vt 1.31692 0.05025 0
vt 1.31692 1.34034 0
vt -1.31692 0.321069 0
vt -0.690422 0.514663 0
vt -0.503129 0.747512 0
vt -0.690422 0.747512 0
vt -0.272473 0.208161 0
vt -0.744467 0.21383 0
vt -0.744467 0.208161 0
vt -0.671693 0.514663 0
vt -0.521858 0.747512 0
vt -0.272473 0.21383 0
vt -0.735963 0.208161 0
vt -0.744467 0.21491 0
vt -0.521858 0.514663 0
vt -0.744467 0.140271 0
vt -0.719157 0.120432 0
vt -0.719157 0.140271 0
vt -0.671692 0.747512 0
vt -0.280977 0.21491 0
vt -0.272473 0.21491 0
vt -0.280977 0.208161 0
vt -0.735963 0.21491 0
vt -0.503129 0.514663 0
vt -0.744467 0.120432 0
vt -0.523701 0.119859 0
vt -0.549011 0.10002 0
vt -0.523701 0.10002 0
vt -0.272473 0.209241 0
vt -0.744467 0.209241 0
vt -0.498391 0.119859 0
vt -0.516677 0.140271 0
vt -0.491367 0.120432 0
vt -0.491367 0.140271 0
vt -0.776802 0.10002 0
vt -0.751492 0.119859 0
vt -0.776802 0.119859 0
vt -0.549011 0.119859 0
vt -0.280977 0.289549 0
vt -0.272473 0.2828 0
vt -0.272473 0.289549 0
vt -0.498391 0.10002 0
vt -0.256856 0.269365 0
vt -0.60613 0.27356 0
vt -0.60613 0.269365 0
vt -0.735963 0.2828 0
vt -0.744467 0.289549 0
vt -0.744467 0.2828 0
vt -0.516677 0.120432 0
vt -0.751492 0.10002 0
vt -0.280977 0.775528 0
vt -0.272473 0.775528 0
vt -0.280977 0.2828 0
vt -0.256856 0.27356 0
vt -0.735963 0.289549 0
vt -0.744467 0.775528 0
vt -0.295911 0.10002 0
vt -0.270601 0.119859 0
vt -0.295911 0.119859 0
vt -0.50847 0.775528 0
vt -0.272473 0.769859 0
vt -0.50847 0.289549 0
vt -0.735963 0.775528 0
vt -0.270601 0.10002 0
vt -0.50847 0.769859 0
vt -0.744467 0.769859 0
vt 0 0.029394 0
vt 0.095402 0 0
vt 0.095402 0.029394 0
vt 0.858615 0.029394 0
vt 0.954016 0 0
vt 0.954016 0.029394 0
vt 0.954016 1 0
vt 0.864407 0.967138 0
vt 1 0.03705 0
vt 0.887832 0.23705 0
vt 0.887832 0.03705 0
vt 0.858615 0 0
vt 0.864407 0.077138 0
vt 1 0.23705 0
vt 0.139354 0.967138 0
vt 0.139354 0.077138 0
vt 0.972006 0 0
vt 1 0.029394 0
vt 0.972006 0.029394 0
vt 0 0.23705 0
vt 0.027994 0.03705 0
vt 0.027994 0.23705 0
vt 0.535286 0 0
vt 0.511476 1 0
vt 0.511476 0 0
vt 0 0.03705 0
vt 0.534459 0.065099 0
vt 0.027994 0.029394 0
vt 0.027994 0 0
vt 0.749571 0 0
vt 0.725762 0.029394 0
vt 0.725762 0 0
vt 0.720174 0.065099 0
vt 0.535286 0.029394 0
vt 0.534459 0.965099 0
vt 0.749571 1 0
vt 0.720174 0.965099 0
vt 0 0.065099 0
vt 0.004762 0.965099 0
vt 0 0.965099 0
vt 0.995238 0.231182 0
vt 1 0.036182 0
vt 1 0.231182 0
vt 1 0.965099 0
vt 0.995238 0.065099 0
vt 1 0.065099 0
vt 0.004762 0.065099 0
vt 0.004762 0.036182 0
vt 0 0.231182 0
vt 0 0.036182 0
vt 0.995238 0.036182 0
vt 0.995238 0.965099 0
vt 0.004762 0.231182 0
vt 0.426378 0.397832 0
vt 0.437039 0.250282 0
vt 0.572167 0.250822 0
vt 0.428585 0.245779 0
vt 0.437104 0.245813 0
vt 0.572231 0.246353 0
vt 0.578545 0.39844 0
vt 0.580751 0.246387 0

# 12 vertex normals
vn 0 -0 0.0254
vn 0 0 -0.0254
vn 0.0254 0 0
vn -0.0254 0 0
vn 0 0.036576 0
vn 0 -0.036576 0
vn 0 0.034544 0
vn 0 -0.034544 -0
vn 0.0409651 0 0
vn -0.0409651 -0 0
vn 0 0.0254 0
vn 0 -0.0254 -0

# Mesh 'mesh1_mesh1-geometry' with 24 faces
g mesh1_mesh1-geometry
usemtl material_0_2_8
f  1/1/1 2/2/1 3/3/1
f  2/2/1 1/1/1 4/4/1
f  3/3/2 2/2/2 1/1/2
f  4/4/2 1/1/2 2/2/2
f  2/2/3 5/5/3 3/6/3
f  3/6/4 5/5/4 2/2/4
f  5/7/5 1/4/5 3/2/5
f  3/2/6 1/4/6 5/7/6
f  1/8/4 6/7/4 4/2/4
f  4/2/3 6/7/3 1/8/3
f  6/9/6 2/2/6 4/10/6
f  4/10/5 2/2/5 6/9/5
f  5/5/3 2/2/3 7/7/3
f  7/7/4 2/2/4 5/5/4
f  1/4/5 5/7/5 8/11/5
f  8/11/6 5/7/6 1/4/6
f  6/7/4 1/8/4 8/12/4
f  8/12/3 1/8/3 6/7/3
f  2/2/6 6/9/6 7/7/6
f  7/7/5 6/9/5 2/2/5
f  6/10/2 5/3/2 7/2/2
f  7/2/1 5/3/1 6/10/1
f  5/3/2 6/10/2 8/13/2
f  8/13/1 6/10/1 5/3/1

# Mesh 'mesh2_mesh2-geometry' with 24 faces
g mesh2_mesh2-geometry
usemtl material_0_2_8
f  9/3/1 10/2/1 11/1/1
f  11/1/2 10/2/2 9/3/2
f  9/6/4 12/5/4 10/2/4
f  10/2/3 12/5/3 9/6/3
f  13/4/1 11/1/1 10/2/1
f  10/2/2 11/1/2 13/4/2
f  9/2/5 11/4/5 12/7/5
f  12/7/6 11/4/6 9/2/6
f  14/7/4 10/2/4 12/5/4
f  12/5/3 10/2/3 14/7/3
f  13/2/3 15/7/3 11/8/3
f  11/8/4 15/7/4 13/2/4
f  13/10/6 10/2/6 15/9/6
f  15/9/5 10/2/5 13/10/5
f  16/11/5 12/7/5 11/4/5
f  11/4/6 12/7/6 16/11/6
f  14/7/6 15/9/6 10/2/6
f  10/2/5 15/9/5 14/7/5
f  14/2/2 12/3/2 15/10/2
f  15/10/1 12/3/1 14/2/1
f  16/12/3 11/8/3 15/7/3
f  15/7/4 11/8/4 16/12/4
f  16/13/2 15/10/2 12/3/2
f  12/3/1 15/10/1 16/13/1

# Mesh 'mesh2_mesh2-geometry' with 24 faces
g mesh2_mesh2-geometry
usemtl material_0_2_8
f  17/3/1 18/2/1 19/1/1
f  19/1/2 18/2/2 17/3/2
f  17/6/7 20/5/7 18/2/7
f  18/2/8 20/5/8 17/6/8
f  21/4/1 19/1/1 18/2/1
f  18/2/2 19/1/2 21/4/2
f  17/2/9 19/4/9 20/7/9
f  20/7/10 19/4/10 17/2/10
f  22/7/7 18/2/7 20/5/7
f  20/5/8 18/2/8 22/7/8
f  21/2/8 23/7/8 19/8/8
f  19/8/7 23/7/7 21/2/7
f  21/10/10 18/2/10 23/9/10
f  23/9/9 18/2/9 21/10/9
f  24/11/9 20/7/9 19/4/9
f  19/4/10 20/7/10 24/11/10
f  22/7/10 23/9/10 18/2/10
f  18/2/9 23/9/9 22/7/9
f  22/2/2 20/3/2 23/10/2
f  23/10/1 20/3/1 22/2/1
f  24/12/8 19/8/8 23/7/8
f  23/7/7 19/8/7 24/12/7
f  24/13/2 23/10/2 20/3/2
f  20/3/1 23/10/1 24/13/1

# Mesh 'mesh2_mesh2-geometry' with 24 faces
g mesh2_mesh2-geometry
usemtl material_0_2_8
f  25/3/1 26/2/1 27/1/1
f  27/1/2 26/2/2 25/3/2
f  25/6/7 28/5/7 26/2/7
f  26/2/8 28/5/8 25/6/8
f  29/4/1 27/1/1 26/2/1
f  26/2/2 27/1/2 29/4/2
f  25/2/9 27/4/9 28/7/9
f  28/7/10 27/4/10 25/2/10
f  30/7/7 26/2/7 28/5/7
f  28/5/8 26/2/8 30/7/8
f  29/2/8 31/7/8 27/8/8
f  27/8/7 31/7/7 29/2/7
f  29/10/10 26/2/10 31/9/10
f  31/9/9 26/2/9 29/10/9
f  32/11/9 28/7/9 27/4/9
f  27/4/10 28/7/10 32/11/10
f  30/7/10 31/9/10 26/2/10
f  26/2/9 31/9/9 30/7/9
f  30/2/2 28/3/2 31/10/2
f  31/10/1 28/3/1 30/2/1
f  32/12/8 27/8/8 31/7/8
f  31/7/7 27/8/7 32/12/7
f  32/13/2 31/10/2 28/3/2
f  28/3/1 31/10/1 32/13/1

# Mesh 'mesh1_mesh1-geometry' with 24 faces
g mesh1_mesh1-geometry
usemtl material_0_2_8
f  33/1/1 34/2/1 35/3/1
f  34/2/1 33/1/1 36/4/1
f  35/3/2 34/2/2 33/1/2
f  36/4/2 33/1/2 34/2/2
f  34/2/7 37/5/7 35/6/7
f  35/6/8 37/5/8 34/2/8
f  37/7/10 33/4/10 35/2/10
f  35/2/9 33/4/9 37/7/9
f  33/8/8 38/7/8 36/2/8
f  36/2/7 38/7/7 33/8/7
f  38/9/9 34/2/9 36/10/9
f  36/10/10 34/2/10 38/9/10
f  37/5/7 34/2/7 39/7/7
f  39/7/8 34/2/8 37/5/8
f  33/4/10 37/7/10 40/11/10
f  40/11/9 37/7/9 33/4/9
f  38/7/8 33/8/8 40/12/8
f  40/12/7 33/8/7 38/7/7
f  34/2/9 38/9/9 39/7/9
f  39/7/10 38/9/10 34/2/10
f  38/10/2 37/3/2 39/2/2
f  39/2/1 37/3/1 38/10/1
f  37/3/2 38/10/2 40/13/2
f  40/13/1 38/10/1 37/3/1

# Mesh 'mesh1_mesh1-geometry' with 24 faces
g mesh1_mesh1-geometry
usemtl material_0_2_8
f  41/1/1 42/2/1 43/3/1
f  42/2/1 41/1/1 44/4/1
f  43/3/2 42/2/2 41/1/2
f  44/4/2 41/1/2 42/2/2
f  42/2/7 45/5/7 43/6/7
f  43/6/8 45/5/8 42/2/8
f  45/7/10 41/4/10 43/2/10
f  43/2/9 41/4/9 45/7/9
f  41/8/8 46/7/8 44/2/8
f  44/2/7 46/7/7 41/8/7
f  46/9/9 42/2/9 44/10/9
f  44/10/10 42/2/10 46/9/10
f  45/5/7 42/2/7 47/7/7
f  47/7/8 42/2/8 45/5/8
f  41/4/10 45/7/10 48/11/10
f  48/11/9 45/7/9 41/4/9
f  46/7/8 41/8/8 48/12/8
f  48/12/7 41/8/7 46/7/7
f  42/2/9 46/9/9 47/7/9
f  47/7/10 46/9/10 42/2/10
f  46/10/2 45/3/2 47/2/2
f  47/2/1 45/3/1 46/10/1
f  45/3/2 46/10/2 48/13/2
f  48/13/1 46/10/1 45/3/1

# Mesh 'mesh3_mesh3-geometry' with 4 faces
g mesh3_mesh3-geometry
usemtl material_1_3_8
f  49/14/2 50/2/2 51/15/2
f  50/2/2 49/14/2 52/16/2
f  53/17/2 54/18/2 55/19/2
f  54/18/2 53/17/2 56/20/2

# Mesh 'mesh3_mesh3-geometry' with 173 faces
g mesh3_mesh3-geometry
usemtl material_1_1_8
f  51/21/1 50/22/1 49/23/1
f  52/24/1 49/23/1 50/22/1
f  51/25/11 57/26/11 50/27/11
f  51/28/2 58/29/2 49/30/2
f  49/23/1 58/31/1 51/21/1
f  52/32/12 59/33/12 49/34/12
f  60/35/2 50/36/2 52/37/2
f  52/24/1 50/22/1 60/38/1
f  50/27/11 57/26/11 61/39/11
f  62/40/11 57/26/11 51/25/11
f  63/41/2 58/29/2 51/28/2
f  51/21/1 58/31/1 63/42/1
f  49/30/2 58/29/2 55/43/2
f  55/44/1 58/31/1 49/23/1
f  64/45/12 49/34/12 59/33/12
f  52/46/3 54/47/3 59/48/3
f  65/49/2 50/36/2 60/35/2
f  60/38/1 50/22/1 65/2/1
f  60/35/2 52/37/2 54/50/2
f  54/51/1 52/24/1 60/38/1
f  61/39/11 57/26/11 66/52/11
f  61/53/3 67/54/3 50/55/3
f  62/56/4 68/57/4 57/58/4
f  69/59/11 62/40/11 51/25/11
f  58/29/2 63/41/2 70/60/2
f  70/61/1 63/42/1 58/31/1
f  51/62/4 63/63/4 69/64/4
f  55/43/2 58/29/2 53/65/2
f  53/66/1 58/31/1 55/44/1
f  55/67/4 49/68/4 71/69/4
f  64/70/4 71/69/4 49/68/4
f  64/23/1 59/24/1 71/44/1
f  72/71/3 59/48/3 54/47/3
f  50/36/2 65/49/2 73/72/2
f  73/73/1 65/2/1 50/22/1
f  65/63/4 74/74/4 60/75/4
f  60/35/2 54/50/2 56/76/2
f  56/77/1 54/51/1 60/38/1
f  75/78/11 66/52/11 57/26/11
f  61/39/11 66/52/11 76/79/11
f  73/80/3 50/55/3 67/54/3
f  67/81/1 76/82/1 61/83/1
f  61/84/2 76/85/2 67/86/2
f  77/87/4 57/58/4 68/57/4
f  62/21/1 78/88/1 68/42/1
f  62/40/11 69/59/11 78/89/11
f  70/90/11 79/91/11 63/25/11
f  70/80/3 58/92/3 79/54/3
f  80/93/4 69/64/4 63/63/4
f  53/65/2 58/29/2 81/94/2
f  81/95/1 58/31/1 53/66/1
f  55/44/1 54/51/1 53/66/1
f  55/25/11 71/96/11 54/27/11
f  72/51/1 71/44/1 59/24/1
f  72/97/11 54/27/11 71/96/11
f  73/27/11 67/39/11 65/98/11
f  82/99/4 60/75/4 74/74/4
f  74/74/4 65/63/4 83/100/4
f  56/77/1 53/66/1 54/51/1
f  60/35/2 56/76/2 84/101/2
f  84/102/1 56/77/1 60/38/1
f  75/103/3 85/104/3 66/105/3
f  75/84/2 57/106/2 86/107/2
f  87/108/11 76/79/11 66/52/11
f  76/82/1 67/81/1 88/109/1
f  88/2/2 67/86/2 76/85/2
f  77/110/2 89/111/2 57/106/2
f  77/26/11 68/40/11 89/112/11
f  90/61/1 68/42/1 78/88/1
f  91/91/11 78/89/11 69/59/11
f  80/59/11 63/25/11 79/91/11
f  92/113/3 79/54/3 58/92/3
f  80/110/2 79/111/2 69/106/2
f  81/94/2 58/29/2 93/114/2
f  93/115/1 58/31/1 81/95/1
f  81/116/4 53/117/4 94/118/4
f  88/79/11 65/98/11 67/39/11
f  95/119/11 82/120/11 60/121/11
f  60/98/12 82/122/12 95/32/12
f  96/123/4 82/99/4 74/74/4
f  88/93/4 83/100/4 65/63/4
f  74/124/1 97/125/1 83/126/1
f  83/127/2 97/128/2 74/129/2
f  56/32/12 98/33/12 53/34/12
f  56/130/3 84/131/3 98/132/3
f  60/35/2 84/101/2 99/133/2
f  99/134/1 84/102/1 60/38/1
f  100/135/3 66/105/3 85/104/3
f  75/84/2 82/38/2 85/86/2
f  86/107/2 57/106/2 89/111/2
f  82/38/2 75/84/2 86/107/2
f  87/56/4 101/136/4 76/64/4
f  102/137/2 66/138/2 87/139/2
f  87/85/1 66/22/1 102/2/1
f  76/64/4 83/100/4 88/93/4
f  90/89/11 89/112/11 68/40/11
f  90/135/3 78/105/3 89/104/3
f  78/105/3 91/53/3 103/140/3
f  91/141/2 69/106/2 79/111/2
f  91/53/3 79/54/3 92/113/3
f  92/113/3 58/92/3 104/142/3
f  93/114/2 58/29/2 105/143/2
f  105/144/1 58/31/1 93/115/1
f  93/145/4 81/116/4 106/146/4
f  107/147/4 94/118/4 53/117/4
f  94/118/4 106/146/4 81/116/4
f  82/120/11 95/119/11 86/148/11
f  86/149/12 95/32/12 82/122/12
f  60/35/2 99/133/2 95/150/2
f  95/151/1 99/134/1 60/38/1
f  101/136/4 82/99/4 96/123/4
f  108/152/12 74/124/12 96/153/12
f  96/154/11 74/155/11 108/156/11
f  97/125/1 74/124/1 109/157/1
f  109/158/2 74/129/2 97/128/2
f  97/125/11 101/159/11 83/126/11
f  83/155/12 101/154/12 97/160/12
f  107/45/12 53/34/12 98/33/12
f  110/161/3 98/132/3 84/131/3
f  84/131/3 99/162/3 110/161/3
f  66/138/2 102/137/2 100/163/2
f  100/73/1 102/2/1 66/22/1
f  100/52/11 85/78/11 102/108/11
f  111/2/2 85/86/2 82/38/2
f  89/104/3 78/105/3 86/164/3
f  101/136/4 83/100/4 76/64/4
f  87/56/4 82/99/4 101/136/4
f  102/57/4 82/99/4 87/56/4
f  103/140/3 91/53/3 92/113/3
f  112/165/3 78/105/3 103/140/3
f  86/164/3 104/142/3 58/92/3
f  104/166/2 113/167/2 92/168/2
f  105/143/2 58/29/2 99/169/2
f  99/134/1 58/31/1 105/144/1
f  93/25/11 106/96/11 105/170/11
f  107/66/1 114/171/1 94/95/1
f  106/115/1 94/95/1 115/144/1
f  86/148/11 95/119/11 58/172/11
f  58/173/12 95/32/12 86/149/12
f  99/169/2 58/29/2 95/174/2
f  95/151/1 58/31/1 99/134/1
f  101/159/2 108/152/2 96/153/2
f  96/129/1 108/175/1 101/127/1
f  74/124/12 108/152/12 109/157/12
f  109/176/11 108/156/11 74/155/11
f  109/74/4 97/100/4 108/123/4
f  101/159/11 97/125/11 116/177/11
f  116/178/12 97/160/12 101/154/12
f  98/77/1 110/102/1 107/66/1
f  117/179/3 110/161/3 99/162/3
f  111/122/11 102/108/11 85/78/11
f  111/87/4 82/99/4 102/57/4
f  78/105/3 112/165/3 86/164/3
f  103/180/12 92/181/12 118/182/12
f  103/183/1 118/184/1 112/185/1
f  112/165/3 104/142/3 86/164/3
f  119/186/2 92/168/2 113/167/2
f  104/187/11 112/188/11 113/189/11
f  105/170/11 115/190/11 99/27/11
f  115/190/11 105/170/11 106/96/11
f  114/171/1 115/144/1 94/95/1
f  114/171/1 107/66/1 110/102/1
f  108/152/2 101/159/2 116/177/2
f  116/191/1 101/127/1 108/175/1
f  116/136/4 108/123/4 97/100/4
f  117/134/1 115/144/1 110/102/1
f  117/97/11 99/27/11 115/190/11
f  119/192/12 118/182/12 92/181/12
f  120/193/1 112/185/1 118/184/1
f  119/113/3 113/142/3 118/140/3
f  120/194/11 113/189/11 112/188/11
f  114/171/1 110/102/1 115/144/1
f  120/165/3 118/140/3 113/142/3

# Mesh 'mesh3_mesh3-geometry' with 45 faces
g mesh3_mesh3-geometry
usemtl material_2_4_8
f  50/195/12 57/196/12 51/197/12
f  49/198/11 59/199/11 52/200/11
f  61/201/12 57/196/12 50/195/12
f  51/197/12 57/196/12 62/202/12
f  59/199/11 49/198/11 64/203/11
f  59/204/4 54/205/4 52/200/4
f  66/206/12 57/196/12 61/201/12
f  50/207/4 67/208/4 61/209/4
f  51/197/12 62/202/12 69/210/12
f  71/211/3 49/198/3 55/212/3
f  49/198/3 71/211/3 64/213/3
f  71/212/2 59/200/2 64/198/2
f  54/205/4 59/204/4 72/214/4
f  57/196/12 66/206/12 75/215/12
f  67/208/4 50/207/4 73/216/4
f  63/217/12 79/218/12 70/219/12
f  54/205/12 71/220/12 55/212/12
f  59/200/2 71/212/2 72/205/2
f  71/220/12 54/205/12 72/221/12
f  65/219/12 67/222/12 73/217/12
f  66/223/4 85/224/4 75/225/4
f  89/226/12 68/227/12 77/228/12
f  79/218/12 63/217/12 80/229/12
f  94/230/3 53/231/3 81/232/3
f  67/222/12 65/219/12 88/233/12
f  53/234/11 98/235/11 56/236/11
f  98/237/4 84/238/4 56/239/4
f  85/224/4 66/223/4 100/240/4
f  68/227/12 89/226/12 90/241/12
f  106/242/3 81/232/3 93/243/3
f  53/231/3 94/230/3 107/244/3
f  81/232/3 106/242/3 94/230/3
f  98/235/11 53/234/11 107/245/11
f  84/238/4 98/237/4 110/246/4
f  110/246/4 99/247/4 84/238/4
f  102/248/12 85/249/12 100/250/12
f  105/251/12 106/252/12 93/243/12
f  94/232/2 114/253/2 107/231/2
f  107/231/2 110/238/2 98/239/2
f  99/247/4 110/246/4 117/254/4
f  85/249/12 102/248/12 111/255/12
f  99/247/12 115/256/12 105/251/12
f  106/252/12 105/251/12 115/256/12
f  110/238/2 107/231/2 114/253/2
f  115/256/12 99/247/12 117/257/12

# Mesh 'mesh3_mesh3-geometry' with 20 faces
g mesh3_mesh3-geometry
usemtl material_1_5_8
f  57/258/3 68/259/3 62/260/3
f  69/261/3 63/262/3 51/263/3
f  60/264/3 74/265/3 65/262/3
f  76/266/12 66/267/12 61/268/12
f  68/259/3 57/258/3 77/2/3
f  63/262/3 69/261/3 80/269/3
f  74/265/3 60/264/3 82/20/3
f  83/270/3 65/262/3 74/265/3
f  66/267/12 76/266/12 87/271/12
f  74/265/3 82/20/3 96/272/3
f  65/262/3 83/270/3 88/269/3
f  76/261/3 101/273/3 87/260/3
f  88/269/3 83/270/3 76/261/3
f  96/272/3 82/20/3 101/273/3
f  76/261/3 83/270/3 101/273/3
f  101/273/3 82/20/3 87/260/3
f  87/260/3 82/20/3 102/259/3
f  108/272/3 97/270/3 109/265/3
f  102/259/3 82/20/3 111/2/3
f  97/270/3 108/272/3 116/273/3

# Mesh 'mesh3_mesh3-geometry' with 28 faces
g mesh3_mesh3-geometry
usemtl material_1_7_8
f  68/274/2 78/275/2 62/276/2
f  78/277/12 69/278/12 62/279/12
f  79/280/4 58/281/4 70/282/4
f  78/275/2 68/274/2 90/15/2
f  69/278/12 78/277/12 91/283/12
f  58/281/4 79/280/4 92/284/4
f  69/285/1 79/2/1 80/286/1
f  89/287/4 78/288/4 90/289/4
f  103/290/4 91/291/4 78/288/4
f  79/2/1 69/285/1 91/258/1
f  92/284/4 79/280/4 91/291/4
f  104/292/4 58/281/4 92/284/4
f  86/293/4 78/288/4 89/287/4
f  92/284/4 91/291/4 103/290/4
f  103/290/4 78/288/4 112/294/4
f  58/281/4 104/292/4 86/293/4
f  92/295/1 113/296/1 104/297/1
f  86/293/4 112/294/4 78/288/4
f  118/298/11 92/299/11 103/300/11
f  112/301/2 118/302/2 103/303/2
f  86/293/4 104/292/4 112/294/4
f  113/296/1 92/295/1 119/304/1
f  113/305/12 112/306/12 104/307/12
f  92/299/11 118/298/11 119/308/11
f  118/302/2 112/301/2 120/309/2
f  118/290/4 113/292/4 119/284/4
f  112/306/12 113/305/12 120/310/12
f  113/292/4 118/290/4 120/294/4

# Mesh 'mesh3_mesh3-geometry' with 6 faces
g mesh3_mesh3-geometry
usemtl material_3_6_8
f  86/311/1 57/312/1 75/313/1
f  57/312/1 89/314/1 77/315/1
f  85/316/1 82/317/1 75/313/1
f  89/314/1 57/312/1 86/311/1
f  86/311/1 75/313/1 82/317/1
f  82/317/1 85/316/1 111/318/1

# Mesh 'mesh3_mesh3-geometry' with 2 faces
g mesh3_mesh3-geometry
usemtl material_1_9_8
f  115/20/2 94/15/2 106/17/2
f  94/15/2 115/20/2 114/2/2

# Mesh 'mesh3_mesh3-geometry' with 2 faces
g mesh3_mesh3-geometry
usemtl material_1_8_8
f  110/2/2 115/17/2 117/20/2
f  115/17/2 110/2/2 114/15/2

# Mesh 'mesh4_mesh4-geometry' with 1 faces
g mesh4_mesh4-geometry
usemtl material_4_0
l  121 122

# Mesh 'mesh5_mesh5-geometry' with 1 faces
g mesh5_mesh5-geometry
usemtl material_4_0
l  123 124

