# File produced by Open Asset Import Library (http://www.assimp.sf.net)
# (assimp v3.2.202087883)

mtllib model_normalized.mtl

# 84 vertex positions
v 0.487994 0.042603 -0.057187
v -0.487994 0.042603 0.057187
v -0.487994 0.042603 -0.057187
v 0.487994 0.042603 0.057187
v -0.487994 0.057852 -0.057187
v 0.487994 0.057852 0.057187
v -0.487994 0.057852 0.057187
v 0.487994 0.057852 -0.057187
v 0.487994 0.022270 0.057187
v -0.487994 0.022270 0.072437
v -0.487994 0.022270 0.057187
v 0.487994 0.022270 0.072437
v 0.487994 0.057852 0.072437
v -0.487994 0.057852 0.072437
v 0.487994 0.022270 -0.072437
v -0.487994 0.022270 -0.057187
v -0.487994 0.022270 -0.072437
v 0.487994 0.022270 -0.057187
v -0.487994 0.057852 -0.072437
v 0.487994 0.057852 -0.072437
v -0.289746 0.042603 -0.036854
v -0.325329 0.042603 -0.057187
v -0.325329 0.042603 -0.036854
v -0.289746 0.042603 -0.057187
v -0.325329 -0.104812 -0.036854
v -0.289746 0.022270 -0.057187
v -0.325329 0.022270 -0.057187
v -0.289746 -0.104812 -0.036854
v -0.289746 -0.104812 -0.072437
v -0.325329 -0.104812 -0.072437
v -0.289746 0.022270 -0.072437
v -0.325329 0.022270 -0.072437
v 0.325329 0.042603 -0.036854
v 0.289746 0.042603 -0.057187
v 0.289746 0.042603 -0.036854
v 0.325329 0.042603 -0.057187
v 0.289746 -0.104812 -0.036854
v 0.325329 0.022270 -0.057187
v 0.289746 0.022270 -0.057187
v 0.325329 -0.104812 -0.036854
v 0.325329 -0.104812 -0.072437
v 0.289746 -0.104812 -0.072437
v 0.325329 0.022270 -0.072437
v 0.289746 0.022270 -0.072437
v 0.325329 -0.064146 -0.036854
v 0.325329 -0.048896 0.036854
v 0.325329 -0.064146 0.036854
v 0.325329 -0.048896 -0.036854
v -0.325329 -0.064146 0.036854
v -0.325329 -0.048896 -0.036854
v -0.325329 -0.048896 0.036854
v -0.325329 -0.064146 -0.036854
v 0.325329 0.027353 -0.036854
v 0.325329 0.042603 0.036854
v 0.325329 0.027353 0.036854
v 0.325329 0.042603 -0.036854
v -0.325329 0.027353 0.036854
v -0.325329 0.042603 -0.036854
v -0.325329 0.042603 0.036854
v -0.325329 0.027353 -0.036854
v -0.325329 0.042603 0.036854
v -0.325329 0.042603 0.057187
v -0.289746 0.042603 0.036854
v -0.325329 -0.104812 0.036854
v -0.289746 0.042603 0.057187
v -0.325329 0.022270 0.057187
v -0.289746 0.022270 0.057187
v -0.289746 -0.104812 0.036854
v -0.325329 -0.104812 0.072437
v -0.289746 -0.104812 0.072437
v -0.325329 0.022270 0.072437
v -0.289746 0.022270 0.072437
v 0.289746 0.042603 0.036854
v 0.289746 0.042603 0.057187
v 0.325329 0.042603 0.036854
v 0.289746 -0.104812 0.036854
v 0.325329 0.042603 0.057187
v 0.289746 0.022270 0.057187
v 0.325329 0.022270 0.057187
v 0.325329 -0.104812 0.036854
v 0.289746 -0.104812 0.072437
v 0.325329 -0.104812 0.072437
v 0.289746 0.022270 0.072437
v 0.325329 0.022270 0.072437

# 0 UV coordinates

# 6 vertex normals
vn 0 -0.0254 0
vn 0 0.0254 0
vn -0.0254 0 0
vn 0.0254 0 0
vn 0 0 -0.0254
vn -0 -0 0.0254

# Mesh 'mesh1_mesh1-geometry' with 24 faces
g mesh1_mesh1-geometry
usemtl material_0_24
f  1//1 2//1 3//1
f  2//1 1//1 4//1
f  3//2 2//2 1//2
f  4//2 1//2 2//2
f  2//3 5//3 3//3
f  3//4 5//4 2//4
f  5//5 1//5 3//5
f  3//6 1//6 5//6
f  1//4 6//4 4//4
f  4//3 6//3 1//3
f  6//6 2//6 4//6
f  4//5 2//5 6//5
f  5//3 2//3 7//3
f  7//4 2//4 5//4
f  1//5 5//5 8//5
f  8//6 5//6 1//6
f  6//4 1//4 8//4
f  8//3 1//3 6//3
f  2//6 6//6 7//6
f  7//5 6//5 2//5
f  6//2 5//2 7//2
f  7//1 5//1 6//1
f  5//2 6//2 8//2
f  8//1 6//1 5//1

# Mesh 'mesh2_mesh2-geometry' with 12 faces
g mesh2_mesh2-geometry
usemtl material_0_0
l  3 2
l  1 3
l  3 5
l  2 4
l  2 7
l  4 1
l  1 8
l  8 5
l  5 7
l  4 6
l  7 6
l  6 8

# Mesh 'mesh3_mesh3-geometry' with 24 faces
g mesh3_mesh3-geometry
usemtl material_0_24
f  9//1 10//1 11//1
f  10//1 9//1 12//1
f  11//2 10//2 9//2
f  12//2 9//2 10//2
f  10//3 7//3 11//3
f  11//4 7//4 10//4
f  7//5 9//5 11//5
f  11//6 9//6 7//6
f  9//4 13//4 12//4
f  12//3 13//3 9//3
f  13//6 10//6 12//6
f  12//5 10//5 13//5
f  7//3 10//3 14//3
f  14//4 10//4 7//4
f  9//5 7//5 6//5
f  6//6 7//6 9//6
f  13//4 9//4 6//4
f  6//3 9//3 13//3
f  10//6 13//6 14//6
f  14//5 13//5 10//5
f  13//2 7//2 14//2
f  14//1 7//1 13//1
f  7//2 13//2 6//2
f  6//1 13//1 7//1

# Mesh 'mesh4_mesh4-geometry' with 12 faces
g mesh4_mesh4-geometry
usemtl material_0_0
l  12 9
l  10 12
l  13 12
l  9 11
l  6 9
l  11 10
l  14 10
l  13 6
l  14 13
l  7 11
l  6 7
l  7 14

# Mesh 'mesh3_mesh3-geometry' with 24 faces
g mesh3_mesh3-geometry
usemtl material_0_24
f  15//1 16//1 17//1
f  16//1 15//1 18//1
f  17//2 16//2 15//2
f  18//2 15//2 16//2
f  16//3 19//3 17//3
f  17//4 19//4 16//4
f  19//5 15//5 17//5
f  17//6 15//6 19//6
f  15//4 8//4 18//4
f  18//3 8//3 15//3
f  8//6 16//6 18//6
f  18//5 16//5 8//5
f  19//3 16//3 5//3
f  5//4 16//4 19//4
f  15//5 19//5 20//5
f  20//6 19//6 15//6
f  8//4 15//4 20//4
f  20//3 15//3 8//3
f  16//6 8//6 5//6
f  5//5 8//5 16//5
f  8//2 19//2 5//2
f  5//1 19//1 8//1
f  19//2 8//2 20//2
f  20//1 8//1 19//1

# Mesh 'mesh4_mesh4-geometry' with 12 faces
g mesh4_mesh4-geometry
usemtl material_0_0
l  18 15
l  16 18
l  8 18
l  15 17
l  20 15
l  17 16
l  5 16
l  8 20
l  5 8
l  19 17
l  20 19
l  19 5

# Mesh 'mesh5_mesh5-geometry' with 40 faces
g mesh5_mesh5-geometry
usemtl material_0_24
f  21//2 22//2 23//2
f  22//2 21//2 24//2
f  23//1 22//1 21//1
f  24//1 21//1 22//1
f  22//3 25//3 23//3
f  23//4 25//4 22//4
f  25//6 21//6 23//6
f  23//5 21//5 25//5
f  24//4 21//4 26//4
f  26//3 21//3 24//3
f  26//5 22//5 24//5
f  24//6 22//6 26//6
f  25//3 22//3 27//3
f  27//4 22//4 25//4
f  21//6 25//6 28//6
f  28//5 25//5 21//5
f  21//4 29//4 26//4
f  26//3 29//3 21//3
f  22//5 26//5 27//5
f  27//6 26//6 22//6
f  25//3 27//3 30//3
f  30//4 27//4 25//4
f  25//1 29//1 28//1
f  28//2 29//2 25//2
f  29//4 21//4 28//4
f  28//3 21//3 29//3
f  26//4 29//4 31//4
f  31//3 29//3 26//3
f  26//2 32//2 27//2
f  27//1 32//1 26//1
f  30//3 27//3 32//3
f  32//4 27//4 30//4
f  29//1 25//1 30//1
f  30//2 25//2 29//2
f  29//5 32//5 31//5
f  31//6 32//6 29//6
f  32//2 26//2 31//2
f  31//1 26//1 32//1
f  32//5 29//5 30//5
f  30//6 29//6 32//6

# Mesh 'mesh6_mesh6-geometry' with 18 faces
g mesh6_mesh6-geometry
usemtl material_0_0
l  21 24
l  23 21
l  21 28
l  24 26
l  24 22
l  22 23
l  23 25
l  28 29
l  25 28
l  26 27
l  31 26
l  22 27
l  30 25
l  29 30
l  31 29
l  32 27
l  31 32
l  32 30

# Mesh 'mesh5_mesh5-geometry' with 40 faces
g mesh5_mesh5-geometry
usemtl material_0_24
f  33//2 34//2 35//2
f  34//2 33//2 36//2
f  35//1 34//1 33//1
f  36//1 33//1 34//1
f  34//3 37//3 35//3
f  35//4 37//4 34//4
f  37//6 33//6 35//6
f  35//5 33//5 37//5
f  36//4 33//4 38//4
f  38//3 33//3 36//3
f  38//5 34//5 36//5
f  36//6 34//6 38//6
f  37//3 34//3 39//3
f  39//4 34//4 37//4
f  33//6 37//6 40//6
f  40//5 37//5 33//5
f  33//4 41//4 38//4
f  38//3 41//3 33//3
f  34//5 38//5 39//5
f  39//6 38//6 34//6
f  37//3 39//3 42//3
f  42//4 39//4 37//4
f  37//1 41//1 40//1
f  40//2 41//2 37//2
f  41//4 33//4 40//4
f  40//3 33//3 41//3
f  38//4 41//4 43//4
f  43//3 41//3 38//3
f  38//2 44//2 39//2
f  39//1 44//1 38//1
f  42//3 39//3 44//3
f  44//4 39//4 42//4
f  41//1 37//1 42//1
f  42//2 37//2 41//2
f  41//5 44//5 43//5
f  43//6 44//6 41//6
f  44//2 38//2 43//2
f  43//1 38//1 44//1
f  44//5 41//5 42//5
f  42//6 41//6 44//6

# Mesh 'mesh6_mesh6-geometry' with 18 faces
g mesh6_mesh6-geometry
usemtl material_0_0
l  33 36
l  35 33
l  33 40
l  36 38
l  36 34
l  34 35
l  35 37
l  40 41
l  37 40
l  38 39
l  43 38
l  34 39
l  42 37
l  41 42
l  43 41
l  44 39
l  43 44
l  44 42

# Mesh 'mesh7_mesh7-geometry' with 24 faces
g mesh7_mesh7-geometry
usemtl material_0_24
f  45//4 46//4 47//4
f  46//4 45//4 48//4
f  47//3 46//3 45//3
f  48//3 45//3 46//3
f  46//6 49//6 47//6
f  47//5 49//5 46//5
f  49//1 45//1 47//1
f  47//2 45//2 49//2
f  45//5 50//5 48//5
f  48//6 50//6 45//6
f  50//2 46//2 48//2
f  48//1 46//1 50//1
f  49//6 46//6 51//6
f  51//5 46//5 49//5
f  45//1 49//1 52//1
f  52//2 49//2 45//2
f  50//5 45//5 52//5
f  52//6 45//6 50//6
f  46//2 50//2 51//2
f  51//1 50//1 46//1
f  50//3 49//3 51//3
f  51//4 49//4 50//4
f  49//3 50//3 52//3
f  52//4 50//4 49//4

# Mesh 'mesh8_mesh8-geometry' with 12 faces
g mesh8_mesh8-geometry
usemtl material_0_0
l  47 45
l  46 47
l  47 49
l  45 48
l  45 52
l  48 46
l  46 51
l  49 52
l  51 49
l  48 50
l  52 50
l  50 51

# Mesh 'mesh7_mesh7-geometry' with 24 faces
g mesh7_mesh7-geometry
usemtl material_0_24
f  53//4 54//4 55//4
f  54//4 53//4 56//4
f  55//3 54//3 53//3
f  56//3 53//3 54//3
f  54//6 57//6 55//6
f  55//5 57//5 54//5
f  57//1 53//1 55//1
f  55//2 53//2 57//2
f  53//5 58//5 56//5
f  56//6 58//6 53//6
f  58//2 54//2 56//2
f  56//1 54//1 58//1
f  57//6 54//6 59//6
f  59//5 54//5 57//5
f  53//1 57//1 60//1
f  60//2 57//2 53//2
f  58//5 53//5 60//5
f  60//6 53//6 58//6
f  54//2 58//2 59//2
f  59//1 58//1 54//1
f  58//3 57//3 59//3
f  59//4 57//4 58//4
f  57//3 58//3 60//3
f  60//4 58//4 57//4

# Mesh 'mesh8_mesh8-geometry' with 12 faces
g mesh8_mesh8-geometry
usemtl material_0_0
l  55 53
l  54 55
l  55 57
l  53 56
l  53 60
l  56 54
l  54 59
l  57 60
l  59 57
l  56 58
l  60 58
l  58 59

# Mesh 'mesh9_mesh9-geometry' with 40 faces
g mesh9_mesh9-geometry
usemtl material_0_24
f  61//2 62//2 63//2
f  63//1 62//1 61//1
f  61//3 64//3 62//3
f  62//4 64//4 61//4
f  65//2 63//2 62//2
f  62//1 63//1 65//1
f  61//5 63//5 64//5
f  64//6 63//6 61//6
f  66//3 62//3 64//3
f  64//4 62//4 66//4
f  67//4 63//4 65//4
f  65//3 63//3 67//3
f  65//6 62//6 67//6
f  67//5 62//5 65//5
f  68//5 64//5 63//5
f  63//6 64//6 68//6
f  66//6 67//6 62//6
f  62//5 67//5 66//5
f  69//3 66//3 64//3
f  64//4 66//4 69//4
f  67//4 70//4 63//4
f  63//3 70//3 67//3
f  68//1 70//1 64//1
f  64//2 70//2 68//2
f  68//4 63//4 70//4
f  70//3 63//3 68//3
f  66//2 71//2 67//2
f  67//1 71//1 66//1
f  71//3 66//3 69//3
f  69//4 66//4 71//4
f  69//1 64//1 70//1
f  70//2 64//2 69//2
f  72//4 70//4 67//4
f  67//3 70//3 72//3
f  72//2 67//2 71//2
f  71//1 67//1 72//1
f  69//6 70//6 71//6
f  71//5 70//5 69//5
f  72//6 71//6 70//6
f  70//5 71//5 72//5

# Mesh 'mesh10_mesh10-geometry' with 18 faces
g mesh10_mesh10-geometry
usemtl material_0_0
l  63 65
l  61 63
l  63 68
l  65 67
l  65 62
l  62 61
l  61 64
l  68 70
l  64 68
l  67 66
l  72 67
l  62 66
l  69 64
l  70 69
l  72 70
l  71 66
l  72 71
l  71 69

# Mesh 'mesh9_mesh9-geometry' with 40 faces
g mesh9_mesh9-geometry
usemtl material_0_24
f  73//2 74//2 75//2
f  75//1 74//1 73//1
f  73//3 76//3 74//3
f  74//4 76//4 73//4
f  77//2 75//2 74//2
f  74//1 75//1 77//1
f  73//5 75//5 76//5
f  76//6 75//6 73//6
f  78//3 74//3 76//3
f  76//4 74//4 78//4
f  79//4 75//4 77//4
f  77//3 75//3 79//3
f  77//6 74//6 79//6
f  79//5 74//5 77//5
f  80//5 76//5 75//5
f  75//6 76//6 80//6
f  78//6 79//6 74//6
f  74//5 79//5 78//5
f  81//3 78//3 76//3
f  76//4 78//4 81//4
f  79//4 82//4 75//4
f  75//3 82//3 79//3
f  80//1 82//1 76//1
f  76//2 82//2 80//2
f  80//4 75//4 82//4
f  82//3 75//3 80//3
f  78//2 83//2 79//2
f  79//1 83//1 78//1
f  83//3 78//3 81//3
f  81//4 78//4 83//4
f  81//1 76//1 82//1
f  82//2 76//2 81//2
f  84//4 82//4 79//4
f  79//3 82//3 84//3
f  84//2 79//2 83//2
f  83//1 79//1 84//1
f  81//6 82//6 83//6
f  83//5 82//5 81//5
f  84//6 83//6 82//6
f  82//5 83//5 84//5

# Mesh 'mesh10_mesh10-geometry' with 18 faces
g mesh10_mesh10-geometry
usemtl material_0_0
l  75 77
l  73 75
l  75 80
l  77 79
l  77 74
l  74 73
l  73 76
l  80 82
l  76 80
l  79 78
l  84 79
l  74 78
l  81 76
l  82 81
l  84 82
l  83 78
l  84 83
l  83 81

