# File produced by Open Asset Import Library (http://www.assimp.sf.net)
# (assimp v3.2.202087883)

mtllib model_normalized.mtl

# 72 vertex positions
v 0.417989 -0.194433 0.037711
v 0.446907 -0.194433 0.050856
v 0.417989 -0.194433 0.050856
v 0.446907 -0.194433 0.037711
v 0.417989 -0.028542 0.050856
v 0.417989 -0.028542 0.037711
v 0.446907 -0.028542 0.037711
v 0.446907 -0.015670 0.050856
v -0.000000 -0.015670 0.050856
v -0.000000 -0.028542 -0.141051
v 0.446907 -0.015398 -0.141051
v -0.000000 0.055080 0.053790
v -0.000000 -0.028542 0.050856
v 0.417989 -0.028542 -0.127907
v 0.446907 -0.028542 -0.127907
v 0.446907 -0.015398 0.037711
v 0.446907 0.055080 0.053790
v 0.417989 -0.028542 -0.141051
v 0.446907 -0.194433 -0.130536
v -0.000000 -0.015398 0.037711
v -0.000000 0.125344 0.062573
v -0.000000 -0.015398 -0.141051
v 0.417989 -0.194433 -0.141051
v 0.446907 -0.194433 -0.141051
v 0.446907 0.056169 0.040680
v 0.446907 0.125344 0.062573
v 0.417989 -0.194433 -0.130536
v -0.000000 0.056169 0.040680
v 0.149655 0.187781 0.075702
v 0.446907 0.127515 0.049598
v 0.446907 0.194639 0.077144
v -0.000000 0.187781 0.075702
v -0.000000 0.127515 0.049598
v 0.446907 0.197343 0.064282
v 0.149655 0.190485 0.062839
v -0.000000 0.190485 0.062839
v -0.417989 -0.194433 0.050856
v -0.446907 -0.194433 0.050856
v -0.417989 -0.194433 0.037711
v -0.417989 -0.028542 0.050856
v -0.446907 -0.194433 0.037711
v -0.417989 -0.028542 0.037711
v -0.446907 -0.015670 0.050856
v -0.446907 -0.028542 0.037711
v -0.000000 -0.015670 0.050856
v -0.000000 -0.028542 -0.141051
v -0.000000 0.055080 0.053790
v -0.000000 -0.028542 0.050856
v -0.446907 -0.015398 -0.141051
v -0.417989 -0.028542 -0.127907
v -0.446907 0.055080 0.053790
v -0.446907 -0.015398 0.037711
v -0.446907 -0.028542 -0.127907
v -0.417989 -0.028542 -0.141051
v -0.000000 0.125344 0.062573
v -0.000000 -0.015398 0.037711
v -0.446907 -0.194433 -0.130536
v -0.000000 -0.015398 -0.141051
v -0.417989 -0.194433 -0.141051
v -0.446907 0.056169 0.040680
v -0.446907 0.125344 0.062573
v -0.446907 -0.194433 -0.141051
v -0.417989 -0.194433 -0.130536
v -0.149655 0.187781 0.075702
v -0.000000 0.056169 0.040680
v -0.446907 0.127515 0.049598
v -0.000000 0.187781 0.075702
v -0.446907 0.194639 0.077144
v -0.149655 0.190485 0.062839
v -0.446907 0.197343 0.064282
v -0.000000 0.127515 0.049598
v -0.000000 0.190485 0.062839

# 82 UV coordinates
vt -0.052083 0.007639 0
vt -0.034722 0 0
vt -0.034722 0.007639 0
vt -0.052083 0 0
vt -0.007639 0 0
vt 0 0 0
vt -0.007639 0.21911 0
vt -0.052083 0.21911 0
vt 0.007639 0 0
vt 0 0.21911 0
vt 0.052083 0.21911 0
vt 0.034722 0 0
vt 0.052083 0 0
vt 0 0.236111 0
vt -0.034722 0.21911 0
vt 0.007639 0.21911 0
vt 0.034722 0.236111 0
vt -0.118056 0.236111 0
vt -0.288194 0.118056 0
vt 0.288194 0.236471 0
vt 0 0.234469 0
vt -0.118056 0.327997 0
vt -0.118056 0.234469 0
vt -0.118056 0.21911 0
vt -0.034722 0.118056 0
vt -0.270833 0.007639 0
vt 0.270833 0.21911 0
vt 0.052083 0.236471 0
vt 0 0.327997 0
vt -0.288194 0.007639 0
vt -0.270833 0 0
vt 0.274306 0 0
vt 0.288194 0 0
vt 0.052083 0.118056 0
vt 0.030846 0.329558 0
vt -0 0.323187 0
vt -0.118056 0.416714 0
vt -0.118056 0.323187 0
vt 0.118056 0.236471 0
vt 0.118056 0.21911 0
vt -0.288194 0 0
vt -0.270833 0.21911 0
vt -0.288194 0.21911 0
vt -0.007639 0.214791 0
vt 0 -0.004346 0
vt 0 0.214791 0
vt 0.288194 0.118056 0
vt 0.118056 0.23411 0
vt 0 0.328717 0
vt 0 0.23411 0
vt 0.048163 0.330997 0
vt -0 0.416714 0
vt 0 0.236471 0
vt -0.274306 0 0
vt -0.007639 -0.004346 0
vt 0.118056 0.328717 0
vt 0.019246 0.422363 0
vt 0 0.409364 0
vt -0.078522 0.493634 0
vt -0.118056 0.409364 0
vt -0.274306 0.007639 0
vt 0.118056 0.322467 0
vt 0 0.417435 0
vt 0 0.322467 0
vt 0.036384 0.425231 0
vt 0 0.502891 0
vt -0.118056 0.493634 0
vt 0.118056 0.417435 0
vt 0 0.513889 0
vt 0 0.121032 0
vt -0.069081 0.08257 0
vt -0.008445 0.1362 0
vt -0.078522 0.105747 0
vt -0.118056 0.105747 0
vt -0.078522 0.123108 0
vt 0.118056 0.408644 0
vt -0 0.408644 0
vt 0.01699 0.517461 0
vt -0.077526 0.097739 0
vt -0.118056 0.123108 0
vt 0.078522 0.493634 0
vt 0.118056 0.493634 0

# 26 vertex normals
vn 0 -0.0254 0
vn 0 0.0254 0
vn 0 0 0.0254
vn 0 0 -0.0254
vn -0.127 0 0
vn 0.127 -0 0
vn 0 -0.00105258 0.0253782
vn -0 -0.00210332 0.0253127
vn 0 0.00105258 -0.0253782
vn 0 0.00210332 -0.0253127
vn 0 -0.00419222 0.0250517
vn 0 0.00419222 -0.0250517
vn -0 -0.000402463 0.0253968
vn 0 0.000402463 -0.0253968
vn 0 -0.00522676 0.0248564
vn 0 0.00522676 -0.0248564
vn 0.0148684 -0.0246855 -0.00519082
vn 0.00744703 -0.0248136 -0.00521777
vn 0 -0.0248564 -0.00522676
vn -0.0148684 0.0246855 0.00519082
vn -0.00744703 0.0248136 0.00521777
vn 0 0.0248564 0.00522676
vn -0.00744703 -0.0248136 -0.00521777
vn -0.0148684 -0.0246855 -0.00519082
vn 0.00744703 0.0248136 0.00521777
vn 0.0148684 0.0246855 0.00519082

# Mesh 'mesh1_mesh1-geometry' with 108 faces
g mesh1_mesh1-geometry
usemtl material_0_1_8
f  1/1/1 2/2/1 3/3/1
f  2/2/1 1/1/1 4/4/1
f  3/3/2 2/2/2 1/1/2
f  4/4/2 1/1/2 2/2/2
f  3/5/3 2/6/3 5/7/3
f  5/7/4 2/6/4 3/5/4
f  3/2/5 6/8/5 1/4/5
f  1/4/6 6/8/6 3/2/6
f  1/9/4 7/10/4 4/6/4
f  4/6/3 7/10/3 1/9/3
f  7/11/6 2/12/6 4/13/6
f  4/13/5 2/12/5 7/11/5
f  8/14/3 5/7/3 2/6/3
f  2/6/4 5/7/4 8/14/4
f  6/8/5 3/2/5 5/15/5
f  5/15/6 3/2/6 6/8/6
f  7/10/4 1/9/4 6/16/4
f  6/16/3 1/9/3 7/10/3
f  2/12/6 7/11/6 8/17/6
f  8/17/5 7/11/5 2/12/5
f  5/7/3 8/14/3 9/18/3
f  9/18/4 8/14/4 5/7/4
f  6/1/2 10/19/2 5/3/2
f  7/4/2 10/19/2 6/1/2
f  7/11/6 11/20/6 8/17/6
f  8/17/5 11/20/5 7/11/5
f  8/21/7 12/22/8 9/23/7
f  9/23/9 12/22/10 8/21/9
f  5/7/3 9/18/3 13/24/3
f  13/24/4 9/18/4 5/7/4
f  13/25/2 5/3/2 10/19/2
f  14/26/2 10/19/2 7/4/2
f  15/27/6 11/20/6 7/11/6
f  7/11/5 11/20/5 15/27/5
f  8/17/6 11/20/6 16/28/6
f  16/28/5 11/20/5 8/17/5
f  12/22/8 8/21/7 17/29/8
f  17/29/10 8/21/9 12/22/10
f  18/30/2 10/19/2 14/26/2
f  14/26/2 7/4/2 15/31/2
f  19/32/6 11/20/6 15/27/6
f  15/27/5 11/20/5 19/32/5
f  11/33/2 20/34/2 16/13/2
f  16/13/1 20/34/1 11/33/1
f  16/28/6 17/35/6 8/17/6
f  8/17/5 17/35/5 16/28/5
f  17/36/8 21/37/11 12/38/8
f  12/38/10 21/37/12 17/36/10
f  22/39/4 18/16/4 10/40/4
f  10/40/3 18/16/3 22/39/3
f  23/41/5 14/42/5 18/43/5
f  18/43/6 14/42/6 23/41/6
f  14/44/13 19/45/13 15/46/13
f  15/46/14 19/45/14 14/44/14
f  11/20/6 19/32/6 24/33/6
f  24/33/5 19/32/5 11/20/5
f  20/34/2 11/33/2 22/47/2
f  22/47/1 11/33/1 20/34/1
f  20/48/9 25/49/10 16/50/9
f  16/50/7 25/49/8 20/48/7
f  17/35/6 16/28/6 25/51/6
f  25/51/5 16/28/5 17/35/5
f  21/37/11 17/36/8 26/52/11
f  26/52/12 17/36/10 21/37/12
f  11/53/4 18/16/4 22/39/4
f  22/39/3 18/16/3 11/53/3
f  14/42/5 23/41/5 27/54/5
f  27/54/6 23/41/6 14/42/6
f  11/53/4 23/9/4 18/16/4
f  18/16/3 23/9/3 11/53/3
f  19/45/13 14/44/13 27/55/13
f  27/55/14 14/44/14 19/45/14
f  19/54/1 23/30/1 24/41/1
f  24/41/2 23/30/2 19/54/2
f  23/9/4 11/53/4 24/6/4
f  24/6/3 11/53/3 23/9/3
f  25/49/10 20/48/9 28/56/10
f  28/56/8 20/48/7 25/49/8
f  17/35/6 25/51/6 26/57/6
f  26/57/5 25/51/5 17/35/5
f  26/58/11 29/59/15 21/60/11
f  21/60/12 29/59/16 26/58/12
f  23/30/1 19/54/1 27/61/1
f  27/61/2 19/54/2 23/30/2
f  28/62/10 30/63/12 25/64/10
f  25/64/8 30/63/11 28/62/8
f  26/57/6 25/51/6 30/65/6
f  30/65/5 25/51/5 26/57/5
f  29/59/15 26/58/11 31/66/15
f  31/66/16 26/58/12 29/59/16
f  21/60/11 29/59/15 32/67/15
f  32/67/16 29/59/16 21/60/12
f  30/63/12 28/62/10 33/68/12
f  33/68/11 28/62/8 30/63/11
f  26/57/6 30/65/6 31/69/6
f  31/69/5 30/65/5 26/57/5
f  31/70/17 29/71/18 34/72/17
f  29/73/18 32/74/19 35/75/18
f  33/76/12 34/66/16 30/77/12
f  30/77/11 34/66/15 33/76/11
f  31/69/6 30/65/6 34/78/6
f  34/78/5 30/65/5 31/69/5
f  35/79/18 34/72/17 29/71/18
f  36/80/19 35/75/18 32/74/19
f  34/66/16 33/76/12 35/81/16
f  35/81/15 33/76/11 34/66/15
f  35/81/16 33/76/12 36/82/16
f  36/82/15 33/76/11 35/81/15

# Mesh 'mesh1_mesh1-geometry' with 10 faces
g mesh1_mesh1-geometry
usemtl material_1_24
f  5//1 10//1 6//1
f  6//1 10//1 7//1
f  10//1 5//1 13//1
f  7//1 10//1 14//1
f  14//1 10//1 18//1
f  15//1 7//1 14//1
f  34//20 29//21 31//20
f  35//21 32//22 29//21
f  29//21 34//20 35//21
f  32//22 35//21 36//22

# Mesh 'mesh2_mesh2-geometry' with 4 faces
g mesh2_mesh2-geometry
usemtl material_2_0
l  1 3
l  4 1
l  2 3
l  4 2

# Mesh 'mesh3_mesh3-geometry' with 1 faces
g mesh3_mesh3-geometry
usemtl material_2_0
l  24 19

# Mesh 'mesh4_mesh4-geometry' with 1 faces
g mesh4_mesh4-geometry
usemtl material_2_0
l  27 23

# Mesh 'mesh5_mesh5-geometry' with 108 faces
g mesh5_mesh5-geometry
usemtl material_0_1_8
f  37/3/1 38/2/1 39/1/1
f  39/1/2 38/2/2 37/3/2
f  40/7/3 38/6/3 37/5/3
f  37/5/4 38/6/4 40/7/4
f  41/4/1 39/1/1 38/2/1
f  38/2/2 39/1/2 41/4/2
f  39/4/6 42/8/6 37/2/6
f  37/2/5 42/8/5 39/4/5
f  38/6/3 40/7/3 43/14/3
f  43/14/4 40/7/4 38/6/4
f  40/15/6 37/2/6 42/8/6
f  42/8/5 37/2/5 40/15/5
f  41/6/4 44/10/4 39/9/4
f  39/9/3 44/10/3 41/6/3
f  41/13/5 38/12/5 44/11/5
f  44/11/6 38/12/6 41/13/6
f  42/16/4 39/9/4 44/10/4
f  44/10/3 39/9/3 42/16/3
f  45/18/3 43/14/3 40/7/3
f  40/7/4 43/14/4 45/18/4
f  43/17/5 44/11/5 38/12/5
f  38/12/6 44/11/6 43/17/6
f  40/3/2 46/19/2 42/1/2
f  42/1/2 46/19/2 44/4/2
f  45/23/7 47/22/8 43/21/7
f  43/21/9 47/22/10 45/23/9
f  48/24/3 45/18/3 40/7/3
f  40/7/4 45/18/4 48/24/4
f  43/17/5 49/20/5 44/11/5
f  44/11/6 49/20/6 43/17/6
f  46/19/2 40/3/2 48/25/2
f  44/4/2 46/19/2 50/26/2
f  51/29/8 43/21/7 47/22/8
f  47/22/10 43/21/9 51/29/10
f  52/28/5 49/20/5 43/17/5
f  43/17/6 49/20/6 52/28/6
f  44/11/5 49/20/5 53/27/5
f  53/27/6 49/20/6 44/11/6
f  50/26/2 46/19/2 54/30/2
f  53/31/2 44/4/2 50/26/2
f  43/17/5 51/35/5 52/28/5
f  52/28/6 51/35/6 43/17/6
f  47/38/8 55/37/11 51/36/8
f  51/36/10 55/37/12 47/38/10
f  52/13/2 56/34/2 49/33/2
f  49/33/1 56/34/1 52/13/1
f  53/27/5 49/20/5 57/32/5
f  57/32/6 49/20/6 53/27/6
f  46/40/4 54/16/4 58/39/4
f  58/39/3 54/16/3 46/40/3
f  54/43/6 50/42/6 59/41/6
f  59/41/5 50/42/5 54/43/5
f  53/46/13 57/45/13 50/44/13
f  50/44/14 57/45/14 53/46/14
f  60/51/5 52/28/5 51/35/5
f  51/35/6 52/28/6 60/51/6
f  61/52/11 51/36/8 55/37/11
f  55/37/12 51/36/10 61/52/12
f  52/50/9 60/49/10 56/48/9
f  56/48/7 60/49/8 52/50/7
f  58/47/2 49/33/2 56/34/2
f  56/34/1 49/33/1 58/47/1
f  62/33/5 57/32/5 49/20/5
f  49/20/6 57/32/6 62/33/6
f  58/39/4 54/16/4 49/53/4
f  49/53/3 54/16/3 58/39/3
f  63/54/6 59/41/6 50/42/6
f  50/42/5 59/41/5 63/54/5
f  54/16/4 59/9/4 49/53/4
f  49/53/3 59/9/3 54/16/3
f  63/55/13 50/44/13 57/45/13
f  57/45/14 50/44/14 63/55/14
f  61/57/5 60/51/5 51/35/5
f  51/35/6 60/51/6 61/57/6
f  55/60/11 64/59/15 61/58/11
f  61/58/12 64/59/16 55/60/12
f  65/56/10 56/48/9 60/49/10
f  60/49/8 56/48/7 65/56/8
f  62/41/1 59/30/1 57/54/1
f  57/54/2 59/30/2 62/41/2
f  62/6/4 49/53/4 59/9/4
f  59/9/3 49/53/3 62/6/3
f  63/61/1 57/54/1 59/30/1
f  59/30/2 57/54/2 63/61/2
f  66/65/5 60/51/5 61/57/5
f  61/57/6 60/51/6 66/65/6
f  67/67/15 64/59/15 55/60/11
f  55/60/12 64/59/16 67/67/16
f  68/66/15 61/58/11 64/59/15
f  64/59/16 61/58/12 68/66/16
f  60/64/10 66/63/12 65/62/10
f  65/62/8 66/63/11 60/64/8
f  68/69/5 66/65/5 61/57/5
f  61/57/6 66/65/6 68/69/6
f  69/75/23 67/74/19 64/73/23
f  70/72/24 64/71/23 68/70/24
f  71/68/12 65/62/10 66/63/12
f  66/63/11 65/62/8 71/68/11
f  70/78/5 66/65/5 68/69/5
f  68/69/6 66/65/6 70/78/6
f  67/74/19 69/75/23 72/80/19
f  64/71/23 70/72/24 69/79/23
f  66/77/12 70/66/16 71/76/12
f  71/76/11 70/66/15 66/77/11
f  72/82/16 71/76/12 69/81/16
f  69/81/15 71/76/11 72/82/15
f  69/81/16 71/76/12 70/66/16
f  70/66/15 71/76/11 69/81/15

# Mesh 'mesh5_mesh5-geometry' with 10 faces
g mesh5_mesh5-geometry
usemtl material_1_24
f  42//1 46//1 40//1
f  44//1 46//1 42//1
f  48//1 40//1 46//1
f  50//1 46//1 44//1
f  54//1 46//1 50//1
f  50//1 44//1 53//1
f  64//25 67//22 69//25
f  68//26 64//25 70//26
f  72//22 69//25 67//22
f  69//25 70//26 64//25

# Mesh 'mesh6_mesh6-geometry' with 4 faces
g mesh6_mesh6-geometry
usemtl material_2_0
l  39 37
l  41 39
l  38 37
l  41 38

# Mesh 'mesh7_mesh7-geometry' with 1 faces
g mesh7_mesh7-geometry
usemtl material_2_0
l  62 57

# Mesh 'mesh8_mesh8-geometry' with 1 faces
g mesh8_mesh8-geometry
usemtl material_2_0
l  63 59

