# File produced by Open Asset Import Library (http://www.assimp.sf.net)
# (assimp v3.2.202087883)

mtllib model_normalized.mtl

# 80 vertex positions
v -0.389404 0.148796 0.069587
v 0.388607 0.217697 0.088954
v 0.388607 0.148796 0.069587
v -0.389404 0.217697 0.088954
v 0.388607 0.139674 0.102040
v -0.389404 0.139674 0.102040
v 0.388607 0.208575 0.121407
v -0.389404 0.208575 0.121407
v -0.389404 -0.029027 -0.007623
v 0.388607 -0.015616 -0.077925
v 0.388607 -0.029027 -0.007623
v -0.389404 -0.015616 -0.077925
v 0.388607 0.004087 -0.001306
v -0.389404 0.004087 -0.001306
v 0.388607 0.017497 -0.071609
v -0.389404 0.017497 -0.071609
v 0.292869 -0.156569 -0.210047
v 0.292869 -0.156863 -0.135786
v 0.292869 0.000276 -0.165960
v 0.326579 -0.156569 -0.210047
v 0.292869 -0.019090 -0.097060
v 0.326579 -0.156863 -0.135786
v 0.326579 -0.019090 -0.097060
v 0.326579 0.000276 -0.165960
v 0.292869 -0.086325 0.292742
v 0.292869 -0.156627 0.279331
v 0.292869 0.003082 -0.175941
v 0.259158 -0.086325 0.292742
v 0.292869 -0.067220 -0.189353
v 0.259158 0.003082 -0.175941
v 0.259158 -0.156627 0.279331
v 0.259158 -0.067220 -0.189353
v 0.326579 -0.156818 0.018700
v 0.326579 0.219836 0.124573
v 0.326579 -0.156514 0.093130
v 0.292869 -0.156818 0.018700
v 0.326579 0.200469 0.193473
v 0.292869 -0.156514 0.093130
v 0.292869 0.219836 0.124573
v 0.292869 0.200469 0.193473
v -0.389404 0.050439 0.041940
v 0.388607 0.119339 0.061307
v 0.388607 0.050439 0.041940
v -0.389404 0.119339 0.061307
v 0.388607 0.041317 0.074393
v -0.389404 0.041317 0.074393
v 0.388607 0.110217 0.093760
v -0.389404 0.110217 0.093760
v -0.292338 0.000276 -0.165960
v -0.292338 -0.156863 -0.135786
v -0.292338 -0.156569 -0.210047
v -0.292338 -0.019090 -0.097060
v -0.326048 -0.156569 -0.210047
v -0.326048 -0.019090 -0.097060
v -0.326048 -0.156863 -0.135786
v -0.326048 0.000276 -0.165960
v -0.292338 0.003082 -0.175941
v -0.292338 -0.156627 0.279331
v -0.292338 -0.086325 0.292742
v -0.292338 -0.067220 -0.189353
v -0.258627 -0.086325 0.292742
v -0.258627 0.003082 -0.175941
v -0.258627 -0.156627 0.279331
v -0.258627 -0.067220 -0.189353
v -0.326048 -0.156514 0.093130
v -0.326048 0.219836 0.124573
v -0.326048 -0.156818 0.018700
v -0.326048 0.200469 0.193473
v -0.292338 -0.156818 0.018700
v -0.292338 -0.156514 0.093130
v -0.292338 0.200469 0.193473
v -0.292338 0.219836 0.124573
v -0.389404 -0.010329 -0.105639
v 0.388607 0.003082 -0.175941
v 0.388607 -0.010329 -0.105639
v -0.389404 0.003082 -0.175941
v 0.388607 0.022784 -0.099322
v -0.389404 0.022784 -0.099322
v 0.388607 0.036195 -0.169625
v -0.389404 0.036195 -0.169625

# 73 UV coordinates
vt -0.901294 6.9173 0
vt -1.7869 1.99666 0
vt -0.802545 2.00084 0
vt -1.88565 6.91313 0
vt -0.798614 1.76901 0
vt -0.475241 6.91944 0
vt -0.905228 7.14913 0
vt -2.21296 1.99452 0
vt -1.78297 1.76484 0
vt -0.376492 2.00298 0
vt -1.88958 7.14495 0
vt -2.3117 6.91099 0
vt -1.64383 -5.12699 0
vt -0.560714 -10.0394 0
vt -0.659465 -5.12282 0
vt -1.54508 -10.0436 0
vt 11.3769 4.40838 0
vt 9.76282 4.63014 0
vt 11.37 6.24462 0
vt 11.3769 4.41804 0
vt 12.1368 4.41876 0
vt 11.3801 3.58107 0
vt 9.75671 6.24309 0
vt 12.1368 4.4091 0
vt 12.1399 3.58179 0
vt 13.2116 6.49365 0
vt 13.2067 6.24005 0
vt 12.1348 6.49893 0
vt 13.9665 6.24077 0
vt 13.9727 4.62782 0
vt 12.1299 6.24534 0
vt 13.2128 4.6271 0
vt -5.73409 -3.03904 0
vt -5.78751 -8.35298 0
vt -6.34711 -3.27243 0
vt -0.128381 0.226378 0
vt -2.16821 0 0
vt -0.015976 0 0
vt -6.6498 -3.03674 0
vt 2.16821 0 0
vt 0.015976 0.106627 0
vt 0.015976 -0 0
vt -6.39775 -8.30884 0
vt -2.16821 0.226378 0
vt -6.35195 -3.27427 0
vt -6.56337 -3.13545 0
vt -5.73893 -3.04088 0
vt -0.00385 -0 0
vt -0.47035 0.106627 0
vt -0.47035 0 0
vt -5.95035 -2.90206 0
vt -0.00385 0.106627 0
vt -6.70322 -8.35068 0
vt 2.16821 0.106627 0
vt -7.31346 -8.30653 0
vt -0.128381 0 0
vt -2.16821 0.106627 0
vt 2.07374 4.18586 0
vt 2.33797 3.43774 0
vt 1.85629 3.99771 0
vt 0.452756 0.106627 0
vt 0 0 0
vt 0.452756 -0 0
vt -7.26282 -3.27013 0
vt -0.128381 0.106627 0
vt -5.83458 -3.0766 0
vt -5.22023 -2.85127 0
vt -4.14212 -7.73803 0
vt 0.128381 0.226378 0
vt 2.12051 3.24958 0
vt -0 0.106627 0
vt -3.61616 -7.26925 0
vt 2.16821 0.226378 0

# 26 vertex normals
vn 0 0.00687325 -0.0244524
vn 0.0476295 0 0
vn 0 -0.0244524 -0.00687325
vn -0.0476295 0 0
vn 0 0.0244524 0.00687325
vn 0 -0.00687325 0.0244524
vn 0 -0.0249501 -0.00475949
vn 0 -0.00475949 0.0249501
vn 0 0.00475949 -0.0249501
vn 0 0.0249501 0.00475949
vn -0.0254 0 0
vn 0 -0.0119602 0.0116445
vn 0 0.00687324 -0.0244524
vn 0 0.00978842 0.0027514
vn 0 -0.00687324 0.0244524
vn 0.0254 0 0
vn -0 0.0119602 -0.0116445
vn 0 -0.00978842 -0.0027514
vn 0 -0.00547342 0.0286926
vn 0 0.0249501 0.00475948
vn 0 0.00547342 -0.0286926
vn -0 -0.0249501 -0.00475948
vn 0 -0.0289479 -0.00177952
vn 0 0.0289479 0.00177952
vn -0 0.0281202 0.00790425
vn 0 -0.0281202 -0.00790425

# Mesh 'mesh1_mesh1-geometry' with 12 faces
g mesh1_mesh1-geometry
usemtl material_0_1_8
f  1/1/1 2/2/1 3/3/1
f  2/2/1 1/1/1 4/4/1
f  2/2/2 5/5/2 3/3/2
f  3/3/3 6/6/3 1/1/3
f  6/7/4 4/4/4 1/1/4
f  4/4/5 7/8/5 2/2/5
f  5/5/2 2/2/2 7/9/2
f  6/6/3 3/3/3 5/10/3
f  4/4/4 6/7/4 8/11/4
f  7/8/5 4/4/5 8/12/5
f  7/13/6 6/14/6 5/15/6
f  6/14/6 7/13/6 8/16/6

# Mesh 'mesh1_mesh1-geometry' with 12 faces
g mesh1_mesh1-geometry
usemtl material_1_24
f  3//6 2//6 1//6
f  4//6 1//6 2//6
f  3//4 5//4 2//4
f  1//5 6//5 3//5
f  1//2 4//2 6//2
f  2//3 7//3 4//3
f  7//4 2//4 5//4
f  5//5 3//5 6//5
f  8//2 6//2 4//2
f  8//3 4//3 7//3
f  5//1 6//1 7//1
f  8//1 7//1 6//1

# Mesh 'mesh1_mesh1-geometry' with 12 faces
g mesh1_mesh1-geometry
usemtl material_0_1_8
f  9/1/7 10/2/7 11/3/7
f  10/2/7 9/1/7 12/4/7
f  10/2/2 13/5/2 11/3/2
f  11/3/8 14/6/8 9/1/8
f  14/7/4 12/4/4 9/1/4
f  12/4/9 15/8/9 10/2/9
f  13/5/2 10/2/2 15/9/2
f  14/6/8 11/3/8 13/10/8
f  12/4/4 14/7/4 16/11/4
f  15/8/9 12/4/9 16/12/9
f  15/13/10 14/14/10 13/15/10
f  14/14/10 15/13/10 16/16/10

# Mesh 'mesh1_mesh1-geometry' with 12 faces
g mesh1_mesh1-geometry
usemtl material_1_24
f  11//10 10//10 9//10
f  12//10 9//10 10//10
f  11//4 13//4 10//4
f  9//9 14//9 11//9
f  9//2 12//2 14//2
f  10//8 15//8 12//8
f  15//4 10//4 13//4
f  13//9 11//9 14//9
f  16//2 14//2 12//2
f  16//8 12//8 15//8
f  13//7 14//7 15//7
f  16//7 15//7 14//7

# Mesh 'mesh2_mesh2-geometry' with 12 faces
g mesh2_mesh2-geometry
usemtl material_0_1_8
f  17/17/11 18/18/11 19/19/11
f  17/20/12 20/21/12 18/22/12
f  21/23/11 19/19/11 18/18/11
f  17/17/13 19/19/13 20/24/13
f  22/25/12 18/22/12 20/21/12
f  21/26/14 23/27/14 19/28/14
f  21/29/15 18/30/15 23/27/15
f  24/31/13 20/24/13 19/19/13
f  22/32/15 23/27/15 18/30/15
f  20/24/16 24/31/16 22/32/16
f  24/31/14 19/28/14 23/27/14
f  23/27/16 22/32/16 24/31/16

# Mesh 'mesh2_mesh2-geometry' with 12 faces
g mesh2_mesh2-geometry
usemtl material_1_24
f  19//16 18//16 17//16
f  18//17 20//17 17//17
f  18//16 19//16 21//16
f  20//15 19//15 17//15
f  20//17 18//17 22//17
f  19//18 23//18 21//18
f  23//13 18//13 21//13
f  19//15 20//15 24//15
f  18//13 23//13 22//13
f  22//11 24//11 20//11
f  23//18 19//18 24//18
f  24//11 22//11 23//11

# Mesh 'mesh3_mesh3-geometry' with 12 faces
g mesh3_mesh3-geometry
usemtl material_0_1_8
f  25/3/16 26/2/16 27/1/16
f  25/3/19 28/5/19 26/2/19
f  29/4/16 27/1/16 26/2/16
f  27/1/20 30/6/20 25/3/20
f  28/10/20 25/3/20 30/6/20
f  31/9/19 26/2/19 28/5/19
f  27/1/21 29/4/21 30/7/21
f  26/2/22 31/8/22 29/4/22
f  28/15/11 30/14/11 31/13/11
f  32/11/21 30/7/21 29/4/21
f  32/12/22 29/4/22 31/8/22
f  32/16/11 31/13/11 30/14/11

# Mesh 'mesh3_mesh3-geometry' with 12 faces
g mesh3_mesh3-geometry
usemtl material_1_24
f  27//11 26//11 25//11
f  26//21 28//21 25//21
f  26//11 27//11 29//11
f  25//22 30//22 27//22
f  30//22 25//22 28//22
f  28//21 26//21 31//21
f  30//19 29//19 27//19
f  29//20 31//20 26//20
f  31//16 30//16 28//16
f  29//19 30//19 32//19
f  31//20 29//20 32//20
f  30//16 31//16 32//16

# Mesh 'mesh4_mesh4-geometry' with 24 faces
g mesh4_mesh4-geometry
usemtl material_0_1_8
f  33/33/16 34/34/16 35/35/16
f  35/36/11 34/37/11 33/38/11
f  33/33/13 36/39/13 34/34/13
f  34/40/15 36/41/15 33/42/15
f  37/43/16 35/35/16 34/34/16
f  34/37/11 35/36/11 37/44/11
f  35/45/23 38/46/23 33/47/23
f  33/48/24 38/49/24 35/50/24
f  36/51/23 33/47/23 38/46/23
f  38/49/24 33/48/24 36/52/24
f  39/53/13 34/34/13 36/39/13
f  36/41/15 34/40/15 39/54/15
f  37/43/15 40/55/15 35/35/15
f  35/56/13 40/57/13 37/37/13
f  37/58/25 34/59/25 40/60/25
f  40/61/26 34/62/26 37/63/26
f  38/64/15 35/35/15 40/55/15
f  40/57/13 35/56/13 38/65/13
f  36/66/11 38/67/11 39/68/11
f  39/40/16 38/69/16 36/42/16
f  39/70/25 40/60/25 34/59/25
f  34/62/26 40/61/26 39/71/26
f  40/72/11 39/68/11 38/67/11
f  38/69/16 39/40/16 40/73/16

# Mesh 'mesh1_mesh1-geometry' with 12 faces
g mesh1_mesh1-geometry
usemtl material_0_1_8
f  41/1/1 42/2/1 43/3/1
f  42/2/1 41/1/1 44/4/1
f  42/2/2 45/5/2 43/3/2
f  43/3/3 46/6/3 41/1/3
f  46/7/4 44/4/4 41/1/4
f  44/4/5 47/8/5 42/2/5
f  45/5/2 42/2/2 47/9/2
f  46/6/3 43/3/3 45/10/3
f  44/4/4 46/7/4 48/11/4
f  47/8/5 44/4/5 48/12/5
f  47/13/6 46/14/6 45/15/6
f  46/14/6 47/13/6 48/16/6

# Mesh 'mesh1_mesh1-geometry' with 12 faces
g mesh1_mesh1-geometry
usemtl material_1_24
f  43//6 42//6 41//6
f  44//6 41//6 42//6
f  43//4 45//4 42//4
f  41//5 46//5 43//5
f  41//2 44//2 46//2
f  42//3 47//3 44//3
f  47//4 42//4 45//4
f  45//5 43//5 46//5
f  48//2 46//2 44//2
f  48//3 44//3 47//3
f  45//1 46//1 47//1
f  48//1 47//1 46//1

# Mesh 'mesh5_mesh5-geometry' with 12 faces
g mesh5_mesh5-geometry
usemtl material_0_1_8
f  49/19/16 50/18/16 51/17/16
f  50/18/16 49/19/16 52/23/16
f  50/22/12 53/21/12 51/20/12
f  53/24/13 49/19/13 51/17/13
f  49/28/14 54/27/14 52/26/14
f  54/27/15 50/30/15 52/29/15
f  53/21/12 50/22/12 55/25/12
f  49/19/13 53/24/13 56/31/13
f  54/27/14 49/28/14 56/31/14
f  50/30/15 54/27/15 55/32/15
f  55/32/11 56/31/11 53/24/11
f  56/31/11 55/32/11 54/27/11

# Mesh 'mesh5_mesh5-geometry' with 12 faces
g mesh5_mesh5-geometry
usemtl material_1_24
f  51//11 50//11 49//11
f  52//11 49//11 50//11
f  51//17 53//17 50//17
f  51//15 49//15 53//15
f  52//18 54//18 49//18
f  52//13 50//13 54//13
f  55//17 50//17 53//17
f  56//15 53//15 49//15
f  56//18 49//18 54//18
f  55//13 54//13 50//13
f  53//16 56//16 55//16
f  54//16 55//16 56//16

# Mesh 'mesh1_mesh1-geometry' with 12 faces
g mesh1_mesh1-geometry
usemtl material_0_1_8
f  57/1/11 58/2/11 59/3/11
f  58/2/11 57/1/11 60/4/11
f  58/2/19 61/5/19 59/3/19
f  59/3/20 62/6/20 57/1/20
f  62/7/21 60/4/21 57/1/21
f  60/4/22 63/8/22 58/2/22
f  61/5/19 58/2/19 63/9/19
f  62/6/20 59/3/20 61/10/20
f  60/4/21 62/7/21 64/11/21
f  63/8/22 60/4/22 64/12/22
f  63/13/16 62/14/16 61/15/16
f  62/14/16 63/13/16 64/16/16

# Mesh 'mesh1_mesh1-geometry' with 12 faces
g mesh1_mesh1-geometry
usemtl material_1_24
f  59//16 58//16 57//16
f  60//16 57//16 58//16
f  59//21 61//21 58//21
f  57//22 62//22 59//22
f  57//19 60//19 62//19
f  58//20 63//20 60//20
f  63//21 58//21 61//21
f  61//22 59//22 62//22
f  64//19 62//19 60//19
f  64//20 60//20 63//20
f  61//11 62//11 63//11
f  64//11 63//11 62//11

# Mesh 'mesh6_mesh6-geometry' with 24 faces
g mesh6_mesh6-geometry
usemtl material_0_1_8
f  65/35/11 66/34/11 67/33/11
f  66/34/11 65/35/11 68/43/11
f  67/38/16 66/37/16 65/36/16
f  68/44/16 65/36/16 66/37/16
f  66/34/13 69/39/13 67/33/13
f  67/42/15 69/41/15 66/40/15
f  67/47/23 70/46/23 65/45/23
f  65/50/24 70/49/24 67/48/24
f  65/35/15 71/55/15 68/43/15
f  68/37/13 71/57/13 65/56/13
f  71/60/25 66/59/25 68/58/25
f  68/63/26 66/62/26 71/61/26
f  69/39/13 66/34/13 72/53/13
f  72/54/15 66/40/15 69/41/15
f  70/46/23 67/47/23 69/51/23
f  69/52/24 67/48/24 70/49/24
f  71/55/15 65/35/15 70/64/15
f  70/65/13 65/56/13 71/57/13
f  66/59/25 71/60/25 72/70/25
f  72/71/26 71/61/26 66/62/26
f  72/68/16 70/67/16 69/66/16
f  69/42/11 70/69/11 72/40/11
f  70/67/16 72/68/16 71/72/16
f  71/73/11 72/40/11 70/69/11

# Mesh 'mesh1_mesh1-geometry' with 12 faces
g mesh1_mesh1-geometry
usemtl material_0_1_8
f  73/1/7 74/2/7 75/3/7
f  74/2/7 73/1/7 76/4/7
f  74/2/2 77/5/2 75/3/2
f  75/3/8 78/6/8 73/1/8
f  78/7/4 76/4/4 73/1/4
f  76/4/9 79/8/9 74/2/9
f  77/5/2 74/2/2 79/9/2
f  78/6/8 75/3/8 77/10/8
f  76/4/4 78/7/4 80/11/4
f  79/8/9 76/4/9 80/12/9
f  79/13/10 78/14/10 77/15/10
f  78/14/10 79/13/10 80/16/10

# Mesh 'mesh1_mesh1-geometry' with 12 faces
g mesh1_mesh1-geometry
usemtl material_1_24
f  75//10 74//10 73//10
f  76//10 73//10 74//10
f  75//4 77//4 74//4
f  73//9 78//9 75//9
f  73//2 76//2 78//2
f  74//8 79//8 76//8
f  79//4 74//4 77//4
f  77//9 75//9 78//9
f  80//2 78//2 76//2
f  80//8 76//8 79//8
f  77//7 78//7 79//7
f  80//7 79//7 78//7

