# File produced by Open Asset Import Library (http://www.assimp.sf.net)
# (assimp v3.2.202087883)

mtllib model_normalized.mtl

# 74 vertex positions
v 0.165461 -0.190582 -0.153668
v 0.253328 -0.190582 0.145055
v 0.253328 -0.190582 -0.153668
v 0.165461 -0.190582 0.145055
v 0.253328 0.026511 0.145055
v 0.253328 0.026511 -0.153668
v 0.165461 -0.017440 0.145055
v 0.165461 -0.017440 -0.153668
v 0.252603 0.033229 -0.153668
v 0.164814 -0.011455 0.145055
v 0.164814 -0.011455 -0.153668
v 0.252603 0.033229 0.145055
v 0.109453 0.026854 -0.153668
v 0.162886 -0.005571 0.145055
v 0.162886 -0.005571 -0.153668
v 0.109453 0.026854 0.145055
v 0.250439 0.039833 0.145055
v 0.118813 0.024926 -0.153668
v 0.099760 0.028024 -0.153668
v 0.159708 0.000109 0.145055
v 0.159708 0.000109 -0.153668
v 0.118813 0.024926 0.145055
v 0.099760 0.028024 0.145055
v 0.250439 0.039833 -0.153668
v -0.662444 0.077980 0.145055
v 0.127678 0.022273 -0.153668
v 0.089896 0.028417 -0.153668
v 0.155337 0.005488 0.145055
v 0.155337 0.005488 -0.153668
v 0.127678 0.022273 0.145055
v 0.089896 0.028417 0.145055
v 0.246873 0.046207 -0.153668
v -0.662444 0.077980 -0.153668
v 0.246873 0.046207 0.145055
v 0.135897 0.018940 -0.153668
v -0.662444 0.028417 -0.153668
v 0.149845 0.010476 0.145055
v 0.149845 0.010476 -0.153668
v 0.135897 0.018940 0.145055
v -0.461951 0.028417 0.145055
v 0.241967 0.052246 0.145055
v 0.143329 0.014985 -0.153668
v -0.461951 0.028417 -0.129273
v 0.143329 0.014985 0.145055
v 0.241967 0.052246 -0.153668
v -0.611452 0.028417 0.145055
v 0.235803 0.057844 0.145055
v -0.611452 0.028417 -0.129273
v 0.235803 0.057844 -0.153668
v -0.662444 0.028417 0.145055
v 0.168520 0.077980 -0.153668
v -0.611452 0.028417 0.123987
v -0.461951 0.028417 0.123987
v 0.228489 0.062905 0.145055
v 0.228489 0.062905 -0.153668
v 0.168520 0.077980 0.145055
v 0.179590 0.077540 -0.153668
v 0.220149 0.067343 0.145055
v 0.220149 0.067343 -0.153668
v 0.179590 0.077540 0.145055
v 0.190471 0.076225 -0.153668
v 0.210925 0.071084 0.145055
v -0.611452 -0.190582 -0.129273
v -0.461951 -0.169178 -0.129273
v -0.611452 -0.169178 -0.129273
v -0.611452 -0.169178 0.123987
v 0.210925 0.071084 -0.153668
v 0.190471 0.076225 0.145055
v 0.200976 0.074061 -0.153668
v -0.461951 -0.190582 0.123987
v -0.461951 -0.169178 0.123987
v 0.200976 0.074061 0.145055
v -0.461951 -0.190582 -0.129273
v -0.611452 -0.190582 0.123987

# 17 UV coordinates
vt 0 0 0
vt -0.207296 1.19038 0
vt -0.207296 0.030228 0
vt -1.08507 1.19038 0
vt -1.59501 1.19038 0
vt -0.108027 1.19038 0
vt -1.59501 0.030228 0
vt 1.59501 1.19038 0
vt 1.59501 0.030228 0
vt 0.108027 1.19038 0
vt -1.08507 0.030228 0
vt 0.207296 1.19038 0
vt 1.08507 1.19038 0
vt 0.207296 0.030228 0
vt -0.108027 0.030228 0
vt 0.108027 0.030228 0
vt 1.08507 0.030228 0

# 32 vertex normals
vn 0 0.0254 0
vn 0 -0.0254 0
vn -0.0254 0 0
vn 0 0 0.0254
vn 0.0254 0 0
vn 0 -0 -0.0254
vn -0.0252531 -0.00272743 0
vn -0.0248305 -0.00534855 0
vn 0.0252531 0.00272743 0
vn 0.0248305 0.00534855 0
vn -0.0232607 -0.0102031 0
vn 0.0232607 0.0102031 0
vn 0.00408795 0.0250689 0
vn 0.00620959 0.0246293 0
vn 0.00202839 0.0253189 0
vn 0.021018 0.0142619 0
vn -0.021018 -0.0142619 0
vn 0.00842294 0.0239628 0
vn 0.00100952 0.0253799 0
vn 0.0184473 0.0174602 0
vn 0.0107535 0.0230114 0
vn 0.0157997 0.0198879 0
vn -0.0184473 -0.0174602 0
vn 0.0132157 0.0216911 0
vn -0.0157997 -0.0198879 0
vn -0.0132157 -0.0216911 0
vn -0.00202839 -0.0253189 0
vn -0.00100952 -0.0253799 0
vn -0.0107535 -0.0230114 0
vn -0.00408795 -0.0250689 0
vn -0.00842294 -0.0239628 0
vn -0.00620959 -0.0246293 0

# Mesh 'mesh1_mesh1-geometry' with 148 faces
g mesh1_mesh1-geometry
usemtl material_0_24
f  1/1/1 2/1/1 3/1/1
f  2/1/1 1/1/1 4/1/1
f  3/1/2 2/1/2 1/1/2
f  4/1/2 1/1/2 2/1/2
f  5/1/3 3/1/3 2/1/3
f  6/1/4 1/1/4 3/1/4
f  1/1/5 7/1/5 4/1/5
f  7/1/6 2/1/6 4/1/6
f  3/1/3 5/1/3 6/1/3
f  2/1/6 7/1/6 5/1/6
f  1/1/4 6/1/4 8/1/4
f  7/1/5 1/1/5 8/1/5
f  5/1/7 9/1/8 6/1/7
f  5/1/6 7/1/6 10/1/6
f  8/1/4 6/1/4 11/1/4
f  8/1/9 10/1/10 7/1/9
f  9/1/8 5/1/7 12/1/8
f  13/1/4 6/1/4 9/1/4
f  5/1/6 10/1/6 14/1/6
f  11/1/4 6/1/4 15/1/4
f  10/1/10 8/1/9 11/1/10
f  5/1/6 16/1/6 12/1/6
f  17/1/11 9/1/8 12/1/8
f  18/1/4 6/1/4 13/1/4
f  13/1/4 9/1/4 19/1/4
f  11/1/10 14/1/12 10/1/10
f  5/1/6 14/1/6 20/1/6
f  15/1/4 6/1/4 21/1/4
f  14/1/12 11/1/10 15/1/12
f  5/1/6 22/1/6 16/1/6
f  12/1/6 16/1/6 23/1/6
f  9/1/8 17/1/11 24/1/11
f  12/1/6 25/1/6 17/1/6
f  26/1/4 6/1/4 18/1/4
f  13/1/13 22/1/14 18/1/14
f  19/1/4 9/1/4 27/1/4
f  19/1/15 16/1/13 13/1/13
f  14/1/12 21/1/16 20/1/16
f  5/1/6 20/1/6 28/1/6
f  21/1/4 6/1/4 29/1/4
f  21/1/16 14/1/12 15/1/12
f  5/1/6 30/1/6 22/1/6
f  22/1/14 13/1/13 16/1/13
f  16/1/13 19/1/15 23/1/15
f  12/1/6 23/1/6 31/1/6
f  17/1/11 32/1/17 24/1/11
f  33/1/4 9/1/4 24/1/4
f  31/1/6 25/1/6 12/1/6
f  17/1/6 25/1/6 34/1/6
f  35/1/4 6/1/4 26/1/4
f  18/1/14 30/1/18 26/1/18
f  30/1/18 18/1/14 22/1/14
f  27/1/4 9/1/4 36/1/4
f  27/1/19 23/1/15 19/1/15
f  21/1/16 28/1/20 20/1/16
f  5/1/6 28/1/6 37/1/6
f  29/1/4 6/1/4 38/1/4
f  28/1/20 21/1/16 29/1/20
f  5/1/6 39/1/6 30/1/6
f  23/1/15 27/1/19 31/1/19
f  32/1/17 17/1/11 34/1/17
f  33/1/4 24/1/4 32/1/4
f  36/1/4 9/1/4 33/1/4
f  40/1/6 25/1/6 31/1/6
f  34/1/6 25/1/6 41/1/6
f  42/1/4 6/1/4 35/1/4
f  26/1/18 39/1/21 35/1/21
f  39/1/21 26/1/18 30/1/18
f  43/1/1 27/1/1 36/1/1
f  28/1/20 38/1/22 37/1/22
f  5/1/6 37/1/6 44/1/6
f  38/1/4 6/1/4 42/1/4
f  38/1/22 28/1/20 29/1/20
f  5/1/6 44/1/6 39/1/6
f  27/1/1 43/1/1 31/1/1
f  34/1/17 45/1/23 32/1/17
f  33/1/4 32/1/4 45/1/4
f  25/1/5 36/1/5 33/1/5
f  46/1/6 25/1/6 40/1/6
f  43/1/1 40/1/1 31/1/1
f  41/1/6 25/1/6 47/1/6
f  45/1/23 34/1/17 41/1/23
f  35/1/21 44/1/24 42/1/24
f  44/1/24 35/1/21 39/1/21
f  43/1/1 36/1/1 48/1/1
f  42/1/24 37/1/22 38/1/22
f  37/1/22 42/1/24 44/1/24
f  33/1/4 45/1/4 49/1/4
f  36/1/5 25/1/5 50/1/5
f  51/1/2 25/1/2 33/1/2
f  25/1/6 46/1/6 50/1/6
f  40/1/1 52/1/1 46/1/1
f  40/1/1 43/1/1 53/1/1
f  47/1/6 25/1/6 54/1/6
f  47/1/25 45/1/23 41/1/23
f  48/1/1 36/1/1 52/1/1
f  48/1/1 53/1/1 43/1/1
f  43/1/2 53/1/2 48/1/2
f  45/1/23 47/1/25 49/1/25
f  33/1/4 49/1/4 55/1/4
f  46/1/1 36/1/1 50/1/1
f  25/1/2 51/1/2 56/1/2
f  33/1/4 57/1/4 51/1/4
f  52/1/1 40/1/1 53/1/1
f  52/1/1 36/1/1 46/1/1
f  54/1/6 25/1/6 58/1/6
f  54/1/26 49/1/25 47/1/25
f  53/1/1 48/1/1 52/1/1
f  52/1/2 48/1/2 53/1/2
f  49/1/25 54/1/26 55/1/26
f  33/1/4 55/1/4 59/1/4
f  57/1/27 56/1/28 51/1/28
f  60/1/6 25/1/6 56/1/6
f  33/1/4 61/1/4 57/1/4
f  58/1/6 25/1/6 62/1/6
f  58/1/29 55/1/26 54/1/26
f  63/1/4 64/1/4 65/1/4
f  64/1/2 66/1/2 65/1/2
f  65/1/1 66/1/1 64/1/1
f  55/1/26 58/1/29 59/1/29
f  33/1/4 59/1/4 67/1/4
f  56/1/28 57/1/27 60/1/27
f  68/1/6 25/1/6 60/1/6
f  33/1/4 69/1/4 61/1/4
f  61/1/30 60/1/27 57/1/27
f  64/1/3 70/1/3 71/1/3
f  66/1/2 64/1/2 71/1/2
f  71/1/1 64/1/1 66/1/1
f  62/1/6 25/1/6 72/1/6
f  62/1/31 59/1/29 58/1/29
f  66/1/5 63/1/5 65/1/5
f  64/1/4 63/1/4 73/1/4
f  59/1/29 62/1/31 67/1/31
f  33/1/4 67/1/4 69/1/4
f  72/1/6 25/1/6 68/1/6
f  60/1/27 61/1/30 68/1/30
f  69/1/32 68/1/30 61/1/30
f  70/1/6 66/1/6 71/1/6
f  70/1/3 64/1/3 73/1/3
f  72/1/32 67/1/31 62/1/31
f  63/1/5 66/1/5 74/1/5
f  63/1/1 70/1/1 73/1/1
f  73/1/2 70/1/2 63/1/2
f  67/1/31 72/1/32 69/1/32
f  68/1/30 69/1/32 72/1/32
f  66/1/6 70/1/6 74/1/6
f  70/1/1 63/1/1 74/1/1
f  74/1/2 63/1/2 70/1/2

# Mesh 'mesh1_mesh1-geometry' with 104 faces
g mesh1_mesh1-geometry
usemtl material_1_24
f  2/1/5 3/1/5 5/1/5
f  4/1/3 7/1/3 1/1/3
f  4/1/4 2/1/4 7/1/4
f  6/1/5 5/1/5 3/1/5
f  5/1/4 7/1/4 2/1/4
f  8/1/3 1/1/3 7/1/3
f  6/1/9 9/1/10 5/1/9
f  10/1/4 7/1/4 5/1/4
f  7/1/7 10/1/8 8/1/7
f  12/1/10 5/1/9 9/1/10
f  14/1/4 10/1/4 5/1/4
f  11/1/8 8/1/7 10/1/8
f  12/1/4 16/1/4 5/1/4
f  12/1/10 9/1/10 17/1/12
f  10/1/8 14/1/11 11/1/8
f  20/1/4 14/1/4 5/1/4
f  15/1/11 11/1/8 14/1/11
f  16/1/4 22/1/4 5/1/4
f  23/1/4 16/1/4 12/1/4
f  24/1/12 17/1/12 9/1/10
f  17/1/4 25/1/4 12/1/4
f  18/1/32 22/1/32 13/1/30
f  13/1/30 16/1/30 19/1/27
f  20/1/17 21/1/17 14/1/11
f  28/1/4 20/1/4 5/1/4
f  15/1/11 14/1/11 21/1/17
f  22/1/4 30/1/4 5/1/4
f  16/1/30 13/1/30 22/1/32
f  23/1/27 19/1/27 16/1/30
f  31/1/4 23/1/4 12/1/4
f  24/1/12 32/1/16 17/1/12
f  12/1/4 25/1/4 31/1/4
f  34/1/4 25/1/4 17/1/4
f  26/1/31 30/1/31 18/1/32
f  22/1/32 18/1/32 30/1/31
f  19/1/27 23/1/27 27/1/28
f  20/1/17 28/1/23 21/1/17
f  37/1/4 28/1/4 5/1/4
f  29/1/23 21/1/17 28/1/23
f  30/1/4 39/1/4 5/1/4
f  31/1/28 27/1/28 23/1/27
f  34/1/16 17/1/12 32/1/16
f  31/1/4 25/1/4 40/1/4
f  41/1/4 25/1/4 34/1/4
f  35/1/29 39/1/29 26/1/31
f  30/1/31 26/1/31 39/1/29
f  36/1/2 27/1/2 43/1/2
f  37/1/25 38/1/25 28/1/23
f  44/1/4 37/1/4 5/1/4
f  29/1/23 28/1/23 38/1/25
f  39/1/4 44/1/4 5/1/4
f  31/1/2 43/1/2 27/1/2
f  32/1/16 45/1/20 34/1/16
f  33/1/3 36/1/3 25/1/3
f  40/1/4 25/1/4 46/1/4
f  31/1/2 40/1/2 43/1/2
f  47/1/4 25/1/4 41/1/4
f  41/1/20 34/1/16 45/1/20
f  42/1/26 44/1/26 35/1/29
f  39/1/29 35/1/29 44/1/26
f  48/1/2 36/1/2 43/1/2
f  38/1/25 37/1/25 42/1/26
f  44/1/26 42/1/26 37/1/25
f  50/1/3 25/1/3 36/1/3
f  33/1/1 25/1/1 51/1/1
f  50/1/4 46/1/4 25/1/4
f  46/1/2 52/1/2 40/1/2
f  53/1/2 43/1/2 40/1/2
f  54/1/4 25/1/4 47/1/4
f  41/1/20 45/1/20 47/1/22
f  52/1/2 36/1/2 48/1/2
f  49/1/22 47/1/22 45/1/20
f  50/1/2 36/1/2 46/1/2
f  56/1/1 51/1/1 25/1/1
f  53/1/2 40/1/2 52/1/2
f  46/1/2 36/1/2 52/1/2
f  58/1/4 25/1/4 54/1/4
f  47/1/22 49/1/22 54/1/24
f  55/1/24 54/1/24 49/1/22
f  51/1/19 56/1/19 57/1/15
f  56/1/4 25/1/4 60/1/4
f  62/1/4 25/1/4 58/1/4
f  54/1/24 55/1/24 58/1/21
f  65/1/6 64/1/6 63/1/6
f  59/1/21 58/1/21 55/1/24
f  60/1/15 57/1/15 56/1/19
f  60/1/4 25/1/4 68/1/4
f  57/1/15 60/1/15 61/1/13
f  71/1/5 70/1/5 64/1/5
f  72/1/4 25/1/4 62/1/4
f  58/1/21 59/1/21 62/1/18
f  65/1/3 63/1/3 66/1/3
f  73/1/6 63/1/6 64/1/6
f  67/1/18 62/1/18 59/1/21
f  68/1/4 25/1/4 72/1/4
f  68/1/13 61/1/13 60/1/15
f  61/1/13 68/1/13 69/1/14
f  71/1/4 66/1/4 70/1/4
f  73/1/5 64/1/5 70/1/5
f  62/1/18 67/1/18 72/1/14
f  74/1/3 66/1/3 63/1/3
f  69/1/14 72/1/14 67/1/18
f  72/1/14 69/1/14 68/1/13
f  74/1/4 70/1/4 66/1/4

# Mesh 'mesh1_mesh1-geometry' with 28 faces
g mesh1_mesh1-geometry
usemtl material_4_24
f  3/1/6 1/1/6 6/1/6
f  8/1/6 6/1/6 1/1/6
f  11/1/6 6/1/6 8/1/6
f  9/1/6 6/1/6 13/1/6
f  15/1/6 6/1/6 11/1/6
f  13/1/6 6/1/6 18/1/6
f  19/1/6 9/1/6 13/1/6
f  21/1/6 6/1/6 15/1/6
f  18/1/6 6/1/6 26/1/6
f  27/1/6 9/1/6 19/1/6
f  29/1/6 6/1/6 21/1/6
f  24/1/6 9/1/6 33/1/6
f  26/1/6 6/1/6 35/1/6
f  36/1/6 9/1/6 27/1/6
f  38/1/6 6/1/6 29/1/6
f  32/1/6 24/1/6 33/1/6
f  33/1/6 9/1/6 36/1/6
f  35/1/6 6/1/6 42/1/6
f  42/1/6 6/1/6 38/1/6
f  45/1/6 32/1/6 33/1/6
f  49/1/6 45/1/6 33/1/6
f  55/1/6 49/1/6 33/1/6
f  51/1/6 57/1/6 33/1/6
f  59/1/6 55/1/6 33/1/6
f  57/1/6 61/1/6 33/1/6
f  67/1/6 59/1/6 33/1/6
f  61/1/6 69/1/6 33/1/6
f  69/1/6 67/1/6 33/1/6

# Mesh 'mesh1_mesh1-geometry' with 8 faces
g mesh1_mesh1-geometry
usemtl material_2_24
f  48/1/4 64/1/4 43/1/4
f  64/1/3 53/1/3 43/1/3
f  52/1/5 65/1/5 48/1/5
f  64/1/4 48/1/4 65/1/4
f  71/1/6 52/1/6 53/1/6
f  53/1/3 64/1/3 71/1/3
f  65/1/5 52/1/5 66/1/5
f  52/1/6 71/1/6 66/1/6

# Mesh 'mesh1_mesh1-geometry' with 8 faces
g mesh1_mesh1-geometry
usemtl material_3_1_8
f  43/2/6 64/3/6 48/4/6
f  43/5/5 53/6/5 64/7/5
f  48/8/3 65/9/3 52/10/3
f  65/11/6 48/4/6 64/3/6
f  53/12/4 52/13/4 71/14/4
f  71/15/5 64/7/5 53/6/5
f  66/16/3 52/10/3 65/9/3
f  66/17/4 71/14/4 52/13/4

