# File produced by Open Asset Import Library (http://www.assimp.sf.net)
# (assimp v3.2.202087883)

mtllib model_normalized.mtl

# 46 vertex positions
v 0.393102 -0.219230 0.077014
v 0.436570 0.041578 0.077014
v 0.393102 0.041578 0.077014
v 0.436570 -0.219230 0.077014
v 0.393102 0.041578 0.055280
v 0.436570 -0.219230 -0.075124
v 0.436570 0.041578 0.055280
v 0.393102 -0.001890 -0.075124
v 0.393102 -0.219230 -0.075124
v 0.393102 0.128514 0.055280
v 0.436570 0.128514 0.055280
v 0.393102 0.128514 -0.096858
v 0.436570 -0.001890 -0.075124
v 0.393102 -0.001890 -0.096858
v 0.436570 -0.001890 -0.096858
v 0.436570 0.128514 -0.096858
v -0.476258 -0.219230 0.077014
v -0.432790 0.041578 0.077014
v -0.476258 0.041578 0.077014
v -0.432790 -0.219230 0.077014
v -0.476258 0.041578 0.055280
v -0.432790 -0.219230 -0.075124
v -0.432790 0.041578 0.055280
v -0.476258 -0.001890 -0.075124
v -0.476258 -0.219230 -0.075124
v -0.476258 0.128514 0.055280
v -0.432790 0.128514 0.055280
v -0.476258 0.128514 -0.096858
v -0.432790 -0.001890 -0.075124
v -0.476258 -0.001890 -0.096858
v -0.432790 -0.001890 -0.096858
v -0.432790 0.128514 -0.096858
v -0.432790 -0.023624 0.055280
v -0.432790 -0.045358 -0.075124
v -0.432790 -0.045358 0.055280
v -0.432790 -0.023624 -0.075124
v 0.393102 -0.045358 0.055280
v 0.393102 -0.023624 -0.075124
v 0.393102 -0.045358 -0.075124
v 0.393102 -0.023624 0.055280
v -0.476258 0.150248 0.077014
v 0.436570 0.150248 0.055280
v -0.476258 0.150248 0.055280
v 0.436570 0.150248 0.077014
v 0.436570 0.041578 0.077014
v 0.436570 0.041578 0.055280

# 30 UV coordinates
vt 3.14961 0 0
vt 0.787402 0.393701 0
vt 0.787402 0 0
vt 3.14961 0.393701 0
vt 1.5748 0.393701 0
vt 1.37795 0 0
vt 1.5748 0 0
vt -1.37795 0.787402 0
vt -1.5748 3.14961 0
vt -1.5748 0.787402 0
vt -1.5748 0 0
vt -0.19685 0.393701 0
vt -1.5748 0.393701 0
vt 1.5748 3.14961 0
vt 1.37795 0.787402 0
vt 1.5748 0.787402 0
vt 1.37795 0.393701 0
vt -0.19685 1.1811 0
vt -0.19685 0 0
vt 0.19685 3.14961 0
vt 0 0 0
vt -0.19685 3.14961 0
vt -1.37795 0 0
vt -1.1811 0 0
vt -3.14961 0.393701 0
vt -3.14961 0 0
vt -0 0.393701 0
vt -1.1811 0.393701 0
vt 0.19685 1.1811 0
vt 0 1.1811 0

# 6 vertex normals
vn 0 0 0.0254
vn 0 0.0254 0
vn -0.0254 0 0
vn 0 -0.0254 0
vn 0.0254 0 0
vn 0 0 -0.0254

# Mesh 'mesh1_mesh1-geometry' with 28 faces
g mesh1_mesh1-geometry
usemtl material_0_1_8
f  1/1/1 2/2/1 3/3/1
f  2/2/1 1/1/1 4/4/1
f  2/5/2 5/6/2 3/7/2
f  5/8/3 1/9/3 3/10/3
f  1/11/4 6/12/4 4/13/4
f  4/14/5 7/15/5 2/16/5
f  5/6/2 2/5/2 7/17/2
f  8/18/3 1/9/3 5/8/3
f  6/12/4 1/11/4 9/19/4
f  6/20/5 7/15/5 4/14/5
f  7/2/1 10/21/1 5/3/1
f  1/9/3 8/18/3 9/22/3
f  10/23/3 8/18/3 5/8/3
f  8/24/6 6/25/6 9/26/6
f  6/20/5 11/6/5 7/15/5
f  10/21/1 7/2/1 11/27/1
f  12/21/3 8/18/3 10/23/3
f  6/25/6 8/24/6 13/28/6
f  13/29/5 11/6/5 6/20/5
f  11/17/2 12/21/2 10/6/2
f  8/18/3 12/21/3 14/30/3
f  8/19/4 15/27/4 13/12/4
f  15/30/5 11/6/5 13/29/5
f  12/21/2 11/17/2 16/27/2
f  12/21/6 15/28/6 14/24/6
f  15/27/4 8/19/4 14/21/4
f  11/6/5 15/30/5 16/21/5
f  15/28/6 12/21/6 16/27/6

# Mesh 'mesh1_mesh1-geometry' with 28 faces
g mesh1_mesh1-geometry
usemtl material_1_24
f  3//6 2//6 1//6
f  4//6 1//6 2//6
f  3//4 5//4 2//4
f  3//5 1//5 5//5
f  4//2 6//2 1//2
f  2//3 7//3 4//3
f  7//4 2//4 5//4
f  5//5 1//5 8//5
f  9//2 1//2 6//2
f  4//3 7//3 6//3
f  5//6 10//6 7//6
f  9//5 8//5 1//5
f  5//5 8//5 10//5
f  9//1 6//1 8//1
f  7//3 11//3 6//3
f  11//6 7//6 10//6
f  10//5 8//5 12//5
f  13//1 8//1 6//1
f  6//3 11//3 13//3
f  10//4 12//4 11//4
f  14//5 12//5 8//5
f  13//2 15//2 8//2
f  13//3 11//3 15//3
f  16//4 11//4 12//4
f  14//1 15//1 12//1
f  14//2 8//2 15//2
f  16//3 15//3 11//3
f  16//1 12//1 15//1

# Mesh 'mesh1_mesh1-geometry' with 28 faces
g mesh1_mesh1-geometry
usemtl material_0_1_8
f  17/1/1 18/2/1 19/3/1
f  18/2/1 17/1/1 20/4/1
f  18/5/2 21/6/2 19/7/2
f  21/8/3 17/9/3 19/10/3
f  17/11/4 22/12/4 20/13/4
f  20/14/5 23/15/5 18/16/5
f  21/6/2 18/5/2 23/17/2
f  24/18/3 17/9/3 21/8/3
f  22/12/4 17/11/4 25/19/4
f  22/20/5 23/15/5 20/14/5
f  23/2/1 26/21/1 21/3/1
f  17/9/3 24/18/3 25/22/3
f  26/23/3 24/18/3 21/8/3
f  24/24/6 22/25/6 25/26/6
f  22/20/5 27/6/5 23/15/5
f  26/21/1 23/2/1 27/27/1
f  28/21/3 24/18/3 26/23/3
f  22/25/6 24/24/6 29/28/6
f  29/29/5 27/6/5 22/20/5
f  27/17/2 28/21/2 26/6/2
f  24/18/3 28/21/3 30/30/3
f  24/19/4 31/27/4 29/12/4
f  31/30/5 27/6/5 29/29/5
f  28/21/2 27/17/2 32/27/2
f  28/21/6 31/28/6 30/24/6
f  31/27/4 24/19/4 30/21/4
f  27/6/5 31/30/5 32/21/5
f  31/28/6 28/21/6 32/27/6

# Mesh 'mesh1_mesh1-geometry' with 28 faces
g mesh1_mesh1-geometry
usemtl material_1_24
f  19//6 18//6 17//6
f  20//6 17//6 18//6
f  19//4 21//4 18//4
f  19//5 17//5 21//5
f  20//2 22//2 17//2
f  18//3 23//3 20//3
f  23//4 18//4 21//4
f  21//5 17//5 24//5
f  25//2 17//2 22//2
f  20//3 23//3 22//3
f  21//6 26//6 23//6
f  25//5 24//5 17//5
f  21//5 24//5 26//5
f  25//1 22//1 24//1
f  23//3 27//3 22//3
f  27//6 23//6 26//6
f  26//5 24//5 28//5
f  29//1 24//1 22//1
f  22//3 27//3 29//3
f  26//4 28//4 27//4
f  30//5 28//5 24//5
f  29//2 31//2 24//2
f  29//3 27//3 31//3
f  32//4 27//4 28//4
f  30//1 31//1 28//1
f  30//2 24//2 31//2
f  32//3 31//3 27//3
f  32//1 28//1 31//1

# Mesh 'mesh2_mesh2-geometry' with 16 faces
g mesh2_mesh2-geometry
usemtl material_1_24
f  33//3 34//3 35//3
f  34//3 33//3 36//3
f  35//5 34//5 33//5
f  36//5 33//5 34//5
f  35//2 37//2 34//2
f  35//6 33//6 37//6
f  36//4 38//4 33//4
f  36//1 34//1 38//1
f  39//2 34//2 37//2
f  40//6 37//6 33//6
f  40//4 33//4 38//4
f  39//1 38//1 34//1
f  38//5 37//5 39//5
f  39//3 37//3 38//3
f  37//5 38//5 40//5
f  40//3 38//3 37//3

# Mesh 'mesh2_mesh2-geometry' with 8 faces
g mesh2_mesh2-geometry
usemtl material_2_24
f  34//4 37//4 35//4
f  37//1 33//1 35//1
f  33//2 38//2 36//2
f  38//6 34//6 36//6
f  37//4 34//4 39//4
f  33//1 37//1 40//1
f  38//2 33//2 40//2
f  34//6 38//6 39//6

# Mesh 'mesh3_mesh3-geometry' with 12 faces
g mesh3_mesh3-geometry
usemtl material_2_24
f  41//2 42//2 43//2
f  42//2 41//2 44//2
f  42//6 21//6 43//6
f  21//3 41//3 43//3
f  41//1 45//1 44//1
f  45//5 42//5 44//5
f  21//6 42//6 46//6
f  41//3 21//3 19//3
f  45//1 41//1 19//1
f  42//5 45//5 46//5
f  45//4 21//4 46//4
f  21//4 45//4 19//4

# Mesh 'mesh3_mesh3-geometry' with 12 faces
g mesh3_mesh3-geometry
usemtl material_1_24
f  43//4 42//4 41//4
f  44//4 41//4 42//4
f  43//1 21//1 42//1
f  43//5 41//5 21//5
f  44//6 45//6 41//6
f  44//3 42//3 45//3
f  46//1 42//1 21//1
f  19//5 21//5 41//5
f  19//6 41//6 45//6
f  46//3 45//3 42//3
f  46//2 21//2 45//2
f  19//2 45//2 21//2

# Mesh 'mesh4_mesh4-geometry' with 5 faces
g mesh4_mesh4-geometry
usemtl material_1_0
l  34 36
l  35 34
l  36 33
l  29 36
l  33 35

# Mesh 'mesh5_mesh5-geometry' with 4 faces
g mesh5_mesh5-geometry
usemtl material_1_0
l  39 38
l  37 39
l  38 40
l  40 37

