# File produced by Open Asset Import Library (http://www.assimp.sf.net)
# (assimp v3.2.202087883)

mtllib model_normalized.mtl

# 20 vertex positions
v -0.453924 0.083003 -0.162116
v -0.415016 -0.143959 -0.162116
v -0.453924 -0.143959 -0.162116
v -0.415016 0.083003 -0.162116
v -0.453924 -0.143959 0.162116
v -0.415016 0.083003 0.162116
v -0.415016 -0.143959 0.162116
v -0.453924 0.083003 0.162116
v 0.453924 0.083003 0.162116
v 0.415016 0.083003 -0.162116
v 0.415016 0.083003 0.162116
v 0.453924 0.083003 -0.162116
v 0.415016 -0.143959 0.162116
v 0.453924 -0.143959 -0.162116
v 0.415016 -0.143959 -0.162116
v 0.453924 -0.143959 0.162116
v 0.453924 0.121911 0.162116
v 0.453924 0.121911 -0.162116
v -0.453924 0.121911 -0.162116
v -0.453924 0.121911 0.162116

# 0 UV coordinates

# 6 vertex normals
vn 0 0 -0.001
vn -0 -0 0.001
vn 0 -0.001 0
vn 0 0.001 0
vn -0.001 0 0
vn 0.001 0 0

# Mesh 'mesh1_mesh1-geometry' with 24 faces
g mesh1_mesh1-geometry
usemtl material_0_24
f  1//1 2//1 3//1
f  2//1 1//1 4//1
f  3//2 2//2 1//2
f  4//2 1//2 2//2
f  2//3 5//3 3//3
f  3//4 5//4 2//4
f  5//5 1//5 3//5
f  3//6 1//6 5//6
f  1//4 6//4 4//4
f  4//3 6//3 1//3
f  6//6 2//6 4//6
f  4//5 2//5 6//5
f  5//3 2//3 7//3
f  7//4 2//4 5//4
f  1//5 5//5 8//5
f  8//6 5//6 1//6
f  6//4 1//4 8//4
f  8//3 1//3 6//3
f  2//6 6//6 7//6
f  7//5 6//5 2//5
f  6//2 5//2 7//2
f  7//1 5//1 6//1
f  5//2 6//2 8//2
f  8//1 6//1 5//1

# Mesh 'mesh2_mesh2-geometry' with 24 faces
g mesh2_mesh2-geometry
usemtl material_0_24
f  9//4 10//4 11//4
f  10//4 9//4 12//4
f  11//3 10//3 9//3
f  12//3 9//3 10//3
f  10//5 13//5 11//5
f  11//6 13//6 10//6
f  13//2 9//2 11//2
f  11//1 9//1 13//1
f  9//6 14//6 12//6
f  12//5 14//5 9//5
f  14//1 10//1 12//1
f  12//2 10//2 14//2
f  13//5 10//5 15//5
f  15//6 10//6 13//6
f  9//2 13//2 16//2
f  16//1 13//1 9//1
f  14//6 9//6 16//6
f  16//5 9//5 14//5
f  10//1 14//1 15//1
f  15//2 14//2 10//2
f  14//3 13//3 15//3
f  15//4 13//4 14//4
f  13//3 14//3 16//3
f  16//4 14//4 13//4

# Mesh 'mesh3_mesh3-geometry' with 24 faces
g mesh3_mesh3-geometry
usemtl material_0_24
f  12//6 17//6 9//6
f  17//6 12//6 18//6
f  9//5 17//5 12//5
f  18//5 12//5 17//5
f  17//2 8//2 9//2
f  9//1 8//1 17//1
f  8//3 12//3 9//3
f  9//4 12//4 8//4
f  12//1 19//1 18//1
f  18//2 19//2 12//2
f  19//4 17//4 18//4
f  18//3 17//3 19//3
f  8//2 17//2 20//2
f  20//1 17//1 8//1
f  12//3 8//3 1//3
f  1//4 8//4 12//4
f  19//1 12//1 1//1
f  1//2 12//2 19//2
f  17//4 19//4 20//4
f  20//3 19//3 17//3
f  19//5 8//5 20//5
f  20//6 8//6 19//6
f  8//5 19//5 1//5
f  1//6 19//6 8//6

