# File produced by Open Asset Import Library (http://www.assimp.sf.net)
# (assimp v3.2.202087883)

mtllib model_normalized.mtl

# 136 vertex positions
v 0.395681 0.080940 -0.197840
v -0.395681 0.061156 -0.197840
v -0.395681 0.080940 -0.197840
v 0.395681 0.061156 -0.197840
v -0.395681 0.080940 0.197840
v -0.007914 0.080940 -0.013707
v 0.395681 0.061156 -0.019784
v -0.395681 0.061156 -0.019784
v -0.004096 0.080940 -0.015288
v 0.395681 0.061156 0.019784
v -0.395681 0.061156 0.019784
v -0.011191 0.080940 -0.011191
v 0.000000 0.080940 -0.015827
v 0.395681 0.061156 0.197840
v 0.395681 -0.039743 0.019784
v 0.379853 0.061156 -0.019784
v -0.395681 0.061156 0.197840
v -0.395681 -0.039743 -0.019784
v -0.013707 0.080940 -0.007914
v 0.004095 0.080940 -0.015288
v 0.395681 0.080940 0.197840
v 0.379853 0.061156 0.019784
v 0.395681 -0.039743 -0.019784
v 0.379853 -0.039743 -0.019784
v -0.379853 0.061156 -0.019784
v -0.395681 -0.039743 0.019784
v -0.015288 0.080940 -0.004096
v 0.007914 0.080940 -0.013707
v -0.379853 0.061156 0.019784
v 0.395681 -0.039743 0.284890
v 0.379853 -0.039743 0.019784
v -0.000531 0.061156 -0.007896
v -0.395681 -0.039743 -0.284890
v -0.379853 -0.039743 0.019784
v -0.379853 -0.039743 -0.019784
v -0.015827 0.080940 0.000000
v 0.011190 0.080940 -0.011191
v 0.000000 0.080940 0.015827
v 0.000530 0.061156 0.007896
v 0.395681 -0.039743 -0.284890
v 0.379853 -0.039743 0.197840
v 0.379853 -0.039743 -0.197840
v 0.001531 0.061156 -0.007764
v 0.000000 0.061156 -0.007862
v -0.395681 -0.039743 0.284890
v -0.379853 -0.039743 -0.284890
v -0.379853 -0.039743 -0.197840
v -0.015288 0.080940 0.004096
v 0.013706 0.080940 -0.007914
v 0.004095 0.080940 0.015288
v -0.004096 0.080940 0.015288
v 0.000000 0.061156 0.007862
v 0.002556 0.061156 0.007489
v 0.395681 -0.073375 0.245322
v 0.379853 -0.039743 -0.245322
v 0.379853 -0.039743 0.237408
v 0.379853 -0.039743 -0.237408
v 0.003490 0.061156 -0.007103
v -0.002556 0.061156 -0.007489
v -0.395681 -0.073375 -0.245322
v -0.379853 -0.039743 -0.245322
v -0.395681 -0.140641 -0.284890
v -0.379853 -0.039743 0.197840
v -0.379853 -0.039743 -0.237408
v -0.013707 0.080940 0.007914
v 0.015289 0.080940 -0.004096
v 0.007914 0.080940 0.013707
v -0.007914 0.080940 0.013707
v -0.001530 0.061156 0.007764
v 0.004408 0.061156 0.006572
v 0.395681 -0.140641 0.284890
v 0.395681 -0.073375 -0.245322
v 0.379853 -0.039743 -0.284890
v -0.379853 -0.039743 0.237408
v 0.379853 -0.039743 0.245322
v 0.379853 -0.047656 -0.197840
v 0.005207 0.061156 -0.005959
v -0.004408 0.061156 -0.006572
v -0.395681 -0.073375 0.245322
v -0.379853 -0.140641 -0.284890
v -0.379853 -0.047656 0.197840
v -0.011191 0.080940 0.011191
v 0.015827 0.080940 0.000000
v 0.011190 0.080940 0.011191
v -0.003488 0.061156 0.007103
v 0.005959 0.061156 0.005208
v 0.395681 -0.140641 0.245322
v 0.379853 -0.039743 0.284890
v 0.395681 -0.140641 -0.245322
v 0.379853 -0.073375 0.245322
v 0.379853 -0.047656 -0.284890
v 0.379853 -0.047656 -0.245322
v 0.379853 -0.047656 0.197840
v -0.379853 -0.047656 0.237408
v 0.379853 -0.047656 0.237408
v 0.379853 -0.047656 -0.237408
v -0.379853 -0.047656 -0.197840
v 0.006572 0.061156 -0.004408
v -0.005959 0.061156 -0.005208
v -0.395681 -0.140641 -0.245322
v -0.395681 -0.140641 0.245322
v -0.379853 -0.073375 -0.245322
v -0.379853 -0.047656 -0.237408
v -0.379853 -0.047656 -0.245322
v -0.379853 -0.047656 -0.284890
v -0.379853 -0.140641 -0.245322
v -0.379853 -0.039743 0.245322
v 0.015289 0.080940 0.004096
v 0.013706 0.080940 0.007914
v -0.005208 0.061156 0.005959
v 0.007102 0.061156 0.003488
v 0.379853 -0.140641 0.245322
v 0.379853 -0.047656 0.284890
v 0.395681 -0.140641 -0.284890
v 0.379853 -0.073375 -0.245322
v 0.379853 -0.140641 -0.284890
v -0.379853 -0.047656 0.245322
v 0.379853 -0.047656 0.245322
v -0.379853 -0.039743 0.284890
v 0.007490 0.061156 -0.002556
v -0.007103 0.061156 -0.003488
v -0.395681 -0.140641 0.284890
v -0.379853 -0.073375 0.245322
v -0.379853 -0.047656 0.284890
v -0.006572 0.061156 0.004408
v 0.007763 0.061156 0.001530
v 0.379853 -0.140641 0.284890
v 0.379853 -0.140641 -0.245322
v 0.007898 0.061156 -0.000531
v -0.007764 0.061156 -0.001530
v -0.379853 -0.140641 0.284890
v -0.379853 -0.140641 0.245322
v -0.007489 0.061156 0.002556
v 0.007862 0.061156 0.000000
v -0.007862 0.061156 0.000000
v -0.007896 0.061156 0.000531

# 198 UV coordinates
vt -3.28084 1.50919 0
vt 0 1.42717 0
vt 0 1.50919 0
vt -3.28084 1.42717 0
vt 1.64042 1.50919 0
vt 0 -0 0
vt 0.763384 1.60761 0
vt 0 3.28084 0
vt -0.738189 1.42717 0
vt -0.738189 3.28084 0
vt 0.738189 1.42717 0
vt 1.64042 -0 0
vt 0.756829 1.62344 0
vt -0.902231 1.42717 0
vt -0.738189 0 0
vt 0.902231 1.42717 0
vt 0.773812 1.59402 0
vt 0.754593 1.64042 0
vt -1.64042 1.42717 0
vt -0.902231 1.00886 0
vt -0.738189 3.21522 0
vt 1.64042 1.42717 0
vt 0.738189 1.00886 0
vt 0.787402 1.58359 0
vt 0.756829 1.6574 0
vt -1.64042 1.50919 0
vt -1.64042 3.28084 0
vt -0.902231 3.21522 0
vt -0.902231 3.28084 0
vt -0.738189 1.00886 0
vt 3.21522 1.42717 0
vt 3.28084 1.00886 0
vt 3.28084 1.42717 0
vt -3.21522 1.00886 0
vt -3.21522 1.42717 0
vt -0.738189 0.065617 0
vt -0.902231 0 0
vt -1.64042 0 0
vt 0.902231 1.00886 0
vt -0.065617 1.42717 0
vt 0 1.00886 0
vt 0.803227 1.57704 0
vt 0.763384 1.67323 0
vt 1.64042 3.28084 0
vt 3.28084 1.50919 0
vt -0.902231 0.065617 0
vt -2.00131 1.00886 0
vt -3.28084 1.00886 0
vt 3.21522 1.00886 0
vt -0.787476 1.63822 0
vt -0.360892 1.00886 0
vt 0.065617 1.00886 0
vt -0.065617 1.00886 0
vt 0.82021 1.5748 0
vt 0.773812 1.68682 0
vt 0.885827 1.64042 0
vt -0.852944 1.64262 0
vt 0.360892 1.00886 0
vt 0.902231 3.28084 0
vt 1.64042 3.21522 0
vt 2.00131 3.28084 0
vt 0.738189 3.28084 0
vt 0 3.21522 0
vt 0.738189 3.21522 0
vt 0.902231 3.21522 0
vt -0.788021 1.64677 0
vt -0.787616 1.64042 0
vt 0.065617 1.42717 0
vt 2.00131 1.00886 0
vt 0.738189 0 0
vt -0.360892 0.065617 0
vt -0.360892 0 0
vt 2.00131 0 0
vt 0.902231 0.065617 0
vt 0.902231 0 0
vt 0 0.065617 0
vt 0.738189 0.065617 0
vt 0.837193 1.57704 0
vt 0.787402 1.69725 0
vt 0.883591 1.6574 0
vt 0.883591 1.62344 0
vt -0.852804 1.64042 0
vt -0.851259 1.65102 0
vt -1.83727 0.869423 0
vt -0.360892 3.28084 0
vt -0.19685 3.21522 0
vt 1.80446 3.21522 0
vt -0.164042 3.21522 0
vt 1.64042 1.00886 0
vt -0.79076 1.65488 0
vt -0.789161 1.62982 0
vt -0.19685 0.869423 0
vt -0.19685 0.065617 0
vt 0 0.590551 0
vt 1.64042 0.065617 0
vt -1.64042 1.00886 0
vt -0.164042 0.065617 0
vt 0.853018 1.58359 0
vt 0.803227 1.7038 0
vt 0.877036 1.67323 0
vt 0.877036 1.60761 0
vt -0.852399 1.63407 0
vt -0.847458 1.65869 0
vt -2.00131 0.590551 0
vt 0.19685 0.869423 0
vt -0.360892 3.21522 0
vt 1.80446 0.065617 0
vt 1.83727 3.21522 0
vt 0 0.97605 0
vt -0.795507 1.66201 0
vt -0.792962 1.62215 0
vt -0.360892 0.590551 0
vt 1.83727 0.869423 0
vt -0.065617 0.590551 0
vt -1.64042 0.97605 0
vt 0.866608 1.59402 0
vt 0.82021 1.70604 0
vt 0.866608 1.68682 0
vt -0.84966 1.62596 0
vt -0.8418 1.66512 0
vt -1.83727 0.590551 0
vt 3.28084 0.590551 0
vt 0.19685 0.590551 0
vt -1.83727 3.21522 0
vt 0.19685 3.28084 0
vt -1.83727 3.28084 0
vt -3.21522 0.97605 0
vt -0.19685 0.97605 0
vt -0.164042 1.00886 0
vt -0.19685 1.00886 0
vt 1.64042 0.97605 0
vt 3.21522 0.97605 0
vt -0.065617 0.97605 0
vt 1.80446 0.97605 0
vt 1.83727 1.00886 0
vt 1.80446 1.00886 0
vt 2.00131 3.21522 0
vt -0.164042 0.97605 0
vt -0.801936 1.66767 0
vt -0.79862 1.61572 0
vt -0.19685 0.590551 0
vt 1.83727 0.590551 0
vt 0.19685 0.065617 0
vt -1.83727 0 0
vt 0.19685 0 0
vt 0.164042 0.97605 0
vt 0.19685 1.00886 0
vt 0.164042 1.00886 0
vt 0.19685 0.97605 0
vt 0.360892 0 0
vt 0.360892 0.065617 0
vt 1.83727 0.065617 0
vt 0.065617 0.97605 0
vt 0.837193 1.7038 0
vt 0.853018 1.69725 0
vt -0.844913 1.61883 0
vt -0.834671 1.66987 0
vt -2.00131 3.28084 0
vt -3.21522 0.590551 0
vt -3.28084 0.869423 0
vt -3.28084 0.590551 0
vt 0.360892 0.590551 0
vt 3.21522 0.869423 0
vt 3.28084 0.869423 0
vt 0.19685 3.21522 0
vt -3.21522 0.869423 0
vt -0.360892 0.97605 0
vt -1.80446 1.00886 0
vt -1.83727 0.97605 0
vt -1.80446 0.97605 0
vt 1.83727 0.97605 0
vt 2.00131 0.065617 0
vt -0.809611 1.67147 0
vt -0.805749 1.61097 0
vt 0.065617 0.590551 0
vt -0 0.869423 0
vt 2.00131 0.590551 0
vt -0.065617 0.869423 0
vt -1.83727 0.065617 0
vt 0.065617 0.869423 0
vt -2.00131 0.97605 0
vt 0.360892 0.97605 0
vt -1.83727 1.00886 0
vt -0.838484 1.61317 0
vt -0.826556 1.67261 0
vt -2.00131 3.21522 0
vt 3.21522 0.590551 0
vt 0.360892 3.21522 0
vt 0.360892 3.28084 0
vt 2.00131 0.97605 0
vt -0.818008 1.67315 0
vt -0.813864 1.60823 0
vt -2.00131 0.065617 0
vt -2.00131 0 0
vt -0.830809 1.60937 0
vt -0.82021 1.67301 0
vt -0.82021 1.60783 0
vt -0.822412 1.60769 0

# 6 vertex normals
vn 0 0 -1
vn -1 0 0
vn 0 1 0
vn 0 -1 0
vn 1 0 0
vn 0 0 1

# Mesh 'mesh1_mesh1-geometry' with 304 faces
g mesh1_mesh1-geometry
usemtl material_0_1_8
f  1/1/1 2/2/1 3/3/1
f  2/2/1 1/1/1 4/4/1
f  2/2/2 5/5/2 3/3/2
f  3/6/3 6/7/3 1/8/3
f  1/8/4 6/7/4 3/6/4
f  1/3/5 7/9/5 4/2/5
f  7/10/4 2/6/4 4/8/4
f  4/8/3 2/6/3 7/10/3
f  8/11/2 5/5/2 2/2/2
f  6/7/3 3/6/3 5/12/3
f  5/12/4 3/6/4 6/7/4
f  1/8/3 6/7/3 9/13/3
f  9/13/4 6/7/4 1/8/4
f  7/9/5 1/3/5 10/14/5
f  2/6/4 7/10/4 8/15/4
f  8/15/3 7/10/3 2/6/3
f  11/16/2 5/5/2 8/11/2
f  6/7/3 5/12/3 12/17/3
f  12/17/4 5/12/4 6/7/4
f  1/8/3 9/13/3 13/18/3
f  13/18/4 9/13/4 1/8/4
f  10/14/5 1/3/5 14/19/5
f  15/20/5 7/9/5 10/14/5
f  8/15/4 7/10/4 16/21/4
f  16/21/3 7/10/3 8/15/3
f  5/5/2 11/16/2 17/22/2
f  18/23/2 11/16/2 8/11/2
f  12/17/3 5/12/3 19/24/3
f  19/24/4 5/12/4 12/17/4
f  20/25/3 1/8/3 13/18/3
f  13/18/4 1/8/4 20/25/4
f  14/19/5 1/3/5 21/26/5
f  14/27/4 22/28/4 10/29/4
f  10/29/3 22/28/3 14/27/3
f  7/9/5 15/20/5 23/30/5
f  22/31/6 15/32/6 10/33/6
f  7/4/1 24/34/1 16/35/1
f  8/15/4 16/21/4 25/36/4
f  25/36/3 16/21/3 8/15/3
f  11/37/4 14/27/4 17/38/4
f  17/38/3 14/27/3 11/37/3
f  14/33/6 5/3/6 17/2/6
f  11/16/2 18/23/2 26/39/2
f  25/40/1 18/41/1 8/2/1
f  19/24/3 5/12/3 27/42/3
f  27/42/4 5/12/4 19/24/4
f  28/43/3 1/8/3 20/25/3
f  20/25/4 1/8/4 28/43/4
f  1/8/3 28/43/3 21/44/3
f  21/44/4 28/43/4 1/8/4
f  5/3/6 14/33/6 21/45/6
f  22/28/4 14/27/4 29/46/4
f  29/46/3 14/27/3 22/28/3
f  30/47/5 23/30/5 15/20/5
f  24/34/1 7/4/1 23/48/1
f  15/32/6 22/31/6 31/49/6
f  24/23/2 22/16/2 16/11/2
f  16/21/4 32/50/4 25/36/4
f  25/36/3 32/50/3 16/21/3
f  29/46/4 14/27/4 11/37/4
f  11/37/3 14/27/3 29/46/3
f  33/51/2 26/39/2 18/23/2
f  34/52/6 11/2/6 26/41/6
f  18/41/1 25/40/1 35/53/1
f  27/42/3 5/12/3 36/54/3
f  36/54/4 5/12/4 27/42/4
f  21/44/3 28/43/3 37/55/3
f  37/55/4 28/43/4 21/44/4
f  21/44/3 38/56/3 5/12/3
f  5/12/4 38/56/4 21/44/4
f  29/46/4 39/57/4 22/28/4
f  22/28/3 39/57/3 29/46/3
f  30/47/5 40/58/5 23/30/5
f  15/59/3 41/60/3 30/61/3
f  23/62/3 42/63/3 24/64/3
f  22/16/2 24/23/2 31/39/2
f  41/60/3 15/59/3 31/65/3
f  43/66/4 16/21/4 22/28/4
f  22/28/3 16/21/3 43/66/3
f  32/50/4 16/21/4 44/67/4
f  44/67/3 16/21/3 32/50/3
f  32/50/4 29/46/4 25/36/4
f  25/36/3 29/46/3 32/50/3
f  11/2/6 34/52/6 29/68/6
f  33/51/2 45/69/2 26/39/2
f  18/70/3 46/71/3 33/72/3
f  45/73/3 34/74/3 26/75/3
f  25/9/5 34/20/5 35/30/5
f  47/76/3 18/70/3 35/77/3
f  36/54/3 5/12/3 48/78/3
f  48/78/4 5/12/4 36/54/4
f  21/44/3 37/55/3 49/79/3
f  49/79/4 37/55/4 21/44/4
f  21/44/3 50/80/3 38/56/3
f  38/56/4 50/80/4 21/44/4
f  51/81/3 5/12/3 38/56/3
f  38/56/4 5/12/4 51/81/4
f  29/46/4 52/82/4 39/57/4
f  39/57/3 52/82/3 29/46/3
f  53/83/4 22/28/4 39/57/4
f  39/57/3 22/28/3 53/83/3
f  30/47/5 54/84/5 40/58/5
f  40/85/3 55/86/3 23/62/3
f  30/61/3 41/60/3 56/87/3
f  23/62/3 57/88/3 42/63/3
f  42/41/2 31/39/2 24/23/2
f  42/41/2 41/89/2 31/39/2
f  44/67/4 16/21/4 43/66/4
f  43/66/3 16/21/3 44/67/3
f  43/66/4 22/28/4 58/90/4
f  58/90/3 22/28/3 43/66/3
f  29/46/4 32/50/4 59/91/4
f  59/91/3 32/50/3 29/46/3
f  34/20/5 25/9/5 29/14/5
f  33/51/2 60/92/2 45/69/2
f  46/71/3 18/70/3 61/93/3
f  46/53/1 62/94/1 33/41/1
f  34/74/3 45/73/3 63/95/3
f  63/96/5 35/30/5 34/20/5
f  64/97/3 18/70/3 47/76/3
f  63/96/5 47/41/5 35/30/5
f  48/78/3 5/12/3 65/98/3
f  65/98/4 5/12/4 48/78/4
f  21/44/3 49/79/3 66/99/3
f  66/99/4 49/79/4 21/44/4
f  21/44/3 67/100/3 50/80/3
f  50/80/4 67/100/4 21/44/4
f  68/101/3 5/12/3 51/81/3
f  51/81/4 5/12/4 68/101/4
f  29/46/4 69/102/4 52/82/4
f  52/82/3 69/102/3 29/46/3
f  70/103/4 22/28/4 53/83/4
f  53/83/3 22/28/3 70/103/3
f  71/104/5 54/84/5 30/47/5
f  72/105/5 40/58/5 54/84/5
f  55/86/3 40/85/3 73/106/3
f  23/62/3 55/86/3 57/88/3
f  41/60/3 74/107/3 56/87/3
f  30/61/3 56/87/3 75/108/3
f  57/88/3 47/76/3 42/63/3
f  76/109/2 41/89/2 42/41/2
f  58/90/4 22/28/4 77/110/4
f  77/110/3 22/28/3 58/90/3
f  29/46/4 59/91/4 78/111/4
f  78/111/3 59/91/3 29/46/3
f  62/112/2 60/92/2 33/51/2
f  79/113/2 45/69/2 60/92/2
f  61/93/3 18/70/3 64/97/3
f  61/93/3 73/106/3 46/71/3
f  62/94/1 46/53/1 80/114/1
f  63/95/3 45/73/3 74/107/3
f  47/76/3 57/88/3 64/97/3
f  81/115/5 47/41/5 63/96/5
f  65/98/3 5/12/3 82/116/3
f  82/116/4 5/12/4 65/98/4
f  21/44/3 66/99/3 83/117/3
f  83/117/4 66/99/4 21/44/4
f  21/44/3 84/118/3 67/100/3
f  67/100/4 84/118/4 21/44/4
f  82/116/3 5/12/3 68/101/3
f  68/101/4 5/12/4 82/116/4
f  29/46/4 85/119/4 69/102/4
f  69/102/3 85/119/3 29/46/3
f  86/120/4 22/28/4 70/103/4
f  70/103/3 22/28/3 86/120/3
f  54/84/5 71/104/5 87/121/5
f  88/49/6 71/122/6 30/32/6
f  89/123/5 40/58/5 72/105/5
f  90/124/4 72/125/4 54/126/4
f  40/48/1 91/127/1 73/34/1
f  73/106/3 61/93/3 55/86/3
f  92/128/2 57/129/2 55/130/2
f  41/89/2 76/109/2 93/131/2
f  41/49/1 93/132/1 63/52/1
f  74/107/3 41/60/3 63/95/3
f  74/53/6 94/133/6 56/34/6
f  95/134/2 75/135/2 56/136/2
f  30/61/3 75/108/3 88/137/3
f  57/129/2 92/128/2 96/138/2
f  57/49/1 96/132/1 64/52/1
f  47/53/6 97/133/6 42/34/6
f  76/127/6 42/34/6 97/133/6
f  77/110/4 22/28/4 98/139/4
f  98/139/3 22/28/3 77/110/3
f  29/46/4 78/111/4 99/140/4
f  99/140/3 78/111/3 29/46/3
f  60/92/2 62/112/2 100/141/2
f  101/142/2 45/69/2 79/113/2
f  102/143/4 79/144/4 60/145/4
f  103/146/5 61/147/5 64/148/5
f  61/147/5 103/146/5 104/149/5
f  61/53/6 104/133/6 55/34/6
f  73/49/1 91/132/1 46/52/1
f  80/114/1 46/53/1 105/133/1
f  106/143/4 62/150/4 80/151/4
f  74/107/3 45/73/3 107/152/3
f  47/41/5 81/115/5 97/109/5
f  81/153/1 63/52/1 93/132/1
f  21/44/3 83/117/3 108/154/3
f  108/154/4 83/117/4 21/44/4
f  21/44/3 109/155/3 84/118/3
f  84/118/4 109/155/4 21/44/4
f  29/46/4 110/156/4 85/119/4
f  85/119/3 110/156/3 29/46/3
f  111/157/4 22/28/4 86/120/4
f  86/120/3 22/28/3 111/157/3
f  71/158/4 112/124/4 87/126/4
f  112/159/1 54/160/1 87/161/1
f  113/132/6 71/122/6 88/49/6
f  40/58/5 89/123/5 114/162/5
f  115/163/6 89/122/6 72/164/6
f  72/125/4 90/124/4 115/165/4
f  54/160/1 112/159/1 90/166/1
f  91/127/1 40/48/1 116/159/1
f  92/127/6 55/34/6 104/133/6
f  91/167/2 95/134/2 93/131/2
f  95/87/4 94/107/4 93/60/4
f  95/127/6 56/34/6 94/133/6
f  91/167/2 93/131/2 76/109/2
f  74/168/5 117/169/5 94/170/5
f  75/135/2 95/134/2 118/171/2
f  75/108/3 119/172/3 88/137/3
f  91/167/2 76/109/2 96/138/2
f  76/63/4 97/76/4 96/88/4
f  91/167/2 96/138/2 92/128/2
f  103/153/1 64/52/1 96/132/1
f  98/139/4 22/28/4 120/173/4
f  120/173/3 22/28/3 98/139/3
f  29/46/4 99/140/4 121/174/4
f  121/174/3 99/140/3 29/46/3
f  62/150/4 106/143/4 100/145/4
f  106/175/6 60/176/6 100/94/6
f  45/69/2 101/142/2 122/177/2
f  123/178/1 101/94/1 79/176/1
f  79/144/4 102/143/4 123/179/4
f  60/176/6 106/175/6 102/180/6
f  124/181/5 105/182/5 104/149/5
f  105/71/4 91/106/4 104/93/4
f  105/153/1 46/52/1 91/132/1
f  124/181/5 104/149/5 103/146/5
f  105/182/5 106/123/5 80/162/5
f  107/152/3 45/73/3 119/172/3
f  117/169/5 74/168/5 107/183/5
f  124/181/5 103/146/5 97/109/5
f  103/97/4 96/88/4 97/76/4
f  124/181/5 97/109/5 81/115/5
f  124/181/5 81/115/5 94/170/5
f  81/95/4 93/60/4 94/107/4
f  21/44/3 108/154/3 109/155/3
f  109/155/4 108/154/4 21/44/4
f  29/46/4 125/184/4 110/156/4
f  110/156/3 125/184/3 29/46/3
f  126/185/4 22/28/4 111/157/4
f  111/157/3 22/28/3 126/185/3
f  112/124/4 71/158/4 127/186/4
f  71/122/6 113/132/6 127/187/6
f  113/127/6 88/34/6 124/133/6
f  89/125/4 116/188/4 114/189/4
f  116/159/1 40/48/1 114/161/1
f  89/122/6 115/163/6 128/187/6
f  90/113/2 113/190/2 115/92/2
f  112/142/2 113/190/2 90/113/2
f  116/112/2 115/92/2 91/167/2
f  92/86/4 104/93/4 91/106/4
f  91/167/2 118/171/2 95/134/2
f  124/181/5 94/170/5 117/169/5
f  75/49/1 118/132/1 107/52/1
f  119/172/3 75/108/3 107/152/3
f  119/53/6 124/133/6 88/34/6
f  120/173/4 22/28/4 129/191/4
f  129/191/3 22/28/3 120/173/3
f  29/46/4 121/174/4 130/192/4
f  130/192/3 121/174/3 29/46/3
f  101/144/4 131/193/4 122/194/4
f  131/175/6 45/41/6 122/94/6
f  101/94/1 123/178/1 132/114/1
f  102/105/5 105/182/5 123/84/5
f  106/123/5 105/182/5 102/105/5
f  124/181/5 123/84/5 105/182/5
f  45/41/6 131/175/6 119/52/6
f  117/153/1 107/52/1 118/132/1
f  29/46/4 133/195/4 125/184/4
f  125/184/3 133/195/3 29/46/3
f  134/196/4 22/28/4 126/185/4
f  126/185/3 22/28/3 134/196/3
f  113/190/2 112/142/2 127/177/2
f  91/167/2 113/190/2 118/171/2
f  113/137/4 124/172/4 118/108/4
f  116/188/4 89/125/4 128/165/4
f  115/92/2 116/112/2 128/141/2
f  91/167/2 115/92/2 113/190/2
f  117/152/4 118/108/4 124/172/4
f  119/52/6 131/175/6 124/153/6
f  129/191/4 22/28/4 134/196/4
f  134/196/3 22/28/3 129/191/3
f  29/46/4 130/192/4 135/197/4
f  135/197/3 130/192/3 29/46/3
f  131/193/4 101/144/4 132/179/4
f  123/84/5 131/104/5 132/121/5
f  131/104/5 123/84/5 124/181/5
f  29/46/4 136/198/4 133/195/4
f  133/195/3 136/198/3 29/46/3
f  29/46/4 135/197/4 136/198/4
f  136/198/3 135/197/3 29/46/3

# Mesh 'mesh1_mesh1-geometry' with 200 faces
g mesh1_mesh1-geometry
usemtl material_1_24
f  3//6 2//6 1//6
f  4//6 1//6 2//6
f  3//5 5//5 2//5
f  4//2 7//2 1//2
f  2//5 5//5 8//5
f  10//2 1//2 7//2
f  8//5 5//5 11//5
f  14//2 1//2 10//2
f  10//2 7//2 15//2
f  17//5 11//5 5//5
f  8//5 11//5 18//5
f  21//2 1//2 14//2
f  23//2 15//2 7//2
f  10//1 15//1 22//1
f  16//6 24//6 7//6
f  17//1 5//1 14//1
f  26//5 18//5 11//5
f  8//6 18//6 25//6
f  21//1 14//1 5//1
f  15//2 23//2 30//2
f  23//6 7//6 24//6
f  31//1 22//1 15//1
f  16//5 22//5 24//5
f  18//5 26//5 33//5
f  26//1 11//1 34//1
f  35//6 25//6 18//6
f  23//2 40//2 30//2
f  30//4 41//4 15//4
f  24//4 42//4 23//4
f  31//5 24//5 22//5
f  31//4 15//4 41//4
f  29//1 34//1 11//1
f  26//5 45//5 33//5
f  33//4 46//4 18//4
f  26//4 34//4 45//4
f  35//2 34//2 25//2
f  35//4 18//4 47//4
f  40//2 54//2 30//2
f  23//4 55//4 40//4
f  56//4 41//4 30//4
f  42//4 57//4 23//4
f  24//5 31//5 42//5
f  31//5 41//5 42//5
f  29//2 25//2 34//2
f  45//5 60//5 33//5
f  61//4 18//4 46//4
f  33//6 62//6 46//6
f  63//4 45//4 34//4
f  34//2 35//2 63//2
f  47//4 18//4 64//4
f  35//2 47//2 63//2
f  30//2 54//2 71//2
f  54//2 40//2 72//2
f  73//4 40//4 55//4
f  57//4 55//4 23//4
f  93//2 56//2 41//2
f  41//5 56//5 93//5
f  56//4 74//4 41//4
f  75//4 56//4 30//4
f  96//2 42//2 57//2
f  57//5 42//5 96//5
f  42//4 47//4 57//4
f  42//5 41//5 76//5
f  33//5 60//5 62//5
f  60//5 45//5 79//5
f  64//4 18//4 61//4
f  104//5 46//5 61//5
f  61//2 46//2 104//2
f  46//4 73//4 61//4
f  80//6 46//6 62//6
f  74//4 45//4 63//4
f  97//5 64//5 47//5
f  47//2 64//2 97//2
f  64//4 57//4 47//4
f  63//2 47//2 81//2
f  87//2 71//2 54//2
f  30//1 71//1 88//1
f  72//2 40//2 89//2
f  54//3 72//3 90//3
f  73//6 91//6 40//6
f  91//2 55//2 73//2
f  73//5 55//5 91//5
f  55//4 61//4 73//4
f  55//5 57//5 92//5
f  56//2 93//2 95//2
f  95//5 93//5 56//5
f  93//5 76//5 41//5
f  63//6 93//6 41//6
f  63//4 41//4 74//4
f  56//1 94//1 74//1
f  56//5 75//5 95//5
f  88//4 75//4 30//4
f  42//2 96//2 76//2
f  76//5 96//5 42//5
f  96//5 92//5 57//5
f  64//6 96//6 57//6
f  42//1 97//1 47//1
f  97//1 42//1 76//1
f  100//5 62//5 60//5
f  79//5 45//5 101//5
f  60//3 79//3 102//3
f  64//2 61//2 103//2
f  46//5 104//5 105//5
f  105//2 104//2 46//2
f  104//2 103//2 61//2
f  55//1 104//1 61//1
f  46//6 91//6 73//6
f  105//6 46//6 80//6
f  80//3 62//3 106//3
f  107//4 45//4 74//4
f  94//5 63//5 74//5
f  74//2 63//2 94//2
f  64//5 97//5 103//5
f  103//2 97//2 64//2
f  97//2 81//2 47//2
f  63//5 94//5 81//5
f  81//2 94//2 63//2
f  93//6 63//6 81//6
f  87//3 112//3 71//3
f  87//6 54//6 112//6
f  88//1 71//1 113//1
f  114//2 89//2 40//2
f  72//1 89//1 115//1
f  115//3 90//3 72//3
f  90//6 112//6 54//6
f  116//6 40//6 91//6
f  55//2 91//2 92//2
f  92//5 91//5 55//5
f  104//1 55//1 92//1
f  93//5 95//5 91//5
f  93//3 94//3 95//3
f  94//1 56//1 95//1
f  76//5 93//5 91//5
f  94//2 117//2 74//2
f  118//5 95//5 75//5
f  118//2 88//2 75//2
f  75//5 88//5 118//5
f  88//4 119//4 75//4
f  96//5 76//5 91//5
f  96//3 97//3 76//3
f  92//5 96//5 91//5
f  96//6 64//6 103//6
f  100//3 106//3 62//3
f  100//1 60//1 106//1
f  122//5 101//5 45//5
f  79//6 101//6 123//6
f  123//3 102//3 79//3
f  102//1 106//1 60//1
f  104//2 105//2 124//2
f  104//3 91//3 105//3
f  91//6 46//6 105//6
f  103//2 104//2 124//2
f  80//2 106//2 105//2
f  119//4 45//4 107//4
f  107//2 74//2 117//2
f  97//2 103//2 124//2
f  97//3 96//3 103//3
f  81//2 97//2 124//2
f  94//2 81//2 124//2
f  94//3 93//3 81//3
f  127//3 71//3 112//3
f  127//1 113//1 71//1
f  88//2 118//2 113//2
f  113//5 118//5 88//5
f  124//1 88//1 113//1
f  114//3 116//3 89//3
f  114//6 40//6 116//6
f  128//1 115//1 89//1
f  115//5 113//5 90//5
f  90//5 113//5 112//5
f  91//5 115//5 116//5
f  91//3 104//3 92//3
f  95//5 118//5 91//5
f  117//2 94//2 124//2
f  107//6 118//6 75//6
f  107//4 75//4 119//4
f  88//1 124//1 119//1
f  122//3 131//3 101//3
f  122//1 45//1 131//1
f  132//6 123//6 101//6
f  123//2 105//2 102//2
f  102//2 105//2 106//2
f  105//2 123//2 124//2
f  119//1 131//1 45//1
f  124//5 107//5 119//5
f  119//2 107//2 124//2
f  118//6 107//6 117//6
f  107//5 124//5 117//5
f  117//2 124//2 107//2
f  127//5 112//5 113//5
f  118//5 113//5 91//5
f  118//3 124//3 113//3
f  128//3 89//3 116//3
f  128//5 116//5 115//5
f  113//5 115//5 91//5
f  124//3 118//3 117//3
f  124//1 131//1 119//1
f  132//3 101//3 131//3
f  132//2 131//2 123//2
f  124//2 123//2 131//2

