# File produced by Open Asset Import Library (http://www.assimp.sf.net)
# (assimp v3.2.202087883)

mtllib model_normalized.mtl

# 148 vertex positions
v -0.445247 0.054365 -0.018464
v -0.445247 0.021973 0.000971
v -0.445247 0.054365 0.000971
v -0.445247 0.021973 -0.018464
v 0.448749 0.054365 0.000971
v 0.448749 0.021973 -0.018464
v 0.448749 0.021973 0.000971
v 0.448749 0.054365 -0.018464
v -0.445247 0.054365 -0.042610
v -0.445247 0.021973 -0.023175
v -0.445247 0.054365 -0.023175
v -0.445247 0.021973 -0.042610
v 0.448749 0.054365 -0.023175
v 0.448749 0.021973 -0.042610
v 0.448749 0.021973 -0.023175
v 0.448749 0.054365 -0.042610
v -0.445247 0.054365 -0.066756
v -0.445247 0.021973 -0.047321
v -0.445247 0.054365 -0.047321
v -0.445247 0.021973 -0.066756
v 0.448749 0.054365 -0.047321
v 0.448749 0.021973 -0.066756
v 0.448749 0.021973 -0.047321
v 0.448749 0.054365 -0.066756
v -0.445247 0.054365 -0.090902
v -0.445247 0.021973 -0.071467
v -0.445247 0.054365 -0.071467
v -0.445247 0.021973 -0.090902
v 0.448749 0.054365 -0.071467
v 0.448749 0.021973 -0.090902
v 0.448749 0.021973 -0.071467
v 0.448749 0.054365 -0.090902
v -0.445247 0.054365 -0.115048
v -0.445247 0.021973 -0.095614
v -0.445247 0.054365 -0.095614
v -0.445247 0.021973 -0.115048
v 0.448749 0.054365 -0.095614
v 0.448749 0.021973 -0.115048
v 0.448749 0.021973 -0.095614
v 0.448749 0.054365 -0.115048
v -0.445247 0.054365 0.102267
v -0.445247 0.021973 0.121702
v -0.445247 0.054365 0.121702
v -0.445247 0.021973 0.102267
v 0.448749 0.054365 0.121702
v 0.448749 0.021973 0.102267
v 0.448749 0.021973 0.121702
v 0.448749 0.054365 0.102267
v -0.464682 0.054365 0.126413
v -0.464682 -0.016896 0.145848
v -0.464682 0.054365 0.145848
v -0.464682 -0.016896 0.126413
v 0.468183 0.054365 0.145848
v 0.468183 -0.016896 0.126413
v 0.468183 -0.016896 0.145848
v 0.468183 0.054365 0.126413
v -0.464682 -0.016896 -0.119760
v -0.445247 0.054365 -0.119760
v -0.445247 -0.016896 -0.119760
v -0.464682 0.054365 -0.119760
v -0.445247 -0.016896 0.126413
v -0.445247 0.054365 0.126413
v -0.464682 0.054365 -0.139194
v -0.464682 -0.016896 -0.119760
v -0.464682 0.054365 -0.119760
v -0.464682 -0.016896 -0.139194
v 0.468183 0.054365 -0.119760
v 0.468183 -0.016896 -0.139194
v 0.468183 -0.016896 -0.119760
v 0.468183 0.054365 -0.139194
v 0.448749 -0.016896 -0.119760
v 0.468183 0.054365 -0.119760
v 0.468183 -0.016896 -0.119760
v 0.448749 0.054365 -0.119760
v 0.448749 0.054365 0.126413
v 0.448749 -0.016896 0.126413
v -0.445247 0.054365 0.078121
v -0.445247 0.021973 0.097555
v -0.445247 0.054365 0.097555
v -0.445247 0.021973 0.078121
v 0.448749 0.054365 0.097555
v 0.448749 0.021973 0.078121
v 0.448749 0.021973 0.097555
v 0.448749 0.054365 0.078121
v -0.445247 0.054365 0.053975
v -0.445247 0.021973 0.073409
v -0.445247 0.054365 0.073409
v -0.445247 0.021973 0.053975
v 0.448749 0.054365 0.073409
v 0.448749 0.021973 0.053975
v 0.448749 0.021973 0.073409
v 0.448749 0.054365 0.053975
v -0.445247 0.054365 0.029829
v -0.445247 0.021973 0.049263
v -0.445247 0.054365 0.049263
v -0.445247 0.021973 0.029829
v 0.448749 0.054365 0.049263
v 0.448749 0.021973 0.029829
v 0.448749 0.021973 0.049263
v 0.448749 0.054365 0.029829
v -0.445247 0.054365 0.005682
v -0.445247 0.021973 0.025117
v -0.445247 0.054365 0.025117
v -0.445247 0.021973 0.005682
v 0.448749 0.054365 0.025117
v 0.448749 0.021973 0.005682
v 0.448749 0.021973 0.025117
v 0.448749 0.054365 0.005682
v 0.264119 0.021973 -0.087369
v 0.335380 0.021973 0.094022
v 0.264119 0.021973 0.094022
v 0.335380 0.021973 -0.087369
v 0.264119 -0.162656 -0.087369
v 0.335380 -0.162656 -0.087369
v 0.264119 -0.162656 0.094022
v 0.260880 -0.162656 -0.087369
v 0.335380 -0.162656 0.094022
v 0.338619 0.021973 -0.087369
v 0.260880 0.021973 0.094022
v 0.260880 0.021973 -0.087369
v 0.260880 -0.165895 -0.087369
v 0.338619 -0.162656 0.094022
v 0.338619 -0.162656 -0.087369
v 0.260880 -0.162656 0.094022
v 0.260880 -0.165895 0.094022
v 0.338619 0.021973 0.094022
v 0.338619 -0.165895 -0.087369
v 0.338619 -0.165895 0.094022
v -0.344834 0.021973 -0.087369
v -0.273574 0.021973 0.094022
v -0.344834 0.021973 0.094022
v -0.273574 0.021973 -0.087369
v -0.344834 -0.162656 -0.087369
v -0.273574 -0.162656 -0.087369
v -0.344834 -0.162656 0.094022
v -0.348073 -0.162656 -0.087369
v -0.273574 -0.162656 0.094022
v -0.270335 0.021973 -0.087369
v -0.348073 0.021973 0.094022
v -0.348073 0.021973 -0.087369
v -0.348073 -0.165895 -0.087369
v -0.270335 -0.162656 0.094022
v -0.270335 -0.162656 -0.087369
v -0.348073 -0.162656 0.094022
v -0.348073 -0.165895 0.094022
v -0.270335 0.021973 0.094022
v -0.270335 -0.165895 -0.087369
v -0.270335 -0.165895 0.094022

# 38 UV coordinates
vt -0.307692 0.097436 0
vt 0.17094 -0.015385 0
vt 0.17094 0.097436 0
vt -0.307692 -0.015385 0
vt -0.17094 0.297436 0
vt 0.307692 0.005128 0
vt 0.307692 0.297436 0
vt -0.307692 0.005128 0
vt 0.17094 0.297436 0
vt -0.307692 0.297436 0
vt -0.17094 0.005128 0
vt 0.17094 0.005128 0
vt 0.162393 0.297436 0
vt 0.162393 0.005128 0
vt -0.034188 0.297436 0
vt -0.025641 0.005128 0
vt -0.025641 0.297436 0
vt -0.162393 0.005128 0
vt -0.162393 0.297436 0
vt -0.307692 0.102564 0
vt -0.17094 -0 0
vt 0.17094 -0.020513 0
vt 0.034188 0.005128 0
vt 0.025641 0.297436 0
vt 0.025641 0.005128 0
vt -0.034188 0.005128 0
vt 0.17094 -0 0
vt 0.17094 0.102564 0
vt 0.307692 0 0
vt -0.307692 -0.020513 0
vt 0.034188 0.297436 0
vt 0.034188 -0 0
vt -0.307692 0 0
vt -0.034188 -0 0
vt -0.17094 0.102564 0
vt 0.307692 -0.020513 0
vt 0.307692 0.102564 0
vt -0.17094 -0.020513 0

# 6 vertex normals
vn -0.0254 0 0
vn 0.0254 0 0
vn 0 0 0.0254
vn 0 0 -0.0254
vn 0 0.0254 0
vn -0 -0.0254 0

# Mesh 'mesh1_mesh1-geometry' with 24 faces
g mesh1_mesh1-geometry
usemtl material_0_24
f  1//1 2//1 3//1
f  2//1 1//1 4//1
f  3//2 2//2 1//2
f  4//2 1//2 2//2
f  2//3 5//3 3//3
f  3//4 5//4 2//4
f  5//5 1//5 3//5
f  3//6 1//6 5//6
f  1//4 6//4 4//4
f  4//3 6//3 1//3
f  6//6 2//6 4//6
f  4//5 2//5 6//5
f  5//3 2//3 7//3
f  7//4 2//4 5//4
f  1//5 5//5 8//5
f  8//6 5//6 1//6
f  6//4 1//4 8//4
f  8//3 1//3 6//3
f  2//6 6//6 7//6
f  7//5 6//5 2//5
f  6//2 5//2 7//2
f  7//1 5//1 6//1
f  5//2 6//2 8//2
f  8//1 6//1 5//1

# Mesh 'mesh2_mesh2-geometry' with 12 faces
g mesh2_mesh2-geometry
usemtl material_1_0
l  2 4
l  3 2
l  2 7
l  4 1
l  4 6
l  1 3
l  3 5
l  7 6
l  5 7
l  1 8
l  6 8
l  8 5

# Mesh 'mesh1_mesh1-geometry' with 24 faces
g mesh1_mesh1-geometry
usemtl material_0_24
f  9//1 10//1 11//1
f  10//1 9//1 12//1
f  11//2 10//2 9//2
f  12//2 9//2 10//2
f  10//3 13//3 11//3
f  11//4 13//4 10//4
f  13//5 9//5 11//5
f  11//6 9//6 13//6
f  9//4 14//4 12//4
f  12//3 14//3 9//3
f  14//6 10//6 12//6
f  12//5 10//5 14//5
f  13//3 10//3 15//3
f  15//4 10//4 13//4
f  9//5 13//5 16//5
f  16//6 13//6 9//6
f  14//4 9//4 16//4
f  16//3 9//3 14//3
f  10//6 14//6 15//6
f  15//5 14//5 10//5
f  14//2 13//2 15//2
f  15//1 13//1 14//1
f  13//2 14//2 16//2
f  16//1 14//1 13//1

# Mesh 'mesh2_mesh2-geometry' with 12 faces
g mesh2_mesh2-geometry
usemtl material_1_0
l  10 12
l  11 10
l  10 15
l  12 9
l  12 14
l  9 11
l  11 13
l  15 14
l  13 15
l  9 16
l  14 16
l  16 13

# Mesh 'mesh1_mesh1-geometry' with 24 faces
g mesh1_mesh1-geometry
usemtl material_0_24
f  17//1 18//1 19//1
f  18//1 17//1 20//1
f  19//2 18//2 17//2
f  20//2 17//2 18//2
f  18//3 21//3 19//3
f  19//4 21//4 18//4
f  21//5 17//5 19//5
f  19//6 17//6 21//6
f  17//4 22//4 20//4
f  20//3 22//3 17//3
f  22//6 18//6 20//6
f  20//5 18//5 22//5
f  21//3 18//3 23//3
f  23//4 18//4 21//4
f  17//5 21//5 24//5
f  24//6 21//6 17//6
f  22//4 17//4 24//4
f  24//3 17//3 22//3
f  18//6 22//6 23//6
f  23//5 22//5 18//5
f  22//2 21//2 23//2
f  23//1 21//1 22//1
f  21//2 22//2 24//2
f  24//1 22//1 21//1

# Mesh 'mesh2_mesh2-geometry' with 12 faces
g mesh2_mesh2-geometry
usemtl material_1_0
l  18 20
l  19 18
l  18 23
l  20 17
l  20 22
l  17 19
l  19 21
l  23 22
l  21 23
l  17 24
l  22 24
l  24 21

# Mesh 'mesh1_mesh1-geometry' with 24 faces
g mesh1_mesh1-geometry
usemtl material_0_24
f  25//1 26//1 27//1
f  26//1 25//1 28//1
f  27//2 26//2 25//2
f  28//2 25//2 26//2
f  26//3 29//3 27//3
f  27//4 29//4 26//4
f  29//5 25//5 27//5
f  27//6 25//6 29//6
f  25//4 30//4 28//4
f  28//3 30//3 25//3
f  30//6 26//6 28//6
f  28//5 26//5 30//5
f  29//3 26//3 31//3
f  31//4 26//4 29//4
f  25//5 29//5 32//5
f  32//6 29//6 25//6
f  30//4 25//4 32//4
f  32//3 25//3 30//3
f  26//6 30//6 31//6
f  31//5 30//5 26//5
f  30//2 29//2 31//2
f  31//1 29//1 30//1
f  29//2 30//2 32//2
f  32//1 30//1 29//1

# Mesh 'mesh2_mesh2-geometry' with 12 faces
g mesh2_mesh2-geometry
usemtl material_1_0
l  26 28
l  27 26
l  26 31
l  28 25
l  28 30
l  25 27
l  27 29
l  31 30
l  29 31
l  25 32
l  30 32
l  32 29

# Mesh 'mesh1_mesh1-geometry' with 24 faces
g mesh1_mesh1-geometry
usemtl material_0_24
f  33//1 34//1 35//1
f  34//1 33//1 36//1
f  35//2 34//2 33//2
f  36//2 33//2 34//2
f  34//3 37//3 35//3
f  35//4 37//4 34//4
f  37//5 33//5 35//5
f  35//6 33//6 37//6
f  33//4 38//4 36//4
f  36//3 38//3 33//3
f  38//6 34//6 36//6
f  36//5 34//5 38//5
f  37//3 34//3 39//3
f  39//4 34//4 37//4
f  33//5 37//5 40//5
f  40//6 37//6 33//6
f  38//4 33//4 40//4
f  40//3 33//3 38//3
f  34//6 38//6 39//6
f  39//5 38//5 34//5
f  38//2 37//2 39//2
f  39//1 37//1 38//1
f  37//2 38//2 40//2
f  40//1 38//1 37//1

# Mesh 'mesh2_mesh2-geometry' with 12 faces
g mesh2_mesh2-geometry
usemtl material_1_0
l  34 36
l  35 34
l  34 39
l  36 33
l  36 38
l  33 35
l  35 37
l  39 38
l  37 39
l  33 40
l  38 40
l  40 37

# Mesh 'mesh1_mesh1-geometry' with 24 faces
g mesh1_mesh1-geometry
usemtl material_0_24
f  41//1 42//1 43//1
f  42//1 41//1 44//1
f  43//2 42//2 41//2
f  44//2 41//2 42//2
f  42//3 45//3 43//3
f  43//4 45//4 42//4
f  45//5 41//5 43//5
f  43//6 41//6 45//6
f  41//4 46//4 44//4
f  44//3 46//3 41//3
f  46//6 42//6 44//6
f  44//5 42//5 46//5
f  45//3 42//3 47//3
f  47//4 42//4 45//4
f  41//5 45//5 48//5
f  48//6 45//6 41//6
f  46//4 41//4 48//4
f  48//3 41//3 46//3
f  42//6 46//6 47//6
f  47//5 46//5 42//5
f  46//2 45//2 47//2
f  47//1 45//1 46//1
f  45//2 46//2 48//2
f  48//1 46//1 45//1

# Mesh 'mesh2_mesh2-geometry' with 12 faces
g mesh2_mesh2-geometry
usemtl material_1_0
l  42 44
l  43 42
l  42 47
l  44 41
l  44 46
l  41 43
l  43 45
l  47 46
l  45 47
l  41 48
l  46 48
l  48 45

# Mesh 'mesh3_mesh3-geometry' with 24 faces
g mesh3_mesh3-geometry
usemtl material_0_24
f  49//1 50//1 51//1
f  50//1 49//1 52//1
f  51//2 50//2 49//2
f  52//2 49//2 50//2
f  50//3 53//3 51//3
f  51//4 53//4 50//4
f  53//5 49//5 51//5
f  51//6 49//6 53//6
f  49//4 54//4 52//4
f  52//3 54//3 49//3
f  54//6 50//6 52//6
f  52//5 50//5 54//5
f  53//3 50//3 55//3
f  55//4 50//4 53//4
f  49//5 53//5 56//5
f  56//6 53//6 49//6
f  54//4 49//4 56//4
f  56//3 49//3 54//3
f  50//6 54//6 55//6
f  55//5 54//5 50//5
f  54//2 53//2 55//2
f  55//1 53//1 54//1
f  53//2 54//2 56//2
f  56//1 54//1 53//1

# Mesh 'mesh4_mesh4-geometry' with 12 faces
g mesh4_mesh4-geometry
usemtl material_1_0
l  52 49
l  50 52
l  52 54
l  49 51
l  49 56
l  51 50
l  50 55
l  54 56
l  55 54
l  51 53
l  56 53
l  53 55

# Mesh 'mesh5_mesh5-geometry' with 24 faces
g mesh5_mesh5-geometry
usemtl material_0_24
f  57//4 58//4 59//4
f  58//4 57//4 60//4
f  59//3 58//3 57//3
f  60//3 57//3 58//3
f  58//2 61//2 59//2
f  59//1 61//1 58//1
f  61//6 57//6 59//6
f  59//5 57//5 61//5
f  57//1 49//1 60//1
f  60//2 49//2 57//2
f  49//5 58//5 60//5
f  60//6 58//6 49//6
f  61//2 58//2 62//2
f  62//1 58//1 61//1
f  57//6 61//6 52//6
f  52//5 61//5 57//5
f  49//1 57//1 52//1
f  52//2 57//2 49//2
f  58//5 49//5 62//5
f  62//6 49//6 58//6
f  49//3 61//3 62//3
f  62//4 61//4 49//4
f  61//3 49//3 52//3
f  52//4 49//4 61//4

# Mesh 'mesh6_mesh6-geometry' with 12 faces
g mesh6_mesh6-geometry
usemtl material_1_0
l  57 60
l  59 57
l  52 57
l  60 58
l  49 60
l  58 59
l  61 59
l  61 52
l  52 49
l  62 58
l  49 62
l  62 61

# Mesh 'mesh3_mesh3-geometry' with 24 faces
g mesh3_mesh3-geometry
usemtl material_0_24
f  63//1 64//1 65//1
f  64//1 63//1 66//1
f  65//2 64//2 63//2
f  66//2 63//2 64//2
f  64//3 67//3 65//3
f  65//4 67//4 64//4
f  67//5 63//5 65//5
f  65//6 63//6 67//6
f  63//4 68//4 66//4
f  66//3 68//3 63//3
f  68//6 64//6 66//6
f  66//5 64//5 68//5
f  67//3 64//3 69//3
f  69//4 64//4 67//4
f  63//5 67//5 70//5
f  70//6 67//6 63//6
f  68//4 63//4 70//4
f  70//3 63//3 68//3
f  64//6 68//6 69//6
f  69//5 68//5 64//5
f  68//2 67//2 69//2
f  69//1 67//1 68//1
f  67//2 68//2 70//2
f  70//1 68//1 67//1

# Mesh 'mesh4_mesh4-geometry' with 12 faces
g mesh4_mesh4-geometry
usemtl material_1_0
l  66 63
l  64 66
l  66 68
l  63 65
l  63 70
l  65 64
l  64 69
l  68 70
l  69 68
l  65 67
l  70 67
l  67 69

# Mesh 'mesh5_mesh5-geometry' with 24 faces
g mesh5_mesh5-geometry
usemtl material_0_24
f  71//4 72//4 73//4
f  72//4 71//4 74//4
f  73//3 72//3 71//3
f  74//3 71//3 72//3
f  72//2 54//2 73//2
f  73//1 54//1 72//1
f  54//6 71//6 73//6
f  73//5 71//5 54//5
f  71//1 75//1 74//1
f  74//2 75//2 71//2
f  75//5 72//5 74//5
f  74//6 72//6 75//6
f  54//2 72//2 56//2
f  56//1 72//1 54//1
f  71//6 54//6 76//6
f  76//5 54//5 71//5
f  75//1 71//1 76//1
f  76//2 71//2 75//2
f  72//5 75//5 56//5
f  56//6 75//6 72//6
f  75//3 54//3 56//3
f  56//4 54//4 75//4
f  54//3 75//3 76//3
f  76//4 75//4 54//4

# Mesh 'mesh6_mesh6-geometry' with 12 faces
g mesh6_mesh6-geometry
usemtl material_1_0
l  71 74
l  73 71
l  76 71
l  74 72
l  75 74
l  72 73
l  54 73
l  54 76
l  76 75
l  56 72
l  75 56
l  56 54

# Mesh 'mesh1_mesh1-geometry' with 24 faces
g mesh1_mesh1-geometry
usemtl material_0_24
f  77//1 78//1 79//1
f  78//1 77//1 80//1
f  79//2 78//2 77//2
f  80//2 77//2 78//2
f  78//3 81//3 79//3
f  79//4 81//4 78//4
f  81//5 77//5 79//5
f  79//6 77//6 81//6
f  77//4 82//4 80//4
f  80//3 82//3 77//3
f  82//6 78//6 80//6
f  80//5 78//5 82//5
f  81//3 78//3 83//3
f  83//4 78//4 81//4
f  77//5 81//5 84//5
f  84//6 81//6 77//6
f  82//4 77//4 84//4
f  84//3 77//3 82//3
f  78//6 82//6 83//6
f  83//5 82//5 78//5
f  82//2 81//2 83//2
f  83//1 81//1 82//1
f  81//2 82//2 84//2
f  84//1 82//1 81//1

# Mesh 'mesh2_mesh2-geometry' with 12 faces
g mesh2_mesh2-geometry
usemtl material_1_0
l  78 80
l  79 78
l  78 83
l  80 77
l  80 82
l  77 79
l  79 81
l  83 82
l  81 83
l  77 84
l  82 84
l  84 81

# Mesh 'mesh1_mesh1-geometry' with 24 faces
g mesh1_mesh1-geometry
usemtl material_0_24
f  85//1 86//1 87//1
f  86//1 85//1 88//1
f  87//2 86//2 85//2
f  88//2 85//2 86//2
f  86//3 89//3 87//3
f  87//4 89//4 86//4
f  89//5 85//5 87//5
f  87//6 85//6 89//6
f  85//4 90//4 88//4
f  88//3 90//3 85//3
f  90//6 86//6 88//6
f  88//5 86//5 90//5
f  89//3 86//3 91//3
f  91//4 86//4 89//4
f  85//5 89//5 92//5
f  92//6 89//6 85//6
f  90//4 85//4 92//4
f  92//3 85//3 90//3
f  86//6 90//6 91//6
f  91//5 90//5 86//5
f  90//2 89//2 91//2
f  91//1 89//1 90//1
f  89//2 90//2 92//2
f  92//1 90//1 89//1

# Mesh 'mesh2_mesh2-geometry' with 12 faces
g mesh2_mesh2-geometry
usemtl material_1_0
l  86 88
l  87 86
l  86 91
l  88 85
l  88 90
l  85 87
l  87 89
l  91 90
l  89 91
l  85 92
l  90 92
l  92 89

# Mesh 'mesh1_mesh1-geometry' with 24 faces
g mesh1_mesh1-geometry
usemtl material_0_24
f  93//1 94//1 95//1
f  94//1 93//1 96//1
f  95//2 94//2 93//2
f  96//2 93//2 94//2
f  94//3 97//3 95//3
f  95//4 97//4 94//4
f  97//5 93//5 95//5
f  95//6 93//6 97//6
f  93//4 98//4 96//4
f  96//3 98//3 93//3
f  98//6 94//6 96//6
f  96//5 94//5 98//5
f  97//3 94//3 99//3
f  99//4 94//4 97//4
f  93//5 97//5 100//5
f  100//6 97//6 93//6
f  98//4 93//4 100//4
f  100//3 93//3 98//3
f  94//6 98//6 99//6
f  99//5 98//5 94//5
f  98//2 97//2 99//2
f  99//1 97//1 98//1
f  97//2 98//2 100//2
f  100//1 98//1 97//1

# Mesh 'mesh2_mesh2-geometry' with 12 faces
g mesh2_mesh2-geometry
usemtl material_1_0
l  94 96
l  95 94
l  94 99
l  96 93
l  96 98
l  93 95
l  95 97
l  99 98
l  97 99
l  93 100
l  98 100
l  100 97

# Mesh 'mesh1_mesh1-geometry' with 24 faces
g mesh1_mesh1-geometry
usemtl material_0_24
f  101//1 102//1 103//1
f  102//1 101//1 104//1
f  103//2 102//2 101//2
f  104//2 101//2 102//2
f  102//3 105//3 103//3
f  103//4 105//4 102//4
f  105//5 101//5 103//5
f  103//6 101//6 105//6
f  101//4 106//4 104//4
f  104//3 106//3 101//3
f  106//6 102//6 104//6
f  104//5 102//5 106//5
f  105//3 102//3 107//3
f  107//4 102//4 105//4
f  101//5 105//5 108//5
f  108//6 105//6 101//6
f  106//4 101//4 108//4
f  108//3 101//3 106//3
f  102//6 106//6 107//6
f  107//5 106//5 102//5
f  106//2 105//2 107//2
f  107//1 105//1 106//1
f  105//2 106//2 108//2
f  108//1 106//1 105//1

# Mesh 'mesh2_mesh2-geometry' with 12 faces
g mesh2_mesh2-geometry
usemtl material_1_0
l  102 104
l  103 102
l  102 107
l  104 101
l  104 106
l  101 103
l  103 105
l  107 106
l  105 107
l  101 108
l  106 108
l  108 105

# Mesh 'mesh7_mesh7-geometry' with 76 faces
g mesh7_mesh7-geometry
usemtl material_2_1_8
f  109/1/6 110/2/6 111/3/6
f  110/2/6 109/1/6 112/4/6
f  111/3/5 110/2/5 109/1/5
f  112/4/5 109/1/5 110/2/5
f  111/5/2 113/6/2 109/7/2
f  109/7/1 113/6/1 111/5/1
f  114/8/1 110/9/1 112/10/1
f  112/10/2 110/9/2 114/8/2
f  113/6/2 111/5/2 115/11/2
f  115/11/1 111/5/1 113/6/1
f  116/12/4 109/13/4 113/14/4
f  113/14/3 109/13/3 116/12/3
f  110/9/1 114/8/1 117/12/1
f  117/12/2 114/8/2 110/9/2
f  118/15/4 114/16/4 112/17/4
f  112/17/3 114/16/3 118/15/3
f  119/5/3 115/18/3 111/19/3
f  111/19/4 115/18/4 119/5/4
f  113/1/6 117/2/6 115/3/6
f  115/3/5 117/2/5 113/1/5
f  115/3/6 116/20/6 113/1/6
f  113/1/5 116/20/5 115/3/5
f  109/13/4 116/12/4 120/9/4
f  120/9/3 116/12/3 109/13/3
f  121/21/3 113/18/3 116/11/3
f  116/11/4 113/18/4 121/21/4
f  117/2/6 113/1/6 114/4/6
f  114/4/5 113/1/5 117/2/5
f  114/4/6 122/22/6 117/2/6
f  117/2/5 122/22/5 114/4/5
f  122/23/3 110/24/3 117/25/3
f  117/25/4 110/24/4 122/23/4
f  114/16/4 118/15/4 123/26/4
f  123/26/3 118/15/3 114/16/3
f  115/18/3 119/5/3 124/11/3
f  124/11/4 119/5/4 115/18/4
f  117/16/4 125/27/4 115/14/4
f  115/14/3 125/27/3 117/16/3
f  116/20/6 115/3/6 124/28/6
f  124/28/5 115/3/5 116/20/5
f  116/8/1 119/9/1 120/10/1
f  120/10/2 119/9/2 116/8/2
f  121/21/3 114/25/3 113/18/3
f  113/18/4 114/25/4 121/21/4
f  124/11/2 121/29/2 116/6/2
f  116/6/1 121/29/1 124/11/1
f  122/22/6 114/4/6 123/30/6
f  123/30/5 114/4/5 122/22/5
f  122/26/4 125/27/4 117/16/4
f  117/16/3 125/27/3 122/26/3
f  110/24/3 122/23/3 126/31/3
f  126/31/4 122/23/4 110/24/4
f  118/7/2 122/11/2 123/6/2
f  123/6/1 122/11/1 118/7/1
f  114/25/3 127/32/3 123/23/3
f  123/23/4 127/32/4 114/25/4
f  119/9/1 116/8/1 124/12/1
f  124/12/2 116/8/2 119/9/2
f  115/14/4 125/27/4 124/12/4
f  124/12/3 125/27/3 115/14/3
f  127/32/3 114/25/3 121/21/3
f  121/21/4 114/25/4 127/32/4
f  121/29/2 124/11/2 125/21/2
f  125/21/1 124/11/1 121/29/1
f  127/33/1 122/12/1 123/8/1
f  123/8/2 122/12/2 127/33/2
f  125/27/4 122/26/4 128/34/4
f  128/34/3 122/26/3 125/27/3
f  122/11/2 118/7/2 126/5/2
f  126/5/1 118/7/1 122/11/1
f  125/35/5 127/36/5 121/37/5
f  121/37/6 127/36/6 125/35/6
f  122/12/1 127/33/1 128/27/1
f  128/27/2 127/33/2 122/12/2
f  127/36/5 125/35/5 128/38/5
f  128/38/6 125/35/6 127/36/6

# Mesh 'mesh8_mesh8-geometry' with 28 faces
g mesh8_mesh8-geometry
usemtl material_1_0
l  125 121
l  125 128
l  125 124
l  121 116
l  121 127
l  127 128
l  128 122
l  124 115
l  124 119
l  116 124
l  116 120
l  113 116
l  127 123
l  122 126
l  122 123
l  117 122
l  115 111
l  113 115
l  115 117
l  113 109
l  114 113
l  123 118
l  123 114
l  117 114
l  117 110
l  111 109
l  114 112
l  112 110

# Mesh 'mesh7_mesh7-geometry' with 76 faces
g mesh7_mesh7-geometry
usemtl material_2_1_8
f  129/1/6 130/2/6 131/3/6
f  130/2/6 129/1/6 132/4/6
f  131/3/5 130/2/5 129/1/5
f  132/4/5 129/1/5 130/2/5
f  131/5/2 133/6/2 129/7/2
f  129/7/1 133/6/1 131/5/1
f  134/8/1 130/9/1 132/10/1
f  132/10/2 130/9/2 134/8/2
f  133/6/2 131/5/2 135/11/2
f  135/11/1 131/5/1 133/6/1
f  136/12/4 129/13/4 133/14/4
f  133/14/3 129/13/3 136/12/3
f  130/9/1 134/8/1 137/12/1
f  137/12/2 134/8/2 130/9/2
f  138/15/4 134/16/4 132/17/4
f  132/17/3 134/16/3 138/15/3
f  139/5/3 135/18/3 131/19/3
f  131/19/4 135/18/4 139/5/4
f  133/1/6 137/2/6 135/3/6
f  135/3/5 137/2/5 133/1/5
f  135/3/6 136/20/6 133/1/6
f  133/1/5 136/20/5 135/3/5
f  129/13/4 136/12/4 140/9/4
f  140/9/3 136/12/3 129/13/3
f  141/21/3 133/18/3 136/11/3
f  136/11/4 133/18/4 141/21/4
f  137/2/6 133/1/6 134/4/6
f  134/4/5 133/1/5 137/2/5
f  134/4/6 142/22/6 137/2/6
f  137/2/5 142/22/5 134/4/5
f  142/23/3 130/24/3 137/25/3
f  137/25/4 130/24/4 142/23/4
f  134/16/4 138/15/4 143/26/4
f  143/26/3 138/15/3 134/16/3
f  135/18/3 139/5/3 144/11/3
f  144/11/4 139/5/4 135/18/4
f  137/16/4 145/27/4 135/14/4
f  135/14/3 145/27/3 137/16/3
f  136/20/6 135/3/6 144/28/6
f  144/28/5 135/3/5 136/20/5
f  136/8/1 139/9/1 140/10/1
f  140/10/2 139/9/2 136/8/2
f  141/21/3 134/25/3 133/18/3
f  133/18/4 134/25/4 141/21/4
f  144/11/2 141/29/2 136/6/2
f  136/6/1 141/29/1 144/11/1
f  142/22/6 134/4/6 143/30/6
f  143/30/5 134/4/5 142/22/5
f  142/26/4 145/27/4 137/16/4
f  137/16/3 145/27/3 142/26/3
f  130/24/3 142/23/3 146/31/3
f  146/31/4 142/23/4 130/24/4
f  138/7/2 142/11/2 143/6/2
f  143/6/1 142/11/1 138/7/1
f  134/25/3 147/32/3 143/23/3
f  143/23/4 147/32/4 134/25/4
f  139/9/1 136/8/1 144/12/1
f  144/12/2 136/8/2 139/9/2
f  135/14/4 145/27/4 144/12/4
f  144/12/3 145/27/3 135/14/3
f  147/32/3 134/25/3 141/21/3
f  141/21/4 134/25/4 147/32/4
f  141/29/2 144/11/2 145/21/2
f  145/21/1 144/11/1 141/29/1
f  147/33/1 142/12/1 143/8/1
f  143/8/2 142/12/2 147/33/2
f  145/27/4 142/26/4 148/34/4
f  148/34/3 142/26/3 145/27/3
f  142/11/2 138/7/2 146/5/2
f  146/5/1 138/7/1 142/11/1
f  145/35/5 147/36/5 141/37/5
f  141/37/6 147/36/6 145/35/6
f  142/12/1 147/33/1 148/27/1
f  148/27/2 147/33/2 142/12/2
f  147/36/5 145/35/5 148/38/5
f  148/38/6 145/35/6 147/36/6

# Mesh 'mesh8_mesh8-geometry' with 28 faces
g mesh8_mesh8-geometry
usemtl material_1_0
l  145 141
l  145 148
l  145 144
l  141 136
l  141 147
l  147 148
l  148 142
l  144 135
l  144 139
l  136 144
l  136 140
l  133 136
l  147 143
l  142 146
l  142 143
l  137 142
l  135 131
l  133 135
l  135 137
l  133 129
l  134 133
l  143 138
l  143 134
l  137 134
l  137 130
l  131 129
l  134 132
l  132 130

