# File produced by Open Asset Import Library (http://www.assimp.sf.net)
# (assimp v3.2.202087883)

mtllib model_normalized.mtl

# 70 vertex positions
v -0.399008 0.030676 -0.132528
v 0.367894 0.030676 0.082205
v 0.367894 0.030676 -0.132528
v -0.399008 0.030676 0.082205
v 0.367894 0.015338 -0.132528
v -0.399008 0.015338 0.082205
v 0.367894 0.015338 0.082205
v -0.399008 0.015338 -0.132528
v -0.399008 0.283754 0.094986
v 0.367894 0.299092 0.094986
v -0.399008 0.299092 0.094986
v 0.367894 0.283754 0.094986
v -0.399008 0.299092 -0.147866
v 0.367894 0.299092 -0.147866
v -0.399008 0.283754 -0.147866
v 0.367894 0.283754 -0.147866
v -0.399008 -0.237740 -0.147866
v -0.399008 -0.253078 0.094986
v -0.399008 -0.237740 0.094986
v -0.399008 -0.253078 -0.147866
v 0.367894 -0.237740 0.094986
v 0.367894 -0.253078 -0.147866
v 0.367894 -0.253078 0.094986
v 0.367894 -0.237740 -0.147866
v 0.383232 -0.253078 -0.147866
v 0.383232 0.299092 0.094986
v 0.383232 -0.253078 0.094986
v 0.383232 0.299092 -0.147866
v 0.367894 -0.253078 0.094986
v 0.367894 -0.253078 -0.147866
v -0.414346 0.299092 -0.147866
v -0.414346 -0.253078 0.094986
v -0.414346 0.299092 0.094986
v -0.414346 -0.253078 -0.147866
v -0.399008 -0.253078 -0.147866
v -0.399008 0.299092 -0.147866
v -0.399008 0.299092 0.094986
v -0.399008 -0.253078 0.094986
v -0.399008 -0.237740 0.084761
v 0.367894 0.283754 0.084761
v -0.399008 0.283754 0.084761
v 0.367894 -0.237740 0.084761
v -0.399008 0.283754 0.082205
v -0.399008 -0.237740 0.082205
v 0.367894 -0.237740 0.082205
v 0.367894 0.283754 0.082205
v 0.367894 -0.237740 0.084761
v 0.367894 -0.155937 0.094986
v 0.367894 -0.237740 0.094986
v 0.367894 -0.155937 0.084761
v -0.399008 -0.237740 0.094986
v -0.399008 -0.155937 0.084761
v -0.399008 -0.155937 0.094986
v -0.399008 -0.237740 0.084761
v -0.399008 0.201951 0.094986
v 0.367894 0.201951 0.084761
v 0.367894 0.201951 0.094986
v -0.399008 0.201951 0.084761
v -0.399008 0.283754 0.084761
v -0.399008 0.283754 0.094986
v 0.061133 -0.237740 -0.132528
v 0.367894 0.283754 -0.132528
v 0.061133 0.283754 -0.132528
v 0.367894 -0.237740 -0.132528
v 0.061133 0.283754 -0.147866
v 0.367894 -0.237740 -0.147866
v 0.367894 0.283754 -0.147866
v 0.061133 -0.237740 -0.147866
v 0.367894 -0.245409 0.094986
v 0.383232 -0.245409 0.094986

# 0 UV coordinates

# 22 vertex normals
vn 0 0.0254 -0
vn 0 -0.0254 0
vn 0.127 0 0
vn -0.127 0 0
vn 0 0 -0.0115957
vn 0 -0 0.0115957
vn -0 0 0.0127
vn 0 0 -0.0127
vn 0.0254 0 0
vn -0.0254 0 0
vn 0 0 -0.0254
vn 0 0 0.0254
vn 0 0 0.00423334
vn 0 0.0223345 0
vn 0 -0.0223345 0
vn 0 0 -0.00423334
vn 0.0331304 0 0
vn -0.0331304 0 0
vn 0.0204839 0 0
vn -0.0204839 0 0
vn 0 0.013929 0
vn 0 -0.013929 0

# Mesh 'mesh1_mesh1-geometry' with 24 faces
g mesh1_mesh1-geometry
usemtl material_0_24
f  1//1 2//1 3//1
f  2//1 1//1 4//1
f  3//2 2//2 1//2
f  4//2 1//2 2//2
f  2//3 5//3 3//3
f  3//4 5//4 2//4
f  5//5 1//5 3//5
f  3//6 1//6 5//6
f  1//4 6//4 4//4
f  4//3 6//3 1//3
f  6//6 2//6 4//6
f  4//5 2//5 6//5
f  5//3 2//3 7//3
f  7//4 2//4 5//4
f  1//5 5//5 8//5
f  8//6 5//6 1//6
f  6//4 1//4 8//4
f  8//3 1//3 6//3
f  2//6 6//6 7//6
f  7//5 6//5 2//5
f  6//2 5//2 7//2
f  7//1 5//1 6//1
f  5//2 6//2 8//2
f  8//1 6//1 5//1

# Mesh 'mesh2_mesh2-geometry' with 12 faces
g mesh2_mesh2-geometry
usemtl material_0_0
l  2 4
l  3 2
l  2 7
l  4 1
l  4 6
l  1 3
l  3 5
l  7 6
l  5 7
l  1 8
l  6 8
l  8 5

# Mesh 'mesh3_mesh3-geometry' with 8 faces
g mesh3_mesh3-geometry
usemtl material_1_24
f  9//7 10//7 11//7
f  10//7 9//7 12//7
f  10//1 13//1 11//1
f  13//4 9//4 11//4
f  12//3 14//3 10//3
f  13//1 10//1 14//1
f  9//4 13//4 15//4
f  14//3 12//3 16//3

# Mesh 'mesh3_mesh3-geometry' with 16 faces
g mesh3_mesh3-geometry
usemtl material_0_24
f  11//8 10//8 9//8
f  12//8 9//8 10//8
f  11//2 13//2 10//2
f  11//3 9//3 13//3
f  9//2 16//2 12//2
f  12//1 16//1 9//1
f  10//4 14//4 12//4
f  14//2 10//2 13//2
f  15//3 13//3 9//3
f  16//2 9//2 15//2
f  15//1 9//1 16//1
f  16//4 12//4 14//4
f  16//8 13//8 14//8
f  14//7 13//7 16//7
f  13//8 16//8 15//8
f  15//7 16//7 13//7

# Mesh 'mesh4_mesh4-geometry' with 4 faces
g mesh4_mesh4-geometry
usemtl material_0_0
l  13 14
l  14 16
l  15 16
l  16 12

# Mesh 'mesh5_mesh5-geometry' with 8 faces
g mesh5_mesh5-geometry
usemtl material_1_24
f  17//4 18//4 19//4
f  18//4 17//4 20//4
f  18//7 21//7 19//7
f  22//2 18//2 20//2
f  21//7 18//7 23//7
f  18//2 22//2 23//2
f  23//3 24//3 21//3
f  24//3 23//3 22//3

# Mesh 'mesh5_mesh5-geometry' with 16 faces
g mesh5_mesh5-geometry
usemtl material_0_24
f  19//3 18//3 17//3
f  20//3 17//3 18//3
f  19//8 21//8 18//8
f  21//1 17//1 19//1
f  19//2 17//2 21//2
f  17//8 22//8 20//8
f  20//7 22//7 17//7
f  20//1 18//1 22//1
f  23//8 18//8 21//8
f  17//1 21//1 24//1
f  24//2 21//2 17//2
f  22//8 17//8 24//8
f  24//7 17//7 22//7
f  23//1 22//1 18//1
f  21//4 24//4 23//4
f  22//4 23//4 24//4

# Mesh 'mesh6_mesh6-geometry' with 1 faces
g mesh6_mesh6-geometry
usemtl material_0_0
l  22 20

# Mesh 'mesh7_mesh7-geometry' with 1 faces
g mesh7_mesh7-geometry
usemtl material_0_0
l  24 17

# Mesh 'mesh8_mesh8-geometry' with 2 faces
g mesh8_mesh8-geometry
usemtl material_1_24
f  25//9 26//9 27//9
f  26//9 25//9 28//9

# Mesh 'mesh8_mesh8-geometry' with 2 faces
g mesh8_mesh8-geometry
usemtl material_0_24
f  27//10 26//10 25//10
f  28//10 25//10 26//10

# Mesh 'mesh9_mesh9-geometry' with 14 faces
g mesh9_mesh9-geometry
usemtl material_0_24
f  14//10 29//10 10//10
f  29//10 14//10 30//10
f  10//9 29//9 14//9
f  30//9 14//9 29//9
f  10//11 26//11 29//11
f  14//2 28//2 10//2
f  14//11 25//11 30//11
f  30//12 25//12 14//12
f  30//1 29//1 25//1
f  27//11 29//11 26//11
f  26//2 10//2 28//2
f  25//11 14//11 28//11
f  28//12 14//12 25//12
f  27//1 25//1 29//1

# Mesh 'mesh9_mesh9-geometry' with 6 faces
g mesh9_mesh9-geometry
usemtl material_1_24
f  29//12 26//12 10//12
f  10//1 28//1 14//1
f  25//2 29//2 30//2
f  26//12 29//12 27//12
f  28//1 10//1 26//1
f  29//2 25//2 27//2

# Mesh 'mesh10_mesh10-geometry' with 4 faces
g mesh10_mesh10-geometry
usemtl material_0_0
l  14 30
l  14 10
l  30 29
l  10 29

# Mesh 'mesh11_mesh11-geometry' with 2 faces
g mesh11_mesh11-geometry
usemtl material_1_24
f  31//10 32//10 33//10
f  32//10 31//10 34//10

# Mesh 'mesh11_mesh11-geometry' with 2 faces
g mesh11_mesh11-geometry
usemtl material_0_24
f  33//9 32//9 31//9
f  34//9 31//9 32//9

# Mesh 'mesh12_mesh12-geometry' with 14 faces
g mesh12_mesh12-geometry
usemtl material_0_24
f  35//11 31//11 36//11
f  31//11 35//11 34//11
f  36//12 31//12 35//12
f  34//12 35//12 31//12
f  36//2 37//2 31//2
f  37//9 35//9 36//9
f  36//10 35//10 37//10
f  34//1 32//1 35//1
f  33//2 31//2 37//2
f  35//9 37//9 38//9
f  38//10 37//10 35//10
f  38//1 35//1 32//1
f  33//11 37//11 32//11
f  38//11 32//11 37//11

# Mesh 'mesh12_mesh12-geometry' with 6 faces
g mesh12_mesh12-geometry
usemtl material_1_24
f  31//1 37//1 36//1
f  35//2 32//2 34//2
f  37//1 31//1 33//1
f  32//2 35//2 38//2
f  32//12 37//12 33//12
f  37//12 32//12 38//12

# Mesh 'mesh13_mesh13-geometry' with 4 faces
g mesh13_mesh13-geometry
usemtl material_0_0
l  35 34
l  35 38
l  35 36
l  36 31

# Mesh 'mesh14_mesh14-geometry' with 10 faces
g mesh14_mesh14-geometry
usemtl material_1_24
f  39//13 40//13 41//13
f  40//13 39//13 42//13
f  40//14 43//14 41//14
f  41//4 44//4 39//4
f  39//15 45//15 42//15
f  45//3 40//3 42//3
f  43//14 40//14 46//14
f  44//4 41//4 43//4
f  45//15 39//15 44//15
f  40//3 45//3 46//3

# Mesh 'mesh14_mesh14-geometry' with 14 faces
g mesh14_mesh14-geometry
usemtl material_0_24
f  41//16 40//16 39//16
f  42//16 39//16 40//16
f  41//15 43//15 40//15
f  39//3 44//3 41//3
f  42//14 45//14 39//14
f  42//4 40//4 45//4
f  46//15 40//15 43//15
f  43//3 41//3 44//3
f  44//14 39//14 45//14
f  46//4 45//4 40//4
f  45//16 43//16 46//16
f  46//13 43//13 45//13
f  43//16 45//16 44//16
f  44//13 45//13 43//13

# Mesh 'mesh15_mesh15-geometry' with 12 faces
g mesh15_mesh15-geometry
usemtl material_1_24
f  47//17 48//17 49//17
f  48//17 47//17 50//17
f  48//12 51//12 49//12
f  51//2 47//2 49//2
f  47//11 52//11 50//11
f  52//1 48//1 50//1
f  51//12 48//12 53//12
f  47//2 51//2 54//2
f  52//11 47//11 54//11
f  48//1 52//1 53//1
f  52//18 51//18 53//18
f  51//18 52//18 54//18

# Mesh 'mesh15_mesh15-geometry' with 12 faces
g mesh15_mesh15-geometry
usemtl material_0_24
f  49//18 48//18 47//18
f  50//18 47//18 48//18
f  49//11 51//11 48//11
f  49//1 47//1 51//1
f  50//12 52//12 47//12
f  50//2 48//2 52//2
f  53//11 48//11 51//11
f  54//1 51//1 47//1
f  54//12 47//12 52//12
f  53//2 52//2 48//2
f  53//17 51//17 52//17
f  54//17 52//17 51//17

# Mesh 'mesh16_mesh16-geometry' with 12 faces
g mesh16_mesh16-geometry
usemtl material_1_24
f  55//2 56//2 57//2
f  56//2 55//2 58//2
f  56//19 12//19 57//19
f  12//12 55//12 57//12
f  55//20 59//20 58//20
f  59//11 56//11 58//11
f  12//19 56//19 40//19
f  55//12 12//12 60//12
f  59//20 55//20 60//20
f  56//11 59//11 40//11
f  59//1 12//1 40//1
f  12//1 59//1 60//1

# Mesh 'mesh16_mesh16-geometry' with 12 faces
g mesh16_mesh16-geometry
usemtl material_0_24
f  57//1 56//1 55//1
f  58//1 55//1 56//1
f  57//20 12//20 56//20
f  57//11 55//11 12//11
f  58//19 59//19 55//19
f  58//12 56//12 59//12
f  40//20 56//20 12//20
f  60//11 12//11 55//11
f  60//19 55//19 59//19
f  40//12 59//12 56//12
f  40//2 12//2 59//2
f  60//2 59//2 12//2

# Mesh 'mesh17_mesh17-geometry' with 8 faces
g mesh17_mesh17-geometry
usemtl material_1_24
f  61//12 62//12 63//12
f  62//12 61//12 64//12
f  62//21 65//21 63//21
f  61//22 66//22 64//22
f  66//9 62//9 64//9
f  65//21 62//21 67//21
f  66//22 61//22 68//22
f  62//9 66//9 67//9

# Mesh 'mesh17_mesh17-geometry' with 16 faces
g mesh17_mesh17-geometry
usemtl material_0_24
f  63//11 62//11 61//11
f  64//11 61//11 62//11
f  63//22 65//22 62//22
f  65//10 61//10 63//10
f  63//9 61//9 65//9
f  64//21 66//21 61//21
f  64//10 62//10 66//10
f  67//22 62//22 65//22
f  61//10 65//10 68//10
f  68//9 65//9 61//9
f  68//21 61//21 66//21
f  67//10 66//10 62//10
f  66//11 65//11 67//11
f  67//12 65//12 66//12
f  65//11 66//11 68//11
f  68//12 66//12 65//12

# Mesh 'mesh18_mesh18-geometry' with 1 faces
g mesh18_mesh18-geometry
usemtl material_0_0
l  65 68

# Mesh 'mesh19_mesh19-geometry' with 4 faces
g mesh19_mesh19-geometry
usemtl material_0_24
f  27//12 69//12 29//12
f  69//12 27//12 70//12
f  29//11 69//11 27//11
f  70//11 27//11 69//11

