# File produced by Open Asset Import Library (http://www.assimp.sf.net)
# (assimp v3.2.202087883)

mtllib model_normalized.mtl

# 178 vertex positions
v 0.424660 -0.040233 -0.235858
v 0.212448 -0.048085 -0.235858
v 0.212448 -0.040233 -0.235858
v 0.424660 -0.048085 -0.235858
v 0.212448 -0.040233 0.080083
v 0.424660 -0.040233 0.086931
v 0.212448 -0.048085 0.086931
v 0.367954 -0.040233 0.080083
v 0.424660 -0.048085 0.086931
v 0.212448 -0.045206 0.086603
v 0.212448 -0.040246 0.080228
v 0.367954 -0.040233 0.086931
v 0.367954 -0.045887 0.086931
v 0.212448 -0.045887 0.086931
v 0.212448 -0.040424 0.080627
v 0.367954 -0.040246 0.080228
v 0.212448 -0.040343 0.080505
v 0.212448 -0.045757 0.086921
v 0.367954 -0.045206 0.086603
v 0.212448 -0.040282 0.080371
v 0.367954 -0.045757 0.086921
v 0.367954 -0.040282 0.080371
v 0.212448 -0.045630 0.086893
v 0.212448 -0.045294 0.086699
v 0.367954 -0.040424 0.080627
v 0.367954 -0.040343 0.080505
v 0.367954 -0.045630 0.086893
v 0.212448 -0.045509 0.086845
v 0.367954 -0.045294 0.086699
v 0.367954 -0.045509 0.086845
v 0.212448 -0.045396 0.086780
v 0.367954 -0.045396 0.086780
v -0.000201 -0.040233 0.080083
v -0.000201 -0.040233 -0.235858
v -0.000201 -0.048085 -0.235858
v 0.211575 -0.040233 -0.235858
v -0.000201 -0.048085 0.086931
v 0.211575 -0.040233 0.080083
v 0.211575 -0.048085 -0.235858
v -0.000201 -0.045206 0.086603
v -0.000201 -0.040246 0.080228
v 0.211575 -0.048085 0.086931
v -0.000201 -0.045887 0.086931
v -0.000201 -0.040424 0.080627
v 0.211575 -0.040246 0.080228
v -0.000201 -0.040343 0.080505
v 0.211575 -0.040424 0.080627
v -0.000201 -0.045757 0.086921
v 0.211575 -0.045206 0.086603
v -0.000201 -0.040282 0.080371
v 0.211575 -0.045757 0.086921
v -0.000201 -0.045294 0.086699
v 0.211575 -0.045887 0.086931
v 0.211575 -0.040343 0.080505
v 0.211575 -0.040282 0.080371
v 0.211575 -0.045630 0.086893
v -0.000201 -0.045630 0.086893
v 0.211575 -0.045294 0.086699
v 0.211575 -0.045396 0.086780
v -0.000201 -0.045396 0.086780
v 0.211575 -0.045509 0.086845
v -0.000201 -0.045509 0.086845
v -0.425934 -0.040424 0.080627
v -0.213722 -0.040424 0.080627
v -0.213722 -0.040343 0.080505
v -0.213722 -0.045206 0.086603
v -0.213722 -0.040233 0.080083
v -0.425934 -0.040343 0.080505
v -0.425934 -0.045206 0.086603
v -0.213722 -0.048085 0.086931
v -0.213722 -0.040246 0.080228
v -0.213722 -0.040282 0.080371
v -0.425934 -0.040282 0.080371
v -0.425934 -0.045294 0.086699
v -0.425934 -0.048085 -0.235858
v -0.213722 -0.045887 0.086931
v -0.213722 -0.040233 -0.235858
v -0.425934 -0.040246 0.080228
v -0.425934 -0.040233 0.080083
v -0.213722 -0.045294 0.086699
v -0.425934 -0.045887 0.086931
v -0.213722 -0.048085 -0.235858
v -0.425934 -0.045396 0.086780
v -0.425934 -0.040233 -0.235858
v -0.213722 -0.045757 0.086921
v -0.425934 -0.048085 0.086931
v -0.213722 -0.045396 0.086780
v -0.425934 -0.045757 0.086921
v -0.425934 -0.045509 0.086845
v -0.213722 -0.045630 0.086893
v -0.213722 -0.045509 0.086845
v -0.425934 -0.045630 0.086893
v -0.001073 -0.048085 0.086931
v -0.001073 -0.048085 -0.235858
v -0.001073 -0.040233 -0.235858
v -0.212850 -0.048085 0.086931
v -0.212850 -0.048085 -0.235858
v -0.001073 -0.040233 0.080083
v -0.212850 -0.045887 0.086931
v -0.212850 -0.040233 -0.235858
v -0.212850 -0.040233 0.080083
v -0.001073 -0.040424 0.080627
v -0.212850 -0.045206 0.086603
v -0.001073 -0.045887 0.086931
v -0.212850 -0.040246 0.080228
v -0.001073 -0.040343 0.080505
v -0.001073 -0.045206 0.086603
v -0.212850 -0.045757 0.086921
v -0.001073 -0.045757 0.086921
v -0.001073 -0.040246 0.080228
v -0.212850 -0.040343 0.080505
v -0.212850 -0.040424 0.080627
v -0.212850 -0.045630 0.086893
v -0.001073 -0.045294 0.086699
v -0.212850 -0.040282 0.080371
v -0.001073 -0.040282 0.080371
v -0.001073 -0.045630 0.086893
v -0.212850 -0.045509 0.086845
v -0.212850 -0.045294 0.086699
v -0.001073 -0.045396 0.086780
v -0.001073 -0.045509 0.086845
v -0.212850 -0.045396 0.086780
v -0.436839 0.254639 0.119646
v -0.436839 0.254639 0.108741
v -0.436839 -0.050702 0.108741
v 0.435565 0.254639 0.119646
v 0.435565 -0.050702 0.108741
v -0.436839 -0.050702 -0.235858
v -0.425934 0.254639 0.108741
v -0.436839 -0.050702 0.119646
v 0.435565 0.254639 0.108741
v -0.436839 0.254639 -0.235858
v -0.425934 -0.050702 -0.235858
v -0.425934 -0.050702 0.108741
v 0.435565 -0.050702 0.119646
v 0.435565 0.254639 -0.235858
v 0.424660 -0.050702 0.108741
v -0.425934 0.254639 -0.235858
v 0.435565 -0.050702 -0.235858
v 0.424660 0.254639 -0.235858
v 0.424660 0.254639 0.108741
v -0.425934 -0.039797 -0.235858
v -0.418083 0.254639 0.108741
v 0.424660 -0.050702 -0.235858
v -0.418083 -0.031945 -0.235858
v -0.425934 -0.039797 -0.262030
v -0.418083 0.254639 -0.235858
v -0.425934 -0.039797 0.108741
v -0.418083 -0.031945 0.108741
v 0.416808 0.254639 -0.235858
v 0.424660 -0.039797 0.108741
v 0.416808 -0.031945 -0.235858
v 0.424660 -0.039797 -0.235858
v -0.418083 0.246788 -0.235858
v -0.425934 0.254639 -0.262030
v 0.424660 -0.039797 -0.262030
v -0.418083 -0.039797 -0.228007
v 0.416808 0.254639 0.108741
v -0.418083 -0.031945 -0.262030
v -0.418083 -0.031945 -0.228007
v 0.416808 -0.039797 -0.228007
v -0.418083 0.246788 -0.262030
v 0.416808 -0.031945 -0.262030
v -0.418083 -0.039797 0.076026
v 0.416808 -0.031945 0.108741
v -0.418083 -0.031945 0.076026
v 0.416808 0.254639 -0.228007
v 0.416808 -0.039797 0.076026
v 0.416808 0.246788 -0.235858
v 0.424660 0.254639 -0.262030
v 0.416808 -0.031945 -0.228007
v -0.418083 0.254639 -0.228007
v 0.416808 0.246788 -0.262030
v 0.416808 -0.031945 0.076026
v 0.416808 0.246788 -0.228007
v -0.418083 0.246788 0.108741
v -0.418083 0.246788 -0.228007
v 0.416808 0.246788 0.108741

# 0 UV coordinates

# 28 vertex normals
vn 0 0 -0.0254
vn -0.0254 0 0
vn 0 0.0254 0
vn 0.0254 0 0
vn 0 -0.0254 0
vn 0 0.0253097 0.00213947
vn 0 0 0.0254
vn 0 0.019834 0.0158673
vn 0 0.0245912 0.00635871
vn 0 0.00189624 0.0253291
vn 0 0.0185945 0.0173034
vn 0 0.0211013 0.0141385
vn 0 0.0231745 0.0103972
vn 0 0.00564203 0.0247655
vn 0 0.00926325 0.0236506
vn 0 0.015814 0.0198765
vn 0 0.0126812 0.0220079
vn 0 -0.0253097 -0.00213947
vn 0 -0.019834 -0.0158673
vn 0 -0.0245912 -0.00635871
vn -0 -0.00189624 -0.0253291
vn 0 -0.0185945 -0.0173034
vn 0 -0.0211013 -0.0141385
vn 0 -0.0231745 -0.0103972
vn 0 -0.00564203 -0.0247655
vn -0 -0.00926325 -0.0236506
vn 0 -0.015814 -0.0198765
vn 0 -0.0126812 -0.0220079

# Mesh 'mesh1_mesh1-geometry' with 60 faces
g mesh1_mesh1-geometry
usemtl material_0_24
f  1//1 2//1 3//1
f  1//1 4//1 2//1
f  5//2 3//2 2//2
f  5//3 1//3 3//3
f  6//4 4//4 1//4
f  2//5 4//5 7//5
f  7//2 5//2 2//2
f  5//3 8//3 1//3
f  9//4 4//4 6//4
f  8//3 6//3 1//3
f  7//5 4//5 9//5
f  7//2 10//2 5//2
f  11//6 8//6 5//6
f  12//7 9//7 6//7
f  12//3 6//3 8//3
f  13//7 7//7 9//7
f  14//2 10//2 7//2
f  10//2 15//2 5//2
f  11//6 16//6 8//6
f  17//2 11//2 5//2
f  12//7 13//7 9//7
f  12//2 8//2 16//2
f  14//7 7//7 13//7
f  14//2 18//2 10//2
f  10//8 19//8 15//8
f  15//2 17//2 5//2
f  20//9 16//9 11//9
f  17//2 20//2 11//2
f  12//2 21//2 13//2
f  12//2 16//2 22//2
f  21//10 14//10 13//10
f  18//10 14//10 21//10
f  18//2 23//2 10//2
f  24//11 19//11 10//11
f  15//8 19//8 25//8
f  15//12 26//12 17//12
f  20//9 22//9 16//9
f  17//13 22//13 20//13
f  12//2 27//2 21//2
f  12//2 22//2 26//2
f  27//14 18//14 21//14
f  23//14 18//14 27//14
f  23//2 28//2 10//2
f  24//11 29//11 19//11
f  28//2 24//2 10//2
f  12//2 25//2 19//2
f  15//12 25//12 26//12
f  17//13 26//13 22//13
f  12//2 30//2 27//2
f  12//2 26//2 25//2
f  30//15 23//15 27//15
f  28//15 23//15 30//15
f  24//16 31//16 29//16
f  12//2 19//2 29//2
f  28//2 31//2 24//2
f  12//2 32//2 30//2
f  32//17 28//17 30//17
f  29//16 31//16 32//16
f  12//2 29//2 32//2
f  31//17 28//17 32//17

# Mesh 'mesh1_mesh1-geometry' with 60 faces
g mesh1_mesh1-geometry
usemtl material_1_24
f  3//7 2//7 1//7
f  2//7 4//7 1//7
f  2//4 3//4 5//4
f  3//5 1//5 5//5
f  1//2 4//2 6//2
f  7//3 4//3 2//3
f  2//4 5//4 7//4
f  1//5 8//5 5//5
f  6//2 4//2 9//2
f  1//5 6//5 8//5
f  9//3 4//3 7//3
f  5//4 10//4 7//4
f  5//18 8//18 11//18
f  6//1 9//1 12//1
f  8//5 6//5 12//5
f  9//1 7//1 13//1
f  7//4 10//4 14//4
f  5//4 15//4 10//4
f  8//18 16//18 11//18
f  5//4 11//4 17//4
f  9//1 13//1 12//1
f  16//4 8//4 12//4
f  13//1 7//1 14//1
f  10//4 18//4 14//4
f  15//19 19//19 10//19
f  5//4 17//4 15//4
f  11//20 16//20 20//20
f  11//4 20//4 17//4
f  13//4 21//4 12//4
f  22//4 16//4 12//4
f  13//21 14//21 21//21
f  21//21 14//21 18//21
f  10//4 23//4 18//4
f  10//22 19//22 24//22
f  25//19 19//19 15//19
f  17//23 26//23 15//23
f  16//20 22//20 20//20
f  20//24 22//24 17//24
f  21//4 27//4 12//4
f  26//4 22//4 12//4
f  21//25 18//25 27//25
f  27//25 18//25 23//25
f  10//4 28//4 23//4
f  19//22 29//22 24//22
f  10//4 24//4 28//4
f  19//4 25//4 12//4
f  26//23 25//23 15//23
f  22//24 26//24 17//24
f  27//4 30//4 12//4
f  25//4 26//4 12//4
f  27//26 23//26 30//26
f  30//26 23//26 28//26
f  29//27 31//27 24//27
f  29//4 19//4 12//4
f  24//4 31//4 28//4
f  30//4 32//4 12//4
f  30//28 28//28 32//28
f  32//27 31//27 29//27
f  32//4 29//4 12//4
f  32//28 28//28 31//28

# Mesh 'mesh2_mesh2-geometry' with 56 faces
g mesh2_mesh2-geometry
usemtl material_0_24
f  33//2 34//2 35//2
f  33//3 36//3 34//3
f  36//1 35//1 34//1
f  37//2 33//2 35//2
f  33//3 38//3 36//3
f  36//1 39//1 35//1
f  37//2 40//2 33//2
f  35//5 39//5 37//5
f  41//6 38//6 33//6
f  42//4 36//4 38//4
f  42//4 39//4 36//4
f  43//2 40//2 37//2
f  40//2 44//2 33//2
f  37//5 39//5 42//5
f  41//6 45//6 38//6
f  46//2 41//2 33//2
f  42//4 38//4 47//4
f  43//2 48//2 40//2
f  43//7 37//7 42//7
f  40//8 49//8 44//8
f  44//2 46//2 33//2
f  50//9 45//9 41//9
f  47//4 38//4 45//4
f  46//2 50//2 41//2
f  42//4 47//4 49//4
f  48//10 43//10 51//10
f  48//2 52//2 40//2
f  43//7 42//7 53//7
f  52//11 49//11 40//11
f  44//8 49//8 47//8
f  44//12 54//12 46//12
f  50//9 55//9 45//9
f  47//4 45//4 54//4
f  46//13 55//13 50//13
f  42//4 49//4 53//4
f  51//10 43//10 53//10
f  56//14 48//14 51//14
f  48//2 57//2 52//2
f  52//11 58//11 49//11
f  44//12 47//12 54//12
f  46//13 54//13 55//13
f  54//4 45//4 55//4
f  53//4 49//4 58//4
f  53//4 58//4 51//4
f  57//14 48//14 56//14
f  51//4 59//4 56//4
f  57//2 60//2 52//2
f  52//16 60//16 58//16
f  51//4 58//4 59//4
f  61//15 57//15 56//15
f  56//4 59//4 61//4
f  57//2 62//2 60//2
f  58//16 60//16 59//16
f  62//15 57//15 61//15
f  59//17 62//17 61//17
f  60//17 62//17 59//17

# Mesh 'mesh2_mesh2-geometry' with 56 faces
g mesh2_mesh2-geometry
usemtl material_1_24
f  35//4 34//4 33//4
f  34//5 36//5 33//5
f  34//7 35//7 36//7
f  35//4 33//4 37//4
f  36//5 38//5 33//5
f  35//7 39//7 36//7
f  33//4 40//4 37//4
f  37//3 39//3 35//3
f  33//18 38//18 41//18
f  38//2 36//2 42//2
f  36//2 39//2 42//2
f  37//4 40//4 43//4
f  33//4 44//4 40//4
f  42//3 39//3 37//3
f  38//18 45//18 41//18
f  33//4 41//4 46//4
f  47//2 38//2 42//2
f  40//4 48//4 43//4
f  42//1 37//1 43//1
f  44//19 49//19 40//19
f  33//4 46//4 44//4
f  41//20 45//20 50//20
f  45//2 38//2 47//2
f  41//4 50//4 46//4
f  49//2 47//2 42//2
f  51//21 43//21 48//21
f  40//4 52//4 48//4
f  53//1 42//1 43//1
f  40//22 49//22 52//22
f  47//19 49//19 44//19
f  46//23 54//23 44//23
f  45//20 55//20 50//20
f  54//2 45//2 47//2
f  50//24 55//24 46//24
f  53//2 49//2 42//2
f  53//21 43//21 51//21
f  51//25 48//25 56//25
f  52//4 57//4 48//4
f  49//22 58//22 52//22
f  54//23 47//23 44//23
f  55//24 54//24 46//24
f  55//2 45//2 54//2
f  58//2 49//2 53//2
f  51//2 58//2 53//2
f  56//25 48//25 57//25
f  56//2 59//2 51//2
f  52//4 60//4 57//4
f  58//27 60//27 52//27
f  59//2 58//2 51//2
f  56//26 57//26 61//26
f  61//2 59//2 56//2
f  60//4 62//4 57//4
f  59//27 60//27 58//27
f  61//26 57//26 62//26
f  61//28 62//28 59//28
f  59//28 62//28 60//28

# Mesh 'mesh3_mesh3-geometry' with 56 faces
g mesh3_mesh3-geometry
usemtl material_0_24
f  63//12 64//12 65//12
f  63//8 66//8 64//8
f  64//4 67//4 65//4
f  63//12 65//12 68//12
f  69//8 66//8 63//8
f  70//4 64//4 66//4
f  70//4 67//4 64//4
f  65//4 67//4 71//4
f  68//13 65//13 72//13
f  63//2 68//2 73//2
f  74//11 66//11 69//11
f  69//2 63//2 75//2
f  70//4 66//4 76//4
f  70//4 77//4 67//4
f  78//6 71//6 67//6
f  65//4 71//4 72//4
f  68//13 72//13 73//13
f  63//2 73//2 79//2
f  74//11 80//11 66//11
f  74//2 69//2 75//2
f  63//2 79//2 75//2
f  76//4 66//4 80//4
f  81//7 70//7 76//7
f  70//4 82//4 77//4
f  79//3 67//3 77//3
f  73//9 71//9 78//9
f  78//6 67//6 79//6
f  73//9 72//9 71//9
f  73//2 78//2 79//2
f  74//16 83//16 80//16
f  81//2 74//2 75//2
f  79//2 84//2 75//2
f  76//4 80//4 85//4
f  81//7 86//7 70//7
f  85//10 81//10 76//10
f  86//5 82//5 70//5
f  77//1 82//1 75//1
f  79//3 77//3 84//3
f  81//2 83//2 74//2
f  80//16 83//16 87//16
f  81//2 75//2 86//2
f  77//1 75//1 84//1
f  85//4 80//4 87//4
f  88//10 81//10 85//10
f  75//5 82//5 86//5
f  81//2 88//2 83//2
f  83//17 89//17 87//17
f  85//4 87//4 90//4
f  90//14 88//14 85//14
f  88//2 89//2 83//2
f  87//17 89//17 91//17
f  90//4 87//4 91//4
f  92//14 88//14 90//14
f  88//2 92//2 89//2
f  89//15 92//15 91//15
f  91//15 92//15 90//15

# Mesh 'mesh3_mesh3-geometry' with 56 faces
g mesh3_mesh3-geometry
usemtl material_1_24
f  65//23 64//23 63//23
f  64//19 66//19 63//19
f  65//2 67//2 64//2
f  68//23 65//23 63//23
f  63//19 66//19 69//19
f  66//2 64//2 70//2
f  64//2 67//2 70//2
f  71//2 67//2 65//2
f  72//24 65//24 68//24
f  73//4 68//4 63//4
f  69//22 66//22 74//22
f  75//4 63//4 69//4
f  76//2 66//2 70//2
f  67//2 77//2 70//2
f  67//18 71//18 78//18
f  72//2 71//2 65//2
f  73//24 72//24 68//24
f  79//4 73//4 63//4
f  66//22 80//22 74//22
f  75//4 69//4 74//4
f  75//4 79//4 63//4
f  80//2 66//2 76//2
f  76//1 70//1 81//1
f  77//2 82//2 70//2
f  77//5 67//5 79//5
f  78//20 71//20 73//20
f  79//18 67//18 78//18
f  71//20 72//20 73//20
f  79//4 78//4 73//4
f  80//27 83//27 74//27
f  75//4 74//4 81//4
f  75//4 84//4 79//4
f  85//2 80//2 76//2
f  70//1 86//1 81//1
f  76//21 81//21 85//21
f  70//3 82//3 86//3
f  75//7 82//7 77//7
f  84//5 77//5 79//5
f  74//4 83//4 81//4
f  87//27 83//27 80//27
f  86//4 75//4 81//4
f  84//7 75//7 77//7
f  87//2 80//2 85//2
f  85//21 81//21 88//21
f  86//3 82//3 75//3
f  83//4 88//4 81//4
f  87//28 89//28 83//28
f  90//2 87//2 85//2
f  85//25 88//25 90//25
f  83//4 89//4 88//4
f  91//28 89//28 87//28
f  91//2 87//2 90//2
f  90//25 88//25 92//25
f  89//4 92//4 88//4
f  91//26 92//26 89//26
f  90//26 92//26 91//26

# Mesh 'mesh4_mesh4-geometry' with 56 faces
g mesh4_mesh4-geometry
usemtl material_0_24
f  93//4 94//4 95//4
f  96//5 94//5 93//5
f  95//1 94//1 97//1
f  93//4 95//4 98//4
f  97//5 94//5 96//5
f  99//7 96//7 93//7
f  95//1 97//1 100//1
f  101//3 98//3 95//3
f  93//4 98//4 102//4
f  96//2 101//2 97//2
f  99//2 103//2 96//2
f  99//7 93//7 104//7
f  101//2 100//2 97//2
f  101//3 95//3 100//3
f  105//6 98//6 101//6
f  102//4 98//4 106//4
f  93//4 102//4 107//4
f  96//2 103//2 101//2
f  99//2 108//2 103//2
f  93//4 107//4 104//4
f  109//10 99//10 104//10
f  105//6 110//6 98//6
f  111//2 105//2 101//2
f  106//4 98//4 110//4
f  112//12 102//12 106//12
f  112//8 107//8 102//8
f  103//2 112//2 101//2
f  108//10 99//10 109//10
f  108//2 113//2 103//2
f  104//4 107//4 114//4
f  104//4 114//4 109//4
f  115//9 110//9 105//9
f  111//2 115//2 105//2
f  112//2 111//2 101//2
f  106//4 110//4 116//4
f  112//12 106//12 111//12
f  103//8 107//8 112//8
f  117//14 108//14 109//14
f  113//14 108//14 117//14
f  113//2 118//2 103//2
f  119//11 114//11 107//11
f  109//4 114//4 120//4
f  115//9 116//9 110//9
f  111//13 116//13 115//13
f  111//13 106//13 116//13
f  119//11 107//11 103//11
f  109//4 120//4 117//4
f  121//15 113//15 117//15
f  118//15 113//15 121//15
f  118//2 119//2 103//2
f  119//16 122//16 114//16
f  114//16 122//16 120//16
f  117//4 120//4 121//4
f  120//17 118//17 121//17
f  118//2 122//2 119//2
f  122//17 118//17 120//17

# Mesh 'mesh4_mesh4-geometry' with 56 faces
g mesh4_mesh4-geometry
usemtl material_1_24
f  95//2 94//2 93//2
f  93//3 94//3 96//3
f  97//7 94//7 95//7
f  98//2 95//2 93//2
f  96//3 94//3 97//3
f  93//1 96//1 99//1
f  100//7 97//7 95//7
f  95//5 98//5 101//5
f  102//2 98//2 93//2
f  97//4 101//4 96//4
f  96//4 103//4 99//4
f  104//1 93//1 99//1
f  97//4 100//4 101//4
f  100//5 95//5 101//5
f  101//18 98//18 105//18
f  106//2 98//2 102//2
f  107//2 102//2 93//2
f  101//4 103//4 96//4
f  103//4 108//4 99//4
f  104//2 107//2 93//2
f  104//21 99//21 109//21
f  98//18 110//18 105//18
f  101//4 105//4 111//4
f  110//2 98//2 106//2
f  106//23 102//23 112//23
f  102//19 107//19 112//19
f  101//4 112//4 103//4
f  109//21 99//21 108//21
f  103//4 113//4 108//4
f  114//2 107//2 104//2
f  109//2 114//2 104//2
f  105//20 110//20 115//20
f  105//4 115//4 111//4
f  101//4 111//4 112//4
f  116//2 110//2 106//2
f  111//23 106//23 112//23
f  112//19 107//19 103//19
f  109//25 108//25 117//25
f  117//25 108//25 113//25
f  103//4 118//4 113//4
f  107//22 114//22 119//22
f  120//2 114//2 109//2
f  110//20 116//20 115//20
f  115//24 116//24 111//24
f  116//24 106//24 111//24
f  103//22 107//22 119//22
f  117//2 120//2 109//2
f  117//26 113//26 121//26
f  121//26 113//26 118//26
f  103//4 119//4 118//4
f  114//27 122//27 119//27
f  120//27 122//27 114//27
f  121//2 120//2 117//2
f  121//28 118//28 120//28
f  119//4 122//4 118//4
f  120//28 118//28 122//28

# Mesh 'mesh5_mesh5-geometry' with 140 faces
g mesh5_mesh5-geometry
usemtl material_0_24
f  123//2 124//2 125//2
f  123//3 126//3 124//3
f  124//1 127//1 125//1
f  124//2 128//2 125//2
f  124//7 125//7 129//7
f  123//2 125//2 130//2
f  123//7 130//7 126//7
f  124//3 126//3 131//3
f  131//1 127//1 124//1
f  125//5 127//5 130//5
f  124//2 132//2 128//2
f  128//5 133//5 125//5
f  129//7 125//7 134//7
f  124//3 129//3 132//3
f  126//7 130//7 135//7
f  135//4 131//4 126//4
f  135//4 127//4 131//4
f  127//4 136//4 131//4
f  131//7 137//7 127//7
f  130//5 127//5 135//5
f  132//1 133//1 128//1
f  125//5 133//5 134//5
f  134//4 138//4 129//4
f  132//3 129//3 138//3
f  127//4 139//4 136//4
f  140//3 131//3 136//3
f  141//7 137//7 131//7
f  137//5 139//5 127//5
f  138//1 133//1 132//1
f  134//4 133//4 138//4
f  129//2 138//2 142//2
f  129//3 143//3 138//3
f  136//1 139//1 140//1
f  141//3 131//3 140//3
f  141//2 144//2 137//2
f  144//5 139//5 137//5
f  138//7 142//7 145//7
f  138//2 146//2 142//2
f  147//1 142//1 138//1
f  129//2 142//2 148//2
f  129//7 149//7 143//7
f  138//3 143//3 147//3
f  140//1 139//1 144//1
f  150//3 141//3 140//3
f  151//4 140//4 141//4
f  141//2 140//2 144//2
f  145//7 142//7 152//7
f  145//1 153//1 142//1
f  147//1 145//1 142//1
f  138//7 145//7 154//7
f  138//2 155//2 146//2
f  146//5 156//5 142//5
f  142//5 157//5 148//5
f  129//7 148//7 149//7
f  149//4 147//4 143//4
f  158//3 141//3 150//3
f  140//1 152//1 150//1
f  151//4 153//4 140//4
f  158//7 151//7 141//7
f  152//7 142//7 153//7
f  145//3 152//3 159//3
f  160//3 152//3 145//3
f  152//1 153//1 145//1
f  150//1 152//1 145//1
f  145//5 152//5 160//5
f  142//5 156//5 153//5
f  142//5 153//5 161//5
f  160//4 145//4 147//4
f  150//1 145//1 147//1
f  160//2 147//2 145//2
f  145//4 162//4 154//4
f  138//7 154//7 140//7
f  138//3 140//3 155//3
f  155//1 162//1 146//1
f  163//1 156//1 146//1
f  142//5 161//5 157//5
f  148//5 157//5 164//5
f  149//7 148//7 165//7
f  149//4 166//4 147//4
f  158//2 150//2 152//2
f  140//1 153//1 152//1
f  167//4 152//4 150//4
f  168//5 153//5 151//5
f  140//7 169//7 153//7
f  153//4 170//4 140//4
f  158//7 165//7 151//7
f  169//7 152//7 153//7
f  159//3 152//3 163//3
f  145//4 159//4 162//4
f  160//3 171//3 152//3
f  160//5 152//5 171//5
f  153//4 156//4 170//4
f  161//5 153//5 168//5
f  166//4 160//4 147//4
f  172//2 147//2 160//2
f  147//3 167//3 150//3
f  162//5 173//5 154//5
f  140//7 154//7 169//7
f  155//3 140//3 170//3
f  155//1 173//1 162//1
f  162//1 159//1 146//1
f  170//1 156//1 163//1
f  163//1 146//1 159//1
f  160//7 157//7 161//7
f  164//4 157//4 166//4
f  148//5 164//5 151//5
f  165//7 148//7 151//7
f  149//3 165//3 174//3
f  149//3 174//3 166//3
f  158//2 152//2 171//2
f  171//4 152//4 167//4
f  164//5 168//5 151//5
f  158//2 174//2 165//2
f  169//2 163//2 152//2
f  160//7 161//7 171//7
f  172//7 160//7 171//7
f  168//2 171//2 161//2
f  166//4 157//4 160//4
f  172//3 167//3 147//3
f  154//5 173//5 169//5
f  170//1 173//1 155//1
f  170//1 163//1 173//1
f  174//1 164//1 166//1
f  158//2 171//2 174//2
f  172//7 171//7 167//7
f  174//1 168//1 164//1
f  169//2 173//2 163//2
f  174//2 171//2 168//2
f  143//3 167//3 172//3
f  167//1 175//1 172//1
f  143//3 158//3 167//3
f  143//2 172//2 176//2
f  158//4 175//4 167//4
f  172//1 175//1 177//1
f  143//7 176//7 158//7
f  176//2 172//2 177//2
f  178//4 175//4 158//4
f  177//5 175//5 178//5
f  158//7 176//7 178//7
f  177//5 178//5 176//5

# Mesh 'mesh5_mesh5-geometry' with 140 faces
g mesh5_mesh5-geometry
usemtl material_1_24
f  125//4 124//4 123//4
f  124//5 126//5 123//5
f  125//7 127//7 124//7
f  125//4 128//4 124//4
f  129//1 125//1 124//1
f  130//4 125//4 123//4
f  126//1 130//1 123//1
f  131//5 126//5 124//5
f  124//7 127//7 131//7
f  130//3 127//3 125//3
f  128//4 132//4 124//4
f  125//3 133//3 128//3
f  134//1 125//1 129//1
f  132//5 129//5 124//5
f  135//1 130//1 126//1
f  126//2 131//2 135//2
f  131//2 127//2 135//2
f  131//2 136//2 127//2
f  127//1 137//1 131//1
f  135//3 127//3 130//3
f  128//7 133//7 132//7
f  134//3 133//3 125//3
f  129//2 138//2 134//2
f  138//5 129//5 132//5
f  136//2 139//2 127//2
f  136//5 131//5 140//5
f  131//1 137//1 141//1
f  127//3 139//3 137//3
f  132//7 133//7 138//7
f  138//2 133//2 134//2
f  142//4 138//4 129//4
f  138//5 143//5 129//5
f  140//7 139//7 136//7
f  140//5 131//5 141//5
f  137//4 144//4 141//4
f  137//3 139//3 144//3
f  145//1 142//1 138//1
f  142//4 146//4 138//4
f  138//7 142//7 147//7
f  148//4 142//4 129//4
f  143//1 149//1 129//1
f  147//5 143//5 138//5
f  144//7 139//7 140//7
f  140//5 141//5 150//5
f  141//2 140//2 151//2
f  144//4 140//4 141//4
f  152//1 142//1 145//1
f  142//7 153//7 145//7
f  142//7 145//7 147//7
f  154//1 145//1 138//1
f  146//4 155//4 138//4
f  142//3 156//3 146//3
f  148//3 157//3 142//3
f  149//1 148//1 129//1
f  143//2 147//2 149//2
f  150//5 141//5 158//5
f  150//7 152//7 140//7
f  140//2 153//2 151//2
f  141//1 151//1 158//1
f  153//1 142//1 152//1
f  159//5 152//5 145//5
f  145//5 152//5 160//5
f  145//7 153//7 152//7
f  145//7 152//7 150//7
f  160//3 152//3 145//3
f  153//3 156//3 142//3
f  161//3 153//3 142//3
f  147//2 145//2 160//2
f  147//7 145//7 150//7
f  145//4 147//4 160//4
f  154//2 162//2 145//2
f  140//1 154//1 138//1
f  155//5 140//5 138//5
f  146//7 162//7 155//7
f  146//7 156//7 163//7
f  157//3 161//3 142//3
f  164//3 157//3 148//3
f  165//1 148//1 149//1
f  147//2 166//2 149//2
f  152//4 150//4 158//4
f  152//7 153//7 140//7
f  150//2 152//2 167//2
f  151//3 153//3 168//3
f  153//1 169//1 140//1
f  140//2 170//2 153//2
f  151//1 165//1 158//1
f  153//1 152//1 169//1
f  163//5 152//5 159//5
f  162//2 159//2 145//2
f  152//5 171//5 160//5
f  171//3 152//3 160//3
f  170//2 156//2 153//2
f  168//3 153//3 161//3
f  147//2 160//2 166//2
f  160//4 147//4 172//4
f  150//5 167//5 147//5
f  154//3 173//3 162//3
f  169//1 154//1 140//1
f  170//5 140//5 155//5
f  162//7 173//7 155//7
f  146//7 159//7 162//7
f  163//7 156//7 170//7
f  159//7 146//7 163//7
f  161//1 157//1 160//1
f  166//2 157//2 164//2
f  151//3 164//3 148//3
f  151//1 148//1 165//1
f  174//5 165//5 149//5
f  166//5 174//5 149//5
f  171//4 152//4 158//4
f  167//2 152//2 171//2
f  151//3 168//3 164//3
f  165//4 174//4 158//4
f  152//4 163//4 169//4
f  171//1 161//1 160//1
f  171//1 160//1 172//1
f  161//4 171//4 168//4
f  160//2 157//2 166//2
f  147//5 167//5 172//5
f  169//3 173//3 154//3
f  155//7 173//7 170//7
f  173//7 163//7 170//7
f  166//7 164//7 174//7
f  174//4 171//4 158//4
f  167//1 171//1 172//1
f  164//7 168//7 174//7
f  163//4 173//4 169//4
f  168//4 171//4 174//4
f  172//5 167//5 143//5
f  172//7 175//7 167//7
f  167//5 158//5 143//5
f  176//4 172//4 143//4
f  167//2 175//2 158//2
f  177//7 175//7 172//7
f  158//1 176//1 143//1
f  177//4 172//4 176//4
f  158//2 175//2 178//2
f  178//3 175//3 177//3
f  178//1 176//1 158//1
f  176//3 178//3 177//3

