# File produced by Open Asset Import Library (http://www.assimp.sf.net)
# (assimp v3.2.202087883)

mtllib model_normalized.mtl

# 91 vertex positions
v -0.384802 0.244866 0.142917
v -0.384802 -0.299843 0.078071
v -0.384802 -0.299843 0.142917
v -0.384802 -0.066396 0.039163
v -0.345894 -0.299843 0.142917
v -0.384802 0.011419 0.026194
v -0.345894 -0.066396 0.039163
v -0.345894 -0.299843 0.078071
v -0.345894 0.077076 0.142917
v -0.384802 0.074061 0.036635
v -0.384802 -0.066396 -0.077560
v -0.345894 0.244866 0.142917
v -0.384802 0.099999 0.040960
v -0.345894 0.074061 0.036635
v -0.384802 0.011419 -0.168345
v -0.345894 -0.066396 -0.077560
v -0.345894 0.099999 0.040960
v -0.345894 0.244866 0.065101
v -0.384802 0.244866 0.065101
v -0.384802 0.074061 -0.157633
v -0.345894 0.011419 0.026194
v -0.384802 -0.299843 -0.168345
v -0.345894 0.011419 -0.168345
v -0.345894 -0.299843 -0.116468
v -0.345894 0.099999 -0.157633
v -0.384802 0.099999 -0.157633
v -0.345894 0.074061 -0.157633
v -0.384802 -0.299843 -0.116468
v -0.345894 -0.299843 -0.168345
v 0.393353 0.011419 -0.168345
v 0.393353 -0.299843 -0.116468
v 0.393353 -0.299843 -0.168345
v 0.393353 -0.066396 -0.077560
v 0.354445 -0.299843 -0.168345
v 0.393353 -0.066396 0.039163
v 0.354445 -0.066396 -0.077560
v 0.354445 -0.299843 -0.116468
v 0.354445 0.011419 -0.168345
v 0.393353 0.011419 0.026194
v 0.354445 -0.170150 -0.168345
v 0.354445 0.011419 0.026194
v 0.393353 0.244866 0.142917
v 0.354445 -0.066396 0.039163
v 0.393353 -0.299843 0.142917
v 0.393353 0.074061 0.036635
v 0.354445 -0.299843 0.078071
v 0.393353 -0.299843 0.078071
v 0.354445 0.244866 0.142917
v 0.393353 0.099999 0.040960
v 0.354445 0.074061 0.036635
v 0.354445 -0.299843 0.142917
v 0.393353 0.244866 0.065101
v 0.393353 0.099999 -0.157633
v 0.354445 0.074061 -0.157633
v 0.354445 0.244866 0.065101
v 0.393353 0.074061 -0.157633
v 0.354445 0.099999 0.040960
v 0.354445 0.099999 -0.157633
v -0.345894 0.222374 0.101880
v 0.354445 0.196437 0.096207
v 0.354445 0.222374 0.101880
v -0.345894 0.196437 0.096207
v -0.345894 0.155361 0.095395
v 0.354445 0.181299 0.101880
v 0.354445 0.155361 0.095395
v -0.345894 0.181299 0.101880
v -0.345894 0.116671 0.096207
v 0.354445 0.142609 0.101880
v 0.354445 0.116671 0.096207
v -0.345894 0.142609 0.101880
v -0.345894 0.071431 0.097014
v 0.354445 0.097369 0.101880
v 0.354445 0.071431 0.097014
v -0.345894 0.097369 0.101880
v -0.345894 0.025583 0.097014
v 0.354445 0.051522 0.101880
v 0.354445 0.025583 0.097014
v -0.345894 0.051522 0.101880
v 0.354445 -0.016629 -0.013419
v -0.345894 -0.010955 0.025489
v 0.354445 -0.010955 0.025489
v -0.345894 -0.016629 -0.013419
v 0.354445 -0.026152 -0.079256
v -0.345894 -0.020477 -0.040348
v 0.354445 -0.020477 -0.040348
v -0.345894 -0.026152 -0.079256
v 0.354445 -0.026152 -0.138837
v -0.345894 -0.020477 -0.099930
v 0.354445 -0.020477 -0.099930
v -0.345894 -0.026152 -0.138837
v -0.384802 -0.300653 -0.168345

# 32 UV coordinates
vt 0.042219 0.898811 0
vt 0.792219 0.870377 0
vt 0.792219 0.898811 0
vt 0.042219 0.870377 0
vt -0.042219 0.871292 0
vt -0.792219 0.899925 0
vt -0.792219 0.871292 0
vt -0.042219 0.899925 0
vt -0.042219 0.786928 0
vt -0.792219 0.815363 0
vt -0.792219 0.786928 0
vt -0.042219 0.815363 0
vt -0.042219 0.693804 0
vt -0.792219 0.722066 0
vt -0.792219 0.693804 0
vt -0.042219 0.722066 0
vt -0.042219 0.645547 0
vt -0.792219 0.673809 0
vt -0.792219 0.645547 0
vt -0.042219 0.673809 0
vt -0.792219 1.55377 0
vt -0.042219 1.59588 0
vt -0.792219 1.59588 0
vt -0.042219 1.55377 0
vt -0.792219 1.48253 0
vt -0.042219 1.52464 0
vt -0.792219 1.52464 0
vt -0.042219 1.48253 0
vt -0.792219 1.41939 0
vt -0.042219 1.4615 0
vt -0.792219 1.4615 0
vt -0.042219 1.41939 0

# 18 vertex normals
vn -0.0254 0 0
vn 0 -0.0254 0
vn 0 0 0.0254
vn 0 -0.00417573 -0.0250544
vn 0.0254 -0 0
vn 0 0.00417573 -0.0250544
vn 0 0.0254 0
vn -0 -0.00417573 0.0250544
vn 0 0 -0.0254
vn 0 0.00417573 0.0250544
vn -0 -0.0054279 0.0248133
vn 0 0.0054279 -0.0248133
vn 0 0.00616041 -0.0246416
vn 0 -0.00616041 0.0246416
vn 0 0.00468094 -0.0249649
vn 0 -0.00468094 0.0249649
vn 0 0.0251341 -0.0036654
vn 0 -0.0251341 0.0036654

# Mesh 'mesh1_mesh1-geometry' with 54 faces
g mesh1_mesh1-geometry
usemtl material_0_24
f  1//1 2//1 3//1
f  2//1 1//1 4//1
f  2//2 5//2 3//2
f  5//3 1//3 3//3
f  4//1 1//1 6//1
f  7//4 2//4 4//4
f  5//2 2//2 8//2
f  9//3 1//3 5//3
f  6//1 1//1 10//1
f  4//1 6//1 11//1
f  2//4 7//4 8//4
f  11//2 7//2 4//2
f  5//5 8//5 9//5
f  1//3 9//3 12//3
f  10//1 1//1 13//1
f  14//6 6//6 10//6
f  15//1 11//1 6//1
f  7//5 9//5 8//5
f  7//2 11//2 16//2
f  9//5 17//5 12//5
f  18//7 1//7 12//7
f  13//1 1//1 19//1
f  10//1 13//1 20//1
f  6//6 14//6 21//6
f  20//2 14//2 10//2
f  22//1 11//1 15//1
f  6//7 23//7 15//7
f  16//5 9//5 7//5
f  11//8 24//8 16//8
f  18//5 12//5 17//5
f  17//5 9//5 25//5
f  1//7 18//7 19//7
f  18//6 13//6 19//6
f  26//1 20//1 13//1
f  14//5 9//5 21//5
f  23//7 6//7 21//7
f  14//2 20//2 27//2
f  11//1 22//1 28//1
f  23//9 22//9 15//9
f  21//5 9//5 16//5
f  24//8 11//8 28//8
f  24//5 29//5 16//5
f  13//6 18//6 17//6
f  25//5 9//5 27//5
f  25//7 13//7 17//7
f  25//9 20//9 26//9
f  13//7 25//7 26//7
f  27//5 9//5 14//5
f  21//5 16//5 23//5
f  20//9 25//9 27//9
f  22//2 24//2 28//2
f  22//9 23//9 29//9
f  23//5 16//5 29//5
f  24//2 22//2 29//2

# Mesh 'mesh1_mesh1-geometry' with 54 faces
g mesh1_mesh1-geometry
usemtl material_1_24
f  3//5 2//5 1//5
f  4//5 1//5 2//5
f  3//7 5//7 2//7
f  3//9 1//9 5//9
f  6//5 1//5 4//5
f  4//10 2//10 7//10
f  8//7 2//7 5//7
f  5//9 1//9 9//9
f  10//5 1//5 6//5
f  11//5 6//5 4//5
f  8//10 7//10 2//10
f  4//7 7//7 11//7
f  9//1 8//1 5//1
f  12//9 9//9 1//9
f  13//5 1//5 10//5
f  10//8 6//8 14//8
f  6//5 11//5 15//5
f  8//1 9//1 7//1
f  16//7 11//7 7//7
f  12//1 17//1 9//1
f  12//2 1//2 18//2
f  19//5 1//5 13//5
f  20//5 13//5 10//5
f  21//8 14//8 6//8
f  10//7 14//7 20//7
f  15//5 11//5 22//5
f  15//2 23//2 6//2
f  7//1 9//1 16//1
f  16//6 24//6 11//6
f  17//1 12//1 18//1
f  25//1 9//1 17//1
f  19//2 18//2 1//2
f  19//8 13//8 18//8
f  13//5 20//5 26//5
f  21//1 9//1 14//1
f  21//2 6//2 23//2
f  27//7 20//7 14//7
f  28//5 22//5 11//5
f  15//3 22//3 23//3
f  16//1 9//1 21//1
f  28//6 11//6 24//6
f  16//1 29//1 24//1
f  17//8 18//8 13//8
f  27//1 9//1 25//1
f  17//2 13//2 25//2
f  26//3 20//3 25//3
f  26//2 25//2 13//2
f  14//1 9//1 27//1
f  23//1 16//1 21//1
f  27//3 25//3 20//3
f  28//7 24//7 22//7
f  29//3 23//3 22//3
f  29//1 16//1 23//1
f  29//7 22//7 24//7

# Mesh 'mesh2_mesh2-geometry' with 54 faces
g mesh2_mesh2-geometry
usemtl material_0_24
f  30//5 31//5 32//5
f  31//5 30//5 33//5
f  31//2 34//2 32//2
f  34//9 30//9 32//9
f  33//5 30//5 35//5
f  36//8 31//8 33//8
f  34//2 31//2 37//2
f  30//9 34//9 38//9
f  39//5 35//5 30//5
f  35//2 36//2 33//2
f  31//8 36//8 37//8
f  36//1 34//1 37//1
f  38//9 34//9 40//9
f  41//7 30//7 38//7
f  42//5 35//5 39//5
f  30//7 41//7 39//7
f  36//2 35//2 43//2
f  34//1 36//1 40//1
f  40//1 36//1 38//1
f  38//1 36//1 41//1
f  44//5 35//5 42//5
f  42//5 39//5 45//5
f  41//6 45//6 39//6
f  35//4 46//4 43//4
f  43//1 41//1 36//1
f  35//5 44//5 47//5
f  48//3 44//3 42//3
f  42//5 45//5 49//5
f  45//6 41//6 50//6
f  46//4 35//4 47//4
f  46//1 48//1 43//1
f  43//1 48//1 41//1
f  44//2 46//2 47//2
f  44//3 48//3 51//3
f  52//7 48//7 42//7
f  49//5 45//5 53//5
f  42//5 49//5 52//5
f  41//1 48//1 50//1
f  54//2 45//2 50//2
f  48//1 46//1 51//1
f  46//2 44//2 51//2
f  48//7 52//7 55//7
f  53//5 45//5 56//5
f  53//7 57//7 49//7
f  57//6 52//6 49//6
f  50//1 48//1 57//1
f  45//2 54//2 56//2
f  50//1 57//1 54//1
f  52//6 57//6 55//6
f  57//1 48//1 55//1
f  54//9 53//9 56//9
f  57//7 53//7 58//7
f  58//1 54//1 57//1
f  53//9 54//9 58//9

# Mesh 'mesh2_mesh2-geometry' with 54 faces
g mesh2_mesh2-geometry
usemtl material_1_24
f  32//1 31//1 30//1
f  33//1 30//1 31//1
f  32//7 34//7 31//7
f  32//3 30//3 34//3
f  35//1 30//1 33//1
f  33//6 31//6 36//6
f  37//7 31//7 34//7
f  38//3 34//3 30//3
f  30//1 35//1 39//1
f  33//7 36//7 35//7
f  37//6 36//6 31//6
f  37//5 34//5 36//5
f  40//3 34//3 38//3
f  38//2 30//2 41//2
f  39//1 35//1 42//1
f  39//2 41//2 30//2
f  43//7 35//7 36//7
f  40//5 36//5 34//5
f  38//5 36//5 40//5
f  41//5 36//5 38//5
f  42//1 35//1 44//1
f  45//1 39//1 42//1
f  39//8 45//8 41//8
f  43//10 46//10 35//10
f  36//5 41//5 43//5
f  47//1 44//1 35//1
f  42//9 44//9 48//9
f  49//1 45//1 42//1
f  50//8 41//8 45//8
f  47//10 35//10 46//10
f  43//5 48//5 46//5
f  41//5 48//5 43//5
f  47//7 46//7 44//7
f  51//9 48//9 44//9
f  42//2 48//2 52//2
f  53//1 45//1 49//1
f  52//1 49//1 42//1
f  50//5 48//5 41//5
f  50//7 45//7 54//7
f  51//5 46//5 48//5
f  51//7 44//7 46//7
f  55//2 52//2 48//2
f  56//1 45//1 53//1
f  49//2 57//2 53//2
f  49//8 52//8 57//8
f  57//5 48//5 50//5
f  56//7 54//7 45//7
f  54//5 57//5 50//5
f  55//8 57//8 52//8
f  55//5 48//5 57//5
f  56//3 53//3 54//3
f  58//2 53//2 57//2
f  57//5 54//5 58//5
f  58//3 54//3 53//3

# Mesh 'mesh3_mesh3-geometry' with 4 faces
g mesh3_mesh3-geometry
usemtl material_2_1_8
f  59/1/11 60/2/11 61/3/11
f  60/2/11 59/1/11 62/4/11
f  61/3/12 60/2/12 59/1/12
f  62/4/12 59/1/12 60/2/12

# Mesh 'mesh4_mesh4-geometry' with 4 faces
g mesh4_mesh4-geometry
usemtl material_2_1_8
f  63/5/13 64/6/13 65/7/13
f  64/6/13 63/5/13 66/8/13
f  65/7/14 64/6/14 63/5/14
f  66/8/14 63/5/14 64/6/14

# Mesh 'mesh5_mesh5-geometry' with 4 faces
g mesh5_mesh5-geometry
usemtl material_2_1_8
f  67/9/12 68/10/12 69/11/12
f  68/10/12 67/9/12 70/12/12
f  69/11/11 68/10/11 67/9/11
f  70/12/11 67/9/11 68/10/11

# Mesh 'mesh6_mesh6-geometry' with 4 faces
g mesh6_mesh6-geometry
usemtl material_2_1_8
f  71/13/15 72/14/15 73/15/15
f  72/14/15 71/13/15 74/16/15
f  73/15/16 72/14/16 71/13/16
f  74/16/16 71/13/16 72/14/16

# Mesh 'mesh7_mesh7-geometry' with 4 faces
g mesh7_mesh7-geometry
usemtl material_2_1_8
f  75/17/15 76/18/15 77/19/15
f  76/18/15 75/17/15 78/20/15
f  77/19/16 76/18/16 75/17/16
f  78/20/16 75/17/16 76/18/16

# Mesh 'mesh8_mesh8-geometry' with 4 faces
g mesh8_mesh8-geometry
usemtl material_2_1_8
f  79/21/17 80/22/17 81/23/17
f  80/22/17 79/21/17 82/24/17
f  81/23/18 80/22/18 79/21/18
f  82/24/18 79/21/18 80/22/18

# Mesh 'mesh9_mesh9-geometry' with 4 faces
g mesh9_mesh9-geometry
usemtl material_2_1_8
f  83/25/17 84/26/17 85/27/17
f  84/26/17 83/25/17 86/28/17
f  85/27/18 84/26/18 83/25/18
f  86/28/18 83/25/18 84/26/18

# Mesh 'mesh10_mesh10-geometry' with 4 faces
g mesh10_mesh10-geometry
usemtl material_2_1_8
f  87/29/17 88/30/17 89/31/17
f  88/30/17 87/29/17 90/32/17
f  89/31/18 88/30/18 87/29/18
f  90/32/18 87/29/18 88/30/18

# Mesh 'mesh11_mesh11-geometry' with 1 faces
g mesh11_mesh11-geometry
usemtl material_1_0
l  22 91

