# File produced by Open Asset Import Library (http://www.assimp.sf.net)
# (assimp v3.2.202087883)

mtllib model_normalized.mtl

# 42 vertex positions
v 0.153690 -0.131547 -0.327578
v 0.323417 -0.131547 -0.159532
v 0.153690 -0.131547 -0.159532
v 0.323417 -0.131547 -0.327578
v 0.153690 0.014223 -0.159532
v 0.323417 0.092204 -0.327578
v 0.323417 0.036139 -0.159532
v 0.153690 0.014223 -0.327578
v -0.331016 0.036139 -0.159532
v -0.174037 0.014223 -0.327578
v -0.331016 0.092204 -0.327578
v 0.323417 0.036139 0.111790
v 0.151404 0.036139 0.094461
v -0.174037 0.014223 -0.159532
v -0.331016 0.092204 0.069919
v 0.323417 0.092204 0.069919
v -0.128922 0.036139 0.094461
v -0.174037 -0.131547 -0.159532
v -0.331016 -0.131547 -0.327578
v 0.323417 0.337872 0.265182
v 0.151404 0.036139 0.111790
v -0.128922 0.036139 0.111790
v -0.331016 -0.131547 -0.159532
v -0.174037 -0.131547 -0.327578
v 0.323417 0.337872 0.069919
v -0.331016 0.036139 0.111790
v 0.323417 -0.131547 0.265182
v 0.151404 -0.131547 0.111790
v 0.151404 -0.131547 0.094461
v -0.128922 -0.131547 0.094461
v -0.331016 0.337872 0.069919
v -0.331016 0.337872 0.265182
v 0.323417 -0.131547 0.111790
v 0.151404 0.075384 0.265182
v -0.331016 -0.131547 0.111790
v -0.128922 -0.131547 0.111790
v -0.128922 0.075384 0.111790
v 0.151404 -0.131547 0.265182
v 0.151404 0.075384 0.111790
v -0.128922 -0.131547 0.265182
v -0.128922 0.075384 0.265182
v -0.331016 -0.131547 0.265182

# 0 UV coordinates

# 6 vertex normals
vn 0 -0.0254 0
vn 0 0.0254 0
vn 0 0 0.0254
vn 0 0 -0.0254
vn -0.0254 0 0
vn 0.0254 -0 0

# Mesh 'mesh1_mesh1-geometry' with 160 faces
g mesh1_mesh1-geometry
usemtl material_0_24
f  1//1 2//1 3//1
f  2//1 1//1 4//1
f  3//2 2//2 1//2
f  4//2 1//2 2//2
f  3//3 2//3 5//3
f  5//4 2//4 3//4
f  5//5 1//5 3//5
f  3//6 1//6 5//6
f  1//4 6//4 4//4
f  4//3 6//3 1//3
f  6//6 2//6 4//6
f  4//5 2//5 6//5
f  7//3 5//3 2//3
f  2//4 5//4 7//4
f  1//5 5//5 8//5
f  8//6 5//6 1//6
f  6//4 1//4 8//4
f  8//3 1//3 6//3
f  2//6 6//6 7//6
f  7//5 6//5 2//5
f  5//3 7//3 9//3
f  9//4 7//4 5//4
f  5//1 10//1 8//1
f  8//2 10//2 5//2
f  6//4 8//4 11//4
f  11//3 8//3 6//3
f  7//6 6//6 12//6
f  12//5 6//5 7//5
f  7//1 13//1 9//1
f  9//2 13//2 7//2
f  5//3 9//3 14//3
f  14//4 9//4 5//4
f  10//1 5//1 14//1
f  14//2 5//2 10//2
f  11//4 8//4 10//4
f  10//3 8//3 11//3
f  15//2 6//2 11//2
f  11//1 6//1 15//1
f  16//6 12//6 6//6
f  6//5 12//5 16//5
f  12//1 13//1 7//1
f  7//2 13//2 12//2
f  17//1 9//1 13//1
f  13//2 9//2 17//2
f  14//3 9//3 18//3
f  18//4 9//4 14//4
f  18//6 10//6 14//6
f  14//5 10//5 18//5
f  11//4 10//4 19//4
f  19//3 10//3 11//3
f  6//2 15//2 16//2
f  16//1 15//1 6//1
f  11//5 9//5 15//5
f  15//6 9//6 11//6
f  20//6 12//6 16//6
f  16//5 12//5 20//5
f  13//1 12//1 21//1
f  21//2 12//2 13//2
f  22//1 9//1 17//1
f  17//2 9//2 22//2
f  21//1 17//1 13//1
f  13//2 17//2 21//2
f  18//3 9//3 23//3
f  23//4 9//4 18//4
f  10//6 18//6 24//6
f  24//5 18//5 10//5
f  19//4 10//4 24//4
f  24//3 10//3 19//3
f  19//5 9//5 11//5
f  11//6 9//6 19//6
f  15//4 25//4 16//4
f  16//3 25//3 15//3
f  26//5 15//5 9//5
f  9//6 15//6 26//6
f  27//6 12//6 20//6
f  20//5 12//5 27//5
f  20//6 16//6 25//6
f  25//5 16//5 20//5
f  12//4 28//4 21//4
f  21//3 28//3 12//3
f  29//5 21//5 13//5
f  13//6 21//6 29//6
f  9//1 22//1 26//1
f  26//2 22//2 9//2
f  30//5 22//5 17//5
f  17//6 22//6 30//6
f  17//1 21//1 22//1
f  22//2 21//2 17//2
f  9//5 19//5 23//5
f  23//6 19//6 9//6
f  19//1 18//1 23//1
f  23//2 18//2 19//2
f  18//1 19//1 24//1
f  24//2 19//2 18//2
f  25//4 15//4 31//4
f  31//3 15//3 25//3
f  26//5 32//5 15//5
f  15//6 32//6 26//6
f  12//6 27//6 33//6
f  33//5 27//5 12//5
f  20//3 34//3 27//3
f  27//4 34//4 20//4
f  25//2 32//2 20//2
f  20//1 32//1 25//1
f  28//4 12//4 33//4
f  33//3 12//3 28//3
f  28//5 34//5 21//5
f  21//6 34//6 28//6
f  21//5 29//5 28//5
f  28//6 29//6 21//6
f  22//4 35//4 26//4
f  26//3 35//3 22//3
f  22//5 30//5 36//5
f  36//6 30//6 22//6
f  21//3 37//3 22//3
f  22//4 37//4 21//4
f  15//5 32//5 31//5
f  31//6 32//6 15//6
f  32//2 25//2 31//2
f  31//1 25//1 32//1
f  35//5 32//5 26//5
f  26//6 32//6 35//6
f  27//1 28//1 33//1
f  33//2 28//2 27//2
f  34//3 20//3 32//3
f  32//4 20//4 34//4
f  38//3 27//3 34//3
f  34//4 27//4 38//4
f  34//5 28//5 38//5
f  38//6 28//6 34//6
f  21//5 34//5 39//5
f  39//6 34//6 21//6
f  35//4 22//4 36//4
f  36//3 22//3 35//3
f  22//6 40//6 36//6
f  36//5 40//5 22//5
f  37//3 21//3 39//3
f  39//4 21//4 37//4
f  41//6 22//6 37//6
f  37//5 22//5 41//5
f  32//5 35//5 42//5
f  42//6 35//6 32//6
f  28//1 27//1 38//1
f  38//2 27//2 28//2
f  34//3 32//3 41//3
f  41//4 32//4 34//4
f  34//1 37//1 39//1
f  39//2 37//2 34//2
f  40//1 35//1 36//1
f  36//2 35//2 40//2
f  40//6 22//6 41//6
f  41//5 22//5 40//5
f  37//1 34//1 41//1
f  41//2 34//2 37//2
f  35//1 40//1 42//1
f  42//2 40//2 35//2
f  40//3 32//3 42//3
f  42//4 32//4 40//4
f  41//3 32//3 40//3
f  40//4 32//4 41//4

# Mesh 'mesh2_mesh2-geometry' with 61 faces
g mesh2_mesh2-geometry
usemtl material_0_0
l  27 38
l  27 20
l  33 27
l  38 34
l  38 28
l  20 32
l  25 20
l  33 12
l  28 33
l  34 41
l  34 39
l  28 21
l  32 31
l  42 32
l  25 16
l  31 25
l  12 7
l  21 12
l  41 40
l  41 37
l  39 37
l  21 39
l  22 21
l  21 13
l  31 15
l  42 35
l  40 42
l  16 6
l  15 16
l  7 2
l  9 7
l  40 36
l  37 22
l  26 22
l  22 36
l  22 17
l  17 13
l  15 11
l  35 26
l  35 36
l  4 6
l  11 6
l  4 2
l  3 2
l  9 23
l  26 9
l  19 11
l  1 4
l  5 3
l  1 3
l  23 19
l  23 18
l  19 24
l  8 1
l  14 5
l  8 5
l  18 14
l  24 18
l  24 10
l  10 8
l  10 14

