# File produced by Open Asset Import Library (http://www.assimp.sf.net)
# (assimp v3.2.202087883)

mtllib model_normalized.mtl

# 84 vertex positions
v -0.354668 0.064075 -0.158129
v -0.354668 -0.303528 -0.132482
v -0.354668 -0.303528 -0.158129
v -0.354668 -0.089805 0.000026
v -0.388864 -0.303528 -0.158129
v -0.354668 0.065881 -0.158129
v -0.354668 -0.070241 -0.017072
v -0.388864 -0.089805 0.000026
v -0.388864 -0.303528 -0.132482
v -0.354668 0.123917 -0.017072
v -0.353604 0.064075 -0.158129
v -0.354668 -0.027497 -0.017072
v -0.354668 -0.070241 0.017124
v -0.388864 -0.303528 0.129311
v -0.388864 0.123917 -0.158129
v -0.354668 -0.000183 -0.017072
v -0.354668 0.123917 -0.158129
v -0.353604 0.064075 -0.175226
v -0.354668 -0.027497 0.017124
v 0.354888 -0.027497 -0.017072
v -0.354668 0.064075 0.158181
v 0.354888 -0.070241 0.017124
v -0.354668 -0.303528 0.129311
v -0.388864 0.123917 0.158181
v -0.388864 0.123917 -0.175226
v -0.217886 0.123917 -0.017072
v -0.354668 -0.000183 0.017124
v 0.218105 0.123917 -0.017072
v 0.351938 0.064075 -0.158129
v 0.354888 0.123917 -0.158129
v 0.354888 -0.070241 -0.017072
v -0.354668 -0.303528 0.158181
v -0.388864 -0.303528 0.158181
v 0.389083 0.123917 -0.158129
v -0.405961 0.123917 -0.158129
v -0.217886 0.123917 0.017124
v -0.354668 0.123917 0.017124
v 0.354888 0.123917 -0.017072
v 0.389083 0.123917 -0.175226
v 0.351938 0.064075 -0.175226
v 0.354888 -0.027497 0.017124
v 0.354888 0.064075 -0.158129
v -0.354668 0.068129 0.158181
v 0.354888 -0.089805 0.000026
v -0.405961 0.123917 -0.183775
v 0.218105 0.123917 0.017124
v 0.354888 0.123917 0.017124
v 0.354888 -0.000183 -0.017072
v -0.388864 0.123917 -0.183775
v 0.354888 0.068833 -0.158129
v 0.389083 0.123917 0.158181
v 0.354888 0.064075 0.158181
v -0.352183 0.064075 0.158181
v -0.405961 0.123917 0.158181
v 0.406181 0.123917 -0.158129
v -0.405961 0.149564 0.183828
v 0.354888 0.123917 0.158181
v -0.354668 0.123917 0.158181
v 0.354888 -0.000183 0.017124
v 0.389083 0.123917 -0.183775
v 0.354888 -0.303528 -0.158129
v -0.388864 0.123917 0.175279
v 0.354888 -0.303528 0.129311
v 0.406181 0.123917 0.158181
v 0.389083 -0.089805 0.000026
v 0.406181 0.149564 -0.183775
v -0.405961 0.149564 -0.183775
v 0.389083 0.123917 0.175279
v 0.354888 -0.303528 -0.127139
v -0.352183 0.064075 0.175279
v 0.349673 0.064075 0.158181
v 0.354888 -0.303528 0.158181
v -0.405961 0.123917 0.183828
v 0.406181 0.123917 -0.183775
v 0.406181 0.123917 0.183828
v 0.389083 -0.303528 0.158181
v 0.389083 -0.303528 -0.127139
v 0.354888 0.071993 0.158181
v 0.389083 -0.303528 -0.158129
v 0.389083 0.123917 0.183828
v 0.349673 0.064075 0.175279
v 0.389083 -0.303528 0.129311
v -0.388864 0.123917 0.183828
v 0.406181 0.149564 0.183828

# 208 UV coordinates
vt -4.68486 0.705381 0
vt -4.78328 0 0
vt -4.68486 0 0
vt -5.29181 0.410105 0
vt -4.78328 0.980108 0
vt -4.68486 0.914492 0
vt -4.68486 0.980108 0
vt -1.96022 -0 0
vt -1.96022 0.708845 0
vt -1.96022 0.705381 0
vt -5.22619 0.447646 0
vt 1.82898 1.74278 0
vt 1.96022 1.26025 0
vt 1.96022 1.74278 0
vt -4.78328 0.914492 0
vt -1.82898 -0 0
vt -5.22619 0.82021 0
vt -4.68486 0.708845 0
vt -1.9643 0.705381 0
vt -5.22619 0.529667 0
vt -5.35743 0.447646 0
vt 1.82898 1.26025 0
vt -1.96022 -1.01856 0
vt -1.82898 -1.49786 0
vt -1.82898 -1.01856 0
vt 5.29181 0.410105 0
vt 4.68486 0 0
vt 4.78328 0 0
vt -1.82898 0.82021 0
vt -5.22619 0.582079 0
vt -4.68486 0.82021 0
vt 4.68486 0.113174 0
vt 4.61924 0.109153 0
vt 4.68486 0.109153 0
vt 1.9643 0.705381 0
vt 1.96022 0.82021 0
vt 1.96022 0.708845 0
vt -5.35743 0.529667 0
vt -4.68331 0.529667 0
vt -1.96022 0.447646 0
vt -1.96022 0.529667 0
vt -5.89877 0.705381 0
vt -5.22619 0.980108 0
vt -5.35743 2.34166 0
vt -5.35743 0.980108 0
vt -1.96022 -1.49786 0
vt 5.78796 0 0
vt 5.89877 0.82021 0
vt 4.68486 0.82021 0
vt 4.61924 0.242432 0
vt 4.68486 0.242432 0
vt -1.96022 0.82021 0
vt -2.48515 0.82021 0
vt -1.96022 0.582079 0
vt -5.35743 0.582079 0
vt -5.22619 2.07919 0
vt -4.61924 0.98215 0
vt -4.68486 2.33599 0
vt -4.68486 0.98215 0
vt 4.68331 0.82021 0
vt 5.35743 0.980108 0
vt 5.22619 2.34166 0
vt 5.22619 0.980108 0
vt -4.68331 0.447646 0
vt -5.89877 0 0
vt -5.22619 2.34166 0
vt 4.68331 0.447646 0
vt 1.96022 0.529667 0
vt 1.96022 0.447646 0
vt -5.78796 0 0
vt -5.89877 0.980108 0
vt -5.78796 0.914492 0
vt -5.78796 0.980108 0
vt 5.89877 0 0
vt -4.61924 0.914492 0
vt -4.68486 2.40727 0
vt -4.68486 0.881683 0
vt -4.68486 2.34166 0
vt -5.35743 1.47139 0
vt -5.22619 1.117 0
vt -5.22619 1.47139 0
vt -5.35743 1.24258 0
vt -5.22619 1.24258 0
vt -5.35743 0.82021 0
vt -5.35743 1.117 0
vt -5.89877 0.914492 0
vt -4.81455 0.82021 0
vt -4.61924 2.33599 0
vt 4.67198 0.705381 0
vt 5.35743 2.34166 0
vt 4.68486 0.705381 0
vt 5.22619 0.447646 0
vt 5.22619 0.529667 0
vt 1.96022 0.713159 0
vt 1.96022 0 0
vt 1.96022 0.705381 0
vt 5.35743 0.447646 0
vt 4.68331 0.529667 0
vt 1.82898 0.82021 0
vt 1.82898 0 0
vt -4.61924 2.40727 0
vt -4.58643 0.881683 0
vt -5.35743 2.07919 0
vt 2.48515 0.82021 0
vt 1.96022 0.582079 0
vt -4.68331 0.582079 0
vt -4.15838 0.82021 0
vt -4.68331 0.82021 0
vt -4.67198 0.705381 0
vt -4.58643 0.914492 0
vt -4.61924 1.96651 0
vt -4.68486 1.83135 0
vt -4.61924 1.83135 0
vt 4.68331 0.714512 0
vt -5.89877 2.40727 0
vt 4.68486 0.714512 0
vt 5.22619 0.82021 0
vt 5.35743 0.529667 0
vt 5.89877 0.705381 0
vt 5.22619 0.582079 0
vt -5.89877 0.713159 0
vt 1.96975 0.705381 0
vt -5.89877 0.881683 0
vt -4.68486 1.8421 0
vt -4.68486 1.96651 0
vt -4.68486 2.44008 0
vt -4.68331 0.714512 0
vt 5.99719 0.869423 0
vt 4.58643 0.82021 0
vt -5.89877 2.34166 0
vt 5.22619 -1.34313 0
vt 5.35743 -0.988732 0
vt 5.22619 -0.988732 0
vt -4.58643 2.40727 0
vt -4.68331 0.705381 0
vt 5.35743 0.582079 0
vt 5.89877 0.095832 0
vt 5.96438 0.221393 0
vt 5.89877 0.221393 0
vt -5.89877 0.82021 0
vt 5.89877 0.086709 0
vt -1.96022 0.713159 0
vt -1.96975 0.705381 0
vt -5.96438 0.914492 0
vt -5.89877 2.44008 0
vt -1.76337 0.82021 0
vt -4.88016 0.869423 0
vt 4.58643 0.869423 0
vt 4.15838 0.82021 0
vt 4.68331 0.582079 0
vt 5.35743 -1.34313 0
vt -5.96438 2.40727 0
vt 5.35743 0.82021 0
vt 4.80379 0 0
vt -4.68331 0 0
vt 5.96438 0.086709 0
vt -4.6633 0.705381 0
vt -4.81455 -1.01856 0
vt -4.68331 -1.49786 0
vt -4.68331 -1.01856 0
vt -5.99719 0.881683 0
vt 5.99719 0.82021 0
vt -4.58643 2.44008 0
vt -4.58643 0.869423 0
vt -5.99719 2.44008 0
vt -4.80379 0 0
vt -1.76337 0.869423 0
vt 5.99719 0.881683 0
vt 4.58643 2.44008 0
vt 4.58643 0.881683 0
vt 5.89877 0.720574 0
vt 4.81455 0.82021 0
vt 4.68331 0.720574 0
vt -4.88016 0.82021 0
vt -4.80379 2.40727 0
vt -4.80379 2.34166 0
vt 4.81455 1.22817 0
vt 4.68331 1.70538 0
vt 4.68331 1.22817 0
vt -4.81455 0 0
vt -5.99719 2.40727 0
vt -5.89877 0.984876 0
vt -5.96438 2.33165 0
vt -5.96438 0.984876 0
vt -4.68331 0.720574 0
vt -5.89877 2.33165 0
vt -5.78796 2.34166 0
vt 4.81455 0 0
vt 4.68331 0.705381 0
vt 4.68331 0 0
vt -4.81455 -1.49786 0
vt 4.81455 1.70538 0
vt -5.99719 0.914492 0
vt 1.76337 0.869423 0
vt 1.76337 0.82021 0
vt -4.58643 0.82021 0
vt -5.99719 0.82021 0
vt 5.99719 2.44008 0
vt -5.96438 2.00903 0
vt -5.89877 1.88973 0
vt -5.89877 2.00903 0
vt 4.6633 0.705381 0
vt -5.96438 1.87153 0
vt -5.89877 1.87153 0
vt -5.78796 2.40727 0
vt 4.88016 0.869423 0
vt -5.99719 0.869423 0
vt 4.88016 0.82021 0

# 24 vertex normals
vn 1 0 0
vn 0 -1 0
vn -0 -0 -1
vn 0 -0.52694 0.849903
vn 0 -0.517577 -0.855637
vn -1 0 0
vn -0.861568 -0.507642 -0
vn 0 0 1
vn 0 1 0
vn 0.671938 -0.740607 0
vn 0.849601 -0.527426 0
vn -0.671938 -0.740607 -0
vn -0.852584 -0.522591 0
vn 0 -0.511333 0.859383
vn 0.835159 -0.550009 0
vn 0 0.52694 -0.849903
vn 0 0.517577 0.855637
vn 0.861568 0.507642 0
vn -0.671938 0.740607 0
vn -0.849601 0.527426 0
vn 0.671938 0.740607 0
vn 0.852584 0.522591 0
vn 0 0.511333 -0.859383
vn -0.835159 0.550009 0

# Mesh 'mesh1_mesh1-geometry' with 200 faces
g mesh1_mesh1-geometry
usemtl material_0_1_8
f  1/1/1 2/2/1 3/3/1
f  2/2/1 1/1/1 4/4/1
f  2/5/2 5/6/2 3/7/2
f  3/8/3 6/9/3 1/10/3
f  4/4/1 1/1/1 7/11/1
f  8/12/4 2/13/4 4/14/4
f  5/6/2 2/5/2 9/15/2
f  5/16/3 6/9/3 3/8/3
f  10/17/1 1/1/1 6/18/1
f  11/19/3 1/10/3 6/9/3
f  7/11/1 1/1/1 12/20/1
f  13/21/1 4/4/1 7/11/1
f  2/13/4 8/12/4 9/22/4
f  4/23/5 14/24/5 8/25/5
f  8/26/6 5/27/6 9/28/6
f  6/9/3 5/16/3 15/29/3
f  16/30/1 1/1/1 10/17/1
f  10/17/1 6/18/1 17/31/1
f  6/32/7 18/33/7 11/34/7
f  11/35/8 17/36/8 6/37/8
f  12/20/1 1/1/1 19/38/1
f  20/39/3 7/40/3 12/41/3
f  21/42/1 4/4/1 13/21/1
f  7/43/2 22/44/2 13/45/2
f  14/24/5 4/23/5 23/46/5
f  14/47/6 24/48/6 8/26/6
f  5/27/6 8/26/6 15/49/6
f  25/50/7 6/32/7 15/51/7
f  6/9/3 15/29/3 17/52/3
f  19/38/1 1/1/1 16/30/1
f  26/53/3 16/54/3 10/52/3
f  10/17/1 27/55/1 16/30/1
f  10/43/2 15/6/2 17/7/2
f  17/7/2 28/56/2 10/43/2
f  18/33/7 6/32/7 25/50/7
f  18/57/2 29/58/2 11/59/2
f  17/36/8 11/35/8 30/60/8
f  19/61/9 20/62/9 12/63/9
f  7/40/3 20/39/3 31/64/3
f  32/65/1 4/4/1 21/42/1
f  21/42/1 13/21/1 19/38/1
f  22/44/2 7/43/2 31/66/2
f  22/67/8 19/68/8 13/69/8
f  4/4/1 32/65/1 23/70/1
f  32/71/2 14/72/2 23/73/2
f  24/48/6 14/47/6 33/74/6
f  15/49/6 8/26/6 24/48/6
f  25/75/2 34/76/2 15/6/2
f  35/77/2 25/75/2 15/6/2
f  15/6/2 30/78/2 17/7/2
f  27/55/1 19/38/1 16/30/1
f  36/79/10 16/80/10 26/81/10
f  36/82/2 10/43/2 26/83/2
f  10/43/2 28/56/2 26/83/2
f  27/55/1 10/17/1 37/84/1
f  16/80/10 36/79/10 27/85/10
f  15/6/2 10/43/2 24/86/2
f  17/7/2 38/66/2 28/56/2
f  39/87/3 18/19/3 25/29/3
f  29/58/2 18/57/2 40/88/2
f  30/60/8 11/35/8 29/89/8
f  38/66/2 17/7/2 30/78/2
f  20/62/9 19/61/9 41/90/9
f  42/91/6 31/92/6 20/93/6
f  43/94/8 32/95/8 21/96/8
f  21/42/1 19/38/1 27/55/1
f  31/92/6 44/26/6 22/97/6
f  19/68/8 22/67/8 41/98/8
f  14/72/2 32/71/2 33/86/2
f  32/95/8 24/99/8 33/100/8
f  24/86/2 35/77/2 15/6/2
f  34/76/2 25/75/2 39/101/2
f  15/6/2 34/76/2 30/78/2
f  45/102/2 25/75/2 35/77/2
f  26/83/2 46/103/2 36/82/2
f  10/43/2 36/82/2 37/45/2
f  46/103/2 26/83/2 28/56/2
f  24/86/2 10/43/2 37/45/2
f  21/42/1 27/55/1 37/84/1
f  36/104/8 37/36/8 27/105/8
f  47/44/2 28/56/2 38/66/2
f  48/106/3 28/107/3 38/108/3
f  18/19/3 39/87/3 40/109/3
f  49/110/2 39/101/2 25/75/2
f  39/111/11 29/112/11 40/113/11
f  30/60/8 29/89/8 50/114/8
f  30/78/2 51/115/2 38/66/2
f  50/116/6 38/117/6 30/49/6
f  41/118/6 52/119/6 20/93/6
f  42/91/6 44/26/6 31/92/6
f  42/91/6 20/93/6 48/120/6
f  24/99/8 32/95/8 43/94/8
f  21/42/1 37/84/1 43/121/1
f  53/122/8 43/94/8 21/96/8
f  44/26/6 52/119/6 22/97/6
f  22/97/6 52/119/6 41/118/6
f  35/77/2 24/86/2 54/123/2
f  50/124/11 39/111/11 34/125/11
f  39/101/2 55/126/2 34/76/2
f  51/115/2 30/78/2 34/76/2
f  34/87/3 50/127/3 30/108/3
f  25/75/2 45/102/2 49/110/2
f  35/49/6 56/128/6 45/129/6
f  46/103/2 57/130/2 36/82/2
f  36/82/2 57/130/2 37/45/2
f  28/56/2 47/44/2 46/103/2
f  48/131/12 46/132/12 28/133/12
f  24/86/2 37/45/2 58/71/2
f  38/66/2 51/115/2 47/44/2
f  59/55/1 38/17/1 47/84/1
f  42/91/6 48/120/6 38/117/6
f  38/17/1 59/55/1 48/30/1
f  39/101/2 49/110/2 60/134/2
f  29/112/11 39/111/11 50/124/11
f  42/135/3 29/109/3 50/127/3
f  42/91/6 38/117/6 50/116/6
f  20/93/6 52/119/6 59/136/6
f  61/27/6 44/26/6 42/91/6
f  48/120/6 20/93/6 59/136/6
f  58/36/8 24/99/8 43/94/8
f  43/137/13 62/138/13 24/139/13
f  43/121/1 37/84/1 58/140/1
f  53/141/13 62/138/13 43/137/13
f  43/142/3 57/108/3 53/143/3
f  63/47/6 52/119/6 44/26/6
f  62/144/2 54/123/2 24/86/2
f  54/48/6 56/128/6 35/49/6
f  34/87/3 42/135/3 50/127/3
f  60/134/2 55/126/2 39/101/2
f  64/145/2 34/76/2 55/126/2
f  34/76/2 64/145/2 51/115/2
f  51/140/1 65/4/1 34/31/1
f  45/146/3 66/147/3 49/29/3
f  45/129/6 56/128/6 67/148/6
f  57/130/2 46/103/2 47/44/2
f  37/45/2 57/130/2 58/71/2
f  47/60/8 46/149/8 59/150/8
f  46/132/12 48/131/12 59/151/12
f  58/71/2 68/152/2 24/86/2
f  47/44/2 51/115/2 57/130/2
f  59/136/6 52/119/6 47/153/6
f  49/29/3 66/147/3 60/87/3
f  44/26/6 61/27/6 69/154/6
f  42/135/3 34/87/3 61/155/3
f  57/108/3 43/142/3 58/52/3
f  24/86/2 68/152/2 62/144/2
f  62/138/13 53/141/13 70/156/13
f  53/143/3 57/108/3 71/157/3
f  52/119/6 63/47/6 72/74/6
f  65/158/5 63/159/5 44/160/5
f  54/123/2 62/144/2 73/161/2
f  56/128/6 54/48/6 73/162/6
f  55/126/2 60/134/2 74/163/2
f  55/31/1 66/164/1 64/140/1
f  75/165/2 51/115/2 64/145/2
f  76/65/1 65/4/1 51/140/1
f  77/166/1 34/31/1 65/4/1
f  66/147/3 45/146/3 67/167/3
f  56/168/9 66/169/9 67/170/9
f  47/153/6 78/171/6 57/48/6
f  57/130/2 68/152/2 58/71/2
f  68/152/2 57/130/2 51/115/2
f  51/172/8 57/60/8 78/173/8
f  47/153/6 52/119/6 78/171/6
f  60/87/3 66/147/3 74/174/3
f  61/78/2 77/175/2 69/176/2
f  77/177/14 44/178/14 69/179/14
f  61/155/3 34/87/3 79/180/3
f  70/122/8 68/172/8 62/99/8
f  80/181/2 62/144/2 68/152/2
f  53/182/2 81/183/2 70/184/2
f  71/157/3 57/108/3 78/185/3
f  81/183/2 53/182/2 71/186/2
f  63/187/2 76/115/2 72/130/2
f  76/188/8 52/189/8 72/190/8
f  63/159/5 65/158/5 82/191/5
f  44/178/14 77/177/14 65/192/14
f  73/161/2 62/144/2 83/193/2
f  83/99/8 56/194/8 73/195/8
f  66/164/1 55/31/1 74/196/1
f  64/140/1 66/164/1 75/197/1
f  51/115/2 75/165/2 68/152/2
f  65/4/1 76/65/1 82/70/1
f  78/173/8 76/188/8 51/172/8
f  34/31/1 77/166/1 79/3/1
f  66/169/9 56/168/9 84/198/9
f  68/199/15 78/200/15 51/201/15
f  52/189/8 76/188/8 78/173/8
f  78/173/8 71/202/8 52/189/8
f  77/175/2 61/78/2 79/76/2
f  68/172/8 70/122/8 81/202/8
f  62/144/2 80/181/2 83/193/2
f  68/152/2 75/165/2 80/181/2
f  78/200/15 81/203/15 71/204/15
f  76/115/2 63/187/2 82/205/2
f  56/194/8 83/99/8 84/206/8
f  75/197/1 66/164/1 84/207/1
f  81/203/15 78/200/15 68/199/15
f  84/206/8 83/99/8 80/172/8
f  84/206/8 80/172/8 75/208/8

# Mesh 'mesh1_mesh1-geometry' with 200 faces
g mesh1_mesh1-geometry
usemtl material_1_24
f  3//6 2//6 1//6
f  4//6 1//6 2//6
f  3//9 5//9 2//9
f  1//8 6//8 3//8
f  7//6 1//6 4//6
f  4//16 2//16 8//16
f  9//9 2//9 5//9
f  3//8 6//8 5//8
f  6//6 1//6 10//6
f  6//8 1//8 11//8
f  12//6 1//6 7//6
f  7//6 4//6 13//6
f  9//16 8//16 2//16
f  8//17 14//17 4//17
f  9//1 5//1 8//1
f  15//8 5//8 6//8
f  10//6 1//6 16//6
f  17//6 6//6 10//6
f  11//18 18//18 6//18
f  6//3 17//3 11//3
f  19//6 1//6 12//6
f  12//8 7//8 20//8
f  13//6 4//6 21//6
f  13//9 22//9 7//9
f  23//17 4//17 14//17
f  8//1 24//1 14//1
f  15//1 8//1 5//1
f  15//18 6//18 25//18
f  17//8 15//8 6//8
f  16//6 1//6 19//6
f  10//8 16//8 26//8
f  16//6 27//6 10//6
f  17//9 15//9 10//9
f  10//9 28//9 17//9
f  25//18 6//18 18//18
f  11//9 29//9 18//9
f  30//3 11//3 17//3
f  12//2 20//2 19//2
f  31//8 20//8 7//8
f  21//6 4//6 32//6
f  19//6 13//6 21//6
f  31//9 7//9 22//9
f  13//3 19//3 22//3
f  23//6 32//6 4//6
f  23//9 14//9 32//9
f  33//1 14//1 24//1
f  24//1 8//1 15//1
f  15//9 34//9 25//9
f  15//9 25//9 35//9
f  17//9 30//9 15//9
f  16//6 19//6 27//6
f  26//19 16//19 36//19
f  26//9 10//9 36//9
f  26//9 28//9 10//9
f  37//6 10//6 27//6
f  27//19 36//19 16//19
f  24//9 10//9 15//9
f  28//9 38//9 17//9
f  25//8 18//8 39//8
f  40//9 18//9 29//9
f  29//3 11//3 30//3
f  30//9 17//9 38//9
f  41//2 19//2 20//2
f  20//1 31//1 42//1
f  21//3 32//3 43//3
f  27//6 19//6 21//6
f  22//1 44//1 31//1
f  41//3 22//3 19//3
f  33//9 32//9 14//9
f  33//3 24//3 32//3
f  15//9 35//9 24//9
f  39//9 25//9 34//9
f  30//9 34//9 15//9
f  35//9 25//9 45//9
f  36//9 46//9 26//9
f  37//9 36//9 10//9
f  28//9 26//9 46//9
f  37//9 10//9 24//9
f  37//6 27//6 21//6
f  27//3 37//3 36//3
f  38//9 28//9 47//9
f  38//8 28//8 48//8
f  40//8 39//8 18//8
f  25//9 39//9 49//9
f  40//20 29//20 39//20
f  50//3 29//3 30//3
f  38//9 51//9 30//9
f  30//1 38//1 50//1
f  20//1 52//1 41//1
f  31//1 44//1 42//1
f  48//1 20//1 42//1
f  43//3 32//3 24//3
f  43//6 37//6 21//6
f  21//3 43//3 53//3
f  22//1 52//1 44//1
f  41//1 52//1 22//1
f  54//9 24//9 35//9
f  34//20 39//20 50//20
f  34//9 55//9 39//9
f  34//9 30//9 51//9
f  30//8 50//8 34//8
f  49//9 45//9 25//9
f  45//1 56//1 35//1
f  36//9 57//9 46//9
f  37//9 57//9 36//9
f  46//9 47//9 28//9
f  28//21 46//21 48//21
f  58//9 37//9 24//9
f  47//9 51//9 38//9
f  47//6 38//6 59//6
f  38//1 48//1 42//1
f  48//6 59//6 38//6
f  60//9 49//9 39//9
f  50//20 39//20 29//20
f  50//8 29//8 42//8
f  50//1 38//1 42//1
f  59//1 52//1 20//1
f  42//1 44//1 61//1
f  59//1 20//1 48//1
f  43//3 24//3 58//3
f  24//22 62//22 43//22
f  58//6 37//6 43//6
f  43//22 62//22 53//22
f  53//8 57//8 43//8
f  44//1 52//1 63//1
f  24//9 54//9 62//9
f  35//1 56//1 54//1
f  50//8 42//8 34//8
f  39//9 55//9 60//9
f  55//9 34//9 64//9
f  51//9 64//9 34//9
f  34//6 65//6 51//6
f  49//8 66//8 45//8
f  67//1 56//1 45//1
f  47//9 46//9 57//9
f  58//9 57//9 37//9
f  59//3 46//3 47//3
f  59//21 48//21 46//21
f  24//9 68//9 58//9
f  57//9 51//9 47//9
f  47//1 52//1 59//1
f  60//8 66//8 49//8
f  69//1 61//1 44//1
f  61//8 34//8 42//8
f  58//8 43//8 57//8
f  62//9 68//9 24//9
f  70//22 53//22 62//22
f  71//8 57//8 53//8
f  72//1 63//1 52//1
f  44//17 63//17 65//17
f  73//9 62//9 54//9
f  73//1 54//1 56//1
f  74//9 60//9 55//9
f  64//6 66//6 55//6
f  64//9 51//9 75//9
f  51//6 65//6 76//6
f  65//6 34//6 77//6
f  67//8 45//8 66//8
f  67//2 66//2 56//2
f  57//1 78//1 47//1
f  58//9 68//9 57//9
f  51//9 57//9 68//9
f  78//3 57//3 51//3
f  78//1 52//1 47//1
f  74//8 66//8 60//8
f  69//9 77//9 61//9
f  69//23 44//23 77//23
f  79//8 34//8 61//8
f  62//3 68//3 70//3
f  68//9 62//9 80//9
f  70//9 81//9 53//9
f  78//8 57//8 71//8
f  71//9 53//9 81//9
f  72//9 76//9 63//9
f  72//3 52//3 76//3
f  82//17 65//17 63//17
f  65//23 77//23 44//23
f  83//9 62//9 73//9
f  73//3 56//3 83//3
f  74//6 55//6 66//6
f  75//6 66//6 64//6
f  68//9 75//9 51//9
f  82//6 76//6 65//6
f  51//3 76//3 78//3
f  79//6 77//6 34//6
f  84//2 56//2 66//2
f  51//24 78//24 68//24
f  78//3 76//3 52//3
f  52//3 71//3 78//3
f  79//9 61//9 77//9
f  81//3 70//3 68//3
f  83//9 80//9 62//9
f  80//9 75//9 68//9
f  71//24 81//24 78//24
f  82//9 63//9 76//9
f  84//3 83//3 56//3
f  84//6 66//6 75//6
f  68//24 78//24 81//24
f  80//3 83//3 84//3
f  75//3 80//3 84//3

