# File produced by Open Asset Import Library (http://www.assimp.sf.net)
# (assimp v3.2.202087883)

mtllib model_normalized.mtl

# 139 vertex positions
v -0.009357 0.322816 0.084021
v -0.009357 0.170765 -0.083658
v -0.009357 0.170765 0.084021
v -0.009357 0.322816 -0.083658
v -0.161408 0.170765 0.084021
v 0.004678 -0.327494 0.084021
v -0.161408 0.322816 -0.083658
v 0.004678 0.322816 -0.083658
v -0.161408 0.170765 -0.083658
v -0.009357 0.156729 0.084021
v 0.004678 0.322816 0.084021
v -0.161408 0.322816 0.084021
v 0.346209 0.346208 -0.083658
v -0.009357 0.156729 -0.083658
v -0.161408 0.156729 -0.083658
v -0.161408 0.156729 0.084021
v -0.009357 0.004678 0.084021
v 0.346209 0.346208 0.084021
v 0.004678 -0.175443 0.084021
v -0.175444 0.322816 -0.083658
v 0.156730 0.322816 -0.083658
v -0.009357 0.004678 -0.083658
v -0.161408 -0.327494 -0.083658
v -0.009357 -0.009357 0.084021
v 0.156730 0.322816 0.084021
v 0.004678 -0.175443 -0.083658
v 0.004678 -0.161408 0.084021
v -0.175444 0.322816 0.084021
v -0.327495 0.322816 -0.083658
v -0.175444 0.170765 -0.083658
v 0.170765 0.322816 -0.083658
v -0.009357 -0.009357 -0.083658
v -0.161408 0.004678 -0.083658
v -0.175444 -0.327494 -0.083658
v -0.161408 0.004678 0.084021
v -0.009357 -0.161408 0.084021
v 0.170765 0.322816 0.084021
v 0.004678 -0.327494 -0.083658
v 0.156730 -0.175443 0.084021
v 0.004678 -0.009357 0.084021
v -0.327495 0.322816 0.084021
v -0.161408 -0.327494 0.084021
v -0.350887 0.346208 -0.083658
v -0.175444 0.156729 -0.083658
v 0.322816 0.322816 -0.083658
v 0.156730 0.170765 -0.083658
v -0.009357 -0.161408 -0.083658
v -0.161408 -0.009357 -0.083658
v 0.346209 -0.350887 -0.083658
v -0.175444 -0.175443 -0.083658
v -0.161408 -0.009357 0.084021
v -0.009357 -0.175443 0.084021
v 0.004678 0.170765 0.084021
v 0.170765 -0.327494 0.084021
v 0.322816 0.322816 0.084021
v 0.156730 -0.327494 -0.083658
v 0.004678 -0.161408 -0.083658
v 0.156730 -0.175443 -0.083658
v 0.156730 -0.161408 0.084021
v 0.004678 -0.009357 -0.083658
v 0.004678 0.004678 0.084021
v -0.350887 0.346208 0.084021
v -0.175444 0.170765 0.084021
v -0.161408 -0.175443 0.084021
v -0.350887 -0.350887 -0.083658
v -0.175444 0.004678 -0.083658
v -0.327495 0.156729 -0.083658
v 0.322816 0.170765 -0.083658
v 0.156730 0.156729 -0.083658
v 0.156730 0.170765 0.084021
v -0.009357 -0.175443 -0.083658
v -0.161408 -0.161408 -0.083658
v -0.327495 -0.327494 -0.083658
v -0.009357 -0.327494 -0.083658
v -0.175444 -0.161408 -0.083658
v -0.175444 -0.175443 0.084021
v -0.161408 -0.161408 0.084021
v -0.009357 -0.327494 0.084021
v 0.004678 0.170765 -0.083658
v 0.004678 0.156729 0.084021
v 0.170765 -0.175443 0.084021
v 0.346209 -0.350887 0.084021
v 0.156730 -0.327494 0.084021
v 0.156730 -0.161408 -0.083658
v 0.156730 -0.009357 0.084021
v -0.327495 -0.327494 0.084021
v -0.327495 0.170765 0.084021
v -0.175444 0.156729 0.084021
v -0.161408 -0.175443 -0.083658
v -0.175444 -0.009357 -0.083658
v -0.327495 0.170765 -0.083658
v 0.322816 0.156729 -0.083658
v 0.156730 0.004678 -0.083658
v 0.004678 0.156729 -0.083658
v -0.327495 -0.175443 -0.083658
v -0.175444 -0.327494 0.084021
v 0.156730 0.156729 0.084021
v 0.170765 -0.175443 -0.083658
v 0.170765 -0.161408 0.084021
v 0.170765 0.170765 0.084021
v 0.322816 0.170765 0.084021
v 0.170765 -0.327494 -0.083658
v 0.004678 0.004678 -0.083658
v 0.156730 -0.009357 -0.083658
v 0.156730 0.004678 0.084021
v -0.350887 -0.350887 0.084021
v -0.327495 -0.175443 0.084021
v -0.327495 0.156729 0.084021
v -0.175444 0.004678 0.084021
v -0.327495 -0.009357 -0.083658
v 0.322816 0.004678 -0.083658
v 0.170765 0.156729 -0.083658
v -0.175444 -0.009357 0.084021
v -0.327495 -0.161408 -0.083658
v 0.322816 -0.175443 0.084021
v 0.170765 -0.009357 0.084021
v 0.170765 0.170765 -0.083658
v 0.170765 0.156729 0.084021
v 0.322816 0.156729 0.084021
v 0.322816 -0.327494 -0.083658
v -0.327495 -0.161408 0.084021
v -0.327495 0.004678 0.084021
v -0.327495 0.004678 -0.083658
v 0.322816 -0.009357 -0.083658
v -0.175444 -0.161408 0.084021
v 0.170765 -0.161408 -0.083658
v 0.322816 -0.175443 -0.083658
v 0.322816 -0.161408 0.084021
v 0.170765 -0.009357 -0.083658
v 0.170765 0.004678 0.084021
v 0.322816 0.004678 0.084021
v 0.322816 -0.327494 0.084021
v -0.327495 -0.009357 0.084021
v 0.322816 -0.161408 -0.083658
v 0.322816 -0.009357 0.084021
v 0.170765 0.004678 -0.083658
v 0.004678 0.156729 -0.008239
v 0.156730 0.004678 -0.008239
v 0.156730 0.156729 -0.008239

# 162 UV coordinates
vt 0.117585 1.1811 0
vt 0 0.914534 0
vt 0.117585 0.914534 0
vt 0 1.1811 0
vt 0 0.598753 0
vt 0.117585 0.332185 0
vt 0.117585 0.598753 0
vt 0.239501 0.914534 0
vt 0.249344 0.04101 0
vt 0.239501 1.1811 0
vt -0.117585 0.598753 0
vt 0 0.332185 0
vt -0.239501 1.1811 0
vt -0.249344 1.1811 0
vt -0.239501 0.914534 0
vt 0.132874 0.914534 0
vt 0.239501 0.889928 0
vt 0.249344 1.1811 0
vt -0.117585 0.332185 0
vt -0.132874 1.1811 0
vt -0.488845 1.22211 0
vt -0.239501 0.889928 0
vt -0.132874 0.889928 0
vt -0.132874 0.914534 0
vt -0.117585 0.914534 0
vt 0.132874 0.889928 0
vt 0.239501 0.62336 0
vt 0.488845 1.22211 0
vt 0.249344 0.307579 0
vt 0.132874 1.1811 0
vt -0.117585 1.1811 0
vt -0.123031 1.1811 0
vt -0.355971 1.1811 0
vt -0.239501 0.62336 0
vt -0.132874 0.04101 0
vt 0.239501 0.598753 0
vt 0.117585 0.889928 0
vt 0 0.62336 0
vt 0.117585 0.62336 0
vt 0.355971 1.1811 0
vt -0.117585 0.04101 0
vt 0 0.307579 0
vt -0.117585 0.307579 0
vt 0.249344 0.332185 0
vt 0.123031 1.1811 0
vt -0.016404 1.1811 0
vt -0.123031 0.914534 0
vt -0.365814 1.1811 0
vt -0.117585 0.889928 0
vt 0 0.889928 0
vt -0.239501 0.598753 0
vt -0.132874 0.62336 0
vt -0.123031 0.04101 0
vt 0.132874 0.62336 0
vt -0.117585 0.62336 0
vt 0.239501 0.332185 0
vt 0.365814 1.1811 0
vt 0 0.04101 0
vt 0.355971 0.307579 0
vt 0.249344 0.598753 0
vt 0.016404 1.1811 0
vt 0.132874 0.04101 0
vt 0 1.22211 0
vt -0.123031 0.889928 0
vt -0.472441 1.1811 0
vt -0.355971 0.914534 0
vt -0.239501 0.332185 0
vt -0.132874 0.598753 0
vt -0.488845 0 0
vt -0.123031 0.307579 0
vt 0.132874 0.598753 0
vt 0.239501 0.307579 0
vt 0.365814 0.04101 0
vt 0.472441 1.1811 0
vt -0.249344 0.04101 0
vt -0.249344 0.332185 0
vt -0.249344 0.307579 0
vt 0.355971 0.332185 0
vt 0.249344 0.62336 0
vt 0.123031 0.914534 0
vt 0.132874 0.307579 0
vt 0 0 0
vt 0.117585 0 0
vt -0.123031 0.62336 0
vt -0.016404 0.889928 0
vt -0.472441 0.914534 0
vt -0.355971 0.889928 0
vt -0.239501 0.307579 0
vt -0.132874 0.332185 0
vt -0.016404 0.04101 0
vt -0.239501 0.04101 0
vt -0.123031 0.332185 0
vt 0.117585 0.307579 0
vt 0.132874 0.332185 0
vt 0.239501 0.04101 0
vt 0.249344 0.889928 0
vt 0.249344 0.914534 0
vt 0.355971 0.914534 0
vt 0.365814 0.307579 0
vt 0.488845 0 0
vt -0.355971 0.04101 0
vt -0.249344 0.598753 0
vt -0.355971 0.332185 0
vt -0.355971 0.307579 0
vt 0.355971 0.598753 0
vt 0.016404 0.04101 0
vt 0.117585 1.22211 0
vt 0.123031 0.889928 0
vt -0.123031 0.598753 0
vt -0.016404 0.914534 0
vt 0.117585 0.04101 0
vt -0.472441 0.889928 0
vt -0.355971 0.62336 0
vt -0.249344 0.889928 0
vt -0.132874 0.307579 0
vt -0.016404 0.307579 0
vt -0.249344 0.914534 0
vt 0.355971 0.889928 0
vt 0.365814 0.332185 0
vt 0.472441 0.914534 0
vt -0.117585 0 0
vt -0.117585 1.22211 0
vt 0.355971 0.04101 0
vt -0.365814 0.04101 0
vt -0.249344 0.62336 0
vt 0.355971 0.62336 0
vt 0.016404 0.307579 0
vt 0.016404 0.889928 0
vt 0.016404 0.914534 0
vt 0.123031 0.62336 0
vt -0.016404 0.598753 0
vt -0.472441 0.62336 0
vt -0.365814 0.889928 0
vt -0.355971 0.598753 0
vt -0.016404 0.332185 0
vt 0.123031 0.04101 0
vt 0.123031 0.307579 0
vt 0.472441 0.307579 0
vt 0.365814 0.598753 0
vt 0.365814 0.889928 0
vt 0.365814 0.914534 0
vt 0.472441 0.889928 0
vt -0.472441 0.04101 0
vt 0.016404 0.332185 0
vt 0.016404 0.62336 0
vt 0.123031 0.598753 0
vt -0.016404 0.62336 0
vt -0.472441 0.598753 0
vt -0.365814 0.914534 0
vt 0.123031 0.332185 0
vt -0.365814 0.332185 0
vt -0.365814 0.307579 0
vt 0.472441 0.332185 0
vt 0.365814 0.62336 0
vt 0.472441 0.62336 0
vt 0.472441 0.04101 0
vt 0.016404 0.598753 0
vt -0.472441 0.332185 0
vt -0.365814 0.598753 0
vt -0.472441 0.307579 0
vt 0.472441 0.598753 0
vt -0.365814 0.62336 0

# 6 vertex normals
vn -0.0254 0 0
vn 0 0.0254 0
vn 0 0 0.0254
vn 0 -0.0254 0
vn 0 0 -0.0254
vn 0.0254 0 0

# Mesh 'mesh1_mesh1-geometry' with 332 faces
g mesh1_mesh1-geometry
usemtl material_0_1_8
f  1/1/1 2/2/1 3/3/1
f  2/2/1 1/1/1 4/4/1
f  2/5/2 5/6/2 3/7/2
f  3/8/3 6/9/3 1/10/3
f  1/11/4 7/12/4 4/5/4
f  4/13/5 8/14/5 2/15/5
f  5/6/2 2/5/2 9/12/2
f  5/16/3 10/17/3 3/8/3
f  10/17/3 6/9/3 3/8/3
f  11/18/3 1/10/3 6/9/3
f  7/12/4 1/11/4 12/19/4
f  7/20/5 13/21/5 4/13/5
f  4/13/5 13/21/5 8/14/5
f  2/15/5 8/14/5 14/22/5
f  2/15/5 15/23/5 9/24/5
f  7/4/6 5/25/6 9/2/6
f  10/17/3 5/16/3 16/26/3
f  17/27/3 6/9/3 10/17/3
f  18/28/3 1/10/3 11/18/3
f  11/18/3 6/9/3 19/29/3
f  18/28/3 12/30/3 1/10/3
f  5/25/6 7/4/6 12/31/6
f  20/32/5 13/21/5 7/20/5
f  8/14/5 13/21/5 21/33/5
f  14/22/5 8/14/5 22/34/5
f  15/23/5 2/15/5 14/22/5
f  23/35/5 9/24/5 15/23/5
f  23/35/5 7/20/5 9/24/5
f  12/30/3 16/26/3 5/16/3
f  15/12/4 10/11/4 16/19/4
f  24/36/3 6/9/3 17/27/3
f  10/37/1 22/38/1 17/39/1
f  18/28/3 11/18/3 25/40/3
f  6/41/6 26/42/6 19/43/6
f  11/18/3 19/29/3 27/44/3
f  18/28/3 28/45/3 12/30/3
f  29/46/5 13/21/5 20/32/5
f  20/32/5 7/20/5 30/47/5
f  21/33/5 13/21/5 31/48/5
f  25/49/4 8/38/4 21/50/4
f  22/34/5 8/14/5 32/51/5
f  22/38/1 10/37/1 14/50/1
f  10/11/4 15/12/4 14/5/4
f  23/35/5 15/23/5 33/52/5
f  23/35/5 34/53/5 7/20/5
f  12/30/3 35/54/3 16/26/3
f  35/55/6 15/50/6 16/49/6
f  36/56/3 6/9/3 24/36/3
f  35/54/3 24/36/3 17/27/3
f  22/5/2 35/6/2 17/7/2
f  8/38/4 25/49/4 11/55/4
f  18/28/3 25/40/3 37/57/3
f  26/42/6 6/41/6 38/58/6
f  26/38/4 39/49/4 19/55/4
f  39/59/3 27/44/3 19/29/3
f  11/18/3 27/44/3 40/60/3
f  18/28/3 41/61/3 28/45/3
f  12/30/3 28/45/3 42/62/3
f  29/46/5 43/63/5 13/21/5
f  28/43/4 29/58/4 20/42/4
f  30/47/5 7/20/5 44/64/5
f  30/2/1 28/1/1 20/4/1
f  31/48/5 13/21/5 45/65/5
f  21/33/5 31/48/5 46/66/5
f  46/2/1 25/1/1 21/4/1
f  32/51/5 8/14/5 47/67/5
f  48/68/5 22/34/5 32/51/5
f  15/50/6 35/55/6 33/38/6
f  23/35/5 33/52/5 48/68/5
f  49/69/5 34/53/5 23/35/5
f  50/70/5 7/20/5 34/53/5
f  12/30/3 51/71/3 35/54/3
f  52/72/3 6/9/3 36/56/3
f  24/7/1 47/12/1 36/6/1
f  24/36/3 35/54/3 51/71/3
f  35/6/2 22/5/2 33/12/2
f  53/25/6 8/4/6 11/31/6
f  37/57/3 25/40/3 54/73/3
f  18/28/3 37/57/3 55/74/3
f  6/39/2 56/50/2 38/38/2
f  38/75/5 57/76/5 26/77/5
f  39/49/4 26/38/4 58/50/4
f  27/44/3 39/59/3 59/78/3
f  27/19/6 60/5/6 40/11/6
f  11/18/3 40/60/3 61/79/3
f  62/63/3 41/61/3 18/28/3
f  29/58/4 28/43/4 41/41/4
f  63/80/3 42/62/3 28/45/3
f  12/30/3 42/62/3 64/81/3
f  43/63/5 29/46/5 65/82/5
f  62/83/2 13/63/2 43/82/2
f  44/64/5 7/20/5 66/84/5
f  67/85/5 30/47/5 44/64/5
f  28/1/1 30/2/1 63/3/1
f  45/65/5 13/21/5 68/86/5
f  55/31/4 31/2/4 45/4/4
f  46/66/5 31/48/5 69/87/5
f  25/1/1 46/2/1 70/3/1
f  47/67/5 8/14/5 71/88/5
f  47/12/1 24/7/1 32/5/1
f  22/34/5 48/68/5 33/52/5
f  24/11/4 48/12/4 32/5/4
f  23/35/5 48/68/5 72/89/5
f  49/69/5 73/90/5 34/53/5
f  49/69/5 23/35/5 74/91/5
f  75/92/5 7/20/5 50/70/5
f  34/58/1 76/93/1 50/42/1
f  12/30/3 77/94/3 51/71/3
f  78/95/3 6/9/3 52/72/3
f  77/94/3 52/72/3 36/56/3
f  47/5/2 77/6/2 36/7/2
f  48/12/4 24/11/4 51/19/4
f  8/4/6 53/25/6 79/2/6
f  11/18/3 80/96/3 53/97/3
f  70/98/3 54/73/3 25/40/3
f  37/57/3 54/73/3 81/99/3
f  31/2/4 55/31/4 37/25/4
f  18/28/3 55/74/3 82/100/3
f  56/50/2 6/39/2 83/37/2
f  49/69/5 38/75/5 56/101/5
f  38/75/5 60/102/5 57/76/5
f  84/103/5 26/77/5 57/76/5
f  26/77/5 84/103/5 58/104/5
f  56/58/1 39/93/1 58/42/1
f  39/59/3 54/73/3 59/78/3
f  84/50/2 27/39/2 59/37/2
f  60/5/6 27/19/6 57/12/6
f  60/38/4 85/49/4 40/55/4
f  85/105/3 61/79/3 40/60/3
f  11/18/3 61/79/3 80/96/3
f  41/61/3 62/63/3 86/106/3
f  13/63/2 62/83/2 18/107/2
f  87/25/6 29/4/6 41/31/6
f  88/108/3 42/62/3 63/80/3
f  42/41/6 89/42/6 64/43/6
f  12/30/3 64/81/3 77/94/3
f  73/90/5 65/82/5 29/46/5
f  65/82/1 62/107/1 43/63/1
f  66/84/5 7/20/5 90/109/5
f  66/38/1 88/37/1 44/50/1
f  30/47/5 67/85/5 91/110/5
f  88/43/4 67/58/4 44/42/4
f  30/42/2 87/111/2 63/93/2
f  68/86/5 13/21/5 92/112/5
f  68/2/1 55/1/1 45/4/1
f  69/87/5 31/48/5 93/113/5
f  94/114/5 46/66/5 69/87/5
f  46/50/2 53/39/2 70/37/2
f  71/88/5 8/14/5 74/91/5
f  89/115/5 47/67/5 71/88/5
f  48/5/6 77/19/6 72/12/6
f  23/35/5 72/89/5 89/115/5
f  65/82/5 73/90/5 49/69/5
f  86/111/2 34/42/2 73/58/2
f  42/6/2 74/5/2 23/12/2
f  49/69/5 74/91/5 38/75/5
f  90/109/5 7/20/5 75/92/5
f  95/116/5 75/92/5 50/70/5
f  76/93/1 34/58/1 96/111/1
f  76/43/4 95/58/4 50/42/4
f  77/19/6 48/5/6 51/11/6
f  78/95/3 82/100/3 6/9/3
f  52/93/1 74/58/1 78/111/1
f  52/72/3 77/94/3 64/81/3
f  77/6/2 47/5/2 72/12/2
f  53/39/2 46/50/2 79/38/2
f  38/75/5 8/14/5 79/117/5
f  97/118/3 53/97/3 80/96/3
f  97/118/3 54/73/3 70/98/3
f  54/41/6 98/42/6 81/43/6
f  37/57/3 81/99/3 99/119/3
f  100/25/6 31/4/6 37/31/6
f  101/120/3 82/100/3 55/74/3
f  82/121/6 13/63/6 18/122/6
f  6/9/3 82/100/3 83/123/3
f  39/93/1 56/58/1 83/111/1
f  49/69/5 56/101/5 102/124/5
f  38/75/5 103/125/5 60/102/5
f  27/39/2 84/50/2 57/38/2
f  84/103/5 31/48/5 58/104/5
f  58/104/5 31/48/5 56/101/5
f  83/123/3 54/73/3 39/59/3
f  59/78/3 54/73/3 85/105/3
f  85/7/1 84/12/1 59/6/1
f  85/49/4 60/38/4 104/50/4
f  61/79/3 85/105/3 105/126/3
f  61/55/6 94/50/6 80/49/6
f  106/82/3 86/106/3 62/63/3
f  41/61/3 86/106/3 107/127/3
f  29/4/6 87/25/6 91/2/6
f  41/61/3 108/128/3 87/129/3
f  109/130/3 42/62/3 88/108/3
f  87/129/3 88/108/3 63/80/3
f  89/42/6 42/41/6 23/58/6
f  89/12/4 52/11/4 64/19/4
f  73/90/5 29/46/5 91/110/5
f  62/107/1 65/82/1 106/83/1
f  110/131/5 66/84/5 90/109/5
f  88/37/1 66/38/1 109/39/1
f  73/90/5 91/110/5 67/85/5
f  87/111/2 30/42/2 91/58/2
f  67/58/4 88/43/4 108/41/4
f  92/112/5 13/21/5 111/132/5
f  112/133/5 68/86/5 92/112/5
f  55/1/1 68/2/1 101/3/1
f  93/113/5 31/48/5 104/134/5
f  93/38/1 97/37/1 69/50/1
f  46/66/5 94/114/5 79/117/5
f  97/49/4 94/38/4 69/50/4
f  53/97/3 97/118/3 70/98/3
f  38/75/5 74/91/5 8/14/5
f  74/58/1 52/93/1 71/42/1
f  47/67/5 89/115/5 72/89/5
f  52/11/4 89/12/4 71/5/4
f  82/122/4 65/82/4 49/63/4
f  34/42/2 86/111/2 96/93/2
f  95/42/6 86/41/6 73/58/6
f  74/5/2 42/6/2 78/7/2
f  75/12/1 113/7/1 90/5/1
f  75/92/5 95/116/5 114/135/5
f  96/136/3 42/62/3 76/137/3
f  95/58/4 76/43/4 107/41/4
f  42/62/3 82/100/3 78/95/3
f  38/75/5 79/117/5 94/114/5
f  94/38/4 97/49/4 80/55/4
f  105/126/3 54/73/3 97/118/3
f  98/42/6 54/41/6 102/58/6
f  98/2/4 115/31/4 81/25/4
f  115/138/3 99/119/3 81/99/3
f  37/57/3 99/119/3 116/139/3
f  31/4/6 100/25/6 117/2/6
f  37/57/3 118/140/3 100/141/3
f  119/142/3 82/100/3 101/120/3
f  13/63/6 82/121/6 49/82/6
f  83/123/3 82/100/3 54/73/3
f  102/124/5 56/101/5 31/48/5
f  49/69/5 102/124/5 120/143/5
f  38/75/5 94/114/5 103/125/5
f  93/113/5 60/102/5 103/125/5
f  104/134/5 31/48/5 84/103/5
f  85/105/3 54/73/3 105/126/3
f  84/12/1 85/7/1 104/5/1
f  60/102/5 93/113/5 104/134/5
f  93/50/2 61/39/2 105/37/2
f  94/50/6 61/55/6 103/38/6
f  86/106/3 106/82/3 82/100/3
f  86/41/6 95/42/6 107/43/6
f  41/61/3 107/127/3 121/144/3
f  41/61/3 122/145/3 108/128/3
f  88/108/3 87/129/3 108/128/3
f  113/146/3 42/62/3 109/130/3
f  65/82/4 82/122/4 106/121/4
f  66/84/5 110/131/5 123/147/5
f  113/43/4 110/58/4 90/42/4
f  66/42/2 122/111/2 109/93/2
f  73/90/5 67/85/5 123/147/5
f  122/55/6 67/50/6 108/49/6
f  111/132/5 13/21/5 124/148/5
f  111/38/1 119/37/1 92/50/1
f  68/86/5 112/133/5 117/149/5
f  119/31/4 112/2/4 92/4/4
f  68/4/2 100/3/2 101/1/2
f  97/37/1 93/38/1 105/39/1
f  86/106/3 82/100/3 96/136/3
f  73/90/5 114/135/5 95/116/5
f  113/7/1 75/12/1 125/6/1
f  121/111/2 75/42/2 114/58/2
f  96/136/3 82/100/3 42/62/3
f  76/137/3 42/62/3 125/150/3
f  76/137/3 121/144/3 107/127/3
f  54/3/2 120/4/2 102/2/2
f  102/124/5 126/151/5 98/152/5
f  115/31/4 98/2/4 127/4/4
f  99/119/3 115/138/3 128/153/3
f  99/19/6 129/5/6 116/11/6
f  37/57/3 116/139/3 130/154/3
f  100/3/2 68/4/2 117/2/2
f  102/124/5 31/48/5 117/149/5
f  37/57/3 130/154/3 118/140/3
f  119/142/3 100/141/3 118/140/3
f  131/155/3 82/100/3 119/142/3
f  100/141/3 119/142/3 101/120/3
f  49/69/5 120/143/5 13/21/5
f  54/73/3 82/100/3 132/156/3
f  61/39/2 93/50/2 103/38/2
f  41/61/3 121/144/3 133/157/3
f  41/61/3 133/157/3 122/145/3
f  125/150/3 42/62/3 113/146/3
f  122/145/3 113/146/3 109/130/3
f  73/90/5 123/147/5 110/131/5
f  122/111/2 66/42/2 123/58/2
f  110/58/4 113/43/4 133/41/4
f  67/50/6 122/55/6 123/38/6
f  124/148/5 13/21/5 134/158/5
f  129/159/5 111/132/5 124/148/5
f  119/37/1 111/38/1 131/39/1
f  102/124/5 117/149/5 112/133/5
f  112/2/4 119/31/4 118/25/4
f  73/90/5 110/131/5 114/135/5
f  75/42/2 121/111/2 125/93/2
f  110/5/6 121/19/6 114/12/6
f  121/144/3 76/137/3 125/150/3
f  120/4/2 54/3/2 132/1/2
f  102/124/5 129/159/5 126/151/5
f  134/158/5 98/152/5 126/151/5
f  98/152/5 134/158/5 127/160/5
f  120/58/1 115/93/1 127/42/1
f  115/138/3 82/100/3 128/153/3
f  134/4/2 99/3/2 128/1/2
f  129/5/6 99/19/6 126/12/6
f  129/2/4 135/31/4 116/25/4
f  135/161/3 130/154/3 116/139/3
f  130/55/6 112/50/6 118/49/6
f  135/161/3 82/100/3 131/155/3
f  127/160/5 13/21/5 120/143/5
f  132/156/3 82/100/3 115/138/3
f  121/19/6 110/5/6 133/11/6
f  113/146/3 122/145/3 133/157/3
f  134/158/5 13/21/5 127/160/5
f  134/12/1 135/7/1 124/5/1
f  111/132/5 129/159/5 136/162/5
f  135/31/4 129/2/4 124/4/4
f  111/4/2 130/3/2 131/1/2
f  102/124/5 112/133/5 136/162/5
f  115/93/1 120/58/1 132/111/1
f  102/124/5 136/162/5 129/159/5
f  99/3/2 134/4/2 126/2/2
f  128/153/3 82/100/3 135/161/3
f  135/7/1 134/12/1 128/6/1
f  130/154/3 135/161/3 131/155/3
f  112/50/6 130/55/6 136/38/6
f  130/3/2 111/4/2 136/2/2

# Mesh 'mesh1_mesh1-geometry' with 332 faces
g mesh1_mesh1-geometry
usemtl material_1_24
f  3//6 2//6 1//6
f  4//6 1//6 2//6
f  3//4 5//4 2//4
f  1//5 6//5 3//5
f  4//2 7//2 1//2
f  2//3 8//3 4//3
f  9//4 2//4 5//4
f  3//5 10//5 5//5
f  3//5 6//5 10//5
f  6//5 1//5 11//5
f  12//2 1//2 7//2
f  4//3 13//3 7//3
f  8//3 13//3 4//3
f  14//3 8//3 2//3
f  9//3 15//3 2//3
f  9//1 5//1 7//1
f  16//5 5//5 10//5
f  10//5 6//5 17//5
f  11//5 1//5 18//5
f  19//5 6//5 11//5
f  1//5 12//5 18//5
f  12//1 7//1 5//1
f  7//3 13//3 20//3
f  21//3 13//3 8//3
f  22//3 8//3 14//3
f  14//3 2//3 15//3
f  15//3 9//3 23//3
f  9//3 7//3 23//3
f  5//5 16//5 12//5
f  16//2 10//2 15//2
f  17//5 6//5 24//5
f  17//6 22//6 10//6
f  25//5 11//5 18//5
f  19//1 26//1 6//1
f  27//5 19//5 11//5
f  12//5 28//5 18//5
f  20//3 13//3 29//3
f  30//3 7//3 20//3
f  31//3 13//3 21//3
f  21//2 8//2 25//2
f  32//3 8//3 22//3
f  14//6 10//6 22//6
f  14//2 15//2 10//2
f  33//3 15//3 23//3
f  7//3 34//3 23//3
f  16//5 35//5 12//5
f  16//1 15//1 35//1
f  24//5 6//5 36//5
f  17//5 24//5 35//5
f  17//4 35//4 22//4
f  11//2 25//2 8//2
f  37//5 25//5 18//5
f  38//1 6//1 26//1
f  19//2 39//2 26//2
f  19//5 27//5 39//5
f  40//5 27//5 11//5
f  28//5 41//5 18//5
f  42//5 28//5 12//5
f  13//3 43//3 29//3
f  20//2 29//2 28//2
f  44//3 7//3 30//3
f  20//6 28//6 30//6
f  45//3 13//3 31//3
f  46//3 31//3 21//3
f  21//6 25//6 46//6
f  47//3 8//3 32//3
f  32//3 22//3 48//3
f  33//1 35//1 15//1
f  48//3 33//3 23//3
f  23//3 34//3 49//3
f  34//3 7//3 50//3
f  35//5 51//5 12//5
f  36//5 6//5 52//5
f  36//6 47//6 24//6
f  51//5 35//5 24//5
f  33//4 22//4 35//4
f  11//1 8//1 53//1
f  54//5 25//5 37//5
f  55//5 37//5 18//5
f  38//4 56//4 6//4
f  26//3 57//3 38//3
f  58//2 26//2 39//2
f  59//5 39//5 27//5
f  40//1 60//1 27//1
f  61//5 40//5 11//5
f  18//5 41//5 62//5
f  41//2 28//2 29//2
f  28//5 42//5 63//5
f  64//5 42//5 12//5
f  65//3 29//3 43//3
f  43//4 13//4 62//4
f  66//3 7//3 44//3
f  44//3 30//3 67//3
f  63//6 30//6 28//6
f  68//3 13//3 45//3
f  45//2 31//2 55//2
f  69//3 31//3 46//3
f  70//6 46//6 25//6
f  71//3 8//3 47//3
f  32//6 24//6 47//6
f  33//3 48//3 22//3
f  32//2 48//2 24//2
f  72//3 48//3 23//3
f  34//3 73//3 49//3
f  74//3 23//3 49//3
f  50//3 7//3 75//3
f  50//6 76//6 34//6
f  51//5 77//5 12//5
f  52//5 6//5 78//5
f  36//5 52//5 77//5
f  36//4 77//4 47//4
f  51//2 24//2 48//2
f  79//1 53//1 8//1
f  53//5 80//5 11//5
f  25//5 54//5 70//5
f  81//5 54//5 37//5
f  37//2 55//2 31//2
f  82//5 55//5 18//5
f  83//4 6//4 56//4
f  56//3 38//3 49//3
f  57//3 60//3 38//3
f  57//3 26//3 84//3
f  58//3 84//3 26//3
f  58//6 39//6 56//6
f  59//5 54//5 39//5
f  59//4 27//4 84//4
f  57//1 27//1 60//1
f  40//2 85//2 60//2
f  40//5 61//5 85//5
f  80//5 61//5 11//5
f  86//5 62//5 41//5
f  18//4 62//4 13//4
f  41//1 29//1 87//1
f  63//5 42//5 88//5
f  64//1 89//1 42//1
f  77//5 64//5 12//5
f  29//3 65//3 73//3
f  43//6 62//6 65//6
f  90//3 7//3 66//3
f  44//6 88//6 66//6
f  91//3 67//3 30//3
f  44//2 67//2 88//2
f  63//4 87//4 30//4
f  92//3 13//3 68//3
f  45//6 55//6 68//6
f  93//3 31//3 69//3
f  69//3 46//3 94//3
f  70//4 53//4 46//4
f  74//3 8//3 71//3
f  71//3 47//3 89//3
f  72//1 77//1 48//1
f  89//3 72//3 23//3
f  49//3 73//3 65//3
f  73//4 34//4 86//4
f  23//4 74//4 42//4
f  38//3 74//3 49//3
f  75//3 7//3 90//3
f  50//3 75//3 95//3
f  96//6 34//6 76//6
f  50//2 95//2 76//2
f  51//1 48//1 77//1
f  6//5 82//5 78//5
f  78//6 74//6 52//6
f  64//5 77//5 52//5
f  72//4 47//4 77//4
f  79//4 46//4 53//4
f  79//3 8//3 38//3
f  80//5 53//5 97//5
f  70//5 54//5 97//5
f  81//1 98//1 54//1
f  99//5 81//5 37//5
f  37//1 31//1 100//1
f  55//5 82//5 101//5
f  18//1 13//1 82//1
f  83//5 82//5 6//5
f  83//6 56//6 39//6
f  102//3 56//3 49//3
f  60//3 103//3 38//3
f  57//4 84//4 27//4
f  58//3 31//3 84//3
f  56//3 31//3 58//3
f  39//5 54//5 83//5
f  85//5 54//5 59//5
f  59//6 84//6 85//6
f  104//2 60//2 85//2
f  105//5 85//5 61//5
f  80//1 94//1 61//1
f  62//5 86//5 106//5
f  107//5 86//5 41//5
f  91//1 87//1 29//1
f  87//5 108//5 41//5
f  88//5 42//5 109//5
f  63//5 88//5 87//5
f  23//1 42//1 89//1
f  64//2 52//2 89//2
f  91//3 29//3 73//3
f  106//6 65//6 62//6
f  90//3 66//3 110//3
f  109//6 66//6 88//6
f  67//3 91//3 73//3
f  91//4 30//4 87//4
f  108//2 88//2 67//2
f  111//3 13//3 92//3
f  92//3 68//3 112//3
f  101//6 68//6 55//6
f  104//3 31//3 93//3
f  69//6 97//6 93//6
f  79//3 94//3 46//3
f  69//2 94//2 97//2
f  70//5 97//5 53//5
f  8//3 74//3 38//3
f  71//6 52//6 74//6
f  72//3 89//3 47//3
f  71//2 89//2 52//2
f  49//2 65//2 82//2
f  96//4 86//4 34//4
f  73//1 86//1 95//1
f  78//4 42//4 74//4
f  90//6 113//6 75//6
f  114//3 95//3 75//3
f  76//5 42//5 96//5
f  107//2 76//2 95//2
f  78//5 82//5 42//5
f  94//3 79//3 38//3
f  80//2 97//2 94//2
f  97//5 54//5 105//5
f  102//1 54//1 98//1
f  81//2 115//2 98//2
f  81//5 99//5 115//5
f  116//5 99//5 37//5
f  117//1 100//1 31//1
f  100//5 118//5 37//5
f  101//5 82//5 119//5
f  49//1 82//1 13//1
f  54//5 82//5 83//5
f  31//3 56//3 102//3
f  120//3 102//3 49//3
f  103//3 94//3 38//3
f  103//3 60//3 93//3
f  84//3 31//3 104//3
f  105//5 54//5 85//5
f  104//6 85//6 84//6
f  104//3 93//3 60//3
f  105//4 61//4 93//4
f  103//1 61//1 94//1
f  82//5 106//5 86//5
f  107//1 95//1 86//1
f  121//5 107//5 41//5
f  108//5 122//5 41//5
f  108//5 87//5 88//5
f  109//5 42//5 113//5
f  106//2 82//2 65//2
f  123//3 110//3 66//3
f  90//2 110//2 113//2
f  109//4 122//4 66//4
f  123//3 67//3 73//3
f  108//1 67//1 122//1
f  124//3 13//3 111//3
f  92//6 119//6 111//6
f  117//3 112//3 68//3
f  92//2 112//2 119//2
f  101//4 100//4 68//4
f  105//6 93//6 97//6
f  96//5 82//5 86//5
f  95//3 114//3 73//3
f  125//6 75//6 113//6
f  114//4 75//4 121//4
f  42//5 82//5 96//5
f  125//5 42//5 76//5
f  107//5 121//5 76//5
f  102//4 120//4 54//4
f  98//3 126//3 102//3
f  127//2 98//2 115//2
f  128//5 115//5 99//5
f  116//1 129//1 99//1
f  130//5 116//5 37//5
f  117//4 68//4 100//4
f  117//3 31//3 102//3
f  118//5 130//5 37//5
f  118//5 100//5 119//5
f  119//5 82//5 131//5
f  101//5 119//5 100//5
f  13//3 120//3 49//3
f  132//5 82//5 54//5
f  103//4 93//4 61//4
f  133//5 121//5 41//5
f  122//5 133//5 41//5
f  113//5 42//5 125//5
f  109//5 113//5 122//5
f  110//3 123//3 73//3
f  123//4 66//4 122//4
f  133//2 113//2 110//2
f  123//1 122//1 67//1
f  134//3 13//3 124//3
f  124//3 111//3 129//3
f  131//6 111//6 119//6
f  112//3 117//3 102//3
f  118//2 119//2 112//2
f  114//3 110//3 73//3
f  125//4 121//4 75//4
f  114//1 121//1 110//1
f  125//5 76//5 121//5
f  132//4 54//4 120//4
f  126//3 129//3 102//3
f  126//3 98//3 134//3
f  127//3 134//3 98//3
f  127//6 115//6 120//6
f  128//5 82//5 115//5
f  128//4 99//4 134//4
f  126//1 99//1 129//1
f  116//2 135//2 129//2
f  116//5 130//5 135//5
f  118//1 112//1 130//1
f  131//5 82//5 135//5
f  120//3 13//3 127//3
f  115//5 82//5 132//5
f  133//1 110//1 121//1
f  133//5 122//5 113//5
f  127//3 13//3 134//3
f  124//6 135//6 134//6
f  136//3 129//3 111//3
f  124//2 129//2 135//2
f  131//4 130//4 111//4
f  136//3 112//3 102//3
f  132//6 120//6 115//6
f  129//3 136//3 102//3
f  126//4 134//4 99//4
f  135//5 82//5 128//5
f  128//6 134//6 135//6
f  131//5 135//5 130//5
f  136//1 130//1 112//1
f  136//4 111//4 130//4

# Mesh 'mesh2_mesh2-geometry' with 1 faces
g mesh2_mesh2-geometry
usemtl material_2_0
l  94 137

# Mesh 'mesh3_mesh3-geometry' with 1 faces
g mesh3_mesh3-geometry
usemtl material_2_0
l  93 138

# Mesh 'mesh4_mesh4-geometry' with 1 faces
g mesh4_mesh4-geometry
usemtl material_2_0
l  69 139

