# File produced by Open Asset Import Library (http://www.assimp.sf.net)
# (assimp v3.2.202087883)

mtllib model_normalized.mtl

# 64 vertex positions
v 0.279002 -0.250726 0.167521
v 0.321018 -0.250726 0.099538
v 0.321018 -0.250726 0.167521
v 0.279002 -0.250726 0.099538
v 0.321018 -0.025365 0.165579
v 0.321018 -0.025365 0.167521
v 0.279002 -0.025365 0.099538
v 0.321018 0.284029 0.165579
v 0.321018 -0.025365 0.166449
v 0.279002 -0.025365 0.167521
v 0.321018 -0.025365 0.099538
v 0.279739 -0.025365 0.165579
v 0.279002 0.284029 0.167521
v 0.321018 0.284029 0.166449
v 0.279739 -0.025365 0.099538
v 0.321018 0.028110 0.099538
v 0.279739 0.284029 0.165579
v -0.353092 -0.025365 0.166449
v 0.321018 0.284029 0.167521
v 0.279002 0.284029 0.099538
v 0.267543 -0.025365 -0.199955
v 0.321018 0.284029 0.099538
v 0.321018 -0.025365 -0.199955
v -0.406568 -0.025365 0.112973
v -0.353092 0.284029 0.166449
v 0.279739 0.284029 0.099538
v -0.353092 0.028110 0.111986
v 0.321018 0.028110 -0.199955
v -0.406568 0.028110 0.112973
v -0.353092 -0.025365 0.112973
v -0.406568 -0.025365 0.166449
v 0.267543 -0.250726 -0.199955
v -0.353092 0.284029 0.111986
v 0.267543 0.028110 -0.199955
v 0.321018 -0.250726 -0.199955
v -0.353092 0.284029 0.112973
v -0.406568 0.028110 -0.199955
v -0.406568 -0.025365 -0.253431
v -0.353092 -0.250726 0.112973
v -0.406568 0.284029 0.166449
v -0.406568 -0.250726 0.166449
v 0.267543 -0.025365 -0.253431
v -0.406568 0.284029 0.112973
v -0.353092 0.028110 -0.253431
v 0.321018 -0.250726 -0.253431
v 0.267543 0.028110 -0.253431
v -0.406568 0.028110 -0.253431
v -0.353092 -0.250726 0.166449
v 0.279002 -0.025365 0.166449
v 0.267543 -0.250726 -0.253431
v -0.353092 0.028110 -0.199955
v 0.321018 0.028110 -0.253431
v -0.406568 -0.250726 0.112973
v 0.279002 -0.025365 0.100314
v 0.279002 0.284029 0.166449
v 0.279002 0.284029 0.100314
v -0.410388 -0.250726 -0.198365
v -0.353092 -0.250726 -0.255660
v -0.353092 -0.250726 -0.198365
v -0.410388 -0.250726 -0.255660
v -0.353092 -0.025365 -0.198365
v -0.410388 -0.025365 -0.255660
v -0.353092 -0.025365 -0.255660
v -0.410388 -0.025365 -0.198365

# 137 UV coordinates
vt 0.888524 0.566529 0
vt 1.00311 0.38113 0
vt 1.00311 0.566529 0
vt 0.888524 0.38113 0
vt -0.38113 0 0
vt -0.561232 0.614583 0
vt -0.566529 0 0
vt 1.00311 0.614583 0
vt 0.888524 0 0
vt 1.00311 0 0
vt 0.566529 0 0
vt 0.38113 0.614583 0
vt 0.38113 0 0
vt -0.888524 0.614583 0
vt -1.00311 0 0
vt -0.888524 0 0
vt -0.561232 1.45833 0
vt -0.563604 0.614583 0
vt 0.888524 0.614583 0
vt -0.566529 0.614583 0
vt 0.566529 0.614583 0
vt -1.00311 0.614583 0
vt -0.38113 0.614583 0
vt 1.00311 1.45833 0
vt 0.890534 0.614583 0
vt -0.890534 0.561232 0
vt -1.00311 0.563604 0
vt -1.00311 0.561232 0
vt -0.888524 1.45833 0
vt 0.563604 1.45833 0
vt 0.563604 0.614583 0
vt -0.566529 1.45833 0
vt -0.890534 0.614583 0
vt -0.38113 0.760417 0
vt 0.890534 1.45833 0
vt 0.835264 0.563604 0
vt -1.00311 1.45833 0
vt 0.566529 1.45833 0
vt -0.835264 0.614583 0
vt -0.38113 1.45833 0
vt 0.888524 1.45833 0
vt -1.00311 0.38113 0
vt -0.857274 -0.435618 0
vt -0.890534 0.38113 0
vt 1.00311 0.760417 0
vt 0.435618 0.614583 0
vt 0.988643 0.614583 0
vt -0.9959 0.760417 0
vt -0.9959 0.614583 0
vt 0.561232 1.45833 0
vt 0.561232 0.614583 0
vt -0.835264 1.45833 0
vt -1.00311 -0.435618 0
vt 0.842785 0.760417 0
vt -0.9959 1.45833 0
vt 0.435618 0.760417 0
vt 0.988643 0.760417 0
vt 0.38113 1.45833 0
vt 0.835264 0.417771 0
vt -0.981097 0.614583 0
vt -0.417771 0.614583 0
vt -0.563604 1.45833 0
vt 0.857274 0 0
vt 0.857274 0.614583 0
vt 0.842785 1.45833 0
vt 0.835264 0.415078 0
vt 0.435618 0 0
vt -0.981097 0.760417 0
vt -0.435618 0.760417 0
vt 0.417771 0.614583 0
vt 0.417771 0.760417 0
vt 0.981097 -0.581451 0
vt -0.417771 -0 0
vt -0.981097 1.45833 0
vt -0.981097 -0 0
vt 0.981097 0.417771 0
vt 0.981097 0.563604 0
vt -0.417771 1.45833 0
vt -0.581451 0.614583 0
vt -0.435618 0 0
vt -0.435618 0.614583 0
vt 0.857274 0.760417 0
vt 0.988643 1.45833 0
vt 0.981097 -0.435618 0
vt 0.835264 -0.581451 0
vt 0.581451 0 0
vt -0.857274 -0.581451 0
vt -0.581451 0.760417 0
vt 0.417771 1.45833 0
vt 0.563604 -0 0
vt -0.563604 -0 0
vt 0.835264 -0 0
vt 0.981097 0.614583 0
vt 0.835264 0.614583 0
vt -0.835264 -0 0
vt -0.888524 0.563604 0
vt 0.857274 -0.435618 0
vt 1.00311 -0.581451 0
vt 1.00311 -0.435618 0
vt -0.581451 0 0
vt 0.835264 -0.435618 0
vt 0.581451 0.760417 0
vt -1.00311 -0.581451 0
vt 0.417771 -0 0
vt 0.981097 0.760417 0
vt -0.857274 0.614583 0
vt -0.981097 0.563604 0
vt -0.835264 0.417771 0
vt -0.835264 0.563604 0
vt 0.981097 -0 0
vt -0.888524 0.383246 0
vt 0.857274 -0.581451 0
vt -0.857274 0 0
vt -1.00311 0.760417 0
vt -0.857274 0.760417 0
vt 0.835264 0.760417 0
vt -0.981097 0.417771 0
vt -0.991514 -0.431281 0
vt -0.835264 -0.587531 0
vt -0.835264 -0.431281 0
vt -0.991514 -0.587531 0
vt 0.587531 -0 0
vt 0.431281 0.614583 0
vt 0.431281 -0 0
vt -0.991514 -0 0
vt -0.431281 -0 0
vt -0.587531 0.614583 0
vt -0.587531 -0 0
vt 0.991514 0.614583 0
vt 0.991514 -0 0
vt 0.587531 0.614583 0
vt -0.991514 0.614583 0
vt -0.431281 0.614583 0
vt 0.991514 -0.587531 0
vt 0.835264 -0.431281 0
vt 0.835264 -0.587531 0
vt 0.991514 -0.431281 0

# 8 vertex normals
vn 0 -0.0254 0
vn 0.0254 -0 -0
vn 0 0 0.0254
vn -0.0254 0 0
vn 0 0 -0.0254
vn 0 0.0254 0
vn -0.00046896 0 -0.0253957
vn 0.00046896 0 0.0253957

# Mesh 'mesh1_mesh1-geometry' with 145 faces
g mesh1_mesh1-geometry
usemtl material_0_1_8
f  1/1/1 2/2/1 3/3/1
f  2/2/1 1/1/1 4/4/1
f  2/5/2 5/6/2 3/7/2
f  6/8/3 1/9/3 3/10/3
f  1/11/4 7/12/4 4/13/4
f  7/14/5 2/15/5 4/16/5
f  2/5/2 8/17/2 5/6/2
f  3/7/2 5/6/2 9/18/2
f  1/9/3 6/8/3 10/19/3
f  3/7/2 9/18/2 6/20/2
f  7/12/4 1/11/4 10/21/4
f  2/15/5 7/14/5 11/22/5
f  11/23/2 8/17/2 2/5/2
f  8/24/3 12/25/3 5/8/3
f  12/26/6 9/27/6 5/28/6
f  5/28/1 9/27/1 12/26/1
f  13/29/5 6/22/5 10/14/5
f  10/14/3 6/22/3 13/29/3
f  6/21/4 14/30/4 9/31/4
f  7/23/2 13/32/2 10/20/2
f  11/22/5 7/14/5 15/33/5
f  16/34/2 8/17/2 11/23/2
f  12/25/3 8/24/3 17/35/3
f  9/27/6 12/26/6 18/36/6
f  18/36/1 12/26/1 9/27/1
f  6/22/5 13/29/5 19/37/5
f  19/37/3 13/29/3 6/22/3
f  14/30/4 6/21/4 19/38/4
f  14/24/3 18/39/3 9/8/3
f  9/8/5 18/39/5 14/24/5
f  13/32/2 7/23/2 20/40/2
f  15/25/3 20/41/3 7/19/3
f  7/19/5 20/41/5 15/25/5
f  11/42/6 21/43/6 15/44/6
f  15/44/1 21/43/1 11/42/1
f  16/45/3 15/25/3 11/8/3
f  11/8/5 15/25/5 16/45/5
f  8/17/2 16/34/2 22/40/2
f  23/46/2 16/34/2 11/23/2
f  24/47/7 16/48/7 11/49/7
f  11/49/8 16/48/8 24/47/8
f  22/42/6 17/26/6 8/28/6
f  17/50/4 15/12/4 12/51/4
f  18/36/6 12/26/6 21/43/6
f  21/43/1 12/26/1 18/36/1
f  18/39/3 14/24/3 25/52/3
f  25/52/5 14/24/5 18/39/5
f  20/41/3 15/25/3 26/35/3
f  26/35/5 15/25/5 20/41/5
f  21/43/6 11/42/6 23/53/6
f  23/53/1 11/42/1 21/43/1
f  15/44/6 21/43/6 12/26/6
f  12/26/1 21/43/1 15/44/1
f  15/25/3 16/45/3 26/35/3
f  26/35/5 16/45/5 15/25/5
f  26/35/3 16/45/3 22/24/3
f  22/24/5 16/45/5 26/35/5
f  27/54/7 22/55/7 16/48/7
f  16/48/8 22/55/8 27/54/8
f  16/34/2 23/46/2 28/56/2
f  16/48/7 24/47/7 29/57/7
f  29/57/8 24/47/8 16/48/8
f  17/26/6 22/42/6 26/44/6
f  15/12/4 17/50/4 26/58/4
f  18/36/6 21/43/6 30/59/6
f  30/59/1 21/43/1 18/36/1
f  25/52/3 31/60/3 18/39/3
f  30/61/2 25/62/2 18/18/2
f  32/63/3 23/8/3 21/64/3
f  28/45/3 21/64/3 23/8/3
f  22/55/7 27/54/7 33/65/7
f  33/65/8 27/54/8 22/55/8
f  16/48/7 29/57/7 27/54/7
f  27/54/8 29/57/8 16/48/8
f  16/42/6 34/43/6 27/66/6
f  35/67/2 28/56/2 23/46/2
f  34/43/6 16/42/6 28/53/6
f  24/60/3 36/52/3 29/68/3
f  37/69/4 24/70/4 29/71/4
f  31/31/4 29/71/4 24/70/4
f  21/43/6 38/72/6 30/59/6
f  30/59/1 38/72/1 21/43/1
f  18/18/2 39/73/2 30/61/2
f  31/60/3 25/52/3 40/74/3
f  41/75/3 18/39/3 31/60/3
f  18/36/6 24/76/6 31/77/6
f  31/77/1 24/76/1 18/36/1
f  25/62/2 30/61/2 36/78/2
f  23/8/3 32/63/3 35/10/3
f  42/79/4 32/80/4 21/81/4
f  21/64/3 28/45/3 34/82/3
f  27/54/7 43/83/7 33/65/7
f  33/65/8 43/83/8 27/54/8
f  43/83/7 27/54/7 29/57/7
f  29/57/8 27/54/8 43/83/8
f  27/66/6 37/84/6 29/76/6
f  27/66/6 34/43/6 44/85/6
f  45/86/2 28/56/2 35/67/2
f  28/53/6 46/87/6 34/43/6
f  36/52/3 24/60/3 30/39/3
f  29/68/3 36/52/3 43/74/3
f  47/88/4 24/70/4 37/69/4
f  29/71/4 31/31/4 43/89/4
f  24/70/4 41/90/4 31/31/4
f  38/72/6 21/43/6 42/87/6
f  42/87/1 21/43/1 38/72/1
f  30/59/6 38/72/6 24/76/6
f  24/76/1 38/72/1 30/59/1
f  39/73/2 18/18/2 48/91/2
f  39/92/5 24/93/5 30/94/5
f  25/36/6 43/76/6 40/77/6
f  43/89/4 31/31/4 40/30/4
f  18/39/3 41/75/3 48/95/3
f  49/96/6 24/76/6 18/36/6
f  18/36/1 24/76/1 49/96/1
f  25/36/6 33/66/6 36/59/6
f  43/76/6 25/36/6 36/59/6
f  32/97/1 45/98/1 35/99/1
f  32/80/4 42/79/4 50/100/4
f  21/81/4 46/88/4 42/79/4
f  46/88/4 21/81/4 34/69/4
f  43/76/6 36/59/6 33/66/6
f  27/66/6 51/101/6 37/84/6
f  44/85/6 34/43/6 46/87/6
f  27/66/6 44/85/6 51/101/6
f  28/56/2 45/86/2 52/102/2
f  46/87/6 28/53/6 52/103/6
f  24/70/4 47/88/4 38/79/4
f  51/101/6 47/72/6 37/84/6
f  41/90/4 24/70/4 53/104/4
f  47/105/5 42/106/5 38/93/5
f  41/107/1 39/108/1 48/109/1
f  24/93/5 39/92/5 53/110/5
f  24/76/6 49/96/6 54/111/6
f  54/111/1 49/96/1 24/76/1
f  55/96/6 33/66/6 25/36/6
f  45/98/1 32/97/1 50/112/1
f  42/106/5 45/15/5 50/113/5
f  52/114/5 42/106/5 46/115/5
f  42/106/5 47/105/5 46/115/5
f  46/115/5 47/105/5 44/116/5
f  47/72/6 51/101/6 44/85/6
f  45/15/5 42/106/5 52/114/5
f  39/108/1 41/107/1 53/117/1
f  33/66/6 55/96/6 56/111/6

# Mesh 'mesh1_mesh1-geometry' with 87 faces
g mesh1_mesh1-geometry
usemtl material_1_24
f  3//6 2//6 1//6
f  4//6 1//6 2//6
f  3//4 5//4 2//4
f  3//5 1//5 6//5
f  4//2 7//2 1//2
f  4//3 2//3 7//3
f  5//4 8//4 2//4
f  9//4 5//4 3//4
f  10//5 6//5 1//5
f  6//4 9//4 3//4
f  10//2 1//2 7//2
f  11//3 7//3 2//3
f  2//4 8//4 11//4
f  5//5 12//5 8//5
f  9//2 14//2 6//2
f  10//4 13//4 7//4
f  15//3 7//3 11//3
f  11//4 8//4 16//4
f  17//5 8//5 12//5
f  19//2 6//2 14//2
f  20//4 7//4 13//4
f  22//4 16//4 8//4
f  11//4 16//4 23//4
f  8//1 17//1 22//1
f  12//2 15//2 17//2
f  28//4 23//4 16//4
f  26//1 22//1 17//1
f  26//2 17//2 15//2
f  18//5 31//5 25//5
f  18//4 25//4 30//4
f  21//5 23//5 32//5
f  23//5 21//5 28//5
f  27//1 34//1 16//1
f  23//4 28//4 35//4
f  28//1 16//1 34//1
f  29//5 36//5 24//5
f  29//2 24//2 37//2
f  24//2 29//2 31//2
f  30//4 39//4 18//4
f  40//5 25//5 31//5
f  31//5 18//5 41//5
f  36//4 30//4 25//4
f  35//5 32//5 23//5
f  21//2 32//2 42//2
f  34//5 28//5 21//5
f  29//1 37//1 27//1
f  44//1 34//1 27//1
f  35//4 28//4 45//4
f  34//1 46//1 28//1
f  30//5 24//5 36//5
f  43//5 36//5 29//5
f  37//2 24//2 47//2
f  43//2 31//2 29//2
f  31//2 41//2 24//2
f  48//4 18//4 39//4
f  30//3 24//3 39//3
f  40//1 43//1 25//1
f  40//2 31//2 43//2
f  48//5 41//5 18//5
f  36//1 33//1 25//1
f  36//1 25//1 43//1
f  35//6 45//6 32//6
f  50//2 42//2 32//2
f  42//2 46//2 21//2
f  34//2 21//2 46//2
f  33//1 36//1 43//1
f  37//1 51//1 27//1
f  46//1 34//1 44//1
f  51//1 44//1 27//1
f  52//4 45//4 28//4
f  52//1 28//1 46//1
f  38//2 47//2 24//2
f  37//1 47//1 51//1
f  53//2 24//2 41//2
f  38//3 42//3 47//3
f  48//6 39//6 41//6
f  53//3 39//3 24//3
f  25//1 33//1 55//1
f  50//6 32//6 45//6
f  50//3 45//3 42//3
f  46//3 42//3 52//3
f  46//3 47//3 42//3
f  44//3 47//3 46//3
f  44//1 51//1 47//1
f  52//3 42//3 45//3
f  53//6 41//6 39//6
f  56//1 55//1 33//1

# Mesh 'mesh2_mesh2-geometry' with 12 faces
g mesh2_mesh2-geometry
usemtl material_0_1_8
f  57/118/1 58/119/1 59/120/1
f  58/119/1 57/118/1 60/121/1
f  58/122/2 61/123/2 59/124/2
f  61/39/3 57/125/3 59/95/3
f  57/126/4 62/127/4 60/128/4
f  62/129/5 58/92/5 60/130/5
f  61/123/2 58/122/2 63/131/2
f  57/125/3 61/39/3 64/132/3
f  62/127/4 57/126/4 64/133/4
f  58/92/5 62/129/5 63/94/5
f  62/134/6 61/135/6 63/136/6
f  61/135/6 62/134/6 64/137/6

# Mesh 'mesh2_mesh2-geometry' with 12 faces
g mesh2_mesh2-geometry
usemtl material_1_24
f  59//6 58//6 57//6
f  60//6 57//6 58//6
f  59//4 61//4 58//4
f  59//5 57//5 61//5
f  60//2 62//2 57//2
f  60//3 58//3 62//3
f  63//4 58//4 61//4
f  64//5 61//5 57//5
f  64//2 57//2 62//2
f  63//3 62//3 58//3
f  63//1 61//1 62//1
f  64//1 62//1 61//1

