# File produced by Open Asset Import Library (http://www.assimp.sf.net)
# (assimp v3.2.202087883)

mtllib model_normalized.mtl

# 90 vertex positions
v 0.348926 -0.134339 -0.109610
v -0.411327 -0.134339 0.062060
v -0.411327 -0.134339 -0.109610
v 0.348926 -0.134339 0.062060
v -0.411327 -0.122076 -0.109610
v 0.348926 -0.122076 0.062060
v -0.411327 -0.122076 0.062060
v 0.348926 -0.122076 -0.109610
v 0.348926 -0.314183 0.072279
v -0.411327 -0.326446 0.072279
v 0.348926 -0.326446 0.072279
v -0.411327 -0.314183 0.072279
v 0.348926 -0.326446 -0.121872
v -0.411327 -0.326446 -0.121872
v 0.348926 -0.314183 -0.121872
v -0.411327 -0.314183 -0.121872
v 0.348926 0.249875 -0.121872
v 0.348926 0.262137 0.072279
v 0.348926 0.249875 0.072279
v 0.348926 0.262137 -0.121872
v -0.411327 0.249875 0.072279
v -0.411327 0.262137 -0.121872
v -0.411327 0.262137 0.072279
v -0.411327 0.249875 -0.121872
v -0.423589 0.262138 -0.121872
v -0.423589 -0.326446 0.072279
v -0.423589 0.262138 0.072279
v -0.423589 -0.326446 -0.121872
v -0.411327 0.262137 0.072279
v -0.411327 0.262137 -0.121872
v -0.423589 0.262137 -0.121872
v -0.423589 0.262137 0.072279
v 0.361188 -0.326446 -0.121872
v 0.361188 0.262138 0.072279
v 0.361188 -0.326446 0.072279
v 0.361188 0.262138 -0.121872
v 0.348926 0.262137 -0.121872
v 0.348926 -0.326446 -0.121872
v 0.361188 0.262137 -0.121872
v 0.348926 -0.326446 0.072279
v 0.361188 0.262137 0.072279
v 0.348926 0.262137 0.072279
v 0.348926 0.249875 0.064104
v -0.411327 -0.314183 0.064104
v 0.348926 -0.314183 0.064104
v -0.411327 0.249875 0.064104
v 0.348926 -0.314183 0.062060
v -0.411327 0.249875 0.062060
v -0.411327 -0.314183 0.062060
v 0.348926 0.249875 0.062060
v -0.411327 0.249875 0.064104
v -0.411327 0.184477 0.072279
v -0.411327 0.249875 0.072279
v -0.411327 0.184477 0.064104
v 0.348926 0.249875 0.072279
v 0.348926 0.184477 0.064104
v 0.348926 0.184477 0.072279
v 0.348926 0.249875 0.064104
v 0.348926 -0.248785 0.072279
v -0.411327 -0.248785 0.064104
v -0.411327 -0.248785 0.072279
v 0.348926 -0.248785 0.064104
v 0.348926 -0.314183 0.064104
v 0.348926 -0.314183 0.072279
v 0.348926 0.000545 0.072279
v -0.411327 0.000545 0.064104
v -0.411327 0.000545 0.072279
v 0.348926 0.000545 0.064104
v -0.411327 -0.064853 0.072279
v 0.348926 -0.064853 0.064104
v -0.411327 -0.064853 0.064104
v 0.348926 -0.064853 0.072279
v 0.348926 0.057768 -0.109610
v -0.411327 0.057768 0.062060
v -0.411327 0.057768 -0.109610
v 0.348926 0.057768 0.062060
v -0.411327 0.070030 -0.109610
v 0.348926 0.070030 0.062060
v -0.411327 0.070030 0.062060
v 0.348926 0.070030 -0.109610
v 0.348926 0.249875 -0.109610
v 0.348926 -0.314183 -0.121872
v 0.348926 0.249875 -0.121872
v 0.348926 -0.314183 -0.109610
v 0.103683 0.249875 -0.121872
v 0.103683 -0.314183 -0.109610
v 0.103683 0.249875 -0.109610
v 0.103683 -0.314183 -0.121872
v -0.411327 0.249875 0.072279
v -0.423589 0.249875 0.072279

# 0 UV coordinates

# 20 vertex normals
vn 0 -0.0254 0
vn 0 0.0254 0
vn -0.15748 0 0
vn 0.15748 0 0
vn 0 0 -0.0115957
vn -0 -0 0.0115957
vn 0 0 0.0127
vn 0 0 -0.0127
vn -0.0254 0 0
vn 0.0254 0 0
vn 0 0 -0.0254
vn -0 -0 0.0254
vn 0 0 0.00423334
vn 0 -0.0302172 0
vn 0 0.0302172 0
vn 0 0 -0.00423334
vn -0.0410817 0 0
vn 0.0410817 0 0
vn 0 0.0188451 0
vn 0 -0.0188451 0

# Mesh 'mesh1_mesh1-geometry' with 24 faces
g mesh1_mesh1-geometry
usemtl material_0_24
f  1//1 2//1 3//1
f  2//1 1//1 4//1
f  3//2 2//2 1//2
f  4//2 1//2 2//2
f  2//3 5//3 3//3
f  3//4 5//4 2//4
f  5//5 1//5 3//5
f  3//6 1//6 5//6
f  1//4 6//4 4//4
f  4//3 6//3 1//3
f  6//6 2//6 4//6
f  4//5 2//5 6//5
f  5//3 2//3 7//3
f  7//4 2//4 5//4
f  1//5 5//5 8//5
f  8//6 5//6 1//6
f  6//4 1//4 8//4
f  8//3 1//3 6//3
f  2//6 6//6 7//6
f  7//5 6//5 2//5
f  6//2 5//2 7//2
f  7//1 5//1 6//1
f  5//2 6//2 8//2
f  8//1 6//1 5//1

# Mesh 'mesh2_mesh2-geometry' with 12 faces
g mesh2_mesh2-geometry
usemtl material_0_0
l  2 4
l  3 2
l  2 7
l  4 1
l  4 6
l  1 3
l  3 5
l  7 6
l  5 7
l  1 8
l  6 8
l  8 5

# Mesh 'mesh3_mesh3-geometry' with 8 faces
g mesh3_mesh3-geometry
usemtl material_1_24
f  9//7 10//7 11//7
f  10//7 9//7 12//7
f  10//1 13//1 11//1
f  13//4 9//4 11//4
f  12//3 14//3 10//3
f  13//1 10//1 14//1
f  9//4 13//4 15//4
f  14//3 12//3 16//3

# Mesh 'mesh3_mesh3-geometry' with 16 faces
g mesh3_mesh3-geometry
usemtl material_0_24
f  11//8 10//8 9//8
f  12//8 9//8 10//8
f  11//2 13//2 10//2
f  11//3 9//3 13//3
f  9//2 16//2 12//2
f  12//1 16//1 9//1
f  10//4 14//4 12//4
f  14//2 10//2 13//2
f  15//3 13//3 9//3
f  16//2 9//2 15//2
f  15//1 9//1 16//1
f  16//4 12//4 14//4
f  16//8 13//8 14//8
f  14//7 13//7 16//7
f  13//8 16//8 15//8
f  15//7 16//7 13//7

# Mesh 'mesh4_mesh4-geometry' with 4 faces
g mesh4_mesh4-geometry
usemtl material_0_0
l  13 14
l  14 16
l  15 16
l  16 12

# Mesh 'mesh5_mesh5-geometry' with 8 faces
g mesh5_mesh5-geometry
usemtl material_1_24
f  17//4 18//4 19//4
f  18//4 17//4 20//4
f  18//7 21//7 19//7
f  22//2 18//2 20//2
f  21//7 18//7 23//7
f  18//2 22//2 23//2
f  22//3 21//3 23//3
f  21//3 22//3 24//3

# Mesh 'mesh5_mesh5-geometry' with 16 faces
g mesh5_mesh5-geometry
usemtl material_0_24
f  19//3 18//3 17//3
f  20//3 17//3 18//3
f  19//8 21//8 18//8
f  21//1 17//1 19//1
f  19//2 17//2 21//2
f  17//8 22//8 20//8
f  20//7 22//7 17//7
f  20//1 18//1 22//1
f  23//8 18//8 21//8
f  17//1 21//1 24//1
f  24//2 21//2 17//2
f  22//8 17//8 24//8
f  24//7 17//7 22//7
f  23//1 22//1 18//1
f  23//4 21//4 22//4
f  24//4 22//4 21//4

# Mesh 'mesh6_mesh6-geometry' with 1 faces
g mesh6_mesh6-geometry
usemtl material_0_0
l  22 20

# Mesh 'mesh7_mesh7-geometry' with 1 faces
g mesh7_mesh7-geometry
usemtl material_0_0
l  24 17

# Mesh 'mesh8_mesh8-geometry' with 2 faces
g mesh8_mesh8-geometry
usemtl material_1_24
f  25//9 26//9 27//9
f  26//9 25//9 28//9

# Mesh 'mesh8_mesh8-geometry' with 2 faces
g mesh8_mesh8-geometry
usemtl material_0_24
f  27//10 26//10 25//10
f  28//10 25//10 26//10

# Mesh 'mesh9_mesh9-geometry' with 14 faces
g mesh9_mesh9-geometry
usemtl material_0_24
f  14//10 29//10 10//10
f  29//10 14//10 30//10
f  10//9 29//9 14//9
f  30//9 14//9 29//9
f  10//11 26//11 29//11
f  14//2 28//2 10//2
f  14//11 31//11 30//11
f  30//12 31//12 14//12
f  30//1 29//1 31//1
f  32//11 29//11 26//11
f  26//2 10//2 28//2
f  31//11 14//11 28//11
f  28//12 14//12 31//12
f  32//1 31//1 29//1

# Mesh 'mesh9_mesh9-geometry' with 6 faces
g mesh9_mesh9-geometry
usemtl material_1_24
f  29//12 26//12 10//12
f  10//1 28//1 14//1
f  31//2 29//2 30//2
f  26//12 29//12 32//12
f  28//1 10//1 26//1
f  29//2 31//2 32//2

# Mesh 'mesh10_mesh10-geometry' with 4 faces
g mesh10_mesh10-geometry
usemtl material_0_0
l  14 30
l  14 10
l  30 29
l  10 29

# Mesh 'mesh11_mesh11-geometry' with 2 faces
g mesh11_mesh11-geometry
usemtl material_1_24
f  33//10 34//10 35//10
f  34//10 33//10 36//10

# Mesh 'mesh11_mesh11-geometry' with 2 faces
g mesh11_mesh11-geometry
usemtl material_0_24
f  35//9 34//9 33//9
f  36//9 33//9 34//9

# Mesh 'mesh12_mesh12-geometry' with 14 faces
g mesh12_mesh12-geometry
usemtl material_0_24
f  37//11 33//11 38//11
f  33//11 37//11 39//11
f  38//12 33//12 37//12
f  39//12 37//12 33//12
f  38//2 40//2 33//2
f  40//9 37//9 38//9
f  38//10 37//10 40//10
f  39//1 41//1 37//1
f  35//2 33//2 40//2
f  37//9 40//9 42//9
f  42//10 40//10 37//10
f  42//1 37//1 41//1
f  35//11 40//11 41//11
f  42//11 41//11 40//11

# Mesh 'mesh12_mesh12-geometry' with 6 faces
g mesh12_mesh12-geometry
usemtl material_1_24
f  33//1 40//1 38//1
f  37//2 41//2 39//2
f  40//1 33//1 35//1
f  41//2 37//2 42//2
f  41//12 40//12 35//12
f  40//12 41//12 42//12

# Mesh 'mesh13_mesh13-geometry' with 4 faces
g mesh13_mesh13-geometry
usemtl material_0_0
l  37 39
l  37 42
l  37 38
l  38 33

# Mesh 'mesh14_mesh14-geometry' with 10 faces
g mesh14_mesh14-geometry
usemtl material_1_24
f  43//13 44//13 45//13
f  44//13 43//13 46//13
f  44//14 47//14 45//14
f  47//4 43//4 45//4
f  43//15 48//15 46//15
f  46//3 49//3 44//3
f  47//14 44//14 49//14
f  43//4 47//4 50//4
f  48//15 43//15 50//15
f  49//3 46//3 48//3

# Mesh 'mesh14_mesh14-geometry' with 14 faces
g mesh14_mesh14-geometry
usemtl material_0_24
f  45//16 44//16 43//16
f  46//16 43//16 44//16
f  45//15 47//15 44//15
f  45//3 43//3 47//3
f  46//14 48//14 43//14
f  44//4 49//4 46//4
f  49//15 44//15 47//15
f  50//3 47//3 43//3
f  50//14 43//14 48//14
f  48//4 46//4 49//4
f  48//16 47//16 49//16
f  49//13 47//13 48//13
f  47//16 48//16 50//16
f  50//13 48//13 47//13

# Mesh 'mesh15_mesh15-geometry' with 12 faces
g mesh15_mesh15-geometry
usemtl material_1_24
f  51//17 52//17 53//17
f  52//17 51//17 54//17
f  52//12 55//12 53//12
f  55//2 51//2 53//2
f  51//11 56//11 54//11
f  56//1 52//1 54//1
f  55//12 52//12 57//12
f  51//2 55//2 58//2
f  56//11 51//11 58//11
f  52//1 56//1 57//1
f  56//18 55//18 57//18
f  55//18 56//18 58//18

# Mesh 'mesh15_mesh15-geometry' with 12 faces
g mesh15_mesh15-geometry
usemtl material_0_24
f  53//18 52//18 51//18
f  54//18 51//18 52//18
f  53//11 55//11 52//11
f  53//1 51//1 55//1
f  54//12 56//12 51//12
f  54//2 52//2 56//2
f  57//11 52//11 55//11
f  58//1 55//1 51//1
f  58//12 51//12 56//12
f  57//2 56//2 52//2
f  57//17 55//17 56//17
f  58//17 56//17 55//17

# Mesh 'mesh16_mesh16-geometry' with 12 faces
g mesh16_mesh16-geometry
usemtl material_1_24
f  59//2 60//2 61//2
f  60//2 59//2 62//2
f  60//9 12//9 61//9
f  12//12 59//12 61//12
f  59//10 63//10 62//10
f  63//11 60//11 62//11
f  12//9 60//9 44//9
f  59//12 12//12 64//12
f  63//10 59//10 64//10
f  60//11 63//11 44//11
f  63//1 12//1 44//1
f  12//1 63//1 64//1

# Mesh 'mesh16_mesh16-geometry' with 12 faces
g mesh16_mesh16-geometry
usemtl material_0_24
f  61//1 60//1 59//1
f  62//1 59//1 60//1
f  61//10 12//10 60//10
f  61//11 59//11 12//11
f  62//9 63//9 59//9
f  62//12 60//12 63//12
f  44//10 60//10 12//10
f  64//11 12//11 59//11
f  64//9 59//9 63//9
f  44//12 63//12 60//12
f  44//2 12//2 63//2
f  64//2 63//2 12//2

# Mesh 'mesh17_mesh17-geometry' with 12 faces
g mesh17_mesh17-geometry
usemtl material_1_24
f  65//2 66//2 67//2
f  66//2 65//2 68//2
f  66//9 69//9 67//9
f  69//12 65//12 67//12
f  65//10 70//10 68//10
f  70//11 66//11 68//11
f  69//9 66//9 71//9
f  65//12 69//12 72//12
f  70//10 65//10 72//10
f  66//11 70//11 71//11
f  70//1 69//1 71//1
f  69//1 70//1 72//1

# Mesh 'mesh17_mesh17-geometry' with 12 faces
g mesh17_mesh17-geometry
usemtl material_0_24
f  67//1 66//1 65//1
f  68//1 65//1 66//1
f  67//10 69//10 66//10
f  67//11 65//11 69//11
f  68//9 70//9 65//9
f  68//12 66//12 70//12
f  71//10 66//10 69//10
f  72//11 69//11 65//11
f  72//9 65//9 70//9
f  71//12 70//12 66//12
f  71//2 69//2 70//2
f  72//2 70//2 69//2

# Mesh 'mesh1_mesh1-geometry' with 24 faces
g mesh1_mesh1-geometry
usemtl material_0_24
f  73//1 74//1 75//1
f  74//1 73//1 76//1
f  75//2 74//2 73//2
f  76//2 73//2 74//2
f  74//3 77//3 75//3
f  75//4 77//4 74//4
f  77//5 73//5 75//5
f  75//6 73//6 77//6
f  73//4 78//4 76//4
f  76//3 78//3 73//3
f  78//6 74//6 76//6
f  76//5 74//5 78//5
f  77//3 74//3 79//3
f  79//4 74//4 77//4
f  73//5 77//5 80//5
f  80//6 77//6 73//6
f  78//4 73//4 80//4
f  80//3 73//3 78//3
f  74//6 78//6 79//6
f  79//5 78//5 74//5
f  78//2 77//2 79//2
f  79//1 77//1 78//1
f  77//2 78//2 80//2
f  80//1 78//1 77//1

# Mesh 'mesh2_mesh2-geometry' with 12 faces
g mesh2_mesh2-geometry
usemtl material_0_0
l  74 76
l  75 74
l  74 79
l  76 73
l  76 78
l  73 75
l  75 77
l  79 78
l  77 79
l  73 80
l  78 80
l  80 77

# Mesh 'mesh18_mesh18-geometry' with 8 faces
g mesh18_mesh18-geometry
usemtl material_1_24
f  81//10 82//10 83//10
f  82//10 81//10 84//10
f  85//19 81//19 83//19
f  81//12 86//12 84//12
f  86//20 82//20 84//20
f  81//19 85//19 87//19
f  86//12 81//12 87//12
f  82//20 86//20 88//20

# Mesh 'mesh18_mesh18-geometry' with 16 faces
g mesh18_mesh18-geometry
usemtl material_0_24
f  83//9 82//9 81//9
f  84//9 81//9 82//9
f  82//11 85//11 83//11
f  83//12 85//12 82//12
f  83//20 81//20 85//20
f  84//11 86//11 81//11
f  84//19 82//19 86//19
f  85//11 82//11 88//11
f  88//12 82//12 85//12
f  87//20 85//20 81//20
f  87//11 81//11 86//11
f  88//19 86//19 82//19
f  86//9 85//9 88//9
f  88//10 85//10 86//10
f  85//9 86//9 87//9
f  87//10 86//10 85//10

# Mesh 'mesh19_mesh19-geometry' with 1 faces
g mesh19_mesh19-geometry
usemtl material_0_0
l  86 87

# Mesh 'mesh20_mesh20-geometry' with 1 faces
g mesh20_mesh20-geometry
usemtl material_0_0
l  88 85

# Mesh 'mesh21_mesh21-geometry' with 4 faces
g mesh21_mesh21-geometry
usemtl material_0_24
f  32//12 89//12 29//12
f  89//12 32//12 90//12
f  29//11 89//11 32//11
f  90//11 32//11 89//11

