# File produced by Open Asset Import Library (http://www.assimp.sf.net)
# (assimp v3.2.202087883)

mtllib model_normalized.mtl

# 21 vertex positions
v 0.379890 -0.044523 0.053298
v -0.417879 -0.044523 -0.105462
v -0.417879 -0.044523 0.053298
v 0.379890 -0.044523 -0.105462
v -0.417879 -0.100539 0.053298
v 0.379890 -0.100539 -0.105462
v 0.379890 0.048298 -0.105462
v -0.417879 -0.100539 -0.105462
v 0.379890 -0.100539 0.053298
v 0.445378 0.048298 -0.105462
v -0.483367 0.048298 -0.105462
v -0.483367 -0.100539 -0.105462
v 0.445378 -0.100539 -0.105462
v -0.483367 0.048298 0.053298
v 0.445378 0.048298 0.053298
v 0.445378 -0.100539 0.130693
v -0.483367 -0.100539 0.130693
v 0.445378 0.185229 0.053298
v -0.483367 0.185229 0.130693
v -0.483367 0.185229 0.053298
v 0.445378 0.185229 0.130693

# 45 UV coordinates
vt 0 0 0
vt 0.383633 1.51678 0
vt 0.383633 1.93345 0
vt 1.22113 1.51678 0
vt 1.22113 1.93345 0
vt -1.01119 0.098009 0
vt -1.01119 0 0
vt -1.28897 0.098009 0
vt 0.639388 0.098009 0
vt 2.03522 0.098009 0
vt 0.639388 0 0
vt 1.28897 0.098009 0
vt 1.28897 0 0
vt 1.01119 0.098009 0
vt 2.03522 0.260417 0
vt -1.28897 0 0
vt 2.03522 0 0
vt 1.01119 0 0
vt 2.14981 0.260417 0
vt 0.524805 0.260417 0
vt 0.524805 0 0
vt 2.14981 0 0
vt -0.524805 1.28897 0
vt -0.524805 1.01119 0
vt -2.03522 1.28897 0
vt -2.14981 1.28897 0
vt -2.14981 1.01119 0
vt -1.28897 0.260417 0
vt -1.01119 0.260417 0
vt 1.28897 0.260417 0
vt 1.01119 0.260417 0
vt -0.875772 0 0
vt 0.875772 0 0
vt 2.14981 0.5 0
vt -1.01119 0.5 0
vt 0.875772 0.5 0
vt 0.524805 0.5 0
vt -0.875772 0.5 0
vt 1.01119 0.5 0
vt -0.524805 0 0
vt -2.14981 0 0
vt -0.524805 0.5 0
vt -0.524805 0.875772 0
vt -2.14981 0.5 0
vt -2.14981 0.875772 0

# 6 vertex normals
vn 0 0.0254 0
vn -0.0254 0 0
vn 0 0 0.0254
vn 0.0254 0 0
vn 0 -0.0254 0
vn 0 0 -0.0254

# Mesh 'mesh1_mesh1-geometry' with 32 faces
g mesh1_mesh1-geometry
usemtl material_0_24
f  1/1/1 2/1/1 3/1/1
f  2/1/1 1/1/1 4/1/1
f  2/1/2 5/1/2 3/1/2
f  5/1/3 1/1/3 3/1/3
f  1/1/4 6/1/4 4/1/4
f  7/1/3 2/1/3 4/1/3
f  5/1/2 2/1/2 8/1/2
f  1/1/3 5/1/3 9/1/3
f  6/1/4 1/1/4 9/1/4
f  6/1/3 10/1/3 4/1/3
f  11/1/3 2/1/3 7/1/3
f  4/1/3 10/1/3 7/1/3
f  2/1/3 12/1/3 8/1/3
f  10/1/3 6/1/3 13/1/3
f  12/1/3 2/1/3 11/1/3
f  7/1/5 14/1/5 11/1/5
f  15/1/5 7/1/5 10/1/5
f  13/1/2 15/1/2 10/1/2
f  14/1/4 12/1/4 11/1/4
f  14/1/5 7/1/5 15/1/5
f  16/1/2 15/1/2 13/1/2
f  14/1/4 17/1/4 12/1/4
f  18/1/3 14/1/3 15/1/3
f  16/1/2 18/1/2 15/1/2
f  17/1/4 14/1/4 19/1/4
f  14/1/3 18/1/3 20/1/3
f  18/1/2 16/1/2 21/1/2
f  20/1/4 19/1/4 14/1/4
f  19/1/6 16/1/6 17/1/6
f  18/1/5 19/1/5 20/1/5
f  16/1/6 19/1/6 21/1/6
f  19/1/5 18/1/5 21/1/5

# Mesh 'mesh1_mesh1-geometry' with 2 faces
g mesh1_mesh1-geometry
usemtl material_1_1_8
f  3/2/5 2/3/5 1/4/5
f  4/5/5 1/4/5 2/3/5

# Mesh 'mesh1_mesh1-geometry' with 30 faces
g mesh1_mesh1-geometry
usemtl material_2_2_8
f  3/6/4 5/7/4 2/8/4
f  3/9/6 1/10/6 5/11/6
f  4/12/2 6/13/2 1/14/2
f  4/10/6 2/9/6 7/15/6
f  8/16/4 2/8/4 5/7/4
f  9/17/6 5/11/6 1/10/6
f  9/18/2 1/14/2 6/13/2
f  4/10/6 10/19/6 6/17/6
f  7/15/6 2/9/6 11/20/6
f  7/15/6 10/19/6 4/10/6
f  8/11/6 12/21/6 2/9/6
f  13/22/6 6/17/6 10/19/6
f  11/20/6 2/9/6 12/21/6
f  11/23/1 14/24/1 7/25/1
f  10/26/1 7/25/1 15/27/1
f  10/28/4 15/29/4 13/16/4
f  11/30/2 12/13/2 14/31/2
f  15/27/1 7/25/1 14/24/1
f  13/16/4 15/29/4 16/32/4
f  12/13/2 17/33/2 14/31/2
f  15/19/6 14/20/6 18/34/6
f  15/29/4 18/35/4 16/32/4
f  19/36/2 14/31/2 17/33/2
f  20/37/6 18/34/6 14/20/6
f  21/38/4 16/32/4 18/35/4
f  14/31/2 19/36/2 20/39/2
f  17/40/3 16/41/3 19/42/3
f  20/24/1 19/43/1 18/27/1
f  21/44/3 19/42/3 16/41/3
f  21/45/1 18/27/1 19/43/1

