# File produced by Open Asset Import Library (http://www.assimp.sf.net)
# (assimp v3.2.202087883)

mtllib model_normalized.mtl

# 85 vertex positions
v -0.442796 -0.095613 -0.098757
v 0.405548 -0.095613 0.090635
v -0.442796 -0.095613 0.090635
v 0.405548 -0.095613 -0.098757
v -0.442796 -0.041497 0.090635
v 0.405548 -0.041497 -0.098757
v 0.405548 -0.041497 0.090635
v -0.442796 -0.041497 -0.098757
v 0.458220 -0.041497 0.120893
v -0.503312 -0.041497 -0.120050
v 0.458220 -0.041497 -0.120050
v -0.503312 -0.041497 0.120893
v 0.458220 -0.019408 -0.120050
v -0.503312 -0.019408 0.120893
v 0.458220 -0.019408 0.120893
v -0.503312 -0.019408 -0.120050
v 0.458220 -0.019408 -0.014637
v 0.458220 -0.019408 0.015481
v -0.503312 -0.019408 0.015481
v -0.503312 -0.019408 -0.014637
v 0.448912 -0.019408 -0.014637
v -0.484698 -0.019408 -0.014637
v 0.439605 -0.019408 -0.014637
v 0.448912 -0.019408 0.015481
v 0.439605 -0.019408 0.015481
v -0.484698 -0.019408 0.015481
v 0.371736 -0.001130 -0.014637
v -0.416830 -0.001130 0.015481
v -0.416830 -0.001130 -0.014637
v 0.448515 -0.021290 -0.014637
v 0.371736 -0.001130 0.015481
v -0.416102 -0.004911 -0.014637
v 0.371012 -0.004911 -0.014637
v 0.293560 0.012322 -0.014637
v 0.448515 -0.021290 0.015481
v -0.338653 0.012322 0.015481
v -0.416102 -0.004911 0.015481
v -0.338653 0.012322 -0.014637
v 0.371012 -0.004911 0.015481
v 0.293560 0.012322 0.015481
v -0.338070 0.008517 -0.014637
v 0.292980 0.008517 -0.014637
v 0.292980 0.008517 0.015481
v 0.214931 0.022806 -0.014637
v -0.260023 0.022806 0.015481
v -0.338070 0.008517 0.015481
v -0.260023 0.022806 -0.014637
v 0.214931 0.022806 0.015481
v -0.259586 0.018981 -0.014637
v 0.214495 0.018981 -0.014637
v 0.214495 0.018981 0.015481
v 0.135961 0.030304 -0.014637
v -0.181053 0.030304 0.015481
v -0.259586 0.018981 0.015481
v -0.181053 0.030304 -0.014637
v 0.135961 0.030304 0.015481
v -0.180762 0.026466 -0.014637
v 0.135669 0.026466 -0.014637
v 0.135669 0.026466 0.015481
v 0.056764 0.034807 -0.014637
v -0.101857 0.034807 0.015481
v -0.180762 0.026466 0.015481
v -0.101857 0.034807 -0.014637
v 0.056764 0.034807 0.015481
v -0.101711 0.030961 -0.014637
v 0.056619 0.030961 -0.014637
v 0.056619 0.030961 0.015481
v -0.022546 0.036309 -0.014637
v -0.022546 0.036309 0.015481
v -0.101711 0.030961 0.015481
v -0.022546 0.032459 -0.014637
v -0.022546 0.032459 0.015481
v 0.448912 -0.019408 0.000422
v 0.371374 -0.003020 0.000422
v 0.293270 0.010420 0.000422
v 0.214712 0.020893 0.000422
v 0.135816 0.028384 0.000422
v 0.056692 0.032884 0.000422
v -0.022546 0.034384 0.000422
v -0.101784 0.032884 0.000422
v -0.180908 0.028384 0.000422
v -0.259805 0.020893 0.000422
v -0.338361 0.010420 0.000422
v -0.416460 -0.003020 0.000422
v -0.494010 -0.019408 0.000422

# 209 UV coordinates
vt -3.9969 9.03896 0
vt -2.61074 2.82997 0
vt -2.61074 9.03896 0
vt -3.9969 2.82997 0
vt -2.82997 0 0
vt -9.03896 0.396075 0
vt -9.03896 0 0
vt -2.61074 0.396075 0
vt -3.9969 0 0
vt -2.61074 0 0
vt 9.03896 0 0
vt 2.82997 0.396075 0
vt 2.82997 0 0
vt 3.9969 0.396075 0
vt 2.61074 0 0
vt 3.9969 0 0
vt -2.82997 0.396075 0
vt -3.9969 0.396075 0
vt 9.03896 0.396075 0
vt 2.61074 0.396075 0
vt -2.38929 2.44447 0
vt -4.15274 9.48187 0
vt -4.15274 2.44447 0
vt -2.38929 9.48187 0
vt 4.15274 0.557743 0
vt 2.38929 0.396075 0
vt 4.15274 0.396075 0
vt -2.44447 0.396075 0
vt -9.48187 0.557743 0
vt -9.48187 0.396075 0
vt -2.38929 0.557743 0
vt -4.15274 0.396075 0
vt -2.38929 0.396075 0
vt 9.48187 0.396075 0
vt 2.44447 0.557743 0
vt 2.44447 0.396075 0
vt 2.38929 0.557743 0
vt -2.44447 0.557743 0
vt -4.15274 0.557743 0
vt 9.48187 0.557743 0
vt 3.38123 0.557743 0
vt 3.1608 2.44447 0
vt 2.38929 9.48187 0
vt 2.38929 2.44447 0
vt -3.1608 0.557743 0
vt 3.38123 9.48187 0
vt 4.15274 2.44447 0
vt 4.15274 9.48187 0
vt 3.38123 2.51259 0
vt 3.38123 2.44447 0
vt 3.1608 0.557743 0
vt 3.1608 9.48187 0
vt -3.38123 0.557743 0
vt 3.38123 9.34564 0
vt 3.38123 2.58071 0
vt 3.1608 2.51259 0
vt 3.1608 2.58071 0
vt 3.1608 9.34564 0
vt 0 0 0
vt -2.17286 0.495771 0
vt -2.23341 0.495771 0
vt -2.73551 0.614681 0
vt -3.00554 2.22842 0
vt -3.00554 2.80349 0
vt -2.8096 2.22842 0
vt 2.8096 -8.14367 0
vt 2.8096 -7.5686 0
vt 3.00554 -8.14367 0
vt -8.42833 0.495771 0
vt -7.86569 0.614681 0
vt -8.30723 0.495771 0
vt -2.29396 0.495771 0
vt -2.8096 2.80349 0
vt 2.17286 0.495771 0
vt 2.73551 0.614681 0
vt 2.23341 0.495771 0
vt 3.00554 -7.5686 0
vt 8.42833 0.495771 0
vt 8.30723 0.495771 0
vt 7.86569 0.614681 0
vt -7.86098 0.590084 0
vt -2.74022 0.590084 0
vt -3.00554 2.80012 0
vt -3.00554 3.31619 0
vt -2.8096 2.80012 0
vt 2.29396 0.495771 0
vt -3.00554 -8.02519 0
vt -3.00554 -7.56908 0
vt -2.8096 -8.02519 0
vt 2.8096 -7.64752 0
vt 2.8096 -7.13145 0
vt 3.00554 -7.64752 0
vt 7.86098 0.590084 0
vt -7.3571 0.702198 0
vt 2.8096 2.3469 0
vt 2.8096 2.80301 0
vt 3.00554 2.3469 0
vt -3.2441 0.702198 0
vt 3.00554 2.80301 0
vt -2.8096 3.31619 0
vt 2.74022 0.590084 0
vt -2.8096 -7.56908 0
vt 3.00554 -7.13145 0
vt 7.3571 0.702198 0
vt -7.35332 0.67744 0
vt -3.24787 0.67744 0
vt 2.8096 2.8006 0
vt 2.8096 3.31572 0
vt 3.00554 2.8006 0
vt 3.2441 0.702198 0
vt -3.00554 3.30844 0
vt -3.00554 3.82451 0
vt -2.8096 3.30844 0
vt -3.00554 -7.64705 0
vt -3.00554 -7.13193 0
vt -2.8096 -7.64705 0
vt 2.8096 -7.19978 0
vt 2.8096 -6.68371 0
vt 3.00554 -7.19978 0
vt 7.35332 0.67744 0
vt -6.84556 0.770397 0
vt -3.75564 0.770397 0
vt 3.00554 3.31572 0
vt 3.24787 0.67744 0
vt -2.8096 3.82451 0
vt -2.8096 -7.13193 0
vt 3.00554 -6.68371 0
vt 6.84556 0.770397 0
vt -6.84272 0.745514 0
vt -3.75848 0.745514 0
vt 2.8096 3.30891 0
vt 2.8096 3.82403 0
vt 3.00554 3.30891 0
vt 3.75564 0.770397 0
vt -3.00554 3.81164 0
vt -3.00554 4.32771 0
vt -2.8096 3.81164 0
vt -3.00554 -7.1993 0
vt -3.00554 -6.68419 0
vt -2.8096 -7.1993 0
vt 2.8096 -6.74208 0
vt 2.8096 -6.22601 0
vt 3.00554 -6.74208 0
vt 6.84272 0.745514 0
vt -6.33181 0.819181 0
vt -4.26939 0.819181 0
vt 3.00554 3.82403 0
vt 3.75848 0.745514 0
vt -2.8096 4.32771 0
vt -2.8096 -6.68419 0
vt 3.00554 -6.22601 0
vt 6.33181 0.819181 0
vt -6.32991 0.794208 0
vt -4.27129 0.794208 0
vt 2.8096 3.81212 0
vt 2.8096 4.32724 0
vt 3.00554 3.81212 0
vt 4.26939 0.819181 0
vt -3.00554 4.30901 0
vt -3.00554 4.82508 0
vt -2.8096 4.30901 0
vt -3.00554 -6.74161 0
vt -3.00554 -6.22649 0
vt -2.8096 -6.74161 0
vt 2.8096 -6.27509 0
vt 2.8096 -5.75902 0
vt 3.00554 -6.27509 0
vt 6.32991 0.794208 0
vt -5.81657 0.848479 0
vt -4.78462 0.848479 0
vt 3.00554 4.32724 0
vt 4.27129 0.794208 0
vt -2.8096 4.82508 0
vt -2.8096 -6.22649 0
vt 3.00554 -5.75902 0
vt 5.81657 0.848479 0
vt -5.81562 0.823453 0
vt -4.78557 0.823453 0
vt 2.8096 4.30949 0
vt 2.8096 4.8246 0
vt 3.00554 4.30949 0
vt 4.78462 0.848479 0
vt -3.00554 4.79983 0
vt -3.00554 5.3159 0
vt -2.8096 4.79983 0
vt -3.00554 -6.27461 0
vt -3.00554 -5.75949 0
vt -2.8096 -6.27461 0
vt 2.8096 -5.79947 0
vt 2.8096 -5.2834 0
vt 3.00554 -5.79947 0
vt 5.81562 0.823453 0
vt -5.3006 0.833205 0
vt -5.3006 0.85825 0
vt 3.00554 4.8246 0
vt 4.78557 0.823453 0
vt -2.8096 5.3159 0
vt -2.8096 -5.75949 0
vt 3.00554 -5.2834 0
vt 5.3006 0.833205 0
vt 5.3006 0.85825 0
vt -3.00554 -5.79899 0
vt -3.00554 -5.28387 0
vt -2.8096 -5.79899 0
vt 2.8096 4.8003 0
vt 2.8096 5.31542 0
vt 3.00554 4.8003 0
vt -2.8096 -5.28387 0
vt 3.00554 5.31542 0

# 30 vertex normals
vn 0 -1 0
vn 0 0 1
vn -1 0 0
vn 0 0 -1
vn 1 0 0
vn 0 1 0
vn -0.206774 -0.978389 0
vn -0.188213 -0.982128 0
vn 0.206774 -0.978389 -0
vn 0.188213 -0.982128 -0
vn 0.206774 0.978389 0
vn -0.150896 -0.98855 0
vn -0.206774 0.978389 0
vn -0.188213 0.982128 0
vn 0.150896 -0.98855 -0
vn 0.188213 0.982128 0
vn 0.150896 0.98855 0
vn -0.113361 -0.993554 0
vn -0.150896 0.98855 0
vn 0.113361 -0.993554 -0
vn 0.113361 0.993554 0
vn -0.075665 -0.997133 0
vn -0.113361 0.993554 0
vn 0.075665 -0.997133 -0
vn 0.075665 0.997133 0
vn -0.037859 -0.999283 0
vn -0.075665 0.997133 0
vn 0.037859 -0.999283 -0
vn 0.037859 0.999283 0
vn -0.037859 0.999283 0

# Mesh 'mesh1_mesh1-geometry' with 42 faces
g mesh1_mesh1-geometry
usemtl material_0_1_8
f  1/1/1 2/2/1 3/3/1
f  2/2/1 1/1/1 4/4/1
f  2/5/2 5/6/2 3/7/2
f  5/8/3 1/9/3 3/10/3
f  1/11/4 6/12/4 4/13/4
f  6/14/5 2/15/5 4/16/5
f  5/6/2 2/5/2 7/17/2
f  1/9/3 5/8/3 8/18/3
f  6/12/4 1/11/4 8/19/4
f  2/15/5 6/14/5 7/20/5
f  7/2/1 9/21/1 5/3/1
f  5/3/1 10/22/1 8/1/1
f  8/1/1 10/22/1 6/4/1
f  11/23/1 7/2/1 6/4/1
f  9/21/1 7/2/1 11/23/1
f  12/24/1 5/3/1 9/21/1
f  5/3/1 12/24/1 10/22/1
f  11/23/1 6/4/1 10/22/1
f  13/25/5 9/26/5 11/27/5
f  9/28/2 14/29/2 12/30/2
f  14/31/3 10/32/3 12/33/3
f  10/34/4 13/35/4 11/36/4
f  9/26/5 13/25/5 15/37/5
f  14/29/2 9/28/2 15/38/2
f  10/32/3 14/31/3 16/39/3
f  13/35/4 10/34/4 16/40/4
f  15/37/5 13/25/5 17/41/5
f  18/42/6 14/43/6 15/44/6
f  16/39/3 14/31/3 19/45/3
f  20/46/6 13/47/6 16/48/6
f  13/47/6 21/49/6 17/50/6
f  15/37/5 17/41/5 18/51/5
f  14/43/6 18/42/6 19/52/6
f  16/39/3 19/45/3 20/53/3
f  22/54/6 13/47/6 20/46/6
f  21/49/6 13/47/6 23/55/6
f  19/52/6 18/42/6 24/56/6
f  23/55/6 13/47/6 22/54/6
f  19/52/6 24/56/6 25/57/6
f  26/58/6 23/55/6 22/54/6
f  19/52/6 25/57/6 26/58/6
f  23/55/6 26/58/6 25/57/6

# Mesh 'mesh1_mesh1-geometry' with 156 faces
g mesh1_mesh1-geometry
usemtl material_1_24
f  3/59/6 2/59/6 1/59/6
f  4/59/6 1/59/6 2/59/6
f  3/59/4 5/59/4 2/59/4
f  3/59/5 1/59/5 5/59/5
f  4/59/2 6/59/2 1/59/2
f  4/59/3 2/59/3 6/59/3
f  7/59/4 2/59/4 5/59/4
f  8/59/5 5/59/5 1/59/5
f  8/59/2 1/59/2 6/59/2
f  7/59/3 6/59/3 2/59/3
f  8/59/1 7/59/1 5/59/1
f  5/59/6 7/59/6 8/59/6
f  5/59/6 9/59/6 7/59/6
f  8/59/6 10/59/6 5/59/6
f  7/59/1 8/59/1 6/59/1
f  6/59/6 8/59/6 7/59/6
f  6/59/6 10/59/6 8/59/6
f  6/59/6 7/59/6 11/59/6
f  11/59/6 7/59/6 9/59/6
f  9/59/6 5/59/6 12/59/6
f  10/59/6 12/59/6 5/59/6
f  10/59/6 6/59/6 11/59/6
f  11/59/3 9/59/3 13/59/3
f  12/59/4 14/59/4 9/59/4
f  12/59/5 10/59/5 14/59/5
f  11/59/2 13/59/2 10/59/2
f  15/59/3 13/59/3 9/59/3
f  15/59/4 9/59/4 14/59/4
f  16/59/5 14/59/5 10/59/5
f  16/59/2 10/59/2 13/59/2
f  17/59/3 13/59/3 15/59/3
f  15/59/1 14/59/1 18/59/1
f  19/59/5 14/59/5 16/59/5
f  16/59/1 13/59/1 20/59/1
f  17/59/1 21/59/1 13/59/1
f  18/59/3 17/59/3 15/59/3
f  19/59/1 18/59/1 14/59/1
f  20/59/5 19/59/5 16/59/5
f  20/59/1 13/59/1 22/59/1
f  23/59/1 13/59/1 21/59/1
f  27/59/2 21/59/2 17/59/2
f  18/59/7 27/59/8 17/59/7
f  24/59/1 18/59/1 19/59/1
f  19/59/6 22/59/6 20/59/6
f  20/59/1 22/59/1 19/59/1
f  20/59/9 28/59/10 19/59/9
f  22/59/1 13/59/1 23/59/1
f  22/59/2 29/59/2 20/59/2
f  23/59/2 30/59/2 21/59/2
f  21/59/4 30/59/4 23/59/4
f  21/59/2 27/59/2 23/59/2
f  27/59/8 18/59/7 31/59/8
f  24/59/4 31/59/4 18/59/4
f  25/59/1 24/59/1 19/59/1
f  22/59/6 19/59/6 26/59/6
f  26/59/1 19/59/1 22/59/1
f  28/59/10 20/59/9 29/59/10
f  28/59/4 26/59/4 19/59/4
f  22/59/1 23/59/1 26/59/1
f  32/59/2 29/59/2 22/59/2
f  25/59/11 30/59/11 23/59/11
f  23/59/7 30/59/7 25/59/7
f  23/59/2 27/59/2 33/59/2
f  31/59/8 34/59/12 27/59/8
f  31/59/4 24/59/4 25/59/4
f  25/59/4 24/59/4 35/59/4
f  35/59/2 24/59/2 25/59/2
f  26/59/1 25/59/1 19/59/1
f  26/59/13 32/59/14 22/59/13
f  29/59/10 36/59/15 28/59/10
f  28/59/4 37/59/4 26/59/4
f  25/59/1 26/59/1 23/59/1
f  32/59/2 38/59/2 29/59/2
f  30/59/11 25/59/11 35/59/11
f  35/59/7 25/59/7 30/59/7
f  23/59/11 39/59/16 25/59/11
f  33/59/2 27/59/2 34/59/2
f  39/59/16 23/59/11 33/59/16
f  34/59/12 31/59/8 40/59/12
f  31/59/4 25/59/4 39/59/4
f  32/59/14 26/59/13 37/59/14
f  36/59/15 29/59/10 38/59/15
f  36/59/4 37/59/4 28/59/4
f  41/59/2 38/59/2 32/59/2
f  33/59/2 34/59/2 42/59/2
f  33/59/16 43/59/17 39/59/16
f  31/59/4 39/59/4 40/59/4
f  40/59/12 44/59/18 34/59/12
f  37/59/14 41/59/19 32/59/14
f  38/59/15 45/59/20 36/59/15
f  36/59/4 46/59/4 37/59/4
f  41/59/2 47/59/2 38/59/2
f  42/59/2 34/59/2 44/59/2
f  43/59/17 33/59/16 42/59/17
f  40/59/4 39/59/4 43/59/4
f  44/59/18 40/59/12 48/59/18
f  41/59/19 37/59/14 46/59/19
f  45/59/20 38/59/15 47/59/20
f  45/59/4 46/59/4 36/59/4
f  49/59/2 47/59/2 41/59/2
f  42/59/2 44/59/2 50/59/2
f  42/59/17 51/59/21 43/59/17
f  40/59/4 43/59/4 48/59/4
f  48/59/18 52/59/22 44/59/18
f  46/59/19 49/59/23 41/59/19
f  47/59/20 53/59/24 45/59/20
f  45/59/4 54/59/4 46/59/4
f  49/59/2 55/59/2 47/59/2
f  50/59/2 44/59/2 52/59/2
f  51/59/21 42/59/17 50/59/21
f  48/59/4 43/59/4 51/59/4
f  52/59/22 48/59/18 56/59/22
f  49/59/23 46/59/19 54/59/23
f  53/59/24 47/59/20 55/59/24
f  53/59/4 54/59/4 45/59/4
f  57/59/2 55/59/2 49/59/2
f  50/59/2 52/59/2 58/59/2
f  50/59/21 59/59/25 51/59/21
f  48/59/4 51/59/4 56/59/4
f  56/59/22 60/59/26 52/59/22
f  54/59/23 57/59/27 49/59/23
f  55/59/24 61/59/28 53/59/24
f  53/59/4 62/59/4 54/59/4
f  57/59/2 63/59/2 55/59/2
f  58/59/2 52/59/2 60/59/2
f  59/59/25 50/59/21 58/59/25
f  56/59/4 51/59/4 59/59/4
f  60/59/26 56/59/22 64/59/26
f  57/59/27 54/59/23 62/59/27
f  61/59/28 55/59/24 63/59/28
f  61/59/4 62/59/4 53/59/4
f  65/59/2 63/59/2 57/59/2
f  58/59/2 60/59/2 66/59/2
f  58/59/25 67/59/29 59/59/25
f  56/59/4 59/59/4 64/59/4
f  64/59/26 68/59/1 60/59/26
f  62/59/27 65/59/30 57/59/27
f  63/59/28 69/59/1 61/59/28
f  61/59/4 70/59/4 62/59/4
f  71/59/2 63/59/2 65/59/2
f  66/59/2 60/59/2 68/59/2
f  67/59/29 58/59/25 66/59/29
f  64/59/4 59/59/4 67/59/4
f  68/59/1 64/59/26 69/59/1
f  65/59/30 62/59/27 70/59/30
f  69/59/1 63/59/28 68/59/1
f  69/59/4 72/59/4 61/59/4
f  61/59/4 72/59/4 70/59/4
f  71/59/2 68/59/2 63/59/2
f  70/59/30 71/59/6 65/59/30
f  66/59/2 68/59/2 71/59/2
f  66/59/29 72/59/6 67/59/29
f  64/59/4 67/59/4 69/59/4
f  69/59/4 67/59/4 72/59/4
f  71/59/6 70/59/30 72/59/6
f  72/59/6 66/59/29 71/59/6

# Mesh 'mesh1_mesh1-geometry' with 98 faces
g mesh1_mesh1-geometry
usemtl material_2_2_8
f  17/60/4 21/61/4 27/62/4
f  17/63/11 27/64/16 18/65/11
f  19/66/13 28/67/14 20/68/13
f  20/69/4 29/70/4 22/71/4
f  23/72/4 27/62/4 21/61/4
f  31/73/16 18/65/11 27/64/16
f  18/74/2 31/75/2 24/76/2
f  29/77/14 20/68/13 28/67/14
f  19/78/2 26/79/2 28/80/2
f  22/71/4 29/70/4 32/81/4
f  33/82/4 27/62/4 23/72/4
f  27/83/16 34/84/17 31/85/16
f  25/86/2 24/76/2 31/75/2
f  22/87/9 32/88/10 26/89/9
f  28/90/14 36/91/19 29/92/14
f  26/79/2 37/93/2 28/80/2
f  29/70/4 38/94/4 32/81/4
f  25/95/7 39/96/8 23/97/7
f  34/98/4 27/62/4 33/82/4
f  33/99/8 23/97/7 39/96/8
f  40/100/17 31/85/16 34/84/17
f  39/101/2 25/86/2 31/75/2
f  37/102/10 26/89/9 32/88/10
f  38/103/19 29/92/14 36/91/19
f  28/80/2 37/93/2 36/104/2
f  32/81/4 38/94/4 41/105/4
f  42/106/4 34/98/4 33/82/4
f  39/107/8 43/108/12 33/109/8
f  40/110/2 39/101/2 31/75/2
f  34/111/17 44/112/21 40/113/17
f  32/114/10 41/115/15 37/116/10
f  36/117/19 45/118/23 38/119/19
f  37/93/2 46/120/2 36/104/2
f  38/94/4 47/121/4 41/105/4
f  44/122/4 34/98/4 42/106/4
f  42/123/12 33/109/8 43/108/12
f  43/124/2 39/101/2 40/110/2
f  48/125/21 40/113/17 44/112/21
f  46/126/15 37/116/10 41/115/15
f  47/127/23 38/119/19 45/118/23
f  36/104/2 46/120/2 45/128/2
f  41/105/4 47/121/4 49/129/4
f  50/130/4 44/122/4 42/106/4
f  43/131/12 51/132/18 42/133/12
f  48/134/2 43/124/2 40/110/2
f  44/135/21 52/136/25 48/137/21
f  41/138/15 49/139/20 46/140/15
f  45/141/23 53/142/27 47/143/23
f  46/120/2 54/144/2 45/128/2
f  47/121/4 55/145/4 49/129/4
f  52/146/4 44/122/4 50/130/4
f  50/147/18 42/133/12 51/132/18
f  51/148/2 43/124/2 48/134/2
f  56/149/25 48/137/21 52/136/25
f  54/150/20 46/140/15 49/139/20
f  55/151/27 47/143/23 53/142/27
f  45/128/2 54/144/2 53/152/2
f  49/129/4 55/145/4 57/153/4
f  58/154/4 52/146/4 50/130/4
f  51/155/18 59/156/22 50/157/18
f  56/158/2 51/148/2 48/134/2
f  52/159/25 60/160/29 56/161/25
f  49/162/20 57/163/24 54/164/20
f  53/165/27 61/166/30 55/167/27
f  54/144/2 62/168/2 53/152/2
f  55/145/4 63/169/4 57/153/4
f  60/170/4 52/146/4 58/154/4
f  58/171/22 50/157/18 59/156/22
f  59/172/2 51/148/2 56/158/2
f  64/173/29 56/161/25 60/160/29
f  62/174/24 54/164/20 57/163/24
f  63/175/30 55/167/27 61/166/30
f  53/152/2 62/168/2 61/176/2
f  57/153/4 63/169/4 65/177/4
f  66/178/4 60/170/4 58/154/4
f  59/179/22 67/180/26 58/181/22
f  64/182/2 59/172/2 56/158/2
f  60/183/29 68/184/6 64/185/29
f  57/186/24 65/187/28 62/188/24
f  61/189/30 69/190/6 63/191/30
f  62/168/2 70/192/2 61/176/2
f  65/177/4 63/169/4 71/193/4
f  68/194/4 60/170/4 66/178/4
f  66/195/26 58/181/22 67/180/26
f  67/196/2 59/172/2 64/182/2
f  69/197/6 64/185/29 68/184/6
f  70/198/28 62/188/24 65/187/28
f  68/199/6 63/191/30 69/190/6
f  61/176/2 72/200/2 69/201/2
f  70/192/2 72/200/2 61/176/2
f  63/169/4 68/194/4 71/193/4
f  65/202/28 71/203/1 70/204/28
f  71/193/4 68/194/4 66/178/4
f  67/205/26 72/206/1 66/207/26
f  69/201/2 67/196/2 64/182/2
f  72/200/2 67/196/2 69/201/2
f  72/208/1 70/204/28 71/203/1
f  71/209/1 66/207/26 72/206/1

# Mesh 'mesh2_mesh2-geometry' with 12 faces
g mesh2_mesh2-geometry
usemtl material_1_0
l  73 74
l  74 75
l  75 76
l  76 77
l  77 78
l  78 79
l  79 80
l  80 81
l  81 82
l  82 83
l  83 84
l  84 85

# Mesh 'mesh3_mesh3-geometry' with 1 faces
g mesh3_mesh3-geometry
usemtl material_1_0
l  30 23

# Mesh 'mesh4_mesh4-geometry' with 1 faces
g mesh4_mesh4-geometry
usemtl material_1_0
l  25 35

