# File produced by Open Asset Import Library (http://www.assimp.sf.net)
# (assimp v3.2.202087883)

mtllib model_normalized.mtl

# 32 vertex positions
v 0.476341 0.086731 0.080017
v -0.484334 0.060046 0.080017
v 0.476341 0.060046 0.080017
v -0.484334 0.086731 0.080017
v 0.476341 0.060046 -0.080095
v -0.484334 0.086731 -0.080095
v -0.484334 0.060046 -0.080095
v 0.476341 0.086731 -0.080095
v 0.374916 0.060041 0.080069
v 0.374916 -0.140100 -0.080044
v 0.374916 0.060041 -0.080044
v 0.374916 -0.140100 0.080069
v 0.348230 0.060041 -0.080044
v 0.348230 -0.140100 0.080069
v 0.348230 -0.140100 -0.080044
v 0.348230 0.060041 0.080069
v -0.345590 0.060041 0.013356
v -0.345590 -0.046701 -0.013330
v -0.345590 -0.046701 0.013356
v -0.345590 0.060041 -0.013330
v 0.348230 -0.046701 0.013356
v 0.348230 0.060041 -0.013330
v 0.348230 -0.046701 -0.013330
v 0.348230 0.060041 0.013356
v -0.345554 0.060041 0.080069
v -0.345554 -0.140100 -0.080044
v -0.345554 0.060041 -0.080044
v -0.345554 -0.140100 0.080069
v -0.372239 0.060041 -0.080044
v -0.372239 -0.140100 0.080069
v -0.372239 -0.140100 -0.080044
v -0.372239 0.060041 0.080069

# 0 UV coordinates

# 6 vertex normals
vn 0 0 0.0254
vn 0 -0 -0.0254
vn 0 -0.0254 0
vn 0 0.0254 0
vn 0.0254 0 0
vn -0.0254 0 0

# Mesh 'mesh1_mesh1-geometry' with 24 faces
g mesh1_mesh1-geometry
usemtl material_0_24
f  1//1 2//1 3//1
f  2//1 1//1 4//1
f  3//2 2//2 1//2
f  4//2 1//2 2//2
f  2//3 5//3 3//3
f  3//4 5//4 2//4
f  5//5 1//5 3//5
f  3//6 1//6 5//6
f  1//4 6//4 4//4
f  4//3 6//3 1//3
f  6//6 2//6 4//6
f  4//5 2//5 6//5
f  5//3 2//3 7//3
f  7//4 2//4 5//4
f  1//5 5//5 8//5
f  8//6 5//6 1//6
f  6//4 1//4 8//4
f  8//3 1//3 6//3
f  2//6 6//6 7//6
f  7//5 6//5 2//5
f  6//2 5//2 7//2
f  7//1 5//1 6//1
f  5//2 6//2 8//2
f  8//1 6//1 5//1

# Mesh 'mesh2_mesh2-geometry' with 12 faces
g mesh2_mesh2-geometry
usemtl material_0_0
l  4 2
l  1 4
l  4 6
l  2 3
l  2 7
l  3 1
l  1 8
l  8 6
l  6 7
l  3 5
l  7 5
l  5 8

# Mesh 'mesh3_mesh3-geometry' with 24 faces
g mesh3_mesh3-geometry
usemtl material_0_24
f  9//5 10//5 11//5
f  10//5 9//5 12//5
f  11//6 10//6 9//6
f  12//6 9//6 10//6
f  10//2 13//2 11//2
f  11//1 13//1 10//1
f  13//4 9//4 11//4
f  11//3 9//3 13//3
f  9//1 14//1 12//1
f  12//2 14//2 9//2
f  14//3 10//3 12//3
f  12//4 10//4 14//4
f  13//2 10//2 15//2
f  15//1 10//1 13//1
f  9//4 13//4 16//4
f  16//3 13//3 9//3
f  14//1 9//1 16//1
f  16//2 9//2 14//2
f  10//3 14//3 15//3
f  15//4 14//4 10//4
f  14//6 13//6 15//6
f  15//5 13//5 14//5
f  13//6 14//6 16//6
f  16//5 14//5 13//5

# Mesh 'mesh4_mesh4-geometry' with 12 faces
g mesh4_mesh4-geometry
usemtl material_0_0
l  12 9
l  12 10
l  14 12
l  9 11
l  9 16
l  10 11
l  15 10
l  16 14
l  14 15
l  11 13
l  16 13
l  13 15

# Mesh 'mesh5_mesh5-geometry' with 24 faces
g mesh5_mesh5-geometry
usemtl material_0_24
f  17//6 18//6 19//6
f  18//6 17//6 20//6
f  19//5 18//5 17//5
f  20//5 17//5 18//5
f  18//3 21//3 19//3
f  19//4 21//4 18//4
f  21//1 17//1 19//1
f  19//2 17//2 21//2
f  17//4 22//4 20//4
f  20//3 22//3 17//3
f  22//2 18//2 20//2
f  20//1 18//1 22//1
f  21//3 18//3 23//3
f  23//4 18//4 21//4
f  17//1 21//1 24//1
f  24//2 21//2 17//2
f  22//4 17//4 24//4
f  24//3 17//3 22//3
f  18//2 22//2 23//2
f  23//1 22//1 18//1
f  22//5 21//5 23//5
f  23//6 21//6 22//6
f  21//5 22//5 24//5
f  24//6 22//6 21//6

# Mesh 'mesh6_mesh6-geometry' with 12 faces
g mesh6_mesh6-geometry
usemtl material_0_0
l  18 19
l  20 18
l  18 23
l  19 17
l  19 21
l  17 20
l  20 22
l  23 21
l  22 23
l  17 24
l  21 24
l  24 22

# Mesh 'mesh3_mesh3-geometry' with 24 faces
g mesh3_mesh3-geometry
usemtl material_0_24
f  25//5 26//5 27//5
f  26//5 25//5 28//5
f  27//6 26//6 25//6
f  28//6 25//6 26//6
f  26//2 29//2 27//2
f  27//1 29//1 26//1
f  29//4 25//4 27//4
f  27//3 25//3 29//3
f  25//1 30//1 28//1
f  28//2 30//2 25//2
f  30//3 26//3 28//3
f  28//4 26//4 30//4
f  29//2 26//2 31//2
f  31//1 26//1 29//1
f  25//4 29//4 32//4
f  32//3 29//3 25//3
f  30//1 25//1 32//1
f  32//2 25//2 30//2
f  26//3 30//3 31//3
f  31//4 30//4 26//4
f  30//6 29//6 31//6
f  31//5 29//5 30//5
f  29//6 30//6 32//6
f  32//5 30//5 29//5

# Mesh 'mesh4_mesh4-geometry' with 12 faces
g mesh4_mesh4-geometry
usemtl material_0_0
l  28 25
l  28 26
l  30 28
l  25 27
l  25 32
l  26 27
l  31 26
l  32 30
l  30 31
l  27 29
l  32 29
l  29 31

