# File produced by Open Asset Import Library (http://www.assimp.sf.net)
# (assimp v3.2.202087883)

mtllib model_normalized.mtl

# 106 vertex positions
v 0.301643 -0.114024 -0.047189
v 0.358102 -0.110260 -0.047189
v 0.358102 -0.114024 -0.047189
v 0.301643 -0.110260 -0.047189
v 0.358102 -0.110260 0.009269
v 0.358102 -0.114024 0.009269
v 0.301643 -0.110260 0.009269
v 0.327991 -0.110260 -0.033455
v 0.348692 -0.110260 -0.029397
v 0.301643 -0.114024 0.009269
v 0.311053 -0.110260 -0.029397
v 0.311053 -0.110260 -0.033455
v 0.331754 -0.110260 -0.033455
v 0.331754 -0.110260 -0.005045
v 0.348692 -0.110260 -0.033455
v 0.327991 -0.110260 -0.005045
v 0.327991 -0.030465 -0.001281
v 0.327991 -0.110260 -0.029397
v 0.331754 -0.030465 -0.001281
v 0.327991 -0.111667 -0.029962
v 0.331754 -0.110260 -0.029397
v 0.348692 0.010658 0.015299
v 0.311053 0.010658 0.015299
v 0.327991 0.010658 0.015299
v 0.331754 0.010658 0.015299
v 0.331754 -0.111667 -0.029962
v 0.331754 0.109389 0.083515
v 0.331754 0.160527 0.079785
v 0.348692 0.160527 0.079785
v 0.327991 0.109389 0.083515
v 0.311053 0.160527 0.079785
v 0.331754 0.031038 -0.064842
v 0.327991 0.031038 -0.064842
v 0.327991 0.160527 0.079785
v 0.348692 0.014181 0.016721
v 0.311053 0.014181 0.016721
v 0.311053 0.031038 -0.064842
v 0.331754 0.014181 0.016721
v 0.348692 0.161935 0.076296
v 0.348692 0.031038 -0.064842
v 0.311053 0.161935 0.076296
v 0.327991 0.014181 0.016721
v 0.311053 0.034641 -0.063739
v 0.348692 0.034641 -0.063739
v -0.375856 -0.114024 -0.047189
v -0.319398 -0.110260 -0.047189
v -0.319398 -0.114024 -0.047189
v -0.375856 -0.110260 -0.047189
v -0.319398 -0.110260 0.009269
v -0.319398 -0.114024 0.009269
v -0.375856 -0.110260 0.009269
v -0.349509 -0.110260 -0.033455
v -0.328807 -0.110260 -0.029397
v -0.375856 -0.114024 0.009269
v -0.366446 -0.110260 -0.029397
v -0.366446 -0.110260 -0.033455
v -0.345745 -0.110260 -0.033455
v -0.345745 -0.110260 -0.005045
v -0.328807 -0.110260 -0.033455
v -0.349509 -0.110260 -0.005045
v -0.349509 -0.030465 -0.001281
v -0.349509 -0.110260 -0.029397
v -0.345745 -0.030465 -0.001281
v -0.349509 -0.111667 -0.029962
v -0.345745 -0.110260 -0.029397
v -0.328807 0.010658 0.015299
v -0.366446 0.010658 0.015299
v -0.349509 0.010658 0.015299
v -0.345745 0.010658 0.015299
v -0.345745 -0.111667 -0.029962
v -0.345745 0.109389 0.083515
v -0.345745 0.160527 0.079785
v -0.328807 0.160527 0.079785
v -0.349509 0.109389 0.083515
v -0.366446 0.160527 0.079785
v -0.345745 0.031038 -0.064842
v -0.349509 0.031038 -0.064842
v -0.349509 0.160527 0.079785
v -0.328807 0.014181 0.016721
v -0.366446 0.014181 0.016721
v -0.366446 0.031038 -0.064842
v -0.345745 0.014181 0.016721
v -0.328807 0.161935 0.076296
v -0.328807 0.031038 -0.064842
v -0.366446 0.161935 0.076296
v -0.349509 0.014181 0.016721
v -0.366446 0.034641 -0.063739
v -0.328807 0.034641 -0.063739
v -0.479363 0.178374 0.082924
v -0.479363 0.092990 0.033441
v -0.479363 0.092990 0.048496
v -0.479363 0.178374 0.048496
v 0.461609 0.092990 0.048496
v 0.461609 0.178374 0.048496
v 0.461609 0.092990 0.033441
v 0.461609 0.161935 0.076296
v 0.461609 0.178374 0.082924
v -0.479363 0.040557 -0.087004
v 0.461609 0.014181 0.016721
v -0.479363 0.014181 0.016721
v 0.461609 0.034641 -0.063739
v -0.479363 0.055351 0.033320
v 0.461609 0.040557 -0.087004
v 0.461609 0.055351 0.033320
v -0.479363 0.055351 -0.087004
v 0.461609 0.055351 -0.087004

# 204 UV coordinates
vt 0.109361 0 0
vt -0 0.007291 0
vt -0 0 0
vt 0.109361 0.007291 0
vt 0.143822 0.007291 0
vt 0.253183 0 0
vt 0.253183 0.007291 0
vt -0.143822 -0 0
vt -0.253183 0.109361 0
vt -0.253183 -0 0
vt -0.143822 0.007291 0
vt -0.253183 0.007291 0
vt 0.253183 0.109361 0
vt 0.226577 0.058326 0
vt 0.143822 0 0
vt 0.218716 0.018227 0
vt -0.143822 0.109361 0
vt 0.143822 0.109361 0
vt 0.218716 0.091134 0
vt 0.226577 0.091134 0
vt 0.226577 0.051035 0
vt -0.109361 0.007291 0
vt 0.171549 0.051035 0
vt 0.226577 0.018227 0
vt -0.109361 0 0
vt 0.171549 0.058326 0
vt 0.058326 0.088688 0
vt 0.058326 -0.077967 0
vt 0.091134 -0.077967 0
vt 0.218716 0.058326 0
vt 0.051035 0.088688 0
vt 0.051035 -0.077967 0
vt -0.058326 0.205574 0
vt -0.051035 0.212865 0
vt -0.058326 0.212865 0
vt 0.218716 0.051035 0
vt 0.132138 0.241512 0
vt 0.218716 0.007291 0
vt 0.226577 0.007291 0
vt -0.218716 0.007291 0
vt -0.132138 0.241512 0
vt -0.226577 0.007291 0
vt 0.058326 0.174577 0
vt 0.018227 0.174577 0
vt 0.018227 -0.077967 0
vt 0.051035 0.174577 0
vt -0.051035 0.205574 0
vt 0 0.432757 0
vt -0.171549 0.007291 0
vt -0.018227 -0.075027 0
vt -0.051035 0.490527 0
vt -0.051035 -0.075027 0
vt 0.007227 0.531813 0
vt 0.058326 -0.057389 0
vt 0.051035 0.40136 0
vt 0.051035 -0.057389 0
vt 0.171549 0.007291 0
vt -0.058326 -0.075027 0
vt -0.091134 0.490527 0
vt -0.091134 -0.075027 0
vt -0.007227 0.531813 0
vt 0.091134 0.174577 0
vt -0.051035 0.401914 0
vt -0.058326 0.230592 0
vt -0.051035 0.230592 0
vt -0.287375 0.280989 0
vt -0.164256 0.161855 0
vt -0.058326 0.490527 0
vt -0.018227 0.490527 0
vt 0.129387 0.248335 0
vt 0.058326 0.40136 0
vt -0.129387 0.248335 0
vt 0.091134 0.347762 0
vt 0.058326 0.187584 0
vt 0.091134 0.187584 0
vt 0.091134 0.181934 0
vt -0.058326 0.401914 0
vt 0.051035 0.181934 0
vt 0.058326 0.347762 0
vt 0.051035 0.187584 0
vt 0.051035 0.347762 0
vt 0.018227 0.187584 0
vt 0.018227 0.181934 0
vt 0.051035 0.43161 0
vt 0.058326 0.530929 0
vt 0.051035 0.530929 0
vt -0.018227 0.212865 0
vt -0.018227 0.205574 0
vt 0.287375 0.280989 0
vt 0.013989 0.534539 0
vt 0.058326 0.43161 0
vt -0.091134 0.205574 0
vt -0.013989 0.534539 0
vt 0.058326 0.181934 0
vt 0.091134 0.191993 0
vt 0.051035 0.184694 0
vt 0.058326 0.184694 0
vt 0.091134 0.184694 0
vt 0.018227 0.347762 0
vt 0.285241 0.287969 0
vt 0.091134 0.490527 0
vt 0.018227 0.490527 0
vt -0.091134 0.212865 0
vt -0.285241 0.287969 0
vt 0.091134 0.347414 0
vt 0.058326 0.186599 0
vt 0.091134 0.186599 0
vt 0.018227 0.191993 0
vt 0.018227 0.186599 0
vt 0.051035 0.186599 0
vt 0.018227 0.184694 0
vt 0.018227 0.347414 0
vt 1.0938 -8.44687 0
vt 0.004978 -7.63725 0
vt 0.004978 -7.88358 0
vt 1.0938 -7.88358 0
vt -0.149238 -9.3584 0
vt 1.15145 7.69905 0
vt -0.149235 7.69905 0
vt 0 2.33865 0
vt 0.066686 0 0
vt 0.066686 2.33865 0
vt 1.60265 -12.4257 0
vt 0.710337 -0 0
vt 0.710333 -12.4257 0
vt 0.901015 -9.3584 0
vt 1.60265 -0 0
vt -0.26886 -0.150696 0
vt -0.26886 -0.216598 0
vt -0.504065 -0.029015 0
vt 1.15145 -9.3584 0
vt -0.560149 0 0
vt -0.560149 -0.150696 0
vt -0.066686 0.255611 0
vt -0.095849 0.255611 0
vt 0 0.532546 0
vt -0.066686 0.532546 0
vt -0.066686 3.05194 0
vt -0.066686 0 0
vt -0.095849 3.05194 0
vt -1.82269 0.19531 0
vt -1.82269 0.493909 0
vt -0 0.19531 0
vt 0.066686 3.05194 0
vt 0 3.05194 0
vt 1.82269 0.223858 0
vt 0 0.223858 0
vt 1.82269 0.505065 0
vt -0.095849 0 0
vt -0 0.436417 0
vt 0 0.505065 0
vt -0.01284 0.479225 0
vt -0 0.493909 0
vt 2.60348 -4.35993 0
vt -1.07556 -4.21386 0
vt 2.60137 -4.47759 0
vt -1.07345 -4.0962 0
vt 0.945851 -6.75906 0
vt 0.358782 -0.136356 0
vt 0.35878 -6.75906 0
vt 0.814184 -0.136356 0
vt 3.59397 -9.05888 0
vt 4.13405 5.62994 0
vt 3.59398 5.62995 0
vt 12.7492 1.55642 0
vt 9.20407 0.997155 0
vt 12.2601 -0 0
vt 0.945852 -0.136356 0
vt -0.128238 -0 0
vt -0.284092 0.050853 0
vt -0.096083 0.102324 0
vt 4.13404 -9.05887 0
vt 9.20407 1.55642 0
vt 1.82269 0.065556 0
vt 0 0.102324 0
vt 0 0.065556 0
vt -0.329154 0.065556 0
vt 1.77621 -0 0
vt 0.518511 12.6201 0
vt 0.518494 0 0
vt 1.77623 12.6201 0
vt 1.82269 0.102324 0
vt -0.329154 0.102324 0
vt 1.82269 0.208101 0
vt 0 0.208101 0
vt 1.82269 0.555225 0
vt 0 0.477372 0
vt -1.82269 -0.080296 0
vt -1.82269 0.063683 0
vt -0 -0.080296 0
vt -0.329154 0.085551 0
vt -0.096083 0.133533 0
vt 0 0.555225 0
vt -0.284092 0.066363 0
vt -0 0.063683 0
vt -0.329154 0.133533 0
vt 0 0.085551 0
vt 0 0.133533 0
vt 1.82269 0.085551 0
vt 0.096083 0 0
vt 0.096083 3.05194 0
vt 0.329154 0 0
vt 0.329154 3.05194 0
vt 1.82269 0.133533 0

# 20 vertex normals
vn 0 0 -0.0254
vn 0 -0 0.0254
vn 0.0254 0 0
vn -0.0254 0 0
vn 0 -0.0254 -0
vn 0 0.0254 0
vn 0 0.00949833 -0.0235572
vn -0 -0.00949833 0.0235572
vn 0 0.0235572 0.00949833
vn 0 -0.0235572 -0.00949833
vn 0 0.0182535 0.0176627
vn 0 -0.0182535 -0.0176627
vn 0 -0.0246165 -0.00625996
vn 0 0.0246165 0.00625996
vn 0 -0.00184818 -0.0253327
vn 0 0.00184818 0.0253327
vn 0 0.007426 -0.0242902
vn 0 -0.007426 0.0242902
vn 0 0.00441066 -0.0250141
vn -0 -0.00441066 0.0250141

# Mesh 'mesh1_mesh1-geometry' with 204 faces
g mesh1_mesh1-geometry
usemtl material_0_2_8
f  1/1/1 2/2/1 3/3/1
f  2/2/1 1/1/1 4/4/1
f  3/3/2 2/2/2 1/1/2
f  4/4/2 1/1/2 2/2/2
f  5/5/3 3/6/3 2/7/3
f  2/7/4 3/6/4 5/5/4
f  6/8/5 1/9/5 3/10/5
f  3/10/6 1/9/6 6/8/6
f  1/10/4 7/11/4 4/12/4
f  4/12/3 7/11/3 1/10/3
f  4/13/6 8/14/6 2/6/6
f  2/6/5 8/14/5 4/13/5
f  3/6/3 5/5/3 6/15/3
f  6/15/4 5/5/4 3/6/4
f  9/16/6 5/15/6 2/6/6
f  2/6/5 5/15/5 9/16/5
f  1/9/5 6/8/5 10/17/5
f  10/17/6 6/8/6 1/9/6
f  7/11/4 1/10/4 10/8/4
f  10/8/3 1/10/3 7/11/3
f  7/18/6 11/19/6 4/13/6
f  4/13/5 11/19/5 7/18/5
f  4/13/6 12/20/6 8/14/6
f  8/14/5 12/20/5 4/13/5
f  13/21/6 2/6/6 8/14/6
f  8/14/5 2/6/5 13/21/5
f  7/22/2 6/3/2 5/2/2
f  5/2/1 6/3/1 7/22/1
f  14/23/6 5/15/6 9/16/6
f  9/16/5 5/15/5 14/23/5
f  9/16/6 2/6/6 15/24/6
f  15/24/5 2/6/5 9/16/5
f  6/3/2 7/22/2 10/25/2
f  10/25/1 7/22/1 6/3/1
f  11/19/6 7/18/6 16/26/6
f  16/26/5 7/18/5 11/19/5
f  4/13/6 11/19/6 12/20/6
f  12/20/5 11/19/5 4/13/5
f  17/27/7 8/28/7 12/29/7
f  12/29/8 8/28/8 17/27/8
f  11/19/6 8/14/6 12/20/6
f  12/20/5 8/14/5 11/19/5
f  15/24/6 2/6/6 13/21/6
f  13/21/5 2/6/5 15/24/5
f  18/30/6 13/21/6 8/14/6
f  8/14/5 13/21/5 18/30/5
f  8/28/7 19/31/7 13/32/7
f  13/32/8 19/31/8 8/28/8
f  20/33/9 13/34/9 8/35/9
f  8/35/10 13/34/10 20/33/10
f  5/15/6 14/23/6 7/18/6
f  7/18/5 14/23/5 5/15/5
f  21/36/6 14/23/6 9/16/6
f  9/16/5 14/23/5 21/36/5
f  22/37/3 9/38/3 15/39/3
f  15/39/4 9/38/4 22/37/4
f  15/24/6 21/36/6 9/16/6
f  9/16/5 21/36/5 15/24/5
f  16/26/6 7/18/6 14/23/6
f  14/23/5 7/18/5 16/26/5
f  11/19/6 16/26/6 18/30/6
f  18/30/5 16/26/5 11/19/5
f  11/40/4 23/41/4 12/42/4
f  12/42/3 23/41/3 11/40/3
f  19/31/7 8/28/7 17/27/7
f  17/27/8 8/28/8 19/31/8
f  17/27/7 12/29/7 24/43/7
f  24/43/8 12/29/8 17/27/8
f  8/14/6 11/19/6 18/30/6
f  18/30/5 11/19/5 8/14/5
f  13/32/7 22/44/7 15/45/7
f  15/45/8 22/44/8 13/32/8
f  21/36/6 15/24/6 13/21/6
f  13/21/5 15/24/5 21/36/5
f  13/21/6 18/30/6 21/36/6
f  21/36/5 18/30/5 13/21/5
f  25/46/7 13/32/7 19/31/7
f  19/31/8 13/32/8 25/46/8
f  13/34/9 20/33/9 26/47/9
f  26/47/10 20/33/10 13/34/10
f  21/36/6 16/26/6 14/23/6
f  14/23/5 16/26/5 21/36/5
f  27/48/4 21/40/4 14/49/4
f  14/49/3 21/40/3 27/48/3
f  9/50/8 28/51/8 21/52/8
f  21/52/7 28/51/7 9/50/7
f  9/38/3 22/37/3 29/53/3
f  29/53/4 22/37/4 9/38/4
f  16/54/7 27/55/7 14/56/7
f  14/56/8 27/55/8 16/54/8
f  18/38/3 30/48/3 16/57/3
f  16/57/4 30/48/4 18/38/4
f  16/26/6 21/36/6 18/30/6
f  18/30/5 21/36/5 16/26/5
f  18/58/8 31/59/8 11/60/8
f  11/60/7 31/59/7 18/58/7
f  23/41/4 11/40/4 31/61/4
f  31/61/3 11/40/3 23/41/3
f  24/43/7 12/29/7 23/62/7
f  23/62/8 12/29/8 24/43/8
f  17/27/7 25/46/7 19/31/7
f  19/31/8 25/46/8 17/27/8
f  32/63/11 17/64/11 19/65/11
f  19/65/12 17/64/12 32/63/12
f  25/46/7 17/27/7 24/43/7
f  24/43/8 17/27/8 25/46/8
f  33/66/4 17/67/4 24/41/4
f  24/41/3 17/67/3 33/66/3
f  22/44/7 13/32/7 25/46/7
f  25/46/8 13/32/8 22/44/8
f  21/52/8 34/68/8 18/58/8
f  18/58/7 34/68/7 21/52/7
f  32/66/4 19/67/4 25/41/4
f  25/41/3 19/67/3 32/66/3
f  21/40/4 27/48/4 28/61/4
f  28/61/3 27/48/3 21/40/3
f  28/51/8 9/50/8 29/69/8
f  29/69/7 9/50/7 28/51/7
f  34/68/8 21/52/8 28/51/8
f  28/51/7 21/52/7 34/68/7
f  29/53/3 22/37/3 35/70/3
f  35/70/4 22/37/4 29/53/4
f  27/55/7 16/54/7 30/71/7
f  30/71/8 16/54/8 27/55/8
f  30/48/3 18/38/3 34/53/3
f  34/53/4 18/38/4 30/48/4
f  31/59/8 18/58/8 34/68/8
f  34/68/7 18/58/7 31/59/7
f  23/41/4 31/61/4 36/72/4
f  36/72/3 31/61/3 23/41/3
f  37/73/13 24/74/13 23/75/13
f  23/75/14 24/74/14 37/73/14
f  36/76/7 24/43/7 23/62/7
f  23/62/8 24/43/8 36/76/8
f  17/64/11 32/63/11 33/77/11
f  33/77/12 32/63/12 17/64/12
f  24/43/7 38/78/7 25/46/7
f  25/46/8 38/78/8 24/43/8
f  33/79/13 25/80/13 24/74/13
f  24/74/14 25/80/14 33/79/14
f  24/74/13 37/73/13 33/79/13
f  33/79/14 37/73/14 24/74/14
f  32/81/13 22/82/13 25/80/13
f  25/80/14 22/82/14 32/81/14
f  25/46/7 35/83/7 22/44/7
f  22/44/8 35/83/8 25/46/8
f  25/80/13 33/79/13 32/81/13
f  32/81/14 33/79/14 25/80/14
f  27/84/15 34/85/15 28/86/15
f  28/86/16 34/85/16 27/84/16
f  39/87/9 28/47/9 29/88/9
f  29/88/10 28/47/10 39/87/10
f  28/47/9 39/87/9 34/33/9
f  34/33/10 39/87/10 28/47/10
f  40/89/3 35/70/3 22/37/3
f  22/37/4 35/70/4 40/89/4
f  29/53/3 35/70/3 39/90/3
f  39/90/4 35/70/4 29/53/4
f  34/85/15 27/84/15 30/91/15
f  30/91/16 27/84/16 34/85/16
f  34/33/9 39/87/9 31/92/9
f  31/92/10 39/87/10 34/33/10
f  36/72/4 31/61/4 41/93/4
f  41/93/3 31/61/3 36/72/3
f  36/72/4 37/66/4 23/41/4
f  23/41/3 37/66/3 36/72/3
f  24/43/7 36/76/7 42/94/7
f  42/94/8 36/76/8 24/43/8
f  43/95/17 32/96/17 33/97/17
f  33/97/18 32/96/18 43/95/18
f  38/78/7 24/43/7 42/94/7
f  42/94/8 24/43/8 38/78/8
f  35/83/7 25/46/7 38/78/7
f  38/78/8 25/46/8 35/83/8
f  43/95/17 33/97/17 37/98/17
f  37/98/18 33/97/18 43/95/18
f  22/82/13 32/81/13 40/99/13
f  40/99/14 32/81/14 22/82/14
f  35/70/3 40/89/3 44/100/3
f  44/100/4 40/89/4 35/70/4
f  35/83/7 41/101/7 39/102/7
f  39/102/8 41/101/8 35/83/8
f  31/92/9 39/87/9 41/103/9
f  41/103/10 39/87/10 31/92/10
f  41/101/7 42/94/7 36/76/7
f  36/76/8 42/94/8 41/101/8
f  37/66/4 36/72/4 43/104/4
f  43/104/3 36/72/3 37/66/3
f  43/105/13 42/106/13 36/107/13
f  36/107/14 42/106/14 43/105/14
f  44/108/17 32/96/17 43/95/17
f  43/95/18 32/96/18 44/108/18
f  35/109/13 38/110/13 42/106/13
f  42/106/14 38/110/14 35/109/14
f  41/101/7 38/78/7 42/94/7
f  42/94/8 38/78/8 41/101/8
f  41/101/7 35/83/7 38/78/7
f  38/78/8 35/83/8 41/101/8
f  32/96/17 44/108/17 40/111/17
f  40/111/18 44/108/18 32/96/18
f  35/109/13 43/105/13 44/112/13
f  44/112/14 43/105/14 35/109/14
f  42/106/13 43/105/13 35/109/13
f  35/109/14 43/105/14 42/106/14

# Mesh 'mesh1_mesh1-geometry' with 204 faces
g mesh1_mesh1-geometry
usemtl material_0_2_8
f  45/1/1 46/2/1 47/3/1
f  46/2/1 45/1/1 48/4/1
f  47/3/2 46/2/2 45/1/2
f  48/4/2 45/1/2 46/2/2
f  49/5/3 47/6/3 46/7/3
f  46/7/4 47/6/4 49/5/4
f  50/8/5 45/9/5 47/10/5
f  47/10/6 45/9/6 50/8/6
f  45/10/4 51/11/4 48/12/4
f  48/12/3 51/11/3 45/10/3
f  48/13/6 52/14/6 46/6/6
f  46/6/5 52/14/5 48/13/5
f  47/6/3 49/5/3 50/15/3
f  50/15/4 49/5/4 47/6/4
f  53/16/6 49/15/6 46/6/6
f  46/6/5 49/15/5 53/16/5
f  45/9/5 50/8/5 54/17/5
f  54/17/6 50/8/6 45/9/6
f  51/11/4 45/10/4 54/8/4
f  54/8/3 45/10/3 51/11/3
f  51/18/6 55/19/6 48/13/6
f  48/13/5 55/19/5 51/18/5
f  48/13/6 56/20/6 52/14/6
f  52/14/5 56/20/5 48/13/5
f  57/21/6 46/6/6 52/14/6
f  52/14/5 46/6/5 57/21/5
f  51/22/2 50/3/2 49/2/2
f  49/2/1 50/3/1 51/22/1
f  58/23/6 49/15/6 53/16/6
f  53/16/5 49/15/5 58/23/5
f  53/16/6 46/6/6 59/24/6
f  59/24/5 46/6/5 53/16/5
f  50/3/2 51/22/2 54/25/2
f  54/25/1 51/22/1 50/3/1
f  55/19/6 51/18/6 60/26/6
f  60/26/5 51/18/5 55/19/5
f  48/13/6 55/19/6 56/20/6
f  56/20/5 55/19/5 48/13/5
f  61/27/7 52/28/7 56/29/7
f  56/29/8 52/28/8 61/27/8
f  55/19/6 52/14/6 56/20/6
f  56/20/5 52/14/5 55/19/5
f  59/24/6 46/6/6 57/21/6
f  57/21/5 46/6/5 59/24/5
f  62/30/6 57/21/6 52/14/6
f  52/14/5 57/21/5 62/30/5
f  52/28/7 63/31/7 57/32/7
f  57/32/8 63/31/8 52/28/8
f  64/33/9 57/34/9 52/35/9
f  52/35/10 57/34/10 64/33/10
f  49/15/6 58/23/6 51/18/6
f  51/18/5 58/23/5 49/15/5
f  65/36/6 58/23/6 53/16/6
f  53/16/5 58/23/5 65/36/5
f  66/37/3 53/38/3 59/39/3
f  59/39/4 53/38/4 66/37/4
f  59/24/6 65/36/6 53/16/6
f  53/16/5 65/36/5 59/24/5
f  60/26/6 51/18/6 58/23/6
f  58/23/5 51/18/5 60/26/5
f  55/19/6 60/26/6 62/30/6
f  62/30/5 60/26/5 55/19/5
f  55/40/4 67/41/4 56/42/4
f  56/42/3 67/41/3 55/40/3
f  63/31/7 52/28/7 61/27/7
f  61/27/8 52/28/8 63/31/8
f  61/27/7 56/29/7 68/43/7
f  68/43/8 56/29/8 61/27/8
f  52/14/6 55/19/6 62/30/6
f  62/30/5 55/19/5 52/14/5
f  57/32/7 66/44/7 59/45/7
f  59/45/8 66/44/8 57/32/8
f  65/36/6 59/24/6 57/21/6
f  57/21/5 59/24/5 65/36/5
f  57/21/6 62/30/6 65/36/6
f  65/36/5 62/30/5 57/21/5
f  69/46/7 57/32/7 63/31/7
f  63/31/8 57/32/8 69/46/8
f  57/34/9 64/33/9 70/47/9
f  70/47/10 64/33/10 57/34/10
f  65/36/6 60/26/6 58/23/6
f  58/23/5 60/26/5 65/36/5
f  71/48/4 65/40/4 58/49/4
f  58/49/3 65/40/3 71/48/3
f  53/50/8 72/51/8 65/52/8
f  65/52/7 72/51/7 53/50/7
f  53/38/3 66/37/3 73/53/3
f  73/53/4 66/37/4 53/38/4
f  60/54/7 71/55/7 58/56/7
f  58/56/8 71/55/8 60/54/8
f  62/38/3 74/48/3 60/57/3
f  60/57/4 74/48/4 62/38/4
f  60/26/6 65/36/6 62/30/6
f  62/30/5 65/36/5 60/26/5
f  62/58/8 75/59/8 55/60/8
f  55/60/7 75/59/7 62/58/7
f  67/41/4 55/40/4 75/61/4
f  75/61/3 55/40/3 67/41/3
f  68/43/7 56/29/7 67/62/7
f  67/62/8 56/29/8 68/43/8
f  61/27/7 69/46/7 63/31/7
f  63/31/8 69/46/8 61/27/8
f  76/63/11 61/64/11 63/65/11
f  63/65/12 61/64/12 76/63/12
f  69/46/7 61/27/7 68/43/7
f  68/43/8 61/27/8 69/46/8
f  77/66/4 61/67/4 68/41/4
f  68/41/3 61/67/3 77/66/3
f  66/44/7 57/32/7 69/46/7
f  69/46/8 57/32/8 66/44/8
f  65/52/8 78/68/8 62/58/8
f  62/58/7 78/68/7 65/52/7
f  76/66/4 63/67/4 69/41/4
f  69/41/3 63/67/3 76/66/3
f  65/40/4 71/48/4 72/61/4
f  72/61/3 71/48/3 65/40/3
f  72/51/8 53/50/8 73/69/8
f  73/69/7 53/50/7 72/51/7
f  78/68/8 65/52/8 72/51/8
f  72/51/7 65/52/7 78/68/7
f  73/53/3 66/37/3 79/70/3
f  79/70/4 66/37/4 73/53/4
f  71/55/7 60/54/7 74/71/7
f  74/71/8 60/54/8 71/55/8
f  74/48/3 62/38/3 78/53/3
f  78/53/4 62/38/4 74/48/4
f  75/59/8 62/58/8 78/68/8
f  78/68/7 62/58/7 75/59/7
f  67/41/4 75/61/4 80/72/4
f  80/72/3 75/61/3 67/41/3
f  81/73/13 68/74/13 67/75/13
f  67/75/14 68/74/14 81/73/14
f  80/76/7 68/43/7 67/62/7
f  67/62/8 68/43/8 80/76/8
f  61/64/11 76/63/11 77/77/11
f  77/77/12 76/63/12 61/64/12
f  68/43/7 82/78/7 69/46/7
f  69/46/8 82/78/8 68/43/8
f  77/79/13 69/80/13 68/74/13
f  68/74/14 69/80/14 77/79/14
f  68/74/13 81/73/13 77/79/13
f  77/79/14 81/73/14 68/74/14
f  76/81/13 66/82/13 69/80/13
f  69/80/14 66/82/14 76/81/14
f  69/46/7 79/83/7 66/44/7
f  66/44/8 79/83/8 69/46/8
f  69/80/13 77/79/13 76/81/13
f  76/81/14 77/79/14 69/80/14
f  71/84/15 78/85/15 72/86/15
f  72/86/16 78/85/16 71/84/16
f  83/87/9 72/47/9 73/88/9
f  73/88/10 72/47/10 83/87/10
f  72/47/9 83/87/9 78/33/9
f  78/33/10 83/87/10 72/47/10
f  84/89/3 79/70/3 66/37/3
f  66/37/4 79/70/4 84/89/4
f  73/53/3 79/70/3 83/90/3
f  83/90/4 79/70/4 73/53/4
f  78/85/15 71/84/15 74/91/15
f  74/91/16 71/84/16 78/85/16
f  78/33/9 83/87/9 75/92/9
f  75/92/10 83/87/10 78/33/10
f  80/72/4 75/61/4 85/93/4
f  85/93/3 75/61/3 80/72/3
f  80/72/4 81/66/4 67/41/4
f  67/41/3 81/66/3 80/72/3
f  68/43/7 80/76/7 86/94/7
f  86/94/8 80/76/8 68/43/8
f  87/95/17 76/96/17 77/97/17
f  77/97/18 76/96/18 87/95/18
f  82/78/7 68/43/7 86/94/7
f  86/94/8 68/43/8 82/78/8
f  79/83/7 69/46/7 82/78/7
f  82/78/8 69/46/8 79/83/8
f  87/95/17 77/97/17 81/98/17
f  81/98/18 77/97/18 87/95/18
f  66/82/13 76/81/13 84/99/13
f  84/99/14 76/81/14 66/82/14
f  79/70/3 84/89/3 88/100/3
f  88/100/4 84/89/4 79/70/4
f  79/83/7 85/101/7 83/102/7
f  83/102/8 85/101/8 79/83/8
f  75/92/9 83/87/9 85/103/9
f  85/103/10 83/87/10 75/92/10
f  85/101/7 86/94/7 80/76/7
f  80/76/8 86/94/8 85/101/8
f  81/66/4 80/72/4 87/104/4
f  87/104/3 80/72/3 81/66/3
f  87/105/13 86/106/13 80/107/13
f  80/107/14 86/106/14 87/105/14
f  88/108/17 76/96/17 87/95/17
f  87/95/18 76/96/18 88/108/18
f  79/109/13 82/110/13 86/106/13
f  86/106/14 82/110/14 79/109/14
f  85/101/7 82/78/7 86/94/7
f  86/94/8 82/78/8 85/101/8
f  85/101/7 79/83/7 82/78/7
f  82/78/8 79/83/8 85/101/8
f  76/96/17 88/108/17 84/111/17
f  84/111/18 88/108/18 76/96/18
f  79/109/13 87/105/13 88/112/13
f  88/112/14 87/105/14 79/109/14
f  86/106/13 87/105/13 79/109/13
f  79/109/14 87/105/14 86/106/14

# Mesh 'mesh2_mesh2-geometry' with 12 faces
g mesh2_mesh2-geometry
usemtl material_1_3_8
f  89/113/4 90/114/4 91/115/4
f  90/114/4 89/113/4 92/116/4
f  93/117/8 89/118/8 91/119/8
f  89/120/6 94/121/6 92/122/6
f  92/123/19 95/124/19 90/125/19
f  96/126/8 89/118/8 93/117/8
f  94/121/6 89/120/6 97/3/6
f  95/124/19 92/123/19 94/127/19
f  93/128/3 95/129/3 96/130/3
f  89/118/8 96/126/8 97/131/8
f  97/132/3 96/130/3 94/133/3
f  94/133/3 96/130/3 95/129/3

# Mesh 'mesh2_mesh2-geometry' with 14 faces
g mesh2_mesh2-geometry
usemtl material_2_1_8
f  91/134/3 90/135/3 89/136/3
f  92/137/3 89/136/3 90/135/3
f  91/138/6 93/139/6 90/140/6
f  91/141/7 89/142/7 93/143/7
f  92/144/5 94/121/5 89/145/5
f  90/146/20 95/147/20 92/148/20
f  95/149/6 90/140/6 93/139/6
f  93/143/7 89/142/7 96/150/7
f  97/3/5 89/145/5 94/121/5
f  94/151/20 92/148/20 95/147/20
f  96/152/4 95/135/4 93/134/4
f  97/153/7 96/150/7 89/142/7
f  94/137/4 96/152/4 97/136/4
f  95/135/4 96/152/4 94/137/4

# Mesh 'mesh2_mesh2-geometry' with 2 faces
g mesh2_mesh2-geometry
usemtl material_3_4_8
f  90/154/5 93/155/5 91/156/5
f  93/155/5 90/154/5 95/157/5

# Mesh 'mesh3_mesh3-geometry' with 14 faces
g mesh3_mesh3-geometry
usemtl material_1_3_8
f  98/158/13 99/159/13 100/160/13
f  99/159/13 98/158/13 101/161/13
f  99/162/8 102/163/8 100/164/8
f  102/165/4 98/166/4 100/167/4
f  101/161/13 98/158/13 103/168/13
f  99/169/3 101/170/3 104/171/3
f  102/163/8 99/162/8 104/172/8
f  98/166/4 102/165/4 105/173/4
f  98/174/1 106/175/1 103/176/1
f  103/177/3 104/171/3 101/170/3
f  106/178/6 102/179/6 104/180/6
f  102/179/6 106/178/6 105/181/6
f  106/175/1 98/174/1 105/182/1
f  106/183/3 104/171/3 103/177/3

# Mesh 'mesh3_mesh3-geometry' with 14 faces
g mesh3_mesh3-geometry
usemtl material_2_1_8
f  100/184/14 99/185/14 98/186/14
f  101/187/14 98/186/14 99/185/14
f  100/188/7 102/189/7 99/190/7
f  100/169/3 98/191/3 102/192/3
f  103/193/14 98/186/14 101/187/14
f  104/192/4 101/194/4 99/169/4
f  104/195/7 99/190/7 102/189/7
f  105/196/3 102/192/3 98/191/3
f  103/197/2 106/198/2 98/199/2
f  101/194/4 104/192/4 103/191/4
f  104/200/5 102/201/5 106/202/5
f  105/203/5 106/202/5 102/201/5
f  105/204/2 98/199/2 106/198/2
f  103/191/4 104/192/4 106/196/4

