# File produced by Open Asset Import Library (http://www.assimp.sf.net)
# (assimp v3.2.202087883)

mtllib model_normalized.mtl

# 122 vertex positions
v 0.002709 0.491220 -0.043284
v 0.004405 -0.311348 -0.044994
v 0.002709 -0.313052 -0.043284
v 0.004405 0.489517 -0.044994
v 0.253749 -0.313052 -0.043284
v 0.002709 0.491220 -0.027900
v 0.252052 0.489517 -0.044994
v 0.079039 0.489517 -0.044994
v 0.252052 -0.311348 -0.044994
v 0.253749 -0.313052 -0.027900
v 0.002709 -0.313052 -0.027900
v 0.253749 0.491220 -0.043284
v 0.004405 0.491220 -0.043284
v 0.177419 0.489517 -0.044994
v 0.079039 0.414559 -0.044994
v 0.079039 -0.311348 -0.044994
v 0.253749 0.491220 -0.027900
v 0.177419 0.414559 -0.044994
v 0.079039 -0.236390 -0.044994
v 0.177419 -0.311348 -0.044994
v 0.079039 -0.236390 -0.040720
v 0.177419 -0.236390 -0.044994
v 0.177419 0.414559 -0.040720
v 0.079039 0.414559 -0.040720
v 0.177419 -0.236390 -0.040720
v 0.076246 -0.279285 -0.044994
v 0.087705 -0.270157 -0.044994
v 0.076246 -0.270157 -0.044994
v 0.087705 -0.279285 -0.044994
v 0.076246 -0.270157 -0.067385
v 0.076246 -0.279285 -0.067385
v 0.087705 -0.279285 -0.056531
v 0.087705 -0.270157 -0.056531
v 0.168043 -0.270157 -0.056531
v 0.180212 -0.270157 -0.067385
v 0.168043 -0.279285 -0.056531
v 0.180212 -0.279285 -0.067385
v 0.180212 -0.270157 -0.044994
v 0.180212 -0.279285 -0.044994
v 0.168043 -0.279285 -0.044994
v 0.168043 -0.270157 -0.044994
v -0.002903 -0.313052 -0.043284
v -0.004599 -0.311348 -0.044994
v -0.002903 0.491220 -0.043284
v -0.253942 -0.313052 -0.043284
v -0.004599 0.489517 -0.044994
v -0.002903 0.491220 -0.027900
v -0.253942 -0.313052 -0.027900
v -0.252247 -0.311348 -0.044994
v -0.252247 0.489517 -0.044994
v -0.079233 0.489517 -0.044994
v -0.253942 0.491220 -0.043284
v -0.002903 -0.313052 -0.027900
v -0.079233 -0.311348 -0.044994
v -0.177614 0.489517 -0.044994
v -0.004599 0.491220 -0.043284
v -0.079233 0.414559 -0.044994
v -0.253942 0.491220 -0.027900
v -0.079233 -0.236390 -0.044994
v -0.177614 -0.311348 -0.044994
v -0.177614 0.414559 -0.044994
v -0.177614 -0.236390 -0.044994
v -0.079233 -0.236390 -0.040720
v -0.177614 0.414559 -0.040720
v -0.079233 0.414559 -0.040720
v -0.177614 -0.236390 -0.040720
v -0.076439 -0.270157 -0.044994
v -0.087899 -0.270157 -0.044994
v -0.076439 -0.279285 -0.044994
v -0.076439 -0.270157 -0.067385
v -0.087899 -0.279285 -0.044994
v -0.087899 -0.270157 -0.056531
v -0.076439 -0.279285 -0.067385
v -0.087899 -0.279285 -0.056531
v -0.168238 -0.270157 -0.056531
v -0.180406 -0.270157 -0.067385
v -0.168238 -0.279285 -0.056531
v -0.180406 -0.279285 -0.067385
v -0.180406 -0.270157 -0.044994
v -0.168238 -0.270157 -0.044994
v -0.168238 -0.279285 -0.044994
v -0.180406 -0.279285 -0.044994
v -0.240826 -0.095104 0.211416
v 0.241224 -0.110488 0.211416
v 0.241224 -0.095104 0.211416
v -0.240826 -0.110488 0.211416
v 0.241224 -0.095104 -0.019353
v -0.240826 -0.110488 -0.019353
v 0.241224 -0.110488 -0.019353
v -0.240826 -0.095104 -0.019353
v -0.240826 0.094640 0.211416
v 0.241224 0.079255 0.211416
v 0.241224 0.094640 0.211416
v -0.240826 0.079255 0.211416
v 0.241224 0.094640 -0.019353
v -0.240826 0.079255 -0.019353
v 0.241224 0.079255 -0.019353
v -0.240826 0.094640 -0.019353
v 0.256609 -0.315616 -0.027900
v 0.241224 -0.300231 -0.027900
v 0.256609 0.496348 -0.027900
v -0.256211 -0.315616 -0.027900
v 0.241224 0.480964 -0.027900
v 0.256609 -0.315616 0.211416
v -0.240826 -0.300231 -0.027900
v -0.256211 0.496348 -0.027900
v 0.241224 0.480964 0.211416
v 0.256609 0.496348 0.211416
v -0.256211 -0.315616 0.211416
v -0.240826 0.480964 -0.027900
v -0.240826 -0.300231 0.211416
v -0.256211 0.496348 0.211416
v 0.241224 -0.300231 0.211416
v -0.240826 0.480964 0.211416
v -0.240826 0.284383 0.211416
v 0.241224 0.268998 0.211416
v 0.241224 0.284383 0.211416
v -0.240826 0.268998 0.211416
v 0.241224 0.284383 -0.019353
v -0.240826 0.268998 -0.019353
v 0.241224 0.268998 -0.019353
v -0.240826 0.284383 -0.019353

# 198 UV coordinates
vt -0.275659 -20.8799 0
vt -0.271965 -20.138 0
vt -0.275659 -20.1364 0
vt -0.271965 -20.8784 0
vt 0.394491 -0.978723 0
vt 0.390788 -0.748225 0
vt 0.390788 -0.980291 0
vt -0.299264 -20.8799 0
vt 0.085937 -20.9552 0
vt 0.393411 -0.006315 0
vt 0.507921 -0.74665 0
vt 0.507921 -0.006315 0
vt 0.394491 -0.749793 0
vt 0.367183 -0.748225 0
vt -0.299264 -20.1364 0
vt 0.367184 0.227325 0
vt 0.390788 -0.004741 0
vt 0.390788 0.227325 0
vt -0.273208 -20.8805 0
vt -0.021924 -20.9321 0
vt 0.393411 -0.075608 0
vt -0.164104 -20.9015 0
vt 0.394491 -0.90973 0
vt 0.394483 -0.74665 0
vt 0.367183 -0.980291 0
vt -0.017988 -0.748225 0
vt 0.367184 -0.004741 0
vt -0.017988 -0.004741 0
vt 0.390788 0.225757 0
vt 0.087145 -20.9579 0
vt 0.394483 -0.006315 0
vt 0.508993 -0.075608 0
vt 0.508993 -0.006315 0
vt 0.393411 -0.677358 0
vt 0.508417 -10.7539 0
vt 0.393409 -10.8448 0
vt 0.508417 -10.8448 0
vt 0.393411 -0.74665 0
vt 0.394491 -0.818786 0
vt 0.508993 -0.74665 0
vt 0.393409 -10.7539 0
vt 0.386854 -0.677358 0
vt 16.2074 -10.7539 0
vt 16.0924 -10.8448 0
vt 16.2074 -10.8448 0
vt 16.0924 -10.7539 0
vt 0.508993 -0.677358 0
vt 0.386852 -10.7539 0
vt 0.386854 -0.075608 0
vt 0.393411 -0.768302 0
vt 0.386854 -1.37005 0
vt 0.393411 -1.37005 0
vt 0.386852 -10.8448 0
vt 0.235909 -0.075608 0
vt 0.386854 -0.768302 0
vt 0.235908 -0.677358 0
vt 0 -0.212277 0
vt 0.00218 -0.209196 0
vt 1.02909 -0.212277 0
vt 1.02691 -0.209196 0
vt 0.321213 0.013943 0
vt -0 0.013943 0
vt 0.319042 0.017031 0
vt 1.02909 0.019685 0
vt 1.02909 0 0
vt 0 0.019685 0
vt -0.319042 -0.709405 0
vt -0.00217 -0.709405 0
vt -0.321213 -0.712493 0
vt 0.319042 1.02691 0
vt 0.319042 0.00218 0
vt 0.223547 1.02691 0
vt 0.00217 0.017031 0
vt 0.321213 0.019685 0
vt -0 0 0
vt -0.321213 0.019685 0
vt -0.321213 0 0
vt -0.319042 -0.712493 0
vt -0.097666 -0.709405 0
vt 0.223547 0.931 0
vt -0.223547 -0.709405 0
vt 0.223547 0.017031 0
vt -0 0.013973 0
vt -1.02909 0.013973 0
vt -0.00218 0.017055 0
vt 0.321213 0 0
vt -1.02909 0.019685 0
vt -0.321213 1.02909 0
vt -0 1.02909 0
vt -0.319042 0.019685 0
vt 0 -0.712493 0
vt 0.097666 1.02691 0
vt 0.097666 0.931 0
vt 0.00217 1.02691 0
vt 0.223547 0.098091 0
vt 0.223547 0.00218 0
vt 0.097666 0.017031 0
vt -1.02691 0.017055 0
vt -1.02909 0 0
vt 0.097666 0.00218 0
vt -0.098091 0.021872 0
vt -0.098091 0.016404 0
vt -0.931 0.021872 0
vt 0.097666 0.098091 0
vt 0.00217 0.00218 0
vt 0.097666 0.021872 0
vt 0.223547 0.021872 0
vt 0.097666 0.016404 0
vt -0.931 0.016404 0
vt -0.223547 0.021872 0
vt -0.097666 0.021872 0
vt -0.223547 0.016404 0
vt 0.931 0.021872 0
vt 0.931 0.016404 0
vt 0.098091 0.021872 0
vt 0.223547 0.016404 0
vt -0.097666 0.016404 0
vt 0.098091 0.016404 0
vt -0.023607 -21.2576 0
vt -2e-06 -20.812 0
vt -0.023607 -20.812 0
vt -2e-06 -21.2576 0
vt -0.023607 -20.5986 0
vt 16.6288 -20.812 0
vt 16.9828 -21.2576 0
vt 16.9828 -20.812 0
vt 16.6288 -21.2718 0
vt 16.9828 -21.2718 0
vt 0.3844 -20.968 0
vt 0.030331 -20.5223 0
vt 0.030331 -20.968 0
vt -2e-06 -20.5986 0
vt 16.6288 -21.2576 0
vt 0.3844 -20.5223 0
vt 16.6052 -21.2576 0
vt 16.6052 -20.812 0
vt 1.61299 0.47406 0
vt 1.58938 0.488282 0
vt 0.367184 0.47406 0
vt 1.61299 0.94812 0
vt 1.94611 -0 0
vt 1.96972 -0.736374 0
vt 1.94611 -0.750595 0
vt 2.73294 -0.750595 0
vt 0.390788 0.488282 0
vt 1.96972 -0.014222 0
vt -0 -0.276535 0
vt 0.367184 -0.276535 0
vt -1.23273 -0.750595 0
vt -1.59991 -0.750595 0
vt -1.23273 0 0
vt -1.2458 0.47406 0
vt -1.61299 0.94812 0
vt -1.61299 0.47406 0
vt -1.59991 -0.971823 0
vt -2.38673 -0.971823 0
vt 1.58938 0.933899 0
vt 2.70933 -0.736374 0
vt 0.367184 0.94812 0
vt 2.73294 -0 0
vt 0.367184 0.488282 0
vt 0 -0.23387 0
vt 0.367184 -0.23387 0
vt -1.9907 -0.014222 0
vt -1.62352 -0.014222 0
vt -1.9907 -0.736373 0
vt -0 0.47406 0
vt -1.59991 0 0
vt -1.2458 0.94812 0
vt -2.38673 -0.750595 0
vt 0.390788 0.933899 0
vt 2.70933 -0.014222 0
vt 0 0.933899 0
vt 0.367184 0.933899 0
vt -2.36313 -0.515145 0
vt -1.62352 -0.515145 0
vt -2.36313 -0.736373 0
vt -0 0.94812 0
vt 0 0.488282 0
vt -1.62352 -0.736373 0
vt -0.023605 0.488282 0
vt -0.390788 0.933899 0
vt -0.390788 0.488282 0
vt -1.62352 -0.23545 0
vt -2.36313 -0.23545 0
vt -1.2222 0.488282 0
vt 0.367184 1.69872 0
vt -0 1.69872 0
vt -2.75392 -0.750595 0
vt -2.38673 0 0
vt 0.367184 1.65605 0
vt -1.99595 -0.736373 0
vt -1.99595 -0.014222 0
vt -2.75392 0 0
vt -0.023605 0.933899 0
vt -2.36313 -0.014222 0
vt -1.2222 0.933899 0
vt 0 1.65605 0

# 18 vertex normals
vn -0.0180299 0 -0.0178908
vn 0 -0.0179911 -0.0179299
vn -0.0254 0 0
vn 0 0.0179911 -0.0179299
vn 0 0 -0.0254
vn 0 -0.0254 -0
vn 0 0.0254 0
vn 0.0180299 0 -0.0178908
vn 0.0254 0 0
vn 0 0 0.0254
vn 0.0180299 0 0.0178908
vn 0 0.0179911 0.0179299
vn 0 -0.0179911 0.0179299
vn -0.0180299 0 0.0178908
vn 0 0.0253136 -0
vn -0.0252041 0 0
vn 0 -0.0253136 0
vn 0.0252041 -0 0

# Mesh 'mesh1_mesh1-geometry' with 46 faces
g mesh1_mesh1-geometry
usemtl material_0_1_8
f  1/1/1 2/2/1 3/3/1
f  2/2/1 1/1/1 4/4/1
f  2/5/2 5/6/2 3/7/2
f  3/3/3 6/8/3 1/1/3
f  1/1/4 7/9/4 4/4/4
f  8/10/5 2/11/5 4/12/5
f  5/6/2 2/5/2 9/13/2
f  10/14/6 3/7/6 5/6/6
f  6/8/3 3/3/3 11/15/3
f  6/16/7 12/17/7 1/18/7
f  13/19/4 7/9/4 1/1/4
f  4/4/4 7/9/4 14/20/4
f  15/21/5 2/11/5 8/10/5
f  4/4/4 14/20/4 8/22/4
f  9/13/2 2/5/2 16/23/2
f  9/24/8 12/17/8 5/6/8
f  3/7/6 10/14/6 11/25/6
f  12/17/9 10/14/9 5/6/9
f  11/26/10 17/27/10 6/28/10
f  12/17/7 6/16/7 17/27/7
f  1/18/7 12/17/7 13/29/7
f  7/9/4 13/19/4 12/30/4
f  7/31/5 18/32/5 14/33/5
f  19/34/5 2/11/5 15/21/5
f  14/35/5 15/36/5 8/37/5
f  2/11/5 19/34/5 16/38/5
f  9/13/2 16/23/2 20/39/2
f  12/17/8 9/24/8 7/31/8
f  17/27/10 11/26/10 10/14/10
f  10/14/9 12/17/9 17/27/9
f  7/31/5 20/40/5 18/32/5
f  15/36/5 14/35/5 18/41/5
f  15/21/9 21/42/9 19/34/9
f  22/43/5 16/44/5 19/45/5
f  16/44/5 22/43/5 20/46/5
f  20/40/5 7/31/5 9/24/5
f  18/32/5 20/40/5 22/47/5
f  23/48/6 15/36/6 18/41/6
f  21/42/9 15/21/9 24/49/9
f  21/42/7 22/50/7 19/34/7
f  22/50/3 23/51/3 18/52/3
f  15/36/6 23/48/6 24/53/6
f  23/54/5 21/42/5 24/49/5
f  22/50/7 21/42/7 25/55/7
f  23/51/3 22/50/3 25/55/3
f  21/42/5 23/54/5 25/56/5

# Mesh 'mesh1_mesh1-geometry' with 46 faces
g mesh1_mesh1-geometry
usemtl material_1_2_8
f  3/57/11 2/58/11 1/59/11
f  4/60/11 1/59/11 2/58/11
f  3/61/12 5/62/12 2/63/12
f  1/64/9 6/65/9 3/66/9
f  4/67/13 7/68/13 1/69/13
f  4/70/10 2/71/10 8/72/10
f  9/73/12 2/63/12 5/62/12
f  5/66/7 3/74/7 10/75/7
f  11/75/9 3/66/9 6/65/9
f  1/76/6 12/66/6 6/77/6
f  1/69/13 7/68/13 13/78/13
f  14/79/13 7/68/13 4/67/13
f  8/72/10 2/71/10 15/80/10
f  8/81/13 14/79/13 4/67/13
f  16/82/12 2/63/12 9/73/12
f  5/83/14 12/84/14 9/85/14
f  11/86/7 10/75/7 3/74/7
f  5/66/3 10/75/3 12/87/3
f  6/88/5 17/89/5 11/77/5
f  17/75/6 6/77/6 12/66/6
f  13/90/6 12/66/6 1/76/6
f  12/91/13 13/78/13 7/68/13
f  14/92/10 18/93/10 7/94/10
f  15/80/10 2/71/10 19/95/10
f  8/72/10 15/80/10 14/92/10
f  16/96/10 19/95/10 2/71/10
f  20/97/12 16/82/12 9/73/12
f  7/98/14 9/85/14 12/84/14
f  10/75/5 11/77/5 17/89/5
f  17/99/3 12/87/3 10/75/3
f  18/93/10 20/100/10 7/94/10
f  18/93/10 14/92/10 15/80/10
f  19/101/3 21/102/3 15/103/3
f  19/95/10 16/96/10 22/104/10
f  20/100/10 22/104/10 16/96/10
f  9/105/10 7/94/10 20/100/10
f  22/104/10 20/100/10 18/93/10
f  18/106/7 15/107/7 23/108/7
f  24/109/3 15/103/3 21/102/3
f  19/110/6 22/111/6 21/112/6
f  18/113/9 23/114/9 22/115/9
f  24/116/7 23/108/7 15/107/7
f  24/80/10 21/95/10 23/93/10
f  25/117/6 21/112/6 22/111/6
f  25/118/9 22/115/9 23/114/9
f  25/104/10 23/93/10 21/95/10

# Mesh 'mesh2_mesh2-geometry' with 28 faces
g mesh2_mesh2-geometry
usemtl material_2_24
f  26//10 27//10 28//10
f  27//10 26//10 29//10
f  27//15 30//15 28//15
f  30//16 26//16 28//16
f  31//17 29//17 26//17
f  32//18 27//18 29//18
f  33//15 30//15 27//15
f  26//16 30//16 31//16
f  31//17 32//17 29//17
f  27//18 32//18 33//18
f  34//15 30//15 33//15
f  35//5 31//5 30//5
f  31//17 36//17 32//17
f  32//10 34//10 33//10
f  34//15 35//15 30//15
f  31//5 35//5 37//5
f  37//17 36//17 31//17
f  34//10 32//10 36//10
f  35//15 34//15 38//15
f  38//18 37//18 35//18
f  36//17 37//17 39//17
f  40//16 34//16 36//16
f  41//15 38//15 34//15
f  37//18 38//18 39//18
f  40//17 36//17 39//17
f  34//16 40//16 41//16
f  40//10 38//10 41//10
f  38//10 40//10 39//10

# Mesh 'mesh2_mesh2-geometry' with 28 faces
g mesh2_mesh2-geometry
usemtl material_3_24
f  28//5 27//5 26//5
f  29//5 26//5 27//5
f  28//17 30//17 27//17
f  28//18 26//18 30//18
f  26//15 29//15 31//15
f  29//16 27//16 32//16
f  27//17 30//17 33//17
f  31//18 30//18 26//18
f  29//15 32//15 31//15
f  33//16 32//16 27//16
f  33//17 30//17 34//17
f  30//10 31//10 35//10
f  32//15 36//15 31//15
f  33//5 34//5 32//5
f  30//17 35//17 34//17
f  37//10 35//10 31//10
f  31//15 36//15 37//15
f  36//5 32//5 34//5
f  38//17 34//17 35//17
f  35//16 37//16 38//16
f  39//15 37//15 36//15
f  36//18 34//18 40//18
f  34//17 38//17 41//17
f  39//16 38//16 37//16
f  39//15 36//15 40//15
f  41//18 40//18 34//18
f  41//5 38//5 40//5
f  39//5 40//5 38//5

# Mesh 'mesh3_mesh3-geometry' with 46 faces
g mesh3_mesh3-geometry
usemtl material_0_1_8
f  42/3/8 43/2/8 44/1/8
f  42/7/2 45/6/2 43/5/2
f  46/4/8 44/1/8 43/2/8
f  44/1/9 47/8/9 42/3/9
f  45/6/6 42/7/6 48/14/6
f  49/13/2 43/5/2 45/6/2
f  46/4/4 50/9/4 44/1/4
f  46/12/5 43/11/5 51/10/5
f  44/18/7 52/17/7 47/16/7
f  53/15/9 42/3/9 47/8/9
f  53/25/6 48/14/6 42/7/6
f  45/6/3 48/14/3 52/17/3
f  54/23/2 43/5/2 49/13/2
f  45/6/1 52/17/1 49/24/1
f  55/20/4 50/9/4 46/4/4
f  44/1/4 50/9/4 56/19/4
f  51/10/5 43/11/5 57/21/5
f  51/22/4 55/20/4 46/4/4
f  56/29/7 52/17/7 44/18/7
f  58/27/7 47/16/7 52/17/7
f  47/28/10 58/27/10 53/26/10
f  48/14/10 53/26/10 58/27/10
f  58/27/3 52/17/3 48/14/3
f  54/38/5 59/34/5 43/11/5
f  60/39/2 54/23/2 49/13/2
f  50/31/1 49/24/1 52/17/1
f  55/33/5 61/32/5 50/31/5
f  52/30/4 56/19/4 50/9/4
f  57/21/5 43/11/5 59/34/5
f  51/37/5 57/36/5 55/35/5
f  59/45/5 54/44/5 62/43/5
f  60/46/5 62/43/5 54/44/5
f  49/24/5 50/31/5 60/40/5
f  61/41/5 55/35/5 57/36/5
f  61/32/5 60/40/5 50/31/5
f  59/34/3 63/42/3 57/21/3
f  59/34/7 62/50/7 63/42/7
f  62/47/5 60/40/5 61/32/5
f  61/41/6 57/36/6 64/48/6
f  65/49/3 57/21/3 63/42/3
f  66/55/7 63/42/7 62/50/7
f  61/52/9 64/51/9 62/50/9
f  65/53/6 64/48/6 57/36/6
f  65/49/5 63/42/5 64/54/5
f  66/56/5 64/54/5 63/42/5
f  66/55/9 62/50/9 64/51/9

# Mesh 'mesh3_mesh3-geometry' with 46 faces
g mesh3_mesh3-geometry
usemtl material_1_2_8
f  44/59/14 43/58/14 42/57/14
f  43/63/12 45/62/12 42/61/12
f  43/58/14 44/59/14 46/60/14
f  42/66/3 47/65/3 44/64/3
f  48/75/7 42/74/7 45/66/7
f  45/62/12 43/63/12 49/73/12
f  44/69/13 50/68/13 46/67/13
f  51/72/10 43/71/10 46/70/10
f  47/77/6 52/66/6 44/76/6
f  47/65/3 42/66/3 53/75/3
f  42/74/7 48/75/7 53/86/7
f  52/87/9 48/75/9 45/66/9
f  49/73/12 43/63/12 54/82/12
f  49/85/11 52/84/11 45/83/11
f  46/67/13 50/68/13 55/79/13
f  56/78/13 50/68/13 44/69/13
f  57/80/10 43/71/10 51/72/10
f  46/67/13 55/79/13 51/81/13
f  44/76/6 52/66/6 56/90/6
f  52/66/6 47/77/6 58/75/6
f  53/77/5 58/89/5 47/88/5
f  58/89/5 53/77/5 48/75/5
f  48/75/9 52/87/9 58/99/9
f  43/71/10 59/95/10 54/96/10
f  49/73/12 54/82/12 60/97/12
f  52/84/11 49/85/11 50/98/11
f  50/94/10 61/93/10 55/92/10
f  50/68/13 56/78/13 52/91/13
f  59/95/10 43/71/10 57/80/10
f  55/92/10 57/80/10 51/72/10
f  62/104/10 54/96/10 59/95/10
f  54/96/10 62/104/10 60/100/10
f  60/100/10 50/94/10 49/105/10
f  57/80/10 55/92/10 61/93/10
f  50/94/10 60/100/10 61/93/10
f  57/103/9 63/102/9 59/101/9
f  63/112/6 62/111/6 59/110/6
f  61/93/10 60/100/10 62/104/10
f  64/108/7 57/107/7 61/106/7
f  63/102/9 57/103/9 65/109/9
f  62/111/6 63/112/6 66/117/6
f  62/115/3 64/114/3 61/113/3
f  57/107/7 64/108/7 65/116/7
f  64/93/10 63/95/10 65/80/10
f  63/95/10 64/93/10 66/104/10
f  64/114/3 62/115/3 66/118/3

# Mesh 'mesh4_mesh4-geometry' with 28 faces
g mesh4_mesh4-geometry
usemtl material_2_24
f  67//10 68//10 69//10
f  67//15 70//15 68//15
f  71//10 69//10 68//10
f  67//18 69//18 70//18
f  68//15 70//15 72//15
f  69//17 71//17 73//17
f  71//16 68//16 74//16
f  73//18 70//18 69//18
f  72//15 70//15 75//15
f  72//16 74//16 68//16
f  71//17 74//17 73//17
f  70//5 73//5 76//5
f  70//15 76//15 75//15
f  72//10 75//10 74//10
f  74//17 77//17 73//17
f  78//5 76//5 73//5
f  79//15 75//15 76//15
f  77//10 74//10 75//10
f  73//17 77//17 78//17
f  76//16 78//16 79//16
f  75//15 79//15 80//15
f  77//18 75//18 81//18
f  82//17 78//17 77//17
f  82//16 79//16 78//16
f  80//10 79//10 81//10
f  80//18 81//18 75//18
f  82//17 77//17 81//17
f  82//10 81//10 79//10

# Mesh 'mesh4_mesh4-geometry' with 28 faces
g mesh4_mesh4-geometry
usemtl material_3_24
f  69//5 68//5 67//5
f  68//17 70//17 67//17
f  68//5 69//5 71//5
f  70//16 69//16 67//16
f  72//17 70//17 68//17
f  73//15 71//15 69//15
f  74//18 68//18 71//18
f  69//16 70//16 73//16
f  75//17 70//17 72//17
f  68//18 74//18 72//18
f  73//15 74//15 71//15
f  76//10 73//10 70//10
f  75//17 76//17 70//17
f  74//5 75//5 72//5
f  73//15 77//15 74//15
f  73//10 76//10 78//10
f  76//17 75//17 79//17
f  75//5 74//5 77//5
f  78//15 77//15 73//15
f  79//18 78//18 76//18
f  80//17 79//17 75//17
f  81//16 75//16 77//16
f  77//15 78//15 82//15
f  78//18 79//18 82//18
f  81//5 79//5 80//5
f  75//16 81//16 80//16
f  81//15 77//15 82//15
f  79//5 81//5 82//5

# Mesh 'mesh5_mesh5-geometry' with 12 faces
g mesh5_mesh5-geometry
usemtl material_0_1_8
f  83/119/10 84/120/10 85/121/10
f  84/120/10 83/119/10 86/122/10
f  84/120/9 87/123/9 85/121/9
f  87/124/7 83/125/7 85/126/7
f  83/125/3 88/127/3 86/128/3
f  88/129/6 84/130/6 86/131/6
f  87/123/9 84/120/9 89/132/9
f  83/125/7 87/124/7 90/133/7
f  88/127/3 83/125/3 90/133/3
f  84/130/6 88/129/6 89/134/6
f  88/135/5 87/124/5 89/136/5
f  87/124/5 88/135/5 90/133/5

# Mesh 'mesh5_mesh5-geometry' with 12 faces
g mesh5_mesh5-geometry
usemtl material_4_24
f  85//5 84//5 83//5
f  86//5 83//5 84//5
f  85//3 87//3 84//3
f  85//6 83//6 87//6
f  86//9 88//9 83//9
f  86//7 84//7 88//7
f  89//3 84//3 87//3
f  90//6 87//6 83//6
f  90//9 83//9 88//9
f  89//7 88//7 84//7
f  89//10 87//10 88//10
f  90//10 88//10 87//10

# Mesh 'mesh5_mesh5-geometry' with 12 faces
g mesh5_mesh5-geometry
usemtl material_0_1_8
f  91/119/10 92/120/10 93/121/10
f  92/120/10 91/119/10 94/122/10
f  92/120/9 95/123/9 93/121/9
f  95/124/7 91/125/7 93/126/7
f  91/125/3 96/127/3 94/128/3
f  96/129/6 92/130/6 94/131/6
f  95/123/9 92/120/9 97/132/9
f  91/125/7 95/124/7 98/133/7
f  96/127/3 91/125/3 98/133/3
f  92/130/6 96/129/6 97/134/6
f  96/135/5 95/124/5 97/136/5
f  95/124/5 96/135/5 98/133/5

# Mesh 'mesh5_mesh5-geometry' with 12 faces
g mesh5_mesh5-geometry
usemtl material_4_24
f  93//5 92//5 91//5
f  94//5 91//5 92//5
f  93//3 95//3 92//3
f  93//6 91//6 95//6
f  94//9 96//9 91//9
f  94//7 92//7 96//7
f  97//3 92//3 95//3
f  98//6 95//6 91//6
f  98//9 91//9 96//9
f  97//7 96//7 92//7
f  97//10 95//10 96//10
f  98//10 96//10 95//10

# Mesh 'mesh6_mesh6-geometry' with 68 faces
g mesh6_mesh6-geometry
usemtl material_0_1_8
f  99/137/5 100/138/5 101/139/5
f  100/138/5 99/137/5 102/140/5
f  101/141/10 100/142/10 99/143/10
f  102/144/10 99/143/10 100/142/10
f  103/145/5 101/139/5 100/138/5
f  100/142/10 101/141/10 103/146/10
f  101/139/9 104/147/9 99/148/9
f  99/149/3 104/150/3 101/151/3
f  104/152/6 102/153/6 99/154/6
f  99/155/7 102/156/7 104/150/7
f  100/138/5 102/140/5 105/157/5
f  105/158/10 102/144/10 100/142/10
f  101/139/5 103/145/5 106/159/5
f  106/160/10 103/146/10 101/141/10
f  100/161/3 107/162/3 103/163/3
f  103/164/9 107/165/9 100/166/9
f  104/147/9 101/139/9 108/167/9
f  108/168/3 101/151/3 104/150/3
f  102/153/6 104/152/6 109/169/6
f  109/170/7 104/150/7 102/156/7
f  105/157/5 102/140/5 110/171/5
f  110/172/10 102/144/10 105/158/10
f  111/173/7 100/161/7 105/174/7
f  105/175/6 100/176/6 111/177/6
f  106/159/5 103/145/5 110/171/5
f  110/172/10 103/146/10 106/160/10
f  112/178/7 101/139/7 106/159/7
f  106/159/6 101/139/6 112/178/6
f  107/162/3 100/161/3 113/179/3
f  113/180/9 100/166/9 107/165/9
f  107/181/6 110/182/6 103/183/6
f  103/184/7 110/185/7 107/165/7
f  101/139/7 112/178/7 108/167/7
f  108/167/6 112/178/6 101/139/6
f  108/167/10 107/181/10 104/152/10
f  104/150/5 107/165/5 108/168/5
f  104/152/10 113/186/10 109/169/10
f  109/170/5 113/180/5 104/150/5
f  112/178/3 102/187/3 109/188/3
f  109/170/9 102/189/9 112/190/9
f  106/159/5 110/171/5 102/140/5
f  102/144/10 110/172/10 106/160/10
f  110/191/9 111/173/9 105/174/9
f  105/192/3 111/177/3 110/193/3
f  100/161/7 111/173/7 113/179/7
f  113/180/6 111/177/6 100/176/6
f  102/187/3 112/178/3 106/159/3
f  106/194/9 112/190/9 102/189/9
f  113/186/10 104/152/10 107/181/10
f  107/165/5 104/150/5 113/180/5
f  114/195/10 113/186/10 107/181/10
f  107/165/5 113/180/5 114/196/5
f  110/182/6 107/181/6 114/195/6
f  114/196/7 107/165/7 110/185/7
f  107/181/10 108/167/10 112/178/10
f  112/190/5 108/168/5 107/165/5
f  109/169/10 113/186/10 111/197/10
f  111/177/5 113/180/5 109/170/5
f  109/169/10 111/197/10 112/178/10
f  112/190/5 111/177/5 109/170/5
f  111/173/9 110/191/9 114/198/9
f  114/196/3 110/193/3 111/177/3
f  113/186/10 114/195/10 111/197/10
f  111/177/5 114/196/5 113/180/5
f  107/181/10 112/178/10 114/195/10
f  114/196/5 112/190/5 107/165/5
f  114/195/10 112/178/10 111/197/10
f  111/177/5 112/190/5 114/196/5

# Mesh 'mesh5_mesh5-geometry' with 12 faces
g mesh5_mesh5-geometry
usemtl material_0_1_8
f  115/119/10 116/120/10 117/121/10
f  116/120/10 115/119/10 118/122/10
f  116/120/9 119/123/9 117/121/9
f  119/124/7 115/125/7 117/126/7
f  115/125/3 120/127/3 118/128/3
f  120/129/6 116/130/6 118/131/6
f  119/123/9 116/120/9 121/132/9
f  115/125/7 119/124/7 122/133/7
f  120/127/3 115/125/3 122/133/3
f  116/130/6 120/129/6 121/134/6
f  120/135/5 119/124/5 121/136/5
f  119/124/5 120/135/5 122/133/5

# Mesh 'mesh5_mesh5-geometry' with 12 faces
g mesh5_mesh5-geometry
usemtl material_4_24
f  117//5 116//5 115//5
f  118//5 115//5 116//5
f  117//3 119//3 116//3
f  117//6 115//6 119//6
f  118//9 120//9 115//9
f  118//7 116//7 120//7
f  121//3 116//3 119//3
f  122//6 119//6 115//6
f  122//9 115//9 120//9
f  121//7 120//7 116//7
f  121//10 119//10 120//10
f  122//10 120//10 119//10

