# File produced by Open Asset Import Library (http://www.assimp.sf.net)
# (assimp v3.2.202087883)

mtllib model_normalized.mtl

# 136 vertex positions
v 0.123689 -0.126076 0.080718
v 0.113113 -0.348976 0.080718
v 0.123689 -0.348976 0.080718
v 0.113113 -0.129613 0.080718
v 0.123689 -0.348976 -0.057436
v -0.110857 -0.129613 0.080718
v 0.113113 -0.129613 -0.057436
v 0.113113 -0.348976 -0.057436
v 0.123689 -0.126076 -0.057436
v -0.348108 -0.112702 0.080718
v 0.346520 -0.126076 -0.057436
v -0.353807 -0.132180 0.080718
v -0.126425 -0.112702 0.080718
v -0.110857 -0.129613 -0.057436
v -0.348108 -0.112702 -0.057436
v 0.346520 -0.126076 0.080718
v -0.125109 -0.132180 0.080718
v -0.353807 0.127216 0.080718
v 0.346520 -0.110301 0.080718
v -0.110857 -0.348976 0.080718
v 0.346520 -0.110301 -0.057436
v -0.126425 -0.112702 -0.057436
v -0.125109 -0.348976 0.080718
v -0.125109 -0.132180 -0.057436
v -0.348108 0.108981 0.080718
v -0.353807 0.127216 -0.057436
v 0.113632 -0.110469 0.080718
v -0.110857 -0.348976 -0.057436
v -0.353807 -0.132180 -0.057436
v -0.112148 0.111896 0.080718
v -0.125952 0.127216 0.080718
v 0.128933 -0.110301 0.080718
v -0.112148 -0.110469 0.080718
v -0.126425 0.108981 -0.057436
v -0.348108 0.108981 -0.057436
v 0.128933 -0.110301 -0.057436
v 0.113632 -0.110469 -0.057436
v -0.125109 -0.348976 -0.057436
v -0.126425 0.108981 0.080718
v 0.128933 0.112747 0.080718
v -0.125952 0.127216 -0.057436
v -0.110579 0.127191 0.080718
v 0.113632 0.111896 0.080718
v -0.112148 -0.110469 -0.057436
v -0.125952 0.351350 0.080718
v -0.110579 0.127191 -0.057436
v -0.110579 0.351350 0.080718
v 0.113632 0.111896 -0.057436
v -0.112148 0.111896 -0.057436
v 0.113577 0.127191 0.080718
v -0.125952 0.351350 -0.057436
v 0.346520 0.112747 -0.057436
v -0.110579 0.351350 -0.057436
v 0.128933 0.112747 -0.057436
v 0.346520 0.129385 0.080718
v 0.113577 0.127191 -0.057436
v 0.346520 0.112747 0.080718
v 0.126496 0.129385 0.080718
v 0.346520 0.129385 -0.057436
v 0.126496 0.129385 -0.057436
v 0.113577 0.351350 0.080718
v 0.113577 0.351350 -0.057436
v 0.126496 0.351350 0.080718
v 0.126496 0.351350 -0.057436
v -0.353807 0.351350 -0.045373
v -0.125952 0.127216 -0.045373
v -0.353807 0.127216 -0.045373
v -0.125952 0.351350 -0.045373
v -0.353807 0.351350 0.080718
v -0.353807 -0.132180 -0.045373
v -0.125109 -0.348976 -0.045373
v -0.353807 -0.348976 -0.045373
v -0.125109 -0.132180 -0.045373
v -0.353807 -0.348976 0.080718
v -0.112148 0.111896 -0.045373
v 0.113632 -0.110469 -0.045373
v -0.112148 -0.110469 -0.045373
v 0.113632 0.111896 -0.045373
v 0.123689 -0.126076 -0.045373
v 0.346520 -0.348976 -0.045373
v 0.123689 -0.348976 -0.045373
v 0.346520 -0.126076 -0.045373
v 0.346520 -0.348976 0.080718
v 0.126496 0.351350 -0.045373
v 0.346520 0.129385 -0.045373
v 0.126496 0.129385 -0.045373
v 0.346520 0.351350 -0.045373
v 0.346520 0.351350 0.080718
v -0.110579 0.127191 -0.045373
v -0.095319 0.141703 -0.045373
v 0.113577 0.127191 -0.045373
v -0.110579 0.351350 -0.045373
v 0.099052 0.141703 -0.045373
v -0.095319 0.336073 -0.045373
v 0.113577 0.351350 -0.045373
v 0.099052 0.141703 0.080718
v 0.099052 0.336073 -0.045373
v -0.095319 0.336073 0.080718
v -0.095319 0.141703 0.080718
v 0.099052 0.336073 0.080718
v 0.128933 -0.110301 -0.045373
v 0.141181 -0.097357 -0.045373
v 0.346520 -0.110301 -0.045373
v 0.128933 0.112747 -0.045373
v 0.335778 -0.097357 -0.045373
v 0.141181 0.097239 -0.045373
v 0.346520 0.112747 -0.045373
v 0.335778 -0.097357 0.080718
v 0.335778 0.097239 -0.045373
v 0.141181 0.097239 0.080718
v 0.141181 -0.097357 0.080718
v 0.335778 0.097239 0.080718
v -0.096696 -0.145975 0.080718
v 0.099268 -0.335338 0.080718
v -0.096696 -0.335338 0.080718
v 0.099268 -0.145975 0.080718
v -0.096696 -0.335338 -0.045373
v 0.099268 -0.145975 -0.045373
v 0.099268 -0.335338 -0.045373
v -0.096696 -0.145975 -0.045373
v 0.113113 -0.348976 -0.045373
v -0.110857 -0.129613 -0.045373
v 0.113113 -0.129613 -0.045373
v -0.110857 -0.348976 -0.045373
v -0.335819 0.096413 0.080718
v -0.139400 -0.096365 0.080718
v -0.335819 -0.096365 0.080718
v -0.139400 0.096413 0.080718
v -0.335819 -0.096365 -0.045373
v -0.139400 0.096413 -0.045373
v -0.139400 -0.096365 -0.045373
v -0.335819 0.096413 -0.045373
v -0.126425 -0.112702 -0.045373
v -0.348108 0.108981 -0.045373
v -0.126425 0.108981 -0.045373
v -0.348108 -0.112702 -0.045373

# 52 UV coordinates
vt 0.33612 0.319581 0
vt 0.350504 0.020263 0
vt 0.33612 0.020263 0
vt 0.350504 0.314832 0
vt 0.655108 0.314832 0
vt 0.977774 0.337538 0
vt 0.033067 0.319581 0
vt 0.985523 0.311385 0
vt 0.676281 0.337538 0
vt 0.67449 0.311385 0
vt 0.985523 0.659707 0
vt 0.033067 0.340763 0
vt 0.655108 0.020263 0
vt 0.67449 0.020263 0
vt 0.977774 0.63522 0
vt 0.349799 0.340539 0
vt 0.656864 0.639138 0
vt 0.675637 0.659707 0
vt 0.328987 0.340763 0
vt 0.656864 0.340539 0
vt 0.676281 0.63522 0
vt 0.328987 0.640279 0
vt 0.654732 0.659675 0
vt 0.349799 0.639138 0
vt 0.675637 0.960682 0
vt 0.654732 0.960682 0
vt 0.349872 0.659675 0
vt 0.033067 0.640279 0
vt 0.033067 0.662623 0
vt 0.332305 0.662623 0
vt 0.349872 0.960682 0
vt 0.332305 0.960682 0
vt 0.985523 0.960682 0
vt 0.985523 0.020263 0
vt 0.033067 0.020263 0
vt 0.033067 0.960682 0
vt 0.633976 0.679161 0
vt 0.369628 0.679161 0
vt 0.633976 0.940168 0
vt 0.369628 0.940168 0
vt 0.312333 0.358143 0
vt 0.047676 0.358143 0
vt 0.312333 0.619456 0
vt 0.047676 0.619456 0
vt 0.635848 0.29286 0
vt 0.369334 0.038577 0
vt 0.635848 0.038577 0
vt 0.369334 0.29286 0
vt 0.96106 0.618345 0
vt 0.693926 0.359478 0
vt 0.96106 0.359478 0
vt 0.693926 0.618345 0

# 6 vertex normals
vn 0 0 0.01
vn -0 0 -0.01
vn 0 -0.01 0
vn 0 0.01 0
vn 0.01 0 0
vn -0.01 0 0

# Mesh 'mesh1_mesh1-geometry' with 264 faces
g mesh1_mesh1-geometry
usemtl material_0_1_8
f  1/1/1 2/2/1 3/3/1
f  2/2/1 1/1/1 4/4/1
f  3/3/2 2/2/2 1/1/2
f  4/4/2 1/1/2 2/2/2
f  2/2/3 5/3/3 3/3/3
f  3/3/4 5/3/4 2/2/4
f  5/3/5 1/1/5 3/3/5
f  3/3/6 1/1/6 5/3/6
f  4/4/1 1/1/1 6/5/1
f  6/5/2 1/1/2 4/4/2
f  7/4/6 2/2/6 4/4/6
f  4/4/5 2/2/5 7/4/5
f  5/3/3 2/2/3 8/2/3
f  8/2/4 2/2/4 5/3/4
f  1/1/5 5/3/5 9/1/5
f  9/1/6 5/3/6 1/1/6
f  10/6/1 6/5/1 1/1/1
f  1/1/2 6/5/2 10/6/2
f  6/5/3 7/4/3 4/4/3
f  4/4/4 7/4/4 6/5/4
f  2/2/6 7/4/6 8/2/6
f  8/2/5 7/4/5 2/2/5
f  7/4/2 5/3/2 8/2/2
f  8/2/1 5/3/1 7/4/1
f  5/3/2 7/4/2 9/1/2
f  9/1/1 7/4/1 5/3/1
f  11/7/3 1/1/3 9/1/3
f  9/1/4 1/1/4 11/7/4
f  12/8/1 6/5/1 10/6/1
f  10/6/2 6/5/2 12/8/2
f  10/6/1 1/1/1 13/9/1
f  13/9/2 1/1/2 10/6/2
f  7/4/3 6/5/3 14/5/3
f  14/5/4 6/5/4 7/4/4
f  7/4/2 15/6/2 9/1/2
f  9/1/1 15/6/1 7/4/1
f  1/1/3 11/7/3 16/7/3
f  16/7/4 11/7/4 1/1/4
f  9/1/2 15/6/2 11/7/2
f  11/7/1 15/6/1 9/1/1
f  17/10/1 6/5/1 12/8/1
f  12/8/2 6/5/2 17/10/2
f  12/8/1 10/6/1 18/11/1
f  18/11/2 10/6/2 12/8/2
f  1/1/1 19/12/1 13/9/1
f  13/9/2 19/12/2 1/1/2
f  13/9/4 15/6/4 10/6/4
f  10/6/3 15/6/3 13/9/3
f  20/13/5 14/5/5 6/5/5
f  6/5/6 14/5/6 20/13/6
f  14/5/2 15/6/2 7/4/2
f  7/4/1 15/6/1 14/5/1
f  21/12/5 16/7/5 11/7/5
f  11/7/6 16/7/6 21/12/6
f  19/12/1 1/1/1 16/7/1
f  16/7/2 1/1/2 19/12/2
f  22/9/2 11/7/2 15/6/2
f  15/6/1 11/7/1 22/9/1
f  23/14/1 6/5/1 17/10/1
f  17/10/2 6/5/2 23/14/2
f  12/8/3 24/10/3 17/10/3
f  17/10/4 24/10/4 12/8/4
f  18/11/1 10/6/1 25/15/1
f  25/15/2 10/6/2 18/11/2
f  26/11/6 12/8/6 18/11/6
f  18/11/5 12/8/5 26/11/5
f  13/9/1 19/12/1 27/16/1
f  27/16/2 19/12/2 13/9/2
f  15/6/4 13/9/4 22/9/4
f  22/9/3 13/9/3 15/6/3
f  15/6/5 25/15/5 10/6/5
f  10/6/6 25/15/6 15/6/6
f  14/5/5 20/13/5 28/13/5
f  28/13/6 20/13/6 14/5/6
f  6/5/1 23/14/1 20/13/1
f  20/13/2 23/14/2 6/5/2
f  24/10/2 15/6/2 14/5/2
f  14/5/1 15/6/1 24/10/1
f  16/7/5 21/12/5 19/12/5
f  19/12/6 21/12/6 16/7/6
f  11/7/2 22/9/2 21/12/2
f  21/12/1 22/9/1 11/7/1
f  24/10/6 23/14/6 17/10/6
f  17/10/5 23/14/5 24/10/5
f  24/10/3 12/8/3 29/8/3
f  29/8/4 12/8/4 24/10/4
f  18/11/1 25/15/1 30/17/1
f  30/17/2 25/15/2 18/11/2
f  12/8/6 26/11/6 29/8/6
f  29/8/5 26/11/5 12/8/5
f  31/18/4 26/11/4 18/11/4
f  18/11/3 26/11/3 31/18/3
f  27/16/1 19/12/1 32/19/1
f  32/19/2 19/12/2 27/16/2
f  33/20/1 13/9/1 27/16/1
f  27/16/2 13/9/2 33/20/2
f  13/9/6 34/21/6 22/9/6
f  22/9/5 34/21/5 13/9/5
f  25/15/5 15/6/5 35/15/5
f  35/15/6 15/6/6 25/15/6
f  23/14/3 28/13/3 20/13/3
f  20/13/4 28/13/4 23/14/4
f  28/13/2 24/10/2 14/5/2
f  14/5/1 24/10/1 28/13/1
f  29/8/2 15/6/2 24/10/2
f  24/10/1 15/6/1 29/8/1
f  36/19/4 19/12/4 21/12/4
f  21/12/3 19/12/3 36/19/3
f  21/12/2 22/9/2 37/16/2
f  37/16/1 22/9/1 21/12/1
f  23/14/6 24/10/6 38/14/6
f  38/14/5 24/10/5 23/14/5
f  39/21/1 30/17/1 25/15/1
f  25/15/2 30/17/2 39/21/2
f  18/11/1 30/17/1 40/22/1
f  40/22/2 30/17/2 18/11/2
f  15/6/2 29/8/2 26/11/2
f  26/11/1 29/8/1 15/6/1
f  26/11/4 31/18/4 41/18/4
f  41/18/3 31/18/3 26/11/3
f  18/11/1 42/23/1 31/18/1
f  31/18/2 42/23/2 18/11/2
f  19/12/4 36/19/4 32/19/4
f  32/19/3 36/19/3 19/12/3
f  32/19/1 43/24/1 27/16/1
f  27/16/2 43/24/2 32/19/2
f  13/9/1 33/20/1 39/21/1
f  39/21/2 33/20/2 13/9/2
f  27/16/4 44/20/4 33/20/4
f  33/20/3 44/20/3 27/16/3
f  34/21/6 13/9/6 39/21/6
f  39/21/5 13/9/5 34/21/5
f  34/21/2 44/20/2 22/9/2
f  22/9/1 44/20/1 34/21/1
f  15/6/2 26/11/2 35/15/2
f  35/15/1 26/11/1 15/6/1
f  34/21/3 25/15/3 35/15/3
f  35/15/4 25/15/4 34/21/4
f  28/13/3 23/14/3 38/14/3
f  38/14/4 23/14/4 28/13/4
f  24/10/2 28/13/2 38/14/2
f  38/14/1 28/13/1 24/10/1
f  21/12/2 37/16/2 36/19/2
f  36/19/1 37/16/1 21/12/1
f  37/16/2 22/9/2 44/20/2
f  44/20/1 22/9/1 37/16/1
f  39/21/1 33/20/1 30/17/1
f  30/17/2 33/20/2 39/21/2
f  25/15/3 34/21/3 39/21/3
f  39/21/4 34/21/4 25/15/4
f  43/24/1 40/22/1 30/17/1
f  30/17/2 40/22/2 43/24/2
f  18/11/1 40/22/1 42/23/1
f  42/23/2 40/22/2 18/11/2
f  45/25/6 41/18/6 31/18/6
f  31/18/5 41/18/5 45/25/5
f  46/23/2 26/11/2 41/18/2
f  41/18/1 26/11/1 46/23/1
f  47/26/1 31/18/1 42/23/1
f  42/23/2 31/18/2 47/26/2
f  36/19/5 40/22/5 32/19/5
f  32/19/6 40/22/6 36/19/6
f  43/24/1 32/19/1 40/22/1
f  40/22/2 32/19/2 43/24/2
f  48/24/6 27/16/6 43/24/6
f  43/24/5 27/16/5 48/24/5
f  44/20/4 27/16/4 37/16/4
f  37/16/3 27/16/3 44/20/3
f  44/20/5 30/17/5 33/20/5
f  33/20/6 30/17/6 44/20/6
f  44/20/2 34/21/2 49/17/2
f  49/17/1 34/21/1 44/20/1
f  35/15/2 26/11/2 34/21/2
f  34/21/1 26/11/1 35/15/1
f  48/24/2 36/19/2 37/16/2
f  37/16/1 36/19/1 48/24/1
f  30/17/3 48/24/3 43/24/3
f  43/24/4 48/24/4 30/17/4
f  42/23/1 40/22/1 50/27/1
f  50/27/2 40/22/2 42/23/2
f  41/18/6 45/25/6 51/25/6
f  51/25/5 45/25/5 41/18/5
f  31/18/1 47/26/1 45/25/1
f  45/25/2 47/26/2 31/18/2
f  52/28/2 26/11/2 46/23/2
f  46/23/1 26/11/1 52/28/1
f  46/23/2 41/18/2 53/26/2
f  53/26/1 41/18/1 46/23/1
f  46/23/5 47/26/5 42/23/5
f  42/23/6 47/26/6 46/23/6
f  40/22/5 36/19/5 54/22/5
f  54/22/6 36/19/6 40/22/6
f  27/16/6 48/24/6 37/16/6
f  37/16/5 48/24/5 27/16/5
f  30/17/5 44/20/5 49/17/5
f  49/17/6 44/20/6 30/17/6
f  34/21/2 26/11/2 49/17/2
f  49/17/1 26/11/1 34/21/1
f  36/19/2 48/24/2 54/22/2
f  54/22/1 48/24/1 36/19/1
f  48/24/3 30/17/3 49/17/3
f  49/17/4 30/17/4 48/24/4
f  40/22/1 55/29/1 50/27/1
f  50/27/2 55/29/2 40/22/2
f  50/27/4 46/23/4 42/23/4
f  42/23/3 46/23/3 50/27/3
f  47/26/4 51/25/4 45/25/4
f  45/25/3 51/25/3 47/26/3
f  53/26/2 41/18/2 51/25/2
f  51/25/1 41/18/1 53/26/1
f  54/22/2 26/11/2 52/28/2
f  52/28/1 26/11/1 54/22/1
f  56/27/2 52/28/2 46/23/2
f  46/23/1 52/28/1 56/27/1
f  47/26/5 46/23/5 53/26/5
f  53/26/6 46/23/6 47/26/6
f  52/28/3 40/22/3 54/22/3
f  54/22/4 40/22/4 52/28/4
f  49/17/2 26/11/2 48/24/2
f  48/24/1 26/11/1 49/17/1
f  48/24/2 26/11/2 54/22/2
f  54/22/1 26/11/1 48/24/1
f  55/29/1 40/22/1 57/28/1
f  57/28/2 40/22/2 55/29/2
f  50/27/1 55/29/1 58/30/1
f  58/30/2 55/29/2 50/27/2
f  46/23/4 50/27/4 56/27/4
f  56/27/3 50/27/3 46/23/3
f  51/25/4 47/26/4 53/26/4
f  53/26/3 47/26/3 51/25/3
f  52/28/2 56/27/2 59/29/2
f  59/29/1 56/27/1 52/28/1
f  40/22/3 52/28/3 57/28/3
f  57/28/4 52/28/4 40/22/4
f  52/28/5 55/29/5 57/28/5
f  57/28/6 55/29/6 52/28/6
f  55/29/4 60/30/4 58/30/4
f  58/30/3 60/30/3 55/29/3
f  50/27/1 58/30/1 61/31/1
f  61/31/2 58/30/2 50/27/2
f  50/27/6 62/31/6 56/27/6
f  56/27/5 62/31/5 50/27/5
f  59/29/2 56/27/2 60/30/2
f  60/30/1 56/27/1 59/29/1
f  55/29/5 52/28/5 59/29/5
f  59/29/6 52/28/6 55/29/6
f  60/30/4 55/29/4 59/29/4
f  59/29/3 55/29/3 60/30/3
f  60/30/5 63/32/5 58/30/5
f  58/30/6 63/32/6 60/30/6
f  61/31/1 58/30/1 63/32/1
f  63/32/2 58/30/2 61/31/2
f  62/31/6 50/27/6 61/31/6
f  61/31/5 50/27/5 62/31/5
f  62/31/2 60/30/2 56/27/2
f  56/27/1 60/30/1 62/31/1
f  63/32/5 60/30/5 64/32/5
f  64/32/6 60/30/6 63/32/6
f  63/32/4 62/31/4 61/31/4
f  61/31/3 62/31/3 63/32/3
f  60/30/2 62/31/2 64/32/2
f  64/32/1 62/31/1 60/30/1
f  62/31/4 63/32/4 64/32/4
f  64/32/3 63/32/3 62/31/3

# Mesh 'mesh2_mesh2-geometry' with 24 faces
g mesh2_mesh2-geometry
usemtl material_0_1_8
f  65/33/2 66/18/2 67/11/2
f  66/18/2 65/33/2 68/25/2
f  67/11/1 66/18/1 65/33/1
f  68/25/1 65/33/1 66/18/1
f  66/18/3 18/11/3 67/11/3
f  67/11/4 18/11/4 66/18/4
f  18/11/6 65/33/6 67/11/6
f  67/11/5 65/33/5 18/11/5
f  65/33/4 45/25/4 68/25/4
f  68/25/3 45/25/3 65/33/3
f  45/25/5 66/18/5 68/25/5
f  68/25/6 66/18/6 45/25/6
f  18/11/3 66/18/3 31/18/3
f  31/18/4 66/18/4 18/11/4
f  65/33/6 18/11/6 69/33/6
f  69/33/5 18/11/5 65/33/5
f  45/25/4 65/33/4 69/33/4
f  69/33/3 65/33/3 45/25/3
f  66/18/5 45/25/5 31/18/5
f  31/18/6 45/25/6 66/18/6
f  45/25/1 18/11/1 31/18/1
f  31/18/2 18/11/2 45/25/2
f  18/11/1 45/25/1 69/33/1
f  69/33/2 45/25/2 18/11/2

# Mesh 'mesh3_mesh3-geometry' with 24 faces
g mesh3_mesh3-geometry
usemtl material_0_1_8
f  70/8/2 71/14/2 72/34/2
f  71/14/2 70/8/2 73/10/2
f  72/34/1 71/14/1 70/8/1
f  73/10/1 70/8/1 71/14/1
f  71/14/3 74/34/3 72/34/3
f  72/34/4 74/34/4 71/14/4
f  74/34/6 70/8/6 72/34/6
f  72/34/5 70/8/5 74/34/5
f  70/8/4 17/10/4 73/10/4
f  73/10/3 17/10/3 70/8/3
f  17/10/5 71/14/5 73/10/5
f  73/10/6 71/14/6 17/10/6
f  74/34/3 71/14/3 23/14/3
f  23/14/4 71/14/4 74/34/4
f  70/8/6 74/34/6 12/8/6
f  12/8/5 74/34/5 70/8/5
f  17/10/4 70/8/4 12/8/4
f  12/8/3 70/8/3 17/10/3
f  71/14/5 17/10/5 23/14/5
f  23/14/6 17/10/6 71/14/6
f  17/10/1 74/34/1 23/14/1
f  23/14/2 74/34/2 17/10/2
f  74/34/1 17/10/1 12/8/1
f  12/8/2 17/10/2 74/34/2

# Mesh 'mesh4_mesh4-geometry' with 24 faces
g mesh4_mesh4-geometry
usemtl material_0_1_8
f  75/17/2 76/16/2 77/20/2
f  76/16/2 75/17/2 78/24/2
f  77/20/1 76/16/1 75/17/1
f  78/24/1 75/17/1 76/16/1
f  76/16/3 33/20/3 77/20/3
f  77/20/4 33/20/4 76/16/4
f  33/20/6 75/17/6 77/20/6
f  77/20/5 75/17/5 33/20/5
f  75/17/4 43/24/4 78/24/4
f  78/24/3 43/24/3 75/17/3
f  43/24/5 76/16/5 78/24/5
f  78/24/6 76/16/6 43/24/6
f  33/20/3 76/16/3 27/16/3
f  27/16/4 76/16/4 33/20/4
f  75/17/6 33/20/6 30/17/6
f  30/17/5 33/20/5 75/17/5
f  43/24/4 75/17/4 30/17/4
f  30/17/3 75/17/3 43/24/3
f  76/16/5 43/24/5 27/16/5
f  27/16/6 43/24/6 76/16/6
f  43/24/1 33/20/1 27/16/1
f  27/16/2 33/20/2 43/24/2
f  33/20/1 43/24/1 30/17/1
f  30/17/2 43/24/2 33/20/2

# Mesh 'mesh5_mesh5-geometry' with 24 faces
g mesh5_mesh5-geometry
usemtl material_0_1_8
f  79/1/2 80/35/2 81/3/2
f  80/35/2 79/1/2 82/7/2
f  81/3/1 80/35/1 79/1/1
f  82/7/1 79/1/1 80/35/1
f  80/35/3 3/3/3 81/3/3
f  81/3/4 3/3/4 80/35/4
f  3/3/6 79/1/6 81/3/6
f  81/3/5 79/1/5 3/3/5
f  1/1/4 82/7/4 79/1/4
f  79/1/3 82/7/3 1/1/3
f  16/7/5 80/35/5 82/7/5
f  82/7/6 80/35/6 16/7/6
f  3/3/3 80/35/3 83/35/3
f  83/35/4 80/35/4 3/3/4
f  79/1/6 3/3/6 1/1/6
f  1/1/5 3/3/5 79/1/5
f  82/7/4 1/1/4 16/7/4
f  16/7/3 1/1/3 82/7/3
f  80/35/5 16/7/5 83/35/5
f  83/35/6 16/7/6 80/35/6
f  16/7/1 3/3/1 83/35/1
f  83/35/2 3/3/2 16/7/2
f  3/3/1 16/7/1 1/1/1
f  1/1/2 16/7/2 3/3/2

# Mesh 'mesh6_mesh6-geometry' with 24 faces
g mesh6_mesh6-geometry
usemtl material_0_1_8
f  84/32/2 85/29/2 86/30/2
f  85/29/2 84/32/2 87/36/2
f  86/30/1 85/29/1 84/32/1
f  87/36/1 84/32/1 85/29/1
f  85/29/3 58/30/3 86/30/3
f  86/30/4 58/30/4 85/29/4
f  58/30/6 84/32/6 86/30/6
f  86/30/5 84/32/5 58/30/5
f  84/32/4 88/36/4 87/36/4
f  87/36/3 88/36/3 84/32/3
f  88/36/5 85/29/5 87/36/5
f  87/36/6 85/29/6 88/36/6
f  58/30/3 85/29/3 55/29/3
f  55/29/4 85/29/4 58/30/4
f  84/32/6 58/30/6 63/32/6
f  63/32/5 58/30/5 84/32/5
f  88/36/4 84/32/4 63/32/4
f  63/32/3 84/32/3 88/36/3
f  85/29/5 88/36/5 55/29/5
f  55/29/6 88/36/6 85/29/6
f  88/36/1 58/30/1 55/29/1
f  55/29/2 58/30/2 88/36/2
f  58/30/1 88/36/1 63/32/1
f  63/32/2 88/36/2 58/30/2

# Mesh 'mesh7_mesh7-geometry' with 64 faces
g mesh7_mesh7-geometry
usemtl material_0_1_8
f  89/23/2 90/37/2 91/27/2
f  90/37/2 89/23/2 92/26/2
f  91/27/1 90/37/1 89/23/1
f  92/26/1 89/23/1 90/37/1
f  93/38/2 91/27/2 90/37/2
f  90/37/1 91/27/1 93/38/1
f  91/27/3 42/23/3 89/23/3
f  89/23/4 42/23/4 91/27/4
f  42/23/6 92/26/6 89/23/6
f  89/23/5 92/26/5 42/23/5
f  90/37/2 92/26/2 94/39/2
f  94/39/1 92/26/1 90/37/1
f  91/27/2 93/38/2 95/31/2
f  95/31/1 93/38/1 91/27/1
f  90/37/4 96/38/4 93/38/4
f  93/38/3 96/38/3 90/37/3
f  42/23/3 91/27/3 50/27/3
f  50/27/4 91/27/4 42/23/4
f  92/26/6 42/23/6 47/26/6
f  47/26/5 42/23/5 92/26/5
f  94/39/2 92/26/2 97/40/2
f  97/40/1 92/26/1 94/39/1
f  98/39/5 90/37/5 94/39/5
f  94/39/6 90/37/6 98/39/6
f  95/31/2 93/38/2 97/40/2
f  97/40/1 93/38/1 95/31/1
f  61/31/5 91/27/5 95/31/5
f  95/31/6 91/27/6 61/31/6
f  96/38/4 90/37/4 99/37/4
f  99/37/3 90/37/3 96/38/3
f  96/38/6 97/40/6 93/38/6
f  93/38/5 97/40/5 96/38/5
f  91/27/5 61/31/5 50/27/5
f  50/27/6 61/31/6 91/27/6
f  50/27/1 96/38/1 42/23/1
f  42/23/2 96/38/2 50/27/2
f  42/23/1 99/37/1 47/26/1
f  47/26/2 99/37/2 42/23/2
f  61/31/4 92/26/4 47/26/4
f  47/26/3 92/26/3 61/31/3
f  95/31/2 97/40/2 92/26/2
f  92/26/1 97/40/1 95/31/1
f  97/40/3 98/39/3 94/39/3
f  94/39/4 98/39/4 97/40/4
f  90/37/5 98/39/5 99/37/5
f  99/37/6 98/39/6 90/37/6
f  92/26/4 61/31/4 95/31/4
f  95/31/3 61/31/3 92/26/3
f  99/37/1 42/23/1 96/38/1
f  96/38/2 42/23/2 99/37/2
f  97/40/6 96/38/6 100/40/6
f  100/40/5 96/38/5 97/40/5
f  96/38/1 50/27/1 61/31/1
f  61/31/2 50/27/2 96/38/2
f  47/26/1 99/37/1 98/39/1
f  98/39/2 99/37/2 47/26/2
f  47/26/1 98/39/1 61/31/1
f  61/31/2 98/39/2 47/26/2
f  98/39/3 97/40/3 100/40/3
f  100/40/4 97/40/4 98/39/4
f  96/38/1 61/31/1 100/40/1
f  100/40/2 61/31/2 96/38/2
f  100/40/1 61/31/1 98/39/1
f  98/39/2 61/31/2 100/40/2

# Mesh 'mesh8_mesh8-geometry' with 36 faces
g mesh8_mesh8-geometry
usemtl material_0_1_8
f  101/19/2 102/41/2 103/12/2
f  102/41/2 101/19/2 104/22/2
f  103/12/1 102/41/1 101/19/1
f  104/22/1 101/19/1 102/41/1
f  105/42/2 103/12/2 102/41/2
f  102/41/1 103/12/1 105/42/1
f  102/41/2 104/22/2 106/43/2
f  106/43/1 104/22/1 102/41/1
f  103/12/2 105/42/2 107/28/2
f  107/28/1 105/42/1 103/12/1
f  102/41/4 108/42/4 105/42/4
f  105/42/3 108/42/3 102/41/3
f  106/43/2 104/22/2 109/44/2
f  109/44/1 104/22/1 106/43/1
f  110/43/5 102/41/5 106/43/5
f  106/43/6 102/41/6 110/43/6
f  107/28/2 105/42/2 109/44/2
f  109/44/1 105/42/1 107/28/1
f  108/42/4 102/41/4 111/41/4
f  111/41/3 102/41/3 108/42/3
f  108/42/6 109/44/6 105/42/6
f  105/42/5 109/44/5 108/42/5
f  107/28/2 109/44/2 104/22/2
f  104/22/1 109/44/1 107/28/1
f  109/44/3 110/43/3 106/43/3
f  106/43/4 110/43/4 109/44/4
f  102/41/5 110/43/5 111/41/5
f  111/41/6 110/43/6 102/41/6
f  110/43/2 108/42/2 111/41/2
f  111/41/1 108/42/1 110/43/1
f  109/44/6 108/42/6 112/44/6
f  112/44/5 108/42/5 109/44/5
f  110/43/3 109/44/3 112/44/3
f  112/44/4 109/44/4 110/43/4
f  108/42/2 110/43/2 112/44/2
f  112/44/1 110/43/1 108/42/1

# Mesh 'mesh9_mesh9-geometry' with 20 faces
g mesh9_mesh9-geometry
usemtl material_0_1_8
f  98/39/2 96/38/2 99/37/2
f  96/38/2 98/39/2 100/40/2
f  99/37/1 96/38/1 98/39/1
f  100/40/1 98/39/1 96/38/1
f  96/38/4 90/37/4 99/37/4
f  99/37/3 90/37/3 96/38/3
f  90/37/5 98/39/5 99/37/5
f  99/37/6 98/39/6 90/37/6
f  98/39/3 97/40/3 100/40/3
f  100/40/4 97/40/4 98/39/4
f  97/40/6 96/38/6 100/40/6
f  100/40/5 96/38/5 97/40/5
f  90/37/4 96/38/4 93/38/4
f  93/38/3 96/38/3 90/37/3
f  98/39/5 90/37/5 94/39/5
f  94/39/6 90/37/6 98/39/6
f  97/40/3 98/39/3 94/39/3
f  94/39/4 98/39/4 97/40/4
f  96/38/6 97/40/6 93/38/6
f  93/38/5 97/40/5 96/38/5

# Mesh 'mesh10_mesh10-geometry' with 36 faces
g mesh10_mesh10-geometry
usemtl material_0_1_8
f  113/45/2 114/46/2 115/47/2
f  114/46/2 113/45/2 116/48/2
f  115/47/1 114/46/1 113/45/1
f  116/48/1 113/45/1 114/46/1
f  114/46/4 117/47/4 115/47/4
f  115/47/3 117/47/3 114/46/3
f  117/47/5 113/45/5 115/47/5
f  115/47/6 113/45/6 117/47/6
f  113/45/3 118/48/3 116/48/3
f  116/48/4 118/48/4 113/45/4
f  118/48/6 114/46/6 116/48/6
f  116/48/5 114/46/5 118/48/5
f  117/47/4 114/46/4 119/46/4
f  119/46/3 114/46/3 117/47/3
f  113/45/5 117/47/5 120/45/5
f  120/45/6 117/47/6 113/45/6
f  118/48/3 113/45/3 120/45/3
f  120/45/4 113/45/4 118/48/4
f  114/46/6 118/48/6 119/46/6
f  119/46/5 118/48/5 114/46/5
f  119/46/2 121/2/2 117/47/2
f  117/47/1 121/2/1 119/46/1
f  117/47/2 122/5/2 120/45/2
f  120/45/1 122/5/1 117/47/1
f  120/45/2 122/5/2 118/48/2
f  118/48/1 122/5/1 120/45/1
f  123/4/2 119/46/2 118/48/2
f  118/48/1 119/46/1 123/4/1
f  121/2/2 119/46/2 123/4/2
f  123/4/1 119/46/1 121/2/1
f  124/13/2 117/47/2 121/2/2
f  121/2/1 117/47/1 124/13/1
f  117/47/2 124/13/2 122/5/2
f  122/5/1 124/13/1 117/47/1
f  123/4/2 118/48/2 122/5/2
f  122/5/1 118/48/1 123/4/1

# Mesh 'mesh11_mesh11-geometry' with 36 faces
g mesh11_mesh11-geometry
usemtl material_0_1_8
f  125/49/2 126/50/2 127/51/2
f  126/50/2 125/49/2 128/52/2
f  127/51/1 126/50/1 125/49/1
f  128/52/1 125/49/1 126/50/1
f  126/50/4 129/51/4 127/51/4
f  127/51/3 129/51/3 126/50/3
f  129/51/5 125/49/5 127/51/5
f  127/51/6 125/49/6 129/51/6
f  125/49/3 130/52/3 128/52/3
f  128/52/4 130/52/4 125/49/4
f  130/52/6 126/50/6 128/52/6
f  128/52/5 126/50/5 130/52/5
f  129/51/4 126/50/4 131/50/4
f  131/50/3 126/50/3 129/51/3
f  125/49/5 129/51/5 132/49/5
f  132/49/6 129/51/6 125/49/6
f  130/52/3 125/49/3 132/49/3
f  132/49/4 125/49/4 130/52/4
f  126/50/6 130/52/6 131/50/6
f  131/50/5 130/52/5 126/50/5
f  131/50/2 133/9/2 129/51/2
f  129/51/1 133/9/1 131/50/1
f  129/51/2 134/15/2 132/49/2
f  132/49/1 134/15/1 129/51/1
f  132/49/2 134/15/2 130/52/2
f  130/52/1 134/15/1 132/49/1
f  135/21/2 131/50/2 130/52/2
f  130/52/1 131/50/1 135/21/1
f  133/9/2 131/50/2 135/21/2
f  135/21/1 131/50/1 133/9/1
f  136/6/2 129/51/2 133/9/2
f  133/9/1 129/51/1 136/6/1
f  129/51/2 136/6/2 134/15/2
f  134/15/1 136/6/1 129/51/1
f  135/21/2 130/52/2 134/15/2
f  134/15/1 130/52/1 135/21/1

