# File produced by Open Asset Import Library (http://www.assimp.sf.net)
# (assimp v3.2.202087883)

mtllib model_normalized.mtl

# 79 vertex positions
v 0.360524 0.312060 0.044045
v 0.388724 0.312060 0.166906
v 0.388724 0.312060 0.044045
v 0.360524 0.312060 0.166906
v 0.388724 0.202164 0.143406
v 0.360524 0.093848 -0.081939
v 0.360524 0.093848 0.063586
v 0.360524 0.202164 0.143406
v -0.288063 0.312060 0.195743
v 0.388724 -0.233129 -0.107910
v 0.388724 0.202164 0.172243
v 0.360524 0.063911 -0.099223
v -0.259863 0.312060 0.166906
v 0.388724 0.312060 0.195743
v 0.388724 -0.233129 -0.270720
v 0.360524 -0.233129 -0.107910
v 0.360524 0.063911 0.063586
v -0.288063 0.202164 0.172243
v 0.360524 0.063911 -0.129237
v -0.259863 0.093848 -0.129237
v -0.259863 0.202164 0.143406
v -0.288063 0.312060 0.166906
v 0.360524 -0.080750 -0.019934
v 0.360524 -0.233129 -0.270720
v 0.332325 0.063911 -0.099223
v 0.360524 0.093848 -0.129237
v 0.332325 0.063911 0.063586
v -0.259863 0.093848 0.063586
v -0.259863 0.085833 0.076243
v -0.288063 0.312060 0.044045
v 0.360524 -0.233129 0.063586
v -0.288063 0.202164 0.143406
v -0.231664 0.063911 -0.129237
v 0.332325 0.063911 -0.129237
v -0.259863 0.063911 0.063586
v 0.332325 -0.232270 0.222913
v -0.259863 0.093848 -0.081939
v -0.259863 0.067160 0.063586
v -0.259863 0.065555 0.066343
v -0.259863 0.312060 0.044045
v 0.360524 -0.233129 0.223375
v 0.332325 -0.233129 0.063586
v -0.259863 0.065555 0.063586
v 0.332325 -0.233129 0.223375
v 0.332325 -0.233129 0.221258
v -0.259863 0.063911 -0.129237
v -0.259863 0.093848 -0.017819
v -0.259863 0.065555 -0.016870
v -0.259863 0.067199 0.065484
v -0.288063 -0.233129 -0.107910
v -0.231664 0.063911 -0.099223
v -0.259863 0.065555 0.064535
v -0.259863 0.063911 -0.099223
v -0.259863 0.065535 -0.017819
v -0.231664 0.067199 0.065484
v -0.288063 -0.233129 -0.270720
v -0.259863 -0.233129 0.065484
v -0.259863 -0.233129 0.221258
v -0.259863 -0.233129 -0.270720
v -0.259863 -0.079934 -0.019463
v -0.259863 0.063911 -0.017819
v -0.231664 -0.233129 0.221258
v -0.259863 -0.233129 -0.107910
v -0.231664 -0.233129 0.065484
v -0.231664 0.068108 0.067238
v -0.231664 -0.232219 0.223012
v -0.231664 -0.233129 -0.270720
v -0.231664 -0.232779 -0.271326
v -0.231664 0.064261 -0.099830
v 0.332325 -0.232219 0.223012
v -0.259863 -0.232708 0.222221
v 0.332325 -0.233129 -0.270720
v 0.332325 -0.232779 -0.271326
v 0.332325 -0.102771 -0.196266
v 0.332325 -0.103508 -0.195883
v -0.231664 -0.102771 -0.196266
v -0.231664 -0.103508 -0.195883
v -0.231664 -0.053346 -0.166922
v -0.231664 -0.053945 -0.168076

# 0 UV coordinates

# 20 vertex normals
vn 0 0.0254 0
vn 0 -0.0254 -0
vn 0.0254 0 0
vn -0.0254 0 0
vn 0 0.0127 -0.021997
vn 0 -0.0127 0.021997
vn 0 -0.00531129 0.0248385
vn 0 0.00531129 -0.0248385
vn 0 0 0.0254
vn 0 -0 -0.0254
vn -0 -0.0122084 -0.0222737
vn 0 0.0122084 0.0222737
vn 0 0.0120331 0.0223688
vn -0 -0.0120331 -0.0223688
vn 0 0.0253949 -0.000506882
vn 0 -0.0253949 0.000506882
vn 1.4732e-06 0.0116948 0.0225475
vn -1.4732e-06 -0.0116948 -0.0225475
vn -0 -0.0123174 -0.0222136
vn 0 0.0123174 0.0222136

# Mesh 'mesh1_mesh1-geometry' with 294 faces
g mesh1_mesh1-geometry
usemtl material_0_24
f  1//1 2//1 3//1
f  2//1 1//1 4//1
f  3//2 2//2 1//2
f  4//2 1//2 2//2
f  5//3 3//3 2//3
f  2//4 3//4 5//4
f  3//5 6//5 1//5
f  1//6 6//6 3//6
f  1//4 7//4 4//4
f  4//3 7//3 1//3
f  8//7 2//7 4//7
f  4//8 2//8 8//8
f  9//1 2//1 4//1
f  4//2 2//2 9//2
f  10//3 3//3 5//3
f  5//4 3//4 10//4
f  2//7 8//7 5//7
f  5//8 8//8 2//8
f  2//3 11//3 5//3
f  5//4 11//4 2//4
f  3//5 12//5 6//5
f  6//6 12//6 3//6
f  7//4 1//4 6//4
f  6//3 1//3 7//3
f  4//4 7//4 8//4
f  8//3 7//3 4//3
f  8//8 13//8 4//8
f  4//7 13//7 8//7
f  2//1 9//1 14//1
f  14//2 9//2 2//2
f  9//1 4//1 13//1
f  13//2 4//2 9//2
f  3//3 10//3 15//3
f  15//4 10//4 3//4
f  5//6 16//6 10//6
f  10//5 16//5 5//5
f  17//6 5//6 8//6
f  8//5 5//5 17//5
f  5//2 18//2 8//2
f  8//1 18//1 5//1
f  11//3 2//3 14//3
f  14//4 2//4 11//4
f  18//2 5//2 11//2
f  11//1 5//1 18//1
f  15//5 12//5 3//5
f  3//6 12//6 15//6
f  17//4 6//4 12//4
f  12//3 6//3 17//3
f  19//3 6//3 12//3
f  12//4 6//4 19//4
f  6//4 17//4 7//4
f  7//3 17//3 6//3
f  6//1 20//1 7//1
f  7//2 20//2 6//2
f  8//4 7//4 17//4
f  17//3 7//3 8//3
f  13//8 8//8 21//8
f  21//7 8//7 13//7
f  18//7 14//7 9//7
f  9//8 14//8 18//8
f  9//1 13//1 22//1
f  22//2 13//2 9//2
f  16//2 15//2 10//2
f  10//1 15//1 16//1
f  16//6 5//6 23//6
f  23//5 5//5 16//5
f  23//6 5//6 17//6
f  17//5 5//5 23//5
f  8//2 18//2 21//2
f  21//1 18//1 8//1
f  14//7 18//7 11//7
f  11//8 18//8 14//8
f  12//5 15//5 24//5
f  24//6 15//6 12//6
f  17//4 12//4 23//4
f  23//3 12//3 17//3
f  25//1 17//1 12//1
f  12//2 17//2 25//2
f  6//3 19//3 26//3
f  26//4 19//4 6//4
f  25//2 19//2 12//2
f  12//1 19//1 25//1
f  7//9 27//9 17//9
f  17//10 27//10 7//10
f  20//1 6//1 26//1
f  26//2 6//2 20//2
f  7//1 20//1 28//1
f  28//2 20//2 7//2
f  21//8 22//8 13//8
f  13//7 22//7 21//7
f  29//3 13//3 21//3
f  21//4 13//4 29//4
f  22//4 18//4 9//4
f  9//3 18//3 22//3
f  13//1 30//1 22//1
f  22//2 30//2 13//2
f  15//2 16//2 24//2
f  24//1 16//1 15//1
f  12//4 16//4 23//4
f  23//3 16//3 12//3
f  31//4 17//4 23//4
f  23//3 17//3 31//3
f  21//2 18//2 32//2
f  32//1 18//1 21//1
f  16//4 12//4 24//4
f  24//3 12//3 16//3
f  23//11 25//11 12//11
f  12//12 25//12 23//12
f  17//1 25//1 27//1
f  27//2 25//2 17//2
f  19//10 33//10 26//10
f  26//9 33//9 19//9
f  19//2 25//2 34//2
f  34//1 25//1 19//1
f  27//9 7//9 35//9
f  35//10 7//10 27//10
f  36//13 17//13 27//13
f  27//14 17//14 36//14
f  26//10 33//10 20//10
f  20//9 33//9 26//9
f  28//1 20//1 37//1
f  37//2 20//2 28//2
f  38//9 7//9 28//9
f  28//10 7//10 38//10
f  22//8 21//8 32//8
f  32//7 21//7 22//7
f  39//3 13//3 29//3
f  29//4 13//4 39//4
f  18//4 22//4 32//4
f  32//3 22//3 18//3
f  30//1 13//1 40//1
f  40//2 13//2 30//2
f  30//4 32//4 22//4
f  22//3 32//3 30//3
f  17//4 31//4 41//4
f  41//3 31//3 17//3
f  31//11 25//11 23//11
f  23//12 25//12 31//12
f  42//4 27//4 25//4
f  25//3 27//3 42//3
f  35//2 25//2 27//2
f  27//1 25//1 35//1
f  33//10 19//10 34//10
f  34//9 19//9 33//9
f  25//2 35//2 34//2
f  34//1 35//1 25//1
f  35//9 7//9 43//9
f  43//10 7//10 35//10
f  44//13 17//13 36//13
f  36//14 17//14 44//14
f  27//4 45//4 36//4
f  36//3 45//3 27//3
f  20//10 33//10 46//10
f  46//9 33//9 20//9
f  46//4 37//4 20//4
f  20//3 37//3 46//3
f  28//1 37//1 47//1
f  47//2 37//2 28//2
f  43//9 7//9 38//9
f  38//10 7//10 43//10
f  28//3 13//3 38//3
f  38//4 13//4 28//4
f  28//4 48//4 38//4
f  38//3 48//3 28//3
f  49//3 13//3 39//3
f  39//4 13//4 49//4
f  28//3 40//3 13//3
f  13//4 40//4 28//4
f  37//5 30//5 40//5
f  40//6 30//6 37//6
f  30//4 50//4 32//4
f  32//3 50//3 30//3
f  44//2 31//2 41//2
f  41//1 31//1 44//1
f  17//13 44//13 41//13
f  41//14 44//14 17//14
f  25//11 31//11 42//11
f  42//12 31//12 25//12
f  27//4 42//4 45//4
f  45//3 42//3 27//3
f  33//2 34//2 51//2
f  51//1 34//1 33//1
f  34//2 35//2 51//2
f  51//1 35//1 34//1
f  52//3 35//3 43//3
f  43//4 35//4 52//4
f  48//4 35//4 43//4
f  43//3 35//3 48//3
f  44//4 36//4 45//4
f  45//3 36//3 44//3
f  33//2 53//2 46//2
f  46//1 53//1 33//1
f  37//4 46//4 53//4
f  53//3 46//3 37//3
f  37//4 54//4 47//4
f  47//3 54//3 37//3
f  40//3 47//3 37//3
f  37//4 47//4 40//4
f  47//3 40//3 28//3
f  28//4 40//4 47//4
f  47//4 48//4 28//4
f  28//3 48//3 47//3
f  38//4 48//4 43//4
f  43//3 48//3 38//3
f  49//3 43//3 38//3
f  38//4 43//4 49//4
f  38//3 13//3 49//3
f  49//4 13//4 38//4
f  49//15 48//15 38//15
f  38//16 48//16 49//16
f  39//17 55//17 49//17
f  49//18 55//18 39//18
f  39//4 49//4 52//4
f  52//3 49//3 39//3
f  53//5 30//5 37//5
f  37//6 30//6 53//6
f  50//4 30//4 56//4
f  56//3 30//3 50//3
f  31//2 44//2 45//2
f  45//1 44//1 31//1
f  42//2 31//2 45//2
f  45//1 31//1 42//1
f  53//2 33//2 51//2
f  51//1 33//1 53//1
f  51//2 35//2 53//2
f  53//1 35//1 51//1
f  57//3 35//3 52//3
f  52//4 35//4 57//4
f  43//3 49//3 52//3
f  52//4 49//4 43//4
f  54//4 35//4 48//4
f  48//3 35//3 54//3
f  54//4 37//4 53//4
f  53//3 37//3 54//3
f  48//4 47//4 54//4
f  54//3 47//3 48//3
f  49//15 54//15 48//15
f  48//16 54//16 49//16
f  58//17 55//17 39//17
f  39//18 55//18 58//18
f  55//15 53//15 49//15
f  49//16 53//16 55//16
f  57//3 52//3 39//3
f  39//4 52//4 57//4
f  59//5 30//5 53//5
f  53//6 30//6 59//6
f  30//5 59//5 56//5
f  56//6 59//6 30//6
f  59//2 50//2 56//2
f  56//1 50//1 59//1
f  51//19 60//19 53//19
f  53//20 60//20 51//20
f  53//15 55//15 51//15
f  51//16 55//16 53//16
f  53//2 35//2 61//2
f  61//1 35//1 53//1
f  35//3 57//3 60//3
f  60//4 57//4 35//4
f  35//4 54//4 61//4
f  61//3 54//3 35//3
f  61//3 53//3 54//3
f  54//4 53//4 61//4
f  49//15 53//15 54//15
f  54//16 53//16 49//16
f  55//17 58//17 62//17
f  62//18 58//18 55//18
f  57//3 39//3 58//3
f  58//4 39//4 57//4
f  53//3 63//3 59//3
f  59//4 63//4 53//4
f  50//2 59//2 63//2
f  63//1 59//1 50//1
f  51//19 57//19 60//19
f  60//20 57//20 51//20
f  63//3 53//3 60//3
f  60//4 53//4 63//4
f  61//3 60//3 53//3
f  53//4 60//4 61//4
f  64//4 55//4 51//4
f  51//3 55//3 64//3
f  60//3 61//3 35//3
f  35//4 61//4 60//4
f  58//2 64//2 62//2
f  62//1 64//1 58//1
f  62//4 65//4 55//4
f  55//3 65//3 62//3
f  55//4 64//4 62//4
f  62//3 64//3 55//3
f  64//2 58//2 57//2
f  57//1 58//1 64//1
f  57//19 51//19 64//19
f  64//20 51//20 57//20
f  65//4 62//4 66//4
f  66//3 62//3 65//3

# Mesh 'mesh2_mesh2-geometry' with 114 faces
g mesh2_mesh2-geometry
usemtl material_0_0
l  56 50
l  56 30
l  56 59
l  30 22
l  30 40
l  59 53
l  67 59
l  59 63
l  22 32
l  22 9
l  22 13
l  40 13
l  37 40
l  53 60
l  53 54
l  53 37
l  61 53
l  51 53
l  53 46
l  67 68
l  18 32
l  32 21
l  9 18
l  9 14
l  13 21
l  13 4
l  47 37
l  37 20
l  60 35
l  60 57
l  54 48
l  47 54
l  54 61
l  61 35
l  51 69
l  51 64
l  55 51
l  51 33
l  33 46
l  46 20
l  18 11
l  21 8
l  14 11
l  2 14
l  1 4
l  4 8
l  4 2
l  47 28
l  20 26
l  35 27
l  35 52
l  43 35
l  57 58
l  64 57
l  48 38
l  48 43
l  62 64
l  55 62
l  55 49
l  34 33
l  11 5
l  8 17
l  8 5
l  2 3
l  2 5
l  1 3
l  1 6
l  28 7
l  28 38
l  6 26
l  26 19
l  25 27
l  36 27
l  27 17
l  52 49
l  52 39
l  43 52
l  38 43
l  62 58
l  39 58
l  38 49
l  49 39
l  19 34
l  25 34
l  5 10
l  41 17
l  17 23
l  17 12
l  7 17
l  15 3
l  7 6
l  6 12
l  12 19
l  25 42
l  12 25
l  45 36
l  44 36
l  36 70
l  39 71
l  10 15
l  10 16
l  31 41
l  41 44
l  12 23
l  23 31
l  23 16
l  12 24
l  15 24
l  42 45
l  31 42
l  45 44
l  16 24
l  24 72
l  72 73

# Mesh 'mesh3_mesh3-geometry' with 1 faces
g mesh3_mesh3-geometry
usemtl material_0_0
l  74 75

# Mesh 'mesh4_mesh4-geometry' with 1 faces
g mesh4_mesh4-geometry
usemtl material_0_0
l  76 77

# Mesh 'mesh5_mesh5-geometry' with 1 faces
g mesh5_mesh5-geometry
usemtl material_0_0
l  78 79

