# File produced by Open Asset Import Library (http://www.assimp.sf.net)
# (assimp v3.2.202087883)

mtllib model_normalized.mtl

# 136 vertex positions
v -0.461089 -0.192132 -0.111779
v -0.442459 -0.196790 -0.111779
v -0.461089 -0.196790 -0.111779
v -0.442459 -0.192132 -0.111779
v -0.461089 -0.196790 0.111779
v -0.465747 -0.192132 -0.116437
v -0.442459 -0.192132 0.111779
v -0.442459 -0.196790 0.111779
v -0.461089 -0.192132 0.111779
v -0.437802 -0.192132 -0.116437
v -0.465747 -0.192132 0.116437
v -0.465747 0.012796 -0.116437
v -0.437802 -0.192132 0.116437
v -0.437802 -0.173502 -0.116437
v -0.465747 0.012796 0.116437
v -0.437802 -0.173502 0.116437
v -0.437802 -0.145557 -0.116437
v -0.463367 0.030878 -0.116437
v -0.437802 0.010965 -0.116437
v 0.437802 -0.173502 -0.116437
v -0.437802 -0.145557 0.116437
v -0.463367 0.030878 0.116437
v -0.436139 0.023583 -0.116437
v -0.437802 0.010965 0.116437
v 0.437802 -0.145557 -0.116437
v 0.437802 -0.173502 0.116437
v 0.437802 -0.145557 0.116437
v -0.436139 0.023583 0.116437
v -0.456385 0.047727 -0.116437
v -0.431975 0.033634 -0.116437
v 0.465746 0.012796 -0.116437
v 0.437802 -0.192132 0.116437
v -0.431975 0.033634 0.116437
v -0.456385 0.047727 0.116437
v 0.465746 -0.192132 -0.116437
v 0.437802 0.010965 -0.116437
v 0.437802 -0.192132 -0.116437
v 0.465746 0.012796 0.116437
v -0.445286 0.062196 -0.116437
v -0.425352 0.042266 -0.116437
v -0.425352 0.042266 0.116437
v 0.436140 0.023583 -0.116437
v 0.437802 0.010965 0.116437
v 0.442459 -0.192132 -0.111779
v 0.465746 -0.192132 0.116437
v -0.445286 0.062196 0.116437
v -0.416722 0.048889 -0.116437
v 0.461089 -0.192132 -0.111779
v 0.463366 0.030878 0.116437
v 0.463366 0.030878 -0.116437
v 0.442459 -0.192132 0.111779
v 0.461089 -0.192132 0.111779
v 0.436140 0.023583 0.116437
v -0.416722 0.048889 0.116437
v -0.430816 0.073299 0.116437
v -0.406671 0.053052 -0.116437
v 0.431977 0.033634 -0.116437
v 0.461089 -0.196790 -0.111779
v 0.442459 -0.196790 0.111779
v -0.406671 0.053052 0.116437
v -0.430816 0.073299 -0.116437
v 0.430815 0.073299 0.116437
v -0.394054 0.054714 -0.116437
v 0.456387 0.047727 0.116437
v 0.431977 0.033634 0.116437
v 0.456387 0.047727 -0.116437
v 0.442459 -0.196790 -0.111779
v -0.394054 0.054714 0.116437
v -0.413965 0.080278 0.116437
v 0.445284 0.062196 -0.116437
v 0.445284 0.062196 0.116437
v 0.413966 0.080278 0.116437
v 0.461089 -0.196790 0.111779
v 0.425354 0.042266 -0.116437
v -0.413965 0.080278 -0.116437
v 0.430815 0.073299 -0.116437
v 0.413966 0.080278 -0.116437
v 0.394053 0.054714 -0.116437
v 0.425354 0.042266 0.116437
v 0.416722 0.048889 -0.116437
v -0.391227 0.054714 -0.082670
v 0.394053 0.054714 0.116437
v -0.395885 0.082658 0.116437
v 0.395884 0.082658 0.116437
v 0.395884 0.082658 -0.116437
v 0.406671 0.053052 -0.116437
v 0.391227 0.054714 -0.082670
v 0.416722 0.048889 0.116437
v -0.391227 0.054714 -0.062876
v 0.406671 0.053052 0.116437
v 0.391227 0.054714 0.082670
v -0.395885 0.082658 -0.116437
v 0.391227 0.082658 -0.082670
v -0.391227 0.054714 -0.053561
v -0.391227 0.082658 -0.062876
v -0.391227 0.054714 0.082670
v -0.391227 0.082658 0.082670
v 0.391227 0.082658 0.082670
v 0.391227 0.054714 0.062876
v -0.391227 0.082658 -0.082670
v 0.391227 0.054714 -0.062876
v -0.391227 0.054714 -0.033767
v 0.391227 0.054714 -0.053561
v -0.391227 0.054714 0.062876
v -0.391227 0.082658 0.062876
v 0.391227 0.082658 0.062876
v 0.391227 0.054714 0.053561
v 0.391227 0.082658 -0.062876
v 0.391227 0.054714 0.004657
v -0.391227 0.054714 -0.024452
v -0.391227 0.082658 -0.033767
v 0.391227 0.082658 -0.053561
v -0.391227 0.054714 0.053561
v -0.391227 0.082658 0.053561
v 0.391227 0.054714 0.033767
v 0.391227 0.054714 0.024452
v 0.391227 0.054714 -0.004657
v -0.391227 0.054714 -0.004657
v 0.391227 0.054714 -0.033767
v -0.391227 0.082658 -0.053561
v -0.391227 0.054714 0.033767
v -0.391227 0.082658 0.033767
v 0.391227 0.082658 0.004657
v 0.391227 0.082658 0.053561
v 0.391227 0.082658 0.033767
v -0.391227 0.054714 0.004657
v -0.391227 0.082658 -0.004657
v 0.391227 0.054714 -0.024452
v 0.391227 0.082658 -0.033767
v -0.391227 0.054714 0.024452
v -0.391227 0.082658 0.024452
v 0.391227 0.082658 0.024452
v -0.391227 0.082658 -0.024452
v 0.391227 0.082658 -0.024452
v 0.391227 0.082658 -0.004657
v -0.391227 0.082658 0.004657

# 0 UV coordinates

# 34 vertex normals
vn 0 0 -0.0254
vn 0 0 0.0254
vn 0 -0.0254 0
vn 0 0.0254 0
vn -0.0254 0 0
vn 0.0254 -0 -0
vn -0.0251827 0.00331536 0
vn -0.0245345 0.006574 0
vn 0.0251827 -0.00331536 -0
vn 0.0245345 -0.006574 -0
vn -0.021997 0.0127 0
vn 0.021997 -0.0127 -0
vn -0.0179605 0.0179605 0
vn 0.0179605 -0.0179605 -0
vn 0.0251827 0.00331536 0
vn 0.0245345 0.006574 0
vn -0.0251827 -0.00331536 0
vn -0.0245345 -0.006574 0
vn -0.0127 0.021997 0
vn 0.0127 -0.021997 -0
vn 0.006574 -0.0245345 0
vn -0.006574 0.0245345 0
vn 0.021997 0.0127 0
vn -0.021997 -0.0127 0
vn 0.00331536 -0.0251827 0
vn -0.00331536 0.0251827 0
vn 0.0179605 0.0179605 0
vn 0.0127 0.021997 0
vn -0.0127 -0.021997 0
vn -0.0179605 -0.0179605 0
vn 0.006574 0.0245345 0
vn -0.006574 -0.0245345 0
vn 0.00331536 0.0251827 0
vn -0.00331536 -0.0251827 0

# Mesh 'mesh1_mesh1-geometry' with 592 faces
g mesh1_mesh1-geometry
usemtl material_0_24
f  1//1 2//1 3//1
f  2//1 1//1 4//1
f  3//2 2//2 1//2
f  4//2 1//2 2//2
f  2//3 5//3 3//3
f  3//4 5//4 2//4
f  5//5 1//5 3//5
f  3//6 1//6 5//6
f  6//3 4//3 1//3
f  1//4 4//4 6//4
f  7//6 2//6 4//6
f  4//5 2//5 7//5
f  5//3 2//3 8//3
f  8//4 2//4 5//4
f  1//5 5//5 9//5
f  9//6 5//6 1//6
f  10//3 4//3 6//3
f  6//4 4//4 10//4
f  6//3 1//3 11//3
f  11//4 1//4 6//4
f  2//6 7//6 8//6
f  8//5 7//5 2//5
f  4//3 10//3 7//3
f  7//4 10//4 4//4
f  7//2 5//2 8//2
f  8//1 5//1 7//1
f  5//2 7//2 9//2
f  9//1 7//1 5//1
f  9//3 11//3 1//3
f  1//4 11//4 9//4
f  12//1 10//1 6//1
f  6//2 10//2 12//2
f  11//5 12//5 6//5
f  6//6 12//6 11//6
f  13//3 7//3 10//3
f  10//4 7//4 13//4
f  7//3 11//3 9//3
f  9//4 11//4 7//4
f  10//1 12//1 14//1
f  14//2 12//2 10//2
f  12//5 11//5 15//5
f  15//6 11//6 12//6
f  7//3 13//3 11//3
f  11//4 13//4 7//4
f  10//6 16//6 13//6
f  13//5 16//5 10//5
f  14//1 12//1 17//1
f  17//2 12//2 14//2
f  16//6 10//6 14//6
f  14//5 10//5 16//5
f  11//2 16//2 15//2
f  15//1 16//1 11//1
f  15//7 18//8 12//7
f  12//9 18//10 15//9
f  16//2 11//2 13//2
f  13//1 11//1 16//1
f  17//1 12//1 19//1
f  19//2 12//2 17//2
f  14//1 17//1 20//1
f  20//2 17//2 14//2
f  20//3 16//3 14//3
f  14//4 16//4 20//4
f  15//2 16//2 21//2
f  21//1 16//1 15//1
f  18//8 15//7 22//8
f  22//10 15//9 18//10
f  23//1 12//1 18//1
f  18//2 12//2 23//2
f  19//1 12//1 23//1
f  23//2 12//2 19//2
f  24//6 17//6 19//6
f  19//5 17//5 24//5
f  25//1 20//1 17//1
f  17//2 20//2 25//2
f  16//3 20//3 26//3
f  26//4 20//4 16//4
f  21//2 16//2 27//2
f  27//1 16//1 21//1
f  15//2 21//2 24//2
f  24//1 21//1 15//1
f  15//2 28//2 22//2
f  22//1 28//1 15//1
f  22//8 29//11 18//8
f  18//10 29//12 22//10
f  23//1 18//1 30//1
f  30//2 18//2 23//2
f  28//10 19//9 23//10
f  23//8 19//7 28//8
f  17//6 24//6 21//6
f  21//5 24//5 17//5
f  19//9 28//10 24//9
f  24//7 28//8 19//7
f  31//1 20//1 25//1
f  25//2 20//2 31//2
f  17//4 27//4 25//4
f  25//3 27//3 17//3
f  20//5 32//5 26//5
f  26//6 32//6 20//6
f  26//2 27//2 16//2
f  16//1 27//1 26//1
f  27//4 17//4 21//4
f  21//3 17//3 27//3
f  15//2 24//2 28//2
f  28//1 24//1 15//1
f  22//2 28//2 33//2
f  33//1 28//1 22//1
f  29//11 22//8 34//11
f  34//12 22//10 29//12
f  30//1 18//1 29//1
f  29//2 18//2 30//2
f  33//12 23//10 30//12
f  30//11 23//8 33//11
f  23//10 33//12 28//10
f  28//8 33//11 23//8
f  35//1 20//1 31//1
f  31//2 20//2 35//2
f  31//1 25//1 36//1
f  36//2 25//2 31//2
f  27//5 36//5 25//5
f  25//6 36//6 27//6
f  32//5 20//5 37//5
f  37//6 20//6 32//6
f  32//2 38//2 26//2
f  26//1 38//1 32//1
f  26//2 38//2 27//2
f  27//1 38//1 26//1
f  22//2 33//2 34//2
f  34//1 33//1 22//1
f  34//11 39//13 29//11
f  29//12 39//14 34//12
f  30//1 29//1 40//1
f  40//2 29//2 30//2
f  30//12 41//14 33//12
f  33//11 41//13 30//11
f  20//1 35//1 37//1
f  37//2 35//2 20//2
f  38//6 35//6 31//6
f  31//5 35//5 38//5
f  31//1 36//1 42//1
f  42//2 36//2 31//2
f  36//5 27//5 43//5
f  43//6 27//6 36//6
f  37//3 44//3 32//3
f  32//4 44//4 37//4
f  38//2 32//2 45//2
f  45//1 32//1 38//1
f  27//2 38//2 43//2
f  43//1 38//1 27//1
f  34//2 33//2 41//2
f  41//1 33//1 34//1
f  39//13 34//11 46//13
f  46//14 34//12 39//14
f  47//1 29//1 39//1
f  39//2 29//2 47//2
f  40//1 29//1 47//1
f  47//2 29//2 40//2
f  41//14 30//12 40//14
f  40//13 30//11 41//13
f  35//3 48//3 37//3
f  37//4 48//4 35//4
f  35//6 38//6 45//6
f  45//5 38//5 35//5
f  31//15 49//16 38//15
f  38//17 49//18 31//17
f  43//17 42//18 36//17
f  36//15 42//16 43//15
f  31//1 42//1 50//1
f  50//2 42//2 31//2
f  37//3 48//3 44//3
f  44//4 48//4 37//4
f  51//3 32//3 44//3
f  44//4 32//4 51//4
f  52//3 45//3 32//3
f  32//4 45//4 52//4
f  43//2 38//2 53//2
f  53//1 38//1 43//1
f  34//2 41//2 54//2
f  54//1 41//1 34//1
f  34//2 54//2 46//2
f  46//1 54//1 34//1
f  55//19 39//13 46//13
f  46//14 39//14 55//20
f  47//1 39//1 56//1
f  56//2 39//2 47//2
f  47//20 41//14 40//14
f  40//13 41//13 47//19
f  48//3 35//3 52//3
f  52//4 35//4 48//4
f  45//3 52//3 35//3
f  35//4 52//4 45//4
f  49//16 31//15 50//16
f  50//18 31//17 49//18
f  53//2 38//2 49//2
f  49//1 38//1 53//1
f  42//18 43//17 53//18
f  53//16 43//15 42//16
f  50//1 42//1 57//1
f  57//2 42//2 50//2
f  58//1 44//1 48//1
f  48//2 44//2 58//2
f  52//3 32//3 51//3
f  51//4 32//4 52//4
f  44//5 59//5 51//5
f  51//6 59//6 44//6
f  41//14 47//20 54//20
f  54//19 47//19 41//13
f  46//2 54//2 60//2
f  60//1 54//1 46//1
f  39//13 55//19 61//19
f  61//20 55//20 39//14
f  46//2 62//2 55//2
f  55//1 62//1 46//1
f  56//1 39//1 63//1
f  63//2 39//2 56//2
f  56//21 54//20 47//20
f  47//19 54//19 56//22
f  52//6 58//6 48//6
f  48//5 58//5 52//5
f  50//16 64//23 49//16
f  49//18 64//24 50//18
f  53//2 49//2 65//2
f  65//1 49//1 53//1
f  53//18 57//24 42//18
f  42//16 57//23 53//16
f  50//1 57//1 66//1
f  66//2 57//2 50//2
f  44//1 58//1 67//1
f  67//2 58//2 44//2
f  59//2 52//2 51//2
f  51//1 52//1 59//1
f  59//5 44//5 67//5
f  67//6 44//6 59//6
f  54//20 56//21 60//21
f  60//22 56//22 54//19
f  46//2 60//2 68//2
f  68//1 60//1 46//1
f  69//22 61//19 55//19
f  55//20 61//20 69//21
f  70//1 39//1 61//1
f  61//2 39//2 70//2
f  46//2 71//2 62//2
f  62//1 71//1 46//1
f  55//2 62//2 72//2
f  72//1 62//1 55//1
f  70//1 63//1 39//1
f  39//2 63//2 70//2
f  63//25 60//21 56//21
f  56//22 60//22 63//26
f  58//6 52//6 73//6
f  73//5 52//5 58//5
f  64//23 50//16 66//23
f  66//24 50//18 64//24
f  65//2 49//2 64//2
f  64//1 49//1 65//1
f  57//24 53//18 65//24
f  65//23 53//16 57//23
f  66//1 57//1 74//1
f  74//2 57//2 66//2
f  58//3 59//3 67//3
f  67//4 59//4 58//4
f  52//2 59//2 73//2
f  73//1 59//1 52//1
f  60//21 63//25 68//25
f  68//26 63//26 60//22
f  46//2 68//2 71//2
f  71//1 68//1 46//1
f  61//19 69//22 75//22
f  75//21 69//21 61//20
f  55//2 72//2 69//2
f  69//1 72//1 55//1
f  70//1 61//1 76//1
f  76//2 61//2 70//2
f  71//27 76//28 62//28
f  62//29 76//29 71//30
f  62//28 77//31 72//31
f  72//32 77//32 62//29
f  70//1 78//1 63//1
f  63//2 78//2 70//2
f  59//3 58//3 73//3
f  73//4 58//4 59//4
f  66//23 71//27 64//23
f  64//24 71//30 66//24
f  65//2 64//2 79//2
f  79//1 64//1 65//1
f  65//24 74//30 57//24
f  57//23 74//27 65//23
f  66//1 74//1 80//1
f  80//2 74//2 66//2
f  63//3 81//3 68//3
f  68//4 81//4 63//4
f  82//2 71//2 68//2
f  68//1 71//1 82//1
f  83//26 75//22 69//22
f  69//21 75//21 83//25
f  77//1 61//1 75//1
f  75//2 61//2 77//2
f  69//2 72//2 84//2
f  84//1 72//1 69//1
f  76//1 61//1 77//1
f  77//2 61//2 76//2
f  76//28 71//27 70//27
f  70//30 71//30 76//29
f  77//31 62//28 76//28
f  76//29 62//29 77//32
f  85//33 72//31 77//31
f  77//32 72//32 85//34
f  70//1 86//1 78//1
f  78//2 86//2 70//2
f  78//3 87//3 63//3
f  63//4 87//4 78//4
f  71//27 66//23 70//27
f  70//30 66//24 71//30
f  88//2 64//2 71//2
f  71//1 64//1 88//1
f  79//2 64//2 88//2
f  88//1 64//1 79//1
f  74//30 65//24 79//30
f  79//27 65//23 74//27
f  74//30 88//29 80//29
f  80//28 88//28 74//27
f  66//1 80//1 70//1
f  70//2 80//2 66//2
f  63//3 87//3 81//3
f  81//4 87//4 63//4
f  89//3 68//3 81//3
f  81//4 68//4 89//4
f  90//2 71//2 82//2
f  82//1 71//1 90//1
f  91//3 82//3 68//3
f  68//4 82//4 91//4
f  75//22 83//26 92//26
f  92//25 83//25 75//21
f  69//2 84//2 83//2
f  83//1 84//1 69//1
f  77//1 75//1 92//1
f  92//2 75//2 77//2
f  72//31 85//33 84//33
f  84//34 85//34 72//32
f  77//1 92//1 85//1
f  85//2 92//2 77//2
f  70//1 80//1 86//1
f  86//2 80//2 70//2
f  86//32 82//34 78//34
f  78//33 82//33 86//31
f  87//3 78//3 91//3
f  91//4 78//4 87//4
f  88//2 71//2 90//2
f  90//1 71//1 88//1
f  88//29 74//30 79//30
f  79//27 74//27 88//28
f  90//32 80//29 88//29
f  88//28 80//28 90//31
f  93//2 81//2 87//2
f  87//1 81//1 93//1
f  94//3 68//3 89//3
f  89//4 68//4 94//4
f  81//6 95//6 89//6
f  89//5 95//5 81//5
f  82//34 86//32 90//32
f  90//31 86//31 82//33
f  82//3 91//3 78//3
f  78//4 91//4 82//4
f  91//3 68//3 96//3
f  96//4 68//4 91//4
f  83//4 97//4 92//4
f  92//3 97//3 83//3
f  84//4 98//4 83//4
f  83//3 98//3 84//3
f  85//4 93//4 84//4
f  84//3 93//3 85//3
f  93//4 85//4 92//4
f  92//3 85//3 93//3
f  80//29 90//32 86//32
f  86//31 90//31 80//28
f  87//3 91//3 99//3
f  99//4 91//4 87//4
f  81//2 93//2 100//2
f  100//1 93//1 81//1
f  101//5 93//5 87//5
f  87//6 93//6 101//6
f  102//3 68//3 94//3
f  94//4 68//4 102//4
f  89//3 103//3 94//3
f  94//4 103//4 89//4
f  95//6 81//6 100//6
f  100//5 81//5 95//5
f  95//1 101//1 89//1
f  89//2 101//2 95//2
f  96//3 68//3 104//3
f  104//4 68//4 96//4
f  97//1 91//1 96//1
f  96//2 91//2 97//2
f  83//4 98//4 97//4
f  97//3 98//3 83//3
f  105//4 92//4 97//4
f  97//3 92//3 105//3
f  98//4 84//4 93//4
f  93//3 84//3 98//3
f  93//4 92//4 100//4
f  100//3 92//3 93//3
f  91//5 106//5 99//5
f  99//6 106//6 91//6
f  87//3 99//3 107//3
f  107//4 99//4 87//4
f  93//5 101//5 108//5
f  108//6 101//6 93//6
f  87//3 109//3 101//3
f  101//4 109//4 87//4
f  110//3 68//3 102//3
f  102//4 68//4 110//4
f  94//6 111//6 102//6
f  102//5 111//5 94//5
f  101//3 103//3 89//3
f  89//4 103//4 101//4
f  112//2 94//2 103//2
f  103//1 94//1 112//1
f  100//4 92//4 95//4
f  95//3 92//3 100//3
f  101//1 95//1 108//1
f  108//2 95//2 101//2
f  104//3 68//3 113//3
f  113//4 68//4 104//4
f  104//6 97//6 96//6
f  96//5 97//5 104//5
f  91//1 97//1 98//1
f  98//2 97//2 91//2
f  114//4 92//4 105//4
f  105//3 92//3 114//3
f  97//6 104//6 105//6
f  105//5 104//5 97//5
f  98//4 93//4 108//4
f  108//3 93//3 98//3
f  106//5 91//5 98//5
f  98//6 91//6 106//6
f  106//2 104//2 99//2
f  99//1 104//1 106//1
f  104//3 107//3 99//3
f  99//4 107//4 104//4
f  87//3 107//3 115//3
f  115//4 107//4 87//4
f  87//3 116//3 109//3
f  109//4 116//4 87//4
f  109//3 117//3 101//3
f  101//4 117//4 109//4
f  118//3 68//3 110//3
f  110//4 68//4 118//4
f  119//3 110//3 102//3
f  102//4 110//4 119//4
f  111//6 94//6 120//6
f  120//5 94//5 111//5
f  111//1 119//1 102//1
f  102//2 119//2 111//2
f  103//3 101//3 117//3
f  117//4 101//4 103//4
f  94//2 112//2 120//2
f  120//1 112//1 94//1
f  119//5 112//5 103//5
f  103//6 112//6 119//6
f  95//4 92//4 120//4
f  120//3 92//3 95//3
f  112//4 108//4 95//4
f  95//3 108//3 112//3
f  113//3 68//3 121//3
f  121//4 68//4 113//4
f  107//3 104//3 113//3
f  113//4 104//4 107//4
f  122//4 92//4 114//4
f  114//3 92//3 122//3
f  106//4 114//4 105//4
f  105//3 114//3 106//3
f  104//2 106//2 105//2
f  105//1 106//1 104//1
f  98//4 108//4 123//4
f  123//3 108//3 98//3
f  98//4 124//4 106//4
f  106//3 124//3 98//3
f  107//5 125//5 115//5
f  115//6 125//6 107//6
f  87//3 115//3 116//3
f  116//4 115//4 87//4
f  116//5 123//5 109//5
f  109//6 123//6 116//6
f  117//3 109//3 126//3
f  126//4 109//4 117//4
f  126//3 68//3 118//3
f  118//4 68//4 126//4
f  110//6 127//6 118//6
f  118//5 127//5 110//5
f  119//3 128//3 110//3
f  110//4 128//4 119//4
f  120//4 92//4 111//4
f  111//3 92//3 120//3
f  119//1 111//1 129//1
f  129//2 111//2 119//2
f  128//3 103//3 117//3
f  117//4 103//4 128//4
f  112//4 95//4 120//4
f  120//3 95//3 112//3
f  112//5 119//5 129//5
f  129//6 119//6 112//6
f  103//3 128//3 119//3
f  119//4 128//4 103//4
f  108//4 112//4 123//4
f  123//3 112//3 108//3
f  121//3 68//3 130//3
f  130//4 68//4 121//4
f  121//6 114//6 113//6
f  113//5 114//5 121//5
f  114//1 107//1 113//1
f  113//2 107//2 114//2
f  131//4 92//4 122//4
f  122//3 92//3 131//3
f  114//6 121//6 122//6
f  122//5 121//5 114//5
f  114//4 106//4 124//4
f  124//3 106//3 114//3
f  98//4 123//4 132//4
f  132//3 123//3 98//3
f  98//4 125//4 124//4
f  124//3 125//3 98//3
f  125//5 107//5 124//5
f  124//6 107//6 125//6
f  125//2 121//2 115//2
f  115//1 121//1 125//1
f  121//3 116//3 115//3
f  115//4 116//4 121//4
f  123//5 116//5 132//5
f  132//6 116//6 123//6
f  123//2 126//2 109//2
f  109//1 126//1 123//1
f  117//3 126//3 118//3
f  118//4 126//4 117//4
f  130//3 68//3 126//3
f  126//4 68//4 130//4
f  127//6 110//6 133//6
f  133//5 110//5 127//5
f  127//1 117//1 118//1
f  118//2 117//2 127//2
f  134//2 110//2 128//2
f  128//1 110//1 134//1
f  111//4 92//4 133//4
f  133//3 92//3 111//3
f  134//4 129//4 111//4
f  111//3 129//3 134//3
f  117//5 134//5 128//5
f  128//6 134//6 117//6
f  129//4 135//4 112//4
f  112//3 135//3 129//3
f  135//4 123//4 112//4
f  112//3 123//3 135//3
f  116//3 121//3 130//3
f  130//4 121//4 116//4
f  107//1 114//1 124//1
f  124//2 114//2 107//2
f  136//4 92//4 131//4
f  131//3 92//3 136//3
f  125//4 131//4 122//4
f  122//3 131//3 125//3
f  121//2 125//2 122//2
f  122//1 125//1 121//1
f  98//4 132//4 125//4
f  125//3 132//3 98//3
f  116//1 131//1 132//1
f  132//2 131//2 116//2
f  126//2 123//2 136//2
f  136//1 123//1 126//1
f  126//6 131//6 130//6
f  130//5 131//5 126//5
f  110//2 134//2 133//2
f  133//1 134//1 110//1
f  133//4 92//4 127//4
f  127//3 92//3 133//3
f  117//1 127//1 135//1
f  135//2 127//2 117//2
f  134//4 111//4 133//4
f  133//3 111//3 134//3
f  135//4 129//4 134//4
f  134//3 129//3 135//3
f  134//5 117//5 135//5
f  135//6 117//6 134//6
f  123//4 135//4 136//4
f  136//3 135//3 123//3
f  131//1 116//1 130//1
f  130//2 116//2 131//2
f  127//4 92//4 136//4
f  136//3 92//3 127//3
f  131//6 126//6 136//6
f  136//5 126//5 131//5
f  131//4 125//4 132//4
f  132//3 125//3 131//3
f  136//4 135//4 127//4
f  127//3 135//3 136//3

# Mesh 'mesh2_mesh2-geometry' with 50 faces
g mesh2_mesh2-geometry
usemtl material_0_0
l  10 6
l  10 13
l  10 14
l  11 6
l  6 12
l  13 11
l  13 16
l  14 16
l  20 14
l  11 15
l  18 12
l  12 15
l  26 16
l  37 20
l  26 20
l  22 15
l  29 18
l  32 26
l  32 37
l  35 37
l  34 22
l  39 29
l  45 32
l  45 35
l  35 31
l  46 34
l  61 39
l  45 38
l  31 38
l  31 50
l  55 46
l  75 61
l  38 49
l  50 66
l  69 55
l  92 75
l  49 64
l  66 70
l  83 69
l  85 92
l  83 92
l  64 71
l  70 76
l  84 83
l  77 85
l  85 84
l  71 62
l  76 77
l  72 84
l  62 72

# Mesh 'mesh3_mesh3-geometry' with 12 faces
g mesh3_mesh3-geometry
usemtl material_0_0
l  7 9
l  8 7
l  4 7
l  5 9
l  9 1
l  2 8
l  8 5
l  1 4
l  2 4
l  5 3
l  3 1
l  3 2

# Mesh 'mesh4_mesh4-geometry' with 38 faces
g mesh4_mesh4-geometry
usemtl material_0_0
l  21 27
l  24 21
l  21 17
l  27 43
l  27 25
l  28 24
l  24 19
l  17 25
l  19 17
l  43 53
l  43 36
l  25 36
l  33 28
l  23 19
l  53 65
l  36 42
l  41 33
l  30 23
l  65 79
l  42 57
l  54 41
l  40 30
l  79 88
l  57 74
l  60 54
l  47 40
l  88 90
l  74 80
l  68 60
l  56 47
l  90 82
l  80 86
l  68 63
l  68 82
l  63 56
l  82 78
l  86 78
l  63 78

# Mesh 'mesh5_mesh5-geometry' with 12 faces
g mesh5_mesh5-geometry
usemtl material_0_0
l  67 58
l  59 67
l  67 44
l  58 73
l  58 48
l  59 51
l  73 59
l  51 44
l  44 48
l  73 52
l  48 52
l  52 51

# Mesh 'mesh6_mesh6-geometry' with 12 faces
g mesh6_mesh6-geometry
usemtl material_0_0
l  105 97
l  106 105
l  105 104
l  97 98
l  97 96
l  98 106
l  106 99
l  99 104
l  104 96
l  98 91
l  96 91
l  91 99

# Mesh 'mesh7_mesh7-geometry' with 12 faces
g mesh7_mesh7-geometry
usemtl material_0_0
l  124 125
l  114 124
l  124 107
l  125 122
l  125 115
l  122 114
l  114 113
l  113 107
l  107 115
l  122 121
l  115 121
l  121 113

# Mesh 'mesh8_mesh8-geometry' with 12 faces
g mesh8_mesh8-geometry
usemtl material_0_0
l  136 131
l  123 136
l  136 126
l  131 132
l  131 130
l  132 123
l  123 109
l  109 126
l  126 130
l  132 116
l  130 116
l  116 109

# Mesh 'mesh9_mesh9-geometry' with 12 faces
g mesh9_mesh9-geometry
usemtl material_0_0
l  135 134
l  127 135
l  135 117
l  134 133
l  134 128
l  133 127
l  127 118
l  118 117
l  117 128
l  133 110
l  128 110
l  110 118

# Mesh 'mesh10_mesh10-geometry' with 12 faces
g mesh10_mesh10-geometry
usemtl material_0_0
l  120 111
l  112 120
l  120 94
l  111 129
l  111 102
l  129 112
l  112 103
l  94 102
l  103 94
l  129 119
l  102 119
l  119 103

# Mesh 'mesh11_mesh11-geometry' with 12 faces
g mesh11_mesh11-geometry
usemtl material_0_0
l  108 93
l  95 108
l  108 101
l  93 100
l  93 87
l  100 95
l  95 89
l  89 101
l  101 87
l  100 81
l  87 81
l  81 89

