# File produced by Open Asset Import Library (http://www.assimp.sf.net)
# (assimp v3.2.202087883)

mtllib model_normalized.mtl

# 82 vertex positions
v -0.437145 -0.108164 -0.021856
v 0.437145 -0.108164 0.150038
v 0.437145 -0.108164 -0.021856
v -0.437145 -0.108164 0.150038
v 0.437145 -0.122983 -0.021856
v -0.437145 -0.122983 0.150038
v 0.437145 -0.122983 0.150038
v -0.437145 -0.122983 -0.021856
v 0.437145 0.114113 0.120402
v -0.437145 0.084476 0.120402
v 0.437145 0.084476 0.120402
v -0.437145 0.114113 0.120402
v 0.437145 0.084476 -0.027783
v -0.437145 0.114113 -0.027783
v -0.437145 0.084476 -0.027783
v 0.437145 0.114113 -0.027783
v 0.437145 0.291934 0.120402
v -0.437145 0.291934 0.150038
v 0.437145 0.291934 0.150038
v -0.437145 0.291934 0.120402
v -0.437145 0.084476 0.150038
v 0.437145 0.084476 0.150038
v 0.437145 -0.122983 0.179675
v -0.437145 -0.122983 0.179675
v 0.437145 0.291934 0.179675
v -0.437145 0.291934 0.179675
v 0.437145 -0.108164 -0.027783
v -0.437145 -0.108164 -0.027783
v 0.407508 -0.013326 -0.027783
v 0.422327 -0.013326 -0.072239
v 0.422327 -0.013326 -0.027783
v 0.407508 -0.013326 -0.057420
v 0.422327 -0.004435 -0.027783
v 0.407508 -0.004435 -0.057420
v -0.422327 -0.013326 -0.072239
v 0.422327 -0.004435 -0.072239
v 0.407508 -0.004435 -0.027783
v -0.407508 -0.013326 -0.057420
v -0.422327 -0.004435 -0.072239
v -0.407508 -0.004435 -0.057420
v -0.407508 -0.013326 -0.027783
v -0.422327 -0.013326 -0.027783
v -0.407508 -0.004435 -0.027783
v -0.422327 -0.004435 -0.027783
v 0.413435 -0.057782 -0.027783
v 0.413435 -0.013326 -0.051282
v 0.413435 -0.013326 -0.072239
v 0.413435 -0.036825 -0.027783
v 0.422327 -0.057782 -0.027783
v 0.422327 -0.013326 -0.051282
v 0.422327 -0.036825 -0.027783
v -0.213386 -0.057782 -0.027783
v -0.213386 -0.013326 -0.051282
v -0.213386 -0.013326 -0.072239
v -0.213386 -0.036825 -0.027783
v -0.204495 -0.013326 -0.072239
v -0.204495 -0.057782 -0.027783
v -0.204495 -0.013326 -0.051282
v -0.204495 -0.036825 -0.027783
v -0.004446 -0.057782 -0.027783
v -0.004446 -0.013326 -0.051282
v -0.004446 -0.013326 -0.072239
v -0.004446 -0.036825 -0.027783
v 0.004446 -0.013326 -0.072239
v 0.004446 -0.057782 -0.027783
v 0.004446 -0.013326 -0.051282
v 0.004446 -0.036825 -0.027783
v 0.204495 -0.057782 -0.027783
v 0.204495 -0.013326 -0.051282
v 0.204495 -0.013326 -0.072239
v 0.204495 -0.036825 -0.027783
v 0.213386 -0.013326 -0.072239
v 0.213386 -0.057782 -0.027783
v 0.213386 -0.013326 -0.051282
v 0.213386 -0.036825 -0.027783
v -0.422327 -0.057782 -0.027783
v -0.422327 -0.013326 -0.051282
v -0.422327 -0.036825 -0.027783
v -0.413435 -0.013326 -0.072239
v -0.413435 -0.057782 -0.027783
v -0.413435 -0.013326 -0.051282
v -0.413435 -0.036825 -0.027783

# 56 UV coordinates
vt -0.291079 1.22654 0
vt -0.145539 0.490617 0
vt -0.145539 1.22654 0
vt -0.291079 0.735926 0
vt -0.291079 0 0
vt -0.727697 0.147185 0
vt -0.727697 0 0
vt -0.145539 0.147185 0
vt -0.145539 0 0
vt 0.727697 0 0
vt 0.436618 0.147185 0
vt 0.436618 0 0
vt -8.44128 0.490617 0
vt -0.291079 0.147185 0
vt 0.727697 0.147185 0
vt -8.29574 0 0
vt -8.29574 0.735926 0
vt 8.44128 0.147185 0
vt 0.145539 0 0
vt 8.44128 0 0
vt 0.145539 0.147185 0
vt 0.145539 0.490617 0
vt 0.291079 0.735926 0
vt 0.145539 1.22654 0
vt 0.291079 1.22654 0
vt -8.29574 0.147185 0
vt -8.29574 1.22654 0
vt 0.291079 0.147185 0
vt 0.291079 0 0
vt 8.44128 0.490617 0
vt 8.29574 0.735926 0
vt -0.436618 0 0
vt -0.436618 0.147185 0
vt -8.44128 1.22654 0
vt 8.29574 1.22654 0
vt -8.44128 0 0
vt -8.44128 0.147185 0
vt 8.44128 1.22654 0
vt -0.617471 0.245309 0
vt 0 0.245309 0
vt -0.471932 -0 0
vt 0.102912 0 0
vt -0.102912 0.147185 0
vt -0.102912 -0 0
vt 0 0.147185 0
vt -0.617471 0 0
vt 0 -0 0
vt 0.53953 0.147185 0
vt 0.333706 0 0
vt 0.53953 0 0
vt 0.471932 0 0
vt 0.102912 0.147185 0
vt -0.617471 0.147185 0
vt 0.333706 0.147185 0
vt 0.471932 0.147185 0
vt 0.617471 0.245309 0

# 8 vertex normals
vn 0 1 0
vn 0 -1 -0
vn 1 0 0
vn -1 0 0
vn 0 0 -1
vn 0 0 1
vn -0 -0.707107 -0.707107
vn 0 0.707107 0.707107

# Mesh 'mesh1_mesh1-geometry' with 24 faces
g mesh1_mesh1-geometry
usemtl material_0_24
f  1//1 2//1 3//1
f  2//1 1//1 4//1
f  3//2 2//2 1//2
f  4//2 1//2 2//2
f  2//3 5//3 3//3
f  3//4 5//4 2//4
f  5//5 1//5 3//5
f  3//6 1//6 5//6
f  1//4 6//4 4//4
f  4//3 6//3 1//3
f  6//6 2//6 4//6
f  4//5 2//5 6//5
f  5//3 2//3 7//3
f  7//4 2//4 5//4
f  1//5 5//5 8//5
f  8//6 5//6 1//6
f  6//4 1//4 8//4
f  8//3 1//3 6//3
f  2//6 6//6 7//6
f  7//5 6//5 2//5
f  6//2 5//2 7//2
f  7//1 5//1 6//1
f  5//2 6//2 8//2
f  8//1 6//1 5//1

# Mesh 'mesh2_mesh2-geometry' with 12 faces
g mesh2_mesh2-geometry
usemtl material_1_0
l  4 1
l  2 4
l  4 6
l  1 3
l  1 8
l  3 2
l  2 7
l  6 8
l  7 6
l  3 5
l  8 5
l  5 7

# Mesh 'mesh3_mesh3-geometry' with 24 faces
g mesh3_mesh3-geometry
usemtl material_1_24
f  9//6 10//6 11//6
f  10//6 9//6 12//6
f  11//5 10//5 9//5
f  12//5 9//5 10//5
f  10//2 13//2 11//2
f  11//1 13//1 10//1
f  13//3 9//3 11//3
f  11//4 9//4 13//4
f  9//1 14//1 12//1
f  12//2 14//2 9//2
f  14//4 10//4 12//4
f  12//3 10//3 14//3
f  13//2 10//2 15//2
f  15//1 10//1 13//1
f  9//3 13//3 16//3
f  16//4 13//4 9//4
f  14//1 9//1 16//1
f  16//2 9//2 14//2
f  10//4 14//4 15//4
f  15//3 14//3 10//3
f  14//5 13//5 15//5
f  15//6 13//6 14//6
f  13//5 14//5 16//5
f  16//6 14//6 13//6

# Mesh 'mesh4_mesh4-geometry' with 12 faces
g mesh4_mesh4-geometry
usemtl material_1_0
l  15 13
l  10 15
l  15 14
l  13 11
l  13 16
l  10 12
l  11 10
l  14 16
l  12 14
l  11 9
l  16 9
l  9 12

# Mesh 'mesh5_mesh5-geometry' with 24 faces
g mesh5_mesh5-geometry
usemtl material_1_24
f  17//1 18//1 19//1
f  18//1 17//1 20//1
f  19//2 18//2 17//2
f  20//2 17//2 18//2
f  21//6 19//6 18//6
f  18//5 19//5 21//5
f  19//3 11//3 17//3
f  17//4 11//4 19//4
f  11//5 20//5 17//5
f  17//6 20//6 11//6
f  20//4 21//4 18//4
f  18//3 21//3 20//3
f  19//6 21//6 22//6
f  22//5 21//5 19//5
f  11//3 19//3 22//3
f  22//4 19//4 11//4
f  20//5 11//5 10//5
f  10//6 11//6 20//6
f  21//4 20//4 10//4
f  10//3 20//3 21//3
f  21//2 11//2 22//2
f  22//1 11//1 21//1
f  11//2 21//2 10//2
f  10//1 21//1 11//1

# Mesh 'mesh6_mesh6-geometry' with 12 faces
g mesh6_mesh6-geometry
usemtl material_1_0
l  21 10
l  22 21
l  21 18
l  10 11
l  10 20
l  11 22
l  22 19
l  18 20
l  19 18
l  11 17
l  20 17
l  17 19

# Mesh 'mesh7_mesh7-geometry' with 24 faces
g mesh7_mesh7-geometry
usemtl material_1_24
f  23//2 6//2 7//2
f  6//2 23//2 24//2
f  7//1 6//1 23//1
f  24//1 23//1 6//1
f  18//5 7//5 6//5
f  6//6 7//6 18//6
f  7//3 25//3 23//3
f  23//4 25//4 7//4
f  25//6 24//6 23//6
f  23//5 24//5 25//5
f  24//4 18//4 6//4
f  6//3 18//3 24//3
f  7//5 18//5 19//5
f  19//6 18//6 7//6
f  25//3 7//3 19//3
f  19//4 7//4 25//4
f  24//6 25//6 26//6
f  26//5 25//5 24//5
f  18//4 24//4 26//4
f  26//3 24//3 18//3
f  18//1 25//1 19//1
f  19//2 25//2 18//2
f  25//1 18//1 26//1
f  26//2 18//2 25//2

# Mesh 'mesh8_mesh8-geometry' with 12 faces
g mesh8_mesh8-geometry
usemtl material_1_0
l  24 23
l  6 24
l  24 26
l  23 7
l  23 25
l  7 6
l  6 18
l  18 26
l  26 25
l  7 19
l  25 19
l  19 18

# Mesh 'mesh9_mesh9-geometry' with 24 faces
g mesh9_mesh9-geometry
usemtl material_1_24
f  4//2 27//2 2//2
f  27//2 4//2 28//2
f  2//1 27//1 4//1
f  28//1 4//1 27//1
f  27//3 22//3 2//3
f  2//4 22//4 27//4
f  22//6 4//6 2//6
f  2//5 4//5 22//5
f  4//4 15//4 28//4
f  28//3 15//3 4//3
f  15//5 27//5 28//5
f  28//6 27//6 15//6
f  22//3 27//3 13//3
f  13//4 27//4 22//4
f  4//6 22//6 21//6
f  21//5 22//5 4//5
f  15//4 4//4 21//4
f  21//3 4//3 15//3
f  27//5 15//5 13//5
f  13//6 15//6 27//6
f  13//1 21//1 22//1
f  22//2 21//2 13//2
f  21//1 13//1 15//1
f  15//2 13//2 21//2

# Mesh 'mesh10_mesh10-geometry' with 12 faces
g mesh10_mesh10-geometry
usemtl material_1_0
l  2 27
l  4 2
l  2 22
l  27 28
l  27 13
l  28 4
l  4 21
l  21 22
l  22 13
l  28 15
l  13 15
l  15 21

# Mesh 'mesh11_mesh11-geometry' with 56 faces
g mesh11_mesh11-geometry
usemtl material_2_1_8
f  29/1/2 30/2/2 31/3/2
f  30/2/2 29/1/2 32/4/2
f  31/3/1 30/2/1 29/1/1
f  32/4/1 29/1/1 30/2/1
f  30/5/3 33/6/3 31/7/3
f  31/7/4 33/6/4 30/5/4
f  33/8/6 29/5/6 31/9/6
f  31/9/5 29/5/5 33/8/5
f  29/10/4 34/11/4 32/12/4
f  32/12/3 34/11/3 29/10/3
f  30/2/2 32/4/2 35/13/2
f  35/13/1 32/4/1 30/2/1
f  33/6/3 30/5/3 36/14/3
f  36/14/4 30/5/4 33/6/4
f  29/5/6 33/8/6 37/14/6
f  37/14/5 33/8/5 29/5/5
f  34/11/4 29/10/4 37/15/4
f  37/15/3 29/10/3 34/11/3
f  34/14/6 38/16/6 32/5/6
f  32/5/5 38/16/5 34/14/5
f  35/13/2 32/4/2 38/17/2
f  38/17/1 32/4/1 35/13/1
f  39/18/5 30/19/5 35/20/5
f  35/20/6 30/19/6 39/18/6
f  30/19/5 39/18/5 36/21/5
f  36/21/6 39/18/6 30/19/6
f  36/22/1 34/23/1 33/24/1
f  33/24/2 34/23/2 36/22/2
f  37/25/1 33/24/1 34/23/1
f  34/23/2 33/24/2 37/25/2
f  38/16/6 34/14/6 40/26/6
f  40/26/5 34/14/5 38/16/5
f  35/13/2 38/17/2 41/27/2
f  41/27/1 38/17/1 35/13/1
f  42/10/4 39/28/4 35/29/4
f  35/29/3 39/28/3 42/10/3
f  34/23/1 36/22/1 39/30/1
f  39/30/2 36/22/2 34/23/2
f  34/23/1 39/30/1 40/31/1
f  40/31/2 39/30/2 34/23/2
f  43/6/3 38/32/3 40/33/3
f  40/33/4 38/32/4 43/6/4
f  38/32/3 43/6/3 41/7/3
f  41/7/4 43/6/4 38/32/4
f  35/13/2 41/27/2 42/34/2
f  42/34/1 41/27/1 35/13/1
f  39/28/4 42/10/4 44/15/4
f  44/15/3 42/10/3 39/28/3
f  40/31/1 39/30/1 43/35/1
f  43/35/2 39/30/2 40/31/2
f  43/26/6 42/36/6 41/16/6
f  41/16/5 42/36/5 43/26/5
f  42/36/6 43/26/6 44/37/6
f  44/37/5 43/26/5 42/36/5
f  43/35/1 39/30/1 44/38/1
f  44/38/2 39/30/2 43/35/2

# Mesh 'mesh12_mesh12-geometry' with 24 faces
g mesh12_mesh12-geometry
usemtl material_1_0
l  31 29
l  30 31
l  31 33
l  29 32
l  37 29
l  35 30
l  30 36
l  36 33
l  33 37
l  32 38
l  34 32
l  37 34
l  42 35
l  35 39
l  39 36
l  38 41
l  40 38
l  34 40
l  41 42
l  42 44
l  44 39
l  43 41
l  40 43
l  43 44

# Mesh 'mesh13_mesh13-geometry' with 24 faces
g mesh13_mesh13-geometry
usemtl material_2_1_8
f  45/39/4 46/9/4 47/40/4
f  46/9/4 45/39/4 48/41/4
f  47/40/3 46/9/3 45/39/3
f  48/41/3 45/39/3 46/9/3
f  46/42/1 30/43/1 47/44/1
f  47/44/2 30/43/2 46/42/2
f  30/45/7 45/46/7 47/47/7
f  47/47/8 45/46/8 30/45/8
f  49/48/6 48/49/6 45/50/6
f  45/50/5 48/49/5 49/48/5
f  48/51/8 50/21/8 46/19/8
f  46/19/7 50/21/7 48/51/7
f  30/43/1 46/42/1 50/52/1
f  50/52/2 46/42/2 30/43/2
f  45/46/7 30/45/7 49/53/7
f  49/53/8 30/45/8 45/46/8
f  48/49/6 49/48/6 51/54/6
f  51/54/5 49/48/5 48/49/5
f  50/21/8 48/51/8 51/55/8
f  51/55/7 48/51/7 50/21/7
f  50/19/3 49/56/3 30/40/3
f  30/40/4 49/56/4 50/19/4
f  49/56/3 50/19/3 51/51/3
f  51/51/4 50/19/4 49/56/4

# Mesh 'mesh14_mesh14-geometry' with 12 faces
g mesh14_mesh14-geometry
usemtl material_1_0
l  47 45
l  46 47
l  30 47
l  48 45
l  49 45
l  50 46
l  48 46
l  30 49
l  50 30
l  51 48
l  51 49
l  51 50

# Mesh 'mesh15_mesh15-geometry' with 24 faces
g mesh15_mesh15-geometry
usemtl material_2_1_8
f  52/39/4 53/9/4 54/40/4
f  53/9/4 52/39/4 55/41/4
f  54/40/3 53/9/3 52/39/3
f  55/41/3 52/39/3 53/9/3
f  53/42/1 56/43/1 54/44/1
f  54/44/2 56/43/2 53/42/2
f  56/45/7 52/46/7 54/47/7
f  54/47/8 52/46/8 56/45/8
f  57/48/6 55/49/6 52/50/6
f  52/50/5 55/49/5 57/48/5
f  55/51/8 58/21/8 53/19/8
f  53/19/7 58/21/7 55/51/7
f  56/43/1 53/42/1 58/52/1
f  58/52/2 53/42/2 56/43/2
f  52/46/7 56/45/7 57/53/7
f  57/53/8 56/45/8 52/46/8
f  55/49/6 57/48/6 59/54/6
f  59/54/5 57/48/5 55/49/5
f  58/21/8 55/51/8 59/55/8
f  59/55/7 55/51/7 58/21/7
f  58/19/3 57/56/3 56/40/3
f  56/40/4 57/56/4 58/19/4
f  57/56/3 58/19/3 59/51/3
f  59/51/4 58/19/4 57/56/4

# Mesh 'mesh16_mesh16-geometry' with 12 faces
g mesh16_mesh16-geometry
usemtl material_1_0
l  54 52
l  53 54
l  56 54
l  55 52
l  57 52
l  58 53
l  55 53
l  56 57
l  58 56
l  59 55
l  59 57
l  59 58

# Mesh 'mesh17_mesh17-geometry' with 24 faces
g mesh17_mesh17-geometry
usemtl material_2_1_8
f  60/39/4 61/9/4 62/40/4
f  61/9/4 60/39/4 63/41/4
f  62/40/3 61/9/3 60/39/3
f  63/41/3 60/39/3 61/9/3
f  61/42/1 64/43/1 62/44/1
f  62/44/2 64/43/2 61/42/2
f  64/45/7 60/46/7 62/47/7
f  62/47/8 60/46/8 64/45/8
f  65/48/6 63/49/6 60/50/6
f  60/50/5 63/49/5 65/48/5
f  63/51/8 66/21/8 61/19/8
f  61/19/7 66/21/7 63/51/7
f  64/43/1 61/42/1 66/52/1
f  66/52/2 61/42/2 64/43/2
f  60/46/7 64/45/7 65/53/7
f  65/53/8 64/45/8 60/46/8
f  63/49/6 65/48/6 67/54/6
f  67/54/5 65/48/5 63/49/5
f  66/21/8 63/51/8 67/55/8
f  67/55/7 63/51/7 66/21/7
f  66/19/3 65/56/3 64/40/3
f  64/40/4 65/56/4 66/19/4
f  65/56/3 66/19/3 67/51/3
f  67/51/4 66/19/4 65/56/4

# Mesh 'mesh18_mesh18-geometry' with 12 faces
g mesh18_mesh18-geometry
usemtl material_1_0
l  62 60
l  61 62
l  64 62
l  63 60
l  65 60
l  66 61
l  63 61
l  64 65
l  66 64
l  67 63
l  67 65
l  67 66

# Mesh 'mesh19_mesh19-geometry' with 24 faces
g mesh19_mesh19-geometry
usemtl material_2_1_8
f  68/39/4 69/9/4 70/40/4
f  69/9/4 68/39/4 71/41/4
f  70/40/3 69/9/3 68/39/3
f  71/41/3 68/39/3 69/9/3
f  69/42/1 72/43/1 70/44/1
f  70/44/2 72/43/2 69/42/2
f  72/45/7 68/46/7 70/47/7
f  70/47/8 68/46/8 72/45/8
f  73/48/6 71/49/6 68/50/6
f  68/50/5 71/49/5 73/48/5
f  71/51/8 74/21/8 69/19/8
f  69/19/7 74/21/7 71/51/7
f  72/43/1 69/42/1 74/52/1
f  74/52/2 69/42/2 72/43/2
f  68/46/7 72/45/7 73/53/7
f  73/53/8 72/45/8 68/46/8
f  71/49/6 73/48/6 75/54/6
f  75/54/5 73/48/5 71/49/5
f  74/21/8 71/51/8 75/55/8
f  75/55/7 71/51/7 74/21/7
f  74/19/3 73/56/3 72/40/3
f  72/40/4 73/56/4 74/19/4
f  73/56/3 74/19/3 75/51/3
f  75/51/4 74/19/4 73/56/4

# Mesh 'mesh20_mesh20-geometry' with 12 faces
g mesh20_mesh20-geometry
usemtl material_1_0
l  70 68
l  69 70
l  72 70
l  71 68
l  73 68
l  74 69
l  71 69
l  72 73
l  74 72
l  75 71
l  75 73
l  75 74

# Mesh 'mesh21_mesh21-geometry' with 24 faces
g mesh21_mesh21-geometry
usemtl material_2_1_8
f  76/39/4 77/9/4 35/40/4
f  77/9/4 76/39/4 78/41/4
f  35/40/3 77/9/3 76/39/3
f  78/41/3 76/39/3 77/9/3
f  77/42/1 79/43/1 35/44/1
f  35/44/2 79/43/2 77/42/2
f  79/45/7 76/46/7 35/47/7
f  35/47/8 76/46/8 79/45/8
f  80/48/6 78/49/6 76/50/6
f  76/50/5 78/49/5 80/48/5
f  78/51/8 81/21/8 77/19/8
f  77/19/7 81/21/7 78/51/7
f  79/43/1 77/42/1 81/52/1
f  81/52/2 77/42/2 79/43/2
f  76/46/7 79/45/7 80/53/7
f  80/53/8 79/45/8 76/46/8
f  78/49/6 80/48/6 82/54/6
f  82/54/5 80/48/5 78/49/5
f  81/21/8 78/51/8 82/55/8
f  82/55/7 78/51/7 81/21/7
f  81/19/3 80/56/3 79/40/3
f  79/40/4 80/56/4 81/19/4
f  80/56/3 81/19/3 82/51/3
f  82/51/4 81/19/4 80/56/4

# Mesh 'mesh22_mesh22-geometry' with 12 faces
g mesh22_mesh22-geometry
usemtl material_1_0
l  35 76
l  77 35
l  79 35
l  78 76
l  80 76
l  81 77
l  78 77
l  79 80
l  81 79
l  82 78
l  82 80
l  82 81

