# File produced by Open Asset Import Library (http://www.assimp.sf.net)
# (assimp v3.2.202087883)

mtllib model_normalized.mtl

# 124 vertex positions
v -0.251974 -0.406542 -0.044184
v -0.258435 -0.406542 0.259477
v -0.258435 -0.406542 -0.044184
v -0.251974 -0.406542 0.259477
v -0.258435 0.378453 -0.044184
v -0.251974 0.378453 0.259477
v -0.258435 0.378453 0.259477
v -0.251974 0.378453 -0.044184
v 0.258435 -0.406542 -0.044184
v 0.258435 0.378453 0.259477
v 0.258435 -0.406542 0.259477
v 0.258435 0.378453 -0.044184
v 0.251974 -0.406542 0.259477
v 0.251974 0.378453 -0.044184
v 0.251974 0.378453 0.259477
v 0.251974 -0.406542 -0.044184
v -0.258435 0.378453 0.253016
v -0.258435 -0.406542 0.253016
v 0.258435 -0.406542 0.253016
v 0.258435 0.378453 0.253016
v 0.258435 0.391375 0.259477
v -0.258435 0.391375 0.259477
v -0.258435 0.378453 -0.050645
v 0.258435 0.378453 -0.050645
v -0.258435 0.391375 -0.050645
v 0.258435 0.391375 -0.050645
v 0.251974 -0.406542 -0.037723
v 0.251974 -0.380698 -0.031262
v 0.251974 -0.406542 -0.031262
v 0.251974 -0.380698 -0.037723
v -0.251974 -0.406542 -0.031262
v -0.251974 -0.380698 -0.037723
v -0.251974 -0.380698 -0.031262
v -0.251974 -0.406542 -0.037723
v 0.258435 0.074793 -0.050645
v 0.258435 0.209321 -0.044184
v 0.258435 0.074793 -0.044184
v 0.258435 0.213701 -0.050645
v -0.258435 0.074793 -0.044184
v -0.258435 0.213701 -0.050645
v -0.258435 0.209321 -0.044184
v -0.258435 0.074793 -0.050645
v -0.251974 0.226623 -0.044184
v -0.251974 0.207240 -0.037723
v -0.251974 0.226623 -0.037723
v -0.251974 0.207240 -0.044184
v 0.251974 0.226623 -0.037723
v 0.251974 0.207240 -0.044184
v 0.251974 0.207240 -0.037723
v 0.251974 0.226623 -0.044184
v 0.258435 -0.077038 -0.050645
v 0.258435 0.057491 -0.044184
v 0.258435 -0.077038 -0.044184
v 0.258435 0.061871 -0.050645
v -0.258435 -0.077038 -0.044184
v -0.258435 0.061871 -0.050645
v -0.258435 0.057491 -0.044184
v -0.258435 -0.077038 -0.050645
v -0.251974 0.074793 -0.044184
v -0.251974 0.055410 -0.037723
v -0.251974 0.074793 -0.037723
v -0.251974 0.055410 -0.044184
v 0.251974 0.074793 -0.037723
v 0.251974 0.055410 -0.044184
v 0.251974 0.055410 -0.037723
v 0.251974 0.074793 -0.044184
v 0.258435 -0.228868 -0.050645
v 0.258435 -0.094339 -0.044184
v 0.258435 -0.228868 -0.044184
v 0.258435 -0.089959 -0.050645
v -0.258435 -0.228868 -0.044184
v -0.258435 -0.089959 -0.050645
v -0.258435 -0.094339 -0.044184
v -0.258435 -0.228868 -0.050645
v -0.251974 -0.077038 -0.044184
v -0.251974 -0.096420 -0.037723
v -0.251974 -0.077038 -0.037723
v -0.251974 -0.096420 -0.044184
v 0.251974 -0.077038 -0.037723
v 0.251974 -0.096420 -0.044184
v 0.251974 -0.096420 -0.037723
v 0.251974 -0.077038 -0.044184
v 0.258435 -0.380698 -0.050645
v 0.258435 -0.246169 -0.044184
v 0.258435 -0.380698 -0.044184
v 0.258435 -0.241790 -0.050645
v -0.258435 -0.380698 -0.044184
v -0.258435 -0.241790 -0.050645
v -0.258435 -0.246169 -0.044184
v -0.258435 -0.380698 -0.050645
v -0.251974 -0.228868 -0.044184
v -0.251974 -0.248250 -0.037723
v -0.251974 -0.228868 -0.037723
v -0.251974 -0.248250 -0.044184
v 0.251974 -0.228868 -0.037723
v 0.251974 -0.248250 -0.044184
v 0.251974 -0.248250 -0.037723
v 0.251974 -0.228868 -0.044184
v 0.258435 0.226623 -0.050645
v 0.258435 0.361151 -0.044184
v 0.258435 0.226623 -0.044184
v 0.258435 0.365532 -0.050645
v 0.000000 0.226623 -0.044184
v 0.000000 0.365532 -0.050645
v 0.000000 0.361151 -0.044184
v 0.000000 0.226623 -0.050645
v -0.251974 0.359071 -0.037723
v -0.251974 0.378453 -0.037723
v -0.251974 0.359071 -0.044184
v 0.251974 0.378453 -0.037723
v 0.000000 0.359071 -0.044184
v 0.251974 0.359071 -0.037723
v 0.000000 0.378453 -0.044184
v 0.251974 0.359071 -0.044184
v -0.258435 0.226623 -0.044184
v -0.258435 0.365532 -0.050645
v -0.258435 0.361151 -0.044184
v -0.258435 0.226623 -0.050645
v 0.251974 -0.380698 0.253016
v -0.251974 -0.380698 0.253016
v -0.251974 -0.387159 0.253016
v 0.251974 -0.387159 -0.031262
v -0.251974 -0.387159 -0.031262
v 0.251974 -0.387159 0.253016

# 96 UV coordinates
vt -0.01 1.41 0
vt 0 0 0
vt 0 1.41 0
vt -0.01 0 0
vt -0.47 3.645 0
vt -0.47 0 0
vt 0 3.645 0
vt 0.47 0 0
vt 0.01 3.645 0
vt 0.01 0 0
vt -0.01 3.645 0
vt 0.47 3.645 0
vt 0.01 1.41 0
vt 0.8 3.645 0
vt 0.8 0 0
vt 0 0.03 0
vt -0.8 0 0
vt -0.8 0.03 0
vt 0.8 0.03 0
vt -0.8 3.645 0
vt 0.8 0.06 0
vt 0 0.06 0
vt -0.8 -0.03 0
vt 0 -0.03 0
vt -0.01 0.06 0
vt 0.8 -0.03 0
vt 0.01 0.06 0
vt -0.8 1.41 0
vt 0.47 0.06 0
vt 0.8 1.41 0
vt -0.47 0.06 0
vt -0.8 0.06 0
vt 0 0.12 0
vt 0.01 0.12 0
vt 0.78 0.12 0
vt 0.78 0 0
vt -0.78 0.03 0
vt -0.78 0 0
vt -0.78 0.12 0
vt 0.78 0.03 0
vt -0.01 0.12 0
vt 0.01 0.075 0
vt 0 0.699663 0
vt 0 0.075 0
vt 0.01 0.72 0
vt 0.8 0.699663 0
vt 0.8 0.075 0
vt -0.8 0.075 0
vt 0 0.72 0
vt -0.8 0.72 0
vt 0.8 0.428844 0
vt -0 0.3926 0
vt 0.8 0.3926 0
vt -0 0.428844 0
vt -0.01 0.72 0
vt -0.01 0.075 0
vt -0.01 0.9 0
vt 0 0.81 0
vt 0 0.9 0
vt -0.01 0.81 0
vt 0.78 0.9 0
vt -0.78 0.81 0
vt 0.78 0.81 0
vt -0.78 0.9 0
vt 0.01 0.81 0
vt 0.01 0.9 0
vt 0.4 0.075 0
vt -0.4 -0 0
vt -0.4 0.72 0
vt 0.4 0.428844 0
vt 0.4 0.699663 0
vt -0.4 0.03 0
vt -0.4 0.075 0
vt 0.4 0.3926 0
vt -0.39 0.81 0
vt -0.39 0.03 0
vt 0.39 0.03 0
vt -0.39 0.9 0
vt 0.79 0.03 0
vt 0.01 1.35 0
vt 0.01 0.03 0
vt 0.79 1.35 0
vt -0.45 0.12 0
vt -0.01 0.09 0
vt 0.01 0.09 0
vt 0.79 0.12 0
vt 0.45 0.09 0
vt 0.45 0.12 0
vt -0.79 0.09 0
vt -0.79 0.12 0
vt -0.45 0.09 0
vt 0.79 0.09 0
vt -0.79 1.35 0
vt -0.01 0.03 0
vt -0.01 1.35 0
vt -0.79 0.03 0

# 8 vertex normals
vn 0 -0.001 0
vn 0 0.001 0
vn -0.001 0 0
vn 0.001 0 0
vn 0 0 -0.001
vn -0 -0 0.001
vn 0 0.00082773 0.000561127
vn 0 -0.00082773 -0.000561127

# Mesh 'mesh1_mesh1-geometry' with 24 faces
g mesh1_mesh1-geometry
usemtl material_0_1_8
f  1/1/1 2/2/1 3/3/1
f  2/2/1 1/1/1 4/4/1
f  3/3/2 2/2/2 1/1/2
f  4/4/2 1/1/2 2/2/2
f  2/2/3 5/5/3 3/6/3
f  3/6/4 5/5/4 2/2/4
f  5/7/5 1/4/5 3/2/5
f  3/2/6 1/4/6 5/7/6
f  1/8/4 6/7/4 4/2/4
f  4/2/3 6/7/3 1/8/3
f  6/9/6 2/2/6 4/10/6
f  4/10/5 2/2/5 6/9/5
f  5/5/3 2/2/3 7/7/3
f  7/7/4 2/2/4 5/5/4
f  1/4/5 5/7/5 8/11/5
f  8/11/6 5/7/6 1/4/6
f  6/7/4 1/8/4 8/12/4
f  8/12/3 1/8/3 6/7/3
f  2/2/6 6/9/6 7/7/6
f  7/7/5 6/9/5 2/2/5
f  6/10/2 5/3/2 7/2/2
f  7/2/1 5/3/1 6/10/1
f  5/3/2 6/10/2 8/13/2
f  8/13/1 6/10/1 5/3/1

# Mesh 'mesh2_mesh2-geometry' with 12 faces
g mesh2_mesh2-geometry
usemtl material_1_0
l  2 3
l  4 2
l  2 7
l  3 1
l  3 5
l  1 4
l  4 6
l  7 5
l  6 7
l  1 8
l  5 8
l  8 6

# Mesh 'mesh3_mesh3-geometry' with 24 faces
g mesh3_mesh3-geometry
usemtl material_0_1_8
f  9/8/4 10/7/4 11/2/4
f  10/7/4 9/8/4 12/12/4
f  11/2/3 10/7/3 9/8/3
f  12/12/3 9/8/3 10/7/3
f  10/9/6 13/2/6 11/10/6
f  11/10/5 13/2/5 10/9/5
f  13/2/1 9/1/1 11/4/1
f  11/4/2 9/1/2 13/2/2
f  9/4/5 14/7/5 12/11/5
f  12/11/6 14/7/6 9/4/6
f  14/3/2 10/10/2 12/13/2
f  12/13/1 10/10/1 14/3/1
f  13/2/6 10/9/6 15/7/6
f  15/7/5 10/9/5 13/2/5
f  9/1/1 13/2/1 16/3/1
f  16/3/2 13/2/2 9/1/2
f  14/7/5 9/4/5 16/2/5
f  16/2/6 9/4/6 14/7/6
f  10/10/2 14/3/2 15/2/2
f  15/2/1 14/3/1 10/10/1
f  14/5/3 13/2/3 15/7/3
f  15/7/4 13/2/4 14/5/4
f  13/2/3 14/5/3 16/6/3
f  16/6/4 14/5/4 13/2/4

# Mesh 'mesh4_mesh4-geometry' with 12 faces
g mesh4_mesh4-geometry
usemtl material_1_0
l  9 11
l  9 12
l  16 9
l  11 10
l  11 13
l  12 10
l  14 12
l  13 16
l  16 14
l  10 15
l  13 15
l  15 14

# Mesh 'mesh5_mesh5-geometry' with 24 faces
g mesh5_mesh5-geometry
usemtl material_0_1_8
f  17/11/3 2/2/3 7/7/3
f  2/2/3 17/11/3 18/4/3
f  7/7/4 2/2/4 17/11/4
f  18/4/4 17/11/4 2/2/4
f  2/2/6 10/14/6 7/7/6
f  7/7/5 10/14/5 2/2/5
f  10/15/2 17/16/2 7/2/2
f  7/2/1 17/16/1 10/15/1
f  17/7/5 19/17/5 18/2/5
f  18/2/6 19/17/6 17/7/6
f  19/18/1 2/2/1 18/16/1
f  18/16/2 2/2/2 19/18/2
f  10/14/6 2/2/6 11/15/6
f  11/15/5 2/2/5 10/14/5
f  17/16/2 10/15/2 20/19/2
f  20/19/1 10/15/1 17/16/1
f  19/17/5 17/7/5 20/20/5
f  20/20/6 17/7/6 19/17/6
f  2/2/1 19/18/1 11/17/1
f  11/17/2 19/18/2 2/2/2
f  19/10/4 10/7/4 11/2/4
f  11/2/3 10/7/3 19/10/3
f  10/7/4 19/10/4 20/9/4
f  20/9/3 19/10/3 10/7/3

# Mesh 'mesh6_mesh6-geometry' with 12 faces
g mesh6_mesh6-geometry
usemtl material_1_0
l  7 2
l  7 17
l  10 7
l  2 18
l  2 11
l  17 18
l  20 17
l  11 10
l  10 20
l  18 19
l  11 19
l  19 20

# Mesh 'mesh7_mesh7-geometry' with 24 faces
g mesh7_mesh7-geometry
usemtl material_0_1_8
f  21/21/6 7/2/6 10/15/6
f  7/2/6 21/21/6 22/22/6
f  10/15/5 7/2/5 21/21/5
f  22/22/5 21/21/5 7/2/5
f  23/3/1 10/23/1 7/24/1
f  7/24/2 10/23/2 23/3/2
f  24/8/4 21/25/4 10/4/4
f  10/4/3 21/25/3 24/8/3
f  21/26/2 25/3/2 22/24/2
f  22/24/1 25/3/1 21/26/1
f  22/27/3 23/6/3 7/10/3
f  7/10/4 23/6/4 22/27/4
f  10/23/1 23/3/1 24/28/1
f  24/28/2 23/3/2 10/23/2
f  21/25/4 24/8/4 26/29/4
f  26/29/3 24/8/3 21/25/3
f  25/3/2 21/26/2 26/30/2
f  26/30/1 21/26/1 25/3/1
f  23/6/3 22/27/3 25/31/3
f  25/31/4 22/27/4 23/6/4
f  25/22/5 24/17/5 23/2/5
f  23/2/6 24/17/6 25/22/6
f  24/17/5 25/22/5 26/32/5
f  26/32/6 25/22/6 24/17/6

# Mesh 'mesh8_mesh8-geometry' with 12 faces
g mesh8_mesh8-geometry
usemtl material_1_0
l  7 10
l  7 22
l  23 7
l  10 21
l  10 24
l  22 21
l  25 22
l  23 25
l  24 23
l  21 26
l  24 26
l  26 25

# Mesh 'mesh9_mesh9-geometry' with 24 faces
g mesh9_mesh9-geometry
usemtl material_0_1_8
f  27/10/4 28/33/4 29/2/4
f  28/33/4 27/10/4 30/34/4
f  29/2/3 28/33/3 27/10/3
f  30/34/3 27/10/3 28/33/3
f  28/35/6 31/2/6 29/36/6
f  29/36/5 31/2/5 28/35/5
f  31/2/1 27/37/1 29/38/1
f  29/38/2 27/37/2 31/2/2
f  27/38/5 32/33/5 30/39/5
f  30/39/6 32/33/6 27/38/6
f  32/16/2 28/36/2 30/40/2
f  30/40/1 28/36/1 32/16/1
f  31/2/6 28/35/6 33/33/6
f  33/33/5 28/35/5 31/2/5
f  27/37/1 31/2/1 34/16/1
f  34/16/2 31/2/2 27/37/2
f  32/33/5 27/38/5 34/2/5
f  34/2/6 27/38/6 32/33/6
f  28/36/2 32/16/2 33/2/2
f  33/2/1 32/16/1 28/36/1
f  32/41/3 31/2/3 33/33/3
f  33/33/4 31/2/4 32/41/4
f  31/2/3 32/41/3 34/4/3
f  34/4/4 32/41/4 31/2/4

# Mesh 'mesh10_mesh10-geometry' with 12 faces
g mesh10_mesh10-geometry
usemtl material_1_0
l  28 30
l  29 28
l  28 33
l  27 30
l  30 32
l  27 29
l  29 31
l  33 32
l  31 33
l  27 34
l  34 32
l  34 31

# Mesh 'mesh11_mesh11-geometry' with 24 faces
g mesh11_mesh11-geometry
usemtl material_0_1_8
f  35/42/4 36/43/4 37/44/4
f  36/43/4 35/42/4 38/45/4
f  37/44/3 36/43/3 35/42/3
f  38/45/3 35/42/3 36/43/3
f  36/46/6 39/44/6 37/47/6
f  37/47/5 39/44/5 36/46/5
f  39/2/1 35/18/1 37/17/1
f  37/17/2 35/18/2 39/2/2
f  35/48/5 40/49/5 38/50/5
f  38/50/6 40/49/6 35/48/6
f  38/51/7 41/52/7 36/53/7
f  36/53/8 41/52/8 38/51/8
f  39/44/6 36/46/6 41/43/6
f  41/43/5 36/46/5 39/44/5
f  35/18/1 39/2/1 42/16/1
f  42/16/2 39/2/2 35/18/2
f  40/49/5 35/48/5 42/44/5
f  42/44/6 35/48/6 40/49/6
f  41/52/7 38/51/7 40/54/7
f  40/54/8 38/51/8 41/52/8
f  40/55/3 39/44/3 41/43/3
f  41/43/4 39/44/4 40/55/4
f  39/44/3 40/55/3 42/56/3
f  42/56/4 40/55/4 39/44/4

# Mesh 'mesh12_mesh12-geometry' with 12 faces
g mesh12_mesh12-geometry
usemtl material_1_0
l  37 36
l  37 35
l  39 37
l  38 36
l  36 41
l  35 38
l  42 35
l  39 42
l  41 39
l  38 40
l  40 41
l  40 42

# Mesh 'mesh13_mesh13-geometry' with 24 faces
g mesh13_mesh13-geometry
usemtl material_0_1_8
f  43/57/3 44/58/3 45/59/3
f  44/58/3 43/57/3 46/60/3
f  45/59/4 44/58/4 43/57/4
f  46/60/4 43/57/4 44/58/4
f  44/58/6 47/61/6 45/59/6
f  45/59/5 47/61/5 44/58/5
f  47/36/2 43/16/2 45/2/2
f  45/2/1 43/16/1 47/36/1
f  43/59/5 48/62/5 46/58/5
f  46/58/6 48/62/6 43/59/6
f  48/37/1 44/2/1 46/16/1
f  46/16/2 44/2/2 48/37/2
f  47/61/6 44/58/6 49/63/6
f  49/63/5 44/58/5 47/61/5
f  43/16/2 47/36/2 50/40/2
f  50/40/1 47/36/1 43/16/1
f  48/62/5 43/59/5 50/64/5
f  50/64/6 43/59/6 48/62/6
f  44/2/1 48/37/1 49/38/1
f  49/38/2 48/37/2 44/2/2
f  48/65/4 47/59/4 49/58/4
f  49/58/3 47/59/3 48/65/3
f  47/59/4 48/65/4 50/66/4
f  50/66/3 48/65/3 47/59/3

# Mesh 'mesh14_mesh14-geometry' with 12 faces
g mesh14_mesh14-geometry
usemtl material_1_0
l  46 44
l  43 46
l  46 48
l  44 49
l  45 44
l  43 45
l  43 50
l  50 48
l  48 49
l  47 49
l  45 47
l  50 47

# Mesh 'mesh15_mesh15-geometry' with 24 faces
g mesh15_mesh15-geometry
usemtl material_0_1_8
f  51/42/4 52/43/4 53/44/4
f  52/43/4 51/42/4 54/45/4
f  53/44/3 52/43/3 51/42/3
f  54/45/3 51/42/3 52/43/3
f  52/46/6 55/44/6 53/47/6
f  53/47/5 55/44/5 52/46/5
f  55/2/1 51/18/1 53/17/1
f  53/17/2 51/18/2 55/2/2
f  51/48/5 56/49/5 54/50/5
f  54/50/6 56/49/6 51/48/6
f  54/51/7 57/52/7 52/53/7
f  52/53/8 57/52/8 54/51/8
f  55/44/6 52/46/6 57/43/6
f  57/43/5 52/46/5 55/44/5
f  51/18/1 55/2/1 58/16/1
f  58/16/2 55/2/2 51/18/2
f  56/49/5 51/48/5 58/44/5
f  58/44/6 51/48/6 56/49/6
f  57/52/7 54/51/7 56/54/7
f  56/54/8 54/51/8 57/52/8
f  56/55/3 55/44/3 57/43/3
f  57/43/4 55/44/4 56/55/4
f  55/44/3 56/55/3 58/56/3
f  58/56/4 56/55/4 55/44/4

# Mesh 'mesh16_mesh16-geometry' with 12 faces
g mesh16_mesh16-geometry
usemtl material_1_0
l  53 52
l  53 51
l  55 53
l  54 52
l  52 57
l  51 54
l  58 51
l  55 58
l  57 55
l  54 56
l  56 57
l  56 58

# Mesh 'mesh17_mesh17-geometry' with 24 faces
g mesh17_mesh17-geometry
usemtl material_0_1_8
f  59/57/3 60/58/3 61/59/3
f  60/58/3 59/57/3 62/60/3
f  61/59/4 60/58/4 59/57/4
f  62/60/4 59/57/4 60/58/4
f  60/58/6 63/61/6 61/59/6
f  61/59/5 63/61/5 60/58/5
f  63/36/2 59/16/2 61/2/2
f  61/2/1 59/16/1 63/36/1
f  59/59/5 64/62/5 62/58/5
f  62/58/6 64/62/6 59/59/6
f  64/37/1 60/2/1 62/16/1
f  62/16/2 60/2/2 64/37/2
f  63/61/6 60/58/6 65/63/6
f  65/63/5 60/58/5 63/61/5
f  59/16/2 63/36/2 66/40/2
f  66/40/1 63/36/1 59/16/1
f  64/62/5 59/59/5 66/64/5
f  66/64/6 59/59/6 64/62/6
f  60/2/1 64/37/1 65/38/1
f  65/38/2 64/37/2 60/2/2
f  64/65/4 63/59/4 65/58/4
f  65/58/3 63/59/3 64/65/3
f  63/59/4 64/65/4 66/66/4
f  66/66/3 64/65/3 63/59/3

# Mesh 'mesh18_mesh18-geometry' with 12 faces
g mesh18_mesh18-geometry
usemtl material_1_0
l  62 60
l  59 62
l  62 64
l  60 65
l  61 60
l  59 61
l  59 66
l  66 64
l  64 65
l  63 65
l  61 63
l  66 63

# Mesh 'mesh19_mesh19-geometry' with 24 faces
g mesh19_mesh19-geometry
usemtl material_0_1_8
f  67/42/4 68/43/4 69/44/4
f  68/43/4 67/42/4 70/45/4
f  69/44/3 68/43/3 67/42/3
f  70/45/3 67/42/3 68/43/3
f  68/46/6 71/44/6 69/47/6
f  69/47/5 71/44/5 68/46/5
f  71/2/1 67/18/1 69/17/1
f  69/17/2 67/18/2 71/2/2
f  67/48/5 72/49/5 70/50/5
f  70/50/6 72/49/6 67/48/6
f  70/51/7 73/52/7 68/53/7
f  68/53/8 73/52/8 70/51/8
f  71/44/6 68/46/6 73/43/6
f  73/43/5 68/46/5 71/44/5
f  67/18/1 71/2/1 74/16/1
f  74/16/2 71/2/2 67/18/2
f  72/49/5 67/48/5 74/44/5
f  74/44/6 67/48/6 72/49/6
f  73/52/7 70/51/7 72/54/7
f  72/54/8 70/51/8 73/52/8
f  72/55/3 71/44/3 73/43/3
f  73/43/4 71/44/4 72/55/4
f  71/44/3 72/55/3 74/56/3
f  74/56/4 72/55/4 71/44/4

# Mesh 'mesh20_mesh20-geometry' with 12 faces
g mesh20_mesh20-geometry
usemtl material_1_0
l  69 68
l  69 67
l  71 69
l  70 68
l  68 73
l  67 70
l  74 67
l  71 74
l  73 71
l  70 72
l  72 73
l  72 74

# Mesh 'mesh21_mesh21-geometry' with 24 faces
g mesh21_mesh21-geometry
usemtl material_0_1_8
f  75/57/3 76/58/3 77/59/3
f  76/58/3 75/57/3 78/60/3
f  77/59/4 76/58/4 75/57/4
f  78/60/4 75/57/4 76/58/4
f  76/58/6 79/61/6 77/59/6
f  77/59/5 79/61/5 76/58/5
f  79/36/2 75/16/2 77/2/2
f  77/2/1 75/16/1 79/36/1
f  75/59/5 80/62/5 78/58/5
f  78/58/6 80/62/6 75/59/6
f  80/37/1 76/2/1 78/16/1
f  78/16/2 76/2/2 80/37/2
f  79/61/6 76/58/6 81/63/6
f  81/63/5 76/58/5 79/61/5
f  75/16/2 79/36/2 82/40/2
f  82/40/1 79/36/1 75/16/1
f  80/62/5 75/59/5 82/64/5
f  82/64/6 75/59/6 80/62/6
f  76/2/1 80/37/1 81/38/1
f  81/38/2 80/37/2 76/2/2
f  80/65/4 79/59/4 81/58/4
f  81/58/3 79/59/3 80/65/3
f  79/59/4 80/65/4 82/66/4
f  82/66/3 80/65/3 79/59/3

# Mesh 'mesh22_mesh22-geometry' with 12 faces
g mesh22_mesh22-geometry
usemtl material_1_0
l  78 76
l  75 78
l  78 80
l  76 81
l  77 76
l  75 77
l  75 82
l  82 80
l  80 81
l  79 81
l  77 79
l  82 79

# Mesh 'mesh23_mesh23-geometry' with 24 faces
g mesh23_mesh23-geometry
usemtl material_0_1_8
f  83/42/4 84/43/4 85/44/4
f  84/43/4 83/42/4 86/45/4
f  85/44/3 84/43/3 83/42/3
f  86/45/3 83/42/3 84/43/3
f  84/46/6 87/44/6 85/47/6
f  85/47/5 87/44/5 84/46/5
f  87/2/1 83/18/1 85/17/1
f  85/17/2 83/18/2 87/2/2
f  83/48/5 88/49/5 86/50/5
f  86/50/6 88/49/6 83/48/6
f  86/51/7 89/52/7 84/53/7
f  84/53/8 89/52/8 86/51/8
f  87/44/6 84/46/6 89/43/6
f  89/43/5 84/46/5 87/44/5
f  83/18/1 87/2/1 90/16/1
f  90/16/2 87/2/2 83/18/2
f  88/49/5 83/48/5 90/44/5
f  90/44/6 83/48/6 88/49/6
f  89/52/7 86/51/7 88/54/7
f  88/54/8 86/51/8 89/52/8
f  88/55/3 87/44/3 89/43/3
f  89/43/4 87/44/4 88/55/4
f  87/44/3 88/55/3 90/56/3
f  90/56/4 88/55/4 87/44/4

# Mesh 'mesh24_mesh24-geometry' with 12 faces
g mesh24_mesh24-geometry
usemtl material_1_0
l  85 84
l  85 83
l  87 85
l  86 84
l  84 89
l  83 86
l  90 83
l  87 90
l  89 87
l  86 88
l  88 89
l  88 90

# Mesh 'mesh25_mesh25-geometry' with 24 faces
g mesh25_mesh25-geometry
usemtl material_0_1_8
f  91/57/3 92/58/3 93/59/3
f  92/58/3 91/57/3 94/60/3
f  93/59/4 92/58/4 91/57/4
f  94/60/4 91/57/4 92/58/4
f  92/58/6 95/61/6 93/59/6
f  93/59/5 95/61/5 92/58/5
f  95/36/2 91/16/2 93/2/2
f  93/2/1 91/16/1 95/36/1
f  91/59/5 96/62/5 94/58/5
f  94/58/6 96/62/6 91/59/6
f  96/37/1 92/2/1 94/16/1
f  94/16/2 92/2/2 96/37/2
f  95/61/6 92/58/6 97/63/6
f  97/63/5 92/58/5 95/61/5
f  91/16/2 95/36/2 98/40/2
f  98/40/1 95/36/1 91/16/1
f  96/62/5 91/59/5 98/64/5
f  98/64/6 91/59/6 96/62/6
f  92/2/1 96/37/1 97/38/1
f  97/38/2 96/37/2 92/2/2
f  96/65/4 95/59/4 97/58/4
f  97/58/3 95/59/3 96/65/3
f  95/59/4 96/65/4 98/66/4
f  98/66/3 96/65/3 95/59/3

# Mesh 'mesh26_mesh26-geometry' with 12 faces
g mesh26_mesh26-geometry
usemtl material_1_0
l  94 92
l  91 94
l  94 96
l  92 97
l  93 92
l  91 93
l  91 98
l  98 96
l  96 97
l  95 97
l  93 95
l  98 95

# Mesh 'mesh27_mesh27-geometry' with 24 faces
g mesh27_mesh27-geometry
usemtl material_0_1_8
f  99/42/4 100/43/4 101/44/4
f  100/43/4 99/42/4 102/45/4
f  101/44/3 100/43/3 99/42/3
f  102/45/3 99/42/3 100/43/3
f  100/46/6 103/67/6 101/47/6
f  101/47/5 103/67/5 100/46/5
f  103/68/1 99/18/1 101/17/1
f  101/17/2 99/18/2 103/68/2
f  99/48/5 104/69/5 102/50/5
f  102/50/6 104/69/6 99/48/6
f  104/70/7 100/53/7 102/51/7
f  102/51/8 100/53/8 104/70/8
f  103/67/6 100/46/6 105/71/6
f  105/71/5 100/46/5 103/67/5
f  99/18/1 103/68/1 106/72/1
f  106/72/2 103/68/2 99/18/2
f  104/69/5 99/48/5 106/73/5
f  106/73/6 99/48/6 104/69/6
f  100/53/7 104/70/7 105/74/7
f  105/74/8 104/70/8 100/53/8
f  104/55/3 103/44/3 105/43/3
f  105/43/4 103/44/4 104/55/4
f  103/44/3 104/55/3 106/56/3
f  106/56/4 104/55/4 103/44/4

# Mesh 'mesh28_mesh28-geometry' with 12 faces
g mesh28_mesh28-geometry
usemtl material_1_0
l  101 100
l  101 99
l  103 101
l  102 100
l  100 105
l  99 102
l  106 99
l  103 106
l  105 103
l  102 104
l  104 105
l  104 106

# Mesh 'mesh29_mesh29-geometry' with 32 faces
g mesh29_mesh29-geometry
usemtl material_0_1_8
f  8/57/3 107/58/3 108/59/3
f  107/58/3 8/57/3 109/60/3
f  108/59/4 107/58/4 8/57/4
f  109/60/4 8/57/4 107/58/4
f  107/58/6 110/61/6 108/59/6
f  108/59/5 110/61/5 107/58/5
f  110/36/2 8/16/2 108/2/2
f  108/2/1 8/16/1 110/36/1
f  8/59/5 111/75/5 109/58/5
f  109/58/6 111/75/6 8/59/6
f  111/76/1 107/2/1 109/16/1
f  109/16/2 107/2/2 111/76/2
f  110/61/6 107/58/6 112/63/6
f  112/63/5 107/58/5 110/61/5
f  8/16/2 110/36/2 113/77/2
f  113/77/1 110/36/1 8/16/1
f  111/75/5 8/59/5 113/78/5
f  113/78/6 8/59/6 111/75/6
f  107/2/1 111/76/1 112/38/1
f  112/38/2 111/76/2 107/2/2
f  114/65/4 110/59/4 112/58/4
f  112/58/3 110/59/3 114/65/3
f  113/77/2 110/36/2 14/40/2
f  14/40/1 110/36/1 113/77/1
f  113/78/5 114/62/5 111/75/5
f  111/75/6 114/62/6 113/78/6
f  112/38/1 111/76/1 114/37/1
f  114/37/2 111/76/2 112/38/2
f  110/59/4 114/65/4 14/66/4
f  14/66/3 114/65/3 110/59/3
f  114/62/5 113/78/5 14/64/5
f  14/64/6 113/78/6 114/62/6

# Mesh 'mesh30_mesh30-geometry' with 15 faces
g mesh30_mesh30-geometry
usemtl material_1_0
l  109 107
l  8 109
l  109 111
l  107 112
l  108 107
l  8 108
l  8 113
l  111 114
l  111 113
l  110 112
l  114 112
l  108 110
l  113 14
l  14 114
l  14 110

# Mesh 'mesh31_mesh31-geometry' with 24 faces
g mesh31_mesh31-geometry
usemtl material_0_1_8
f  106/42/4 105/43/4 103/44/4
f  105/43/4 106/42/4 104/45/4
f  103/44/3 105/43/3 106/42/3
f  104/45/3 106/42/3 105/43/3
f  105/46/6 115/67/6 103/47/6
f  103/47/5 115/67/5 105/46/5
f  115/68/1 106/18/1 103/17/1
f  103/17/2 106/18/2 115/68/2
f  106/48/5 116/69/5 104/50/5
f  104/50/6 116/69/6 106/48/6
f  116/70/7 105/53/7 104/51/7
f  104/51/8 105/53/8 116/70/8
f  115/67/6 105/46/6 117/71/6
f  117/71/5 105/46/5 115/67/5
f  106/18/1 115/68/1 118/72/1
f  118/72/2 115/68/2 106/18/2
f  116/69/5 106/48/5 118/73/5
f  118/73/6 106/48/6 116/69/6
f  105/53/7 116/70/7 117/74/7
f  117/74/8 116/70/8 105/53/8
f  116/55/3 115/44/3 117/43/3
f  117/43/4 115/44/4 116/55/4
f  115/44/3 116/55/3 118/56/3
f  118/56/4 116/55/4 115/44/4

# Mesh 'mesh32_mesh32-geometry' with 12 faces
g mesh32_mesh32-geometry
usemtl material_1_0
l  103 105
l  103 106
l  115 103
l  104 105
l  105 117
l  106 104
l  118 106
l  115 118
l  117 115
l  104 116
l  116 117
l  116 118

# Mesh 'mesh33_mesh33-geometry' with 24 faces
g mesh33_mesh33-geometry
usemtl material_0_1_8
f  119/79/2 33/80/2 120/81/2
f  33/80/2 119/79/2 28/82/2
f  120/81/1 33/80/1 119/79/1
f  28/82/1 119/79/1 33/80/1
f  33/83/3 121/84/3 120/41/3
f  120/41/4 121/84/4 33/83/4
f  121/85/6 119/86/6 120/34/6
f  120/34/5 119/86/5 121/85/5
f  119/34/4 122/87/4 28/88/4
f  28/88/3 122/87/3 119/34/3
f  122/89/5 33/41/5 28/90/5
f  28/90/6 33/41/6 122/89/6
f  121/84/3 33/83/3 123/91/3
f  123/91/4 33/83/4 121/84/4
f  119/86/6 121/85/6 124/92/6
f  124/92/5 121/85/5 119/86/5
f  122/87/4 119/34/4 124/85/4
f  124/85/3 119/34/3 122/87/3
f  33/41/5 122/89/5 123/84/5
f  123/84/6 122/89/6 33/41/6
f  122/93/1 121/94/1 123/95/1
f  123/95/2 121/94/2 122/93/2
f  121/94/1 122/93/1 124/96/1
f  124/96/2 122/93/2 121/94/2

