# File produced by Open Asset Import Library (http://www.assimp.sf.net)
# (assimp v3.2.202087883)

mtllib model_normalized.mtl

# 124 vertex positions
v -0.412747 -0.260634 0.258382
v 0.413404 -0.260634 -0.011649
v 0.413404 -0.260634 0.258382
v -0.412747 -0.260634 -0.011649
v 0.413404 -0.225344 0.258382
v -0.412747 -0.225344 -0.011649
v 0.413404 -0.225344 -0.011649
v -0.412747 -0.225344 0.258382
v 0.413404 -0.225344 0.263845
v -0.412747 -0.225344 0.263845
v -0.419049 -0.225344 0.263845
v 0.409796 -0.225344 -0.022496
v 0.419729 -0.225344 -0.011649
v -0.419049 -0.225344 -0.011649
v 0.419729 -0.225344 -0.022496
v -0.408570 -0.225344 -0.022496
v 0.419729 -0.225344 0.263845
v 0.419729 0.196669 0.263845
v -0.419049 0.196669 0.263845
v -0.419049 -0.225344 -0.022496
v 0.409796 -0.216839 -0.022496
v -0.408570 -0.216839 -0.022496
v -0.419049 0.196669 -0.022496
v 0.419729 0.196669 -0.022496
v 0.004430 -0.216839 -0.022496
v -0.001148 -0.216839 -0.022496
v 0.409796 0.196669 -0.022496
v -0.408570 0.196669 -0.022496
v 0.409796 -0.058713 -0.022496
v 0.004430 -0.145982 -0.022496
v -0.001148 -0.081343 -0.022496
v -0.408570 -0.058713 -0.022496
v -0.408570 0.185280 -0.022496
v 0.409796 -0.055494 -0.022496
v 0.004430 -0.216839 -0.019923
v -0.001148 -0.081343 -0.019923
v -0.408570 -0.055494 -0.022496
v 0.409796 0.185280 -0.022496
v -0.408570 0.094268 -0.022496
v -0.243926 0.185280 -0.022496
v 0.004430 -0.081343 -0.022496
v 0.409796 -0.058713 -0.019923
v 0.409796 0.090738 -0.022496
v -0.001148 -0.216839 -0.019923
v 0.004430 -0.145982 -0.019923
v -0.246667 -0.062789 -0.022496
v -0.001148 -0.060224 -0.019923
v -0.408570 0.090738 -0.022496
v -0.408570 -0.055494 -0.019923
v 0.409796 0.094268 -0.022496
v 0.244915 0.185280 -0.022496
v -0.001148 0.094268 -0.022496
v -0.166229 0.185280 -0.022496
v -0.243926 0.180394 -0.022496
v 0.242068 -0.062176 -0.022496
v 0.409796 -0.055494 -0.019923
v 0.242068 -0.058713 -0.022496
v 0.243491 0.086486 -0.022496
v -0.246667 -0.058713 -0.022496
v -0.171422 -0.062789 -0.022496
v -0.001148 -0.060224 -0.022496
v 0.004430 -0.081343 -0.019923
v -0.001148 -0.055494 -0.022496
v -0.408570 -0.058713 -0.019923
v 0.244915 0.181381 -0.022496
v 0.166273 0.185280 -0.022496
v -0.408570 0.094268 -0.019923
v -0.001148 0.185280 -0.022496
v -0.243926 0.185280 -0.029752
v 0.163306 -0.062176 -0.022496
v 0.004430 -0.055494 -0.019923
v 0.004430 -0.058713 -0.019923
v 0.165204 0.086486 -0.022496
v 0.243491 0.090738 -0.022496
v 0.409796 0.090738 -0.019923
v -0.246667 -0.058713 -0.029833
v -0.171422 -0.062789 -0.029833
v -0.001148 -0.058713 -0.019923
v -0.246667 0.086617 -0.022496
v -0.001148 -0.055494 -0.019923
v 0.166273 0.181381 -0.022496
v 0.004430 0.185280 -0.022496
v 0.166273 0.185280 -0.028888
v 0.244915 0.181381 -0.028888
v -0.408570 0.090738 -0.019923
v -0.166229 0.180394 -0.022496
v -0.001148 0.094268 -0.019923
v -0.166229 0.185280 -0.029752
v -0.243926 0.180394 -0.029752
v 0.004430 -0.058713 -0.022496
v 0.242068 -0.062176 -0.031664
v 0.004430 -0.055494 -0.022496
v 0.163306 -0.058713 -0.022496
v 0.004430 0.090738 -0.022496
v 0.243491 0.086486 -0.029710
v 0.409796 0.094268 -0.019923
v -0.171422 -0.058713 -0.022496
v -0.246667 -0.062789 -0.029833
v -0.001148 -0.058713 -0.022496
v -0.246667 0.090738 -0.022496
v -0.168825 0.086617 -0.022496
v -0.001148 0.090738 -0.019923
v 0.244915 0.185280 -0.028888
v -0.166229 0.180394 -0.029752
v -0.001148 0.185280 -0.019923
v 0.163306 -0.062176 -0.031664
v 0.242068 -0.058713 -0.031664
v 0.163306 -0.058713 -0.031664
v 0.165204 0.090738 -0.022496
v 0.165204 0.086486 -0.029710
v 0.243491 0.090738 -0.029710
v 0.004430 0.090738 -0.019923
v 0.004430 0.094268 -0.019923
v -0.171422 -0.058713 -0.029833
v -0.246667 0.090738 -0.029855
v -0.001148 0.090738 -0.022496
v -0.168825 0.086617 -0.029855
v 0.004430 0.094268 -0.022496
v 0.166273 0.181381 -0.028888
v -0.168825 0.090738 -0.022496
v 0.004430 0.185280 -0.019923
v 0.165204 0.090738 -0.029710
v -0.246667 0.086617 -0.029855
v -0.168825 0.090738 -0.029855

# 127 UV coordinates
vt 0 0 0
vt 0.857622 0 0
vt 0.240759 0.03359 0
vt 0.240759 0 0
vt -0.704199 0.03359 0
vt -2.59147 0 0
vt -0.704199 0 0
vt -0.240759 0 0
vt -0.857622 0.03359 0
vt -0.857622 0 0
vt 2.59147 0.03359 0
vt 0.704199 0 0
vt 2.59147 0 0
vt 0.857622 0.03359 0
vt -2.59147 0.03359 0
vt -0.240759 0.03359 0
vt 0.704199 0.03359 0
vt -0.68975 0.435279 0
vt -2.60587 0.03359 0
vt -0.228279 0.435279 0
vt -0.228279 0.03359 0
vt 0.712442 0.041685 0
vt 0.68975 0.03359 0
vt 0.712442 0.03359 0
vt 2.58193 0.041685 0
vt 2.58193 0.03359 0
vt 0.228279 0.435279 0
vt 0.228279 0.03359 0
vt -0.68975 0.03359 0
vt 0.882401 0.03359 0
vt -2.60587 0.435279 0
vt -0.882401 0.435279 0
vt -0.882401 0.03359 0
vt 0.68975 0.435279 0
vt 1.63847 0.041685 0
vt 2.60587 0.435279 0
vt 2.60587 0.03359 0
vt 1.65121 0.041685 0
vt 0.882401 0.435279 0
vt 0.68975 -0.095116 0
vt 0.712442 -0.367667 0
vt 2.60587 -0.095116 0
vt 2.58193 -0.367667 0
vt 2.60587 -0.367667 0
vt 0.712442 0.192196 0
vt 2.58193 0.192196 0
vt 0.68975 -0.367667 0
vt 2.58193 0.424438 0
vt 2.58193 0.435279 0
vt 0.712442 0.19526 0
vt 2.58193 0.19526 0
vt 0.712442 0.424438 0
vt 0.712442 0.435279 0
vt 2.58193 0.337809 0
vt 2.20581 0.424438 0
vt 0.712442 0.334449 0
vt 2.58193 0.334449 0
vt 0.712442 0.337809 0
vt 1.0891 0.424438 0
vt 2.02833 0.424438 0
vt 1.65121 0.170656 0
vt 1.63847 0.10913 0
vt 1.63847 0.170656 0
vt 1.65121 0.190757 0
vt 1.26875 0.424438 0
vt 1.65121 0.424438 0
vt 1.63847 0.192196 0
vt 1.65121 0.192196 0
vt 1.63847 0.424438 0
vt 1.65121 0.19526 0
vt 1.63847 0.19526 0
vt 1.65121 0.334449 0
vt 1.65121 0.337809 0
vt 1.63847 0.334449 0
vt 1.63847 0.337809 0
vt 1.22885 1.96434 0
vt 0.534331 0.750337 0
vt 1.22885 0.750337 0
vt 1.93644 0.750337 0
vt 1.23841 3.07181 0
vt 1.23841 0.750337 0
vt 0.534331 3.45953 0
vt 1.93644 3.45953 0
vt 1.22885 3.07181 0
vt 1.65906 3.38969 0
vt 1.93644 7.63989 0
vt 1.23841 6.08056 0
vt 1.93644 6.08056 0
vt 1.65436 7.55618 0
vt 1.65436 7.63989 0
vt 0.821701 3.40019 0
vt 0.534331 3.51468 0
vt 0.819262 5.94724 0
vt 0.534331 6.02009 0
vt 1.65906 3.45953 0
vt 1.53014 3.38969 0
vt 1.93644 6.02009 0
vt 1.23841 3.51468 0
vt 1.93644 3.51468 0
vt 0.534331 6.08056 0
vt 0.816824 7.57309 0
vt 0.534331 7.63989 0
vt 0.816824 7.63989 0
vt 0.956645 3.40019 0
vt 0.821701 3.45953 0
vt 0.953394 5.94724 0
vt 0.819262 6.02009 0
vt 1.23841 3.43363 0
vt 1.65906 5.94948 0
vt 0.951562 7.57309 0
vt 1.52124 7.55618 0
vt 1.23841 7.63989 0
vt 1.52124 7.63989 0
vt 1.22885 3.45953 0
vt 1.22885 6.02009 0
vt 1.53014 3.45953 0
vt 1.65906 6.02009 0
vt 1.52569 5.94948 0
vt 1.22885 7.63989 0
vt 0.951562 7.63989 0
vt 0.956645 3.45953 0
vt 1.22885 3.51468 0
vt 0.953394 6.02009 0
vt 1.23841 3.45953 0
vt 1.23841 6.02009 0
vt 1.22885 6.08056 0
vt 1.52569 6.02009 0

# 6 vertex normals
vn 0 -0.0254 0
vn 0 0.0254 0
vn -0.0254 0 0
vn 0 -0 -0.0254
vn 0.0254 -0 -0
vn 0 0 0.0254

# Mesh 'mesh1_mesh1-geometry' with 380 faces
g mesh1_mesh1-geometry
usemtl material_0_24
f  1/1/1 2/1/1 3/1/1
f  2/1/1 1/1/1 4/1/1
f  3/1/2 2/1/2 1/1/2
f  4/1/2 1/1/2 2/1/2
f  3/1/3 5/1/3 2/1/3
f  3/1/4 1/1/4 5/1/4
f  4/1/5 6/1/5 1/1/5
f  4/1/6 2/1/6 6/1/6
f  7/1/3 2/1/3 5/1/3
f  8/1/4 5/1/4 1/1/4
f  8/1/5 1/1/5 6/1/5
f  7/1/6 6/1/6 2/1/6
f  8/1/1 7/1/1 5/1/1
f  5/1/2 7/1/2 8/1/2
f  7/1/1 9/1/1 5/1/1
f  5/1/2 9/1/2 7/1/2
f  5/1/1 10/1/1 8/1/1
f  8/1/2 10/1/2 5/1/2
f  7/1/1 8/1/1 6/1/1
f  6/1/2 8/1/2 7/1/2
f  8/1/1 11/1/1 6/1/1
f  6/1/2 11/1/2 8/1/2
f  12/1/1 7/1/1 6/1/1
f  6/1/2 7/1/2 12/1/2
f  13/1/1 9/1/1 7/1/1
f  7/1/2 9/1/2 13/1/2
f  10/1/1 5/1/1 9/1/1
f  9/1/2 5/1/2 10/1/2
f  11/1/1 8/1/1 10/1/1
f  10/1/2 8/1/2 11/1/2
f  6/1/1 11/1/1 14/1/1
f  14/1/2 11/1/2 6/1/2
f  15/1/1 7/1/1 12/1/1
f  12/1/2 7/1/2 15/1/2
f  12/1/1 6/1/1 16/1/1
f  16/1/2 6/1/2 12/1/2
f  9/1/1 13/1/1 17/1/1
f  17/1/2 13/1/2 9/1/2
f  7/1/1 15/1/1 13/1/1
f  13/1/2 15/1/2 7/1/2
f  10/1/4 18/1/4 9/1/4
f  11/1/4 18/1/4 10/1/4
f  11/1/5 14/1/5 19/1/5
f  20/1/1 6/1/1 14/1/1
f  14/1/2 6/1/2 20/1/2
f  12/1/6 15/1/6 21/1/6
f  16/1/1 6/1/1 20/1/1
f  20/1/2 6/1/2 16/1/2
f  16/1/6 12/1/6 22/1/6
f  17/1/3 18/1/3 13/1/3
f  17/1/4 9/1/4 18/1/4
f  13/1/3 18/1/3 15/1/3
f  19/1/4 18/1/4 11/1/4
f  19/1/5 14/1/5 23/1/5
f  20/1/5 23/1/5 14/1/5
f  24/1/6 21/1/6 15/1/6
f  21/1/6 25/1/6 12/1/6
f  20/1/6 16/1/6 23/1/6
f  26/1/6 22/1/6 12/1/6
f  22/1/6 23/1/6 16/1/6
f  24/1/3 15/1/3 18/1/3
f  19/1/1 27/1/1 18/1/1
f  23/1/1 28/1/1 19/1/1
f  29/1/6 21/1/6 24/1/6
f  26/1/6 12/1/6 25/1/6
f  25/1/6 21/1/6 30/1/6
f  26/1/6 31/1/6 22/1/6
f  32/1/6 23/1/6 22/1/6
f  24/1/1 18/1/1 27/1/1
f  28/1/1 27/1/1 19/1/1
f  28/1/6 23/1/6 33/1/6
f  29/1/6 30/1/6 21/1/6
f  34/1/6 29/1/6 24/1/6
f  26/1/2 35/1/2 25/1/2
f  25/1/1 35/1/1 26/1/1
f  35/1/3 30/1/3 25/1/3
f  25/1/5 30/1/5 35/1/5
f  32/1/6 22/1/6 31/1/6
f  36/1/5 26/1/5 31/1/5
f  31/1/3 26/1/3 36/1/3
f  37/1/6 23/1/6 32/1/6
f  27/1/6 38/1/6 24/1/6
f  27/1/6 28/1/6 38/1/6
f  33/1/6 23/1/6 39/1/6
f  33/1/6 40/1/6 28/1/6
f  41/1/6 30/1/6 29/1/6
f  42/1/3 34/1/3 29/1/3
f  29/1/5 34/1/5 42/1/5
f  43/1/6 34/1/6 24/1/6
f  35/1/2 26/1/2 44/1/2
f  44/1/1 26/1/1 35/1/1
f  30/1/3 35/1/3 45/1/3
f  45/1/5 35/1/5 30/1/5
f  46/1/6 32/1/6 31/1/6
f  26/1/5 36/1/5 44/1/5
f  44/1/3 36/1/3 26/1/3
f  31/1/5 47/1/5 36/1/5
f  36/1/3 47/1/3 31/1/3
f  48/1/6 23/1/6 37/1/6
f  49/1/5 32/1/5 37/1/5
f  37/1/3 32/1/3 49/1/3
f  38/1/6 50/1/6 24/1/6
f  38/1/6 28/1/6 51/1/6
f  39/1/6 23/1/6 48/1/6
f  39/1/6 52/1/6 33/1/6
f  53/1/6 28/1/6 40/1/6
f  40/1/6 33/1/6 54/1/6
f  45/1/3 41/1/3 30/1/3
f  30/1/5 41/1/5 45/1/5
f  55/1/6 41/1/6 29/1/6
f  34/1/3 42/1/3 56/1/3
f  56/1/5 42/1/5 34/1/5
f  57/1/2 42/1/2 29/1/2
f  29/1/1 42/1/1 57/1/1
f  43/1/6 58/1/6 34/1/6
f  50/1/6 43/1/6 24/1/6
f  44/1/6 35/1/6 36/1/6
f  45/1/6 36/1/6 35/1/6
f  59/1/6 32/1/6 46/1/6
f  46/1/6 31/1/6 60/1/6
f  47/1/5 31/1/5 61/1/5
f  61/1/3 31/1/3 47/1/3
f  47/1/6 36/1/6 62/1/6
f  37/1/6 63/1/6 48/1/6
f  32/1/5 49/1/5 64/1/5
f  64/1/3 49/1/3 32/1/3
f  63/1/1 49/1/1 37/1/1
f  37/1/2 49/1/2 63/1/2
f  38/1/6 65/1/6 50/1/6
f  51/1/6 28/1/6 66/1/6
f  51/1/6 65/1/6 38/1/6
f  67/1/5 48/1/5 39/1/5
f  39/1/3 48/1/3 67/1/3
f  54/1/6 33/1/6 52/1/6
f  52/1/1 67/1/1 39/1/1
f  39/1/2 67/1/2 52/1/2
f  68/1/6 28/1/6 53/1/6
f  53/1/2 69/1/2 40/1/2
f  40/1/1 69/1/1 53/1/1
f  69/1/3 54/1/3 40/1/3
f  40/1/5 54/1/5 69/1/5
f  41/1/3 45/1/3 62/1/3
f  62/1/5 45/1/5 41/1/5
f  70/1/6 41/1/6 55/1/6
f  57/1/6 55/1/6 29/1/6
f  56/1/6 49/1/6 42/1/6
f  71/1/1 34/1/1 56/1/1
f  56/1/2 34/1/2 71/1/2
f  42/1/2 57/1/2 72/1/2
f  72/1/1 57/1/1 42/1/1
f  73/1/6 34/1/6 58/1/6
f  74/1/6 58/1/6 43/1/6
f  75/1/3 50/1/3 43/1/3
f  43/1/5 50/1/5 75/1/5
f  62/1/6 36/1/6 45/1/6
f  64/1/2 59/1/2 32/1/2
f  32/1/1 59/1/1 64/1/1
f  76/1/3 46/1/3 59/1/3
f  59/1/5 46/1/5 76/1/5
f  61/1/6 60/1/6 31/1/6
f  46/1/1 77/1/1 60/1/1
f  60/1/2 77/1/2 46/1/2
f  61/1/5 78/1/5 47/1/5
f  47/1/3 78/1/3 61/1/3
f  72/1/6 47/1/6 62/1/6
f  79/1/6 48/1/6 63/1/6
f  64/1/6 78/1/6 49/1/6
f  49/1/1 63/1/1 80/1/1
f  80/1/2 63/1/2 49/1/2
f  81/1/6 50/1/6 65/1/6
f  66/1/6 28/1/6 82/1/6
f  51/1/2 83/1/2 66/1/2
f  66/1/1 83/1/1 51/1/1
f  84/1/5 51/1/5 65/1/5
f  65/1/3 51/1/3 84/1/3
f  48/1/5 67/1/5 85/1/5
f  85/1/3 67/1/3 48/1/3
f  54/1/6 52/1/6 86/1/6
f  67/1/1 52/1/1 87/1/1
f  87/1/2 52/1/2 67/1/2
f  82/1/6 28/1/6 68/1/6
f  53/1/6 86/1/6 68/1/6
f  69/1/2 53/1/2 88/1/2
f  88/1/1 53/1/1 69/1/1
f  54/1/3 69/1/3 89/1/3
f  89/1/5 69/1/5 54/1/5
f  62/1/3 90/1/3 41/1/3
f  41/1/5 90/1/5 62/1/5
f  41/1/6 70/1/6 90/1/6
f  70/1/1 91/1/1 55/1/1
f  55/1/2 91/1/2 70/1/2
f  91/1/5 57/1/5 55/1/5
f  55/1/3 57/1/3 91/1/3
f  42/1/6 49/1/6 72/1/6
f  80/1/6 49/1/6 56/1/6
f  34/1/1 71/1/1 92/1/1
f  92/1/2 71/1/2 34/1/2
f  71/1/6 80/1/6 56/1/6
f  72/1/2 57/1/2 93/1/2
f  93/1/1 57/1/1 72/1/1
f  73/1/6 94/1/6 34/1/6
f  73/1/1 95/1/1 58/1/1
f  58/1/2 95/1/2 73/1/2
f  95/1/5 74/1/5 58/1/5
f  58/1/3 74/1/3 95/1/3
f  74/1/2 75/1/2 43/1/2
f  43/1/1 75/1/1 74/1/1
f  50/1/3 75/1/3 96/1/3
f  96/1/5 75/1/5 50/1/5
f  64/1/2 97/1/2 59/1/2
f  59/1/1 97/1/1 64/1/1
f  46/1/3 76/1/3 98/1/3
f  98/1/5 76/1/5 46/1/5
f  59/1/2 97/1/2 76/1/2
f  76/1/1 97/1/1 59/1/1
f  97/1/6 60/1/6 61/1/6
f  77/1/1 46/1/1 98/1/1
f  98/1/2 46/1/2 77/1/2
f  77/1/5 97/1/5 60/1/5
f  60/1/3 97/1/3 77/1/3
f  78/1/5 61/1/5 99/1/5
f  99/1/3 61/1/3 78/1/3
f  78/1/6 47/1/6 72/1/6
f  90/1/3 62/1/3 72/1/3
f  72/1/5 62/1/5 90/1/5
f  100/1/6 48/1/6 79/1/6
f  79/1/6 63/1/6 101/1/6
f  72/1/6 49/1/6 78/1/6
f  78/1/2 97/1/2 64/1/2
f  64/1/1 97/1/1 78/1/1
f  63/1/5 102/1/5 80/1/5
f  80/1/3 102/1/3 63/1/3
f  81/1/6 82/1/6 50/1/6
f  81/1/1 84/1/1 65/1/1
f  65/1/2 84/1/2 81/1/2
f  66/1/6 82/1/6 81/1/6
f  83/1/2 51/1/2 103/1/2
f  103/1/1 51/1/1 83/1/1
f  83/1/3 81/1/3 66/1/3
f  66/1/5 81/1/5 83/1/5
f  51/1/5 84/1/5 103/1/5
f  103/1/3 84/1/3 51/1/3
f  85/1/6 102/1/6 67/1/6
f  85/1/2 100/1/2 48/1/2
f  48/1/1 100/1/1 85/1/1
f  68/1/6 86/1/6 52/1/6
f  54/1/1 104/1/1 86/1/1
f  86/1/2 104/1/2 54/1/2
f  52/1/5 105/1/5 87/1/5
f  87/1/3 105/1/3 52/1/3
f  87/1/6 67/1/6 96/1/6
f  82/1/1 105/1/1 68/1/1
f  68/1/2 105/1/2 82/1/2
f  104/1/5 53/1/5 86/1/5
f  86/1/3 53/1/3 104/1/3
f  53/1/5 104/1/5 88/1/5
f  88/1/3 104/1/3 53/1/3
f  104/1/4 69/1/4 88/1/4
f  88/1/6 69/1/6 104/1/6
f  69/1/4 104/1/4 89/1/4
f  89/1/6 104/1/6 69/1/6
f  104/1/1 54/1/1 89/1/1
f  89/1/2 54/1/2 104/1/2
f  93/1/6 90/1/6 70/1/6
f  91/1/1 70/1/1 106/1/1
f  106/1/2 70/1/2 91/1/2
f  57/1/5 91/1/5 107/1/5
f  107/1/3 91/1/3 57/1/3
f  71/1/3 94/1/3 92/1/3
f  92/1/5 94/1/5 71/1/5
f  92/1/6 34/1/6 94/1/6
f  80/1/6 71/1/6 102/1/6
f  93/1/2 57/1/2 108/1/2
f  108/1/1 57/1/1 93/1/1
f  72/1/2 93/1/2 90/1/2
f  90/1/1 93/1/1 72/1/1
f  109/1/6 94/1/6 73/1/6
f  95/1/1 73/1/1 110/1/1
f  110/1/2 73/1/2 95/1/2
f  74/1/5 95/1/5 111/1/5
f  111/1/3 95/1/3 74/1/3
f  75/1/2 74/1/2 112/1/2
f  112/1/1 74/1/1 75/1/1
f  96/1/6 67/1/6 75/1/6
f  113/1/1 50/1/1 96/1/1
f  96/1/2 50/1/2 113/1/2
f  76/1/4 77/1/4 98/1/4
f  98/1/6 77/1/6 76/1/6
f  76/1/2 97/1/2 114/1/2
f  114/1/1 97/1/1 76/1/1
f  99/1/6 97/1/6 61/1/6
f  97/1/5 77/1/5 114/1/5
f  114/1/3 77/1/3 97/1/3
f  97/1/2 78/1/2 99/1/2
f  99/1/1 78/1/1 97/1/1
f  115/1/3 79/1/3 100/1/3
f  100/1/5 79/1/5 115/1/5
f  116/1/6 101/1/6 63/1/6
f  79/1/1 117/1/1 101/1/1
f  101/1/2 117/1/2 79/1/2
f  102/1/5 63/1/5 116/1/5
f  116/1/3 63/1/3 102/1/3
f  118/1/6 50/1/6 82/1/6
f  84/1/1 81/1/1 119/1/1
f  119/1/2 81/1/2 84/1/2
f  84/1/4 83/1/4 103/1/4
f  103/1/6 83/1/6 84/1/6
f  81/1/3 83/1/3 119/1/3
f  119/1/5 83/1/5 81/1/5
f  112/1/6 67/1/6 102/1/6
f  102/1/2 120/1/2 85/1/2
f  85/1/1 120/1/1 102/1/1
f  85/1/2 120/1/2 100/1/2
f  100/1/1 120/1/1 85/1/1
f  105/1/5 52/1/5 68/1/5
f  68/1/3 52/1/3 105/1/3
f  87/1/6 113/1/6 105/1/6
f  113/1/6 87/1/6 96/1/6
f  105/1/1 82/1/1 121/1/1
f  121/1/2 82/1/2 105/1/2
f  108/1/3 70/1/3 93/1/3
f  93/1/5 70/1/5 108/1/5
f  70/1/3 108/1/3 106/1/3
f  106/1/5 108/1/5 70/1/5
f  108/1/4 91/1/4 106/1/4
f  106/1/6 91/1/6 108/1/6
f  91/1/4 108/1/4 107/1/4
f  107/1/6 108/1/6 91/1/6
f  108/1/2 57/1/2 107/1/2
f  107/1/1 57/1/1 108/1/1
f  94/1/3 71/1/3 112/1/3
f  112/1/5 71/1/5 94/1/5
f  112/1/6 102/1/6 71/1/6
f  112/1/2 109/1/2 94/1/2
f  94/1/1 109/1/1 112/1/1
f  122/1/3 73/1/3 109/1/3
f  109/1/5 73/1/5 122/1/5
f  73/1/3 122/1/3 110/1/3
f  110/1/5 122/1/5 73/1/5
f  122/1/4 95/1/4 110/1/4
f  110/1/6 95/1/6 122/1/6
f  95/1/4 122/1/4 111/1/4
f  111/1/6 122/1/6 95/1/6
f  122/1/2 74/1/2 111/1/2
f  111/1/1 74/1/1 122/1/1
f  112/1/2 74/1/2 109/1/2
f  109/1/1 74/1/1 112/1/1
f  75/1/6 67/1/6 112/1/6
f  50/1/1 113/1/1 118/1/1
f  118/1/2 113/1/2 50/1/2
f  77/1/4 76/1/4 114/1/4
f  114/1/6 76/1/6 77/1/6
f  79/1/3 115/1/3 123/1/3
f  123/1/5 115/1/5 79/1/5
f  100/1/2 120/1/2 115/1/2
f  115/1/1 120/1/1 100/1/1
f  120/1/6 101/1/6 116/1/6
f  117/1/1 79/1/1 123/1/1
f  123/1/2 79/1/2 117/1/2
f  117/1/5 120/1/5 101/1/5
f  101/1/3 120/1/3 117/1/3
f  120/1/2 102/1/2 116/1/2
f  116/1/1 102/1/1 120/1/1
f  113/1/3 82/1/3 118/1/3
f  118/1/5 82/1/5 113/1/5
f  83/1/4 84/1/4 119/1/4
f  119/1/6 84/1/6 83/1/6
f  121/1/6 105/1/6 113/1/6
f  82/1/3 113/1/3 121/1/3
f  121/1/5 113/1/5 82/1/5
f  109/1/2 74/1/2 122/1/2
f  122/1/1 74/1/1 109/1/1
f  115/1/4 117/1/4 123/1/4
f  123/1/6 117/1/6 115/1/6
f  115/1/2 120/1/2 124/1/2
f  124/1/1 120/1/1 115/1/1
f  120/1/5 117/1/5 124/1/5
f  124/1/3 117/1/3 120/1/3
f  117/1/4 115/1/4 124/1/4
f  124/1/6 115/1/6 117/1/6

# Mesh 'mesh1_mesh1-geometry' with 72 faces
g mesh1_mesh1-geometry
usemtl material_1_1_8
f  2/2/5 5/3/5 3/4/5
f  5/5/6 1/6/6 3/7/6
f  1/8/3 6/9/3 4/10/3
f  6/11/4 2/12/4 4/13/4
f  5/3/5 2/2/5 7/14/5
f  1/6/6 5/5/6 8/15/6
f  6/9/3 1/8/3 8/16/3
f  2/12/4 6/11/4 7/17/4
f  9/5/6 18/18/6 10/15/6
f  10/15/6 18/18/6 11/19/6
f  19/20/3 14/9/3 11/21/3
f  21/22/4 15/23/4 12/24/4
f  22/25/4 12/24/4 16/26/4
f  13/14/5 18/27/5 17/28/5
f  18/18/6 9/5/6 17/29/6
f  15/30/5 18/27/5 13/14/5
f  11/19/6 18/18/6 19/31/6
f  23/32/3 14/9/3 19/20/3
f  14/9/3 23/32/3 20/33/3
f  15/23/4 21/22/4 24/34/4
f  12/24/4 25/35/4 21/22/4
f  23/36/4 16/26/4 20/37/4
f  12/24/4 22/25/4 26/38/4
f  16/26/4 23/36/4 22/25/4
f  18/27/5 15/30/5 24/39/5
f  18/40/2 27/41/2 19/42/2
f  19/42/2 28/43/2 23/44/2
f  24/34/4 21/22/4 29/45/4
f  25/35/4 12/24/4 26/38/4
f  22/25/4 23/36/4 32/46/4
f  27/41/2 18/40/2 24/47/2
f  19/42/2 27/41/2 28/43/2
f  33/48/4 23/36/4 28/49/4
f  24/34/4 29/45/4 34/50/4
f  32/46/4 23/36/4 37/51/4
f  24/34/4 38/52/4 27/53/4
f  38/52/4 28/49/4 27/53/4
f  39/54/4 23/36/4 33/48/4
f  28/49/4 40/55/4 33/48/4
f  24/34/4 34/50/4 43/56/4
f  37/51/4 23/36/4 48/57/4
f  24/34/4 50/58/4 38/52/4
f  51/59/4 28/49/4 38/52/4
f  48/57/4 23/36/4 39/54/4
f  40/55/4 28/49/4 53/60/4
f  24/34/4 43/56/4 50/58/4
f  36/61/4 35/35/4 44/38/4
f  35/35/4 36/61/4 45/62/4
f  62/63/4 36/61/4 47/64/4
f  66/65/4 28/49/4 51/59/4
f  53/60/4 28/49/4 68/66/4
f  42/45/4 49/51/4 56/50/4
f  45/62/4 36/61/4 62/63/4
f  62/63/4 47/64/4 72/67/4
f  49/51/4 78/68/4 64/46/4
f  82/69/4 28/49/4 66/65/4
f  68/66/4 28/49/4 82/69/4
f  72/67/4 49/51/4 42/45/4
f  56/50/4 49/51/4 80/70/4
f  56/50/4 80/70/4 71/71/4
f  72/67/4 47/64/4 78/68/4
f  78/68/4 49/51/4 72/67/4
f  67/54/4 102/72/4 85/57/4
f  96/58/4 67/54/4 87/73/4
f  102/72/4 71/71/4 80/70/4
f  75/56/4 67/54/4 96/58/4
f  102/72/4 67/54/4 112/74/4
f  105/66/4 113/75/4 87/73/4
f  96/58/4 87/73/4 113/75/4
f  71/71/4 102/72/4 112/74/4
f  112/74/4 67/54/4 75/56/4
f  113/75/4 105/66/4 121/69/4

# Mesh 'mesh1_mesh1-geometry' with 40 faces
g mesh1_mesh1-geometry
usemtl material_2_2_8
f  30/76/4 21/77/4 25/78/4
f  22/79/4 31/80/4 26/81/4
f  21/77/4 30/76/4 29/82/4
f  31/80/4 22/79/4 32/83/4
f  29/82/4 30/76/4 41/84/4
f  31/80/4 32/83/4 46/85/4
f  33/86/4 52/87/4 39/88/4
f  54/89/4 33/86/4 40/90/4
f  29/82/4 41/84/4 55/91/4
f  34/92/4 58/93/4 43/94/4
f  46/85/4 32/83/4 59/95/4
f  60/96/4 31/80/4 46/85/4
f  48/97/4 63/98/4 37/99/4
f  50/100/4 65/101/4 38/102/4
f  38/102/4 65/101/4 51/103/4
f  52/87/4 33/86/4 54/89/4
f  55/91/4 41/84/4 70/104/4
f  29/82/4 55/91/4 57/105/4
f  58/93/4 34/92/4 73/106/4
f  43/94/4 58/93/4 74/107/4
f  31/80/4 60/96/4 61/108/4
f  63/98/4 48/97/4 79/109/4
f  65/101/4 50/100/4 81/110/4
f  86/111/4 52/87/4 54/89/4
f  68/112/4 86/111/4 53/113/4
f  90/114/4 70/104/4 41/84/4
f  34/92/4 94/115/4 73/106/4
f  61/108/4 60/96/4 97/116/4
f  79/109/4 48/97/4 100/117/4
f  101/118/4 63/98/4 79/109/4
f  50/100/4 82/119/4 81/110/4
f  81/110/4 82/119/4 66/120/4
f  52/87/4 86/111/4 68/112/4
f  70/104/4 90/114/4 93/121/4
f  94/115/4 34/92/4 92/122/4
f  73/106/4 94/115/4 109/123/4
f  61/108/4 97/116/4 99/124/4
f  63/98/4 101/118/4 116/125/4
f  82/119/4 50/100/4 118/126/4
f  116/125/4 101/118/4 120/127/4

# Mesh 'mesh2_mesh2-geometry' with 4 faces
g mesh2_mesh2-geometry
usemtl material_0_0
l  2 4
l  2 3
l  4 1
l  1 3

# Mesh 'mesh3_mesh3-geometry' with 1 faces
g mesh3_mesh3-geometry
usemtl material_0_0
l  13 7

# Mesh 'mesh4_mesh4-geometry' with 1 faces
g mesh4_mesh4-geometry
usemtl material_0_0
l  14 6

# Mesh 'mesh5_mesh5-geometry' with 1 faces
g mesh5_mesh5-geometry
usemtl material_0_0
l  9 5

# Mesh 'mesh6_mesh6-geometry' with 1 faces
g mesh6_mesh6-geometry
usemtl material_0_0
l  10 8

# Mesh 'mesh7_mesh7-geometry' with 3 faces
g mesh7_mesh7-geometry
usemtl material_0_0
l  20 16
l  16 12
l  12 15

# Mesh 'mesh8_mesh8-geometry' with 5 faces
g mesh8_mesh8-geometry
usemtl material_0_0
l  82 118
l  82 121
l  50 118
l  118 113
l  50 96

# Mesh 'mesh9_mesh9-geometry' with 16 faces
g mesh9_mesh9-geometry
usemtl material_0_0
l  34 92
l  34 56
l  94 92
l  92 71
l  94 109
l  94 112
l  109 122
l  122 110
l  122 111
l  110 95
l  73 110
l  111 95
l  74 111
l  58 95
l  74 43
l  43 75

# Mesh 'mesh10_mesh10-geometry' with 18 faces
g mesh10_mesh10-geometry
usemtl material_0_0
l  32 59
l  32 64
l  59 76
l  76 98
l  76 114
l  98 77
l  46 98
l  114 77
l  97 114
l  60 77
l  97 99
l  99 61
l  99 78
l  61 31
l  61 47
l  31 26
l  31 36
l  26 44

# Mesh 'mesh11_mesh11-geometry' with 18 faces
g mesh11_mesh11-geometry
usemtl material_0_0
l  90 93
l  90 41
l  90 72
l  93 108
l  41 30
l  41 62
l  108 106
l  108 107
l  30 25
l  30 45
l  106 91
l  70 106
l  107 91
l  57 107
l  25 35
l  55 91
l  57 29
l  29 42

# Mesh 'mesh12_mesh12-geometry' with 16 faces
g mesh12_mesh12-geometry
usemtl material_0_0
l  63 37
l  116 63
l  63 80
l  37 49
l  116 102
l  120 116
l  120 124
l  124 117
l  115 124
l  123 117
l  101 117
l  115 123
l  100 115
l  79 123
l  48 100
l  48 85

# Mesh 'mesh13_mesh13-geometry' with 1 faces
g mesh13_mesh13-geometry
usemtl material_0_0
l  39 67

# Mesh 'mesh14_mesh14-geometry' with 1 faces
g mesh14_mesh14-geometry
usemtl material_0_0
l  52 87

# Mesh 'mesh15_mesh15-geometry' with 1 faces
g mesh15_mesh15-geometry
usemtl material_0_0
l  68 105

# Mesh 'mesh16_mesh16-geometry' with 8 faces
g mesh16_mesh16-geometry
usemtl material_0_0
l  88 104
l  88 69
l  53 88
l  89 104
l  86 104
l  69 89
l  40 69
l  54 89

# Mesh 'mesh17_mesh17-geometry' with 8 faces
g mesh17_mesh17-geometry
usemtl material_0_0
l  103 84
l  83 103
l  51 103
l  119 84
l  65 84
l  83 119
l  66 83
l  81 119

