# File produced by Open Asset Import Library (http://www.assimp.sf.net)
# (assimp v3.2.202087883)

mtllib model_normalized.mtl

# 84 vertex positions
v 0.287480 0.023669 0.070705
v 0.307872 -0.015088 0.070705
v 0.307872 0.023669 0.070705
v 0.287480 -0.015088 0.070705
v 0.307872 0.023669 -0.092092
v -0.487860 -0.024834 0.070705
v 0.287480 -0.015088 -0.092092
v 0.307872 -0.015088 -0.092092
v 0.287480 0.023669 -0.092092
v 0.451032 -0.015088 0.070705
v 0.152058 -0.015088 0.070705
v 0.451032 -0.015088 -0.092092
v 0.471147 -0.024834 0.070705
v 0.126719 -0.015088 0.070705
v 0.152058 -0.015088 -0.092092
v -0.487860 -0.024834 -0.092092
v 0.451032 0.049235 0.070705
v -0.466679 -0.024834 0.026208
v 0.451032 0.017075 0.070705
v 0.126719 0.033642 0.070705
v -0.000780 -0.015088 0.070705
v 0.152058 0.033642 -0.092092
v 0.471147 -0.024834 -0.092092
v 0.471147 0.049235 0.070705
v 0.433851 -0.024834 0.026208
v 0.451032 0.017075 0.059790
v 0.152058 0.033642 0.070705
v 0.126719 -0.015088 -0.092092
v -0.012476 -0.015088 0.070705
v 0.471147 0.049235 -0.092092
v 0.433851 -0.024834 -0.047862
v 0.441796 0.049235 0.070705
v -0.487860 0.049235 0.070705
v -0.466679 -0.024834 -0.047862
v -0.452857 -0.024834 0.026208
v -0.468481 0.017075 0.059790
v 0.451032 0.049235 -0.092092
v 0.126719 0.033642 -0.092092
v -0.000780 -0.015088 -0.092092
v -0.012476 0.033642 0.070705
v -0.154777 -0.015088 0.070705
v 0.408690 -0.024834 -0.047862
v 0.451032 0.049235 0.059790
v -0.468481 0.017075 0.070705
v -0.487860 0.049235 -0.092092
v -0.468481 -0.015088 0.070705
v -0.452857 -0.024834 -0.047862
v -0.466679 -0.130091 -0.047862
v -0.452857 -0.130091 0.026208
v 0.408690 -0.024834 0.026208
v -0.000780 0.033642 -0.092092
v -0.000780 0.033642 0.070705
v -0.012476 -0.015088 -0.092092
v -0.168421 -0.015088 0.070705
v 0.433851 -0.130091 0.026208
v 0.408690 -0.130091 -0.047862
v -0.468481 0.101864 0.070705
v 0.441796 0.049235 0.059790
v -0.468481 0.049235 0.059790
v -0.468481 0.049235 -0.092092
v -0.316444 -0.015088 0.070705
v -0.466679 -0.130091 0.026208
v -0.012476 0.033642 -0.092092
v -0.154777 -0.015088 -0.092092
v -0.168421 0.033642 0.070705
v -0.304543 -0.015088 0.070705
v 0.433851 -0.130091 -0.047862
v 0.441796 0.101864 0.070705
v -0.468481 0.049235 0.070705
v 0.441796 0.101864 0.059790
v -0.468481 -0.015088 -0.092092
v -0.316444 -0.015088 -0.092092
v -0.452857 -0.130091 -0.047862
v 0.408690 -0.130091 0.026208
v -0.468481 0.101864 0.059790
v -0.154777 0.033642 -0.092092
v -0.154777 0.033642 0.070705
v -0.168421 -0.015088 -0.092092
v -0.316444 0.033973 0.070705
v -0.168421 0.033642 -0.092092
v -0.304543 -0.015088 -0.092092
v -0.304543 0.033973 0.070705
v -0.316444 0.033973 -0.092092
v -0.304543 0.033973 -0.092092

# 200 UV coordinates
vt -0.981529 0.821702 0
vt -0.872555 0.614583 0
vt -0.872555 0.821702 0
vt -0.981529 0.614583 0
vt 0 0.614583 0
vt 0.87 0.821702 0
vt 0 0.821702 0
vt 0.87 0.872555 0
vt 0 0.981529 0
vt 0 0.872555 0
vt -5.125 0.5625 0
vt -0.87 0.614583 0
vt 0.87 0.614583 0
vt 0.87 0.981529 0
vt -0.107497 0.614583 0
vt -1.70524 0.614583 0
vt -0.87 0.821702 0
vt 0 1.70524 0
vt 0.87 0.107497 0
vt 0.872555 0.614583 0
vt 0.981529 0.614583 0
vt 0.872555 0.821702 0
vt 0.981529 0.821702 0
vt 0 0.5625 0
vt 0 0.107497 0
vt -1.84066 0.614583 0
vt 0.87 1.70524 0
vt 0.107497 0.614583 0
vt 5.125 0.5625 0
vt -0.107497 0.958333 0
vt 0 5.125 0
vt -0.237799 5.01182 0
vt 0 0 0
vt 0 0.786458 0
vt -1.84066 0.875 0
vt -2.52201 0.614583 0
vt 1.70524 0.614583 0
vt 0.87 0.875 0
vt 0 0.958333 0
vt -0.107497 0.786458 0
vt -0.87 5.125 0
vt -0.237799 0.199315 0
vt -0.058333 0.786458 0
vt -1.70524 0.875 0
vt 0 0.875 0
vt 0.87 1.84066 0
vt 0 2.52201 0
vt 0 1.84066 0
vt -2.58451 0.614583 0
vt 1.84066 0.614583 0
vt 1.70524 0.875 0
vt -0.87 0 0
vt -0.633632 0.199315 0
vt 0.87 0.958333 0
vt 0.87 0 0
vt -0.156869 0.958333 0
vt -0.87 0.5625 0
vt -0.633632 5.01182 0
vt -0.237799 4.93794 0
vt -0.058333 5.02145 0
vt -0.058333 0.107497 0
vt -0.87 0.958333 0
vt -0.87 0.875 0
vt 0.87 2.52201 0
vt -2.58451 0.875 0
vt -3.34499 0.614583 0
vt 2.52201 0.614583 0
vt 1.84066 0.875 0
vt 0.107497 0.958333 0
vt 0.87 0.5625 0
vt -0.633632 0.333778 0
vt 0.058333 0.107497 0
vt -5.02145 0.786458 0
vt 0 0.156869 0
vt -0.058333 0.958333 0
vt -5.02145 0.614583 0
vt -5.125 0.958333 0
vt -0.633632 4.93794 0
vt -0.633632 0 0
vt -0.237799 0.5625 0
vt -0.633632 0.5625 0
vt -5.01182 0.5625 0
vt -4.93794 0 0
vt -4.93794 0.5625 0
vt -0.237799 0.333778 0
vt 0 5.02145 0
vt 5.02145 0.786458 0
vt 0.107497 0.786458 0
vt -2.52201 0.875 0
vt 0.87 2.58451 0
vt 0 3.34499 0
vt 0 2.58451 0
vt -3.41791 0.614583 0
vt 2.58451 0.614583 0
vt 0.237799 0 0
vt 0.633632 0.5625 0
vt 0.237799 0.5625 0
vt 0.199315 0.5625 0
vt 0.333778 0 0
vt 0.333778 0.5625 0
vt -5.02145 1.23958 0
vt 0.058333 0.156869 0
vt 0.058333 5.02145 0
vt 0.87 5.125 0
vt 5.02145 0.958333 0
vt 5.125 0.958333 0
vt -4.20895 0.614583 0
vt 4.93794 0.5625 0
vt 5.01182 0 0
vt 5.01182 0.5625 0
vt -0.237799 0 0
vt -5.01182 0 0
vt -0.333778 0.5625 0
vt -0.199315 0 0
vt -0.199315 0.5625 0
vt 0.058333 0.786458 0
vt 0.058333 0.958333 0
vt 0.156869 0.958333 0
vt 2.52201 0.875 0
vt 0.87 3.34499 0
vt -3.41791 0.875 0
vt -4.14534 0.614583 0
vt 3.34499 0.614583 0
vt 0.633632 0 0
vt 0.199315 0 0
vt -0.156869 1.23958 0
vt -5.02145 0.958333 0
vt 0.058333 1.23958 0
vt 0.87 5.02145 0
vt 5.02145 0.614583 0
vt 0.87 4.20895 0
vt 0 4.20895 0
vt 4.93794 0 0
vt -0.333778 0 0
vt 5.02145 1.23958 0
vt 0.156869 1.23958 0
vt 2.58451 0.875 0
vt -3.34499 0.875 0
vt 0.87 3.41791 0
vt 0 4.14534 0
vt 0 3.41791 0
vt 3.41791 0.614583 0
vt 0 1.23958 0
vt 4.20895 0.614583 0
vt -4.20895 0.876775 0
vt 0 0.876775 0
vt -0.058333 1.23958 0
vt 3.34499 0.875 0
vt 0.87 4.14534 0
vt 4.14534 0.614583 0
vt -4.14534 0.876775 0
vt -0.87 0.876775 0
vt 3.41791 0.875 0
vt 0.87 0.876775 0
vt 4.14534 0.876775 0
vt 4.20895 0.876775 0
vt 0.367366 0.320297 0
vt 0.367366 0.297134 0
vt 0.375514 0.320297 0
vt 0.375514 0.297134 0
vt 0.685306 0.291309 0
vt 0.310166 0.297134 0
vt 0.429623 0.297134 0
vt 0.302129 0.291309 0
vt 0.439748 0.297134 0
vt 0.310166 0.335578 0
vt 0.676844 0.291309 0
vt 0.310166 0.316356 0
vt 0.439748 0.326258 0
vt 0.49069 0.297134 0
vt 0.429623 0.326258 0
vt 0.302129 0.335578 0
vt 0.317031 0.291309 0
vt 0.495363 0.297134 0
vt 0.685306 0.335578 0
vt 0.671321 0.291309 0
vt 0.495363 0.326258 0
vt 0.552221 0.297134 0
vt 0.327084 0.291309 0
vt 0.677564 0.297134 0
vt 0.663604 0.291309 0
vt 0.663604 0.228401 0
vt 0.671321 0.228401 0
vt 0.49069 0.326258 0
vt 0.557673 0.297134 0
vt 0.317031 0.228401 0
vt 0.327084 0.228401 0
vt 0.677564 0.335578 0
vt 0.616817 0.297134 0
vt 0.677564 0.316356 0
vt 0.676844 0.228401 0
vt 0.671321 0.278494 0
vt 0.327084 0.278494 0
vt 0.557673 0.326258 0
vt 0.612061 0.297134 0
vt 0.330199 0.291309 0
vt 0.330199 0.228401 0
vt 0.552221 0.326258 0
vt 0.616817 0.326457 0
vt 0.612061 0.326457 0

# 6 vertex normals
vn 0 0 0.0254
vn 0.0254 0 0
vn 0 0.0254 0
vn -0.0254 0 0
vn 0 0 -0.0254
vn 0 -0.0254 0

# Mesh 'mesh1_mesh1-geometry' with 172 faces
g mesh1_mesh1-geometry
usemtl material_0_1_8
f  1/1/1 2/2/1 3/3/1
f  4/4/1 2/2/1 1/1/1
f  2/5/2 5/6/2 3/7/2
f  5/8/3 1/9/3 3/10/3
f  6/11/1 2/2/1 4/4/1
f  1/7/4 7/12/4 4/5/4
f  5/6/2 2/5/2 8/13/2
f  1/9/3 5/8/3 9/14/3
f  6/11/1 10/15/1 2/2/1
f  6/11/1 4/4/1 11/16/1
f  7/12/4 1/7/4 9/17/4
f  7/14/3 11/18/3 4/9/3
f  2/10/3 12/19/3 8/8/3
f  8/20/5 7/21/5 5/22/5
f  9/23/5 5/22/5 7/21/5
f  13/24/1 10/15/1 6/11/1
f  12/19/3 2/10/3 10/25/3
f  6/11/1 11/16/1 14/26/1
f  11/18/3 7/14/3 15/27/3
f  12/28/5 16/29/5 8/20/5
f  8/20/5 16/29/5 7/21/5
f  13/24/1 17/30/1 10/15/1
f  6/31/6 18/32/6 13/33/6
f  19/34/4 12/12/4 10/5/4
f  14/26/1 11/16/1 20/35/1
f  6/11/1 14/26/1 21/36/1
f  7/21/5 16/29/5 15/37/5
f  22/38/2 11/5/2 15/13/2
f  12/28/5 23/24/5 16/29/5
f  17/30/1 13/24/1 24/39/1
f  10/15/1 17/30/1 19/40/1
f  18/32/6 6/31/6 16/41/6
f  25/42/6 13/33/6 18/32/6
f  12/12/4 19/34/4 26/43/4
f  20/35/1 11/16/1 27/44/1
f  20/45/4 28/12/4 14/5/4
f  28/46/3 21/47/3 14/48/3
f  6/11/1 21/36/1 29/49/1
f  15/37/5 16/29/5 28/50/5
f  11/5/2 22/38/2 27/45/2
f  15/37/5 28/50/5 22/51/5
f  23/24/5 12/28/5 30/39/5
f  23/52/6 31/53/6 16/41/6
f  13/24/2 30/54/2 24/39/2
f  30/55/3 17/25/3 24/33/3
f  32/56/1 19/40/1 17/30/1
f  17/39/4 26/43/4 19/34/4
f  33/39/4 16/57/4 6/24/4
f  18/32/6 16/41/6 34/58/6
f  13/33/6 25/42/6 23/52/6
f  25/42/6 18/32/6 35/59/6
f  19/25/6 36/60/6 26/61/6
f  12/12/4 26/43/4 37/62/4
f  22/27/3 20/48/3 27/18/3
f  28/12/4 20/45/4 38/63/4
f  21/47/3 28/46/3 39/64/3
f  29/49/1 21/36/1 40/65/1
f  6/11/1 29/49/1 41/66/1
f  28/50/5 16/29/5 39/67/5
f  38/68/5 22/51/5 28/50/5
f  37/69/5 30/39/5 12/28/5
f  30/54/2 13/24/2 23/70/2
f  23/52/6 25/42/6 31/53/6
f  42/71/6 16/41/6 31/53/6
f  17/25/3 30/55/3 43/72/3
f  19/40/1 32/56/1 44/73/1
f  43/72/3 32/74/3 17/25/3
f  26/43/4 17/39/4 43/75/4
f  16/57/4 33/39/4 45/62/4
f  6/11/1 46/76/1 33/77/1
f  34/58/6 16/41/6 47/78/6
f  48/79/4 18/80/4 34/81/4
f  18/82/1 49/83/1 35/84/1
f  25/42/6 35/59/6 50/85/6
f  36/60/6 19/25/6 44/86/6
f  36/87/5 43/69/5 26/88/5
f  37/62/4 26/43/4 43/75/4
f  20/48/3 22/27/3 38/46/3
f  51/38/2 21/5/2 39/13/2
f  40/65/1 21/36/1 52/89/1
f  40/45/4 53/12/4 29/5/4
f  53/90/3 41/91/3 29/92/3
f  6/11/1 41/66/1 54/93/1
f  39/67/5 16/29/5 53/94/5
f  43/72/3 30/55/3 37/19/3
f  55/95/2 31/96/2 25/97/2
f  47/78/6 16/41/6 42/71/6
f  31/98/5 56/99/5 42/100/5
f  44/73/1 32/56/1 57/101/1
f  32/74/3 43/72/3 58/102/3
f  33/31/3 59/103/3 45/104/3
f  60/105/5 16/29/5 45/106/5
f  6/11/1 61/107/1 46/76/1
f  44/73/1 33/77/1 46/76/1
f  47/108/5 48/109/5 34/110/5
f  18/80/4 48/79/4 62/111/4
f  49/83/1 18/82/1 62/112/1
f  49/95/2 47/96/2 35/97/2
f  47/78/6 50/85/6 35/59/6
f  50/113/1 55/114/1 25/115/1
f  44/34/2 46/5/2 36/116/2
f  59/117/2 44/34/2 36/116/2
f  43/69/5 36/87/5 58/118/5
f  21/5/2 51/38/2 52/45/2
f  39/67/5 53/94/5 51/119/5
f  51/64/3 40/92/3 52/47/3
f  53/12/4 40/45/4 63/63/4
f  41/91/3 53/90/3 64/120/3
f  54/93/1 41/66/1 65/121/1
f  6/11/1 54/93/1 66/122/1
f  53/94/5 16/29/5 64/123/5
f  31/96/2 55/95/2 67/124/2
f  50/85/6 47/78/6 42/71/6
f  56/99/5 31/98/5 67/125/5
f  56/79/4 50/80/4 42/81/4
f  57/101/1 32/56/1 68/126/1
f  44/73/1 57/101/1 69/127/1
f  70/128/2 32/39/2 58/117/2
f  59/103/3 33/31/3 69/86/3
f  45/104/3 59/103/3 60/129/3
f  71/130/5 16/29/5 60/105/5
f  6/11/1 66/122/1 61/107/1
f  72/131/3 46/86/3 61/132/3
f  33/77/1 44/73/1 69/127/1
f  48/109/5 47/108/5 73/133/5
f  48/58/6 49/59/6 62/32/6
f  47/96/2 49/95/2 73/124/2
f  55/114/1 50/113/1 74/134/1
f  46/5/2 60/54/2 36/116/2
f  44/34/2 59/117/2 69/39/2
f  36/116/2 60/54/2 59/117/2
f  75/135/5 36/87/5 59/105/5
f  58/118/5 36/87/5 70/136/5
f  63/137/5 51/119/5 53/94/5
f  40/92/3 51/64/3 63/90/3
f  76/38/2 41/5/2 64/13/2
f  65/121/1 41/66/1 77/138/1
f  65/45/4 78/12/4 54/5/4
f  78/139/3 66/140/3 54/141/3
f  64/123/5 16/29/5 78/142/5
f  55/42/6 56/71/6 67/53/6
f  50/80/4 56/79/4 74/111/4
f  32/39/2 70/128/2 68/143/2
f  70/102/3 57/86/3 68/74/3
f  57/143/4 59/75/4 69/39/4
f  72/144/5 16/29/5 71/130/5
f  60/54/2 46/5/2 71/13/2
f  61/107/1 66/122/1 79/145/1
f  46/86/3 72/131/3 71/129/3
f  79/146/4 72/12/4 61/5/4
f  49/59/6 48/58/6 73/78/6
f  56/71/6 55/42/6 74/85/6
f  70/136/5 36/87/5 75/135/5
f  59/75/4 57/143/4 75/147/4
f  41/5/2 76/38/2 77/45/2
f  64/123/5 78/142/5 76/148/5
f  76/120/3 65/141/3 77/91/3
f  78/12/4 65/45/4 80/63/4
f  66/140/3 78/139/3 81/149/3
f  78/142/5 16/29/5 81/150/5
f  57/86/3 70/102/3 75/103/3
f  81/150/5 16/29/5 72/144/5
f  79/145/1 66/122/1 82/151/1
f  72/12/4 79/146/4 83/152/4
f  80/153/5 76/148/5 78/142/5
f  65/141/3 76/120/3 80/139/3
f  84/154/2 66/5/2 81/13/2
f  81/150/5 72/144/5 84/155/5
f  66/5/2 84/154/2 82/146/2
f  84/149/3 79/132/3 82/140/3
f  79/132/3 84/149/3 83/131/3
f  83/156/5 84/155/5 72/144/5

# Mesh 'mesh1_mesh1-geometry' with 148 faces
g mesh1_mesh1-geometry
usemtl material_1_2_8
f  3/157/5 2/158/5 1/159/5
f  1/159/5 2/158/5 4/160/5
f  3/157/4 5/157/4 2/158/4
f  3/157/6 1/159/6 5/157/6
f  4/160/5 2/158/5 6/161/5
f  4/160/2 7/160/2 1/159/2
f  8/158/4 2/158/4 5/157/4
f  9/159/6 5/157/6 1/159/6
f  2/158/5 10/162/5 6/161/5
f  11/163/5 4/160/5 6/161/5
f  9/159/2 1/159/2 7/160/2
f  4/160/6 11/163/6 7/160/6
f  8/158/6 12/162/6 2/158/6
f  5/157/1 7/160/1 8/158/1
f  7/160/1 5/157/1 9/159/1
f  6/161/5 10/162/5 13/164/5
f  10/162/6 2/158/6 12/162/6
f  14/165/5 11/163/5 6/161/5
f  15/163/6 7/160/6 11/163/6
f  8/158/1 16/161/1 12/162/1
f  7/160/1 16/161/1 8/158/1
f  10/162/5 17/166/5 13/164/5
f  13/164/3 18/167/3 6/161/3
f  10/162/2 12/162/2 19/168/2
f  20/169/5 11/163/5 14/165/5
f  21/170/5 14/165/5 6/161/5
f  15/163/1 16/161/1 7/160/1
f  15/163/4 11/163/4 22/171/4
f  16/161/1 23/164/1 12/162/1
f  24/172/5 13/164/5 17/166/5
f  19/168/5 17/166/5 10/162/5
f  16/161/3 6/161/3 18/167/3
f  18/167/3 13/164/3 25/173/3
f  26/168/2 19/168/2 12/162/2
f  27/171/5 11/163/5 20/169/5
f  14/165/2 28/165/2 20/169/2
f  14/165/6 21/170/6 28/165/6
f  29/174/5 21/170/5 6/161/5
f  28/165/1 16/161/1 15/163/1
f  27/171/4 22/171/4 11/163/4
f  22/171/1 28/165/1 15/163/1
f  30/172/1 12/162/1 23/164/1
f  16/161/3 31/173/3 23/164/3
f  24/172/4 30/172/4 13/164/4
f  24/172/6 17/166/6 30/172/6
f  6/161/2 16/161/2 33/175/2
f  34/167/3 16/161/3 18/167/3
f  23/164/3 25/173/3 13/164/3
f  35/176/3 18/167/3 25/173/3
f  37/166/2 26/168/2 12/162/2
f  27/171/6 20/169/6 22/171/6
f  38/169/2 20/169/2 28/165/2
f  39/170/6 28/165/6 21/170/6
f  40/177/5 21/170/5 29/174/5
f  41/178/5 29/174/5 6/161/5
f  39/170/1 16/161/1 28/165/1
f  28/165/1 22/171/1 38/169/1
f  12/162/1 30/172/1 37/166/1
f  23/164/4 13/164/4 30/172/4
f  31/173/3 25/173/3 23/164/3
f  31/173/3 16/161/3 42/179/3
f  43/166/6 30/172/6 17/166/6
f  45/175/2 33/175/2 16/161/2
f  33/175/5 46/180/5 6/161/5
f  47/176/3 16/161/3 34/167/3
f  34/181/2 18/181/2 48/182/2
f  35/176/5 49/183/5 18/167/5
f  50/179/3 35/176/3 25/173/3
f  43/166/2 26/168/2 37/166/2
f  38/169/6 22/171/6 20/169/6
f  39/170/4 21/170/4 51/184/4
f  52/184/5 21/170/5 40/177/5
f  29/174/2 53/174/2 40/177/2
f  29/174/6 41/178/6 53/174/6
f  54/185/5 41/178/5 6/161/5
f  53/174/1 16/161/1 39/170/1
f  37/166/6 30/172/6 43/166/6
f  25/173/4 31/173/4 55/186/4
f  42/179/3 16/161/3 47/176/3
f  42/179/1 56/187/1 31/173/1
f  45/175/6 59/188/6 33/175/6
f  45/175/1 16/161/1 60/188/1
f  46/180/5 61/189/5 6/161/5
f  46/180/5 33/175/5 44/190/5
f  34/167/1 48/191/1 47/176/1
f  62/182/2 48/182/2 18/181/2
f  62/191/5 18/167/5 49/183/5
f  35/176/4 47/176/4 49/183/4
f  35/192/3 50/193/3 47/192/3
f  25/173/5 55/186/5 50/179/5
f  36/190/4 46/180/4 44/190/4
f  52/184/4 51/184/4 21/170/4
f  51/184/1 53/174/1 39/170/1
f  52/184/6 40/177/6 51/184/6
f  63/177/2 40/177/2 53/174/2
f  64/178/6 53/174/6 41/178/6
f  65/194/5 41/178/5 54/185/5
f  66/195/5 54/185/5 6/161/5
f  64/178/1 16/161/1 53/174/1
f  67/186/4 55/186/4 31/173/4
f  42/193/3 47/192/3 50/193/3
f  67/186/1 31/173/1 56/187/1
f  42/196/2 50/196/2 56/197/2
f  69/188/6 33/175/6 59/188/6
f  60/188/6 59/188/6 45/175/6
f  60/188/1 16/161/1 71/180/1
f  61/189/5 66/195/5 6/161/5
f  61/189/6 46/180/6 72/189/6
f  69/188/5 44/190/5 33/175/5
f  73/183/1 47/176/1 48/191/1
f  62/167/3 49/176/3 48/167/3
f  73/183/4 49/183/4 47/176/4
f  74/187/5 50/179/5 55/186/5
f  36/190/4 60/188/4 46/180/4
f  59/188/4 60/188/4 36/190/4
f  53/174/1 51/184/1 63/177/1
f  63/177/6 51/184/6 40/177/6
f  64/178/4 41/178/4 76/198/4
f  77/198/5 41/178/5 65/194/5
f  54/185/2 78/185/2 65/194/2
f  54/185/6 66/195/6 78/185/6
f  78/185/1 16/161/1 64/178/1
f  67/173/3 56/179/3 55/173/3
f  74/197/2 56/197/2 50/196/2
f  71/180/1 16/161/1 72/189/1
f  71/180/4 46/180/4 60/188/4
f  79/199/5 66/195/5 61/189/5
f  71/180/6 72/189/6 46/180/6
f  61/189/2 72/189/2 79/199/2
f  73/176/3 48/167/3 49/176/3
f  74/179/3 55/173/3 56/179/3
f  77/198/4 76/198/4 41/178/4
f  76/198/1 78/185/1 64/178/1
f  77/198/6 65/194/6 76/198/6
f  80/194/2 65/194/2 78/185/2
f  81/195/6 78/185/6 66/195/6
f  81/195/1 16/161/1 78/185/1
f  72/189/1 16/161/1 81/195/1
f  82/200/5 66/195/5 79/199/5
f  83/199/2 79/199/2 72/189/2
f  78/185/1 76/198/1 80/194/1
f  80/194/6 76/198/6 65/194/6
f  81/195/4 66/195/4 84/200/4
f  84/200/1 72/189/1 81/195/1
f  82/200/4 84/200/4 66/195/4
f  82/200/6 79/199/6 84/200/6
f  83/199/6 84/200/6 79/199/6
f  72/189/1 84/200/1 83/199/1

# Mesh 'mesh1_mesh1-geometry' with 24 faces
g mesh1_mesh1-geometry
usemtl material_2_24
f  17//5 19//5 32//5
f  19//2 26//2 17//2
f  26//3 36//3 19//3
f  44//5 32//5 19//5
f  17//6 32//6 43//6
f  43//2 17//2 26//2
f  44//3 19//3 36//3
f  26//1 43//1 36//1
f  57//5 32//5 44//5
f  58//6 43//6 32//6
f  36//4 44//4 59//4
f  58//1 36//1 43//1
f  68//5 32//5 57//5
f  69//5 57//5 44//5
f  58//4 32//4 70//4
f  69//4 59//4 44//4
f  59//1 36//1 75//1
f  70//1 36//1 58//1
f  68//4 70//4 32//4
f  68//6 57//6 70//6
f  69//2 59//2 57//2
f  75//1 36//1 70//1
f  75//2 57//2 59//2
f  75//6 70//6 57//6

