# File produced by Open Asset Import Library (http://www.assimp.sf.net)
# (assimp v3.2.202087883)

mtllib model_normalized.mtl

# 36 vertex positions
v -0.535319 0.060412 -0.090618
v -0.505113 0.045309 -0.090618
v -0.535319 0.045309 -0.090618
v 0.401070 0.045309 -0.090618
v -0.535319 0.045309 0.090618
v 0.431276 0.045309 -0.090618
v 0.401070 0.030206 -0.090618
v -0.505113 0.045309 0.090618
v -0.535319 0.060412 0.090618
v 0.431276 0.060412 -0.090618
v 0.401070 0.045309 0.090618
v -0.505113 0.030206 -0.090618
v -0.505113 0.030206 0.090618
v 0.431276 0.060412 0.090618
v 0.431276 0.045309 0.090618
v 0.401070 0.030206 0.090618
v 0.431276 0.045309 0.090618
v 0.401070 -0.120824 0.090618
v 0.431276 -0.120824 0.090618
v 0.401070 0.045309 0.090618
v 0.431276 -0.120824 -0.090618
v 0.401070 0.045309 -0.090618
v 0.401070 -0.120824 -0.090618
v 0.431276 0.045309 -0.090618
v -0.535319 -0.120824 0.090618
v -0.505113 -0.120824 0.090618
v -0.505113 -0.120824 -0.090618
v -0.535319 -0.120824 -0.090618
v 0.401070 0.030206 0.010069
v -0.505113 0.030206 -0.010069
v -0.505113 0.030206 0.010069
v 0.401070 0.030206 -0.010069
v -0.505113 -0.015103 0.010069
v 0.401070 -0.015103 -0.010069
v -0.505113 -0.015103 -0.010069
v 0.401070 -0.015103 0.010069

# 46 UV coordinates
vt 0 0.041667 0
vt -0.041667 0.020833 0
vt 0 0.020833 0
vt -1.29167 0.020833 0
vt -0.041667 0.25 0
vt 0 0 0
vt 0 0.25 0
vt -0.25 0.041667 0
vt -0.25 0.020833 0
vt -1.33333 0.020833 0
vt -1.29167 0 0
vt -0.041667 0 0
vt -1.33333 0.041667 0
vt -1.33333 0.25 0
vt -1.29167 0.25 0
vt 0.25 0 0
vt 0.25 0.020833 0
vt 0.041667 0.020833 0
vt 1.33333 0.041667 0
vt 1.33333 0 0
vt 1.33333 0.25 0
vt 0.25 0.041667 0
vt -1.33333 0 0
vt -0.25 0 0
vt 0.041667 0 0
vt 1.29167 0.020833 0
vt 1.33333 0.020833 0
vt 1.29167 0 0
vt 0.041667 0.229167 0
vt 0 0.229167 0
vt -0.25 0.229167 0
vt 0.25 0.229167 0
vt 0.041667 0.25 0
vt -0.041667 0.229167 0
vt 1.25 0 0
vt 0 0.027778 0
vt 1.25 0.027778 0
vt -0.027778 0.0625 0
vt 0 0.0625 0
vt 1.25 0.0625 0
vt 0.027778 0 0
vt 0.027778 0.0625 0
vt -1.25 0 0
vt -1.25 0.0625 0
vt -0.027778 0 0
vt -1.25 0.027778 0

# 6 vertex normals
vn 0 0 -0.0254
vn -0 -0 0.0254
vn 0 -0.0254 0
vn 0 0.0254 0
vn -0.0254 0 0
vn 0.0254 0 0

# Mesh 'mesh1_mesh1-geometry' with 56 faces
g mesh1_mesh1-geometry
usemtl material_0_1_8
f  1/1/1 2/2/1 3/3/1
f  2/2/1 1/1/1 4/4/1
f  3/3/2 2/2/2 1/1/2
f  4/4/2 1/1/2 2/2/2
f  2/5/3 5/6/3 3/7/3
f  3/7/4 5/6/4 2/5/4
f  5/3/5 1/8/5 3/9/5
f  3/9/6 1/8/6 5/3/6
f  4/4/1 1/1/1 6/10/1
f  6/10/2 1/1/2 4/4/2
f  7/11/1 2/2/1 4/4/1
f  4/4/2 2/2/2 7/11/2
f  5/6/3 2/5/3 8/12/3
f  8/12/4 2/5/4 5/6/4
f  1/8/5 5/3/5 9/1/5
f  9/1/6 5/3/6 1/8/6
f  6/10/1 1/1/1 10/13/1
f  10/13/2 1/1/2 6/10/2
f  6/14/3 11/11/3 4/15/3
f  4/15/4 11/11/4 6/14/4
f  2/2/1 7/11/1 12/12/1
f  12/12/2 7/11/2 2/2/2
f  11/3/6 7/16/6 4/17/6
f  4/17/5 7/16/5 11/3/5
f  2/9/5 13/6/5 8/3/5
f  8/3/6 13/6/6 2/9/6
f  8/18/2 14/19/2 5/3/2
f  5/3/1 14/19/1 8/18/1
f  5/3/2 14/19/2 9/1/2
f  9/1/1 14/19/1 5/3/1
f  14/20/4 1/7/4 9/6/4
f  9/6/3 1/7/3 14/20/3
f  1/7/4 14/20/4 10/21/4
f  10/21/3 14/20/3 1/7/3
f  14/1/6 6/17/6 10/22/6
f  10/22/5 6/17/5 14/1/5
f  11/11/3 6/14/3 15/23/3
f  15/23/4 6/14/4 11/11/4
f  7/15/3 13/12/3 12/5/3
f  12/5/4 13/12/4 7/15/4
f  13/6/5 2/9/5 12/24/5
f  12/24/6 2/9/6 13/6/6
f  7/16/6 11/3/6 16/6/6
f  16/6/5 11/3/5 7/16/5
f  13/25/2 11/26/2 8/18/2
f  8/18/1 11/26/1 13/25/1
f  11/26/2 14/19/2 8/18/2
f  8/18/1 14/19/1 11/26/1
f  6/17/6 14/1/6 15/3/6
f  15/3/5 14/1/5 6/17/5
f  14/19/2 11/26/2 15/27/2
f  15/27/1 11/26/1 14/19/1
f  13/12/3 7/15/3 16/11/3
f  16/11/4 7/15/4 13/12/4
f  11/26/2 13/25/2 16/28/2
f  16/28/1 13/25/1 11/26/1

# Mesh 'mesh2_mesh2-geometry' with 24 faces
g mesh2_mesh2-geometry
usemtl material_1_0
l  7 12
l  7 4
l  7 16
l  12 2
l  12 13
l  6 4
l  11 4
l  13 16
l  16 11
l  3 2
l  8 2
l  13 8
l  6 10
l  15 6
l  15 11
l  3 1
l  5 3
l  5 8
l  10 1
l  14 10
l  15 14
l  1 9
l  5 9
l  9 14

# Mesh 'mesh3_mesh3-geometry' with 24 faces
g mesh3_mesh3-geometry
usemtl material_0_1_8
f  17/29/2 18/6/2 19/25/2
f  18/6/2 17/29/2 20/30/2
f  19/25/1 18/6/1 17/29/1
f  20/30/1 17/29/1 18/6/1
f  18/6/3 21/5/3 19/12/3
f  19/12/4 21/5/4 18/6/4
f  21/16/6 17/30/6 19/6/6
f  19/6/5 17/30/5 21/16/5
f  17/25/4 22/7/4 20/6/4
f  20/6/3 22/7/3 17/25/3
f  22/31/5 18/6/5 20/30/5
f  20/30/6 18/6/6 22/31/6
f  21/5/3 18/6/3 23/7/3
f  23/7/4 18/6/4 21/5/4
f  17/30/6 21/16/6 24/32/6
f  24/32/5 21/16/5 17/30/5
f  22/7/4 17/25/4 24/33/4
f  24/33/3 17/25/3 22/7/3
f  18/6/5 22/31/5 23/24/5
f  23/24/6 22/31/6 18/6/6
f  22/30/1 21/12/1 23/6/1
f  23/6/2 21/12/2 22/30/2
f  21/12/1 22/30/1 24/34/1
f  24/34/2 22/30/2 21/12/2

# Mesh 'mesh4_mesh4-geometry' with 12 faces
g mesh4_mesh4-geometry
usemtl material_1_0
l  20 18
l  17 20
l  20 22
l  18 23
l  19 18
l  17 19
l  24 17
l  22 23
l  22 24
l  23 21
l  21 19
l  24 21

# Mesh 'mesh3_mesh3-geometry' with 24 faces
g mesh3_mesh3-geometry
usemtl material_0_1_8
f  8/29/2 25/6/2 26/25/2
f  25/6/2 8/29/2 5/30/2
f  26/25/1 25/6/1 8/29/1
f  5/30/1 8/29/1 25/6/1
f  25/6/3 27/5/3 26/12/3
f  26/12/4 27/5/4 25/6/4
f  27/16/6 8/30/6 26/6/6
f  26/6/5 8/30/5 27/16/5
f  8/25/4 3/7/4 5/6/4
f  5/6/3 3/7/3 8/25/3
f  3/31/5 25/6/5 5/30/5
f  5/30/6 25/6/6 3/31/6
f  27/5/3 25/6/3 28/7/3
f  28/7/4 25/6/4 27/5/4
f  8/30/6 27/16/6 2/32/6
f  2/32/5 27/16/5 8/30/5
f  3/7/4 8/25/4 2/33/4
f  2/33/3 8/25/3 3/7/3
f  25/6/5 3/31/5 28/24/5
f  28/24/6 3/31/6 25/6/6
f  3/30/1 27/12/1 28/6/1
f  28/6/2 27/12/2 3/30/2
f  27/12/1 3/30/1 2/34/1
f  2/34/2 3/30/2 27/12/2

# Mesh 'mesh4_mesh4-geometry' with 12 faces
g mesh4_mesh4-geometry
usemtl material_1_0
l  5 25
l  8 5
l  5 3
l  25 28
l  26 25
l  8 26
l  2 8
l  3 28
l  3 2
l  28 27
l  27 26
l  2 27

# Mesh 'mesh5_mesh5-geometry' with 24 faces
g mesh5_mesh5-geometry
usemtl material_0_1_8
f  29/35/4 30/36/4 31/6/4
f  30/36/4 29/35/4 32/37/4
f  31/6/3 30/36/3 29/35/3
f  32/37/3 29/35/3 30/36/3
f  30/38/5 33/6/5 31/39/5
f  31/39/6 33/6/6 30/38/6
f  33/6/2 29/40/2 31/39/2
f  31/39/1 29/40/1 33/6/1
f  29/39/6 34/41/6 32/42/6
f  32/42/5 34/41/5 29/39/5
f  34/43/1 30/39/1 32/44/1
f  32/44/2 30/39/2 34/43/2
f  33/6/5 30/38/5 35/45/5
f  35/45/6 30/38/6 33/6/6
f  29/40/2 33/6/2 36/35/2
f  36/35/1 33/6/1 29/40/1
f  34/41/6 29/39/6 36/6/6
f  36/6/5 29/39/5 34/41/5
f  30/39/1 34/43/1 35/6/1
f  35/6/2 34/43/2 30/39/2
f  34/46/3 33/6/3 35/36/3
f  35/36/4 33/6/4 34/46/4
f  33/6/3 34/46/3 36/43/3
f  36/43/4 34/46/4 33/6/4

# Mesh 'mesh6_mesh6-geometry' with 12 faces
g mesh6_mesh6-geometry
usemtl material_1_0
l  31 30
l  33 31
l  31 29
l  30 35
l  30 32
l  35 33
l  33 36
l  29 32
l  36 29
l  35 34
l  32 34
l  34 36

