# File produced by Open Asset Import Library (http://www.assimp.sf.net)
# (assimp v3.2.202087883)

mtllib model_normalized.mtl

# 145 vertex positions
v 0.407979 -0.197710 0.296620
v -0.414496 -0.242617 0.296620
v 0.407979 -0.242617 0.296620
v -0.414496 -0.197365 0.296620
v 0.407979 0.233070 0.296620
v -0.414496 0.233070 0.296620
v 0.407979 -0.197710 -0.011081
v 0.407979 0.233070 -0.011081
v -0.414496 0.233070 -0.011081
v 0.369383 -0.154994 -0.011081
v -0.414496 -0.197365 -0.011081
v 0.369383 -0.097611 -0.011081
v -0.042799 0.191150 -0.011081
v -0.380194 -0.159983 -0.011081
v 0.386057 -0.197710 -0.011081
v -0.042558 -0.159983 -0.011081
v 0.371403 -0.073450 -0.011081
v 0.374432 0.189131 -0.011081
v -0.378774 0.191150 -0.011081
v -0.380194 -0.097611 -0.011081
v -0.391509 -0.197710 -0.011081
v 0.393787 -0.242617 -0.011081
v 0.066672 -0.154994 -0.011081
v -0.042558 -0.097611 -0.011081
v 0.371403 -0.006438 -0.011081
v 0.374432 0.111790 -0.011081
v 0.071722 0.189131 -0.011081
v -0.378774 0.110483 -0.011081
v -0.378711 -0.075411 -0.011081
v -0.414496 -0.197710 -0.011081
v 0.386057 -0.242617 -0.011081
v 0.066672 -0.097611 -0.011081
v -0.043569 -0.075411 -0.011081
v 0.371403 0.015814 -0.011081
v 0.371403 0.088165 -0.011081
v 0.071722 0.111790 -0.011081
v -0.377878 0.092204 -0.011081
v -0.378711 -0.004723 -0.011081
v -0.391509 -0.242617 -0.011081
v 0.069422 -0.073450 -0.011081
v -0.043569 -0.004723 -0.011081
v -0.043569 0.092204 -0.011081
v -0.042799 0.110483 -0.011081
v -0.377878 0.014863 -0.011081
v -0.403002 -0.242617 -0.011081
v 0.069422 -0.006438 -0.011081
v -0.043569 0.014863 -0.011081
v 0.071187 0.088165 -0.011081
v 0.071187 0.015814 -0.011081
v 0.369383 -0.154994 -0.012744
v 0.349633 -0.120287 -0.012744
v 0.369383 -0.097611 -0.012744
v 0.079354 -0.120287 -0.012744
v 0.349633 -0.115297 -0.012744
v 0.066672 -0.097611 -0.012744
v 0.066672 -0.154994 -0.012744
v -0.042799 0.191150 -0.012744
v -0.057791 0.162814 -0.012744
v -0.378774 0.191150 -0.012744
v -0.372624 -0.115490 -0.012744
v -0.380194 -0.159983 -0.012744
v -0.380194 -0.097611 -0.012744
v -0.042558 -0.159983 -0.012744
v 0.079354 -0.115297 -0.012744
v 0.371403 -0.073450 -0.012744
v 0.352579 -0.030439 -0.012744
v 0.371403 -0.006438 -0.012744
v 0.374432 0.111790 -0.012744
v 0.358021 0.154557 -0.012744
v 0.374432 0.189131 -0.012744
v 0.358021 0.159547 -0.012744
v 0.071722 0.189131 -0.012744
v -0.365908 0.157126 -0.012744
v -0.378774 0.110483 -0.012744
v -0.042799 0.110483 -0.012744
v -0.057791 0.157126 -0.012744
v -0.365908 0.162814 -0.012744
v -0.372624 -0.109802 -0.012744
v -0.042558 -0.097611 -0.012744
v -0.064507 -0.109802 -0.012744
v -0.064507 -0.115490 -0.012744
v 0.082304 -0.030439 -0.012744
v 0.352579 -0.025449 -0.012744
v 0.069422 -0.006438 -0.012744
v 0.069422 -0.073450 -0.012744
v 0.087741 0.154557 -0.012744
v 0.071722 0.111790 -0.012744
v 0.087741 0.159547 -0.012744
v -0.364949 -0.026303 -0.012744
v -0.378711 -0.075411 -0.012744
v -0.378711 -0.004723 -0.012744
v -0.043569 -0.075411 -0.012744
v 0.082304 -0.025449 -0.012744
v 0.371403 0.015814 -0.012744
v 0.354052 0.059408 -0.012744
v 0.371403 0.088165 -0.012744
v -0.366867 0.066720 -0.012744
v -0.377878 0.014863 -0.012744
v -0.377878 0.092204 -0.012744
v -0.043569 0.092204 -0.012744
v -0.058755 0.072408 -0.012744
v -0.364949 -0.020615 -0.012744
v -0.043569 -0.004723 -0.012744
v -0.056833 -0.020615 -0.012744
v -0.056833 -0.026303 -0.012744
v 0.083776 0.059408 -0.012744
v 0.354052 0.064398 -0.012744
v 0.071187 0.088165 -0.012744
v 0.071187 0.015814 -0.012744
v -0.043569 0.014863 -0.012744
v -0.366867 0.072408 -0.012744
v -0.058755 0.066720 -0.012744
v 0.083776 0.064398 -0.012744
v 0.349633 -0.120287 -0.015239
v 0.079354 -0.120287 -0.015239
v 0.349633 -0.115297 -0.015239
v 0.079354 -0.115297 -0.015239
v -0.057791 0.157126 -0.015239
v -0.365908 0.162814 -0.015239
v -0.372624 -0.109802 -0.015239
v -0.064507 -0.115490 -0.015239
v 0.352579 -0.030439 -0.015239
v 0.358021 0.154557 -0.015239
v 0.087741 0.159547 -0.015239
v -0.057791 0.162814 -0.015239
v -0.372624 -0.115490 -0.015239
v 0.082304 -0.030439 -0.015239
v 0.352579 -0.025449 -0.015239
v 0.082304 -0.025449 -0.015239
v 0.087741 0.154557 -0.015239
v 0.358021 0.159547 -0.015239
v -0.365908 0.157126 -0.015239
v -0.364949 -0.020615 -0.015239
v -0.064507 -0.109802 -0.015239
v -0.056833 -0.026303 -0.015239
v 0.354052 0.059408 -0.015239
v -0.366867 0.072408 -0.015239
v -0.058755 0.066720 -0.015239
v -0.364949 -0.026303 -0.015239
v 0.083776 0.059408 -0.015239
v 0.354052 0.064398 -0.015239
v 0.083776 0.064398 -0.015239
v -0.366867 0.066720 -0.015239
v -0.058755 0.072408 -0.015239
v -0.056833 -0.020615 -0.015239

# 0 UV coordinates

# 6 vertex normals
vn 0 0 0.0254
vn 0 -0 -0.0254
vn -0.0254 0 0
vn 0 -0.0254 -0
vn 0.0254 -0 -0
vn 0 0.0254 0

# Mesh 'mesh1_mesh1-geometry' with 4 faces
g mesh1_mesh1-geometry
usemtl material_0_24
f  1//1 2//1 3//1
f  2//1 1//1 4//1
f  4//1 1//1 5//1
f  4//1 5//1 6//1

# Mesh 'mesh1_mesh1-geometry' with 67 faces
g mesh1_mesh1-geometry
usemtl material_1_24
f  3//2 2//2 1//2
f  4//2 1//2 2//2
f  5//2 1//2 4//2
f  1//3 5//3 7//3
f  6//2 5//2 4//2
f  8//3 7//3 5//3
f  6//4 9//4 5//4
f  6//5 4//5 9//5
f  8//1 10//1 7//1
f  8//4 5//4 9//4
f  11//5 9//5 4//5
f  10//1 11//1 7//1
f  12//1 10//1 8//1
f  9//1 13//1 8//1
f  11//1 14//1 9//1
f  7//1 11//1 15//1
f  16//1 11//1 10//1
f  17//1 12//1 8//1
f  13//1 18//1 8//1
f  13//1 9//1 19//1
f  20//1 9//1 14//1
f  14//1 11//1 16//1
f  15//1 11//1 21//1
f  7//1 15//1 22//1
f  23//1 16//1 10//1
f  24//1 12//1 17//1
f  25//1 17//1 8//1
f  18//1 26//1 8//1
f  18//1 13//1 27//1
f  19//1 9//1 28//1
f  29//1 9//1 20//1
f  11//1 30//1 21//1
f  31//1 22//1 15//1
f  16//1 23//1 24//1
f  12//1 24//1 32//1
f  33//1 24//1 17//1
f  34//1 25//1 8//1
f  26//1 35//1 8//1
f  27//1 13//1 36//1
f  28//1 9//1 37//1
f  38//1 9//1 29//1
f  24//1 29//1 20//1
f  21//1 30//1 39//1
f  32//1 24//1 23//1
f  29//1 24//1 33//1
f  40//1 33//1 17//1
f  41//1 25//1 34//1
f  35//1 34//1 8//1
f  42//1 35//1 26//1
f  43//1 36//1 13//1
f  37//1 9//1 44//1
f  42//1 28//1 37//1
f  44//1 9//1 38//1
f  45//1 39//1 30//1
f  33//1 40//1 41//1
f  25//1 41//1 46//1
f  47//1 41//1 34//1
f  35//1 42//1 48//1
f  43//1 42//1 26//1
f  36//1 43//1 26//1
f  28//1 42//1 43//1
f  41//1 44//1 38//1
f  46//1 41//1 40//1
f  44//1 41//1 47//1
f  49//1 47//1 34//1
f  48//1 42//1 49//1
f  47//1 49//1 42//1

# Mesh 'mesh1_mesh1-geometry' with 127 faces
g mesh1_mesh1-geometry
usemtl material_2_24
f  7//5 5//5 1//5
f  5//5 7//5 8//5
f  5//6 9//6 6//6
f  9//3 4//3 6//3
f  7//2 10//2 8//2
f  9//6 5//6 8//6
f  4//3 9//3 11//3
f  7//2 11//2 10//2
f  8//2 10//2 12//2
f  8//2 13//2 9//2
f  9//2 14//2 11//2
f  15//2 11//2 7//2
f  10//2 11//2 16//2
f  8//2 12//2 17//2
f  8//2 18//2 13//2
f  19//2 9//2 13//2
f  14//2 9//2 20//2
f  16//2 11//2 14//2
f  21//2 11//2 15//2
f  22//2 15//2 7//2
f  10//2 16//2 23//2
f  17//2 12//2 24//2
f  8//2 17//2 25//2
f  8//2 26//2 18//2
f  27//2 13//2 18//2
f  28//2 9//2 19//2
f  20//2 9//2 29//2
f  21//2 30//2 11//2
f  15//2 22//2 31//2
f  24//2 23//2 16//2
f  50//2 51//2 52//2
f  32//2 24//2 12//2
f  17//2 24//2 33//2
f  8//2 25//2 34//2
f  8//2 35//2 26//2
f  36//2 13//2 27//2
f  37//2 9//2 28//2
f  29//2 9//2 38//2
f  20//2 29//2 24//2
f  39//2 30//2 21//2
f  23//2 24//2 32//2
f  51//2 50//2 53//2
f  52//2 51//2 54//2
f  52//2 54//2 55//2
f  56//2 53//2 50//2
f  33//2 24//2 29//2
f  17//2 33//2 40//2
f  34//2 25//2 41//2
f  8//2 34//2 35//2
f  26//2 35//2 42//2
f  13//2 36//2 43//2
f  44//2 9//2 37//2
f  37//2 28//2 42//2
f  57//2 58//2 59//2
f  38//2 9//2 44//2
f  60//2 61//2 62//2
f  61//2 60//2 63//2
f  30//2 39//2 45//2
f  64//2 55//2 54//2
f  53//2 56//2 55//2
f  41//2 40//2 33//2
f  65//2 66//2 67//2
f  46//2 41//2 25//2
f  34//2 41//2 47//2
f  48//2 42//2 35//2
f  26//2 42//2 43//2
f  68//2 69//2 70//2
f  26//2 43//2 36//2
f  70//2 71//2 72//2
f  43//2 42//2 28//2
f  73//2 74//2 59//2
f  75//2 76//2 57//2
f  57//2 76//2 58//2
f  77//2 59//2 58//2
f  38//2 44//2 41//2
f  60//2 62//2 78//2
f  79//2 80//2 62//2
f  81//2 63//2 60//2
f  63//2 81//2 79//2
f  53//2 55//2 64//2
f  40//2 41//2 46//2
f  66//2 65//2 82//2
f  67//2 66//2 83//2
f  67//2 83//2 84//2
f  85//2 82//2 65//2
f  47//2 41//2 44//2
f  34//2 47//2 49//2
f  49//2 42//2 48//2
f  69//2 68//2 86//2
f  70//2 69//2 71//2
f  87//2 86//2 68//2
f  86//2 87//2 72//2
f  88//2 72//2 71//2
f  74//2 73//2 75//2
f  73//2 59//2 77//2
f  76//2 75//2 73//2
f  89//2 90//2 91//2
f  78//2 62//2 80//2
f  79//2 81//2 80//2
f  90//2 89//2 92//2
f  93//2 84//2 83//2
f  82//2 85//2 84//2
f  42//2 49//2 47//2
f  94//2 95//2 96//2
f  86//2 72//2 88//2
f  97//2 98//2 99//2
f  100//2 101//2 99//2
f  89//2 91//2 102//2
f  103//2 104//2 91//2
f  105//2 92//2 89//2
f  92//2 105//2 103//2
f  82//2 84//2 93//2
f  95//2 94//2 106//2
f  96//2 95//2 107//2
f  96//2 107//2 108//2
f  109//2 106//2 94//2
f  98//2 97//2 110//2
f  97//2 99//2 111//2
f  110//2 112//2 100//2
f  100//2 112//2 101//2
f  111//2 99//2 101//2
f  102//2 91//2 104//2
f  103//2 105//2 104//2
f  113//2 108//2 107//2
f  106//2 109//2 108//2
f  112//2 110//2 97//2
f  106//2 108//2 113//2

# Mesh 'mesh1_mesh1-geometry' with 336 faces
g mesh1_mesh1-geometry
usemtl material_3_24
f  50//5 12//5 10//5
f  10//3 12//3 50//3
f  12//5 50//5 52//5
f  52//3 50//3 12//3
f  23//4 50//4 10//4
f  10//6 50//6 23//6
f  13//6 59//6 19//6
f  19//4 59//4 13//4
f  62//3 14//3 20//3
f  20//5 14//5 62//5
f  14//4 63//4 16//4
f  16//6 63//6 14//6
f  52//1 51//1 50//1
f  55//6 12//6 52//6
f  52//4 12//4 55//4
f  50//4 23//4 56//4
f  56//6 23//6 50//6
f  65//5 25//5 17//5
f  17//3 25//3 65//3
f  68//5 18//5 26//5
f  26//3 18//3 68//3
f  18//6 72//6 27//6
f  27//4 72//4 18//4
f  59//3 28//3 19//3
f  19//5 28//5 59//5
f  59//6 13//6 57//6
f  57//4 13//4 59//4
f  14//3 62//3 61//3
f  61//5 62//5 14//5
f  24//6 62//6 20//6
f  20//4 62//4 24//4
f  63//4 14//4 61//4
f  61//6 14//6 63//6
f  63//5 24//5 16//5
f  16//3 24//3 63//3
f  53//1 50//1 51//1
f  54//1 51//1 52//1
f  12//6 55//6 32//6
f  32//4 55//4 12//4
f  55//1 54//1 52//1
f  23//3 55//3 56//3
f  56//5 55//5 23//5
f  50//1 53//1 56//1
f  25//5 65//5 67//5
f  67//3 65//3 25//3
f  40//4 65//4 17//4
f  17//6 65//6 40//6
f  18//5 68//5 70//5
f  70//3 68//3 18//3
f  36//4 68//4 26//4
f  26//6 68//6 36//6
f  72//3 36//3 27//3
f  27//5 36//5 72//5
f  72//6 18//6 70//6
f  70//4 18//4 72//4
f  28//3 59//3 74//3
f  74//5 59//5 28//5
f  13//5 75//5 57//5
f  57//3 75//3 13//3
f  59//1 58//1 57//1
f  91//3 29//3 38//3
f  38//5 29//5 91//5
f  62//1 61//1 60//1
f  62//6 24//6 79//6
f  79//4 24//4 62//4
f  63//1 60//1 61//1
f  24//5 63//5 79//5
f  79//3 63//3 24//3
f  55//3 23//3 32//3
f  32//5 23//5 55//5
f  53//4 114//4 51//4
f  51//6 114//6 53//6
f  114//5 54//5 51//5
f  51//3 54//3 114//3
f  54//1 55//1 64//1
f  55//1 56//1 53//1
f  29//4 92//4 33//4
f  33//6 92//6 29//6
f  67//1 66//1 65//1
f  84//6 25//6 67//6
f  67//4 25//4 84//4
f  65//4 40//4 85//4
f  85//6 40//6 65//6
f  94//5 35//5 34//5
f  34//3 35//3 94//3
f  70//1 69//1 68//1
f  68//4 36//4 87//4
f  87//6 36//6 68//6
f  75//5 13//5 43//5
f  43//3 13//3 75//3
f  36//3 72//3 87//3
f  87//5 72//5 36//5
f  72//1 71//1 70//1
f  99//3 44//3 37//3
f  37//5 44//5 99//5
f  42//6 99//6 37//6
f  37//4 99//4 42//4
f  59//1 74//1 73//1
f  75//4 28//4 74//4
f  74//6 28//6 75//6
f  57//1 76//1 75//1
f  58//1 76//1 57//1
f  58//1 59//1 77//1
f  29//3 91//3 90//3
f  90//5 91//5 29//5
f  41//6 91//6 38//6
f  38//4 91//4 41//4
f  78//1 62//1 60//1
f  62//1 80//1 79//1
f  60//1 63//1 81//1
f  79//1 81//1 63//1
f  114//4 53//4 115//4
f  115//6 53//6 114//6
f  54//5 114//5 116//5
f  116//3 114//3 54//3
f  64//1 55//1 53//1
f  54//6 117//6 64//6
f  64//4 117//4 54//4
f  92//4 29//4 90//4
f  90//6 29//6 92//6
f  92//5 41//5 33//5
f  33//3 41//3 92//3
f  82//1 65//1 66//1
f  83//1 66//1 67//1
f  25//6 84//6 46//6
f  46//4 84//4 25//4
f  84//1 83//1 67//1
f  40//3 84//3 85//3
f  85//5 84//5 40//5
f  65//1 82//1 85//1
f  35//5 94//5 96//5
f  96//3 94//3 35//3
f  49//4 94//4 34//4
f  34//6 94//6 49//6
f  35//6 108//6 48//6
f  48//4 108//4 35//4
f  86//1 68//1 69//1
f  71//1 69//1 70//1
f  68//1 86//1 87//1
f  28//4 75//4 43//4
f  43//6 75//6 28//6
f  72//1 87//1 86//1
f  71//1 72//1 88//1
f  44//3 99//3 98//3
f  98//5 99//5 44//5
f  99//6 42//6 100//6
f  100//4 42//4 99//4
f  75//1 73//1 74//1
f  77//1 59//1 73//1
f  73//1 75//1 76//1
f  118//5 58//5 76//5
f  76//3 58//3 118//3
f  58//6 119//6 77//6
f  77//4 119//4 58//4
f  91//1 90//1 89//1
f  91//6 41//6 103//6
f  103//4 41//4 91//4
f  80//1 62//1 78//1
f  120//3 60//3 78//3
f  78//5 60//5 120//5
f  80//1 81//1 79//1
f  60//4 121//4 81//4
f  81//6 121//6 60//6
f  53//3 117//3 115//3
f  115//5 117//5 53//5
f  115//1 114//1 117//1
f  116//1 117//1 114//1
f  117//6 54//6 116//6
f  116//4 54//4 117//4
f  117//3 53//3 64//3
f  64//5 53//5 117//5
f  92//1 89//1 90//1
f  41//5 92//5 103//5
f  103//3 92//3 41//3
f  84//3 40//3 46//3
f  46//5 40//5 84//5
f  82//4 122//4 66//4
f  66//6 122//6 82//6
f  122//5 83//5 66//5
f  66//3 83//3 122//3
f  83//1 84//1 93//1
f  84//1 85//1 82//1
f  44//4 110//4 47//4
f  47//6 110//6 44//6
f  96//1 95//1 94//1
f  108//6 35//6 96//6
f  96//4 35//4 108//4
f  94//4 49//4 109//4
f  109//6 49//6 94//6
f  108//3 49//3 48//3
f  48//5 49//5 108//5
f  86//4 123//4 69//4
f  69//6 123//6 86//6
f  123//5 71//5 69//5
f  69//3 71//3 123//3
f  88//1 72//1 86//1
f  71//6 124//6 88//6
f  88//4 124//4 71//4
f  99//1 98//1 97//1
f  110//4 44//4 98//4
f  98//6 44//6 110//6
f  42//5 110//5 100//5
f  100//3 110//3 42//3
f  99//1 101//1 100//1
f  119//3 73//3 77//3
f  77//5 73//5 119//5
f  73//4 118//4 76//4
f  76//6 118//6 73//6
f  58//5 118//5 125//5
f  125//3 118//3 58//3
f  119//6 58//6 125//6
f  125//4 58//4 119//4
f  102//1 91//1 89//1
f  91//1 104//1 103//1
f  80//6 120//6 78//6
f  78//4 120//4 80//4
f  60//3 120//3 126//3
f  126//5 120//5 60//5
f  121//5 80//5 81//5
f  81//3 80//3 121//3
f  121//4 60//4 126//4
f  126//6 60//6 121//6
f  89//1 92//1 105//1
f  103//1 105//1 92//1
f  122//4 82//4 127//4
f  127//6 82//6 122//6
f  83//5 122//5 128//5
f  128//3 122//3 83//3
f  93//1 84//1 82//1
f  83//6 129//6 93//6
f  93//4 129//4 83//4
f  110//5 42//5 47//5
f  47//3 42//3 110//3
f  106//1 94//1 95//1
f  107//1 95//1 96//1
f  108//1 107//1 96//1
f  49//3 108//3 109//3
f  109//5 108//5 49//5
f  94//1 106//1 109//1
f  123//4 86//4 130//4
f  130//6 86//6 123//6
f  71//5 123//5 131//5
f  131//3 123//3 71//3
f  124//3 86//3 88//3
f  88//5 86//5 124//5
f  124//6 71//6 131//6
f  131//4 71//4 124//4
f  110//1 97//1 98//1
f  111//1 99//1 97//1
f  100//1 112//1 110//1
f  101//1 112//1 100//1
f  101//1 99//1 111//1
f  73//3 119//3 132//3
f  132//5 119//5 73//5
f  118//4 73//4 132//4
f  132//6 73//6 118//6
f  125//1 119//1 118//1
f  104//1 91//1 102//1
f  133//3 89//3 102//3
f  102//5 89//5 133//5
f  104//1 105//1 103//1
f  120//6 80//6 134//6
f  134//4 80//4 120//4
f  126//1 121//1 120//1
f  80//5 121//5 134//5
f  134//3 121//3 80//3
f  89//4 135//4 105//4
f  105//6 135//6 89//6
f  82//3 129//3 127//3
f  127//5 129//5 82//5
f  127//1 122//1 129//1
f  128//1 129//1 122//1
f  129//6 83//6 128//6
f  128//4 83//4 129//4
f  129//3 82//3 93//3
f  93//5 82//5 129//5
f  106//4 136//4 95//4
f  95//6 136//6 106//6
f  136//5 107//5 95//5
f  95//3 107//3 136//3
f  107//1 108//1 113//1
f  108//1 109//1 106//1
f  86//3 124//3 130//3
f  130//5 124//5 86//5
f  130//1 123//1 124//1
f  131//1 124//1 123//1
f  97//1 110//1 112//1
f  137//3 97//3 111//3
f  111//5 97//5 137//5
f  138//5 101//5 112//5
f  112//3 101//3 138//3
f  101//6 137//6 111//6
f  111//4 137//4 101//4
f  132//1 118//1 119//1
f  104//6 133//6 102//6
f  102//4 133//4 104//4
f  89//3 133//3 139//3
f  139//5 133//5 89//5
f  135//5 104//5 105//5
f  105//3 104//3 135//3
f  134//1 120//1 121//1
f  135//4 89//4 139//4
f  139//6 89//6 135//6
f  136//4 106//4 140//4
f  140//6 106//6 136//6
f  107//5 136//5 141//5
f  141//3 136//3 107//3
f  113//1 108//1 106//1
f  107//6 142//6 113//6
f  113//4 142//4 107//4
f  97//4 138//4 112//4
f  112//6 138//6 97//6
f  97//3 137//3 143//3
f  143//5 137//5 97//5
f  101//5 138//5 144//5
f  144//3 138//3 101//3
f  137//6 101//6 144//6
f  144//4 101//4 137//4
f  133//6 104//6 145//6
f  145//4 104//4 133//4
f  139//1 135//1 133//1
f  104//5 135//5 145//5
f  145//3 135//3 104//3
f  106//3 142//3 140//3
f  140//5 142//5 106//5
f  140//1 136//1 142//1
f  141//1 142//1 136//1
f  142//6 107//6 141//6
f  141//4 107//4 142//4
f  142//3 106//3 113//3
f  113//5 106//5 142//5
f  138//4 97//4 143//4
f  143//6 97//6 138//6
f  143//1 138//1 137//1
f  144//1 137//1 138//1
f  145//1 133//1 135//1

# Mesh 'mesh1_mesh1-geometry' with 16 faces
g mesh1_mesh1-geometry
usemtl material_4_24
f  117//2 114//2 115//2
f  114//2 117//2 116//2
f  118//2 119//2 125//2
f  120//2 121//2 126//2
f  129//2 122//2 127//2
f  122//2 129//2 128//2
f  124//2 123//2 130//2
f  123//2 124//2 131//2
f  119//2 118//2 132//2
f  121//2 120//2 134//2
f  133//2 135//2 139//2
f  142//2 136//2 140//2
f  136//2 142//2 141//2
f  137//2 138//2 143//2
f  138//2 137//2 144//2
f  135//2 133//2 145//2

# Mesh 'mesh2_mesh2-geometry' with 1 faces
g mesh2_mesh2-geometry
usemtl material_3_0
l  18 70

# Mesh 'mesh3_mesh3-geometry' with 1 faces
g mesh3_mesh3-geometry
usemtl material_3_0
l  27 72

# Mesh 'mesh4_mesh4-geometry' with 1 faces
g mesh4_mesh4-geometry
usemtl material_3_0
l  26 68

# Mesh 'mesh5_mesh5-geometry' with 1 faces
g mesh5_mesh5-geometry
usemtl material_3_0
l  36 87

# Mesh 'mesh6_mesh6-geometry' with 8 faces
g mesh6_mesh6-geometry
usemtl material_3_0
l  57 75
l  59 57
l  13 57
l  75 74
l  43 75
l  74 59
l  19 59
l  28 74

# Mesh 'mesh7_mesh7-geometry' with 1 faces
g mesh7_mesh7-geometry
usemtl material_3_0
l  37 99

# Mesh 'mesh8_mesh8-geometry' with 1 faces
g mesh8_mesh8-geometry
usemtl material_3_0
l  44 98

# Mesh 'mesh9_mesh9-geometry' with 1 faces
g mesh9_mesh9-geometry
usemtl material_3_0
l  42 100

# Mesh 'mesh10_mesh10-geometry' with 1 faces
g mesh10_mesh10-geometry
usemtl material_3_0
l  47 110

# Mesh 'mesh11_mesh11-geometry' with 1 faces
g mesh11_mesh11-geometry
usemtl material_3_0
l  35 96

# Mesh 'mesh12_mesh12-geometry' with 1 faces
g mesh12_mesh12-geometry
usemtl material_3_0
l  48 108

# Mesh 'mesh13_mesh13-geometry' with 1 faces
g mesh13_mesh13-geometry
usemtl material_3_0
l  34 94

# Mesh 'mesh14_mesh14-geometry' with 1 faces
g mesh14_mesh14-geometry
usemtl material_3_0
l  49 109

# Mesh 'mesh15_mesh15-geometry' with 1 faces
g mesh15_mesh15-geometry
usemtl material_3_0
l  33 92

# Mesh 'mesh16_mesh16-geometry' with 1 faces
g mesh16_mesh16-geometry
usemtl material_3_0
l  41 103

# Mesh 'mesh17_mesh17-geometry' with 1 faces
g mesh17_mesh17-geometry
usemtl material_3_0
l  29 90

# Mesh 'mesh18_mesh18-geometry' with 1 faces
g mesh18_mesh18-geometry
usemtl material_3_0
l  38 91

# Mesh 'mesh19_mesh19-geometry' with 1 faces
g mesh19_mesh19-geometry
usemtl material_3_0
l  17 65

# Mesh 'mesh20_mesh20-geometry' with 1 faces
g mesh20_mesh20-geometry
usemtl material_3_0
l  25 67

# Mesh 'mesh21_mesh21-geometry' with 1 faces
g mesh21_mesh21-geometry
usemtl material_3_0
l  40 85

# Mesh 'mesh22_mesh22-geometry' with 1 faces
g mesh22_mesh22-geometry
usemtl material_3_0
l  46 84

# Mesh 'mesh23_mesh23-geometry' with 1 faces
g mesh23_mesh23-geometry
usemtl material_3_0
l  20 62

# Mesh 'mesh24_mesh24-geometry' with 1 faces
g mesh24_mesh24-geometry
usemtl material_3_0
l  14 61

# Mesh 'mesh25_mesh25-geometry' with 1 faces
g mesh25_mesh25-geometry
usemtl material_3_0
l  24 79

# Mesh 'mesh26_mesh26-geometry' with 1 faces
g mesh26_mesh26-geometry
usemtl material_3_0
l  16 63

# Mesh 'mesh27_mesh27-geometry' with 1 faces
g mesh27_mesh27-geometry
usemtl material_3_0
l  32 55

# Mesh 'mesh28_mesh28-geometry' with 1 faces
g mesh28_mesh28-geometry
usemtl material_3_0
l  23 56

# Mesh 'mesh29_mesh29-geometry' with 1 faces
g mesh29_mesh29-geometry
usemtl material_3_0
l  12 52

# Mesh 'mesh30_mesh30-geometry' with 1 faces
g mesh30_mesh30-geometry
usemtl material_3_0
l  10 50

# Mesh 'mesh31_mesh31-geometry' with 1 faces
g mesh31_mesh31-geometry
usemtl material_3_0
l  95 136

# Mesh 'mesh32_mesh32-geometry' with 1 faces
g mesh32_mesh32-geometry
usemtl material_3_0
l  107 141

# Mesh 'mesh33_mesh33-geometry' with 1 faces
g mesh33_mesh33-geometry
usemtl material_3_0
l  106 140

# Mesh 'mesh34_mesh34-geometry' with 1 faces
g mesh34_mesh34-geometry
usemtl material_3_0
l  113 142

# Mesh 'mesh35_mesh35-geometry' with 1 faces
g mesh35_mesh35-geometry
usemtl material_3_0
l  66 122

# Mesh 'mesh36_mesh36-geometry' with 1 faces
g mesh36_mesh36-geometry
usemtl material_3_0
l  83 128

# Mesh 'mesh37_mesh37-geometry' with 1 faces
g mesh37_mesh37-geometry
usemtl material_3_0
l  82 127

# Mesh 'mesh38_mesh38-geometry' with 1 faces
g mesh38_mesh38-geometry
usemtl material_3_0
l  93 129

# Mesh 'mesh39_mesh39-geometry' with 1 faces
g mesh39_mesh39-geometry
usemtl material_3_0
l  51 114

# Mesh 'mesh40_mesh40-geometry' with 1 faces
g mesh40_mesh40-geometry
usemtl material_3_0
l  54 116

# Mesh 'mesh41_mesh41-geometry' with 1 faces
g mesh41_mesh41-geometry
usemtl material_3_0
l  53 115

# Mesh 'mesh42_mesh42-geometry' with 1 faces
g mesh42_mesh42-geometry
usemtl material_3_0
l  64 117

# Mesh 'mesh43_mesh43-geometry' with 1 faces
g mesh43_mesh43-geometry
usemtl material_3_0
l  81 121

# Mesh 'mesh44_mesh44-geometry' with 1 faces
g mesh44_mesh44-geometry
usemtl material_3_0
l  80 134

# Mesh 'mesh45_mesh45-geometry' with 1 faces
g mesh45_mesh45-geometry
usemtl material_3_0
l  60 126

# Mesh 'mesh46_mesh46-geometry' with 1 faces
g mesh46_mesh46-geometry
usemtl material_3_0
l  78 120

# Mesh 'mesh47_mesh47-geometry' with 1 faces
g mesh47_mesh47-geometry
usemtl material_3_0
l  105 135

# Mesh 'mesh48_mesh48-geometry' with 1 faces
g mesh48_mesh48-geometry
usemtl material_3_0
l  104 145

# Mesh 'mesh49_mesh49-geometry' with 1 faces
g mesh49_mesh49-geometry
usemtl material_3_0
l  89 139

# Mesh 'mesh50_mesh50-geometry' with 1 faces
g mesh50_mesh50-geometry
usemtl material_3_0
l  102 133

# Mesh 'mesh51_mesh51-geometry' with 1 faces
g mesh51_mesh51-geometry
usemtl material_3_0
l  112 138

# Mesh 'mesh52_mesh52-geometry' with 1 faces
g mesh52_mesh52-geometry
usemtl material_3_0
l  101 144

# Mesh 'mesh53_mesh53-geometry' with 1 faces
g mesh53_mesh53-geometry
usemtl material_3_0
l  97 143

# Mesh 'mesh54_mesh54-geometry' with 1 faces
g mesh54_mesh54-geometry
usemtl material_3_0
l  111 137

# Mesh 'mesh55_mesh55-geometry' with 1 faces
g mesh55_mesh55-geometry
usemtl material_3_0
l  76 118

# Mesh 'mesh56_mesh56-geometry' with 1 faces
g mesh56_mesh56-geometry
usemtl material_3_0
l  58 125

# Mesh 'mesh57_mesh57-geometry' with 1 faces
g mesh57_mesh57-geometry
usemtl material_3_0
l  73 132

# Mesh 'mesh58_mesh58-geometry' with 1 faces
g mesh58_mesh58-geometry
usemtl material_3_0
l  77 119

# Mesh 'mesh59_mesh59-geometry' with 1 faces
g mesh59_mesh59-geometry
usemtl material_3_0
l  69 123

# Mesh 'mesh60_mesh60-geometry' with 1 faces
g mesh60_mesh60-geometry
usemtl material_3_0
l  71 131

# Mesh 'mesh61_mesh61-geometry' with 1 faces
g mesh61_mesh61-geometry
usemtl material_3_0
l  86 130

# Mesh 'mesh62_mesh62-geometry' with 1 faces
g mesh62_mesh62-geometry
usemtl material_3_0
l  88 124

