# File produced by Open Asset Import Library (http://www.assimp.sf.net)
# (assimp v3.2.202087883)

mtllib model_normalized.mtl

# 82 vertex positions
v -0.321310 0.379165 -0.084522
v -0.284557 0.342413 -0.084522
v -0.287087 -0.303011 -0.084522
v 0.360866 0.379165 -0.084522
v -0.284557 -0.266258 -0.084522
v -0.287087 -0.331561 -0.084522
v -0.154984 0.342413 -0.084522
v -0.284557 -0.176462 -0.084522
v 0.326643 -0.303011 -0.084522
v -0.321310 -0.331561 -0.084522
v -0.120760 0.342413 -0.084522
v -0.284557 -0.139735 -0.084522
v -0.171097 -0.266258 -0.084522
v 0.324114 0.342413 -0.084522
v -0.154984 0.219222 -0.084522
v -0.284557 0.041729 -0.084522
v 0.324114 -0.139735 -0.084522
v -0.136874 -0.266258 -0.084522
v 0.324114 0.219222 -0.084522
v -0.120760 0.219222 -0.084522
v -0.284557 0.219222 -0.084522
v -0.284557 0.005002 -0.084522
v -0.171097 -0.176462 -0.084522
v -0.136874 -0.176462 -0.084522
v 0.324114 -0.266258 -0.084522
v 0.326643 -0.331561 -0.084522
v 0.360866 -0.331561 -0.084522
v 0.324114 0.182494 -0.084522
v 0.171897 0.182494 -0.084522
v -0.284557 0.182494 -0.084522
v 0.171897 0.041729 -0.084522
v 0.324114 -0.176462 -0.084522
v 0.324114 0.041729 -0.084522
v 0.206120 0.182494 -0.084522
v 0.324114 0.005002 -0.084522
v 0.206120 0.041729 -0.084522
v -0.321310 0.379165 0.087246
v -0.287087 -0.331561 0.087246
v 0.360866 0.379165 0.087246
v -0.154984 0.342413 0.052585
v -0.284557 -0.266258 0.052585
v -0.287087 -0.303011 0.087246
v -0.321310 -0.331561 0.087246
v -0.284557 0.342413 0.087246
v 0.360866 -0.331561 0.087246
v -0.284557 0.342413 0.052585
v -0.284557 -0.139735 0.052585
v -0.284557 -0.176462 0.052585
v -0.171097 -0.266258 0.052585
v 0.326643 -0.303011 0.087246
v 0.324114 0.342413 0.087246
v -0.120760 0.342413 0.052585
v -0.171097 -0.176462 0.052585
v -0.284557 0.219222 0.052585
v -0.154984 0.219222 0.052585
v -0.120760 0.219222 0.052585
v -0.171097 -0.266258 0.087246
v -0.284557 -0.266258 0.087246
v 0.324114 0.342413 0.052585
v 0.326643 -0.331561 0.087246
v -0.136874 -0.176462 0.052585
v 0.171897 0.182494 0.052585
v -0.154984 0.219222 0.087246
v -0.284557 0.041729 0.052585
v 0.324114 -0.139735 0.052585
v -0.284557 0.005002 0.052585
v -0.136874 -0.266258 0.087246
v 0.324114 -0.266258 0.052585
v 0.324114 0.219222 0.052585
v 0.324114 -0.266258 0.087246
v -0.136874 -0.266258 0.052585
v -0.284557 0.182494 0.052585
v -0.120760 0.219222 0.087246
v 0.324114 0.005002 0.052585
v 0.324114 -0.176462 0.052585
v 0.324114 0.182494 0.052585
v 0.206120 0.182494 0.052585
v 0.171897 0.041729 0.052585
v 0.324114 0.041729 0.052585
v 0.206120 0.041729 0.052585
v 0.171897 0.041729 0.087246
v 0.206120 0.041729 0.087246

# 158 UV coordinates
vt -0 28.3686 0
vt -0.787827 26.8402 0
vt -0.733595 0 0
vt -14.623 28.3686 0
vt -0.787827 1.52838 0
vt -0.733595 -1.18728 0
vt -3.56534 26.8402 0
vt -0.787827 5.2626 0
vt -13.8894 0 0
vt -0 -1.18728 0
vt -4.29894 26.8402 0
vt -0.787827 6.78992 0
vt -3.21993 1.52838 0
vt -13.8352 26.8402 0
vt -3.56534 21.7174 0
vt -0.787827 14.3362 0
vt -13.8352 6.78992 0
vt -3.95353 1.52838 0
vt -13.8352 21.7174 0
vt -4.29894 21.7174 0
vt -0.787827 21.7174 0
vt -0.787827 12.8089 0
vt -3.21993 5.2626 0
vt -3.95353 5.2626 0
vt -13.8352 1.52838 0
vt -13.8894 -1.18728 0
vt -14.623 -1.18728 0
vt -13.8352 20.19 0
vt -10.5723 20.19 0
vt -0.787827 20.19 0
vt -10.5723 14.3362 0
vt -13.8352 5.2626 0
vt -13.8352 14.3362 0
vt -11.3059 20.19 0
vt -13.8352 12.8089 0
vt -11.3059 14.3362 0
vt 0 0 0
vt 0.28221 0 0
vt 0 0.872292 0
vt -0 0.828532 0
vt -0.28221 0.792025 0
vt -0 0.792025 0
vt 0.28221 0.872292 0
vt 0 -0.036507 0
vt -0.225263 0.21268 0
vt -0 0.046995 0
vt 0 0.21268 0
vt 0 0.161817 0
vt -0.225263 0.046995 0
vt -0.28221 0.04376 0
vt -0 0.04376 0
vt -0.28221 0.828532 0
vt -0.28221 0.872292 0
vt 0.060384 0.825297 0
vt 1.12079 0.872292 0
vt -0.28221 -0.036507 0
vt 0.28221 -0.036507 0
vt -0.225263 0.828532 0
vt -0.225263 1.28363 0
vt -0 1.44115 0
vt -0.225263 1.44115 0
vt -0.225263 0.825297 0
vt 0 0.825297 0
vt -0.225263 0.667776 0
vt -0.225263 0.161817 0
vt 0.225263 0.192076 0
vt 0.225263 0.046995 0
vt 0 0.192076 0
vt 0.056227 -0.036507 0
vt 0.056227 -0 0
vt 1.06041 0.825297 0
vt 1.06457 -0 0
vt 1.12079 -0.036507 0
vt -0.225263 0.25644 0
vt 0 0.25644 0
vt -0 1.28363 0
vt 0 0.667776 0
vt -0.225263 0.872292 0
vt 0.273269 0.825297 0
vt 0.246795 0.161817 0
vt 0.273269 0.667776 0
vt 0.329496 1.28363 0
vt 0.273269 1.44115 0
vt 0.273269 1.28363 0
vt 0 0.393853 0
vt -0.225263 0.20878 0
vt 0 0.20878 0
vt 0.060384 0.161817 0
vt 0.060384 0.20878 0
vt 0.060384 0.046995 0
vt 0.246795 0.046995 0
vt 0.060384 0.667776 0
vt 1.06457 -0.036507 0
vt 0.225263 0.825297 0
vt 0.225263 1.44115 0
vt 0.329496 1.44115 0
vt 0.303022 0.161817 0
vt 0.329496 0.667776 0
vt -0.225263 0.393853 0
vt 0.060384 0.440816 0
vt 0.225263 0.161817 0
vt 0 0.235836 0
vt 0.303022 0.046995 0
vt 1.06041 0.046995 0
vt 0.225263 0.667776 0
vt 0.329496 0.825297 0
vt 0.225263 1.28363 0
vt -0.225263 0.192076 0
vt -0.225263 0.235836 0
vt 0 0.620813 0
vt -0.225263 0.440816 0
vt 0 0.440816 0
vt -0 0.630658 0
vt 0.225263 0.393853 0
vt 0.225263 0.20878 0
vt 0.060384 0.393853 0
vt 0.060384 0.620813 0
vt 0.225263 0.235836 0
vt 1.06041 0.667776 0
vt 1.06041 0.620813 0
vt 0.225263 0.620813 0
vt -0.225263 0.620813 0
vt 0.225263 0.630658 0
vt 1.06041 0.20878 0
vt 1.06041 0.161817 0
vt 1.06041 0.393853 0
vt 0.225263 0.440816 0
vt 0 0.63869 0
vt 0.225263 0.818687 0
vt 0 0.818687 0
vt -0.866549 0.818687 0
vt -0.810322 0.63869 0
vt -0.810322 0.818687 0
vt -0.225263 0.63869 0
vt 1.06041 0.440816 0
vt 0.225263 0.674418 0
vt -0 0.674418 0
vt -0.225263 0.818687 0
vt 0.225263 0.63869 0
vt -0.866549 0.63869 0
vt -0 33.7327 0
vt -19.5933 8.25342 0
vt 0 8.25342 0
vt -0 37.3512 0
vt 19.5933 8.25342 0
vt 19.5933 37.3512 0
vt -19.5933 33.7327 0
vt -0 144.94 0
vt -0 41.4179 0
vt -19.5933 144.94 0
vt -19.5933 41.4179 0
vt -19.5933 118.442 0
vt 0 118.442 0
vt 19.5933 45.0365 0
vt 19.5933 144.94 0
vt -0 45.0365 0
vt 0 110.757 0
vt -19.5933 110.757 0

# 6 vertex normals
vn 0 0 -0.001
vn 0 0 0.001
vn 0 -0.001 0
vn -0.001 0 0
vn 0.001 0 0
vn 0 0.001 0

# Mesh 'mesh1_mesh1-geometry' with 48 faces
g mesh1_mesh1-geometry
usemtl material_0_1_8
f  1/1/1 2/2/1 3/3/1
f  2/2/1 1/1/1 4/4/1
f  3/3/1 2/2/1 5/5/1
f  6/6/1 1/1/1 3/3/1
f  2/2/1 4/4/1 7/7/1
f  2/2/1 8/8/1 5/5/1
f  5/5/1 9/9/1 3/3/1
f  1/1/1 6/6/1 10/10/1
f  7/7/1 4/4/1 11/11/1
f  8/8/1 2/2/1 12/12/1
f  9/9/1 5/5/1 13/13/1
f  11/11/1 4/4/1 14/14/1
f  7/7/1 11/11/1 15/15/1
f  2/2/1 16/16/1 12/12/1
f  8/8/1 12/12/1 17/17/1
f  9/9/1 13/13/1 18/18/1
f  14/14/1 4/4/1 19/19/1
f  20/20/1 15/15/1 11/11/1
f  16/16/1 2/2/1 21/21/1
f  16/16/1 22/22/1 12/12/1
f  8/8/1 17/17/1 23/23/1
f  18/18/1 13/13/1 24/24/1
f  9/9/1 18/18/1 25/25/1
f  26/26/1 4/4/1 27/27/1
f  19/19/1 4/4/1 28/28/1
f  29/29/1 15/15/1 20/20/1
f  16/16/1 21/21/1 30/30/1
f  22/22/1 16/16/1 31/31/1
f  23/23/1 17/17/1 24/24/1
f  23/23/1 24/24/1 13/13/1
f  9/9/1 25/25/1 32/32/1
f  9/9/1 4/4/1 26/26/1
f  28/28/1 4/4/1 33/33/1
f  34/34/1 19/19/1 28/28/1
f  30/30/1 15/15/1 29/29/1
f  29/29/1 20/20/1 19/19/1
f  30/30/1 21/21/1 15/15/1
f  22/22/1 31/31/1 35/35/1
f  24/24/1 17/17/1 32/32/1
f  32/32/1 4/4/1 9/9/1
f  33/33/1 4/4/1 35/35/1
f  29/29/1 19/19/1 34/34/1
f  35/35/1 31/31/1 36/36/1
f  17/17/1 4/4/1 32/32/1
f  35/35/1 4/4/1 17/17/1
f  35/35/1 36/36/1 33/33/1
f  29/29/1 34/34/1 31/31/1
f  36/36/1 31/31/1 34/34/1

# Mesh 'mesh1_mesh1-geometry' with 254 faces
g mesh1_mesh1-geometry
usemtl material_1_24
f  3/37/2 2/37/2 1/37/2
f  4/37/2 1/37/2 2/37/2
f  5/37/2 2/37/2 3/37/2
f  3/37/2 1/37/2 6/37/2
f  1/37/3 4/37/3 37/37/3
f  7/37/2 4/37/2 2/37/2
f  5/37/2 8/37/2 2/37/2
f  3/37/2 9/37/2 5/37/2
f  10/37/2 6/37/2 1/37/2
f  6/37/4 38/37/4 3/37/4
f  39/37/3 37/37/3 4/37/3
f  1/37/5 37/37/5 10/37/5
f  11/37/2 4/37/2 7/37/2
f  7/37/6 2/37/6 40/37/6
f  12/37/2 2/37/2 8/37/2
f  5/37/4 41/37/4 8/37/4
f  13/37/2 5/37/2 9/37/2
f  3/37/6 42/37/6 9/37/6
f  10/37/6 43/37/6 6/37/6
f  42/37/4 3/37/4 38/37/4
f  38/37/6 6/37/6 43/37/6
f  39/37/1 44/37/1 37/37/1
f  39/37/4 4/37/4 45/37/4
f  43/37/5 10/37/5 37/37/5
f  14/37/2 4/37/2 11/37/2
f  15/37/2 11/37/2 7/37/2
f  7/37/6 40/37/6 11/37/6
f  46/37/6 40/37/6 2/37/6
f  12/37/2 16/37/2 2/37/2
f  17/37/2 12/37/2 8/37/2
f  8/37/4 47/37/4 12/37/4
f  12/37/5 47/37/5 8/37/5
f  48/37/4 8/37/4 41/37/4
f  41/37/3 5/37/3 49/37/3
f  13/37/3 49/37/3 5/37/3
f  18/37/2 13/37/2 9/37/2
f  50/37/6 9/37/6 42/37/6
f  42/37/1 38/37/1 37/37/1
f  43/37/1 37/37/1 38/37/1
f  44/37/1 42/37/1 37/37/1
f  51/37/1 44/37/1 39/37/1
f  27/37/4 45/37/4 4/37/4
f  45/37/1 50/37/1 39/37/1
f  19/37/2 4/37/2 14/37/2
f  11/37/6 52/37/6 14/37/6
f  11/37/2 15/37/2 20/37/2
f  52/37/6 11/37/6 40/37/6
f  52/37/3 46/37/3 40/37/3
f  40/37/6 46/37/6 52/37/6
f  46/37/2 53/37/2 40/37/2
f  46/37/4 2/37/4 54/37/4
f  40/37/2 53/37/2 55/37/2
f  55/37/1 40/37/1 56/37/1
f  21/37/2 2/37/2 16/37/2
f  12/37/2 22/37/2 16/37/2
f  12/37/3 17/37/3 47/37/3
f  23/37/2 17/37/2 8/37/2
f  47/37/4 8/37/4 48/37/4
f  48/37/5 8/37/5 47/37/5
f  12/37/4 47/37/4 22/37/4
f  8/37/6 48/37/6 23/37/6
f  44/37/5 41/37/5 48/37/5
f  48/37/4 41/37/4 44/37/4
f  41/37/2 47/37/2 48/37/2
f  41/37/6 57/37/6 49/37/6
f  49/37/3 57/37/3 41/37/3
f  54/37/2 41/37/2 49/37/2
f  24/37/2 13/37/2 18/37/2
f  25/37/2 18/37/2 9/37/2
f  9/37/5 50/37/5 26/37/5
f  42/37/1 58/37/1 50/37/1
f  58/37/1 42/37/1 44/37/1
f  44/37/3 59/37/3 51/37/3
f  51/37/6 59/37/6 44/37/6
f  51/37/1 57/37/1 44/37/1
f  50/37/1 51/37/1 39/37/1
f  45/37/6 27/37/6 60/37/6
f  27/37/2 4/37/2 26/37/2
f  60/37/1 50/37/1 45/37/1
f  28/37/2 4/37/2 19/37/2
f  14/37/5 59/37/5 19/37/5
f  59/37/6 14/37/6 52/37/6
f  20/37/2 15/37/2 29/37/2
f  55/37/3 54/37/3 15/37/3
f  52/37/1 56/37/1 40/37/1
f  46/37/3 52/37/3 59/37/3
f  59/37/6 52/37/6 46/37/6
f  46/37/2 49/37/2 53/37/2
f  21/37/4 54/37/4 2/37/4
f  44/37/5 54/37/5 46/37/5
f  46/37/4 54/37/4 44/37/4
f  54/37/2 49/37/2 46/37/2
f  61/37/2 55/37/2 53/37/2
f  55/37/2 61/37/2 56/37/2
f  55/37/2 62/37/2 56/37/2
f  56/37/1 62/37/1 55/37/1
f  55/37/6 63/37/6 56/37/6
f  30/37/2 21/37/2 16/37/2
f  31/37/2 16/37/2 22/37/2
f  22/37/4 64/37/4 16/37/4
f  16/37/5 64/37/5 22/37/5
f  65/37/3 47/37/3 17/37/3
f  24/37/2 17/37/2 23/37/2
f  44/37/5 48/37/5 47/37/5
f  47/37/4 48/37/4 44/37/4
f  53/37/2 47/37/2 48/37/2
f  48/37/1 47/37/1 53/37/1
f  66/37/4 22/37/4 47/37/4
f  53/37/6 23/37/6 48/37/6
f  41/37/5 44/37/5 58/37/5
f  58/37/4 44/37/4 41/37/4
f  47/37/2 41/37/2 64/37/2
f  57/37/6 41/37/6 58/37/6
f  58/37/3 41/37/3 57/37/3
f  57/37/6 67/37/6 49/37/6
f  54/37/2 64/37/2 41/37/2
f  13/37/2 24/37/2 23/37/2
f  25/37/3 68/37/3 18/37/3
f  32/37/2 25/37/2 9/37/2
f  60/37/5 26/37/5 50/37/5
f  26/37/2 4/37/2 9/37/2
f  57/37/1 50/37/1 58/37/1
f  58/37/1 44/37/1 57/37/1
f  46/37/3 59/37/3 44/37/3
f  44/37/6 59/37/6 46/37/6
f  69/37/4 51/37/4 59/37/4
f  59/37/5 51/37/5 69/37/5
f  67/37/1 57/37/1 51/37/1
f  51/37/1 50/37/1 70/37/1
f  26/37/6 60/37/6 27/37/6
f  33/37/2 4/37/2 28/37/2
f  28/37/2 19/37/2 34/37/2
f  69/37/5 19/37/5 59/37/5
f  52/37/2 68/37/2 59/37/2
f  29/37/2 15/37/2 30/37/2
f  19/37/2 20/37/2 29/37/2
f  21/37/3 15/37/3 54/37/3
f  54/37/2 62/37/2 55/37/2
f  55/37/1 62/37/1 54/37/1
f  56/37/2 68/37/2 52/37/2
f  49/37/1 53/37/1 71/37/1
f  30/37/4 54/37/4 21/37/4
f  21/37/5 54/37/5 30/37/5
f  44/37/5 72/37/5 54/37/5
f  54/37/4 72/37/4 44/37/4
f  65/37/2 53/37/2 61/37/2
f  61/37/1 53/37/1 65/37/1
f  61/37/6 24/37/6 53/37/6
f  61/37/1 71/37/1 53/37/1
f  61/37/2 68/37/2 56/37/2
f  56/37/2 62/37/2 69/37/2
f  69/37/1 62/37/1 56/37/1
f  73/37/6 56/37/6 63/37/6
f  15/37/2 21/37/2 30/37/2
f  16/37/4 64/37/4 30/37/4
f  16/37/3 31/37/3 64/37/3
f  35/37/2 31/37/2 22/37/2
f  64/37/4 22/37/4 66/37/4
f  66/37/5 22/37/5 64/37/5
f  47/37/2 53/37/2 65/37/2
f  65/37/1 53/37/1 47/37/1
f  65/37/5 17/37/5 74/37/5
f  32/37/2 17/37/2 24/37/2
f  23/37/6 53/37/6 24/37/6
f  44/37/5 47/37/5 66/37/5
f  66/37/4 47/37/4 44/37/4
f  22/37/6 66/37/6 35/37/6
f  64/37/2 66/37/2 47/37/2
f  71/37/6 49/37/6 67/37/6
f  67/37/1 50/37/1 57/37/1
f  64/37/2 54/37/2 72/37/2
f  61/37/6 75/37/6 24/37/6
f  71/37/3 18/37/3 68/37/3
f  25/37/5 32/37/5 68/37/5
f  9/37/2 4/37/2 32/37/2
f  76/37/4 51/37/4 69/37/4
f  69/37/5 51/37/5 76/37/5
f  59/37/2 76/37/2 69/37/2
f  70/37/1 67/37/1 51/37/1
f  70/37/1 50/37/1 67/37/1
f  51/37/4 68/37/4 70/37/4
f  70/37/5 68/37/5 51/37/5
f  35/37/2 4/37/2 33/37/2
f  28/37/5 76/37/5 33/37/5
f  34/37/2 19/37/2 29/37/2
f  34/37/6 77/37/6 28/37/6
f  69/37/3 56/37/3 19/37/3
f  59/37/2 68/37/2 76/37/2
f  20/37/3 19/37/3 56/37/3
f  30/37/6 72/37/6 29/37/6
f  62/37/2 54/37/2 72/37/2
f  72/37/1 54/37/1 62/37/1
f  54/37/4 30/37/4 72/37/4
f  72/37/5 30/37/5 54/37/5
f  44/37/5 64/37/5 72/37/5
f  72/37/4 64/37/4 44/37/4
f  65/37/2 61/37/2 75/37/2
f  75/37/1 61/37/1 65/37/1
f  68/37/2 61/37/2 71/37/2
f  69/37/2 62/37/2 77/37/2
f  77/37/1 62/37/1 69/37/1
f  72/37/4 30/37/4 64/37/4
f  78/37/3 64/37/3 31/37/3
f  36/37/2 31/37/2 35/37/2
f  44/37/5 66/37/5 64/37/5
f  64/37/4 66/37/4 44/37/4
f  74/37/2 64/37/2 66/37/2
f  66/37/1 64/37/1 74/37/1
f  35/37/5 74/37/5 17/37/5
f  65/37/4 51/37/4 74/37/4
f  74/37/5 51/37/5 65/37/5
f  74/37/2 75/37/2 65/37/2
f  32/37/2 4/37/2 17/37/2
f  32/37/6 24/37/6 75/37/6
f  74/37/6 35/37/6 66/37/6
f  70/37/6 71/37/6 67/37/6
f  67/37/3 71/37/3 70/37/3
f  71/37/6 70/37/6 68/37/6
f  68/37/3 70/37/3 71/37/3
f  75/37/5 68/37/5 32/37/5
f  79/37/4 51/37/4 76/37/4
f  76/37/5 51/37/5 79/37/5
f  69/37/2 77/37/2 76/37/2
f  76/37/1 77/37/1 69/37/1
f  68/37/4 51/37/4 75/37/4
f  75/37/5 51/37/5 68/37/5
f  17/37/2 4/37/2 35/37/2
f  33/37/2 36/37/2 35/37/2
f  79/37/5 33/37/5 76/37/5
f  76/37/6 28/37/6 77/37/6
f  31/37/2 34/37/2 29/37/2
f  29/37/6 62/37/6 34/37/6
f  77/37/6 34/37/6 62/37/6
f  75/37/2 76/37/2 68/37/2
f  62/37/6 29/37/6 72/37/6
f  75/37/4 51/37/4 65/37/4
f  65/37/5 51/37/5 75/37/5
f  62/37/2 78/37/2 77/37/2
f  64/37/2 74/37/2 78/37/2
f  78/37/1 74/37/1 64/37/1
f  34/37/2 31/37/2 36/37/2
f  74/37/4 51/37/4 79/37/4
f  79/37/5 51/37/5 74/37/5
f  76/37/2 75/37/2 74/37/2
f  79/37/2 76/37/2 74/37/2
f  36/37/3 33/37/3 80/37/3
f  79/37/3 80/37/3 33/37/3
f  80/37/2 77/37/2 78/37/2
f  78/37/2 74/37/2 80/37/2
f  80/37/1 74/37/1 78/37/1
f  80/37/2 74/37/2 79/37/2
f  79/37/1 74/37/1 80/37/1
f  78/37/6 81/37/6 80/37/6
f  82/37/6 80/37/6 81/37/6

# Mesh 'mesh1_mesh1-geometry' with 128 faces
g mesh1_mesh1-geometry
usemtl material_2_2_8
f  37/38/6 4/39/6 1/37/6
f  3/40/5 38/41/5 6/42/5
f  4/39/6 37/38/6 39/43/6
f  10/44/4 37/43/4 1/39/4
f  40/45/3 2/46/3 7/47/3
f  8/48/5 41/49/5 5/46/5
f  9/40/3 42/50/3 3/51/3
f  6/39/3 43/52/3 10/40/3
f  38/41/5 3/40/5 42/52/5
f  43/52/3 6/39/3 38/53/3
f  37/39/2 44/54/2 39/55/2
f  45/56/5 4/39/5 39/53/5
f  37/43/4 10/44/4 43/57/4
f  11/39/3 40/58/3 7/40/3
f  2/46/3 40/45/3 46/49/3
f  55/59/5 7/60/5 40/61/5
f  40/62/4 7/63/4 55/64/4
f  41/49/5 8/48/5 48/65/5
f  49/66/6 5/46/6 41/67/6
f  5/46/6 49/66/6 13/68/6
f  42/50/3 9/40/3 50/52/3
f  37/39/2 38/69/2 42/70/2
f  38/69/2 37/39/2 43/44/2
f  37/39/2 42/70/2 44/54/2
f  39/55/2 44/54/2 51/71/2
f  4/39/5 45/56/5 27/44/5
f  39/55/2 50/72/2 45/73/2
f  14/63/3 52/74/3 11/75/3
f  7/60/5 55/59/5 15/76/5
f  15/77/4 55/64/4 7/63/4
f  40/58/3 11/39/3 52/78/3
f  40/79/1 53/80/1 46/54/1
f  54/64/5 2/63/5 46/62/5
f  55/81/1 53/80/1 40/79/1
f  56/82/2 40/83/2 55/84/2
f  47/67/6 17/63/6 12/46/6
f  22/85/5 47/86/5 12/87/5
f  48/88/1 47/89/1 41/90/1
f  49/91/1 41/90/1 54/92/1
f  23/48/5 49/49/5 13/46/5
f  13/46/4 49/49/4 23/48/4
f  26/44/4 50/38/4 9/37/4
f  50/72/2 58/90/2 42/70/2
f  44/54/2 42/70/2 58/90/2
f  44/54/2 57/91/2 51/71/2
f  39/55/2 51/71/2 50/72/2
f  60/52/3 27/39/3 45/53/3
f  45/73/2 50/72/2 60/93/2
f  19/77/4 59/94/4 14/63/4
f  52/74/3 14/63/3 59/62/3
f  20/76/4 52/95/4 11/60/4
f  11/63/5 52/94/5 20/77/5
f  40/83/2 56/82/2 52/96/2
f  53/80/1 49/91/1 46/54/1
f  2/63/5 54/64/5 21/77/5
f  46/54/1 49/91/1 54/92/1
f  53/80/1 55/81/1 61/97/1
f  56/98/1 61/97/1 55/81/1
f  56/78/3 63/52/3 55/58/3
f  17/63/6 47/67/6 65/94/6
f  47/86/5 22/85/5 66/99/5
f  64/100/1 41/90/1 47/89/1
f  49/58/3 67/53/3 57/52/3
f  41/90/1 64/100/1 54/92/1
f  49/49/5 23/48/5 53/65/5
f  53/65/4 23/48/4 49/49/4
f  18/46/4 61/101/4 24/48/4
f  24/48/5 61/101/5 18/46/5
f  18/102/6 68/94/6 25/63/6
f  50/38/4 26/44/4 60/57/4
f  58/90/2 50/72/2 57/91/2
f  57/91/2 44/54/2 58/90/2
f  51/71/2 57/91/2 67/103/2
f  70/104/2 50/72/2 51/71/2
f  27/39/3 60/52/3 26/40/3
f  59/94/4 19/77/4 69/105/4
f  59/71/1 68/104/1 52/106/1
f  52/95/4 20/76/4 56/107/4
f  56/105/5 20/77/5 52/94/5
f  52/106/1 68/104/1 56/98/1
f  71/103/2 53/80/2 49/91/2
f  53/108/3 24/102/3 61/109/3
f  53/80/2 71/103/2 61/97/2
f  56/98/1 68/104/1 61/97/1
f  63/52/3 56/78/3 73/53/3
f  30/110/5 64/111/5 16/112/5
f  64/67/6 31/113/6 16/46/6
f  74/114/4 17/87/4 65/115/4
f  24/102/3 53/108/3 23/68/3
f  47/89/1 66/116/1 64/100/1
f  67/53/3 49/58/3 71/78/3
f  57/91/2 50/72/2 67/103/2
f  72/117/1 54/92/1 64/100/1
f  61/101/4 18/46/4 71/67/4
f  71/67/5 18/46/5 61/101/5
f  68/94/6 18/102/6 71/118/6
f  68/67/4 32/48/4 25/46/4
f  69/119/1 76/120/1 59/71/1
f  51/71/2 67/103/2 70/104/2
f  67/103/2 50/72/2 70/104/2
f  33/112/4 76/121/4 28/110/4
f  76/120/1 68/104/1 59/71/1
f  71/103/1 61/97/1 68/104/1
f  64/111/5 30/110/5 72/122/5
f  31/113/6 64/67/6 78/123/6
f  17/87/4 74/114/4 35/85/4
f  65/124/1 75/125/1 74/126/1
f  32/48/4 68/67/4 75/101/4
f  76/121/4 33/112/4 79/127/4
f  34/39/3 62/58/3 29/40/3
f  62/58/3 34/39/3 77/78/3
f  36/128/4 77/129/4 34/130/4
f  34/110/5 77/121/5 36/112/5
f  68/104/1 76/120/1 75/125/1
f  77/131/1 78/132/1 62/133/1
f  29/130/5 78/134/5 31/128/5
f  31/112/4 78/111/4 29/110/4
f  74/126/1 75/125/1 76/120/1
f  74/126/1 76/120/1 79/135/1
f  80/136/6 33/63/6 36/137/6
f  33/63/6 80/136/6 79/94/6
f  78/134/5 29/130/5 62/138/5
f  62/122/4 29/110/4 78/111/4
f  77/129/4 36/128/4 80/139/4
f  80/127/5 36/112/5 77/121/5
f  78/132/1 77/131/1 80/140/1
f  80/78/3 81/52/3 78/58/3
f  81/52/3 80/78/3 82/53/3

# Mesh 'mesh1_mesh1-geometry' with 14 faces
g mesh1_mesh1-geometry
usemtl material_3_3_8
f  23/141/3 48/142/3 8/143/3
f  15/144/6 54/145/6 55/146/6
f  48/142/3 23/141/3 53/147/3
f  54/145/6 15/144/6 21/143/6
f  35/148/3 66/142/3 22/143/3
f  24/149/3 75/150/3 61/151/3
f  28/148/3 77/152/3 34/153/3
f  19/148/6 56/154/6 69/155/6
f  56/154/6 19/148/6 20/156/6
f  29/157/3 72/142/3 30/143/3
f  75/150/3 24/149/3 32/148/3
f  66/142/3 35/148/3 74/150/3
f  77/152/3 28/148/3 76/150/3
f  72/142/3 29/157/3 62/158/3

# Mesh 'mesh2_mesh2-geometry' with 1 faces
g mesh2_mesh2-geometry
usemtl material_1_0
l  46 44

# Mesh 'mesh3_mesh3-geometry' with 1 faces
g mesh3_mesh3-geometry
usemtl material_1_0
l  59 51

# Mesh 'mesh4_mesh4-geometry' with 1 faces
g mesh4_mesh4-geometry
usemtl material_1_0
l  68 70

# Mesh 'mesh5_mesh5-geometry' with 1 faces
g mesh5_mesh5-geometry
usemtl material_1_0
l  41 58

# Mesh 'mesh6_mesh6-geometry' with 1 faces
g mesh6_mesh6-geometry
usemtl material_1_0
l  76 77

# Mesh 'mesh7_mesh7-geometry' with 1 faces
g mesh7_mesh7-geometry
usemtl material_1_0
l  69 56

# Mesh 'mesh8_mesh8-geometry' with 1 faces
g mesh8_mesh8-geometry
usemtl material_1_0
l  79 80

# Mesh 'mesh9_mesh9-geometry' with 1 faces
g mesh9_mesh9-geometry
usemtl material_1_0
l  75 61

# Mesh 'mesh10_mesh10-geometry' with 1 faces
g mesh10_mesh10-geometry
usemtl material_1_0
l  65 47

# Mesh 'mesh11_mesh11-geometry' with 1 faces
g mesh11_mesh11-geometry
usemtl material_1_0
l  78 64

# Mesh 'mesh12_mesh12-geometry' with 1 faces
g mesh12_mesh12-geometry
usemtl material_1_0
l  55 54

# Mesh 'mesh13_mesh13-geometry' with 1 faces
g mesh13_mesh13-geometry
usemtl material_1_0
l  57 49

# Mesh 'mesh14_mesh14-geometry' with 1 faces
g mesh14_mesh14-geometry
usemtl material_1_0
l  62 72

# Mesh 'mesh15_mesh15-geometry' with 1 faces
g mesh15_mesh15-geometry
usemtl material_1_0
l  53 48

