# File produced by Open Asset Import Library (http://www.assimp.sf.net)
# (assimp v3.2.202087883)

mtllib model_normalized.mtl

# 96 vertex positions
v 0.323256 -0.002857 -0.015657
v 0.354573 -0.158911 -0.015657
v 0.323256 -0.158911 -0.015657
v 0.354573 -0.002857 -0.015657
v 0.323256 -0.158911 0.015657
v 0.354573 -0.002857 0.015657
v 0.323256 -0.002857 0.015657
v 0.354573 -0.158911 0.015657
v 0.376115 -0.158911 0.037202
v 0.301715 -0.166380 0.037202
v 0.376115 -0.166380 0.037202
v 0.301715 -0.158911 0.037202
v 0.376115 -0.166380 -0.037201
v 0.301715 -0.158911 -0.037201
v 0.376115 -0.158911 -0.037201
v 0.301715 -0.166380 -0.037201
v -0.354573 -0.002857 -0.015657
v -0.323258 -0.158911 -0.015657
v -0.354573 -0.158911 -0.015657
v -0.323258 -0.002857 -0.015657
v -0.354573 -0.158911 0.015657
v -0.323258 -0.002857 0.015657
v -0.354573 -0.002857 0.015657
v -0.323258 -0.158911 0.015657
v -0.301714 -0.158911 0.037202
v -0.376117 -0.166380 0.037202
v -0.301714 -0.166380 0.037202
v -0.376117 -0.158911 0.037202
v -0.301714 -0.166380 -0.037201
v -0.376117 -0.158911 -0.037201
v -0.301714 -0.158911 -0.037201
v -0.376117 -0.166380 -0.037201
v 0.429459 0.069530 -0.019571
v 0.390317 0.036286 -0.019571
v 0.390317 0.069530 -0.019571
v 0.429459 -0.002857 -0.019571
v 0.390317 0.069530 0.019572
v -0.390317 0.036286 -0.019571
v 0.429459 -0.002857 0.019572
v 0.390317 0.036286 0.019572
v 0.429459 0.069530 0.019572
v -0.429461 -0.002857 -0.019571
v -0.390317 0.036286 0.019572
v -0.390317 0.069530 -0.019571
v -0.429461 -0.002857 0.019572
v -0.429461 0.069530 -0.019571
v -0.390317 0.069530 0.019572
v -0.429461 0.069530 0.019572
v 0.477984 0.040248 -0.044504
v 0.477984 0.080080 0.044504
v 0.477984 0.040248 0.044504
v 0.477984 0.080080 -0.044504
v 0.473274 0.080080 0.062084
v 0.473274 0.040248 -0.062084
v 0.473274 0.080080 -0.062084
v 0.473274 0.040248 0.062084
v 0.460405 0.080080 0.074953
v 0.464707 0.080080 -0.042756
v 0.460405 0.040248 -0.074953
v 0.460405 0.040248 0.074953
v 0.461366 0.080080 0.055211
v 0.461366 0.080080 -0.055211
v 0.464707 0.080080 0.042756
v 0.460405 0.080080 -0.074953
v 0.442825 0.040248 0.079664
v 0.453531 0.080080 0.063049
v 0.442825 0.080080 -0.079664
v 0.442825 0.080080 0.079664
v 0.453531 0.080080 -0.063049
v 0.442825 0.040248 -0.079664
v -0.442823 0.040248 0.079664
v 0.441074 0.080080 0.066386
v -0.442823 0.080080 -0.079664
v 0.441074 0.080080 -0.066386
v -0.442823 0.080080 0.079664
v -0.441075 0.080080 0.066386
v -0.442823 0.040248 -0.079664
v -0.441075 0.080080 -0.066386
v -0.460403 0.040248 0.074953
v -0.460403 0.080080 -0.074953
v -0.453530 0.080080 -0.063049
v -0.453530 0.080080 0.063049
v -0.460403 0.080080 0.074953
v -0.460403 0.040248 -0.074953
v -0.473273 0.040248 0.062084
v -0.473273 0.040248 -0.062084
v -0.461368 0.080080 -0.055211
v -0.461368 0.080080 0.055211
v -0.473273 0.080080 0.062084
v -0.473273 0.080080 -0.062084
v -0.464706 0.080080 -0.042756
v -0.464706 0.080080 0.042756
v -0.477983 0.080080 0.044504
v -0.477983 0.040248 -0.044504
v -0.477983 0.040248 0.044504
v -0.477983 0.080080 -0.044504

# 17 UV coordinates
vt 0 0 0
vt 8.81929 1.09374 0
vt 8.85444 -0.065739 0
vt 8.85444 0.946329 0
vt 8.73675 1.18651 0
vt 8.73675 -0.305915 0
vt 8.81929 -0.213149 0
vt 8.60559 -0.345414 0
vt 8.60559 1.226 0
vt -0.684051 -0.345414 0
vt -0.684051 1.226 0
vt -0.815211 1.18651 0
vt -0.815211 -0.305915 0
vt -0.897752 -0.213149 0
vt -0.897752 1.09374 0
vt -0.932896 0.946329 0
vt -0.932896 -0.065739 0

# 34 vertex normals
vn -0.0179605 0 -0.0179605
vn 0.0179605 0 -0.0179605
vn -0.0179605 0 0.0179605
vn 0.0179605 0 0.0179605
vn 0 0.0254 0
vn 0 -0.0254 -0
vn 0 0 0.0254
vn 0.0254 0 0
vn -0.0254 0 0
vn 0 0 -0.0254
vn -0.0146647 0.0146647 -0.0146647
vn 0.0146647 -0.0146647 -0.0146647
vn 0.0146647 0.0146647 -0.0146647
vn 0.0146647 -0.0146647 0.0146647
vn -0.0146647 0.0146647 0.0146647
vn -0.0146647 -0.0146647 -0.0146647
vn 0.0146647 0.0146647 0.0146647
vn -0.0146647 -0.0146647 0.0146647
vn 0.0251827 0 -0.00331536
vn 0.0251827 0 0.00331536
vn -0.0251827 0 -0.00331536
vn -0.0251827 -0 0.00331536
vn 0.021997 0 0.0127
vn -0.021997 0 -0.0127
vn 0.021997 0 -0.0127
vn -0.021997 -0 0.0127
vn 0.0127 0 0.021997
vn -0.0127 0 -0.021997
vn 0.0127 0 -0.021997
vn -0.0127 -0 0.021997
vn 0.00331536 0 0.0251827
vn -0.00331536 0 -0.0251827
vn 0.00331536 0 -0.0251827
vn -0.00331536 -0 0.0251827

# Mesh 'mesh1_mesh1-geometry' with 8 faces
g mesh1_mesh1-geometry
usemtl material_0_24
f  1//1 2//2 3//1
f  2//2 1//1 4//2
f  5//3 1//1 3//1
f  6//4 2//2 4//2
f  1//1 5//3 7//3
f  2//2 6//4 8//4
f  5//3 6//4 7//3
f  6//4 5//3 8//4

# Mesh 'mesh1_mesh1-geometry' with 12 faces
g mesh1_mesh1-geometry
usemtl material_1_24
f  3//4 2//3 1//4
f  4//3 1//4 2//3
f  3//4 1//4 5//2
f  1//5 6//5 4//5
f  4//6 6//6 1//6
f  4//3 2//3 6//1
f  7//2 5//2 1//4
f  6//5 1//5 7//5
f  7//6 1//6 6//6
f  8//1 6//1 2//3
f  7//2 6//1 5//2
f  8//1 5//2 6//1

# Mesh 'mesh2_mesh2-geometry' with 10 faces
g mesh2_mesh2-geometry
usemtl material_0_24
f  9//7 10//7 11//7
f  10//7 9//7 12//7
f  13//8 9//8 11//8
f  9//5 14//5 12//5
f  14//9 10//9 12//9
f  9//8 13//8 15//8
f  14//5 9//5 15//5
f  10//9 14//9 16//9
f  13//10 14//10 15//10
f  14//10 13//10 16//10

# Mesh 'mesh2_mesh2-geometry' with 10 faces
g mesh2_mesh2-geometry
usemtl material_1_24
f  11//10 10//10 9//10
f  12//10 9//10 10//10
f  11//9 9//9 13//9
f  12//6 14//6 9//6
f  12//8 10//8 14//8
f  15//9 13//9 9//9
f  15//6 9//6 14//6
f  16//8 14//8 10//8
f  15//7 14//7 13//7
f  16//7 13//7 14//7

# Mesh 'mesh1_mesh1-geometry' with 8 faces
g mesh1_mesh1-geometry
usemtl material_0_24
f  17//1 18//2 19//1
f  18//2 17//1 20//2
f  21//3 17//1 19//1
f  22//4 18//2 20//2
f  17//1 21//3 23//3
f  18//2 22//4 24//4
f  21//3 22//4 23//3
f  22//4 21//3 24//4

# Mesh 'mesh1_mesh1-geometry' with 12 faces
g mesh1_mesh1-geometry
usemtl material_1_24
f  19//4 18//3 17//4
f  20//3 17//4 18//3
f  19//4 17//4 21//2
f  17//5 22//5 20//5
f  20//6 22//6 17//6
f  20//3 18//3 22//1
f  23//2 21//2 17//4
f  22//5 17//5 23//5
f  23//6 17//6 22//6
f  24//1 22//1 18//3
f  23//2 22//1 21//2
f  24//1 21//2 22//1

# Mesh 'mesh2_mesh2-geometry' with 10 faces
g mesh2_mesh2-geometry
usemtl material_0_24
f  25//7 26//7 27//7
f  26//7 25//7 28//7
f  29//8 25//8 27//8
f  25//5 30//5 28//5
f  30//9 26//9 28//9
f  25//8 29//8 31//8
f  30//5 25//5 31//5
f  26//9 30//9 32//9
f  29//10 30//10 31//10
f  30//10 29//10 32//10

# Mesh 'mesh2_mesh2-geometry' with 10 faces
g mesh2_mesh2-geometry
usemtl material_1_24
f  27//10 26//10 25//10
f  28//10 25//10 26//10
f  27//9 25//9 29//9
f  28//6 30//6 25//6
f  28//8 26//8 30//8
f  31//9 29//9 25//9
f  31//6 25//6 30//6
f  32//8 30//8 26//8
f  31//7 30//7 29//7
f  32//7 29//7 30//7

# Mesh 'mesh3_mesh3-geometry' with 28 faces
g mesh3_mesh3-geometry
usemtl material_0_24
f  33//2 34//11 35//1
f  36//12 34//11 33//2
f  34//11 37//3 35//1
f  37//5 33//5 35//5
f  36//12 38//13 34//11
f  33//2 39//14 36//12
f  37//3 34//11 40//15
f  33//5 37//5 41//5
f  42//16 38//13 36//12
f  43//17 34//11 38//13
f  39//14 33//2 41//4
f  39//14 42//16 36//12
f  34//11 43//17 40//15
f  41//4 37//3 40//15
f  42//16 44//2 38//13
f  44//2 43//17 38//13
f  40//15 39//14 41//4
f  42//16 39//14 45//18
f  43//17 39//14 40//15
f  44//2 42//16 46//1
f  43//17 44//2 47//4
f  43//17 45//18 39//14
f  48//3 42//16 45//18
f  42//16 48//3 46//1
f  48//5 44//5 46//5
f  44//5 48//5 47//5
f  47//4 45//18 43//17
f  45//18 47//4 48//3

# Mesh 'mesh3_mesh3-geometry' with 28 faces
g mesh3_mesh3-geometry
usemtl material_1_24
f  35//4 34//14 33//3
f  33//3 34//14 36//15
f  35//4 37//2 34//14
f  35//6 33//6 37//6
f  34//14 38//18 36//15
f  36//15 39//11 33//3
f  40//12 34//14 37//2
f  41//6 37//6 33//6
f  36//15 38//18 42//17
f  38//18 34//14 43//16
f  41//1 33//3 39//11
f  36//15 42//17 39//11
f  40//12 43//16 34//14
f  40//12 37//2 41//1
f  38//18 44//3 42//17
f  38//18 43//16 44//3
f  41//1 39//11 40//12
f  45//13 39//11 42//17
f  40//12 39//11 43//16
f  46//4 42//17 44//3
f  47//1 44//3 43//16
f  39//11 45//13 43//16
f  45//13 42//17 48//2
f  46//4 48//2 42//17
f  46//6 44//6 48//6
f  47//6 48//6 44//6
f  43//16 45//13 47//1
f  48//2 47//1 45//13

# Mesh 'mesh4_mesh4-geometry' with 128 faces
g mesh4_mesh4-geometry
usemtl material_2_24
f  49/1/19 50/1/20 51/1/20
f  50/1/20 49/1/19 52/1/19
f  51/1/21 50/1/21 49/1/22
f  52/1/22 49/1/22 50/1/21
f  53/1/23 51/1/20 50/1/20
f  50/1/21 51/1/21 53/1/24
f  54/1/25 52/1/19 49/1/19
f  49/1/22 52/1/22 54/1/26
f  55/1/5 50/1/5 52/1/5
f  52/1/6 50/1/6 55/1/6
f  51/1/20 53/1/23 56/1/23
f  56/1/24 53/1/24 51/1/21
f  55/1/5 53/1/5 50/1/5
f  50/1/6 53/1/6 55/1/6
f  52/1/19 54/1/25 55/1/25
f  55/1/26 54/1/26 52/1/22
f  57/1/27 56/1/23 53/1/23
f  53/1/24 56/1/24 57/1/28
f  55/1/5 58/1/5 53/1/5
f  53/1/6 58/1/6 55/1/6
f  59/1/29 55/1/25 54/1/25
f  54/1/26 55/1/26 59/1/30
f  56/1/23 57/1/27 60/1/27
f  60/1/28 57/1/28 56/1/24
f  61/1/5 57/1/5 53/1/5
f  53/1/6 57/1/6 61/1/6
f  55/1/5 62/1/5 58/1/5
f  58/1/6 62/1/6 55/1/6
f  63/1/5 53/1/5 58/1/5
f  58/1/6 53/1/6 63/1/6
f  55/1/25 59/1/29 64/1/29
f  64/1/30 59/1/30 55/1/26
f  57/1/27 65/1/31 60/1/27
f  60/1/28 65/1/32 57/1/28
f  66/1/5 57/1/5 61/1/5
f  61/1/6 57/1/6 66/1/6
f  61/1/5 53/1/5 63/1/5
f  63/1/6 53/1/6 61/1/6
f  64/1/5 62/1/5 55/1/5
f  55/1/6 62/1/6 64/1/6
f  59/1/29 67/1/33 64/1/29
f  64/1/30 67/1/34 59/1/30
f  65/1/31 57/1/27 68/1/31
f  68/1/32 57/1/28 65/1/32
f  66/1/5 68/1/5 57/1/5
f  57/1/6 68/1/6 66/1/6
f  64/1/5 69/1/5 62/1/5
f  62/1/6 69/1/6 64/1/6
f  67/1/33 59/1/29 70/1/33
f  70/1/34 59/1/30 67/1/34
f  67/1/5 69/1/5 64/1/5
f  64/1/6 69/1/6 67/1/6
f  68/1/31 71/1/34 65/1/31
f  65/1/32 71/1/33 68/1/32
f  72/1/5 68/1/5 66/1/5
f  66/1/6 68/1/6 72/1/6
f  70/1/33 73/1/32 67/1/33
f  67/1/34 73/1/31 70/1/34
f  67/1/5 74/1/5 69/1/5
f  69/1/6 74/1/6 67/1/6
f  71/1/34 68/1/31 75/1/34
f  75/1/33 68/1/32 71/1/33
f  76/1/5 68/1/5 72/1/5
f  72/1/6 68/1/6 76/1/6
f  73/1/32 70/1/33 77/1/32
f  77/1/31 70/1/34 73/1/31
f  73/1/5 78/1/5 67/1/5
f  67/1/6 78/1/6 73/1/6
f  67/1/5 78/1/5 74/1/5
f  74/1/6 78/1/6 67/1/6
f  76/1/5 75/1/5 68/1/5
f  68/1/6 75/1/6 76/1/6
f  75/1/34 79/1/30 71/1/34
f  71/1/33 79/1/29 75/1/33
f  77/1/32 80/1/28 73/1/32
f  73/1/31 80/1/27 77/1/31
f  73/1/5 81/1/5 78/1/5
f  78/1/6 81/1/6 73/1/6
f  82/1/5 75/1/5 76/1/5
f  76/1/6 75/1/6 82/1/6
f  79/1/30 75/1/34 83/1/30
f  83/1/29 75/1/33 79/1/29
f  80/1/28 77/1/32 84/1/28
f  84/1/27 77/1/31 80/1/27
f  80/1/5 81/1/5 73/1/5
f  73/1/6 81/1/6 80/1/6
f  82/1/5 83/1/5 75/1/5
f  75/1/6 83/1/6 82/1/6
f  83/1/30 85/1/26 79/1/30
f  79/1/29 85/1/25 83/1/29
f  86/1/24 80/1/28 84/1/28
f  84/1/27 80/1/27 86/1/23
f  80/1/5 87/1/5 81/1/5
f  81/1/6 87/1/6 80/1/6
f  88/1/5 83/1/5 82/1/5
f  82/1/6 83/1/6 88/1/6
f  85/1/26 83/1/30 89/1/26
f  89/1/25 83/1/29 85/1/25
f  80/1/28 86/1/24 90/1/24
f  90/1/23 86/1/23 80/1/27
f  80/1/5 91/1/5 87/1/5
f  87/1/6 91/1/6 80/1/6
f  92/1/5 83/1/5 88/1/5
f  88/1/6 83/1/6 92/1/6
f  83/1/5 92/1/5 89/1/5
f  89/1/6 92/1/6 83/1/6
f  93/1/22 85/1/26 89/1/26
f  89/1/25 85/1/25 93/1/19
f  94/1/21 90/1/24 86/1/24
f  86/1/23 90/1/23 94/1/20
f  90/1/5 91/1/5 80/1/5
f  80/1/6 91/1/6 90/1/6
f  91/1/5 89/1/5 92/1/5
f  92/1/6 89/1/6 91/1/6
f  85/1/26 93/1/22 95/1/22
f  95/1/19 93/1/19 85/1/25
f  89/1/5 96/1/5 93/1/5
f  93/1/6 96/1/6 89/1/6
f  90/1/24 94/1/21 96/1/21
f  96/1/20 94/1/20 90/1/23
f  90/1/5 89/1/5 91/1/5
f  91/1/6 89/1/6 90/1/6
f  96/1/21 95/1/22 93/1/22
f  93/1/19 95/1/19 96/1/20
f  96/1/5 89/1/5 90/1/5
f  90/1/6 89/1/6 96/1/6
f  95/1/22 96/1/21 94/1/21
f  94/1/20 96/1/20 95/1/19

# Mesh 'mesh4_mesh4-geometry' with 28 faces
g mesh4_mesh4-geometry
usemtl material_3_1_8
f  62/2/5 63/3/5 58/4/5
f  58/4/6 63/3/6 62/2/6
f  69/5/5 66/6/5 61/7/5
f  61/7/6 66/6/6 69/5/6
f  62/2/5 61/7/5 63/3/5
f  63/3/6 61/7/6 62/2/6
f  69/5/5 72/8/5 66/6/5
f  66/6/6 72/8/6 69/5/6
f  69/5/5 61/7/5 62/2/5
f  62/2/6 61/7/6 69/5/6
f  74/9/5 72/8/5 69/5/5
f  69/5/6 72/8/6 74/9/6
f  74/9/5 76/10/5 72/8/5
f  72/8/6 76/10/6 74/9/6
f  78/11/5 76/10/5 74/9/5
f  74/9/6 76/10/6 78/11/6
f  81/12/5 76/10/5 78/11/5
f  78/11/6 76/10/6 81/12/6
f  81/12/5 82/13/5 76/10/5
f  76/10/6 82/13/6 81/12/6
f  81/12/5 88/14/5 82/13/5
f  82/13/6 88/14/6 81/12/6
f  87/15/5 88/14/5 81/12/5
f  81/12/6 88/14/6 87/15/6
f  91/16/5 88/14/5 87/15/5
f  87/15/6 88/14/6 91/16/6
f  88/14/5 91/16/5 92/17/5
f  92/17/6 91/16/6 88/14/6

