# File produced by Open Asset Import Library (http://www.assimp.sf.net)
# (assimp v3.2.202087883)

mtllib model_normalized.mtl

# 150 vertex positions
v 0.122773 -0.459956 0.440021
v -0.046621 -0.476896 0.440021
v 0.122773 -0.476896 0.440021
v -0.046621 -0.459956 0.440021
v 0.122773 -0.476896 -0.096393
v -0.046621 -0.459956 -0.096393
v -0.046621 -0.476896 -0.096393
v 0.122773 -0.459956 -0.096393
v -0.063560 0.211973 -0.096393
v -0.063560 -0.476896 0.440021
v -0.063560 0.211973 0.440021
v -0.063560 -0.476896 -0.096393
v -0.046621 0.211973 0.440021
v -0.046621 0.211973 -0.096393
v 0.139712 -0.476896 -0.096393
v 0.139712 0.211973 0.440021
v 0.139712 -0.476896 0.440021
v 0.139712 0.211973 -0.096393
v 0.122773 0.211973 -0.096393
v 0.122773 0.211973 0.440021
v 0.122773 0.195034 0.428728
v -0.046621 -0.459956 0.428728
v 0.122773 -0.459956 0.428728
v -0.046621 0.195034 0.428728
v 0.122773 -0.459956 0.425905
v -0.046621 0.195034 0.425905
v -0.046621 -0.459956 0.425905
v 0.122773 0.195034 0.425905
v -0.046621 0.104690 0.440021
v -0.046621 0.195034 0.440021
v -0.046621 0.104690 0.428728
v 0.122773 0.195034 0.440021
v 0.122773 0.104690 0.428728
v 0.122773 0.104690 0.440021
v 0.122773 0.195034 0.428728
v -0.046621 0.065165 -0.079454
v -0.046621 0.211973 -0.079454
v -0.046621 0.065165 -0.096393
v 0.122773 0.211973 -0.079454
v 0.122773 0.065165 -0.096393
v 0.122773 0.065165 -0.079454
v 0.122773 0.211973 -0.096393
v 0.122773 0.195034 0.349678
v 0.122773 0.195034 0.440021
v 0.122773 0.211973 0.349678
v -0.046621 0.211973 0.349678
v -0.046621 0.195034 0.349678
v -0.063560 -0.476896 -0.028635
v -0.063560 -0.567239 0.440021
v -0.063560 -0.567239 -0.028635
v 0.139712 -0.567239 -0.028635
v 0.139712 -0.567239 0.440021
v 0.139712 -0.476896 -0.028635
v 0.138301 -0.476896 -0.116156
v 0.138301 0.206326 -0.096393
v 0.138301 -0.476896 -0.096393
v 0.138301 0.206326 -0.116156
v -0.062149 -0.476896 -0.096393
v -0.062149 0.206326 -0.116156
v -0.062149 0.206326 -0.096393
v -0.062149 -0.476896 -0.116156
v -0.028270 0.130141 -0.152858
v -0.025825 0.133914 -0.150846
v -0.025825 0.130011 -0.151446
v -0.028270 0.134659 -0.152163
v -0.025825 0.123684 -0.151446
v -0.030715 0.133914 -0.150846
v -0.025825 0.136970 -0.148061
v -0.025825 0.123684 -0.148622
v -0.028270 0.123684 -0.152858
v -0.030715 0.130011 -0.151446
v -0.028270 0.138415 -0.148741
v -0.025825 0.132422 -0.148212
v -0.025825 0.129752 -0.148622
v -0.030715 0.123684 -0.151446
v -0.030715 0.136970 -0.148061
v -0.025825 0.137628 -0.144506
v -0.025825 0.134079 -0.146703
v -0.028270 0.129622 -0.147211
v -0.030715 0.129752 -0.148622
v -0.030715 0.132422 -0.148212
v -0.028270 0.139178 -0.144624
v -0.028270 0.132633 -0.146023
v -0.028270 0.131677 -0.146896
v -0.028270 0.123684 -0.147211
v -0.030715 0.123684 -0.148622
v -0.030715 0.134079 -0.146703
v -0.030715 0.137628 -0.144506
v -0.025825 0.137628 -0.116156
v -0.025825 0.134530 -0.144270
v -0.028270 0.139178 -0.116156
v -0.028270 0.132980 -0.144151
v -0.030715 0.134530 -0.144270
v -0.030715 0.137628 -0.116156
v -0.025825 0.136079 -0.116156
v -0.028270 0.132980 -0.116156
v -0.030715 0.134530 -0.116156
v -0.030715 0.136079 -0.116156
v -0.025825 0.134530 -0.116156
v -0.028270 0.061782 -0.147214
v -0.030715 0.124786 -0.148622
v -0.030715 0.061782 -0.148625
v -0.028270 0.124786 -0.147211
v -0.030715 0.124786 -0.151446
v -0.025825 0.124786 -0.148622
v -0.030715 0.061782 -0.151448
v -0.025825 0.061782 -0.148625
v -0.028270 0.124786 -0.152858
v -0.025825 0.124786 -0.151446
v -0.028270 0.061782 -0.152860
v -0.025825 0.061782 -0.151448
v -0.025825 0.052264 -0.116156
v -0.028270 0.053814 -0.144151
v -0.028270 0.053814 -0.116156
v -0.025825 0.052264 -0.144270
v -0.030715 0.052264 -0.144270
v -0.025825 0.049166 -0.144506
v -0.025825 0.052715 -0.146703
v -0.030715 0.052264 -0.116156
v -0.030715 0.052715 -0.146703
v -0.025825 0.049166 -0.116156
v -0.028270 0.054161 -0.146023
v -0.030715 0.049166 -0.116156
v -0.030715 0.049166 -0.144506
v -0.028270 0.047616 -0.116156
v -0.025825 0.049824 -0.148061
v -0.028270 0.055118 -0.146896
v -0.030715 0.054373 -0.148212
v -0.030715 0.049824 -0.148061
v -0.028270 0.047616 -0.144624
v -0.025825 0.054373 -0.148212
v -0.028270 0.048379 -0.148741
v -0.025825 0.052880 -0.150846
v -0.025825 0.057043 -0.148622
v -0.030715 0.057043 -0.148622
v -0.030715 0.052880 -0.150846
v -0.028270 0.052135 -0.152163
v -0.028270 0.057173 -0.147211
v -0.025825 0.063110 -0.148622
v -0.030715 0.063110 -0.148622
v -0.030715 0.063110 -0.151446
v -0.028270 0.056653 -0.152858
v -0.025825 0.063110 -0.151446
v -0.028270 0.063110 -0.147211
v -0.030715 0.056783 -0.151446
v -0.025825 0.056783 -0.151446
v -0.028270 0.063110 -0.152858
v -0.040975 -0.567239 0.417435
v -0.040975 -0.567239 0.440021
v -0.063560 -0.567239 0.417435

# 0 UV coordinates

# 90 vertex normals
vn 0 0 0.0254
vn 0 -0.0254 0
vn 0.0254 0 0
vn 0 0.0254 0
vn -0.0254 0 0
vn 0 0 -0.0254
vn 0 0 0.00423334
vn 0 0 -0.00423334
vn -0.0066261 0 0
vn 0.0066261 0 0
vn -0.0141111 0 0
vn 0 0.0275167 0
vn 0 -0.0275167 0
vn 0.0141111 0 0
vn 0 0 0.00427789
vn 0 0 -0.00427789
vn 0.0196022 0 0
vn -0.0196022 -0 0
vn 0 0 0.04445
vn 0 0 -0.04445
vn 0 -0.0321822 0
vn 0 0.0321822 0
vn 0 0.00232798 -0.0253113
vn 0.019593 0.00813438 -0.0143648
vn 0.0192293 0.00152097 -0.016537
vn 0 0.0127824 -0.0225729
vn 0.021997 0 -0.0127
vn -0.019593 0.00813438 -0.0143648
vn 0.019593 0.0157669 -0.00741106
vn 0.021997 0 0.0127
vn -0.0192293 0.00152097 -0.016537
vn 0 0.024776 -0.0116457
vn 0.019593 -0.00813438 0.0143648
vn 0.0192293 -0.00152097 0.016537
vn -0.021997 0 -0.0127
vn -0.019593 0.0157669 -0.00741106
vn 0.0192293 0.018151 -0.00138572
vn 0.019593 -0.0157669 0.00741106
vn 0 -0.00232798 0.0253113
vn -0.0192293 -0.00152097 0.016537
vn -0.019593 -0.00813438 0.0143648
vn 0 0.0277817 -0.00212098
vn 0 -0.024776 0.0116457
vn 0 -0.0127824 0.0225729
vn -0.021997 -0 0.0127
vn -0.019593 -0.0157669 0.00741106
vn -0.0192293 0.018151 -0.00138572
vn 0.021997 0.0139395 0
vn 0.0192293 -0.018151 0.00138572
vn 0 0.027879 0
vn 0 -0.0277817 0.00212098
vn -0.0192293 -0.018151 0.00138572
vn -0.021997 0.0139395 0
vn 0.0253999 0 0
vn 0 -0.027879 0
vn -0.021997 -0.0139395 -0
vn -0.0253999 0 -0
vn 0.021997 -0.0139395 0
vn 0 -8.96304e-07 0.0254
vn -0.0219971 -4.48152e-07 0.0127
vn -0.0219971 4.48152e-07 -0.0127
vn 0.0219971 -4.48152e-07 0.0127
vn 0 8.96304e-07 -0.0254
vn 0.0219971 4.48152e-07 -0.0127
vn 0 0.0277817 0.00212098
vn 0.0192293 0.018151 0.00138572
vn -0.0192293 0.018151 0.00138572
vn 0.0192293 -0.018151 -0.00138572
vn 0.019593 0.0157669 0.00741106
vn -0.019593 0.0157669 0.00741106
vn 0 0.024776 0.0116457
vn -0.0192293 -0.018151 -0.00138572
vn 0.019593 -0.0157669 -0.00741106
vn 0 0.0127824 0.0225729
vn -0.019593 0.00813438 0.0143648
vn -0.019593 -0.0157669 -0.00741106
vn 0 -0.0274902 -0.00422714
vn 0.019593 0.00813438 0.0143648
vn 0 -0.024776 -0.0116457
vn 0.019593 -0.00813438 -0.0143648
vn 0.0192293 0.00152097 0.016537
vn -0.0192293 0.00152097 0.016537
vn -0.019593 -0.00813438 -0.0143648
vn 0 -0.0127824 -0.0225729
vn 0 0.00232798 0.0253113
vn 0 -0.00232798 -0.0253113
vn -0.0192293 -0.00152097 -0.016537
vn 0.0192293 -0.00152097 -0.016537
vn 0 -0.0277817 -0.00212098
vn 0 0.0274902 0.00422714

# Mesh 'mesh1_mesh1-geometry' with 10 faces
g mesh1_mesh1-geometry
usemtl material_0_24
f  1//1 2//1 3//1
f  2//1 1//1 4//1
f  2//2 5//2 3//2
f  5//3 1//3 3//3
f  1//4 6//4 4//4
f  6//5 2//5 4//5
f  5//2 2//2 7//2
f  1//3 5//3 8//3
f  6//4 1//4 8//4
f  2//5 6//5 7//5

# Mesh 'mesh1_mesh1-geometry' with 14 faces
g mesh1_mesh1-geometry
usemtl material_1_24
f  3//6 2//6 1//6
f  4//6 1//6 2//6
f  3//4 5//4 2//4
f  3//5 1//5 5//5
f  4//2 6//2 1//2
f  4//3 2//3 6//3
f  7//4 2//4 5//4
f  8//5 5//5 1//5
f  8//2 1//2 6//2
f  7//3 6//3 2//3
f  6//6 5//6 7//6
f  7//1 5//1 6//1
f  5//6 6//6 8//6
f  8//1 6//1 5//1

# Mesh 'mesh2_mesh2-geometry' with 3 faces
g mesh2_mesh2-geometry
usemtl material_1_0
l  5 7
l  7 6
l  8 6

# Mesh 'mesh3_mesh3-geometry' with 2 faces
g mesh3_mesh3-geometry
usemtl material_0_24
f  9//5 10//5 11//5
f  10//5 9//5 12//5

# Mesh 'mesh3_mesh3-geometry' with 2 faces
g mesh3_mesh3-geometry
usemtl material_1_24
f  11//3 10//3 9//3
f  12//3 9//3 10//3

# Mesh 'mesh4_mesh4-geometry' with 8 faces
g mesh4_mesh4-geometry
usemtl material_0_24
f  7//3 13//3 2//3
f  13//3 7//3 14//3
f  13//1 10//1 2//1
f  2//2 12//2 7//2
f  9//4 13//4 14//4
f  10//1 13//1 11//1
f  12//2 2//2 10//2
f  13//4 9//4 11//4

# Mesh 'mesh4_mesh4-geometry' with 12 faces
g mesh4_mesh4-geometry
usemtl material_1_24
f  2//5 13//5 7//5
f  14//5 7//5 13//5
f  2//6 10//6 13//6
f  7//4 12//4 2//4
f  7//6 9//6 14//6
f  14//1 9//1 7//1
f  14//2 13//2 9//2
f  11//6 13//6 10//6
f  10//4 2//4 12//4
f  9//6 7//6 12//6
f  12//1 7//1 9//1
f  11//2 9//2 13//2

# Mesh 'mesh5_mesh5-geometry' with 2 faces
g mesh5_mesh5-geometry
usemtl material_0_24
f  15//3 16//3 17//3
f  16//3 15//3 18//3

# Mesh 'mesh5_mesh5-geometry' with 2 faces
g mesh5_mesh5-geometry
usemtl material_1_24
f  17//5 16//5 15//5
f  18//5 15//5 16//5

# Mesh 'mesh6_mesh6-geometry' with 12 faces
g mesh6_mesh6-geometry
usemtl material_1_24
f  19//6 15//6 5//6
f  15//6 19//6 18//6
f  5//1 15//1 19//1
f  18//1 19//1 15//1
f  5//4 3//4 15//4
f  5//3 19//3 3//3
f  18//2 16//2 19//2
f  17//4 15//4 3//4
f  20//3 3//3 19//3
f  20//2 19//2 16//2
f  17//6 3//6 16//6
f  20//6 16//6 3//6

# Mesh 'mesh6_mesh6-geometry' with 8 faces
g mesh6_mesh6-geometry
usemtl material_0_24
f  15//2 3//2 5//2
f  3//5 19//5 5//5
f  19//4 16//4 18//4
f  3//2 15//2 17//2
f  19//5 3//5 20//5
f  16//4 19//4 20//4
f  16//1 3//1 17//1
f  3//1 16//1 20//1

# Mesh 'mesh7_mesh7-geometry' with 3 faces
g mesh7_mesh7-geometry
usemtl material_1_0
l  19 18
l  19 5
l  5 15

# Mesh 'mesh8_mesh8-geometry' with 12 faces
g mesh8_mesh8-geometry
usemtl material_0_24
f  21//7 22//7 23//7
f  22//7 21//7 24//7
f  22//2 25//2 23//2
f  25//3 21//3 23//3
f  21//4 26//4 24//4
f  26//5 22//5 24//5
f  25//2 22//2 27//2
f  21//3 25//3 28//3
f  26//4 21//4 28//4
f  22//5 26//5 27//5
f  26//8 25//8 27//8
f  25//8 26//8 28//8

# Mesh 'mesh8_mesh8-geometry' with 12 faces
g mesh8_mesh8-geometry
usemtl material_1_24
f  23//8 22//8 21//8
f  24//8 21//8 22//8
f  23//4 25//4 22//4
f  23//5 21//5 25//5
f  24//2 26//2 21//2
f  24//3 22//3 26//3
f  27//4 22//4 25//4
f  28//5 25//5 21//5
f  28//2 21//2 26//2
f  27//3 26//3 22//3
f  27//7 25//7 26//7
f  28//7 26//7 25//7

# Mesh 'mesh9_mesh9-geometry' with 12 faces
g mesh9_mesh9-geometry
usemtl material_0_24
f  24//9 29//9 30//9
f  29//9 24//9 31//9
f  29//1 32//1 30//1
f  32//4 24//4 30//4
f  24//6 33//6 31//6
f  33//2 29//2 31//2
f  32//1 29//1 34//1
f  24//4 32//4 35//4
f  33//6 24//6 35//6
f  29//2 33//2 34//2
f  33//10 32//10 34//10
f  32//10 33//10 35//10

# Mesh 'mesh9_mesh9-geometry' with 12 faces
g mesh9_mesh9-geometry
usemtl material_1_24
f  30//10 29//10 24//10
f  31//10 24//10 29//10
f  30//6 32//6 29//6
f  30//2 24//2 32//2
f  31//1 33//1 24//1
f  31//4 29//4 33//4
f  34//6 29//6 32//6
f  35//2 32//2 24//2
f  35//1 24//1 33//1
f  34//4 33//4 29//4
f  34//9 32//9 33//9
f  35//9 33//9 32//9

# Mesh 'mesh10_mesh10-geometry' with 10 faces
g mesh10_mesh10-geometry
usemtl material_0_24
f  14//11 36//11 37//11
f  36//11 14//11 38//11
f  36//1 39//1 37//1
f  39//12 14//12 37//12
f  40//13 36//13 38//13
f  39//1 36//1 41//1
f  14//12 39//12 42//12
f  36//13 40//13 41//13
f  40//14 39//14 41//14
f  39//14 40//14 42//14

# Mesh 'mesh10_mesh10-geometry' with 14 faces
g mesh10_mesh10-geometry
usemtl material_1_24
f  37//14 36//14 14//14
f  38//14 14//14 36//14
f  37//6 39//6 36//6
f  37//13 14//13 39//13
f  14//6 40//6 38//6
f  38//1 40//1 14//1
f  38//12 36//12 40//12
f  41//6 36//6 39//6
f  42//13 39//13 14//13
f  40//6 14//6 42//6
f  42//1 14//1 40//1
f  41//12 40//12 36//12
f  41//11 39//11 40//11
f  42//11 40//11 39//11

# Mesh 'mesh11_mesh11-geometry' with 12 faces
g mesh11_mesh11-geometry
usemtl material_0_24
f  43//3 20//3 44//3
f  20//3 43//3 45//3
f  20//15 30//15 44//15
f  30//2 43//2 44//2
f  43//16 46//16 45//16
f  46//4 20//4 45//4
f  30//15 20//15 13//15
f  43//2 30//2 47//2
f  46//16 43//16 47//16
f  20//4 46//4 13//4
f  46//5 30//5 13//5
f  30//5 46//5 47//5

# Mesh 'mesh11_mesh11-geometry' with 12 faces
g mesh11_mesh11-geometry
usemtl material_1_24
f  44//5 20//5 43//5
f  45//5 43//5 20//5
f  44//16 30//16 20//16
f  44//4 43//4 30//4
f  45//15 46//15 43//15
f  45//2 20//2 46//2
f  13//16 20//16 30//16
f  47//4 30//4 43//4
f  47//15 43//15 46//15
f  13//2 46//2 20//2
f  13//3 30//3 46//3
f  47//3 46//3 30//3

# Mesh 'mesh12_mesh12-geometry' with 12 faces
g mesh12_mesh12-geometry
usemtl material_0_24
f  48//5 49//5 10//5
f  49//5 48//5 50//5
f  49//1 17//1 10//1
f  17//4 48//4 10//4
f  48//6 51//6 50//6
f  50//2 52//2 49//2
f  17//1 49//1 52//1
f  48//4 17//4 53//4
f  51//6 48//6 53//6
f  52//2 50//2 51//2
f  51//3 17//3 52//3
f  17//3 51//3 53//3

# Mesh 'mesh12_mesh12-geometry' with 12 faces
g mesh12_mesh12-geometry
usemtl material_1_24
f  10//3 49//3 48//3
f  50//3 48//3 49//3
f  10//6 17//6 49//6
f  10//2 48//2 17//2
f  50//1 51//1 48//1
f  49//4 52//4 50//4
f  52//6 49//6 17//6
f  53//2 17//2 48//2
f  53//1 48//1 51//1
f  51//4 50//4 52//4
f  52//5 17//5 51//5
f  53//5 51//5 17//5

# Mesh 'mesh13_mesh13-geometry' with 24 faces
g mesh13_mesh13-geometry
usemtl material_1_24
f  54//17 55//17 56//17
f  55//17 54//17 57//17
f  56//18 55//18 54//18
f  57//18 54//18 55//18
f  55//19 58//19 56//19
f  56//20 58//20 55//20
f  58//21 54//21 56//21
f  56//22 54//22 58//22
f  54//20 59//20 57//20
f  57//19 59//19 54//19
f  59//22 55//22 57//22
f  57//21 55//21 59//21
f  58//19 55//19 60//19
f  60//20 55//20 58//20
f  54//21 58//21 61//21
f  61//22 58//22 54//22
f  59//20 54//20 61//20
f  61//19 54//19 59//19
f  55//22 59//22 60//22
f  60//21 59//21 55//21
f  59//18 58//18 60//18
f  60//17 58//17 59//17
f  58//18 59//18 61//18
f  61//17 59//17 58//17

# Mesh 'mesh14_mesh14-geometry' with 12 faces
g mesh14_mesh14-geometry
usemtl material_1_0
l  55 56
l  55 57
l  60 55
l  56 54
l  56 58
l  57 54
l  59 57
l  58 60
l  60 59
l  54 61
l  58 61
l  61 59

# Mesh 'mesh15_mesh15-geometry' with 62 faces
g mesh15_mesh15-geometry
usemtl material_2_24
f  62//23 63//24 64//25
f  63//24 62//23 65//26
f  63//24 66//27 64//25
f  66//27 62//23 64//25
f  62//23 67//28 65//26
f  65//26 68//29 63//24
f  63//24 69//30 66//27
f  62//23 66//27 70//6
f  67//28 62//23 71//31
f  67//28 72//32 65//26
f  68//29 65//26 72//32
f  68//29 73//33 63//24
f  63//24 74//34 69//30
f  70//6 71//31 62//23
f  75//35 67//28 71//31
f  72//32 67//28 76//36
f  72//32 77//37 68//29
f  68//29 78//38 73//33
f  63//24 73//33 74//34
f  79//39 69//30 74//34
f  71//31 70//6 75//35
f  75//35 80//40 67//28
f  81//41 76//36 67//28
f  76//36 82//42 72//32
f  77//37 72//32 82//42
f  77//37 78//38 68//29
f  83//43 73//33 78//38
f  84//44 74//34 73//33
f  69//30 79//39 85//1
f  74//34 84//44 79//39
f  80//40 75//35 86//45
f  81//41 67//28 80//40
f  87//46 76//36 81//41
f  82//42 76//36 88//47
f  82//42 89//48 77//37
f  77//37 90//49 78//38
f  73//33 83//43 84//44
f  90//49 83//43 78//38
f  80//40 85//1 79//39
f  84//44 80//40 79//39
f  85//1 80//40 86//45
f  80//40 84//44 81//41
f  87//46 88//47 76//36
f  84//44 87//46 81//41
f  88//47 91//50 82//42
f  89//48 82//42 91//50
f  89//48 90//49 77//37
f  87//46 84//44 83//43
f  83//43 90//49 92//51
f  93//52 88//47 87//46
f  91//50 88//47 94//53
f  95//54 90//49 89//48
f  83//43 93//52 87//46
f  90//49 96//55 92//51
f  93//52 83//43 92//51
f  97//56 88//47 93//52
f  88//47 98//57 94//53
f  90//49 95//54 99//58
f  96//55 90//49 99//58
f  97//56 92//51 96//55
f  92//51 97//56 93//52
f  98//57 88//47 97//56

# Mesh 'mesh15_mesh15-geometry' with 62 faces
g mesh15_mesh15-geometry
usemtl material_1_24
f  64//40 63//41 62//39
f  65//44 62//39 63//41
f  64//40 66//45 63//41
f  64//40 62//39 66//45
f  65//44 67//33 62//39
f  63//41 68//46 65//44
f  66//45 69//35 63//41
f  70//1 66//45 62//39
f  71//34 62//39 67//33
f  65//44 72//43 67//33
f  72//43 65//44 68//46
f  63//41 73//28 68//46
f  69//35 74//31 63//41
f  62//39 71//34 70//1
f  71//34 67//33 75//30
f  76//38 67//33 72//43
f  68//46 77//52 72//43
f  73//28 78//36 68//46
f  74//31 73//28 63//41
f  74//31 69//35 79//23
f  75//30 70//1 71//34
f  67//33 80//25 75//30
f  67//33 76//38 81//24
f  72//43 82//51 76//38
f  82//51 72//43 77//52
f  68//46 78//36 77//52
f  78//36 73//28 83//32
f  73//28 74//31 84//26
f  85//6 79//23 69//35
f  79//23 84//26 74//31
f  86//27 75//30 80//25
f  80//25 67//33 81//24
f  81//24 76//38 87//29
f  88//49 76//38 82//51
f  77//52 89//56 82//51
f  78//36 90//47 77//52
f  84//26 83//32 73//28
f  78//36 83//32 90//47
f  79//23 85//6 80//25
f  79//23 80//25 84//26
f  86//27 80//25 85//6
f  81//24 84//26 80//25
f  76//38 88//49 87//29
f  81//24 87//29 84//26
f  82//51 91//55 88//49
f  91//55 82//51 89//56
f  77//52 90//47 89//56
f  83//32 84//26 87//29
f  92//42 90//47 83//32
f  87//29 88//49 93//37
f  94//58 88//49 91//55
f  89//56 90//47 95//57
f  87//29 93//37 83//32
f  92//42 96//50 90//47
f  92//42 83//32 93//37
f  93//37 88//49 97//48
f  94//58 98//54 88//49
f  99//53 95//57 90//47
f  99//53 90//47 96//50
f  96//50 92//42 97//48
f  93//37 97//48 92//42
f  97//48 88//49 98//54

# Mesh 'mesh16_mesh16-geometry' with 12 faces
g mesh16_mesh16-geometry
usemtl material_2_24
f  100//59 101//60 102//60
f  101//60 100//59 103//59
f  104//61 102//60 101//60
f  100//59 105//62 103//59
f  102//60 104//61 106//61
f  105//62 100//59 107//62
f  108//63 106//61 104//61
f  107//62 109//64 105//62
f  106//61 108//63 110//63
f  109//64 107//62 111//64
f  108//63 111//64 110//63
f  111//64 108//63 109//64

# Mesh 'mesh16_mesh16-geometry' with 12 faces
g mesh16_mesh16-geometry
usemtl material_1_24
f  102//64 101//64 100//63
f  103//63 100//63 101//64
f  101//64 102//64 104//62
f  103//63 105//61 100//63
f  106//62 104//62 102//64
f  107//61 100//63 105//61
f  104//62 106//62 108//59
f  105//61 109//60 107//61
f  110//59 108//59 106//62
f  111//60 107//61 109//60
f  110//59 111//60 108//59
f  109//60 108//59 111//60

# Mesh 'mesh17_mesh17-geometry' with 60 faces
g mesh17_mesh17-geometry
usemtl material_2_24
f  112//48 113//65 114//50
f  113//65 112//48 115//66
f  116//67 114//50 113//65
f  112//48 117//68 115//66
f  118//69 113//65 115//66
f  114//50 116//67 119//53
f  113//65 120//70 116//67
f  117//68 112//48 121//58
f  115//66 117//68 118//69
f  113//65 118//69 122//71
f  116//67 123//56 119//53
f  120//70 113//65 122//71
f  124//72 116//67 120//70
f  125//55 117//68 121//58
f  118//69 117//68 126//73
f  118//69 127//74 122//71
f  123//56 116//67 124//72
f  122//71 128//75 120//70
f  124//72 120//70 129//76
f  117//68 125//55 130//55
f  130//77 126//73 117//68
f  118//69 126//73 131//78
f  127//74 118//69 131//78
f  128//75 122//71 127//74
f  130//55 123//56 124//72
f  129//76 120//70 128//75
f  132//79 124//72 129//76
f  123//56 130//55 125//55
f  126//73 130//77 132//79
f  131//78 126//73 133//80
f  134//81 127//74 131//78
f  127//74 135//82 128//75
f  124//72 132//79 130//77
f  129//76 128//75 136//83
f  129//76 137//84 132//79
f  132//79 133//80 126//73
f  131//78 133//80 134//81
f  127//74 134//81 138//85
f  135//82 127//74 138//85
f  136//83 128//75 135//82
f  137//84 129//76 136//83
f  133//80 132//79 137//84
f  134//81 133//80 139//30
f  139//30 138//85 134//81
f  138//85 140//45 135//82
f  135//82 141//35 136//83
f  136//83 142//86 137//84
f  142//86 133//80 137//84
f  139//30 133//80 143//27
f  138//85 139//30 144//1
f  140//45 138//85 144//1
f  141//35 135//82 140//45
f  136//83 141//35 145//87
f  142//86 136//83 145//87
f  133//80 142//86 146//88
f  143//27 133//80 146//88
f  147//6 145//87 141//35
f  145//87 147//6 142//86
f  147//6 146//88 142//86
f  146//88 147//6 143//27

# Mesh 'mesh17_mesh17-geometry' with 60 faces
g mesh17_mesh17-geometry
usemtl material_1_24
f  114//55 113//89 112//56
f  115//72 112//56 113//89
f  113//89 114//55 116//68
f  115//72 117//67 112//56
f  115//72 113//89 118//76
f  119//58 116//68 114//55
f  116//68 120//73 113//89
f  121//53 112//56 117//67
f  118//76 117//67 115//72
f  122//79 118//76 113//89
f  119//58 123//48 116//68
f  122//79 113//89 120//73
f  120//73 116//68 124//66
f  121//53 117//67 125//50
f  126//70 117//67 118//76
f  122//79 127//84 118//76
f  124//66 116//68 123//48
f  120//73 128//80 122//79
f  129//69 120//73 124//66
f  130//50 125//50 117//67
f  117//67 126//70 130//90
f  131//83 126//70 118//76
f  131//83 118//76 127//84
f  127//84 122//79 128//80
f  124//66 123//48 130//50
f  128//80 120//73 129//69
f  129//69 124//66 132//71
f  125//50 130//50 123//48
f  132//71 130//90 126//70
f  133//75 126//70 131//83
f  131//83 127//84 134//87
f  128//80 135//88 127//84
f  130//90 132//71 124//66
f  136//78 128//80 129//69
f  132//71 137//74 129//69
f  126//70 133//75 132//71
f  134//87 133//75 131//83
f  138//86 134//87 127//84
f  138//86 127//84 135//88
f  135//88 128//80 136//78
f  136//78 129//69 137//74
f  137//74 132//71 133//75
f  139//35 133//75 134//87
f  134//87 138//86 139//35
f  135//88 140//27 138//86
f  136//78 141//30 135//88
f  137//74 142//85 136//78
f  137//74 133//75 142//85
f  143//45 133//75 139//35
f  144//6 139//35 138//86
f  144//6 138//86 140//27
f  140//27 135//88 141//30
f  145//81 141//30 136//78
f  145//81 136//78 142//85
f  146//82 142//85 133//75
f  146//82 133//75 143//45
f  141//30 145//81 147//1
f  142//85 147//1 145//81
f  142//85 146//82 147//1
f  143//45 147//1 146//82

# Mesh 'mesh18_mesh18-geometry' with 4 faces
g mesh18_mesh18-geometry
usemtl material_1_24
f  49//2 148//2 149//2
f  148//2 49//2 150//2
f  149//4 148//4 49//4
f  150//4 49//4 148//4

