# File produced by Open Asset Import Library (http://www.assimp.sf.net)
# (assimp v3.2.202087883)

mtllib model_normalized.mtl

# 54 vertex positions
v 0.337818 -0.266009 -0.193333
v -0.351928 -0.266009 0.234083
v -0.351928 -0.266009 -0.193333
v 0.337818 -0.266009 0.234083
v -0.351928 -0.055037 -0.219243
v 0.337818 -0.055037 0.234083
v -0.351928 -0.055037 0.234083
v 0.337818 -0.055037 -0.219243
v 0.337818 -0.055037 -0.215379
v -0.351928 -0.055037 -0.227767
v 0.338238 -0.055037 -0.239653
v 0.337818 -0.004790 0.234083
v -0.371058 -0.055037 0.234083
v 0.338238 -0.055037 -0.219243
v 0.337818 -0.014892 0.097565
v -0.371058 -0.055037 -0.227767
v 0.338238 -0.004790 -0.239653
v 0.338238 -0.055037 -0.215379
v 0.337818 -0.014892 -0.215379
v 0.337818 -0.004790 0.108161
v 0.337686 -0.004790 0.234083
v -0.371058 -0.004790 0.097565
v -0.371058 -0.055037 -0.239653
v 0.338238 -0.004790 -0.215379
v -0.371058 -0.004790 -0.239653
v 0.338238 -0.014892 -0.215379
v 0.087751 -0.014892 -0.215379
v 0.337818 -0.004790 0.097565
v 0.337686 -0.004790 0.108161
v -0.371058 0.255981 0.234083
v -0.371058 0.255981 0.165823
v 0.087751 -0.004790 -0.215379
v -0.354615 -0.004790 -0.215379
v 0.087751 -0.014892 0.097565
v 0.087751 -0.004790 0.097565
v 0.337686 0.255981 0.234083
v -0.357228 -0.004790 0.097565
v 0.087751 -0.015462 0.097565
v -0.354615 -0.014892 -0.215379
v 0.102678 -0.004790 0.097565
v 0.337686 0.240063 0.172254
v 0.337686 0.255981 0.165823
v -0.357228 0.242659 0.162337
v -0.354615 -0.004790 0.097565
v 0.087751 -0.015462 -0.215379
v -0.354615 -0.014892 0.097565
v -0.354615 -0.015462 -0.215379
v 0.102678 -0.004790 0.108161
v -0.357228 0.240063 0.172254
v 0.337686 0.242659 0.162337
v -0.357228 -0.007386 0.107482
v -0.354615 -0.007386 0.107482
v -0.354615 -0.015462 0.097565
v 0.102678 -0.007386 0.107482

# 112 UV coordinates
vt -4.5491 2.74288 0
vt -0.12276 0 0
vt -0.12276 2.74288 0
vt -4.5491 0 0
vt 0 0 0
vt -2.90915 1.35389 0
vt -2.74288 0 0
vt -0.12276 1.6984 0
vt -4.5491 0.334344 0
vt -0.12276 0.334344 0
vt 2.74288 -0 0
vt 0 1.35389 0
vt 4.5491 1.35389 0
vt 0.12276 0 0
vt 4.5491 0 0
vt -4.5491 1.6984 0
vt 2.88436 1.35389 0
vt 0.12276 1.35389 0
vt -0.12276 2.96385 0
vt -0.12276 2.90915 0
vt -4.55181 3.04013 0
vt -4.5491 2.90915 0
vt 2.90915 1.35389 0
vt 0 1.67634 0
vt 4.5491 1.67634 0
vt -4.55181 2.90915 0
vt -4.5491 2.88436 0
vt 0.876086 1.61151 0
vt 0 2.96385 0
vt 3.04013 1.67634 0
vt 3.04013 1.35389 0
vt -4.55181 2.88436 0
vt 2.88436 1.61151 0
vt 0.808084 1.67634 0
vt 4.54827 1.67634 0
vt -0.876086 1.67634 0
vt -2.96385 1.35389 0
vt 0 3.04013 0
vt 2.88436 1.67634 0
vt -4.55181 1.35389 0
vt -4.55181 1.67634 0
vt 4.55181 1.61151 0
vt 4.55181 1.35389 0
vt 4.5491 1.61151 0
vt 2.94434 2.88436 0
vt 4.5491 0.876086 0
vt 4.5491 2.88436 0
vt 0.876086 1.67634 0
vt 4.54827 0.808084 0
vt 4.5491 0.808084 0
vt 4.54827 0 0
vt 0 3.34979 0
vt -0.438043 3.34979 0
vt -3.04013 1.67634 0
vt -3.04013 1.35389 0
vt 4.55181 3.04013 0
vt 4.55181 2.88436 0
vt 0.105518 2.88436 0
vt 4.55181 1.67634 0
vt 2.94434 0.876086 0
vt 2.94434 1.61151 0
vt -4.5491 1.61151 0
vt -2.94434 1.67634 0
vt -4.5491 1.67634 0
vt 4.54827 3.34979 0
vt 0 3.12968 0
vt -0.088747 1.39985 0
vt 0 1.39985 0
vt 0.088747 0.876086 0
vt -0 0.876086 0
vt 2.94434 1.67634 0
vt -2.88436 1.61151 0
vt -0.876086 1.60785 0
vt -0.876086 1.61151 0
vt -2.94434 1.61151 0
vt 3.04013 0.876086 0
vt 0.396777 3.24765 0
vt 4.54827 0.438043 0
vt -0 0.438043 0
vt -0.088747 3.04132 0
vt 0.105518 1.61151 0
vt 0.105518 1.67634 0
vt 0.105518 0.876086 0
vt -2.88436 1.60785 0
vt -2.94434 1.60785 0
vt -0.105518 1.61151 0
vt 0.105518 1.60785 0
vt -0.105518 1.67634 0
vt 3.04013 0.808084 0
vt -4.54827 1.41707 0
vt -4.54827 3.04132 0
vt 0.438043 3.34979 0
vt -4.54827 3.12968 0
vt 0.460419 3.26431 0
vt 0.812445 1.65968 0
vt 0.088747 1.27203 0
vt 0.105518 1.20624 0
vt 0.105518 1.27203 0
vt 2.94434 1.60785 0
vt -0.105518 1.60785 0
vt 2.88436 1.60785 0
vt 3.04013 1.20624 0
vt 2.94434 1.27203 0
vt -3.04013 1.41707 0
vt -0.088747 1.20624 0
vt -4.54827 1.27203 0
vt -4.54827 1.20624 0
vt -0.088747 1.27203 0
vt 0.088747 1.20624 0
vt 0.876086 1.60785 0
vt -3.04013 1.39985 0
vt -0.105518 1.39985 0

# 12 vertex normals
vn 0 -0.0254 0
vn -0.0254 0 0
vn 0 -0.00309613 -0.0252106
vn 0.0254 0 0
vn 0 0 0.0254
vn 0 0 -0.0254
vn 0 0.0254 0
vn 0 0.00643199 -0.0245721
vn 0 0.0245721 0.00643199
vn 0 -0.0245721 -0.00643199
vn 0 0.00309613 0.0252106
vn -0 -0.00643199 0.0245721

# Mesh 'mesh1_mesh1-geometry' with 104 faces
g mesh1_mesh1-geometry
usemtl material_0_1_8
f  1/1/1 2/2/1 3/3/1
f  2/2/1 1/1/1 4/4/1
f  2/5/2 5/6/2 3/7/2
f  5/8/3 1/9/3 3/10/3
f  1/11/4 6/12/4 4/5/4
f  6/13/5 2/14/5 4/15/5
f  5/6/2 2/5/2 7/12/2
f  1/9/3 5/8/3 8/16/3
f  6/12/4 1/11/4 9/17/4
f  2/14/5 6/13/5 7/18/5
f  7/2/1 10/19/1 5/20/1
f  5/20/1 11/21/1 8/22/1
f  9/17/4 1/11/4 8/23/4
f  9/17/4 12/24/4 6/12/4
f  12/25/5 7/18/5 6/13/5
f  13/5/1 10/19/1 7/2/1
f  10/19/1 11/21/1 5/20/1
f  8/22/1 11/21/1 14/26/1
f  14/26/1 9/27/1 8/22/1
f  12/24/4 9/17/4 15/28/4
f  7/18/5 12/25/5 13/12/5
f  10/19/1 13/5/1 16/29/1
f  16/29/1 11/21/1 10/19/1
f  17/30/4 14/23/4 11/31/4
f  9/27/1 14/26/1 18/32/1
f  15/28/4 9/17/4 19/33/4
f  12/24/4 15/28/4 20/34/4
f  13/12/5 12/25/5 21/35/5
f  13/12/2 22/36/2 16/37/2
f  11/21/1 16/29/1 23/38/1
f  24/39/4 14/23/4 17/30/4
f  11/40/6 25/24/6 17/41/6
f  14/23/4 26/33/4 18/17/4
f  26/42/5 9/13/5 18/43/5
f  9/13/5 26/42/5 19/44/5
f  27/45/7 15/46/7 19/47/7
f  28/48/4 20/34/4 15/28/4
f  29/49/7 12/15/7 20/50/7
f  12/15/7 29/49/7 21/51/7
f  13/12/5 21/35/5 30/52/5
f  13/12/2 31/53/2 22/36/2
f  16/37/2 22/36/2 25/54/2
f  16/37/2 25/54/2 23/55/2
f  25/24/6 11/40/6 23/12/6
f  26/33/4 14/23/4 24/39/4
f  17/56/7 32/45/7 24/57/7
f  25/38/7 33/58/7 17/56/7
f  24/59/5 19/44/5 26/42/5
f  15/46/7 27/45/7 34/60/7
f  19/44/5 24/59/5 27/61/5
f  28/46/7 29/49/7 20/50/7
f  15/62/6 35/63/6 28/64/6
f  29/34/4 36/52/4 21/24/4
f  30/52/5 21/35/5 36/65/5
f  31/53/2 13/12/2 30/52/2
f  31/66/8 37/67/8 22/68/8
f  37/69/7 25/38/7 22/70/7
f  17/56/7 33/58/7 32/45/7
f  27/61/5 24/59/5 32/71/5
f  25/38/7 37/69/7 33/58/7
f  27/72/2 38/73/2 34/74/2
f  39/58/7 34/60/7 27/45/7
f  35/63/6 15/62/6 34/75/6
f  40/76/7 29/49/7 28/46/7
f  28/64/6 35/63/6 40/54/6
f  36/52/4 29/34/4 41/77/4
f  42/78/7 30/5/7 36/51/7
f  30/5/7 42/78/7 31/79/7
f  37/67/8 31/66/8 43/80/8
f  39/81/5 32/71/5 33/82/5
f  32/71/5 39/81/5 27/61/5
f  33/58/7 37/69/7 44/83/7
f  38/73/2 27/72/2 45/84/2
f  38/85/6 46/86/6 34/75/6
f  34/60/7 39/58/7 46/83/7
f  47/87/5 27/61/5 39/81/5
f  34/75/6 44/88/6 35/63/6
f  29/49/7 40/76/7 48/89/7
f  29/90/8 49/80/8 41/91/8
f  41/77/4 42/92/4 36/52/4
f  50/91/8 31/66/8 42/93/8
f  43/80/8 31/66/8 50/91/8
f  43/94/4 51/95/4 37/48/4
f  44/48/4 39/33/4 33/39/4
f  37/96/9 52/97/9 44/98/9
f  27/61/5 47/87/5 45/99/5
f  47/58/7 38/60/7 45/45/7
f  46/86/6 38/85/6 53/100/6
f  44/88/6 34/75/6 46/86/6
f  46/28/4 47/101/4 39/33/4
f  39/33/4 44/48/4 46/28/4
f  44/98/9 54/102/9 35/103/9
f  48/104/8 49/80/8 29/90/8
f  49/105/10 50/106/10 41/107/10
f  42/92/4 41/77/4 50/94/4
f  50/106/10 49/105/10 43/108/10
f  51/95/4 43/94/4 49/77/4
f  52/97/9 37/96/9 51/109/9
f  54/102/9 44/98/9 52/97/9
f  38/60/7 47/58/7 53/83/7
f  47/101/4 46/28/4 53/110/4
f  54/111/8 49/80/8 48/104/8
f  49/80/8 52/112/8 51/67/8
f  52/112/8 49/80/8 54/111/8

# Mesh 'mesh1_mesh1-geometry' with 110 faces
g mesh1_mesh1-geometry
usemtl material_1_24
f  3//7 2//7 1//7
f  4//7 1//7 2//7
f  3//4 5//4 2//4
f  3//11 1//11 5//11
f  4//2 6//2 1//2
f  4//6 2//6 6//6
f  7//4 2//4 5//4
f  8//11 5//11 1//11
f  9//2 1//2 6//2
f  7//6 6//6 2//6
f  8//1 7//1 5//1
f  5//7 7//7 8//7
f  5//7 10//7 7//7
f  8//7 11//7 5//7
f  8//2 1//2 9//2
f  6//1 8//1 9//1
f  9//7 8//7 6//7
f  6//2 12//2 9//2
f  6//6 7//6 12//6
f  7//1 8//1 6//1
f  6//7 8//7 7//7
f  7//7 10//7 13//7
f  5//7 11//7 10//7
f  14//7 11//7 8//7
f  8//7 9//7 14//7
f  15//2 9//2 12//2
f  13//6 12//6 7//6
f  16//7 13//7 10//7
f  10//7 11//7 16//7
f  11//2 14//2 17//2
f  18//7 14//7 9//7
f  19//2 9//2 15//2
f  20//2 15//2 12//2
f  21//6 12//6 13//6
f  16//4 22//4 13//4
f  23//7 16//7 11//7
f  17//2 14//2 24//2
f  17//5 25//5 11//5
f  18//2 26//2 14//2
f  18//6 9//6 26//6
f  19//6 26//6 9//6
f  19//1 15//1 27//1
f  15//2 20//2 28//2
f  20//1 12//1 29//1
f  21//1 29//1 12//1
f  30//6 21//6 13//6
f  22//4 31//4 13//4
f  25//4 22//4 16//4
f  23//4 25//4 16//4
f  23//5 11//5 25//5
f  24//2 14//2 26//2
f  24//1 32//1 17//1
f  17//1 33//1 25//1
f  26//6 19//6 24//6
f  34//1 27//1 15//1
f  27//6 24//6 19//6
f  20//1 29//1 28//1
f  28//5 35//5 15//5
f  21//2 36//2 29//2
f  36//6 21//6 30//6
f  30//4 13//4 31//4
f  22//12 37//12 31//12
f  22//1 25//1 37//1
f  32//1 33//1 17//1
f  32//6 24//6 27//6
f  33//1 37//1 25//1
f  34//4 38//4 27//4
f  27//1 34//1 39//1
f  34//5 15//5 35//5
f  28//1 29//1 40//1
f  40//5 35//5 28//5
f  41//2 29//2 36//2
f  36//1 30//1 42//1
f  31//1 42//1 30//1
f  43//12 31//12 37//12
f  33//6 32//6 39//6
f  27//6 39//6 32//6
f  44//1 37//1 33//1
f  45//4 27//4 38//4
f  34//5 46//5 38//5
f  46//1 39//1 34//1
f  39//6 27//6 47//6
f  35//5 44//5 34//5
f  48//1 40//1 29//1
f  41//12 49//12 29//12
f  36//2 42//2 41//2
f  42//12 31//12 50//12
f  50//12 31//12 43//12
f  37//2 51//2 43//2
f  33//2 39//2 44//2
f  44//10 52//10 37//10
f  45//6 47//6 27//6
f  45//1 38//1 47//1
f  53//5 38//5 46//5
f  46//5 34//5 44//5
f  39//2 47//2 46//2
f  46//2 44//2 39//2
f  35//10 54//10 44//10
f  29//12 49//12 48//12
f  41//9 50//9 49//9
f  50//2 41//2 42//2
f  43//9 49//9 50//9
f  49//2 43//2 51//2
f  51//10 37//10 52//10
f  52//10 44//10 54//10
f  53//1 47//1 38//1
f  53//2 46//2 47//2
f  48//12 49//12 54//12
f  51//12 52//12 49//12
f  54//12 49//12 52//12

