# File produced by Open Asset Import Library (http://www.assimp.sf.net)
# (assimp v3.2.202087883)

mtllib model_normalized.mtl

# 164 vertex positions
v 0.000697 -0.451026 -0.060603
v 0.214881 -0.451026 -0.052195
v 0.000697 -0.451026 -0.052195
v 0.214881 -0.451026 -0.060603
v 0.000697 -0.450559 -0.052195
v 0.000697 -0.218390 -0.060603
v 0.214881 -0.218390 -0.060603
v 0.214881 -0.544455 -0.061537
v 0.214881 -0.450559 -0.052195
v 0.214881 -0.451026 0.119246
v 0.000697 -0.218390 -0.059669
v 0.000697 -0.450559 -0.051727
v 0.214881 -0.218390 -0.059669
v 0.214881 0.314153 -0.061537
v 0.214881 -0.451026 0.121582
v 0.214881 -0.450559 0.119246
v 0.214881 -0.216988 -0.059669
v 0.214881 -0.216988 -0.060603
v 0.219553 -0.544455 -0.061537
v -0.214889 -0.451026 0.119246
v 0.214881 -0.544455 0.125319
v 0.000697 -0.210672 -0.051727
v -0.000704 -0.450559 -0.051727
v 0.214881 0.314153 -0.060603
v 0.219553 0.314153 -0.061537
v 0.233567 -0.544455 -0.047523
v -0.214889 -0.451026 0.121582
v 0.214881 0.315086 0.125319
v 0.000697 -0.210672 -0.052195
v 0.000697 -0.216988 -0.059669
v -0.214889 -0.450559 0.119246
v 0.233567 0.314153 -0.047523
v 0.186853 -0.188960 -0.060603
v 0.214881 0.314153 0.121582
v -0.214889 -0.544455 0.125319
v 0.214881 0.314153 0.124852
v 0.232633 0.314153 0.125319
v 0.233567 -0.544455 0.125319
v 0.214938 -0.210672 0.115976
v -0.000704 -0.210672 -0.051727
v -0.214889 -0.451026 -0.052195
v -0.000704 -0.450559 -0.052195
v 0.000697 -0.216988 -0.060603
v 0.232633 0.314153 0.124852
v 0.028725 -0.188960 -0.060603
v 0.186853 0.286124 -0.060603
v 0.233567 0.314153 0.125319
v -0.214889 0.314153 0.121582
v 0.214881 0.315086 0.125272
v 0.232633 0.315086 0.125319
v -0.214918 -0.210672 0.115976
v 0.214938 -0.210672 -0.052195
v 0.000697 0.308167 -0.052195
v -0.000704 -0.218390 -0.059669
v -0.214889 -0.450559 -0.052195
v -0.000704 -0.218390 -0.060603
v 0.000697 0.314153 -0.060603
v 0.000697 0.314153 -0.051727
v 0.186853 -0.188960 -0.052195
v 0.186853 0.286124 -0.052195
v -0.214889 -0.451026 -0.060603
v -0.214889 0.314153 0.124852
v 0.214881 0.315086 0.124852
v 0.232633 0.315086 0.125272
v -0.214918 0.308167 0.115976
v 0.214938 0.308167 0.115976
v 0.028725 -0.188960 -0.052195
v -0.000704 -0.210672 -0.052195
v -0.214918 -0.210672 -0.052195
v -0.000704 -0.451026 -0.052195
v -0.000704 -0.451026 -0.060603
v 0.028725 0.286124 -0.060603
v 0.028725 0.286124 -0.052195
v -0.000704 0.314153 -0.051727
v 0.232633 0.315086 0.124852
v -0.214889 -0.544455 -0.061537
v -0.232640 0.314153 0.124852
v -0.214889 0.315086 0.125272
v -0.214918 0.308167 -0.052195
v 0.214938 0.308167 -0.052195
v -0.214889 -0.218390 -0.060603
v -0.000704 -0.216988 -0.059669
v 0.000697 0.308167 -0.051727
v -0.214889 0.314153 -0.060603
v -0.233575 -0.544455 -0.047523
v -0.214889 0.315086 0.124852
v -0.233575 0.314153 -0.047523
v -0.214889 0.315086 0.125319
v 0.233567 0.319758 0.125272
v 0.233567 0.315086 -0.047523
v -0.000704 0.308167 -0.051727
v -0.000704 0.308167 -0.052195
v -0.214889 -0.218390 -0.059669
v -0.028733 -0.188960 -0.052195
v -0.186861 -0.188960 -0.052195
v -0.000704 0.314153 -0.060603
v -0.219560 -0.544455 -0.061537
v -0.233575 -0.544455 0.125319
v -0.214889 -0.216988 -0.060603
v -0.232640 0.315086 0.124852
v -0.232640 0.314153 0.125319
v -0.232640 0.315086 0.125272
v -0.232640 0.315086 0.125319
v 0.233567 0.315086 0.125272
v -0.219560 0.315086 -0.061537
v -0.233575 0.319758 0.125272
v 0.219553 0.315086 -0.061537
v -0.186861 0.286124 -0.052195
v -0.214889 -0.216988 -0.059669
v -0.028733 0.286124 -0.060603
v -0.219560 0.314153 -0.061537
v -0.214889 0.314153 -0.061537
v -0.233575 0.314153 0.125319
v -0.233575 0.315086 -0.047523
v -0.233575 0.319758 -0.047523
v 0.233567 0.319758 -0.047523
v -0.028733 0.286124 -0.052195
v -0.000704 -0.216988 -0.060603
v -0.186861 -0.188960 -0.060603
v -0.186861 0.286124 -0.060603
v -0.028733 -0.188960 -0.060603
v -0.233575 0.315086 0.125272
v 0.219553 0.319758 -0.061537
v -0.219560 0.319758 -0.061537
v -0.214876 -0.079455 0.112779
v -0.214876 -0.084127 -0.053995
v -0.214876 -0.084127 0.112779
v -0.214876 -0.079455 -0.053995
v 0.214894 -0.084127 0.112779
v 0.214894 -0.079455 0.112779
v 0.214894 -0.079455 -0.053995
v 0.214894 -0.084127 -0.053995
v -0.214876 0.048540 0.112779
v -0.214876 0.043868 -0.053995
v -0.214876 0.043868 0.112779
v -0.214876 0.048540 -0.053995
v 0.214894 0.043868 0.112779
v 0.214894 0.048540 0.112779
v 0.214894 0.048540 -0.053995
v 0.214894 0.043868 -0.053995
v -0.214876 0.176994 0.112779
v -0.214876 0.172323 -0.053995
v -0.214876 0.172323 0.112779
v -0.214876 0.176994 -0.053995
v 0.214894 0.172323 0.112779
v 0.214894 0.176994 0.112779
v 0.214894 0.176994 -0.053995
v 0.214894 0.172323 -0.053995
v 0.028738 -0.189227 -0.058699
v 0.186866 -0.189227 -0.056363
v 0.028738 -0.189227 -0.056363
v 0.186866 -0.189227 -0.058699
v 0.186866 0.285858 -0.056363
v 0.028738 0.285858 -0.058699
v 0.028738 0.285858 -0.056363
v 0.186866 0.285858 -0.058699
v -0.028720 0.285858 -0.056363
v -0.186848 -0.189227 -0.056363
v -0.028720 -0.189227 -0.056363
v -0.186848 0.285858 -0.056363
v -0.186848 -0.189227 -0.058699
v -0.028720 -0.189227 -0.058699
v -0.186848 0.285858 -0.058699
v -0.028720 0.285858 -0.058699

# 0 UV coordinates

# 74 vertex normals
vn 0 -0.0254 0
vn 0 0 0.0254
vn -0.0254 0 0
vn 0 -0 -0.0254
vn 0 -2.413e-06 0.0254
vn 0 0.0254 0
vn -0.0254 0 -7.62e-08
vn 2.54e-07 -0 -0.0254
vn -0.0254 1.1684e-06 -1.2192e-06
vn -1.8288e-06 0.0254 2.413e-06
vn 4.826e-07 0.0254 -6.35e-07
vn 0.0179605 -0 -0.0179605
vn 0.0254 0 0
vn -0.0254 -4.064e-07 4.064e-07
vn 0 -0.0254 1.2192e-06
vn -1.27e-07 0.0254 0
vn -0.0254 0 7.62e-08
vn 0.0254 -0 -7.62e-08
vn 0.0254 -2.413e-06 0
vn -0.0254 0 -6.096e-07
vn 0 0.0254 2.54e-08
vn 0 0.0254 -7.62e-08
vn 1.27e-07 0.0254 -6.858e-07
vn 0 0.0253999 4.8387e-05
vn 0.0254 2.54e-08 6.096e-07
vn 0.0254 -7.62e-08 0
vn 0 0.0254 2.54e-07
vn 1.27e-07 0.0254 0
vn 0 -0.0254 5.3848e-06
vn 0 0.0254 -6.096e-07
vn 5.08e-08 0 0.0254
vn 0 5.08e-08 0.0254
vn 0.0254 -0 -2.41808e-05
vn -0 -0.0254 -5.3848e-06
vn -0 -0.0254 -2.54e-08
vn 2.413e-06 -0.0254 0
vn 1.524e-07 -0.0254 0
vn 2.54e-08 0.0254 -1.27e-07
vn -0.0179605 0 -0.0179605
vn -0.0254 1.2192e-06 0
vn 1.27e-07 -0.0254 -0
vn -2.413e-06 0.0254 2.54e-08
vn 0.0254 -8.128e-07 -1.2192e-06
vn 0.0254 0 6.096e-07
vn 0 2.413e-06 -0.0254
vn 0.0254 0 7.62e-08
vn -2.54e-07 0 0.0254
vn 0.0254 -1.1684e-06 1.2192e-06
vn 1.8288e-06 -0.0254 -2.413e-06
vn -4.826e-07 -0.0254 6.35e-07
vn -0.0179605 0 0.0179605
vn 0.0254 4.064e-07 -4.064e-07
vn 0 0.0254 -1.2192e-06
vn -0.0254 2.413e-06 0
vn 0 -0.0254 7.62e-08
vn -1.27e-07 -0.0254 6.858e-07
vn -0 -0.0253999 -4.8387e-05
vn -0.0254 -2.54e-08 -6.096e-07
vn -0.0254 7.62e-08 0
vn -0 -0.0254 -2.54e-07
vn -1.27e-07 -0.0254 0
vn 0 0.0254 -5.3848e-06
vn 0 -0.0254 6.096e-07
vn -5.08e-08 0 -0.0254
vn 0 -5.08e-08 -0.0254
vn -0.0254 0 2.41808e-05
vn 0 0.0254 5.3848e-06
vn -2.413e-06 0.0254 0
vn -1.524e-07 0.0254 0
vn -2.54e-08 -0.0254 1.27e-07
vn 0.0179605 0 0.0179605
vn 0.0254 -1.2192e-06 -0
vn 2.413e-06 -0.0254 -2.54e-08
vn -0.0254 8.128e-07 1.2192e-06

# Mesh 'mesh1_mesh1-geometry' with 256 faces
g mesh1_mesh1-geometry
usemtl material_0_24
f  1//1 2//1 3//1
f  1//1 4//1 2//1
f  5//2 3//2 2//2
f  3//3 6//3 1//3
f  7//4 4//4 1//4
f  2//3 4//3 8//3
f  5//3 6//3 3//3
f  5//5 2//5 9//5
f  7//4 1//4 6//4
f  4//3 7//3 8//3
f  10//3 2//3 8//3
f  5//3 11//3 6//3
f  10//3 9//3 2//3
f  5//1 9//1 12//1
f  6//6 13//6 7//6
f  7//3 14//3 8//3
f  15//3 10//3 8//3
f  12//3 11//3 5//3
f  11//6 13//6 6//6
f  16//3 9//3 10//3
f  12//1 9//1 16//1
f  17//3 7//3 13//3
f  18//3 14//3 7//3
f  14//4 19//4 8//4
f  20//1 10//1 15//1
f  21//3 15//3 8//3
f  22//7 11//7 12//7
f  17//4 13//4 11//4
f  16//4 10//4 20//4
f  23//1 12//1 16//1
f  17//3 18//3 7//3
f  24//3 14//3 18//3
f  14//8 25//8 19//8
f  8//1 19//1 26//1
f  20//1 15//1 27//1
f  28//3 15//3 21//3
f  8//1 26//1 21//1
f  22//9 29//9 11//9
f  22//4 12//4 23//4
f  30//4 17//4 11//4
f  16//4 20//4 31//4
f  31//1 23//1 16//1
f  30//1 18//1 17//1
f  24//10 32//10 14//10
f  24//4 18//4 33//4
f  14//11 32//11 25//11
f  32//12 19//12 25//12
f  32//12 26//12 19//12
f  34//2 27//2 15//2
f  35//13 20//13 27//13
f  28//3 36//3 15//3
f  28//2 21//2 37//2
f  21//1 26//1 38//1
f  22//6 39//6 29//6
f  29//14 30//14 11//14
f  22//4 23//4 40//4
f  20//13 41//13 31//13
f  31//1 42//1 23//1
f  30//15 43//15 18//15
f  24//16 44//16 32//16
f  33//4 18//4 45//4
f  24//4 33//4 46//4
f  47//13 26//13 32//13
f  48//2 27//2 34//2
f  36//3 34//3 15//3
f  35//13 41//13 20//13
f  35//13 27//13 48//13
f  28//3 49//3 36//3
f  37//2 21//2 47//2
f  28//2 37//2 50//2
f  38//13 26//13 47//13
f  47//2 21//2 38//2
f  51//6 39//6 22//6
f  29//6 39//6 52//6
f  53//17 30//17 29//17
f  23//18 54//18 40//18
f  51//6 22//6 40//6
f  31//19 41//19 55//19
f  31//1 55//1 42//1
f  23//13 42//13 56//13
f  30//20 57//20 43//20
f  45//4 18//4 43//4
f  58//6 44//6 24//6
f  44//21 47//21 32//21
f  45//22 59//22 33//22
f  60//3 46//3 33//3
f  57//4 24//4 46//4
f  48//6 34//6 58//6
f  36//23 44//23 34//23
f  35//13 61//13 41//13
f  35//13 48//13 62//13
f  28//24 50//24 49//24
f  49//3 63//3 36//3
f  37//6 47//6 44//6
f  37//13 64//13 50//13
f  65//4 39//4 51//4
f  66//3 52//3 39//3
f  59//2 29//2 52//2
f  53//17 57//17 30//17
f  53//2 29//2 67//2
f  23//25 56//25 54//25
f  40//26 54//26 68//26
f  51//6 40//6 69//6
f  55//2 41//2 70//2
f  55//2 70//2 42//2
f  42//13 71//13 56//13
f  57//4 72//4 43//4
f  72//4 45//4 43//4
f  58//6 34//6 44//6
f  57//27 58//27 24//27
f  67//6 59//6 45//6
f  60//3 33//3 59//3
f  73//1 46//1 60//1
f  57//4 46//4 72//4
f  48//6 58//6 74//6
f  75//4 44//4 36//4
f  35//13 76//13 61//13
f  61//1 70//1 41//1
f  77//28 62//28 48//28
f  35//13 62//13 78//13
f  49//28 50//28 64//28
f  78//29 63//29 49//29
f  75//4 36//4 63//4
f  37//13 44//13 64//13
f  66//4 39//4 65//4
f  51//13 79//13 65//13
f  66//3 80//3 52//3
f  59//2 67//2 29//2
f  80//2 59//2 52//2
f  58//17 57//17 53//17
f  53//2 67//2 73//2
f  81//30 54//30 56//30
f  68//18 54//18 82//18
f  69//6 40//6 68//6
f  51//13 69//13 79//13
f  70//13 71//13 42//13
f  56//4 71//4 61//4
f  67//13 45//13 72//13
f  80//31 60//31 59//31
f  72//1 46//1 73//1
f  80//32 73//32 60//32
f  58//4 83//4 74//4
f  48//6 74//6 84//6
f  64//13 44//13 75//13
f  85//1 76//1 35//1
f  61//13 76//13 81//13
f  61//1 71//1 70//1
f  86//4 62//4 77//4
f  87//28 77//28 48//28
f  78//13 62//13 86//13
f  35//33 78//33 88//33
f  89//2 49//2 64//2
f  86//34 63//34 78//34
f  89//2 78//2 49//2
f  63//35 90//35 75//35
f  65//1 91//1 66//1
f  79//1 92//1 65//1
f  83//1 80//1 66//1
f  58//3 53//3 83//3
f  67//13 72//13 73//13
f  53//2 73//2 80//2
f  93//6 54//6 81//6
f  56//4 61//4 81//4
f  82//4 54//4 93//4
f  68//18 82//18 92//18
f  94//2 69//2 68//2
f  79//2 69//2 95//2
f  74//4 83//4 91//4
f  84//6 74//6 96//6
f  87//28 48//28 84//28
f  75//36 90//36 64//36
f  85//1 97//1 76//1
f  85//1 35//1 98//1
f  81//13 76//13 99//13
f  86//4 77//4 100//4
f  87//6 101//6 77//6
f  102//6 88//6 78//6
f  103//2 35//2 88//2
f  89//2 64//2 104//2
f  105//1 63//1 86//1
f  106//2 78//2 89//2
f  63//37 107//37 90//37
f  65//1 92//1 91//1
f  91//1 83//1 66//1
f  79//2 108//2 92//2
f  53//1 80//1 83//1
f  93//13 81//13 99//13
f  82//4 93//4 109//4
f  92//13 82//13 96//13
f  92//2 94//2 68//2
f  94//2 95//2 69//2
f  79//2 95//2 108//2
f  91//13 96//13 74//13
f  96//4 110//4 84//4
f  87//38 84//38 111//38
f  64//35 90//35 104//35
f  85//39 111//39 97//39
f  112//4 76//4 97//4
f  101//2 98//2 35//2
f  113//3 85//3 98//3
f  99//13 76//13 112//13
f  102//40 100//40 77//40
f  114//41 86//41 100//41
f  113//42 101//42 87//42
f  101//40 102//40 77//40
f  103//6 88//6 102//6
f  106//2 102//2 78//2
f  103//2 101//2 35//2
f  104//13 90//13 89//13
f  105//1 107//1 63//1
f  114//1 105//1 86//1
f  106//6 89//6 115//6
f  116//12 90//12 107//12
f  91//13 92//13 96//13
f  92//2 108//2 117//2
f  93//43 99//43 109//43
f  109//15 118//15 82//15
f  82//44 118//44 96//44
f  92//2 117//2 94//2
f  95//6 94//6 119//6
f  95//13 120//13 108//13
f  96//4 121//4 110//4
f  84//4 110//4 120//4
f  111//6 84//6 112//6
f  87//39 111//39 85//39
f  112//4 97//4 111//4
f  101//2 113//2 98//2
f  113//3 87//3 85//3
f  99//13 112//13 84//13
f  122//1 100//1 102//1
f  114//1 100//1 122//1
f  103//40 102//40 101//40
f  106//2 122//2 102//2
f  89//13 90//13 116//13
f  123//4 107//4 105//4
f  114//39 124//39 105//39
f  115//6 89//6 116//6
f  106//3 115//3 122//3
f  116//12 107//12 123//12
f  108//1 110//1 117//1
f  99//1 118//1 109//1
f  96//4 118//4 121//4
f  117//3 121//3 94//3
f  119//22 94//22 121//22
f  95//13 119//13 120//13
f  120//1 110//1 108//1
f  117//3 110//3 121//3
f  84//4 120//4 99//4
f  122//3 115//3 114//3
f  123//4 105//4 124//4
f  124//39 114//39 115//39
f  115//6 116//6 124//6
f  124//6 116//6 123//6
f  119//4 118//4 99//4
f  121//4 118//4 119//4
f  120//4 119//4 99//4

# Mesh 'mesh1_mesh1-geometry' with 256 faces
g mesh1_mesh1-geometry
usemtl material_1_24
f  3//6 2//6 1//6
f  2//6 4//6 1//6
f  2//4 3//4 5//4
f  1//13 6//13 3//13
f  1//2 4//2 7//2
f  8//13 4//13 2//13
f  3//13 6//13 5//13
f  9//45 2//45 5//45
f  6//2 1//2 7//2
f  8//13 7//13 4//13
f  8//13 2//13 10//13
f  6//13 11//13 5//13
f  2//13 9//13 10//13
f  12//6 9//6 5//6
f  7//1 13//1 6//1
f  8//13 14//13 7//13
f  8//13 10//13 15//13
f  5//13 11//13 12//13
f  6//1 13//1 11//1
f  10//13 9//13 16//13
f  16//6 9//6 12//6
f  13//13 7//13 17//13
f  7//13 14//13 18//13
f  8//2 19//2 14//2
f  15//6 10//6 20//6
f  8//13 15//13 21//13
f  12//46 11//46 22//46
f  11//2 13//2 17//2
f  20//2 10//2 16//2
f  16//6 12//6 23//6
f  7//13 18//13 17//13
f  18//13 14//13 24//13
f  19//47 25//47 14//47
f  26//6 19//6 8//6
f  27//6 15//6 20//6
f  21//13 15//13 28//13
f  21//6 26//6 8//6
f  11//48 29//48 22//48
f  23//2 12//2 22//2
f  11//2 17//2 30//2
f  31//2 20//2 16//2
f  16//6 23//6 31//6
f  17//6 18//6 30//6
f  14//49 32//49 24//49
f  33//2 18//2 24//2
f  25//50 32//50 14//50
f  25//51 19//51 32//51
f  19//51 26//51 32//51
f  15//4 27//4 34//4
f  27//3 20//3 35//3
f  15//13 36//13 28//13
f  37//4 21//4 28//4
f  38//6 26//6 21//6
f  29//1 39//1 22//1
f  11//52 30//52 29//52
f  40//2 23//2 22//2
f  31//3 41//3 20//3
f  23//6 42//6 31//6
f  18//53 43//53 30//53
f  32//41 44//41 24//41
f  45//2 18//2 33//2
f  46//2 33//2 24//2
f  32//3 26//3 47//3
f  34//4 27//4 48//4
f  15//13 34//13 36//13
f  20//3 41//3 35//3
f  48//3 27//3 35//3
f  36//13 49//13 28//13
f  47//4 21//4 37//4
f  50//4 37//4 28//4
f  47//3 26//3 38//3
f  38//4 21//4 47//4
f  22//1 39//1 51//1
f  52//1 39//1 29//1
f  29//18 30//18 53//18
f  40//17 54//17 23//17
f  40//1 22//1 51//1
f  55//54 41//54 31//54
f  42//6 55//6 31//6
f  56//3 42//3 23//3
f  43//44 57//44 30//44
f  43//2 18//2 45//2
f  24//1 44//1 58//1
f  32//35 47//35 44//35
f  33//55 59//55 45//55
f  33//13 46//13 60//13
f  46//2 24//2 57//2
f  58//1 34//1 48//1
f  34//56 44//56 36//56
f  41//3 61//3 35//3
f  62//3 48//3 35//3
f  49//57 50//57 28//57
f  36//13 63//13 49//13
f  44//1 47//1 37//1
f  50//3 64//3 37//3
f  51//2 39//2 65//2
f  39//13 52//13 66//13
f  52//4 29//4 59//4
f  30//18 57//18 53//18
f  67//4 29//4 53//4
f  54//58 56//58 23//58
f  68//59 54//59 40//59
f  69//1 40//1 51//1
f  70//4 41//4 55//4
f  42//4 70//4 55//4
f  56//3 71//3 42//3
f  43//2 72//2 57//2
f  43//2 45//2 72//2
f  44//1 34//1 58//1
f  24//60 58//60 57//60
f  45//1 59//1 67//1
f  59//13 33//13 60//13
f  60//6 46//6 73//6
f  72//2 46//2 57//2
f  74//1 58//1 48//1
f  36//2 44//2 75//2
f  61//3 76//3 35//3
f  41//6 70//6 61//6
f  48//61 62//61 77//61
f  78//3 62//3 35//3
f  64//61 50//61 49//61
f  49//62 63//62 78//62
f  63//2 36//2 75//2
f  64//3 44//3 37//3
f  65//2 39//2 66//2
f  65//3 79//3 51//3
f  52//13 80//13 66//13
f  29//4 67//4 59//4
f  52//4 59//4 80//4
f  53//18 57//18 58//18
f  73//4 67//4 53//4
f  56//63 54//63 81//63
f  82//17 54//17 68//17
f  68//1 40//1 69//1
f  79//3 69//3 51//3
f  42//3 71//3 70//3
f  61//2 71//2 56//2
f  72//3 45//3 67//3
f  59//64 60//64 80//64
f  73//6 46//6 72//6
f  60//65 73//65 80//65
f  74//2 83//2 58//2
f  84//1 74//1 48//1
f  75//3 44//3 64//3
f  35//6 76//6 85//6
f  81//3 76//3 61//3
f  70//6 71//6 61//6
f  77//2 62//2 86//2
f  48//61 77//61 87//61
f  86//3 62//3 78//3
f  88//66 78//66 35//66
f  64//4 49//4 89//4
f  78//67 63//67 86//67
f  49//4 78//4 89//4
f  75//21 90//21 63//21
f  66//6 91//6 65//6
f  65//6 92//6 79//6
f  66//6 80//6 83//6
f  83//13 53//13 58//13
f  73//3 72//3 67//3
f  80//4 73//4 53//4
f  81//1 54//1 93//1
f  81//2 61//2 56//2
f  93//2 54//2 82//2
f  92//17 82//17 68//17
f  68//4 69//4 94//4
f  95//4 69//4 79//4
f  91//2 83//2 74//2
f  96//1 74//1 84//1
f  84//61 48//61 87//61
f  64//68 90//68 75//68
f  76//6 97//6 85//6
f  98//6 35//6 85//6
f  99//3 76//3 81//3
f  100//2 77//2 86//2
f  77//1 101//1 87//1
f  78//1 88//1 102//1
f  88//4 35//4 103//4
f  104//4 64//4 89//4
f  86//6 63//6 105//6
f  89//4 78//4 106//4
f  90//69 107//69 63//69
f  91//6 92//6 65//6
f  66//6 83//6 91//6
f  92//4 108//4 79//4
f  83//6 80//6 53//6
f  99//3 81//3 93//3
f  109//2 93//2 82//2
f  96//3 82//3 92//3
f  68//4 94//4 92//4
f  69//4 95//4 94//4
f  108//4 95//4 79//4
f  74//3 96//3 91//3
f  84//2 110//2 96//2
f  111//70 84//70 87//70
f  104//21 90//21 64//21
f  97//71 111//71 85//71
f  97//2 76//2 112//2
f  35//4 98//4 101//4
f  98//13 85//13 113//13
f  112//3 76//3 99//3
f  77//72 100//72 102//72
f  100//16 86//16 114//16
f  87//73 101//73 113//73
f  77//72 102//72 101//72
f  102//1 88//1 103//1
f  78//4 102//4 106//4
f  35//4 101//4 103//4
f  89//3 90//3 104//3
f  63//6 107//6 105//6
f  86//6 105//6 114//6
f  115//1 89//1 106//1
f  107//51 90//51 116//51
f  96//3 92//3 91//3
f  117//4 108//4 92//4
f  109//74 99//74 93//74
f  82//53 118//53 109//53
f  96//20 118//20 82//20
f  94//4 117//4 92//4
f  119//1 94//1 95//1
f  108//3 120//3 95//3
f  110//2 121//2 96//2
f  120//2 110//2 84//2
f  112//1 84//1 111//1
f  85//71 111//71 87//71
f  111//2 97//2 112//2
f  98//4 113//4 101//4
f  85//13 87//13 113//13
f  84//3 112//3 99//3
f  102//6 100//6 122//6
f  122//6 100//6 114//6
f  101//72 102//72 103//72
f  102//4 122//4 106//4
f  116//3 90//3 89//3
f  105//2 107//2 123//2
f  105//71 124//71 114//71
f  116//1 89//1 115//1
f  122//13 115//13 106//13
f  123//51 107//51 116//51
f  117//6 110//6 108//6
f  109//6 118//6 99//6
f  121//2 118//2 96//2
f  94//13 121//13 117//13
f  121//55 94//55 119//55
f  120//3 119//3 95//3
f  108//6 110//6 120//6
f  121//13 110//13 117//13
f  99//2 120//2 84//2
f  114//13 115//13 122//13
f  124//2 105//2 123//2
f  115//71 114//71 124//71
f  124//1 116//1 115//1
f  123//1 116//1 124//1
f  99//2 118//2 119//2
f  119//2 118//2 121//2
f  99//2 119//2 120//2

# Mesh 'mesh2_mesh2-geometry' with 24 faces
g mesh2_mesh2-geometry
usemtl material_2_24
f  125//3 126//3 127//3
f  127//13 126//13 125//13
f  125//3 128//3 126//3
f  126//13 128//13 125//13
f  126//1 129//1 127//1
f  127//6 129//6 126//6
f  125//2 127//2 130//2
f  130//4 127//4 125//4
f  125//6 131//6 128//6
f  128//1 131//1 125//1
f  128//4 132//4 126//4
f  126//2 132//2 128//2
f  126//1 132//1 129//1
f  129//6 132//6 126//6
f  130//2 127//2 129//2
f  129//4 127//4 130//4
f  125//6 130//6 131//6
f  131//1 130//1 125//1
f  131//4 132//4 128//4
f  128//2 132//2 131//2
f  129//13 132//13 131//13
f  131//3 132//3 129//3
f  129//13 131//13 130//13
f  130//3 131//3 129//3

# Mesh 'mesh3_mesh3-geometry' with 24 faces
g mesh3_mesh3-geometry
usemtl material_2_24
f  133//3 134//3 135//3
f  135//13 134//13 133//13
f  133//3 136//3 134//3
f  134//13 136//13 133//13
f  134//1 137//1 135//1
f  135//6 137//6 134//6
f  133//2 135//2 138//2
f  138//4 135//4 133//4
f  133//6 139//6 136//6
f  136//1 139//1 133//1
f  136//4 140//4 134//4
f  134//2 140//2 136//2
f  134//1 140//1 137//1
f  137//6 140//6 134//6
f  138//2 135//2 137//2
f  137//4 135//4 138//4
f  133//6 138//6 139//6
f  139//1 138//1 133//1
f  139//4 140//4 136//4
f  136//2 140//2 139//2
f  137//13 140//13 139//13
f  139//3 140//3 137//3
f  137//13 139//13 138//13
f  138//3 139//3 137//3

# Mesh 'mesh4_mesh4-geometry' with 24 faces
g mesh4_mesh4-geometry
usemtl material_2_24
f  141//3 142//3 143//3
f  143//13 142//13 141//13
f  141//3 144//3 142//3
f  142//13 144//13 141//13
f  142//1 145//1 143//1
f  143//6 145//6 142//6
f  141//2 143//2 146//2
f  146//4 143//4 141//4
f  141//6 147//6 144//6
f  144//1 147//1 141//1
f  144//4 148//4 142//4
f  142//2 148//2 144//2
f  142//1 148//1 145//1
f  145//6 148//6 142//6
f  146//2 143//2 145//2
f  145//4 143//4 146//4
f  141//6 146//6 147//6
f  147//1 146//1 141//1
f  147//4 148//4 144//4
f  144//2 148//2 147//2
f  145//13 148//13 147//13
f  147//3 148//3 145//3
f  145//13 147//13 146//13
f  146//3 147//3 145//3

# Mesh 'mesh5_mesh5-geometry' with 24 faces
g mesh5_mesh5-geometry
usemtl material_2_24
f  149//1 150//1 151//1
f  151//6 150//6 149//6
f  149//1 152//1 150//1
f  150//6 152//6 149//6
f  153//2 151//2 150//2
f  150//4 151//4 153//4
f  151//3 154//3 149//3
f  149//13 154//13 151//13
f  154//4 152//4 149//4
f  149//2 152//2 154//2
f  150//13 152//13 153//13
f  153//3 152//3 150//3
f  155//2 151//2 153//2
f  153//4 151//4 155//4
f  155//3 154//3 151//3
f  151//13 154//13 155//13
f  156//4 152//4 154//4
f  154//2 152//2 156//2
f  153//13 152//13 156//13
f  156//3 152//3 153//3
f  155//6 153//6 156//6
f  156//1 153//1 155//1
f  155//6 156//6 154//6
f  154//1 156//1 155//1

# Mesh 'mesh6_mesh6-geometry' with 24 faces
g mesh6_mesh6-geometry
usemtl material_2_24
f  157//2 158//2 159//2
f  159//4 158//4 157//4
f  160//2 158//2 157//2
f  157//4 158//4 160//4
f  161//1 159//1 158//1
f  158//6 159//6 161//6
f  159//13 162//13 157//13
f  157//3 162//3 159//3
f  160//3 163//3 158//3
f  158//13 163//13 160//13
f  160//6 157//6 164//6
f  164//1 157//1 160//1
f  161//1 162//1 159//1
f  159//6 162//6 161//6
f  158//3 163//3 161//3
f  161//13 163//13 158//13
f  157//13 162//13 164//13
f  164//3 162//3 157//3
f  160//6 164//6 163//6
f  163//1 164//1 160//1
f  163//4 162//4 161//4
f  161//2 162//2 163//2
f  164//4 162//4 163//4
f  163//2 162//2 164//2

