# File produced by Open Asset Import Library (http://www.assimp.sf.net)
# (assimp v3.2.202087883)

mtllib model_normalized.mtl

# 112 vertex positions
v -0.374432 -0.017020 -0.232095
v 0.388048 -0.017020 -0.056139
v 0.388048 -0.017020 -0.232095
v -0.374432 -0.017020 -0.056139
v 0.388048 0.012307 -0.056139
v -0.374432 0.012307 -0.232095
v 0.388048 0.012307 -0.232095
v -0.374432 0.012307 -0.056139
v -0.374432 -0.017020 -0.044408
v 0.388048 -0.017020 0.131549
v 0.388048 -0.017020 -0.044408
v -0.374432 -0.017020 0.131549
v 0.388048 0.012307 0.131549
v -0.374432 0.012307 -0.044408
v 0.388048 0.012307 -0.044408
v -0.374432 0.012307 0.131549
v -0.374432 0.041633 0.119818
v -0.374432 0.070959 0.131549
v -0.374432 0.041633 0.131549
v -0.374432 0.070959 0.119818
v 0.388048 0.070959 0.131549
v 0.388048 0.041633 0.119818
v 0.388048 0.041633 0.131549
v 0.388048 0.070959 0.119818
v -0.374432 0.158937 0.119818
v -0.374432 0.188263 0.131549
v -0.374432 0.158937 0.131549
v -0.374432 0.188263 0.119818
v 0.388048 0.188263 0.131549
v 0.388048 0.158937 0.119818
v 0.388048 0.158937 0.131549
v 0.388048 0.188263 0.119818
v 0.399778 -0.104998 -0.202769
v 0.388048 -0.075672 -0.202769
v 0.388048 -0.104998 -0.202769
v 0.399778 -0.075672 -0.202769
v 0.388048 -0.075672 0.102223
v 0.399778 -0.104998 0.102223
v 0.388048 -0.104998 0.102223
v 0.399778 -0.075672 0.102223
v -0.374432 -0.104998 -0.202769
v -0.386162 -0.075672 -0.202769
v -0.386162 -0.104998 -0.202769
v -0.374432 -0.075672 -0.202769
v -0.386162 -0.075672 0.102223
v -0.374432 -0.104998 0.102223
v -0.386162 -0.104998 0.102223
v -0.374432 -0.075672 0.102223
v -0.374432 -0.104998 0.119818
v -0.374432 -0.075672 0.131549
v -0.374432 -0.104998 0.131549
v -0.374432 -0.075672 0.119818
v 0.388048 -0.075672 0.131549
v 0.388048 -0.104998 0.119818
v 0.388048 -0.104998 0.131549
v 0.388048 -0.075672 0.119818
v -0.374432 0.100285 0.119818
v -0.374432 0.129611 0.131549
v -0.374432 0.100285 0.131549
v -0.374432 0.129611 0.119818
v 0.388048 0.129611 0.131549
v 0.388048 0.100285 0.119818
v 0.388048 0.100285 0.131549
v 0.388048 0.129611 0.119818
v -0.374432 0.041633 -0.202769
v -0.386162 0.070959 -0.202769
v -0.386162 0.041633 -0.202769
v -0.374432 0.070959 -0.202769
v -0.386162 0.070959 0.102223
v -0.374432 0.041633 0.102223
v -0.386162 0.041633 0.102223
v -0.374432 0.070959 0.102223
v 0.399778 0.041633 -0.202769
v 0.388048 0.070959 -0.202769
v 0.388048 0.041633 -0.202769
v 0.399778 0.070959 -0.202769
v 0.388048 0.070959 0.102223
v 0.399778 0.041633 0.102223
v 0.388048 0.041633 0.102223
v 0.399778 0.070959 0.102223
v -0.403758 0.188263 0.131549
v -0.374432 0.188263 -0.232095
v -0.403758 0.188263 -0.232095
v -0.403758 -0.251629 0.131549
v -0.403758 0.158937 -0.202769
v -0.374432 -0.251629 -0.232095
v -0.374432 -0.251629 0.131549
v -0.403758 0.158937 0.102223
v -0.403758 -0.251629 -0.202769
v -0.403758 -0.251629 -0.232095
v -0.374432 0.158937 -0.202769
v -0.374432 -0.251629 0.102223
v -0.403758 -0.251629 0.102223
v -0.374432 -0.251629 -0.202769
v -0.374432 0.158937 0.102223
v -0.374432 0.041633 0.131549
v -0.374432 0.129611 0.131549
v 0.388048 -0.251629 0.131549
v 0.388048 0.158937 0.102223
v 0.388048 -0.251629 0.102223
v 0.417374 -0.251629 0.102223
v 0.388048 0.158937 -0.202769
v 0.417374 0.188263 0.131549
v 0.417374 0.158937 0.102223
v 0.417374 -0.251629 0.131549
v 0.388048 0.188263 -0.232095
v 0.417374 0.158937 -0.202769
v 0.417374 0.188263 -0.232095
v 0.388048 -0.251629 -0.202769
v 0.388048 -0.251629 -0.232095
v 0.417374 -0.251629 -0.232095
v 0.417374 -0.251629 -0.202769

# 199 UV coordinates
vt 0.775471 0 0
vt 0 0.178955 0
vt 0 0 0
vt 0.775471 0.178955 0
vt -0.178955 0 0
vt -0.178955 0.029826 0
vt 0.775471 0.029826 0
vt 0 0.029826 0
vt 0.178955 0 0
vt -0.775471 0 0
vt 0.178955 0.029826 0
vt -0.775471 0.029826 0
vt 132.701 -207.318 0
vt 132.701 -207.061 0
vt 133.412 -207.318 0
vt 133.412 -207.061 0
vt 132.183 0 0
vt 132.019 0.042881 0
vt 132.019 0 0
vt 133.412 0.042881 0
vt 132.701 0 0
vt 133.412 0 0
vt -132.019 0 0
vt -132.183 0.042881 0
vt -132.183 0 0
vt -132.701 0.042881 0
vt -133.412 0 0
vt -132.701 0 0
vt 132.183 0.042881 0
vt 132.701 0.042881 0
vt -132.019 0.042881 0
vt -133.412 0.042881 0
vt 131.914 0.12391 0
vt 131.903 0.166791 0
vt 131.903 0.12391 0
vt 131.914 0.166791 0
vt -133.357 0.12391 0
vt -132.646 0.166791 0
vt -133.357 0.166791 0
vt -132.646 -206.812 0
vt -133.357 -206.794 0
vt -133.357 -206.812 0
vt 133.466 0.166791 0
vt 132.756 0.12391 0
vt 133.466 0.12391 0
vt 132.756 -206.794 0
vt 133.466 -206.812 0
vt 133.466 -206.794 0
vt -132.646 0.12391 0
vt -132.646 -206.794 0
vt 132.756 0.166791 0
vt 132.756 -206.812 0
vt 0.01193 0 0
vt 0.01193 0.029826 0
vt -0.029826 0 0
vt -0.029826 0.775471 0
vt 0.01193 0.775471 0
vt 0 0.775471 0
vt 0.029826 0 0
vt -0.01193 0 0
vt 0.029826 0.775471 0
vt -0.01193 0.775471 0
vt -133.526 0.12391 0
vt -133.526 0.166791 0
vt -133.526 -206.794 0
vt -133.526 -206.812 0
vt 133.636 0.166791 0
vt 133.636 0.12391 0
vt 133.636 -206.812 0
vt 133.636 -206.794 0
vt -0.029826 -0.184636 0
vt 0 -0.184636 0
vt 0.01193 -0.184636 0
vt 0.029826 -0.184636 0
vt -0.01193 -0.184636 0
vt -133.384 -206.872 0
vt -133.357 -207.404 0
vt -133.357 -206.872 0
vt -133.384 -207.404 0
vt 131.898 0.300168 0
vt 132.237 0.300168 0
vt 131.898 0.257287 0
vt 132.237 0.257287 0
vt -133.384 -0.343049 0
vt -133.357 0.300168 0
vt -133.384 0.300168 0
vt -132.237 0.300168 0
vt -132.21 0.257287 0
vt -131.898 0.300168 0
vt 133.357 -0.343049 0
vt 133.384 0.300168 0
vt 133.357 0.300168 0
vt -133.357 -0.343049 0
vt -131.926 0.257287 0
vt -131.898 -0.343049 0
vt -132.21 -0.343049 0
vt 133.384 -0.343049 0
vt 132.21 0.257287 0
vt 132.237 -0.343049 0
vt -133.384 -206.786 0
vt -133.357 -206.829 0
vt -133.357 -206.786 0
vt -131.926 -0.343049 0
vt -132.237 -0.343049 0
vt -133.357 0.257287 0
vt -133.384 0.257287 0
vt -133.357 -207.275 0
vt -133.384 -206.829 0
vt -133.384 -207.275 0
vt -133.384 -207.361 0
vt 131.909 0.300168 0
vt 132.21 -0.343049 0
vt 131.926 -0.343049 0
vt 131.909 -0.128643 0
vt 131.898 -0.343049 0
vt 133.494 0.257287 0
vt 133.466 -0.343049 0
vt 133.494 -0.343049 0
vt -133.357 -207.361 0
vt 131.926 0.257287 0
vt 131.909 -0.085762 0
vt 131.898 -0.128643 0
vt 133.466 0.257287 0
vt 131.898 0.085762 0
vt 131.909 0.257287 0
vt 131.898 -0.085762 0
vt 131.909 0.085762 0
vt 131.909 0.171525 0
vt 131.909 0.214406 0
vt 131.909 0.128643 0
vt 131.898 0.171525 0
vt 131.898 0.214406 0
vt 131.898 0.128643 0
vt -0.029826 0.447387 0
vt 0 0.447387 0
vt 0.310188 0.447387 0
vt -0.029826 0.417561 0
vt -0.059652 0.447387 0
vt 0.029826 0.447387 0
vt 0.310188 -0 0
vt 0.280363 0.417561 0
vt 0.059652 0 0
vt 0.029826 0.417561 0
vt 0.059652 0.447387 0
vt 0 0.310188 0
vt 0 0.280363 0
vt -0.029826 0.310188 0
vt 0.280363 -0 0
vt -0.059652 0 0
vt 0 0.417561 0
vt -0.029826 -0.029826 0
vt -0.029826 0.280363 0
vt 0 -0.029826 0
vt -0.029826 -0.059652 0
vt 0 -0.059652 0
vt -0.298258 0.447387 0
vt -0.310188 -0 0
vt -0.298258 0.149129 0
vt -0.280363 -0 0
vt -0.280363 0.417561 0
vt -0.298258 0.178955 0
vt -0.310188 0.149129 0
vt -0.310189 0.298258 0
vt -0.298258 0.417561 0
vt -0.310188 0.178955 0
vt -0.298258 0.298258 0
vt -0.298258 0.35791 0
vt -0.298258 0.387736 0
vt -0.298258 0.328084 0
vt -0.310188 0.417561 0
vt -0.310188 0.35791 0
vt -0.310188 0.387736 0
vt -0.310189 0.328084 0
vt -132.974 -206.915 0
vt -133.357 -206.915 0
vt -132.974 -206.872 0
vt -133.767 -206.958 0
vt -133.767 -206.915 0
vt -133.384 -206.958 0
vt -132.701 -206.829 0
vt -132.701 -206.786 0
vt -132.674 -206.829 0
vt -133.384 -206.915 0
vt -132.674 -206.786 0
vt -132.701 -207.275 0
vt -132.674 -207.275 0
vt -132.974 -206.829 0
vt -133.767 -206.872 0
vt -132.974 -207.361 0
vt -133.384 -207.232 0
vt -133.767 -207.232 0
vt -132.974 -207.404 0
vt -133.357 -207.318 0
vt -133.767 -207.318 0
vt -133.767 -207.275 0
vt -133.767 -207.404 0
vt -133.767 -207.361 0
vt -132.701 -207.318 0
vt -132.674 -207.318 0

# 6 vertex normals
vn 0 0.01 0
vn -0.01 0 0
vn 0 0 0.01
vn 0.01 -0 -0
vn 0 -0 -0.01
vn 0 -0.01 -0

# Mesh 'mesh1_mesh1-geometry' with 12 faces
g mesh1_mesh1-geometry
usemtl material_0_1_8
f  1/1/1 2/2/1 3/3/1
f  2/2/1 1/1/1 4/4/1
f  2/5/2 5/6/2 3/3/2
f  1/1/3 3/3/3 6/7/3
f  1/3/4 6/8/4 4/9/4
f  2/3/5 4/10/5 5/8/5
f  7/8/2 3/3/2 5/6/2
f  7/8/3 6/7/3 3/3/3
f  8/11/4 4/9/4 6/8/4
f  8/12/5 5/8/5 4/10/5
f  7/3/6 5/2/6 6/1/6
f  8/4/6 6/1/6 5/2/6

# Mesh 'mesh1_mesh1-geometry' with 12 faces
g mesh1_mesh1-geometry
usemtl material_1_2_8
f  3/13/6 2/14/6 1/15/6
f  4/16/6 1/15/6 2/14/6
f  3/17/4 5/18/4 2/19/4
f  6/20/5 3/21/5 1/22/5
f  4/23/2 6/24/2 1/25/2
f  5/26/3 4/27/3 2/28/3
f  5/18/4 3/17/4 7/29/4
f  3/21/5 6/20/5 7/30/5
f  6/24/2 4/23/2 8/31/2
f  4/27/3 5/26/3 8/32/3
f  6/15/1 5/14/1 7/13/1
f  5/14/1 6/15/1 8/16/1

# Mesh 'mesh2_mesh2-geometry' with 12 faces
g mesh2_mesh2-geometry
usemtl material_0_1_8
f  9/1/1 10/2/1 11/3/1
f  10/2/1 9/1/1 12/4/1
f  10/5/2 13/6/2 11/3/2
f  9/1/3 11/3/3 14/7/3
f  9/3/4 14/8/4 12/9/4
f  10/3/5 12/10/5 13/8/5
f  15/8/2 11/3/2 13/6/2
f  15/8/3 14/7/3 11/3/3
f  16/11/4 12/9/4 14/8/4
f  16/12/5 13/8/5 12/10/5
f  15/3/6 13/2/6 14/1/6
f  16/4/6 14/1/6 13/2/6

# Mesh 'mesh2_mesh2-geometry' with 12 faces
g mesh2_mesh2-geometry
usemtl material_1_2_8
f  11/13/6 10/14/6 9/15/6
f  12/16/6 9/15/6 10/14/6
f  11/17/4 13/18/4 10/19/4
f  14/20/5 11/21/5 9/22/5
f  12/23/2 14/24/2 9/25/2
f  13/26/3 12/27/3 10/28/3
f  13/18/4 11/17/4 15/29/4
f  11/21/5 14/20/5 15/30/5
f  14/24/2 12/23/2 16/31/2
f  12/27/3 13/26/3 16/32/3
f  14/15/1 13/14/1 15/13/1
f  13/14/1 14/15/1 16/16/1

# Mesh 'mesh3_mesh3-geometry' with 12 faces
g mesh3_mesh3-geometry
usemtl material_1_2_8
f  17/33/4 18/34/4 19/35/4
f  18/34/4 17/33/4 20/36/4
f  19/37/3 21/38/3 18/39/3
f  22/40/6 19/41/6 17/42/6
f  20/43/5 22/44/5 17/45/5
f  21/46/1 20/47/1 18/48/1
f  21/38/3 19/37/3 23/49/3
f  19/41/6 22/40/6 23/50/6
f  22/44/5 20/43/5 24/51/5
f  20/47/1 21/46/1 24/52/1
f  22/33/4 21/34/4 23/35/4
f  21/34/4 22/33/4 24/36/4

# Mesh 'mesh3_mesh3-geometry' with 12 faces
g mesh3_mesh3-geometry
usemtl material_0_1_8
f  19/3/2 18/8/2 17/53/2
f  20/54/2 17/53/2 18/8/2
f  18/55/5 21/56/5 19/3/5
f  17/53/1 19/3/1 22/57/1
f  17/3/3 22/58/3 20/59/3
f  18/3/6 20/60/6 21/58/6
f  23/58/5 19/3/5 21/56/5
f  23/58/1 22/57/1 19/3/1
f  24/61/3 20/59/3 22/58/3
f  24/62/6 21/58/6 20/60/6
f  23/3/2 21/8/2 22/53/2
f  24/54/2 22/53/2 21/8/2

# Mesh 'mesh4_mesh4-geometry' with 12 faces
g mesh4_mesh4-geometry
usemtl material_1_2_8
f  25/33/4 26/34/4 27/35/4
f  26/34/4 25/33/4 28/36/4
f  27/37/3 29/38/3 26/39/3
f  30/40/6 27/41/6 25/42/6
f  28/43/5 30/44/5 25/45/5
f  29/46/1 28/47/1 26/48/1
f  29/38/3 27/37/3 31/49/3
f  27/41/6 30/40/6 31/50/6
f  30/44/5 28/43/5 32/51/5
f  28/47/1 29/46/1 32/52/1
f  30/33/4 29/34/4 31/35/4
f  29/34/4 30/33/4 32/36/4

# Mesh 'mesh4_mesh4-geometry' with 12 faces
g mesh4_mesh4-geometry
usemtl material_0_1_8
f  27/3/2 26/8/2 25/53/2
f  28/54/2 25/53/2 26/8/2
f  26/55/5 29/56/5 27/3/5
f  25/53/1 27/3/1 30/57/1
f  25/3/3 30/58/3 28/59/3
f  26/3/6 28/60/6 29/58/6
f  31/58/5 27/3/5 29/56/5
f  31/58/1 30/57/1 27/3/1
f  32/61/3 28/59/3 30/58/3
f  32/62/6 29/58/6 28/60/6
f  31/3/2 29/8/2 30/53/2
f  32/54/2 30/53/2 29/8/2

# Mesh 'mesh5_mesh5-geometry' with 12 faces
g mesh5_mesh5-geometry
usemtl material_1_2_8
f  33/33/3 34/34/3 35/35/3
f  34/34/3 33/33/3 36/36/3
f  35/63/2 37/38/2 34/64/2
f  38/40/6 35/65/6 33/66/6
f  36/67/4 38/44/4 33/68/4
f  37/46/1 36/69/1 34/70/1
f  37/38/2 35/63/2 39/49/2
f  35/65/6 38/40/6 39/50/6
f  38/44/4 36/67/4 40/51/4
f  36/69/1 37/46/1 40/52/1
f  38/33/3 37/34/3 39/35/3
f  37/34/3 38/33/3 40/36/3

# Mesh 'mesh5_mesh5-geometry' with 12 faces
g mesh5_mesh5-geometry
usemtl material_0_1_8
f  35/3/5 34/8/5 33/53/5
f  36/54/5 33/53/5 34/8/5
f  34/71/4 37/56/4 35/72/4
f  33/73/1 35/72/1 38/57/1
f  33/72/2 38/58/2 36/74/2
f  34/72/6 36/75/6 37/58/6
f  39/58/4 35/72/4 37/56/4
f  39/58/1 38/57/1 35/72/1
f  40/61/2 36/74/2 38/58/2
f  40/62/6 37/58/6 36/75/6
f  39/3/5 37/8/5 38/53/5
f  40/54/5 38/53/5 37/8/5

# Mesh 'mesh6_mesh6-geometry' with 12 faces
g mesh6_mesh6-geometry
usemtl material_1_2_8
f  41/33/3 42/34/3 43/35/3
f  42/34/3 41/33/3 44/36/3
f  43/63/2 45/38/2 42/64/2
f  46/40/6 43/65/6 41/66/6
f  44/67/4 46/44/4 41/68/4
f  45/46/1 44/69/1 42/70/1
f  45/38/2 43/63/2 47/49/2
f  43/65/6 46/40/6 47/50/6
f  46/44/4 44/67/4 48/51/4
f  44/69/1 45/46/1 48/52/1
f  46/33/3 45/34/3 47/35/3
f  45/34/3 46/33/3 48/36/3

# Mesh 'mesh6_mesh6-geometry' with 12 faces
g mesh6_mesh6-geometry
usemtl material_0_1_8
f  43/3/5 42/8/5 41/53/5
f  44/54/5 41/53/5 42/8/5
f  42/71/4 45/56/4 43/72/4
f  41/73/1 43/72/1 46/57/1
f  41/72/2 46/58/2 44/74/2
f  42/72/6 44/75/6 45/58/6
f  47/58/4 43/72/4 45/56/4
f  47/58/1 46/57/1 43/72/1
f  48/61/2 44/74/2 46/58/2
f  48/62/6 45/58/6 44/75/6
f  47/3/5 45/8/5 46/53/5
f  48/54/5 46/53/5 45/8/5

# Mesh 'mesh7_mesh7-geometry' with 12 faces
g mesh7_mesh7-geometry
usemtl material_1_2_8
f  49/33/4 50/34/4 51/35/4
f  50/34/4 49/33/4 52/36/4
f  51/37/3 53/38/3 50/39/3
f  54/40/6 51/41/6 49/42/6
f  52/43/5 54/44/5 49/45/5
f  53/46/1 52/47/1 50/48/1
f  53/38/3 51/37/3 55/49/3
f  51/41/6 54/40/6 55/50/6
f  54/44/5 52/43/5 56/51/5
f  52/47/1 53/46/1 56/52/1
f  54/33/4 53/34/4 55/35/4
f  53/34/4 54/33/4 56/36/4

# Mesh 'mesh7_mesh7-geometry' with 12 faces
g mesh7_mesh7-geometry
usemtl material_0_1_8
f  51/3/2 50/8/2 49/53/2
f  52/54/2 49/53/2 50/8/2
f  50/55/5 53/56/5 51/3/5
f  49/53/1 51/3/1 54/57/1
f  49/3/3 54/58/3 52/59/3
f  50/3/6 52/60/6 53/58/6
f  55/58/5 51/3/5 53/56/5
f  55/58/1 54/57/1 51/3/1
f  56/61/3 52/59/3 54/58/3
f  56/62/6 53/58/6 52/60/6
f  55/3/2 53/8/2 54/53/2
f  56/54/2 54/53/2 53/8/2

# Mesh 'mesh8_mesh8-geometry' with 12 faces
g mesh8_mesh8-geometry
usemtl material_1_2_8
f  57/33/4 58/34/4 59/35/4
f  58/34/4 57/33/4 60/36/4
f  59/37/3 61/38/3 58/39/3
f  62/40/6 59/41/6 57/42/6
f  60/43/5 62/44/5 57/45/5
f  61/46/1 60/47/1 58/48/1
f  61/38/3 59/37/3 63/49/3
f  59/41/6 62/40/6 63/50/6
f  62/44/5 60/43/5 64/51/5
f  60/47/1 61/46/1 64/52/1
f  62/33/4 61/34/4 63/35/4
f  61/34/4 62/33/4 64/36/4

# Mesh 'mesh8_mesh8-geometry' with 12 faces
g mesh8_mesh8-geometry
usemtl material_0_1_8
f  59/3/2 58/8/2 57/53/2
f  60/54/2 57/53/2 58/8/2
f  58/55/5 61/56/5 59/3/5
f  57/53/1 59/3/1 62/57/1
f  57/3/3 62/58/3 60/59/3
f  58/3/6 60/60/6 61/58/6
f  63/58/5 59/3/5 61/56/5
f  63/58/1 62/57/1 59/3/1
f  64/61/3 60/59/3 62/58/3
f  64/62/6 61/58/6 60/60/6
f  63/3/2 61/8/2 62/53/2
f  64/54/2 62/53/2 61/8/2

# Mesh 'mesh9_mesh9-geometry' with 12 faces
g mesh9_mesh9-geometry
usemtl material_1_2_8
f  65/33/3 66/34/3 67/35/3
f  66/34/3 65/33/3 68/36/3
f  67/63/2 69/38/2 66/64/2
f  70/40/6 67/65/6 65/66/6
f  68/67/4 70/44/4 65/68/4
f  69/46/1 68/69/1 66/70/1
f  69/38/2 67/63/2 71/49/2
f  67/65/6 70/40/6 71/50/6
f  70/44/4 68/67/4 72/51/4
f  68/69/1 69/46/1 72/52/1
f  70/33/3 69/34/3 71/35/3
f  69/34/3 70/33/3 72/36/3

# Mesh 'mesh9_mesh9-geometry' with 12 faces
g mesh9_mesh9-geometry
usemtl material_0_1_8
f  67/3/5 66/8/5 65/53/5
f  68/54/5 65/53/5 66/8/5
f  66/71/4 69/56/4 67/72/4
f  65/73/1 67/72/1 70/57/1
f  65/72/2 70/58/2 68/74/2
f  66/72/6 68/75/6 69/58/6
f  71/58/4 67/72/4 69/56/4
f  71/58/1 70/57/1 67/72/1
f  72/61/2 68/74/2 70/58/2
f  72/62/6 69/58/6 68/75/6
f  71/3/5 69/8/5 70/53/5
f  72/54/5 70/53/5 69/8/5

# Mesh 'mesh10_mesh10-geometry' with 12 faces
g mesh10_mesh10-geometry
usemtl material_1_2_8
f  73/33/3 74/34/3 75/35/3
f  74/34/3 73/33/3 76/36/3
f  75/63/2 77/38/2 74/64/2
f  78/40/6 75/65/6 73/66/6
f  76/67/4 78/44/4 73/68/4
f  77/46/1 76/69/1 74/70/1
f  77/38/2 75/63/2 79/49/2
f  75/65/6 78/40/6 79/50/6
f  78/44/4 76/67/4 80/51/4
f  76/69/1 77/46/1 80/52/1
f  78/33/3 77/34/3 79/35/3
f  77/34/3 78/33/3 80/36/3

# Mesh 'mesh10_mesh10-geometry' with 12 faces
g mesh10_mesh10-geometry
usemtl material_0_1_8
f  75/3/5 74/8/5 73/53/5
f  76/54/5 73/53/5 74/8/5
f  74/71/4 77/56/4 75/72/4
f  73/73/1 75/72/1 78/57/1
f  73/72/2 78/58/2 76/74/2
f  74/72/6 76/75/6 77/58/6
f  79/58/4 75/72/4 77/56/4
f  79/58/1 78/57/1 75/72/1
f  80/61/2 76/74/2 78/58/2
f  80/62/6 77/58/6 76/75/6
f  79/3/5 77/8/5 78/53/5
f  80/54/5 78/53/5 77/8/5

# Mesh 'mesh11_mesh11-geometry' with 46 faces
g mesh11_mesh11-geometry
usemtl material_1_2_8
f  81/76/6 82/77/6 26/78/6
f  82/77/6 81/76/6 83/79/6
f  26/80/1 82/81/1 81/82/1
f  83/83/1 81/82/1 82/81/1
f  84/84/3 26/85/3 81/86/3
f  83/87/2 85/88/2 81/89/2
f  86/90/5 83/91/5 82/92/5
f  26/85/3 84/84/3 87/93/3
f  81/89/2 88/94/2 84/95/2
f  83/87/2 89/96/2 85/88/2
f  81/89/2 85/88/2 88/94/2
f  83/91/5 86/90/5 90/97/5
f  82/81/4 91/98/4 86/99/4
f  84/100/6 92/101/6 87/102/6
f  84/95/2 88/94/2 93/103/2
f  89/96/2 83/87/2 90/104/2
f  89/84/3 91/105/3 85/106/3
f  91/107/6 88/108/6 85/109/6
f  86/77/6 89/110/6 90/79/6
f  91/98/4 82/81/4 28/111/4
f  94/112/4 86/99/4 91/98/4
f  92/101/6 84/100/6 93/108/6
f  92/113/4 49/114/4 87/115/4
f  88/116/5 92/117/5 93/118/5
f  91/105/3 89/84/3 94/93/3
f  88/108/6 91/107/6 95/101/6
f  89/110/6 86/77/6 94/119/6
f  91/98/4 28/111/4 95/120/4
f  49/114/4 92/113/4 52/121/4
f  87/115/4 49/114/4 51/122/4
f  92/117/5 88/116/5 95/123/5
f  95/120/4 28/111/4 92/113/4
f  92/113/4 28/111/4 52/121/4
f  87/115/4 51/122/4 96/124/4
f  52/121/4 28/111/4 25/125/4
f  50/126/4 96/124/4 51/122/4
f  52/121/4 25/125/4 17/127/4
f  50/126/4 17/127/4 96/124/4
f  17/127/4 25/125/4 57/128/4
f  52/121/4 17/127/4 50/126/4
f  57/128/4 25/125/4 60/129/4
f  17/127/4 57/128/4 20/130/4
f  27/82/4 60/129/4 25/125/4
f  59/131/4 20/130/4 57/128/4
f  60/129/4 27/82/4 97/132/4
f  20/130/4 59/131/4 18/133/4

# Mesh 'mesh11_mesh11-geometry' with 42 faces
g mesh11_mesh11-geometry
usemtl material_0_1_8
f  81/134/5 26/135/5 84/55/5
f  81/136/4 85/137/4 83/138/4
f  82/135/3 83/139/3 86/3/3
f  87/3/5 84/55/5 26/135/5
f  84/140/4 88/141/4 81/136/4
f  85/137/4 89/55/4 83/138/4
f  88/141/4 85/137/4 81/136/4
f  90/59/3 86/3/3 83/139/3
f  86/142/2 91/143/2 82/144/2
f  87/145/1 92/146/1 84/147/1
f  93/148/4 88/141/4 84/140/4
f  90/149/4 83/138/4 89/55/4
f  85/137/5 91/150/5 89/55/5
f  85/151/1 88/152/1 91/153/1
f  90/154/1 89/151/1 86/155/1
f  28/156/2 82/144/2 91/143/2
f  91/143/2 86/142/2 94/59/2
f  93/152/1 84/147/1 92/146/1
f  87/157/2 49/158/2 92/159/2
f  93/59/3 92/3/3 88/143/3
f  94/3/5 89/55/5 91/150/5
f  95/146/1 91/153/1 88/152/1
f  94/153/1 86/155/1 89/151/1
f  95/160/2 28/156/2 91/143/2
f  52/161/2 92/159/2 49/158/2
f  51/162/2 49/158/2 87/157/2
f  95/150/3 88/143/3 92/3/3
f  92/159/2 28/156/2 95/160/2
f  52/161/2 28/156/2 92/159/2
f  96/163/2 51/162/2 87/157/2
f  25/164/2 28/156/2 52/161/2
f  51/162/2 96/163/2 50/165/2
f  17/166/2 25/164/2 52/161/2
f  96/163/2 17/166/2 50/165/2
f  57/167/2 25/164/2 17/166/2
f  50/165/2 17/166/2 52/161/2
f  60/168/2 25/164/2 57/167/2
f  20/169/2 57/167/2 17/166/2
f  25/164/2 60/168/2 27/170/2
f  57/167/2 20/169/2 59/171/2
f  97/172/2 27/170/2 60/168/2
f  18/173/2 59/171/2 20/169/2

# Mesh 'mesh12_mesh12-geometry' with 56 faces
g mesh12_mesh12-geometry
usemtl material_1_2_8
f  98/95/2 99/94/2 100/103/2
f  29/89/2 99/94/2 98/95/2
f  100/174/4 99/175/4 98/176/4
f  98/176/4 99/175/4 29/76/4
f  99/116/5 101/117/5 100/118/5
f  100/177/3 101/178/3 99/179/3
f  101/101/6 98/100/6 100/108/6
f  100/180/1 98/181/1 101/182/1
f  29/89/2 102/88/2 99/94/2
f  99/175/4 102/119/4 29/76/4
f  98/84/3 103/85/3 29/86/3
f  29/76/5 103/108/5 98/176/5
f  101/117/5 99/116/5 104/123/5
f  104/183/3 99/179/3 101/178/3
f  98/100/6 101/101/6 105/102/6
f  105/184/1 101/182/1 98/181/1
f  106/87/2 102/88/2 29/89/2
f  29/76/4 102/119/4 106/79/4
f  107/107/6 99/108/6 102/109/6
f  102/185/1 99/180/1 107/186/1
f  103/85/3 98/84/3 105/93/3
f  105/187/5 98/176/5 103/108/5
f  29/76/6 108/77/6 103/78/6
f  103/80/1 108/81/1 29/82/1
f  99/108/6 107/107/6 104/101/6
f  104/182/1 107/186/1 99/180/1
f  104/120/4 103/80/4 101/113/4
f  101/178/2 103/78/2 104/183/2
f  101/113/4 103/80/4 105/115/4
f  105/188/2 103/78/2 101/178/2
f  106/87/2 109/96/2 102/88/2
f  102/119/4 109/189/4 106/79/4
f  108/77/6 29/76/6 106/79/6
f  106/83/1 29/82/1 108/81/1
f  109/84/3 107/105/3 102/106/3
f  102/190/5 107/109/5 109/191/5
f  107/98/4 108/81/4 103/80/4
f  103/78/2 108/77/2 107/110/2
f  107/98/4 103/80/4 104/120/4
f  104/183/2 103/78/2 107/110/2
f  109/96/2 106/87/2 110/104/2
f  110/192/4 106/79/4 109/189/4
f  111/90/5 106/91/5 108/92/5
f  108/193/3 106/119/3 111/194/3
f  107/105/3 109/84/3 112/93/3
f  112/195/5 109/191/5 107/109/5
f  108/81/4 107/98/4 111/99/4
f  111/196/2 107/110/2 108/77/2
f  106/91/5 111/90/5 110/97/5
f  110/197/3 111/194/3 106/119/3
f  111/77/6 109/110/6 110/79/6
f  110/198/1 109/185/1 111/199/1
f  109/110/6 111/77/6 112/119/6
f  112/186/1 111/199/1 109/185/1
f  112/112/4 111/99/4 107/98/4
f  107/110/2 111/196/2 112/197/2

