# File produced by Open Asset Import Library (http://www.assimp.sf.net)
# (assimp v3.2.202087883)

mtllib model_normalized.mtl

# 20 vertex positions
v 0.457983 -0.121496 -0.096778
v -0.457983 -0.121496 -0.126323
v 0.457983 -0.121496 -0.126323
v -0.457983 -0.121496 -0.096778
v 0.457983 0.027121 -0.126323
v -0.457983 0.002727 -0.096778
v -0.457983 0.027121 -0.126323
v 0.457983 0.002727 -0.096778
v -0.457983 0.027121 0.065858
v 0.457983 0.002727 0.062158
v 0.457983 0.027121 0.065858
v -0.457983 0.002727 0.062158
v 0.457983 0.213145 0.065858
v 0.457983 0.213145 0.095086
v -0.457983 -0.121496 0.062158
v -0.457983 0.213145 0.095086
v -0.457983 0.213145 0.065858
v 0.457983 -0.121496 0.095086
v 0.457983 -0.121496 0.062158
v -0.457983 -0.121496 0.095086

# 34 UV coordinates
vt -0.4794 14.8622 0
vt 0 0 0
vt 0 14.8622 0
vt -0.4794 0 0
vt -14.8622 2.41142 0
vt -14.8622 0 0
vt 0 2.41142 0
vt 14.8622 0 0
vt 0 2.01561 0
vt 0.4794 2.01561 0
vt 0.4794 0 0
vt -0.4794 2.01561 0
vt 14.8622 2.01561 0
vt 3.11827 0 0
vt -3.05826 2.01561 0
vt -3.05826 14.8622 0
vt 3.11827 2.41142 0
vt 3.11827 14.8622 0
vt -3.11827 2.41142 0
vt -3.05826 0 0
vt 3.05826 2.01561 0
vt -14.8622 5.42979 0
vt -3.59252 5.42979 0
vt -14.8622 2.01561 0
vt 3.59252 5.42979 0
vt 0 5.42979 0
vt -3.11827 5.42979 0
vt -3.59252 0 0
vt 3.05826 0 0
vt 3.11827 5.42979 0
vt 3.59252 0 0
vt 3.59252 14.8622 0
vt 14.8622 5.42979 0
vt -3.59252 14.8622 0

# 6 vertex normals
vn 0 -1 0
vn 0 0 -1
vn 1 0 0
vn 0 0 1
vn -1 0 0
vn 0 1 0

# Mesh 'mesh1_mesh1-geometry' with 36 faces
g mesh1_mesh1-geometry
usemtl material_0_1_8
f  1/1/1 2/2/1 3/3/1
f  2/2/1 1/1/1 4/4/1
f  2/2/2 5/5/2 3/6/2
f  5/7/3 1/4/3 3/2/3
f  1/8/4 6/9/4 4/2/4
f  6/10/5 2/2/5 4/11/5
f  5/5/2 2/2/2 7/7/2
f  1/4/3 5/7/3 8/12/3
f  6/9/4 1/8/4 8/13/4
f  2/2/5 6/10/5 7/7/5
f  9/14/6 5/3/6 7/2/6
f  8/12/3 5/7/3 10/15/3
f  10/16/1 6/4/1 8/1/1
f  7/7/5 6/10/5 9/17/5
f  5/3/6 9/14/6 11/18/6
f  11/19/3 10/15/3 5/7/3
f  6/4/1 10/16/1 12/20/1
f  12/21/5 9/17/5 6/10/5
f  9/7/2 13/22/2 11/5/2
f  14/23/3 10/15/3 11/19/3
f  10/24/2 15/2/2 12/9/2
f  12/21/5 16/25/5 9/17/5
f  13/22/2 9/7/2 17/26/2
f  14/23/3 11/19/3 13/27/3
f  18/28/3 10/15/3 14/23/3
f  15/2/2 10/24/2 19/6/2
f  15/29/5 16/25/5 12/21/5
f  9/17/5 16/25/5 17/30/5
f  16/31/6 13/18/6 17/14/6
f  13/18/6 16/31/6 14/32/6
f  10/15/3 18/28/3 19/20/3
f  16/26/4 18/8/4 14/33/4
f  18/34/1 15/20/1 19/16/1
f  16/25/5 15/29/5 20/31/5
f  18/8/4 16/26/4 20/2/4
f  15/20/1 18/34/1 20/28/1

# Mesh 'mesh1_mesh1-geometry' with 36 faces
g mesh1_mesh1-geometry
usemtl material_1_24
f  3//6 2//6 1//6
f  4//6 1//6 2//6
f  3//4 5//4 2//4
f  3//5 1//5 5//5
f  4//2 6//2 1//2
f  4//3 2//3 6//3
f  7//4 2//4 5//4
f  8//5 5//5 1//5
f  8//2 1//2 6//2
f  7//3 6//3 2//3
f  7//1 5//1 9//1
f  10//5 5//5 8//5
f  8//6 6//6 10//6
f  9//3 6//3 7//3
f  11//1 9//1 5//1
f  5//5 10//5 11//5
f  12//6 10//6 6//6
f  6//3 9//3 12//3
f  11//4 13//4 9//4
f  11//5 10//5 14//5
f  12//4 15//4 10//4
f  9//3 16//3 12//3
f  17//4 9//4 13//4
f  13//5 11//5 14//5
f  14//5 10//5 18//5
f  19//4 10//4 15//4
f  12//3 16//3 15//3
f  17//3 16//3 9//3
f  17//1 13//1 16//1
f  14//1 16//1 13//1
f  19//5 18//5 10//5
f  14//2 18//2 16//2
f  19//6 15//6 18//6
f  20//3 15//3 16//3
f  20//2 16//2 18//2
f  20//6 18//6 15//6

