# File produced by Open Asset Import Library (http://www.assimp.sf.net)
# (assimp v3.2.202087883)

mtllib model_normalized.mtl

# 70 vertex positions
v 0.315822 0.228157 0.119835
v 0.288752 -0.318439 -0.101004
v 0.315822 -0.318439 -0.101004
v 0.288752 0.228157 0.119835
v 0.315822 -0.318439 -0.246986
v 0.315822 0.349300 0.022798
v 0.315822 0.349300 0.119835
v 0.288752 0.349300 0.022798
v 0.288752 -0.318439 -0.246986
v 0.288752 0.349300 0.119835
v -0.261681 -0.011640 0.022709
v -0.288752 -0.318439 0.146664
v -0.261681 -0.318439 0.146664
v -0.288752 -0.011640 0.022709
v -0.288752 -0.318439 0.000681
v -0.261681 -0.318439 0.000681
v -0.288752 -0.011640 -0.123274
v -0.261681 -0.011640 -0.123274
v 0.261681 -0.011640 -0.036747
v 0.261681 -0.146992 -0.063817
v 0.261681 -0.011640 -0.063817
v 0.261681 -0.146992 -0.036747
v 0.243634 -0.146992 -0.063817
v 0.188948 -0.011640 -0.063817
v 0.243634 -0.146992 -0.036747
v 0.188948 -0.011640 -0.036747
v 0.288752 -0.011640 0.022709
v 0.261681 -0.318439 0.146664
v 0.288752 -0.318439 0.146664
v 0.261681 -0.011640 0.022709
v 0.288752 -0.318439 0.000681
v 0.288752 -0.011640 -0.123274
v 0.261681 -0.318439 0.000681
v 0.261681 -0.011640 -0.123274
v -0.261681 -0.146992 -0.036747
v -0.261681 -0.011640 -0.063817
v -0.261681 -0.146992 -0.063817
v -0.261681 -0.011640 -0.036747
v -0.243634 -0.146992 -0.063817
v -0.243634 -0.146992 -0.036747
v -0.188948 -0.011640 -0.036747
v -0.188948 -0.011640 -0.063817
v 0.315822 0.349300 0.146905
v 0.315822 0.286135 0.119835
v 0.315822 0.286135 0.146905
v -0.315822 0.286135 0.119835
v -0.315822 0.349300 0.119835
v -0.315822 0.286135 0.146905
v -0.315822 0.349300 0.146905
v 0.315822 0.222971 0.119835
v 0.315822 0.222971 0.146905
v -0.315822 0.222971 0.119835
v -0.315822 0.222971 0.146905
v 0.288752 0.015430 0.053609
v -0.288752 -0.011640 0.053609
v 0.288752 -0.011640 0.053609
v -0.288752 0.015430 0.053609
v 0.288752 -0.011640 -0.153931
v -0.288752 0.015430 -0.153931
v -0.288752 -0.011640 -0.153931
v 0.288752 0.015430 -0.153931
v -0.315822 -0.318439 -0.101004
v -0.315822 0.349300 0.022798
v -0.315822 -0.318439 -0.246986
v -0.315822 0.228157 0.119835
v -0.288752 -0.318439 -0.246986
v -0.288752 0.228157 0.119835
v -0.288752 0.349300 0.022798
v -0.288752 -0.318439 -0.101004
v -0.288752 0.349300 0.119835

# 219 UV coordinates
vt -0.935743 7.30405 0
vt -0.958471 6.80911 0
vt -0.935743 6.80911 0
vt -0.958471 7.30405 0
vt -0.958471 10.2579 0
vt -0.935743 10.1353 0
vt -0.935743 10.2579 0
vt -10.2579 3.19941 0
vt -10.3618 3.76002 0
vt -10.4433 3.65831 0
vt -0.935743 3.76002 0
vt -0.958471 3.65831 0
vt -0.935743 3.65831 0
vt 10.3618 3.76002 0
vt 10.2579 3.19941 0
vt 10.4433 3.65831 0
vt -0.958471 10.1353 0
vt -10.1353 3.19941 0
vt -10.4433 3.76002 0
vt -0.958471 3.76002 0
vt 10.1353 3.19941 0
vt 10.4433 3.76002 0
vt 0.958471 7.36783 0
vt 0.935743 6.7632 0
vt 0.958471 6.7632 0
vt 0.935743 7.36783 0
vt 0.958471 10.3618 0
vt 0.935743 10.4433 0
vt 0.935743 10.3618 0
vt 0.958471 10.4433 0
vt -1.42059 -0.676312 0
vt -1.44332 -0.954116 0
vt -1.42059 -0.954116 0
vt -1.44332 -0.676312 0
vt -1.44332 10.3432 0
vt -1.42059 10.4658 0
vt -1.44332 10.4658 0
vt -10.3432 3.19941 0
vt -10.3617 3.45699 0
vt -10.4658 3.19941 0
vt 1.42059 10.3617 0
vt 1.44332 10.2392 0
vt 1.44332 10.3617 0
vt 10.3617 3.45699 0
vt 10.3432 3.19941 0
vt 10.4658 3.19941 0
vt -1.42059 10.3432 0
vt -10.2392 3.45699 0
vt 1.42059 10.2392 0
vt 10.2392 3.45699 0
vt 1.44332 -0.6304 0
vt 1.42059 -0.908204 0
vt 1.44332 -0.908204 0
vt 1.42059 -0.6304 0
vt -10.3118 3.45699 0
vt -10.2891 3.34335 0
vt -10.2891 3.45699 0
vt -10.3118 3.34335 0
vt 0.996349 3.34335 0
vt 0.981198 3.45699 0
vt 0.981198 3.34335 0
vt 1.04226 10.2891 0
vt 0.981198 10.3118 0
vt 0.981198 10.2891 0
vt -0.981198 3.45699 0
vt -0.996349 3.34335 0
vt -0.981198 3.34335 0
vt -0.996349 10.3118 0
vt -0.981198 10.2891 0
vt -0.981198 10.3118 0
vt 1.04226 3.45699 0
vt -0.996349 10.2891 0
vt 1.04226 10.3118 0
vt -1.04226 3.45699 0
vt 10.2891 3.47314 0
vt 10.3118 3.5957 0
vt 10.2891 3.5957 0
vt 10.3118 3.47314 0
vt -0.958471 -0.676312 0
vt -0.981198 -0.954116 0
vt -0.958471 -0.954116 0
vt -0.981198 -0.676312 0
vt -0.981198 10.4658 0
vt -0.958471 10.3432 0
vt -0.958471 10.4658 0
vt 0.958471 10.2392 0
vt 0.981198 10.3617 0
vt 0.958471 10.3617 0
vt -0.981198 10.3432 0
vt 0.981198 10.2392 0
vt 0.981198 -0.6304 0
vt 0.958471 -0.908204 0
vt 0.981198 -0.908204 0
vt 0.958471 -0.6304 0
vt 10.3118 3.34335 0
vt 10.2891 3.45699 0
vt 10.2891 3.34335 0
vt 10.3118 3.45699 0
vt 1.42059 3.45699 0
vt 1.40544 3.34335 0
vt 1.42059 3.34335 0
vt -1.40544 10.2891 0
vt -1.42059 10.3118 0
vt -1.42059 10.2891 0
vt -1.40544 3.34335 0
vt -1.42059 3.45699 0
vt -1.42059 3.34335 0
vt 1.35953 10.3118 0
vt 1.42059 10.2891 0
vt 1.42059 10.3118 0
vt 1.35953 3.45699 0
vt -1.40544 10.3118 0
vt -1.35953 3.45699 0
vt 1.35953 10.2891 0
vt -10.3118 2.69598 0
vt -10.2891 2.57342 0
vt -10.2891 2.69598 0
vt -10.3118 2.57342 0
vt -10.466 3.76002 0
vt -10.4433 3.70699 0
vt -10.466 3.70699 0
vt 1.46605 3.70699 0
vt 0.935743 3.76002 0
vt 0.935743 3.70699 0
vt 1.46605 10.4433 0
vt 0.935743 10.466 0
vt -1.46605 3.70699 0
vt -0.935743 3.70699 0
vt -1.46605 10.466 0
vt -0.935743 10.4433 0
vt -0.935743 10.466 0
vt 1.46605 3.76002 0
vt -1.46605 10.4433 0
vt 1.46605 10.466 0
vt -1.46605 3.76002 0
vt 10.466 3.70699 0
vt 10.4433 3.70699 0
vt 10.466 3.76002 0
vt -10.4433 3.65396 0
vt -10.466 3.65396 0
vt 1.46605 3.65396 0
vt 0.935743 3.65396 0
vt -1.46605 3.65396 0
vt -0.935743 3.65396 0
vt 10.466 3.65396 0
vt 10.4433 3.65396 0
vt -0.958471 3.47972 0
vt -1.44332 3.45699 0
vt -0.958471 3.45699 0
vt -1.44332 3.47972 0
vt -1.44332 10.3877 0
vt -0.958471 10.2134 0
vt -0.958471 10.3877 0
vt -10.2134 3.45699 0
vt -10.3877 3.47972 0
vt -10.3877 3.45699 0
vt 0.958471 10.3877 0
vt 1.44332 10.2134 0
vt 1.44332 10.3877 0
vt 10.2134 3.47972 0
vt 10.3877 3.45699 0
vt 10.3877 3.47972 0
vt -1.44332 10.2134 0
vt -10.2134 3.47972 0
vt 0.958471 10.2134 0
vt 10.2134 3.45699 0
vt 1.44332 3.47972 0
vt 0.958471 3.45699 0
vt 1.44332 3.45699 0
vt 0.958471 3.47972 0
vt -0.050524 -2.3e-05 0
vt 0.053414 0.560583 0
vt -0.173085 -2.3e-05 0
vt 0.134883 0.458877 0
vt 0 0 0
vt 0.2265 0.560606 0
vt 0.122561 0 0
vt 0.307968 0.4589 0
vt 0.263395 0.539773 0
vt 0.240667 -0.06486 0
vt 0.263395 -0.06486 0
vt 0.022727 0 0
vt 0.022727 0.604633 0
vt -0.240667 -0.173085 0
vt -0.263395 -0.050524 0
vt -0.263395 -0.173085 0
vt -0.022727 0 0
vt -0.022727 0.122561 0
vt -0.022727 0.045912 0
vt 0 0.540851 0
vt -0.022727 0.540851 0
vt 0.134883 0.560583 0
vt 0.307968 0.560606 0
vt 0.240667 0.539773 0
vt 0 0.604633 0
vt -0.240667 -0.050524 0
vt 0 0.122561 0
vt 0 0.045912 0
vt 0 0.560606 0
vt -0.022727 0.4589 0
vt 0 0.4589 0
vt -0.022727 0.560606 0
vt 0.240667 0.134883 0
vt 0.263395 0.053414 0
vt 0.263395 0.134883 0
vt 0.022727 0.307968 0
vt 0.022727 0.2265 0
vt 0 0.307968 0
vt 0.240667 0.053414 0
vt 0 0.2265 0
vt -0.053414 0.560583 0
vt 0.050524 -2.3e-05 0
vt 0.173085 -2.3e-05 0
vt -0.122561 0 0
vt -0.2265 0.560606 0
vt -0.134883 0.458877 0
vt -0.307968 0.4589 0
vt -0.134883 0.560583 0
vt -0.307968 0.560606 0

# 14 vertex normals
vn 0 -0.00951502 0.0235505
vn 0 0.00951502 -0.0235505
vn 0 -0.0254 0
vn 0 0.0254 0
vn 0.0254 0 0
vn -0.0254 0 0
vn 0 0 0.0254
vn 0 -0 -0.0254
vn 0 0.00951502 0.0235505
vn 0 -0.00951502 -0.0235505
vn -0.0235505 -0.00951502 0
vn 0.0235505 0.00951502 0
vn 0.0235505 -0.00951502 0
vn -0.0235505 0.00951502 0

# Mesh 'mesh1_mesh1-geometry' with 32 faces
g mesh1_mesh1-geometry
usemtl material_0_1_8
f  1/1/1 2/2/1 3/3/1
f  2/2/1 1/1/1 4/4/1
f  3/3/2 2/2/2 1/1/2
f  4/4/2 1/1/2 2/2/2
f  2/5/3 5/6/3 3/7/3
f  3/7/4 5/6/4 2/5/4
f  3/8/5 6/9/5 1/10/5
f  1/10/6 6/9/6 3/8/6
f  7/11/7 4/12/7 1/13/7
f  1/13/8 4/12/8 7/11/8
f  8/14/6 2/15/6 4/16/6
f  4/16/5 2/15/5 8/14/5
f  5/6/3 2/5/3 9/17/3
f  9/17/4 2/5/4 5/6/4
f  6/9/5 3/8/5 5/18/5
f  5/18/6 3/8/6 6/9/6
f  1/10/5 6/9/5 7/19/5
f  7/19/6 6/9/6 1/10/6
f  4/12/7 7/11/7 10/20/7
f  10/20/8 7/11/8 4/12/8
f  2/15/6 8/14/6 9/21/6
f  9/21/5 8/14/5 2/15/5
f  8/14/6 4/16/6 10/22/6
f  10/22/5 4/16/5 8/14/5
f  8/23/2 5/24/2 9/25/2
f  9/25/1 5/24/1 8/23/1
f  5/24/2 8/23/2 6/26/2
f  6/26/1 8/23/1 5/24/1
f  8/27/4 7/28/4 6/29/4
f  6/29/3 7/28/3 8/27/3
f  7/28/4 8/27/4 10/30/4
f  10/30/3 8/27/3 7/28/3

# Mesh 'mesh2_mesh2-geometry' with 15 faces
g mesh2_mesh2-geometry
usemtl material_1_0
l  1 4
l  3 1
l  1 7
l  4 2
l  10 4
l  2 3
l  5 3
l  10 7
l  7 6
l  2 9
l  8 10
l  9 5
l  6 5
l  8 6
l  9 8

# Mesh 'mesh3_mesh3-geometry' with 24 faces
g mesh3_mesh3-geometry
usemtl material_0_1_8
f  11/31/9 12/32/9 13/33/9
f  12/32/9 11/31/9 14/34/9
f  13/33/10 12/32/10 11/31/10
f  14/34/10 11/31/10 12/32/10
f  15/35/3 13/36/3 12/37/3
f  12/37/4 13/36/4 15/35/4
f  16/38/5 11/39/5 13/40/5
f  13/40/6 11/39/6 16/38/6
f  11/41/4 17/42/4 14/43/4
f  14/43/3 17/42/3 11/41/3
f  14/44/6 15/45/6 12/46/6
f  12/46/5 15/45/5 14/44/5
f  13/36/3 15/35/3 16/47/3
f  16/47/4 15/35/4 13/36/4
f  11/39/5 16/38/5 18/48/5
f  18/48/6 16/38/6 11/39/6
f  17/42/4 11/41/4 18/49/4
f  18/49/3 11/41/3 17/42/3
f  15/45/6 14/44/6 17/50/6
f  17/50/5 14/44/5 15/45/5
f  17/51/10 16/52/10 15/53/10
f  15/53/9 16/52/9 17/51/9
f  16/52/10 17/51/10 18/54/10
f  18/54/9 17/51/9 16/52/9

# Mesh 'mesh4_mesh4-geometry' with 12 faces
g mesh4_mesh4-geometry
usemtl material_1_0
l  11 14
l  13 11
l  11 18
l  14 12
l  17 14
l  12 13
l  16 13
l  18 17
l  18 16
l  12 15
l  15 17
l  16 15

# Mesh 'mesh5_mesh5-geometry' with 24 faces
g mesh5_mesh5-geometry
usemtl material_0_1_8
f  19/55/5 20/56/5 21/57/5
f  20/56/5 19/55/5 22/58/5
f  21/57/6 20/56/6 19/55/6
f  22/58/6 19/55/6 20/56/6
f  23/59/8 21/60/8 20/61/8
f  20/61/7 21/60/7 23/59/7
f  24/62/4 19/63/4 21/64/4
f  21/64/3 19/63/3 24/62/3
f  19/65/7 25/66/7 22/67/7
f  22/67/8 25/66/8 19/65/8
f  25/68/3 20/69/3 22/70/3
f  22/70/4 20/69/4 25/68/4
f  21/60/8 23/59/8 24/71/8
f  24/71/7 23/59/7 21/60/7
f  20/69/3 25/68/3 23/72/3
f  23/72/4 25/68/4 20/69/4
f  19/63/4 24/62/4 26/73/4
f  26/73/3 24/62/3 19/63/3
f  25/66/7 19/65/7 26/74/7
f  26/74/8 19/65/8 25/66/8
f  23/75/11 26/76/11 24/77/11
f  24/77/12 26/76/12 23/75/12
f  26/76/11 23/75/11 25/78/11
f  25/78/12 23/75/12 26/76/12

# Mesh 'mesh6_mesh6-geometry' with 12 faces
g mesh6_mesh6-geometry
usemtl material_1_0
l  21 19
l  20 21
l  21 24
l  19 22
l  26 19
l  22 20
l  23 20
l  26 24
l  24 23
l  22 25
l  25 26
l  25 23

# Mesh 'mesh7_mesh7-geometry' with 24 faces
g mesh7_mesh7-geometry
usemtl material_0_1_8
f  27/79/9 28/80/9 29/81/9
f  28/80/9 27/79/9 30/82/9
f  29/81/10 28/80/10 27/79/10
f  30/82/10 27/79/10 28/80/10
f  28/83/3 31/84/3 29/85/3
f  29/85/4 31/84/4 28/83/4
f  31/38/5 27/39/5 29/40/5
f  29/40/6 27/39/6 31/38/6
f  32/86/4 30/87/4 27/88/4
f  27/88/3 30/87/3 32/86/3
f  30/44/6 33/45/6 28/46/6
f  28/46/5 33/45/5 30/44/5
f  31/84/3 28/83/3 33/89/3
f  33/89/4 28/83/4 31/84/4
f  27/39/5 31/38/5 32/48/5
f  32/48/6 31/38/6 27/39/6
f  30/87/4 32/86/4 34/90/4
f  34/90/3 32/86/3 30/87/3
f  33/45/6 30/44/6 34/50/6
f  34/50/5 30/44/5 33/45/5
f  34/91/10 31/92/10 33/93/10
f  33/93/9 31/92/9 34/91/9
f  31/92/10 34/91/10 32/94/10
f  32/94/9 34/91/9 31/92/9

# Mesh 'mesh8_mesh8-geometry' with 12 faces
g mesh8_mesh8-geometry
usemtl material_1_0
l  27 30
l  29 27
l  27 32
l  30 28
l  34 30
l  28 29
l  31 29
l  32 34
l  32 31
l  28 33
l  33 34
l  31 33

# Mesh 'mesh9_mesh9-geometry' with 24 faces
g mesh9_mesh9-geometry
usemtl material_0_1_8
f  35/95/6 36/96/6 37/97/6
f  36/96/6 35/95/6 38/98/6
f  37/97/5 36/96/5 35/95/5
f  38/98/5 35/95/5 36/96/5
f  36/99/8 39/100/8 37/101/8
f  37/101/7 39/100/7 36/99/7
f  39/102/3 35/103/3 37/104/3
f  37/104/4 35/103/4 39/102/4
f  40/105/7 38/106/7 35/107/7
f  35/107/8 38/106/8 40/105/8
f  41/108/4 36/109/4 38/110/4
f  38/110/3 36/109/3 41/108/3
f  39/100/8 36/99/8 42/111/8
f  42/111/7 36/99/7 39/100/7
f  35/103/3 39/102/3 40/112/3
f  40/112/4 39/102/4 35/103/4
f  38/106/7 40/105/7 41/113/7
f  41/113/8 40/105/8 38/106/8
f  36/109/4 41/108/4 42/114/4
f  42/114/3 41/108/3 36/109/3
f  41/115/13 39/116/13 42/117/13
f  42/117/14 39/116/14 41/115/14
f  39/116/13 41/115/13 40/118/13
f  40/118/14 41/115/14 39/116/14

# Mesh 'mesh10_mesh10-geometry' with 12 faces
g mesh10_mesh10-geometry
usemtl material_1_0
l  37 35
l  36 37
l  37 39
l  35 38
l  40 35
l  38 36
l  42 36
l  39 40
l  39 42
l  38 41
l  41 40
l  42 41

# Mesh 'mesh11_mesh11-geometry' with 24 faces
g mesh11_mesh11-geometry
usemtl material_0_1_8
f  43/119/5 44/120/5 7/19/5
f  44/120/5 43/119/5 45/121/5
f  7/19/6 44/120/6 43/119/6
f  45/121/6 43/119/6 44/120/6
f  46/122/8 7/123/8 44/124/8
f  44/124/7 7/123/7 46/122/7
f  47/125/4 43/126/4 7/28/4
f  7/28/3 43/126/3 47/125/3
f  43/11/7 48/127/7 45/128/7
f  45/128/8 48/127/8 43/11/8
f  48/129/3 44/130/3 45/131/3
f  45/131/4 44/130/4 48/129/4
f  7/123/8 46/122/8 47/132/8
f  47/132/7 46/122/7 7/123/7
f  44/130/3 48/129/3 46/133/3
f  46/133/4 48/129/4 44/130/4
f  43/126/4 47/125/4 49/134/4
f  49/134/3 47/125/3 43/126/3
f  48/127/7 43/11/7 49/135/7
f  49/135/8 43/11/8 48/127/8
f  48/136/6 47/22/6 46/137/6
f  46/137/5 47/22/5 48/136/5
f  47/22/6 48/136/6 49/138/6
f  49/138/5 48/136/5 47/22/5

# Mesh 'mesh12_mesh12-geometry' with 12 faces
g mesh12_mesh12-geometry
usemtl material_1_0
l  45 44
l  43 45
l  45 48
l  44 7
l  46 44
l  7 43
l  49 43
l  46 48
l  48 49
l  7 47
l  47 46
l  47 49

# Mesh 'mesh13_mesh13-geometry' with 24 faces
g mesh13_mesh13-geometry
usemtl material_0_1_8
f  45/121/5 50/139/5 44/120/5
f  50/139/5 45/121/5 51/140/5
f  44/120/6 50/139/6 45/121/6
f  51/140/6 45/121/6 50/139/6
f  52/141/8 44/124/8 50/142/8
f  50/142/7 44/124/7 52/141/7
f  46/125/4 45/126/4 44/28/4
f  44/28/3 45/126/3 46/125/3
f  45/128/7 53/143/7 51/144/7
f  51/144/8 53/143/8 45/128/8
f  53/129/3 50/130/3 51/131/3
f  51/131/4 50/130/4 53/129/4
f  44/124/8 52/141/8 46/122/8
f  46/122/7 52/141/7 44/124/7
f  50/130/3 53/129/3 52/133/3
f  52/133/4 53/129/4 50/130/4
f  45/126/4 46/125/4 48/134/4
f  48/134/3 46/125/3 45/126/3
f  53/143/7 45/128/7 48/127/7
f  48/127/8 45/128/8 53/143/8
f  53/145/6 46/137/6 52/146/6
f  52/146/5 46/137/5 53/145/5
f  46/137/6 53/145/6 48/136/6
f  48/136/5 53/145/5 46/137/5

# Mesh 'mesh14_mesh14-geometry' with 12 faces
g mesh14_mesh14-geometry
usemtl material_1_0
l  51 50
l  45 51
l  51 53
l  50 44
l  52 50
l  44 45
l  48 45
l  52 53
l  53 48
l  44 46
l  46 52
l  46 48

# Mesh 'mesh15_mesh15-geometry' with 24 faces
g mesh15_mesh15-geometry
usemtl material_0_1_8
f  54/147/7 55/148/7 56/149/7
f  55/148/7 54/147/7 57/150/7
f  56/149/8 55/148/8 54/147/8
f  57/150/8 54/147/8 55/148/8
f  55/151/3 58/152/3 56/153/3
f  56/153/4 58/152/4 55/151/4
f  58/154/5 54/155/5 56/156/5
f  56/156/6 54/155/6 58/154/6
f  54/157/4 59/158/4 57/159/4
f  57/159/3 59/158/3 54/157/3
f  59/160/6 55/161/6 57/162/6
f  57/162/5 55/161/5 59/160/5
f  58/152/3 55/151/3 60/163/3
f  60/163/4 55/151/4 58/152/4
f  54/155/5 58/154/5 61/164/5
f  61/164/6 58/154/6 54/155/6
f  59/158/4 54/157/4 61/165/4
f  61/165/3 54/157/3 59/158/3
f  55/161/6 59/160/6 60/166/6
f  60/166/5 59/160/5 55/161/5
f  59/167/8 58/168/8 60/169/8
f  60/169/7 58/168/7 59/167/7
f  58/168/8 59/167/8 61/170/8
f  61/170/7 59/167/7 58/168/7

# Mesh 'mesh16_mesh16-geometry' with 12 faces
g mesh16_mesh16-geometry
usemtl material_1_0
l  56 54
l  55 56
l  56 58
l  54 57
l  61 54
l  57 55
l  60 55
l  61 58
l  58 60
l  57 59
l  59 61
l  59 60

# Mesh 'mesh17_mesh17-geometry' with 32 faces
g mesh17_mesh17-geometry
usemtl material_0_1_8
f  62/171/6 63/172/6 64/173/6
f  63/172/6 62/171/6 65/174/6
f  64/175/5 63/176/5 62/177/5
f  65/178/5 62/177/5 63/176/5
f  63/179/2 66/180/2 64/181/2
f  64/182/1 66/175/1 63/183/1
f  66/184/3 62/185/3 64/186/3
f  64/187/4 62/188/4 66/175/4
f  62/189/1 67/190/1 65/191/1
f  65/191/2 67/190/2 62/189/2
f  63/172/6 65/174/6 47/192/6
f  47/193/5 65/178/5 63/176/5
f  66/180/2 63/179/2 68/194/2
f  68/195/1 63/183/1 66/175/1
f  62/185/3 66/184/3 69/196/3
f  69/197/4 66/175/4 62/188/4
f  67/190/1 62/189/1 69/198/1
f  69/198/2 62/189/2 67/190/2
f  70/199/7 65/200/7 67/201/7
f  67/201/8 65/200/8 70/199/8
f  65/200/7 70/199/7 47/202/7
f  47/202/8 70/199/8 65/200/8
f  70/203/4 63/204/4 47/205/4
f  47/206/3 63/207/3 70/208/3
f  63/204/4 70/203/4 68/209/4
f  68/210/3 70/208/3 63/207/3
f  68/211/5 69/212/5 66/213/5
f  66/175/6 69/214/6 68/215/6
f  69/212/5 68/211/5 67/216/5
f  67/217/6 68/215/6 69/214/6
f  67/216/5 68/211/5 70/218/5
f  70/219/6 68/215/6 67/217/6

# Mesh 'mesh18_mesh18-geometry' with 2 faces
g mesh18_mesh18-geometry
usemtl material_1_0
l  67 70
l  67 65

