# File produced by Open Asset Import Library (http://www.assimp.sf.net)
# (assimp v3.2.202087883)

mtllib model_normalized.mtl

# 10 vertex positions
v -0.456132 0.009502 0.066837
v 0.456132 0.210960 0.120819
v 0.456132 0.009502 0.066837
v -0.456132 0.210960 0.120819
v 0.456132 0.009502 -0.127246
v -0.456132 0.009502 -0.127246
v 0.456132 -0.114982 0.066837
v -0.456132 -0.114982 -0.127246
v 0.456132 -0.114982 -0.127246
v -0.456132 -0.114982 0.066837

# 16 UV coordinates
vt 27.4053 -2.97316 0
vt 11.1303 4.46851 0
vt 11.1303 -2.97316 0
vt 27.4053 4.46851 0
vt -4.44356 22.2606 0
vt -7.90606 54.8106 0
vt -7.90606 22.2606 0
vt -4.44356 54.8106 0
vt -7.90606 -11.7565 0
vt -4.44356 -7.31488 0
vt -7.90606 -7.31488 0
vt 4.44356 -11.7565 0
vt 7.90606 -7.31488 0
vt 4.44356 -7.31488 0
vt -4.44356 -11.7565 0
vt 7.90606 -11.7565 0

# 6 vertex normals
vn 0 0.006574 -0.0245345
vn 0 -0.006574 0.0245345
vn 0 0.0254 0
vn 0 -0.0254 0
vn 0.0254 0 0
vn -0.0254 0 0

# Mesh 'mesh1_mesh1-geometry' with 16 faces
g mesh1_mesh1-geometry
usemtl material_0_1_8
f  1/1/1 2/2/1 3/3/1
f  2/2/1 1/1/1 4/4/1
f  3/3/2 2/2/2 1/1/2
f  4/4/2 1/1/2 2/2/2
f  5/5/3 1/6/3 3/7/3
f  3/7/4 1/6/4 5/5/4
f  1/6/3 5/5/3 6/8/3
f  6/8/4 5/5/4 1/6/4
f  7/9/5 5/10/5 3/11/5
f  3/11/6 5/10/6 7/9/6
f  8/12/6 1/13/6 6/14/6
f  6/14/5 1/13/5 8/12/5
f  5/10/5 7/9/5 9/15/5
f  9/15/6 7/9/6 5/10/6
f  1/13/6 8/12/6 10/16/6
f  10/16/5 8/12/5 1/13/5

