# File produced by Open Asset Import Library (http://www.assimp.sf.net)
# (assimp v3.2.202087883)

mtllib model_normalized.mtl

# 149 vertex positions
v 0.020918 0.003275 -0.062417
v -0.164821 0.003275 0.053834
v 0.020918 0.003275 0.053834
v -0.164821 0.003275 -0.062417
v 0.020918 0.013631 0.053834
v 0.020918 -0.136653 0.053834
v 0.020918 0.013631 -0.062417
v -0.164821 -0.136653 -0.062417
v -0.164821 0.013631 0.053834
v 0.020918 0.303843 0.053834
v 0.020918 -0.136653 -0.062417
v -0.164821 0.013631 -0.062417
v 0.020918 0.303843 -0.062417
v -0.164821 -0.136653 0.053834
v -0.175178 -0.276581 -0.062417
v -0.175178 -0.136653 0.053834
v 0.020918 0.153558 0.053834
v 0.020918 -0.147009 0.053834
v 0.020918 0.153558 -0.062417
v -0.164821 -0.147009 -0.062417
v -0.175178 0.013631 0.053834
v -0.164821 0.153558 0.053834
v 0.020918 0.163915 0.053834
v 0.020918 -0.147009 -0.062417
v 0.020918 -0.276581 0.053834
v -0.164821 -0.147009 0.053834
v -0.164821 0.153558 -0.062417
v 0.020918 0.163915 -0.062417
v -0.175178 -0.276581 0.053834
v -0.164821 -0.276581 -0.062417
v -0.175178 0.003275 0.053834
v 0.020918 -0.276581 -0.062417
v 0.031275 0.303843 0.053834
v -0.175178 0.303843 -0.062417
v -0.175178 -0.147009 0.053834
v -0.360917 -0.286938 -0.062417
v -0.175178 0.003275 -0.062417
v -0.360917 0.003275 0.053834
v -0.164821 0.163915 0.053834
v -0.164821 0.303843 0.053834
v 0.031275 0.303843 -0.062417
v -0.367179 0.314200 0.053834
v 0.031275 0.163915 0.053834
v -0.164821 0.303843 -0.062417
v -0.175178 -0.147009 -0.062417
v -0.164821 0.163915 -0.062417
v -0.164821 -0.276581 0.053834
v -0.360917 -0.147009 0.053834
v -0.360917 -0.276581 -0.062417
v -0.175178 -0.136653 -0.062417
v -0.360917 0.003275 -0.062417
v -0.360917 0.013631 0.053834
v -0.175178 0.163915 0.053834
v -0.367179 0.314200 -0.062417
v 0.031275 0.163915 -0.062417
v 0.217014 0.303843 0.053834
v 0.031275 0.153558 0.053834
v -0.360917 -0.286938 0.053834
v -0.360917 -0.147009 -0.062417
v -0.360917 -0.136653 0.053834
v 0.031275 -0.276581 -0.062417
v -0.367179 -0.286938 -0.062417
v -0.360917 -0.136653 -0.062417
v -0.175178 0.013631 -0.062417
v -0.367179 0.003275 0.053834
v -0.360917 0.013631 -0.062417
v -0.175178 0.153558 0.053834
v -0.175178 0.303843 0.053834
v 0.217014 0.303843 -0.062417
v 0.031275 0.153558 -0.062417
v 0.227370 0.303843 0.053834
v 0.031275 0.013631 0.053834
v 0.217014 0.163915 0.053834
v 0.217014 0.163915 -0.062417
v -0.360917 0.303843 -0.062417
v -0.164821 -0.286938 0.053834
v -0.360917 -0.276581 0.053834
v -0.367179 -0.147009 0.053834
v 0.217014 -0.276581 -0.062417
v 0.031275 -0.147009 -0.062417
v -0.367179 0.013631 0.053834
v -0.360917 0.153558 0.053834
v -0.175178 0.153558 -0.062417
v -0.360917 0.303843 0.053834
v 0.227370 0.303843 -0.062417
v 0.031275 0.013631 -0.062417
v 0.413110 0.303843 0.053834
v 0.217014 -0.276581 0.053834
v 0.031275 0.003275 0.053834
v 0.217014 0.153558 0.053834
v -0.367179 -0.286938 0.053834
v -0.367179 -0.136653 0.053834
v 0.227370 -0.276581 -0.062417
v 0.031275 -0.276581 0.053834
v 0.031275 -0.136653 -0.062417
v 0.031275 -0.147009 0.053834
v -0.367179 0.153558 0.053834
v -0.360917 0.153558 -0.062417
v -0.360917 0.163915 0.053834
v -0.175178 0.163915 -0.062417
v -0.367179 0.303843 0.053834
v 0.413110 0.303843 -0.062417
v 0.031275 0.003275 -0.062417
v 0.217014 0.153558 -0.062417
v 0.423466 0.314200 0.053834
v 0.227370 0.163915 0.053834
v 0.217014 -0.147009 0.053834
v 0.031275 -0.136653 0.053834
v 0.217014 0.013631 0.053834
v 0.217014 0.013631 -0.062417
v -0.360917 0.163915 -0.062417
v -0.367179 -0.276581 0.053834
v 0.413110 -0.276581 -0.062417
v 0.227370 -0.147009 -0.062417
v 0.217014 -0.136653 -0.062417
v 0.217014 -0.147009 -0.062417
v 0.031275 -0.286938 0.053834
v 0.423466 0.314200 -0.062417
v 0.227370 0.163915 -0.062417
v 0.413110 -0.276581 0.053834
v 0.413110 0.163915 0.053834
v 0.227370 0.153558 0.053834
v 0.217014 -0.136653 0.053834
v 0.217014 0.003275 0.053834
v 0.423466 -0.286938 -0.062417
v 0.227370 -0.136653 -0.062417
v 0.227370 -0.147009 0.053834
v -0.367179 0.163915 0.053834
v 0.227370 0.153558 -0.062417
v 0.217014 0.003275 -0.062417
v 0.423466 -0.286938 0.053834
v 0.413110 -0.147009 0.053834
v 0.413110 0.163915 -0.062417
v 0.413110 0.153558 0.053834
v 0.227370 0.013631 0.053834
v 0.227370 -0.276581 0.053834
v 0.413110 -0.147009 -0.062417
v 0.227370 0.003275 -0.062417
v 0.413110 -0.136653 -0.062417
v 0.227370 0.013631 -0.062417
v 0.227370 -0.286938 0.053834
v 0.413110 -0.136653 0.053834
v 0.413110 0.153558 -0.062417
v 0.413110 0.013631 0.053834
v 0.227370 0.003275 0.053834
v 0.413110 0.003275 0.053834
v 0.413110 0.013631 -0.062417
v 0.227370 -0.136653 0.053834
v 0.413110 0.003275 -0.062417

# 0 UV coordinates

# 6 vertex normals
vn 0 0.0254 0
vn 0 0 -0.0254
vn 0.0254 0 0
vn -0.0254 0 0
vn 0 -0.0254 -0
vn 0 0 0.0254

# Mesh 'mesh1_mesh1-geometry' with 379 faces
g mesh1_mesh1-geometry
usemtl material_0_24
f  1//1 2//1 3//1
f  2//1 1//1 4//1
f  2//2 5//2 3//2
f  6//3 1//3 3//3
f  4//2 7//2 1//2
f  8//4 2//4 4//4
f  5//2 2//2 9//2
f  10//2 3//2 5//2
f  1//3 6//3 11//3
f  10//2 6//2 3//2
f  7//2 4//2 12//2
f  13//2 1//2 7//2
f  2//4 8//4 14//4
f  8//2 15//2 4//2
f  2//2 16//2 9//2
f  12//5 5//5 9//5
f  10//2 5//2 17//2
f  6//5 8//5 11//5
f  13//2 11//2 1//2
f  10//2 18//2 6//2
f  4//2 15//2 12//2
f  5//5 12//5 7//5
f  13//2 7//2 19//2
f  8//5 6//5 14//5
f  16//2 2//2 14//2
f  20//2 15//2 8//2
f  9//2 16//2 21//2
f  22//4 12//4 9//4
f  5//3 19//3 17//3
f  10//2 17//2 23//2
f  11//2 20//2 8//2
f  13//2 24//2 11//2
f  10//2 25//2 18//2
f  26//2 6//2 18//2
f  12//2 15//2 27//2
f  19//3 5//3 7//3
f  13//2 19//2 28//2
f  6//2 26//2 14//2
f  29//2 16//2 14//2
f  30//2 15//2 20//2
f  21//2 16//2 31//2
f  21//2 22//2 9//2
f  12//4 22//4 27//4
f  19//1 22//1 17//1
f  22//2 23//2 17//2
f  23//3 13//3 10//3
f  20//2 11//2 24//2
f  13//2 32//2 24//2
f  10//2 33//2 25//2
f  25//3 24//3 18//3
f  24//1 26//1 18//1
f  34//2 27//2 15//2
f  27//2 28//2 19//2
f  13//3 23//3 28//3
f  26//2 29//2 14//2
f  16//2 29//2 35//2
f  30//2 36//2 15//2
f  30//4 26//4 20//4
f  16//3 37//3 31//3
f  21//2 31//2 38//2
f  22//2 21//2 39//2
f  22//1 19//1 27//1
f  23//2 22//2 39//2
f  13//1 40//1 10//1
f  26//1 24//1 20//1
f  13//2 41//2 32//2
f  24//3 25//3 32//3
f  42//2 33//2 10//2
f  43//2 25//2 33//2
f  34//2 44//2 27//2
f  34//2 15//2 45//2
f  28//2 27//2 46//2
f  23//5 46//5 28//5
f  47//2 29//2 26//2
f  29//3 45//3 35//3
f  16//2 35//2 48//2
f  32//2 36//2 30//2
f  15//2 36//2 49//2
f  26//4 30//4 47//4
f  37//3 16//3 50//3
f  51//1 31//1 37//1
f  31//1 51//1 38//1
f  21//2 38//2 52//2
f  39//2 21//2 53//2
f  46//5 23//5 39//5
f  40//1 13//1 44//1
f  42//2 10//2 40//2
f  54//2 41//2 13//2
f  55//2 32//2 41//2
f  25//5 30//5 32//5
f  42//2 56//2 33//2
f  57//2 25//2 43//2
f  33//4 55//4 43//4
f  54//2 44//2 34//2
f  46//2 27//2 44//2
f  45//3 29//3 15//3
f  34//2 45//2 50//2
f  47//2 58//2 29//2
f  59//1 35//1 45//1
f  35//1 59//1 48//1
f  16//2 48//2 60//2
f  61//2 36//2 32//2
f  49//2 36//2 62//2
f  29//5 49//5 15//5
f  30//5 25//5 47//5
f  16//5 63//5 50//5
f  34//2 50//2 37//2
f  51//2 64//2 37//2
f  63//4 38//4 51//4
f  51//3 38//3 63//3
f  52//2 38//2 65//2
f  66//5 21//5 52//5
f  53//2 21//2 67//2
f  68//2 39//2 53//2
f  40//4 46//4 39//4
f  54//2 13//2 44//2
f  46//4 40//4 44//4
f  42//2 40//2 68//2
f  54//2 69//2 41//2
f  70//2 32//2 55//2
f  55//4 33//4 41//4
f  42//2 71//2 56//2
f  69//1 33//1 56//1
f  72//2 25//2 57//2
f  73//2 57//2 43//2
f  74//5 43//5 55//5
f  54//2 34//2 75//2
f  59//2 50//2 45//2
f  58//2 47//2 76//2
f  29//2 58//2 77//2
f  49//4 48//4 59//4
f  59//3 48//3 49//3
f  60//2 48//2 78//2
f  63//5 16//5 60//5
f  79//2 36//2 61//2
f  61//2 32//2 80//2
f  58//5 62//5 36//5
f  49//2 62//2 59//2
f  49//5 29//5 77//5
f  25//2 76//2 47//2
f  50//2 59//2 63//2
f  34//2 37//2 64//2
f  64//2 51//2 66//2
f  38//4 63//4 60//4
f  60//3 63//3 38//3
f  63//2 62//2 51//2
f  65//6 60//6 38//6
f  38//2 60//2 65//2
f  52//2 65//2 81//2
f  21//5 66//5 64//5
f  82//4 66//4 52//4
f  52//3 66//3 82//3
f  21//3 83//3 67//3
f  53//2 67//2 82//2
f  68//2 40//2 39//2
f  53//3 34//3 68//3
f  42//2 68//2 84//2
f  54//2 85//2 69//2
f  33//1 69//1 41//1
f  86//2 32//2 70//2
f  74//2 70//2 55//2
f  42//2 87//2 71//2
f  56//2 71//2 88//2
f  73//3 69//3 56//3
f  89//2 25//2 72//2
f  57//4 86//4 72//4
f  57//2 73//2 90//2
f  43//5 74//5 73//5
f  75//1 68//1 34//1
f  54//2 75//2 62//2
f  77//2 58//2 91//2
f  48//4 49//4 77//4
f  77//3 49//3 48//3
f  78//6 77//6 48//6
f  48//2 77//2 78//2
f  60//2 78//2 92//2
f  93//2 36//2 79//2
f  79//5 94//5 61//5
f  80//2 32//2 95//2
f  61//4 96//4 80//4
f  62//5 58//5 91//5
f  59//2 62//2 63//2
f  94//2 76//2 25//2
f  34//2 64//2 83//2
f  51//2 62//2 66//2
f  60//6 65//6 92//6
f  92//2 65//2 60//2
f  54//4 65//4 81//4
f  81//3 65//3 54//3
f  52//6 97//6 81//6
f  81//2 97//2 52//2
f  83//3 21//3 64//3
f  66//4 82//4 98//4
f  98//3 82//3 66//3
f  97//6 52//6 82//6
f  82//2 52//2 97//2
f  98//1 67//1 83//1
f  67//1 98//1 82//1
f  53//2 82//2 99//2
f  34//3 53//3 100//3
f  68//1 75//1 84//1
f  42//2 84//2 101//2
f  54//2 102//2 85//2
f  69//2 85//2 79//2
f  103//2 32//2 86//2
f  86//4 57//4 70//4
f  70//2 74//2 104//2
f  105//2 87//2 42//2
f  102//1 71//1 87//1
f  106//2 88//2 71//2
f  56//2 88//2 107//2
f  69//3 73//3 74//3
f  56//2 90//2 73//2
f  108//2 25//2 89//2
f  109//2 89//2 72//2
f  110//5 72//5 86//5
f  104//1 57//1 90//1
f  111//2 62//2 75//2
f  91//4 54//4 62//4
f  62//3 54//3 91//3
f  77//2 91//2 112//2
f  77//6 78//6 112//6
f  112//2 78//2 77//2
f  54//4 78//4 92//4
f  92//3 78//3 54//3
f  113//2 36//2 93//2
f  93//2 79//2 114//2
f  94//5 79//5 88//5
f  96//4 61//4 94//4
f  95//2 32//2 103//2
f  115//2 80//2 95//2
f  96//1 116//1 80//1
f  76//2 94//2 117//2
f  94//2 25//2 96//2
f  34//2 83//2 100//2
f  66//2 62//2 98//2
f  54//4 92//4 65//4
f  65//3 92//3 54//3
f  54//4 81//4 97//4
f  97//3 81//3 54//3
f  99//2 82//2 97//2
f  98//2 100//2 83//2
f  111//5 53//5 99//5
f  53//5 111//5 100//5
f  111//4 84//4 75//4
f  75//3 84//3 111//3
f  101//6 99//6 84//6
f  84//2 99//2 101//2
f  54//4 101//4 42//4
f  42//3 101//3 54//3
f  118//2 102//2 54//2
f  71//1 102//1 85//1
f  119//2 79//2 85//2
f  69//2 79//2 116//2
f  110//2 103//2 86//2
f  57//1 104//1 70//1
f  69//2 104//2 74//2
f  87//2 105//2 120//2
f  54//5 105//5 42//5
f  121//3 102//3 87//3
f  122//2 88//2 106//2
f  71//4 119//4 106//4
f  88//3 116//3 107//3
f  56//2 107//2 123//2
f  56//2 109//2 90//2
f  96//2 25//2 108//2
f  89//4 95//4 108//4
f  89//2 109//2 124//2
f  72//5 110//5 109//5
f  109//3 104//3 90//3
f  98//2 62//2 111//2
f  54//4 91//4 112//4
f  112//3 91//3 54//3
f  54//4 112//4 78//4
f  78//3 112//3 54//3
f  113//2 125//2 36//2
f  120//5 93//5 113//5
f  114//2 79//2 126//2
f  93//4 127//4 114//4
f  116//3 88//3 79//3
f  88//2 117//2 94//2
f  95//4 89//4 103//4
f  80//2 115//2 116//2
f  115//5 108//5 95//5
f  116//1 96//1 107//1
f  54//4 97//4 128//4
f  128//3 97//3 54//3
f  99//2 97//2 128//2
f  100//2 98//2 111//2
f  84//4 111//4 99//4
f  99//3 111//3 84//3
f  99//6 101//6 128//6
f  128//2 101//2 99//2
f  54//4 128//4 101//4
f  101//3 128//3 54//3
f  102//2 118//2 113//2
f  105//5 54//5 118//5
f  119//4 71//4 85//4
f  129//2 79//2 119//2
f  69//2 116//2 115//2
f  103//2 110//2 130//2
f  69//2 110//2 104//2
f  131//2 120//2 105//2
f  87//2 120//2 132//2
f  102//3 121//3 133//3
f  87//2 134//2 121//2
f  135//2 88//2 122//2
f  121//2 122//2 106//2
f  119//5 121//5 106//5
f  96//2 123//2 107//2
f  56//2 123//2 124//2
f  56//2 124//2 109//2
f  123//2 96//2 108//2
f  130//1 89//1 124//1
f  104//3 109//3 110//3
f  125//2 113//2 118//2
f  93//5 120//5 136//5
f  137//3 120//3 113//3
f  126//2 79//2 138//2
f  139//2 114//2 126//2
f  127//4 93//4 136//4
f  127//1 137//1 114//1
f  136//2 117//2 88//2
f  89//1 130//1 103//1
f  108//5 115//5 123//5
f  102//2 113//2 137//2
f  118//4 131//4 105//4
f  140//2 79//2 129//2
f  133//2 129//2 119//2
f  69//2 115//2 130//2
f  69//2 130//2 110//2
f  120//2 131//2 141//2
f  120//3 137//3 132//3
f  87//2 132//2 142//2
f  121//5 119//5 133//5
f  102//2 143//2 133//2
f  87//2 144//2 134//2
f  122//2 121//2 134//2
f  145//2 88//2 135//2
f  122//4 140//4 135//4
f  123//3 130//3 124//3
f  131//4 118//4 125//4
f  120//2 141//2 136//2
f  138//2 79//2 140//2
f  126//4 145//4 138//4
f  114//2 139//2 137//2
f  142//5 126//5 139//5
f  136//2 88//2 127//2
f  137//1 127//1 132//1
f  117//2 136//2 141//2
f  130//3 123//3 115//3
f  102//2 137//2 139//2
f  140//4 122//4 129//4
f  129//2 133//2 143//2
f  127//2 142//2 132//2
f  87//2 142//2 146//2
f  102//2 147//2 143//2
f  87//2 146//2 144//2
f  144//3 143//3 134//3
f  143//1 122//1 134//1
f  148//2 88//2 145//2
f  144//2 145//2 135//2
f  140//5 144//5 135//5
f  147//2 138//2 140//2
f  145//4 126//4 148//4
f  145//1 149//1 138//1
f  126//5 142//5 148//5
f  149//3 142//3 139//3
f  127//2 88//2 148//2
f  102//2 139//2 149//2
f  122//1 143//1 129//1
f  142//2 127//2 148//2
f  142//3 149//3 146//3
f  102//2 149//2 147//2
f  143//3 144//3 147//3
f  145//2 144//2 146//2
f  144//5 140//5 147//5
f  138//2 147//2 149//2
f  149//1 145//1 146//1

# Mesh 'mesh1_mesh1-geometry' with 327 faces
g mesh1_mesh1-geometry
usemtl material_1_24
f  3//5 2//5 1//5
f  4//5 1//5 2//5
f  3//6 5//6 2//6
f  3//4 1//4 6//4
f  1//6 7//6 4//6
f  4//3 2//3 8//3
f  9//6 2//6 5//6
f  5//6 3//6 10//6
f  11//4 6//4 1//4
f  3//6 6//6 10//6
f  12//6 4//6 7//6
f  7//6 1//6 13//6
f  14//3 8//3 2//3
f  4//6 15//6 8//6
f  9//6 16//6 2//6
f  9//1 5//1 12//1
f  17//6 5//6 10//6
f  11//1 8//1 6//1
f  1//6 11//6 13//6
f  6//6 18//6 10//6
f  12//6 15//6 4//6
f  7//1 12//1 5//1
f  19//6 7//6 13//6
f  14//1 6//1 8//1
f  14//6 2//6 16//6
f  8//6 15//6 20//6
f  21//6 16//6 9//6
f  9//3 12//3 22//3
f  17//4 19//4 5//4
f  23//6 17//6 10//6
f  8//6 20//6 11//6
f  11//6 24//6 13//6
f  18//6 25//6 10//6
f  18//6 6//6 26//6
f  27//6 15//6 12//6
f  7//4 5//4 19//4
f  28//6 19//6 13//6
f  14//6 26//6 6//6
f  14//6 16//6 29//6
f  20//6 15//6 30//6
f  31//6 16//6 21//6
f  9//6 22//6 21//6
f  27//3 22//3 12//3
f  17//5 22//5 19//5
f  17//6 23//6 22//6
f  10//4 13//4 23//4
f  24//6 11//6 20//6
f  24//6 32//6 13//6
f  25//6 33//6 10//6
f  18//4 24//4 25//4
f  18//5 26//5 24//5
f  15//6 27//6 34//6
f  19//6 28//6 27//6
f  28//4 23//4 13//4
f  14//6 29//6 26//6
f  35//6 29//6 16//6
f  15//6 36//6 30//6
f  20//3 26//3 30//3
f  31//4 37//4 16//4
f  38//6 31//6 21//6
f  39//6 21//6 22//6
f  27//5 19//5 22//5
f  39//6 22//6 23//6
f  10//5 40//5 13//5
f  20//5 24//5 26//5
f  32//6 41//6 13//6
f  32//4 25//4 24//4
f  10//6 33//6 42//6
f  33//6 25//6 43//6
f  27//6 44//6 34//6
f  45//6 15//6 34//6
f  46//6 27//6 28//6
f  28//1 46//1 23//1
f  26//6 29//6 47//6
f  35//4 45//4 29//4
f  48//6 35//6 16//6
f  30//6 36//6 32//6
f  49//6 36//6 15//6
f  47//3 30//3 26//3
f  50//4 16//4 37//4
f  37//5 31//5 51//5
f  38//5 51//5 31//5
f  52//6 38//6 21//6
f  53//6 21//6 39//6
f  39//1 23//1 46//1
f  44//5 13//5 40//5
f  40//6 10//6 42//6
f  13//6 41//6 54//6
f  41//6 32//6 55//6
f  32//1 30//1 25//1
f  33//6 56//6 42//6
f  43//6 25//6 57//6
f  43//3 55//3 33//3
f  34//6 44//6 54//6
f  44//6 27//6 46//6
f  15//4 29//4 45//4
f  50//6 45//6 34//6
f  29//6 58//6 47//6
f  45//5 35//5 59//5
f  48//5 59//5 35//5
f  60//6 48//6 16//6
f  32//6 36//6 61//6
f  62//6 36//6 49//6
f  15//1 49//1 29//1
f  47//1 25//1 30//1
f  50//1 63//1 16//1
f  37//6 50//6 34//6
f  37//6 64//6 51//6
f  65//6 38//6 52//6
f  52//1 21//1 66//1
f  67//6 21//6 53//6
f  53//6 39//6 68//6
f  39//3 46//3 40//3
f  44//6 13//6 54//6
f  44//3 40//3 46//3
f  68//6 40//6 42//6
f  41//6 69//6 54//6
f  55//6 32//6 70//6
f  41//3 33//3 55//3
f  56//6 71//6 42//6
f  56//5 33//5 69//5
f  57//6 25//6 72//6
f  43//6 57//6 73//6
f  55//1 43//1 74//1
f  75//6 34//6 54//6
f  45//6 50//6 59//6
f  76//6 47//6 58//6
f  77//6 58//6 29//6
f  78//6 48//6 60//6
f  60//1 16//1 63//1
f  61//6 36//6 79//6
f  80//6 32//6 61//6
f  36//1 62//1 58//1
f  59//6 62//6 49//6
f  77//1 29//1 49//1
f  47//6 76//6 25//6
f  63//6 59//6 50//6
f  64//6 37//6 34//6
f  66//6 51//6 64//6
f  51//6 62//6 63//6
f  81//6 65//6 52//6
f  64//1 66//1 21//1
f  67//4 83//4 21//4
f  82//6 67//6 53//6
f  39//6 40//6 68//6
f  68//4 34//4 53//4
f  84//6 68//6 42//6
f  69//6 85//6 54//6
f  41//5 69//5 33//5
f  70//6 32//6 86//6
f  55//6 70//6 74//6
f  71//6 87//6 42//6
f  88//6 71//6 56//6
f  56//4 69//4 73//4
f  72//6 25//6 89//6
f  72//3 86//3 57//3
f  90//6 73//6 57//6
f  73//1 74//1 43//1
f  34//5 68//5 75//5
f  62//6 75//6 54//6
f  91//6 58//6 77//6
f  92//6 78//6 60//6
f  79//6 36//6 93//6
f  61//1 94//1 79//1
f  95//6 32//6 80//6
f  80//3 96//3 61//3
f  91//1 58//1 62//1
f  63//6 62//6 59//6
f  25//6 76//6 94//6
f  83//6 64//6 34//6
f  66//6 62//6 51//6
f  64//4 21//4 83//4
f  83//5 67//5 98//5
f  82//5 98//5 67//5
f  99//6 82//6 53//6
f  100//4 53//4 34//4
f  84//5 75//5 68//5
f  101//6 84//6 42//6
f  85//6 102//6 54//6
f  79//6 85//6 69//6
f  86//6 32//6 103//6
f  70//3 57//3 86//3
f  104//6 74//6 70//6
f  42//6 87//6 105//6
f  87//5 71//5 102//5
f  71//6 88//6 106//6
f  107//6 88//6 56//6
f  74//4 73//4 69//4
f  73//6 90//6 56//6
f  89//6 25//6 108//6
f  72//6 89//6 109//6
f  86//1 72//1 110//1
f  90//5 57//5 104//5
f  75//6 62//6 111//6
f  112//6 91//6 77//6
f  93//6 36//6 113//6
f  114//6 79//6 93//6
f  88//1 79//1 94//1
f  94//3 61//3 96//3
f  103//6 32//6 95//6
f  95//6 80//6 115//6
f  80//5 116//5 96//5
f  117//6 94//6 76//6
f  96//6 25//6 94//6
f  100//6 83//6 34//6
f  98//6 62//6 66//6
f  97//6 82//6 99//6
f  83//6 100//6 98//6
f  99//1 53//1 111//1
f  100//1 111//1 53//1
f  54//6 102//6 118//6
f  85//5 102//5 71//5
f  85//6 79//6 119//6
f  116//6 79//6 69//6
f  86//6 103//6 110//6
f  70//5 104//5 57//5
f  74//6 104//6 69//6
f  120//6 105//6 87//6
f  42//1 105//1 54//1
f  87//4 102//4 121//4
f  106//6 88//6 122//6
f  106//3 119//3 71//3
f  107//4 116//4 88//4
f  123//6 107//6 56//6
f  90//6 109//6 56//6
f  108//6 25//6 96//6
f  108//3 95//3 89//3
f  124//6 109//6 89//6
f  109//1 110//1 72//1
f  90//4 104//4 109//4
f  111//6 62//6 98//6
f  36//6 125//6 113//6
f  113//1 93//1 120//1
f  126//6 79//6 114//6
f  114//3 127//3 93//3
f  79//4 88//4 116//4
f  94//6 117//6 88//6
f  103//3 89//3 95//3
f  116//6 115//6 80//6
f  95//1 108//1 115//1
f  107//5 96//5 116//5
f  128//6 97//6 99//6
f  111//6 98//6 100//6
f  113//6 118//6 102//6
f  118//1 54//1 105//1
f  85//3 71//3 119//3
f  119//6 79//6 129//6
f  115//6 116//6 69//6
f  130//6 110//6 103//6
f  104//6 110//6 69//6
f  105//6 120//6 131//6
f  132//6 120//6 87//6
f  133//4 121//4 102//4
f  121//6 134//6 87//6
f  122//6 88//6 135//6
f  106//6 122//6 121//6
f  106//1 121//1 119//1
f  107//6 123//6 96//6
f  124//6 123//6 56//6
f  109//6 124//6 56//6
f  108//6 96//6 123//6
f  124//5 89//5 130//5
f  110//4 109//4 104//4
f  118//6 113//6 125//6
f  136//1 120//1 93//1
f  113//4 120//4 137//4
f  138//6 79//6 126//6
f  126//6 114//6 139//6
f  136//3 93//3 127//3
f  114//5 137//5 127//5
f  88//6 117//6 136//6
f  103//5 130//5 89//5
f  123//1 115//1 108//1
f  137//6 113//6 102//6
f  105//3 131//3 118//3
f  129//6 79//6 140//6
f  119//6 129//6 133//6
f  130//6 115//6 69//6
f  110//6 130//6 69//6
f  141//6 131//6 120//6
f  132//4 137//4 120//4
f  142//6 132//6 87//6
f  133//1 119//1 121//1
f  133//6 143//6 102//6
f  134//6 144//6 87//6
f  134//6 121//6 122//6
f  135//6 88//6 145//6
f  135//3 140//3 122//3
f  124//4 130//4 123//4
f  125//3 118//3 131//3
f  136//6 141//6 120//6
f  140//6 79//6 138//6
f  138//3 145//3 126//3
f  137//6 139//6 114//6
f  139//1 126//1 142//1
f  127//6 88//6 136//6
f  132//5 127//5 137//5
f  141//6 136//6 117//6
f  115//4 123//4 130//4
f  139//6 137//6 102//6
f  129//3 122//3 140//3
f  143//6 133//6 129//6
f  132//6 142//6 127//6
f  146//6 142//6 87//6
f  143//6 147//6 102//6
f  144//6 146//6 87//6
f  134//4 143//4 144//4
f  134//5 122//5 143//5
f  145//6 88//6 148//6
f  135//6 145//6 144//6
f  135//1 144//1 140//1
f  140//6 138//6 147//6
f  148//3 126//3 145//3
f  138//5 149//5 145//5
f  148//1 142//1 126//1
f  139//4 142//4 149//4
f  148//6 88//6 127//6
f  149//6 139//6 102//6
f  129//5 143//5 122//5
f  148//6 127//6 142//6
f  146//4 149//4 142//4
f  147//6 149//6 102//6
f  147//4 144//4 143//4
f  146//6 144//6 145//6
f  147//1 140//1 144//1
f  149//6 147//6 138//6
f  146//5 145//5 149//5

# Mesh 'mesh2_mesh2-geometry' with 1 faces
g mesh2_mesh2-geometry
usemtl material_0_0
l  77 48

# Mesh 'mesh3_mesh3-geometry' with 1 faces
g mesh3_mesh3-geometry
usemtl material_0_0
l  60 38

# Mesh 'mesh4_mesh4-geometry' with 1 faces
g mesh4_mesh4-geometry
usemtl material_0_0
l  99 84

# Mesh 'mesh5_mesh5-geometry' with 1 faces
g mesh5_mesh5-geometry
usemtl material_0_0
l  52 82

# Mesh 'mesh6_mesh6-geometry' with 1 faces
g mesh6_mesh6-geometry
usemtl material_0_0
l  128 101

# Mesh 'mesh7_mesh7-geometry' with 1 faces
g mesh7_mesh7-geometry
usemtl material_0_0
l  81 97

# Mesh 'mesh8_mesh8-geometry' with 1 faces
g mesh8_mesh8-geometry
usemtl material_0_0
l  92 65

# Mesh 'mesh9_mesh9-geometry' with 1 faces
g mesh9_mesh9-geometry
usemtl material_0_0
l  112 78

# Mesh 'mesh10_mesh10-geometry' with 1 faces
g mesh10_mesh10-geometry
usemtl material_0_0
l  91 62

