# File produced by Open Asset Import Library (http://www.assimp.sf.net)
# (assimp v3.2.202087883)

mtllib model_normalized.mtl

# 174 vertex positions
v -0.419477 0.267887 0.032327
v 0.421972 -0.267818 0.032327
v 0.421972 0.267887 0.032327
v -0.419477 -0.267818 0.032327
v 0.421972 0.267887 -0.038281
v -0.419477 0.267887 -0.009745
v -0.419477 -0.267818 -0.009745
v 0.421972 -0.267818 -0.038281
v -0.000843 0.267887 -0.009745
v -0.000843 -0.267818 -0.009745
v 0.417268 -0.263114 -0.038281
v -0.000843 0.267887 -0.038281
v -0.414773 0.263183 -0.009745
v -0.236030 0.263183 -0.009745
v -0.000843 -0.263114 -0.009745
v -0.000843 -0.267818 -0.038281
v 0.239048 -0.267818 -0.038281
v 0.417268 0.263183 -0.038281
v 0.239048 0.267887 -0.038281
v -0.000843 0.263183 -0.038281
v -0.323311 0.263183 -0.009745
v -0.414773 0.137227 -0.009745
v -0.000843 0.263183 -0.009745
v -0.240734 0.263183 -0.009745
v -0.094241 -0.263114 -0.009745
v 0.129817 -0.267818 -0.038281
v 0.243752 -0.263114 -0.038281
v 0.417268 0.028236 -0.038281
v 0.129817 0.267887 -0.038281
v 0.003861 0.263183 -0.038281
v -0.318607 0.263183 -0.009745
v -0.323311 0.263183 0.027624
v -0.414773 0.132523 -0.009745
v -0.414773 0.137227 0.027624
v -0.000843 0.263183 0.027624
v -0.240734 -0.263114 -0.009745
v -0.098945 -0.263114 -0.009745
v -0.094241 -0.263114 0.027624
v -0.000843 -0.263114 -0.038281
v 0.129817 -0.263114 -0.038281
v 0.239048 -0.263114 -0.038281
v 0.239048 0.086531 -0.038281
v 0.243752 -0.263114 0.027624
v 0.243752 0.263183 -0.038281
v 0.417268 0.032940 -0.038281
v 0.417268 0.028236 0.027624
v 0.239048 0.263183 -0.038281
v 0.125113 0.263183 -0.038281
v -0.323374 0.132523 -0.009745
v -0.414773 0.263183 0.027624
v -0.323374 0.137227 -0.009745
v -0.414773 -0.263114 -0.009745
v -0.414773 0.132523 -0.038281
v -0.236030 0.263183 0.027624
v -0.236030 -0.012770 -0.009745
v -0.240734 -0.032631 -0.009745
v -0.240734 0.263183 0.027624
v -0.236030 -0.263114 -0.009745
v -0.094241 -0.105800 -0.009745
v -0.000843 -0.263114 0.027624
v -0.000843 -0.105800 0.027624
v 0.125113 -0.263114 -0.038281
v 0.239048 -0.009634 -0.038281
v 0.417268 -0.263114 0.027624
v 0.243752 0.028236 -0.038281
v 0.417268 0.263183 0.027624
v 0.243752 0.032940 -0.038281
v 0.129817 0.263183 -0.038281
v -0.000843 -0.012770 -0.009745
v 0.125113 0.263183 0.027624
v 0.003861 0.057843 -0.038281
v -0.323567 -0.263114 -0.009745
v -0.323374 0.137227 0.027624
v -0.414773 -0.263114 0.027624
v -0.414773 0.137227 -0.038281
v -0.236030 -0.012770 0.027624
v -0.236030 -0.017474 -0.009745
v -0.240734 -0.032631 0.027624
v -0.240734 -0.027927 -0.009745
v -0.318607 0.263183 0.027624
v -0.236030 -0.263114 0.027624
v -0.098945 -0.105800 -0.009745
v -0.094241 -0.105800 0.027624
v -0.000843 -0.105800 -0.009745
v 0.003861 -0.263114 -0.038281
v 0.125113 0.053140 -0.038281
v 0.129817 -0.263114 0.027624
v 0.239048 -0.105800 -0.009745
v 0.239048 -0.004931 -0.038281
v 0.243752 0.028236 0.027624
v 0.243752 0.263183 0.027624
v 0.243752 0.032940 0.027624
v 0.417268 0.032940 0.027624
v 0.239048 0.263183 0.027624
v 0.239048 0.091235 -0.038281
v -0.000843 -0.017474 -0.009745
v -0.000843 -0.012770 0.027624
v 0.003861 0.263183 0.027624
v 0.125113 0.057843 -0.038281
v 0.003861 0.053140 -0.038281
v 0.003861 0.057843 0.027624
v -0.318607 -0.027927 -0.009745
v -0.323374 0.132523 0.027624
v -0.323374 0.137227 -0.038281
v -0.318607 -0.263114 -0.009745
v -0.414773 0.132523 0.027624
v -0.323374 0.132523 -0.038281
v -0.236030 -0.101096 -0.009745
v -0.240734 -0.263114 0.027624
v -0.318607 -0.032631 -0.009745
v -0.318607 -0.027927 0.027624
v -0.240734 -0.027927 0.027624
v -0.236030 -0.105800 -0.009745
v -0.098945 -0.263114 0.027624
v -0.098945 -0.105800 0.027624
v -0.000843 -0.101096 -0.009745
v 0.003861 -0.263114 0.027624
v 0.125113 -0.105800 -0.009745
v 0.239048 -0.263114 0.027624
v 0.129817 -0.009634 -0.038281
v 0.239048 -0.105800 0.027624
v 0.239048 -0.101096 -0.009745
v 0.239048 0.086531 0.027624
v 0.129817 0.263183 0.027624
v 0.239048 0.187400 -0.038281
v 0.129817 0.187400 -0.038281
v 0.129817 0.086531 -0.038281
v 0.239048 0.182697 -0.038281
v 0.125113 0.057843 0.027624
v -0.323567 -0.263114 0.027624
v -0.236030 -0.101096 0.027624
v -0.318607 -0.263114 0.027624
v -0.318607 -0.032631 0.027624
v -0.236030 -0.105800 0.027624
v 0.003861 -0.105800 -0.009745
v 0.125113 -0.263114 0.027624
v 0.125113 -0.105800 0.027624
v 0.125113 -0.101096 -0.009745
v 0.129817 -0.105800 0.027624
v 0.129817 -0.105800 -0.009745
v 0.129817 -0.004931 -0.038281
v 0.239048 -0.009634 0.027624
v 0.239048 -0.004931 0.027624
v 0.129817 0.187400 0.027624
v 0.239048 0.187400 0.027624
v 0.129817 0.182697 -0.038281
v 0.129817 0.091235 -0.038281
v 0.239048 0.182697 0.027624
v -0.000843 -0.017474 0.027624
v -0.236030 -0.017474 0.027624
v 0.003861 -0.101096 -0.009745
v 0.003861 -0.105800 0.027624
v 0.125113 -0.017474 -0.009745
v 0.129817 -0.101096 -0.009745
v 0.239048 -0.101096 0.027624
v 0.129817 0.086531 0.027624
v 0.129817 -0.009634 0.027624
v 0.239048 0.091235 0.027624
v 0.125113 0.053140 0.027624
v -0.000843 -0.101096 0.027624
v 0.003861 -0.017474 -0.009745
v 0.125113 -0.017474 0.027624
v 0.125113 -0.012770 -0.009745
v 0.129817 -0.101096 0.027624
v 0.129817 -0.004931 0.027624
v 0.129817 0.091235 0.027624
v 0.129817 0.182697 0.027624
v 0.003861 0.053140 0.027624
v 0.003861 -0.012770 -0.009745
v 0.003861 -0.101096 0.027624
v 0.125113 -0.101096 0.027624
v 0.003861 -0.017474 0.027624
v 0.125113 -0.012770 0.027624
v 0.003861 -0.012770 0.027624

# 0 UV coordinates

# 8 vertex normals
vn 0 0 0.001
vn 0 0 -0.001
vn 0.001 0 0
vn -0.001 0 0
vn 0 0.001 0
vn 0 -0.001 0
vn -0.001 4.87e-07 0
vn 0.001 -4.87e-07 0

# Mesh 'mesh1_mesh1-geometry' with 688 faces
g mesh1_mesh1-geometry
usemtl material_0_24
f  1//1 2//1 3//1
f  2//1 1//1 4//1
f  3//2 2//2 1//2
f  4//2 1//2 2//2
f  2//3 5//3 3//3
f  3//4 5//4 2//4
f  5//5 1//5 3//5
f  3//6 1//6 5//6
f  6//4 4//4 1//4
f  1//3 4//3 6//3
f  7//6 2//6 4//6
f  4//5 2//5 7//5
f  5//3 2//3 8//3
f  8//4 2//4 5//4
f  1//5 5//5 9//5
f  9//6 5//6 1//6
f  4//4 6//4 7//4
f  7//3 6//3 4//3
f  1//5 9//5 6//5
f  6//6 9//6 1//6
f  2//6 7//6 10//6
f  10//5 7//5 2//5
f  2//6 10//6 8//6
f  8//5 10//5 2//5
f  8//2 11//2 5//2
f  5//1 11//1 8//1
f  9//5 5//5 12//5
f  12//6 5//6 9//6
f  6//2 13//2 7//2
f  7//1 13//1 6//1
f  9//2 14//2 6//2
f  6//1 14//1 9//1
f  7//2 15//2 10//2
f  10//1 15//1 7//1
f  8//6 10//6 16//6
f  16//5 10//5 8//5
f  11//2 8//2 17//2
f  17//1 8//1 11//1
f  18//2 5//2 11//2
f  11//1 5//1 18//1
f  12//5 5//5 19//5
f  19//6 5//6 12//6
f  20//4 9//4 12//4
f  12//3 9//3 20//3
f  6//2 21//2 13//2
f  13//1 21//1 6//1
f  22//2 7//2 13//2
f  13//1 7//1 22//1
f  14//2 9//2 23//2
f  23//1 9//1 14//1
f  6//2 14//2 24//2
f  24//1 14//1 6//1
f  15//2 7//2 25//2
f  25//1 7//1 15//1
f  15//4 16//4 10//4
f  10//3 16//3 15//3
f  8//6 16//6 26//6
f  26//5 16//5 8//5
f  8//6 26//6 17//6
f  17//5 26//5 8//5
f  11//2 17//2 27//2
f  27//1 17//1 11//1
f  5//2 18//2 19//2
f  19//1 18//1 5//1
f  28//2 18//2 11//2
f  11//1 18//1 28//1
f  12//5 19//5 29//5
f  29//6 19//6 12//6
f  9//4 20//4 23//4
f  23//3 20//3 9//3
f  12//2 30//2 20//2
f  20//1 30//1 12//1
f  6//2 31//2 21//2
f  21//1 31//1 6//1
f  32//6 13//6 21//6
f  21//5 13//5 32//5
f  33//2 7//2 22//2
f  22//1 7//1 33//1
f  13//3 34//3 22//3
f  22//4 34//4 13//4
f  35//6 14//6 23//6
f  23//5 14//5 35//5
f  24//2 14//2 36//2
f  36//1 14//1 24//1
f  6//2 24//2 31//2
f  31//1 24//1 6//1
f  25//2 7//2 37//2
f  37//1 7//1 25//1
f  38//5 15//5 25//5
f  25//6 15//6 38//6
f  16//4 15//4 39//4
f  39//3 15//3 16//3
f  16//2 40//2 26//2
f  26//1 40//1 16//1
f  26//2 41//2 17//2
f  17//1 41//1 26//1
f  27//2 17//2 42//2
f  42//1 17//1 27//1
f  43//5 11//5 27//5
f  27//6 11//6 43//6
f  19//2 18//2 44//2
f  44//1 18//1 19//1
f  18//2 28//2 45//2
f  45//1 28//1 18//1
f  11//4 46//4 28//4
f  28//3 46//3 11//3
f  47//2 29//2 19//2
f  19//1 29//1 47//1
f  29//2 48//2 12//2
f  12//1 48//1 29//1
f  20//4 35//4 23//4
f  23//3 35//3 20//3
f  12//2 48//2 30//2
f  30//1 48//1 12//1
f  30//2 16//2 20//2
f  20//1 16//1 30//1
f  31//2 49//2 21//2
f  21//1 49//1 31//1
f  13//6 32//6 50//6
f  50//5 32//5 13//5
f  51//7 32//7 21//7
f  21//8 32//8 51//8
f  52//2 7//2 33//2
f  33//1 7//1 52//1
f  22//4 53//4 33//4
f  33//3 53//3 22//3
f  34//3 13//3 50//3
f  50//4 13//4 34//4
f  34//5 51//5 22//5
f  22//6 51//6 34//6
f  14//6 35//6 54//6
f  54//5 35//5 14//5
f  55//2 36//2 14//2
f  14//1 36//1 55//1
f  24//2 36//2 56//2
f  56//1 36//1 24//1
f  57//6 31//6 24//6
f  24//5 31//5 57//5
f  37//2 7//2 58//2
f  58//1 7//1 37//1
f  37//2 59//2 25//2
f  25//1 59//1 37//1
f  15//5 38//5 60//5
f  60//6 38//6 15//6
f  59//3 38//3 25//3
f  25//4 38//4 59//4
f  15//4 61//4 39//4
f  39//3 61//3 15//3
f  20//2 16//2 39//2
f  39//1 16//1 20//1
f  40//2 16//2 62//2
f  62//1 16//1 40//1
f  41//2 26//2 40//2
f  40//1 26//1 41//1
f  63//2 17//2 41//2
f  41//1 17//1 63//1
f  42//2 17//2 63//2
f  63//1 17//1 42//1
f  27//2 42//2 19//2
f  19//1 42//1 27//1
f  11//5 43//5 64//5
f  64//6 43//6 11//6
f  65//3 43//3 27//3
f  27//4 43//4 65//4
f  66//6 44//6 18//6
f  18//5 44//5 66//5
f  19//2 44//2 67//2
f  67//1 44//1 19//1
f  65//2 45//2 28//2
f  28//1 45//1 65//1
f  45//4 66//4 18//4
f  18//3 66//3 45//3
f  46//4 11//4 64//4
f  64//3 11//3 46//3
f  46//6 65//6 28//6
f  28//5 65//5 46//5
f  29//2 47//2 68//2
f  68//1 47//1 29//1
f  42//2 47//2 19//2
f  19//1 47//1 42//1
f  29//2 40//2 48//2
f  48//1 40//1 29//1
f  20//4 69//4 35//4
f  35//3 69//3 20//3
f  70//6 30//6 48//6
f  48//5 30//5 70//5
f  71//2 16//2 30//2
f  30//1 16//1 71//1
f  31//2 72//2 49//2
f  49//1 72//1 31//1
f  21//2 49//2 51//2
f  51//1 49//1 21//1
f  73//2 50//2 32//2
f  32//1 50//1 73//1
f  32//7 51//7 73//7
f  73//8 51//8 32//8
f  72//2 7//2 52//2
f  52//1 7//1 72//1
f  33//3 74//3 52//3
f  52//4 74//4 33//4
f  53//4 22//4 75//4
f  75//3 22//3 53//3
f  49//6 33//6 53//6
f  53//5 33//5 49//5
f  50//2 73//2 34//2
f  34//1 73//1 50//1
f  51//5 34//5 73//5
f  73//6 34//6 51//6
f  22//5 51//5 75//5
f  75//6 51//6 22//6
f  35//2 76//2 54//2
f  54//1 76//1 35//1
f  76//3 14//3 54//3
f  54//4 14//4 76//4
f  77//2 36//2 55//2
f  55//1 36//1 77//1
f  14//3 76//3 55//3
f  55//4 76//4 14//4
f  36//4 78//4 56//4
f  56//3 78//3 36//3
f  24//2 56//2 79//2
f  79//1 56//1 24//1
f  31//6 57//6 80//6
f  80//5 57//5 31//5
f  79//4 57//4 24//4
f  24//3 57//3 79//3
f  58//2 7//2 36//2
f  36//1 7//1 58//1
f  81//5 37//5 58//5
f  58//6 37//6 81//6
f  59//2 37//2 82//2
f  82//1 37//1 59//1
f  83//2 60//2 38//2
f  38//1 60//1 83//1
f  61//4 15//4 60//4
f  60//3 15//3 61//3
f  38//3 59//3 83//3
f  83//4 59//4 38//4
f  39//4 61//4 84//4
f  84//3 61//3 39//3
f  39//4 84//4 20//4
f  20//3 84//3 39//3
f  62//2 16//2 85//2
f  85//1 16//1 62//1
f  40//2 62//2 86//2
f  86//1 62//1 40//1
f  87//5 41//5 40//5
f  40//6 41//6 87//6
f  41//4 88//4 63//4
f  63//3 88//3 41//3
f  89//2 42//2 63//2
f  63//1 42//1 89//1
f  19//2 67//2 27//2
f  27//1 67//1 19//1
f  43//2 46//2 64//2
f  64//1 46//1 43//1
f  43//3 65//3 90//3
f  90//4 65//4 43//4
f  27//2 67//2 65//2
f  65//1 67//1 27//1
f  44//6 66//6 91//6
f  91//5 66//5 44//5
f  44//3 92//3 67//3
f  67//4 92//4 44//4
f  45//2 65//2 67//2
f  67//1 65//1 45//1
f  66//4 45//4 93//4
f  93//3 45//3 66//3
f  65//6 46//6 90//6
f  90//5 46//5 65//5
f  94//6 68//6 47//6
f  47//5 68//5 94//5
f  68//2 40//2 29//2
f  29//1 40//1 68//1
f  47//2 42//2 95//2
f  95//1 42//1 47//1
f  40//2 86//2 48//2
f  48//1 86//1 40//1
f  20//4 96//4 69//4
f  69//3 96//3 20//3
f  35//4 69//4 97//4
f  97//3 69//3 35//3
f  30//6 70//6 98//6
f  98//5 70//5 30//5
f  99//4 70//4 48//4
f  48//3 70//3 99//3
f  100//2 16//2 71//2
f  71//1 16//1 100//1
f  30//3 101//3 71//3
f  71//4 101//4 30//4
f  102//2 72//2 31//2
f  31//1 72//1 102//1
f  72//7 103//7 49//7
f  49//8 103//8 72//8
f  49//8 104//8 51//8
f  51//7 104//7 49//7
f  105//2 7//2 72//2
f  72//1 7//1 105//1
f  74//5 72//5 52//5
f  52//6 72//6 74//6
f  74//3 33//3 106//3
f  106//4 33//4 74//4
f  75//2 107//2 53//2
f  53//1 107//1 75//1
f  103//6 33//6 49//6
f  49//5 33//5 103//5
f  49//6 53//6 107//6
f  107//5 53//5 49//5
f  75//5 51//5 104//5
f  104//6 51//6 75//6
f  76//2 35//2 97//2
f  97//1 35//1 76//1
f  108//2 36//2 77//2
f  77//1 36//1 108//1
f  69//2 77//2 55//2
f  55//1 77//1 69//1
f  76//5 69//5 55//5
f  55//6 69//6 76//6
f  78//4 36//4 109//4
f  109//3 36//3 78//3
f  78//6 110//6 56//6
f  56//5 110//5 78//5
f  110//2 79//2 56//2
f  56//1 79//1 110//1
f  57//2 111//2 80//2
f  80//1 111//1 57//1
f  111//3 31//3 80//3
f  80//4 31//4 111//4
f  57//4 79//4 112//4
f  112//3 79//3 57//3
f  36//2 7//2 105//2
f  105//1 7//1 36//1
f  58//2 36//2 113//2
f  113//1 36//1 58//1
f  37//5 81//5 114//5
f  114//6 81//6 37//6
f  113//3 81//3 58//3
f  58//4 81//4 113//4
f  37//4 115//4 82//4
f  82//3 115//3 37//3
f  108//2 59//2 82//2
f  82//1 59//1 108//1
f  60//2 83//2 61//2
f  61//1 83//1 60//1
f  59//6 61//6 83//6
f  83//5 61//5 59//5
f  61//6 59//6 84//6
f  84//5 59//5 61//5
f  20//4 84//4 116//4
f  116//3 84//3 20//3
f  85//2 16//2 100//2
f  100//1 16//1 85//1
f  117//5 62//5 85//5
f  85//6 62//6 117//6
f  62//4 118//4 86//4
f  86//3 118//3 62//3
f  41//5 87//5 119//5
f  119//6 87//6 41//6
f  120//3 87//3 40//3
f  40//4 87//4 120//4
f  41//4 121//4 88//4
f  88//3 121//3 41//3
f  63//4 88//4 122//4
f  122//3 88//3 63//3
f  89//4 123//4 42//4
f  42//3 123//3 89//3
f  120//2 89//2 63//2
f  63//1 89//1 120//1
f  46//2 43//2 90//2
f  90//1 43//1 46//1
f  93//2 91//2 66//2
f  66//1 91//1 93//1
f  92//3 44//3 91//3
f  91//4 44//4 92//4
f  92//5 45//5 67//5
f  67//6 45//6 92//6
f  45//5 92//5 93//5
f  93//6 92//6 45//6
f  68//6 94//6 124//6
f  124//5 94//5 68//5
f  125//4 94//4 47//4
f  47//3 94//3 125//3
f  126//2 40//2 68//2
f  68//1 40//1 126//1
f  127//2 95//2 42//2
f  42//1 95//1 127//1
f  47//2 95//2 128//2
f  128//1 95//1 47//1
f  99//2 48//2 86//2
f  86//1 48//1 99//1
f  20//4 116//4 96//4
f  96//3 116//3 20//3
f  77//2 69//2 96//2
f  96//1 69//1 77//1
f  69//5 76//5 97//5
f  97//6 76//6 69//6
f  129//2 98//2 70//2
f  70//1 98//1 129//1
f  101//3 30//3 98//3
f  98//4 30//4 101//4
f  70//4 99//4 129//4
f  129//3 99//3 70//3
f  99//2 100//2 71//2
f  71//1 100//1 99//1
f  101//5 99//5 71//5
f  71//6 99//6 101//6
f  110//2 72//2 102//2
f  102//1 72//1 110//1
f  31//3 111//3 102//3
f  102//4 111//4 31//4
f  103//7 72//7 130//7
f  130//8 72//8 103//8
f  104//8 49//8 107//8
f  107//7 49//7 104//7
f  72//2 110//2 105//2
f  105//1 110//1 72//1
f  72//5 74//5 130//5
f  130//6 74//6 72//6
f  33//6 103//6 106//6
f  106//5 103//5 33//5
f  106//2 130//2 74//2
f  74//1 130//1 106//1
f  107//2 75//2 104//2
f  104//1 75//1 107//1
f  113//2 36//2 108//2
f  108//1 36//1 113//1
f  77//3 131//3 108//3
f  108//4 131//4 77//4
f  36//5 132//5 109//5
f  109//6 132//6 36//6
f  132//2 78//2 109//2
f  109//1 78//1 132//1
f  110//6 78//6 133//6
f  133//5 78//5 110//5
f  79//2 110//2 102//2
f  102//1 110//1 79//1
f  111//2 57//2 112//2
f  112//1 57//1 111//1
f  79//5 111//5 112//5
f  112//6 111//6 79//6
f  132//5 36//5 105//5
f  105//6 36//6 132//6
f  81//2 115//2 114//2
f  114//1 115//1 81//1
f  115//4 37//4 114//4
f  114//3 37//3 115//3
f  81//3 113//3 134//3
f  134//4 113//4 81//4
f  115//6 113//6 82//6
f  82//5 113//5 115//5
f  116//2 59//2 108//2
f  108//1 59//1 116//1
f  108//2 82//2 113//2
f  113//1 82//1 108//1
f  59//2 116//2 84//2
f  84//1 116//1 59//1
f  135//3 85//3 100//3
f  100//4 85//4 135//4
f  62//5 117//5 136//5
f  136//6 117//6 62//6
f  85//3 135//3 117//3
f  117//4 135//4 85//4
f  62//4 137//4 118//4
f  118//3 137//3 62//3
f  86//4 118//4 138//4
f  138//3 118//3 86//3
f  139//2 119//2 87//2
f  87//1 119//1 139//1
f  121//4 41//4 119//4
f  119//3 41//3 121//3
f  87//3 120//3 140//3
f  140//4 120//4 87//4
f  40//2 141//2 120//2
f  120//1 141//1 40//1
f  121//6 140//6 88//6
f  88//5 140//5 121//5
f  140//2 122//2 88//2
f  88//1 122//1 140//1
f  63//4 122//4 142//4
f  142//3 122//3 63//3
f  123//4 89//4 143//4
f  143//3 89//3 123//3
f  123//6 127//6 42//6
f  42//5 127//5 123//5
f  89//2 120//2 141//2
f  141//1 120//1 89//1
f  142//6 120//6 63//6
f  63//5 120//5 142//5
f  91//2 93//2 92//2
f  92//1 93//1 91//1
f  94//2 144//2 124//2
f  124//1 144//1 94//1
f  144//3 68//3 124//3
f  124//4 68//4 144//4
f  94//4 125//4 145//4
f  145//3 125//3 94//3
f  47//2 128//2 125//2
f  125//1 128//1 47//1
f  146//2 40//2 126//2
f  126//1 40//1 146//1
f  68//3 144//3 126//3
f  126//4 144//4 68//4
f  95//2 127//2 147//2
f  147//1 127//1 95//1
f  95//4 148//4 128//4
f  128//3 148//3 95//3
f  100//2 99//2 86//2
f  86//1 99//1 100//1
f  96//4 116//4 149//4
f  149//3 116//3 96//3
f  149//6 77//6 96//6
f  96//5 77//5 149//5
f  98//2 129//2 101//2
f  101//1 129//1 98//1
f  99//5 101//5 129//5
f  129//6 101//6 99//6
f  111//5 79//5 102//5
f  102//6 79//6 111//6
f  130//2 106//2 103//2
f  103//1 106//1 130//1
f  110//3 132//3 105//3
f  105//4 132//4 110//4
f  131//3 77//3 150//3
f  150//4 77//4 131//4
f  131//5 116//5 108//5
f  108//6 116//6 131//6
f  78//2 132//2 133//2
f  133//1 132//1 78//1
f  132//3 110//3 133//3
f  133//4 110//4 132//4
f  115//2 81//2 134//2
f  134//1 81//1 115//1
f  113//6 115//6 134//6
f  134//5 115//5 113//5
f  135//3 100//3 151//3
f  151//4 100//4 135//4
f  152//2 136//2 117//2
f  117//1 136//1 152//1
f  137//4 62//4 136//4
f  136//3 62//3 137//3
f  152//3 117//3 135//3
f  135//4 117//4 152//4
f  137//6 135//6 118//6
f  118//5 135//5 137//5
f  135//2 138//2 118//2
f  118//1 138//1 135//1
f  86//4 138//4 153//4
f  153//3 138//3 86//3
f  119//2 139//2 121//2
f  121//1 139//1 119//1
f  139//3 87//3 140//3
f  140//4 87//4 139//4
f  140//3 120//3 154//3
f  154//4 120//4 140//4
f  141//2 40//2 127//2
f  127//1 40//1 141//1
f  140//6 121//6 139//6
f  139//5 121//5 140//5
f  122//2 140//2 154//2
f  154//1 140//1 122//1
f  142//4 122//4 155//4
f  155//3 122//3 142//3
f  141//5 143//5 89//5
f  89//6 143//6 141//6
f  143//2 156//2 123//2
f  123//1 156//1 143//1
f  127//6 123//6 156//6
f  156//5 123//5 127//5
f  120//6 142//6 157//6
f  157//5 142//5 120//5
f  144//2 94//2 145//2
f  145//1 94//1 144//1
f  125//5 144//5 145//5
f  145//6 144//6 125//6
f  146//2 125//2 128//2
f  128//1 125//1 146//1
f  147//2 40//2 146//2
f  146//1 40//1 147//1
f  125//2 146//2 126//2
f  126//1 146//1 125//1
f  144//5 125//5 126//5
f  126//6 125//6 144//6
f  127//2 40//2 147//2
f  147//1 40//1 127//1
f  147//5 158//5 95//5
f  95//6 158//6 147//6
f  148//4 95//4 158//4
f  158//3 95//3 148//3
f  148//6 146//6 128//6
f  128//5 146//5 148//5
f  159//6 100//6 86//6
f  86//5 100//5 159//5
f  149//4 116//4 160//4
f  160//3 116//3 149//3
f  77//6 149//6 150//6
f  150//5 149//5 77//5
f  150//2 160//2 131//2
f  131//1 160//1 150//1
f  116//5 131//5 160//5
f  160//6 131//6 116//6
f  151//3 100//3 161//3
f  161//4 100//4 151//4
f  138//2 135//2 151//2
f  151//1 135//1 138//1
f  136//2 152//2 137//2
f  137//1 152//1 136//1
f  135//6 137//6 152//6
f  152//5 137//5 135//5
f  153//4 138//4 162//4
f  162//3 138//3 153//3
f  86//4 153//4 163//4
f  163//3 153//3 86//3
f  154//3 120//3 164//3
f  164//4 120//4 154//4
f  127//3 165//3 141//3
f  141//4 165//4 127//4
f  164//5 122//5 154//5
f  154//6 122//6 164//6
f  122//5 164//5 155//5
f  155//6 164//6 122//6
f  155//2 157//2 142//2
f  142//1 157//1 155//1
f  143//5 141//5 165//5
f  165//6 141//6 143//6
f  156//2 143//2 165//2
f  165//1 143//1 156//1
f  165//3 127//3 156//3
f  156//4 127//4 165//4
f  164//3 120//3 157//3
f  157//4 120//4 164//4
f  146//3 166//3 147//3
f  147//4 166//4 146//4
f  158//5 147//5 166//5
f  166//6 147//6 158//6
f  166//2 148//2 158//2
f  158//1 148//1 166//1
f  146//6 148//6 167//6
f  167//5 148//5 146//5
f  100//6 159//6 168//6
f  168//5 159//5 100//5
f  86//4 163//4 159//4
f  159//3 163//3 86//3
f  160//2 150//2 149//2
f  149//1 150//1 160//1
f  161//3 100//3 169//3
f  169//4 100//4 161//4
f  151//3 161//3 170//3
f  170//4 161//4 151//4
f  170//5 138//5 151//5
f  151//6 138//6 170//6
f  162//4 138//4 171//4
f  171//3 138//3 162//3
f  172//6 153//6 162//6
f  162//5 153//5 172//5
f  161//2 163//2 153//2
f  153//1 163//1 161//1
f  157//2 155//2 164//2
f  164//1 155//1 157//1
f  166//3 146//3 167//3
f  167//4 146//4 166//4
f  148//2 166//2 167//2
f  167//1 166//1 148//1
f  173//2 168//2 159//2
f  159//1 168//1 173//1
f  174//3 100//3 168//3
f  168//4 100//4 174//4
f  159//4 163//4 173//4
f  173//3 163//3 159//3
f  169//3 100//3 174//3
f  174//4 100//4 169//4
f  163//2 161//2 169//2
f  169//1 161//1 163//1
f  172//3 170//3 161//3
f  161//4 170//4 172//4
f  138//5 170//5 171//5
f  171//6 170//6 138//6
f  171//2 172//2 162//2
f  162//1 172//1 171//1
f  153//6 172//6 161//6
f  161//5 172//5 153//5
f  168//2 173//2 174//2
f  174//1 173//1 168//1
f  163//5 174//5 173//5
f  173//6 174//6 163//6
f  174//5 163//5 169//5
f  169//6 163//6 174//6
f  172//2 171//2 170//2
f  170//1 171//1 172//1

# Mesh 'mesh2_mesh2-geometry' with 199 faces
g mesh2_mesh2-geometry
usemtl material_0_0
l  2 3
l  4 2
l  2 8
l  3 1
l  3 5
l  1 4
l  4 7
l  17 8
l  8 5
l  1 6
l  5 19
l  7 10
l  6 7
l  41 17
l  26 17
l  9 6
l  19 47
l  19 29
l  10 15
l  16 10
l  41 40
l  119 41
l  63 41
l  16 26
l  40 26
l  23 9
l  12 9
l  47 125
l  94 47
l  47 68
l  29 12
l  29 68
l  60 15
l  39 15
l  25 15
l  16 39
l  87 40
l  120 40
l  119 87
l  121 119
l  63 120
l  142 63
l  89 63
l  35 23
l  23 14
l  20 23
l  20 12
l  125 126
l  145 125
l  125 128
l  94 145
l  94 124
l  124 68
l  68 126
l  60 61
l  38 60
l  39 20
l  59 25
l  38 25
l  37 25
l  139 87
l  157 120
l  141 120
l  139 121
l  121 88
l  142 155
l  142 157
l  42 89
l  89 141
l  143 89
l  35 54
l  97 35
l  54 14
l  14 55
l  144 126
l  126 146
l  145 144
l  128 146
l  148 128
l  128 95
l  124 144
l  61 83
l  61 84
l  83 38
l  84 59
l  83 59
l  59 82
l  58 37
l  82 37
l  114 37
l  139 140
l  157 164
l  127 141
l  165 141
l  122 88
l  140 88
l  164 155
l  155 122
l  42 127
l  123 42
l  95 42
l  123 143
l  143 165
l  54 76
l  97 76
l  97 69
l  69 55
l  76 55
l  55 77
l  167 146
l  146 147
l  148 158
l  148 167
l  95 147
l  158 95
l  84 116
l  115 82
l  82 113
l  81 58
l  113 58
l  81 114
l  115 114
l  154 140
l  164 154
l  156 127
l  147 127
l  156 165
l  154 122
l  123 156
l  96 69
l  96 77
l  150 77
l  77 108
l  167 166
l  166 147
l  158 166
l  116 108
l  160 116
l  115 134
l  134 113
l  108 113
l  134 81
l  149 96
l  150 131
l  149 150
l  131 108
l  160 149
l  160 131
l  160 170
l  170 172
l  170 171
l  170 151
l  162 172
l  172 161
l  171 138
l  162 171
l  135 151
l  151 138
l  162 153
l  161 169
l  153 161
l  138 118
l  135 118
l  152 135
l  163 153
l  163 169
l  174 169
l  137 118
l  117 152
l  152 137
l  173 163
l  173 174
l  174 168
l  137 136
l  136 117
l  117 85
l  159 173
l  168 100
l  168 159
l  136 62
l  85 100
l  62 85
l  159 86
l  100 86
l  100 71
l  86 62
l  99 86
l  71 99
l  101 71
l  71 30
l  48 99
l  129 99
l  101 98
l  101 129
l  30 48
l  98 30
l  70 48
l  70 129
l  98 70

# Mesh 'mesh3_mesh3-geometry' with 26 faces
g mesh3_mesh3-geometry
usemtl material_0_0
l  64 43
l  64 11
l  46 64
l  43 90
l  43 27
l  11 27
l  28 11
l  90 46
l  46 28
l  90 65
l  27 65
l  65 28
l  45 28
l  65 67
l  18 45
l  67 45
l  93 45
l  92 67
l  67 44
l  44 18
l  66 18
l  66 93
l  92 93
l  92 91
l  91 44
l  91 66

# Mesh 'mesh4_mesh4-geometry' with 60 faces
g mesh4_mesh4-geometry
usemtl material_0_0
l  57 80
l  57 24
l  112 57
l  80 31
l  111 80
l  24 31
l  79 24
l  112 111
l  112 79
l  31 21
l  102 31
l  111 102
l  79 102
l  56 79
l  32 21
l  21 13
l  21 51
l  110 102
l  36 56
l  56 110
l  78 56
l  32 50
l  32 73
l  50 13
l  13 22
l  73 51
l  51 49
l  104 51
l  105 110
l  133 110
l  109 36
l  105 36
l  109 78
l  78 133
l  50 34
l  73 34
l  34 22
l  22 33
l  75 22
l  103 49
l  49 72
l  107 49
l  104 75
l  104 107
l  132 105
l  72 105
l  132 133
l  132 109
l  106 33
l  33 52
l  53 33
l  75 53
l  103 106
l  103 130
l  130 72
l  52 72
l  107 53
l  106 74
l  74 52
l  74 130

