# File produced by Open Asset Import Library (http://www.assimp.sf.net)
# (assimp v3.2.202087883)

mtllib model_normalized.mtl

# 136 vertex positions
v 0.465783 0.032898 0.075226
v -0.465783 0.032898 0.094633
v 0.465783 0.032898 0.094633
v -0.465783 0.032898 0.075226
v -0.465783 0.000552 0.094633
v 0.465783 0.000552 0.094633
v -0.465783 0.000552 0.075225
v 0.465783 0.000552 0.075225
v -0.465783 0.003787 0.099485
v 0.465783 0.032898 0.099485
v 0.465783 0.003787 0.099485
v -0.465783 0.032898 0.099485
v 0.465783 0.000552 0.144770
v -0.465783 0.000552 0.099485
v -0.465783 0.000552 0.144770
v 0.465783 0.032898 0.125361
v 0.465783 0.000552 0.099485
v 0.465783 0.013491 0.144770
v -0.465783 0.013491 0.144770
v -0.465783 0.032898 0.125361
v 0.465783 0.030298 0.135066
v 0.465783 0.023195 0.142170
v -0.465783 0.023195 0.142170
v -0.465783 0.030298 0.135066
v 0.465783 0.032898 0.050967
v -0.465783 0.032898 0.070374
v 0.465783 0.032898 0.070374
v -0.465783 0.032898 0.050967
v -0.465783 0.000552 0.070374
v 0.465783 0.000552 0.070374
v -0.465783 0.000552 0.050966
v 0.465783 0.000552 0.050966
v 0.465783 0.032898 0.026708
v -0.465783 0.032898 0.046115
v 0.465783 0.032898 0.046115
v -0.465783 0.032898 0.026708
v -0.465783 0.000552 0.046115
v 0.465783 0.000552 0.046115
v -0.465783 0.000552 0.026707
v 0.465783 0.000552 0.026707
v 0.465783 0.032898 0.002449
v -0.465783 0.032898 0.021856
v 0.465783 0.032898 0.021856
v -0.465783 0.032898 0.002449
v -0.465783 0.000552 0.021856
v 0.465783 0.000552 0.021856
v -0.465783 0.000552 0.002448
v 0.465783 0.000552 0.002448
v 0.465783 0.032898 -0.021810
v -0.465783 0.032898 -0.002403
v 0.465783 0.032898 -0.002403
v -0.465783 0.032898 -0.021810
v -0.465783 0.000552 -0.002403
v 0.465783 0.000552 -0.002403
v -0.465783 0.000552 -0.021811
v 0.465783 0.000552 -0.021811
v 0.465783 0.032898 -0.046069
v -0.465783 0.032898 -0.026662
v 0.465783 0.032898 -0.026662
v -0.465783 0.032898 -0.046069
v -0.465783 0.000552 -0.026662
v 0.465783 0.000552 -0.026662
v -0.465783 0.000552 -0.046070
v 0.465783 0.000552 -0.046070
v 0.465783 0.032898 -0.070329
v -0.465783 0.032898 -0.050921
v 0.465783 0.032898 -0.050921
v -0.465783 0.032898 -0.070329
v -0.465783 0.000552 -0.050921
v 0.465783 0.000552 -0.050921
v -0.465783 0.000552 -0.070329
v 0.465783 0.000552 -0.070329
v 0.465783 0.032898 -0.094588
v -0.465783 0.032898 -0.075181
v 0.465783 0.032898 -0.075181
v -0.465783 0.032898 -0.094588
v -0.465783 0.000552 -0.075180
v 0.465783 0.000552 -0.075180
v -0.465783 0.000552 -0.094588
v 0.465783 0.000552 -0.094588
v 0.465783 0.003787 -0.099440
v 0.465783 0.032898 -0.099440
v -0.465783 0.003787 -0.099440
v 0.465783 0.000552 -0.144724
v -0.465783 0.032898 -0.099440
v -0.465783 0.000552 -0.099440
v 0.465783 0.000552 -0.099440
v 0.465783 0.013491 -0.144725
v -0.465783 0.000552 -0.144724
v 0.465783 0.032898 -0.125316
v 0.465783 0.023195 -0.142124
v -0.465783 0.013491 -0.144725
v 0.465783 0.030298 -0.135020
v -0.465783 0.032898 -0.125316
v -0.465783 0.023195 -0.142124
v -0.465783 0.030298 -0.135020
v -0.310522 -0.005379 0.131961
v -0.310522 -0.005379 -0.016278
v -0.310522 -0.005379 0.016068
v -0.310522 -0.005379 -0.131915
v -0.307287 -0.005379 0.016068
v -0.271706 -0.005379 0.131961
v -0.310522 0.000552 0.131961
v -0.307287 -0.005379 -0.016278
v -0.271706 -0.005379 0.016068
v -0.310522 0.000552 -0.131915
v -0.271706 -0.005379 -0.131915
v -0.274941 -0.005379 0.016068
v -0.307287 -0.187055 -0.016278
v -0.271706 0.000552 0.131961
v -0.271706 0.000552 -0.131915
v -0.271706 -0.005379 -0.016278
v -0.274941 -0.005379 -0.016278
v -0.274941 -0.187055 0.016068
v -0.307287 -0.187055 0.016068
v -0.274941 -0.187055 -0.016278
v 0.271706 -0.005379 0.131961
v 0.271706 -0.005379 -0.016278
v 0.271706 -0.005379 0.016068
v 0.271706 -0.005379 -0.131915
v 0.274941 -0.005379 0.016068
v 0.310522 -0.005379 0.131961
v 0.271706 0.000552 0.131961
v 0.274941 -0.005379 -0.016278
v 0.310522 -0.005379 0.016068
v 0.271706 0.000552 -0.131915
v 0.310522 -0.005379 -0.131915
v 0.307287 -0.005379 0.016068
v 0.274941 -0.187055 -0.016278
v 0.310522 0.000552 0.131961
v 0.310522 0.000552 -0.131915
v 0.310522 -0.005379 -0.016278
v 0.307287 -0.005379 -0.016278
v 0.307287 -0.187055 0.016068
v 0.274941 -0.187055 0.016068
v 0.307287 -0.187055 -0.016278

# 0 UV coordinates

# 42 vertex normals
vn 0 0.0254 0
vn 0 -0.0254 0
vn 0 2.54717e-07 0.0254
vn 0 -2.54717e-07 -0.0254
vn 0.0254 0 0
vn -0.0254 0 0
vn 0 5.39003e-07 -0.0254
vn 0 -5.39003e-07 0.0254
vn 0 1.29687e-07 -0.0254
vn 0 -1.29687e-07 0.0254
vn 0 0.0254 -1.54367e-07
vn 0 0.0251827 0.00331506
vn 0 -0.0254 1.54367e-07
vn 0 -0.0251827 -0.00331506
vn 0 0.00331509 0.0251827
vn 0 -7.18515e-07 0.0254
vn 0 -0.00331509 -0.0251827
vn 0 7.18515e-07 -0.0254
vn 0 0.0219973 0.0126996
vn 0 -0.0219973 -0.0126996
vn 0 0.0127002 0.0219969
vn 0 -0.0127002 -0.0219969
vn -0 1.29687e-07 0.0254
vn 0 -1.29687e-07 -0.0254
vn 0 0.0254 1.54367e-07
vn 0 0.0251827 -0.00331506
vn 0 -0.0254 -1.54367e-07
vn 0 -0.0251827 0.00331506
vn 0 0.00331509 -0.0251827
vn 0 -7.18515e-07 -0.0254
vn -0 -0.00331509 0.0251827
vn -0 7.18515e-07 0.0254
vn 0 0.0127002 -0.0219969
vn -0 -0.0127002 0.0219969
vn 0 0.0219973 -0.0126996
vn 0 -0.0219973 0.0126996
vn 0 -0.0310511 0
vn 0 0.0310511 0
vn -0 0 0.0254
vn 0 0 -0.0254
vn 0 -0.0310511 -2.54e-08
vn 0 0.0310511 2.54e-08

# Mesh 'mesh1_mesh1-geometry' with 24 faces
g mesh1_mesh1-geometry
usemtl material_0_24
f  1//1 2//1 3//1
f  2//1 1//1 4//1
f  3//2 2//2 1//2
f  4//2 1//2 2//2
f  5//3 3//3 2//3
f  2//4 3//4 5//4
f  6//5 1//5 3//5
f  3//6 1//6 6//6
f  1//7 7//7 4//7
f  4//8 7//8 1//8
f  4//6 5//6 2//6
f  2//5 5//5 4//5
f  3//3 5//3 6//3
f  6//4 5//4 3//4
f  1//5 6//5 8//5
f  8//6 6//6 1//6
f  7//7 1//7 8//7
f  8//8 1//8 7//8
f  5//6 4//6 7//6
f  7//5 4//5 5//5
f  7//2 6//2 5//2
f  5//1 6//1 7//1
f  6//2 7//2 8//2
f  8//1 7//1 6//1

# Mesh 'mesh2_mesh2-geometry' with 12 faces
g mesh2_mesh2-geometry
usemtl material_1_0
l  1 4
l  1 3
l  8 1
l  2 4
l  4 7
l  3 2
l  3 6
l  8 6
l  8 7
l  2 5
l  7 5
l  6 5

# Mesh 'mesh3_mesh3-geometry' with 56 faces
g mesh3_mesh3-geometry
usemtl material_0_24
f  9//9 10//9 11//9
f  10//9 9//9 12//9
f  11//10 10//10 9//10
f  12//10 9//10 10//10
f  13//5 11//5 10//5
f  10//6 11//6 13//6
f  11//9 14//9 9//9
f  9//10 14//10 11//10
f  9//6 15//6 12//6
f  12//5 15//5 9//5
f  12//11 16//12 10//11
f  10//13 16//14 12//13
f  11//5 13//5 17//5
f  17//6 13//6 11//6
f  13//5 10//5 18//5
f  18//6 10//6 13//6
f  14//9 11//9 17//9
f  17//10 11//10 14//10
f  15//6 9//6 14//6
f  14//5 9//5 15//5
f  12//6 15//6 19//6
f  19//5 15//5 12//5
f  16//12 12//11 20//12
f  20//14 12//13 16//14
f  21//5 10//5 16//5
f  16//6 10//6 21//6
f  13//2 14//2 17//2
f  17//1 14//1 13//1
f  18//5 10//5 22//5
f  22//6 10//6 18//6
f  19//15 13//16 18//15
f  18//17 13//18 19//17
f  14//2 13//2 15//2
f  15//1 13//1 14//1
f  13//16 19//15 15//16
f  15//18 19//17 13//18
f  12//6 19//6 23//6
f  23//5 19//5 12//5
f  12//6 24//6 20//6
f  20//5 24//5 12//5
f  20//12 21//19 16//12
f  16//14 21//20 20//14
f  22//5 10//5 21//5
f  21//6 10//6 22//6
f  22//21 19//15 18//15
f  18//17 19//17 22//22
f  19//15 22//21 23//21
f  23//22 22//22 19//17
f  12//6 23//6 24//6
f  24//5 23//5 12//5
f  21//19 20//12 24//19
f  24//20 20//14 21//20
f  24//19 22//21 21//19
f  21//20 22//22 24//20
f  22//21 24//19 23//21
f  23//22 24//20 22//22

# Mesh 'mesh4_mesh4-geometry' with 20 faces
g mesh4_mesh4-geometry
usemtl material_1_0
l  16 10
l  16 21
l  10 11
l  10 12
l  21 22
l  11 9
l  11 17
l  12 9
l  20 12
l  22 18
l  9 14
l  17 14
l  17 13
l  20 24
l  13 18
l  15 14
l  13 15
l  24 23
l  19 15
l  23 19

# Mesh 'mesh1_mesh1-geometry' with 24 faces
g mesh1_mesh1-geometry
usemtl material_0_24
f  25//1 26//1 27//1
f  26//1 25//1 28//1
f  27//2 26//2 25//2
f  28//2 25//2 26//2
f  29//3 27//3 26//3
f  26//4 27//4 29//4
f  30//5 25//5 27//5
f  27//6 25//6 30//6
f  25//7 31//7 28//7
f  28//8 31//8 25//8
f  28//6 29//6 26//6
f  26//5 29//5 28//5
f  27//3 29//3 30//3
f  30//4 29//4 27//4
f  25//5 30//5 32//5
f  32//6 30//6 25//6
f  31//7 25//7 32//7
f  32//8 25//8 31//8
f  29//6 28//6 31//6
f  31//5 28//5 29//5
f  31//2 30//2 29//2
f  29//1 30//1 31//1
f  30//2 31//2 32//2
f  32//1 31//1 30//1

# Mesh 'mesh2_mesh2-geometry' with 12 faces
g mesh2_mesh2-geometry
usemtl material_1_0
l  25 28
l  25 27
l  32 25
l  26 28
l  28 31
l  27 26
l  27 30
l  32 30
l  32 31
l  26 29
l  31 29
l  30 29

# Mesh 'mesh1_mesh1-geometry' with 24 faces
g mesh1_mesh1-geometry
usemtl material_0_24
f  33//1 34//1 35//1
f  34//1 33//1 36//1
f  35//2 34//2 33//2
f  36//2 33//2 34//2
f  37//3 35//3 34//3
f  34//4 35//4 37//4
f  38//5 33//5 35//5
f  35//6 33//6 38//6
f  33//7 39//7 36//7
f  36//8 39//8 33//8
f  36//6 37//6 34//6
f  34//5 37//5 36//5
f  35//3 37//3 38//3
f  38//4 37//4 35//4
f  33//5 38//5 40//5
f  40//6 38//6 33//6
f  39//7 33//7 40//7
f  40//8 33//8 39//8
f  37//6 36//6 39//6
f  39//5 36//5 37//5
f  39//2 38//2 37//2
f  37//1 38//1 39//1
f  38//2 39//2 40//2
f  40//1 39//1 38//1

# Mesh 'mesh2_mesh2-geometry' with 12 faces
g mesh2_mesh2-geometry
usemtl material_1_0
l  33 36
l  33 35
l  40 33
l  34 36
l  36 39
l  35 34
l  35 38
l  40 38
l  40 39
l  34 37
l  39 37
l  38 37

# Mesh 'mesh1_mesh1-geometry' with 24 faces
g mesh1_mesh1-geometry
usemtl material_0_24
f  41//1 42//1 43//1
f  42//1 41//1 44//1
f  43//2 42//2 41//2
f  44//2 41//2 42//2
f  45//3 43//3 42//3
f  42//4 43//4 45//4
f  46//5 41//5 43//5
f  43//6 41//6 46//6
f  41//7 47//7 44//7
f  44//8 47//8 41//8
f  44//6 45//6 42//6
f  42//5 45//5 44//5
f  43//3 45//3 46//3
f  46//4 45//4 43//4
f  41//5 46//5 48//5
f  48//6 46//6 41//6
f  47//7 41//7 48//7
f  48//8 41//8 47//8
f  45//6 44//6 47//6
f  47//5 44//5 45//5
f  47//2 46//2 45//2
f  45//1 46//1 47//1
f  46//2 47//2 48//2
f  48//1 47//1 46//1

# Mesh 'mesh2_mesh2-geometry' with 12 faces
g mesh2_mesh2-geometry
usemtl material_1_0
l  41 44
l  41 43
l  48 41
l  42 44
l  44 47
l  43 42
l  43 46
l  48 46
l  48 47
l  42 45
l  47 45
l  46 45

# Mesh 'mesh1_mesh1-geometry' with 24 faces
g mesh1_mesh1-geometry
usemtl material_0_24
f  49//1 50//1 51//1
f  50//1 49//1 52//1
f  51//2 50//2 49//2
f  52//2 49//2 50//2
f  53//3 51//3 50//3
f  50//4 51//4 53//4
f  54//5 49//5 51//5
f  51//6 49//6 54//6
f  49//7 55//7 52//7
f  52//8 55//8 49//8
f  52//6 53//6 50//6
f  50//5 53//5 52//5
f  51//3 53//3 54//3
f  54//4 53//4 51//4
f  49//5 54//5 56//5
f  56//6 54//6 49//6
f  55//7 49//7 56//7
f  56//8 49//8 55//8
f  53//6 52//6 55//6
f  55//5 52//5 53//5
f  55//2 54//2 53//2
f  53//1 54//1 55//1
f  54//2 55//2 56//2
f  56//1 55//1 54//1

# Mesh 'mesh2_mesh2-geometry' with 12 faces
g mesh2_mesh2-geometry
usemtl material_1_0
l  49 52
l  49 51
l  56 49
l  50 52
l  52 55
l  51 50
l  51 54
l  56 54
l  56 55
l  50 53
l  55 53
l  54 53

# Mesh 'mesh1_mesh1-geometry' with 24 faces
g mesh1_mesh1-geometry
usemtl material_0_24
f  57//1 58//1 59//1
f  58//1 57//1 60//1
f  59//2 58//2 57//2
f  60//2 57//2 58//2
f  61//3 59//3 58//3
f  58//4 59//4 61//4
f  62//5 57//5 59//5
f  59//6 57//6 62//6
f  57//7 63//7 60//7
f  60//8 63//8 57//8
f  60//6 61//6 58//6
f  58//5 61//5 60//5
f  59//3 61//3 62//3
f  62//4 61//4 59//4
f  57//5 62//5 64//5
f  64//6 62//6 57//6
f  63//7 57//7 64//7
f  64//8 57//8 63//8
f  61//6 60//6 63//6
f  63//5 60//5 61//5
f  63//2 62//2 61//2
f  61//1 62//1 63//1
f  62//2 63//2 64//2
f  64//1 63//1 62//1

# Mesh 'mesh2_mesh2-geometry' with 12 faces
g mesh2_mesh2-geometry
usemtl material_1_0
l  57 60
l  57 59
l  64 57
l  58 60
l  60 63
l  59 58
l  59 62
l  64 62
l  64 63
l  58 61
l  63 61
l  62 61

# Mesh 'mesh1_mesh1-geometry' with 24 faces
g mesh1_mesh1-geometry
usemtl material_0_24
f  65//1 66//1 67//1
f  66//1 65//1 68//1
f  67//2 66//2 65//2
f  68//2 65//2 66//2
f  69//3 67//3 66//3
f  66//4 67//4 69//4
f  70//5 65//5 67//5
f  67//6 65//6 70//6
f  65//7 71//7 68//7
f  68//8 71//8 65//8
f  68//6 69//6 66//6
f  66//5 69//5 68//5
f  67//3 69//3 70//3
f  70//4 69//4 67//4
f  65//5 70//5 72//5
f  72//6 70//6 65//6
f  71//7 65//7 72//7
f  72//8 65//8 71//8
f  69//6 68//6 71//6
f  71//5 68//5 69//5
f  71//2 70//2 69//2
f  69//1 70//1 71//1
f  70//2 71//2 72//2
f  72//1 71//1 70//1

# Mesh 'mesh2_mesh2-geometry' with 12 faces
g mesh2_mesh2-geometry
usemtl material_1_0
l  65 68
l  65 67
l  72 65
l  66 68
l  68 71
l  67 66
l  67 70
l  72 70
l  72 71
l  66 69
l  71 69
l  70 69

# Mesh 'mesh1_mesh1-geometry' with 24 faces
g mesh1_mesh1-geometry
usemtl material_0_24
f  73//1 74//1 75//1
f  74//1 73//1 76//1
f  75//2 74//2 73//2
f  76//2 73//2 74//2
f  77//3 75//3 74//3
f  74//4 75//4 77//4
f  78//5 73//5 75//5
f  75//6 73//6 78//6
f  73//7 79//7 76//7
f  76//8 79//8 73//8
f  76//6 77//6 74//6
f  74//5 77//5 76//5
f  75//3 77//3 78//3
f  78//4 77//4 75//4
f  73//5 78//5 80//5
f  80//6 78//6 73//6
f  79//7 73//7 80//7
f  80//8 73//8 79//8
f  77//6 76//6 79//6
f  79//5 76//5 77//5
f  79//2 78//2 77//2
f  77//1 78//1 79//1
f  78//2 79//2 80//2
f  80//1 79//1 78//1

# Mesh 'mesh2_mesh2-geometry' with 12 faces
g mesh2_mesh2-geometry
usemtl material_1_0
l  73 76
l  73 75
l  80 73
l  74 76
l  76 79
l  75 74
l  75 78
l  80 78
l  80 79
l  74 77
l  79 77
l  78 77

# Mesh 'mesh5_mesh5-geometry' with 56 faces
g mesh5_mesh5-geometry
usemtl material_0_24
f  81//23 82//23 83//23
f  83//24 82//24 81//24
f  82//5 81//5 84//5
f  84//6 81//6 82//6
f  85//23 83//23 82//23
f  82//24 83//24 85//24
f  83//23 86//23 81//23
f  81//24 86//24 83//24
f  87//5 84//5 81//5
f  81//6 84//6 87//6
f  88//5 82//5 84//5
f  84//6 82//6 88//6
f  85//6 89//6 83//6
f  83//5 89//5 85//5
f  82//25 90//26 85//25
f  85//27 90//28 82//27
f  86//6 83//6 89//6
f  89//5 83//5 86//5
f  87//23 81//23 86//23
f  86//24 81//24 87//24
f  87//2 86//2 84//2
f  84//1 86//1 87//1
f  91//5 82//5 88//5
f  88//6 82//6 91//6
f  88//29 84//30 92//29
f  92//31 84//32 88//31
f  92//6 89//6 85//6
f  85//5 89//5 92//5
f  90//5 82//5 93//5
f  93//6 82//6 90//6
f  94//26 85//25 90//26
f  90//28 85//27 94//28
f  89//2 84//2 86//2
f  86//1 84//1 89//1
f  93//5 82//5 91//5
f  91//6 82//6 93//6
f  88//29 92//29 91//33
f  91//34 92//31 88//31
f  89//30 92//29 84//30
f  84//32 92//31 89//32
f  95//6 92//6 85//6
f  85//5 92//5 95//5
f  90//26 93//35 94//26
f  94//28 93//36 90//28
f  94//6 96//6 85//6
f  85//5 96//5 94//5
f  93//35 91//33 96//35
f  96//36 91//34 93//36
f  95//33 91//33 92//29
f  92//31 91//34 95//34
f  96//6 95//6 85//6
f  85//5 95//5 96//5
f  96//35 94//26 93//35
f  93//36 94//28 96//36
f  95//33 96//35 91//33
f  91//34 96//36 95//34

# Mesh 'mesh6_mesh6-geometry' with 20 faces
g mesh6_mesh6-geometry
usemtl material_1_0
l  90 82
l  90 93
l  82 81
l  82 85
l  93 91
l  81 83
l  81 87
l  85 83
l  94 85
l  91 88
l  83 86
l  87 86
l  87 84
l  94 96
l  84 88
l  89 86
l  84 89
l  96 95
l  92 89
l  95 92

# Mesh 'mesh7_mesh7-geometry' with 76 faces
g mesh7_mesh7-geometry
usemtl material_2_24
f  97//6 98//6 99//6
f  98//6 97//6 100//6
f  99//5 98//5 97//5
f  100//5 97//5 98//5
f  98//37 101//37 99//37
f  99//38 101//38 98//38
f  99//37 102//37 97//37
f  97//38 102//38 99//38
f  100//6 97//6 103//6
f  103//5 97//5 100//5
f  100//37 104//37 98//37
f  98//38 104//38 100//38
f  101//37 98//37 104//37
f  104//38 98//38 101//38
f  105//37 99//37 101//37
f  101//38 99//38 105//38
f  102//37 99//37 105//37
f  105//38 99//38 102//38
f  102//39 103//39 97//39
f  97//40 103//40 102//40
f  100//6 103//6 106//6
f  106//5 103//5 100//5
f  107//37 104//37 100//37
f  100//38 104//38 107//38
f  104//37 108//37 101//37
f  101//38 108//38 104//38
f  109//6 101//6 104//6
f  104//5 101//5 109//5
f  105//37 101//37 108//37
f  108//38 101//38 105//38
f  105//5 110//5 102//5
f  102//6 110//6 105//6
f  103//39 102//39 110//39
f  110//40 102//40 103//40
f  106//37 110//37 103//37
f  103//38 110//38 106//38
f  111//40 100//40 106//40
f  106//39 100//39 111//39
f  112//37 104//37 107//37
f  107//38 104//38 112//38
f  100//40 111//40 107//40
f  107//39 111//39 100//39
f  108//37 104//37 113//37
f  113//38 104//38 108//38
f  101//39 114//39 108//39
f  108//40 114//40 101//40
f  101//6 109//6 115//6
f  115//5 109//5 101//5
f  113//40 109//40 104//40
f  104//39 109//39 113//39
f  113//37 105//37 108//37
f  108//38 105//38 113//38
f  110//5 105//5 107//5
f  107//6 105//6 110//6
f  110//37 106//37 111//37
f  111//38 106//38 110//38
f  104//37 112//37 113//37
f  113//38 112//38 104//38
f  107//5 105//5 112//5
f  112//6 105//6 107//6
f  110//5 107//5 111//5
f  111//6 107//6 110//6
f  108//5 116//5 113//5
f  113//6 116//6 108//6
f  114//39 101//39 115//39
f  115//40 101//40 114//40
f  116//5 108//5 114//5
f  114//6 108//6 116//6
f  109//41 114//41 115//41
f  115//42 114//42 109//42
f  109//40 113//40 116//40
f  116//39 113//39 109//39
f  105//37 113//37 112//37
f  112//38 113//38 105//38
f  114//41 109//41 116//41
f  116//42 109//42 114//42

# Mesh 'mesh8_mesh8-geometry' with 12 faces
g mesh8_mesh8-geometry
usemtl material_1_0
l  116 109
l  113 116
l  114 116
l  104 109
l  109 115
l  108 113
l  113 104
l  114 115
l  114 108
l  104 101
l  115 101
l  101 108

# Mesh 'mesh9_mesh9-geometry' with 16 faces
g mesh9_mesh9-geometry
usemtl material_1_0
l  99 97
l  98 99
l  102 97
l  97 103
l  98 100
l  105 102
l  102 110
l  110 103
l  103 106
l  100 107
l  100 106
l  105 112
l  111 110
l  106 111
l  107 112
l  107 111

# Mesh 'mesh7_mesh7-geometry' with 76 faces
g mesh7_mesh7-geometry
usemtl material_2_24
f  117//6 118//6 119//6
f  118//6 117//6 120//6
f  119//5 118//5 117//5
f  120//5 117//5 118//5
f  118//37 121//37 119//37
f  119//38 121//38 118//38
f  119//37 122//37 117//37
f  117//38 122//38 119//38
f  120//6 117//6 123//6
f  123//5 117//5 120//5
f  120//37 124//37 118//37
f  118//38 124//38 120//38
f  121//37 118//37 124//37
f  124//38 118//38 121//38
f  125//37 119//37 121//37
f  121//38 119//38 125//38
f  122//37 119//37 125//37
f  125//38 119//38 122//38
f  122//39 123//39 117//39
f  117//40 123//40 122//40
f  120//6 123//6 126//6
f  126//5 123//5 120//5
f  127//37 124//37 120//37
f  120//38 124//38 127//38
f  124//37 128//37 121//37
f  121//38 128//38 124//38
f  129//6 121//6 124//6
f  124//5 121//5 129//5
f  125//37 121//37 128//37
f  128//38 121//38 125//38
f  125//5 130//5 122//5
f  122//6 130//6 125//6
f  123//39 122//39 130//39
f  130//40 122//40 123//40
f  126//37 130//37 123//37
f  123//38 130//38 126//38
f  131//40 120//40 126//40
f  126//39 120//39 131//39
f  132//37 124//37 127//37
f  127//38 124//38 132//38
f  120//40 131//40 127//40
f  127//39 131//39 120//39
f  128//37 124//37 133//37
f  133//38 124//38 128//38
f  121//39 134//39 128//39
f  128//40 134//40 121//40
f  121//6 129//6 135//6
f  135//5 129//5 121//5
f  133//40 129//40 124//40
f  124//39 129//39 133//39
f  133//37 125//37 128//37
f  128//38 125//38 133//38
f  130//5 125//5 127//5
f  127//6 125//6 130//6
f  130//37 126//37 131//37
f  131//38 126//38 130//38
f  124//37 132//37 133//37
f  133//38 132//38 124//38
f  127//5 125//5 132//5
f  132//6 125//6 127//6
f  130//5 127//5 131//5
f  131//6 127//6 130//6
f  128//5 136//5 133//5
f  133//6 136//6 128//6
f  134//39 121//39 135//39
f  135//40 121//40 134//40
f  136//5 128//5 134//5
f  134//6 128//6 136//6
f  129//41 134//41 135//41
f  135//42 134//42 129//42
f  129//40 133//40 136//40
f  136//39 133//39 129//39
f  125//37 133//37 132//37
f  132//38 133//38 125//38
f  134//41 129//41 136//41
f  136//42 129//42 134//42

# Mesh 'mesh8_mesh8-geometry' with 12 faces
g mesh8_mesh8-geometry
usemtl material_1_0
l  136 129
l  133 136
l  134 136
l  124 129
l  129 135
l  128 133
l  133 124
l  134 135
l  134 128
l  124 121
l  135 121
l  121 128

# Mesh 'mesh9_mesh9-geometry' with 16 faces
g mesh9_mesh9-geometry
usemtl material_1_0
l  119 117
l  118 119
l  122 117
l  117 123
l  118 120
l  125 122
l  122 130
l  130 123
l  123 126
l  120 127
l  120 126
l  125 132
l  131 130
l  126 131
l  127 132
l  127 131

