# File produced by Open Asset Import Library (http://www.assimp.sf.net)
# (assimp v3.2.202087883)

mtllib model_normalized.mtl

# 96 vertex positions
v -0.425804 0.038048 -0.221848
v -0.425804 -0.241050 0.221847
v -0.425804 0.038048 0.221847
v -0.425804 -0.241050 -0.221848
v -0.300568 0.038048 0.221847
v -0.300568 -0.241050 -0.221848
v -0.300568 -0.241050 0.221847
v -0.300568 0.038048 -0.221848
v 0.425805 0.038048 0.221847
v 0.300568 0.038048 -0.221848
v 0.300568 0.038048 0.221847
v 0.425805 0.038048 -0.221848
v 0.300568 -0.241050 0.221847
v 0.425805 -0.241050 -0.221848
v 0.300568 -0.241050 -0.221848
v 0.425805 -0.241050 0.221847
v 0.293412 -0.012047 0.171753
v -0.293412 -0.012047 0.221847
v -0.293412 -0.012047 0.171753
v 0.293412 -0.012047 0.221847
v -0.293412 0.038048 0.171753
v 0.293412 0.038048 0.221847
v -0.293412 0.038048 0.221847
v 0.293412 0.038048 0.171753
v -0.293412 0.038048 -0.221848
v -0.293412 -0.012047 -0.171753
v -0.293412 0.038048 -0.171753
v -0.293412 -0.012047 -0.221848
v 0.293412 0.038048 -0.171753
v 0.293412 -0.012047 -0.221848
v 0.293412 -0.012047 -0.171753
v 0.293412 0.038048 -0.221848
v 0.293412 0.016579 0.115524
v -0.293412 0.016579 0.165619
v -0.293412 0.016579 0.115524
v 0.293412 0.016579 0.165619
v -0.293412 0.017295 0.115524
v 0.293412 0.017295 0.165619
v -0.293412 0.017295 0.165619
v 0.293412 0.017295 0.115524
v -0.293412 0.038048 0.115524
v 0.293412 0.038048 0.165619
v -0.293412 0.038048 0.165619
v 0.293412 0.038048 0.115524
v -0.293412 -0.004175 0.165619
v 0.293412 -0.004175 0.115524
v -0.293412 -0.004175 0.115524
v 0.293412 -0.004175 0.165619
v -0.293412 0.038048 0.059296
v -0.293412 0.016579 0.109390
v -0.293412 0.038048 0.109390
v -0.293412 0.016579 0.059296
v 0.293412 0.038048 0.109390
v 0.293412 0.016579 0.059296
v 0.293412 0.016579 0.109390
v 0.293412 0.038048 0.059296
v 0.293412 0.038048 0.053161
v -0.293412 0.038048 0.003067
v -0.293412 0.038048 0.053161
v 0.293412 0.038048 0.003067
v -0.293412 0.016579 0.053161
v 0.293412 0.016579 0.003067
v -0.293412 0.016579 0.003067
v 0.293412 0.016579 0.053161
v 0.293412 0.038048 -0.003067
v -0.293412 0.016579 -0.003067
v 0.293412 0.016579 -0.003067
v -0.293412 0.038048 -0.003067
v 0.293412 0.016579 -0.053162
v -0.293412 0.038048 -0.053162
v -0.293412 0.016579 -0.053162
v 0.293412 0.038048 -0.053162
v -0.293412 0.038048 -0.109390
v -0.293412 0.016579 -0.059295
v -0.293412 0.038048 -0.059295
v -0.293412 0.016579 -0.109390
v 0.293412 0.038048 -0.059295
v 0.293412 0.016579 -0.109390
v 0.293412 0.016579 -0.059295
v 0.293412 0.038048 -0.109390
v -0.293412 0.038048 -0.165618
v 0.293412 0.017295 -0.165618
v -0.293412 0.017295 -0.165618
v 0.293412 0.038048 -0.165618
v 0.293412 0.016579 -0.165618
v -0.293412 0.017295 -0.115524
v 0.293412 0.038048 -0.115524
v 0.293412 0.017295 -0.115524
v -0.293412 0.016579 -0.165618
v -0.293412 0.038048 -0.115524
v -0.293412 0.016579 -0.115524
v 0.293412 0.016579 -0.115524
v 0.293412 -0.004175 -0.165618
v -0.293412 -0.004175 -0.115524
v -0.293412 -0.004175 -0.165618
v 0.293412 -0.004175 -0.115524

# 227 UV coordinates
vt -1.55 1.21488 0
vt 0 0 0
vt 0 1.21488 0
vt -1.55 0 0
vt 0.437497 1.21488 0
vt 0.437497 0 0
vt 0 1.93134 0
vt -0.437497 0 0
vt -0.437497 1.93134 0
vt 0.437497 1.93134 0
vt -0.437497 1.21488 0
vt 1.55 0 0
vt 1.55 1.21488 0
vt 2.975 0 0
vt 2.53749 1.93134 0
vt 2.53749 0 0
vt 2.975 1.93134 0
vt 2.975 1.21488 0
vt 2.53749 1.21488 0
vt -2.975 0 0
vt -2.53749 1.21488 0
vt -2.975 1.21488 0
vt -2.53749 0 0
vt -2.975 1.93134 0
vt -2.53749 1.93134 0
vt -1.67499 0.2071 0
vt -0.308332 0 0
vt -0.308332 0.2071 0
vt -1.67499 0 0
vt 0 0.946744 0
vt -0.116666 1.15384 0
vt -0.116666 0.946744 0
vt -0.308332 1.15384 0
vt -1.67499 0.946744 0
vt -0.308332 0.946744 0
vt 0.116666 0.946744 0
vt 0 1.15384 0
vt 1.67499 1.15384 0
vt 0.308332 0.946744 0
vt 1.67499 0.946744 0
vt -1.67499 1.15384 0
vt 0.116666 1.15384 0
vt 0.308332 1.15384 0
vt 1.67499 0 0
vt 0.308332 0.2071 0
vt 0.308332 0 0
vt 1.67499 0.2071 0
vt -1.03333 1.15384 0
vt -0.916665 0.946744 0
vt -0.916665 1.15384 0
vt -1.03333 0.946744 0
vt 1.67499 1.62722 0
vt 0.308332 1.83432 0
vt 0.308332 1.62722 0
vt -1.67499 1.83432 0
vt -0.308332 1.62722 0
vt -0.308332 1.83432 0
vt 1.67499 1.83432 0
vt -1.67499 1.62722 0
vt 1.03333 0.946744 0
vt 0.916665 1.15384 0
vt 0.916665 0.946744 0
vt 1.03333 1.15384 0
vt -1.67499 0.43956 0
vt -0.308332 0.232459 0
vt -0.308332 0.43956 0
vt -1.67499 0.232459 0
vt -0.130952 1.06509 0
vt -0.247619 1.06805 0
vt -0.247619 1.06509 0
vt -0.308332 1.06805 0
vt -1.67499 1.06509 0
vt -0.308332 1.06509 0
vt 0.247619 1.06509 0
vt 0.130952 1.06805 0
vt 0.130952 1.06509 0
vt 1.67499 1.06805 0
vt 0.308332 1.06509 0
vt 1.67499 1.06509 0
vt -0.130952 1.06805 0
vt -1.67499 1.06805 0
vt 0.247619 1.06805 0
vt 0.308332 1.06805 0
vt -0.247619 1.15384 0
vt 0.130952 1.15384 0
vt -0.130952 1.15384 0
vt 0.247619 1.15384 0
vt 1.67499 0.232459 0
vt 0.308332 0.43956 0
vt 0.308332 0.232459 0
vt 1.67499 0.43956 0
vt -0.185714 0.460629 0
vt -0.098214 0.423523 0
vt -0.098214 0.460629 0
vt -0.185714 0.461909 0
vt -1.25625 0.423523 0
vt -0.231249 0.460629 0
vt -1.25625 0.460629 0
vt -0.231249 0.461909 0
vt 0.098214 0.460629 0
vt 0.185714 0.423523 0
vt 0.185714 0.460629 0
vt 0.098214 0.461909 0
vt 0.231249 0.423523 0
vt 1.25625 0.460629 0
vt 0.231249 0.460629 0
vt 1.25625 0.461909 0
vt -0.185714 0.423523 0
vt -0.098214 0.461909 0
vt -0.231249 0.423523 0
vt -1.25625 0.461909 0
vt 0.098214 0.423523 0
vt 0.185714 0.461909 0
vt 1.25625 0.423523 0
vt 0.231249 0.461909 0
vt -1.25625 0.190101 0
vt -0.231249 0.100534 0
vt -0.231249 0.190101 0
vt 1.25625 0.100534 0
vt 0.231249 0.190101 0
vt 0.231249 0.100534 0
vt 1.25625 0.190101 0
vt -1.25625 0.100534 0
vt -0.378571 1.15384 0
vt -0.261904 1.06509 0
vt -0.261904 1.15384 0
vt -0.378571 1.06509 0
vt 1.67499 0.464919 0
vt 0.308332 0.672019 0
vt 0.308332 0.464919 0
vt -1.67499 0.672019 0
vt -0.308332 0.464919 0
vt -0.308332 0.672019 0
vt 1.67499 0.672019 0
vt -1.67499 0.464919 0
vt 0.378571 1.06509 0
vt 0.261904 1.15384 0
vt 0.261904 1.06509 0
vt 0.378571 1.15384 0
vt 1.67499 0.697378 0
vt 0.308332 0.904478 0
vt 0.308332 0.697378 0
vt 1.67499 0.904478 0
vt -0.509523 1.15384 0
vt -0.392856 1.06509 0
vt -0.392856 1.15384 0
vt 0.392856 1.15384 0
vt 0.509523 1.06509 0
vt 0.509523 1.15384 0
vt -0.509523 1.06509 0
vt 0.392856 1.06509 0
vt -1.67499 0.904478 0
vt -0.308332 0.697378 0
vt -0.308332 0.904478 0
vt -1.67499 0.697378 0
vt -0.308332 0.929838 0
vt -1.67499 1.13694 0
vt -1.67499 0.929838 0
vt 0.640475 1.06509 0
vt 0.523808 1.15384 0
vt 0.523808 1.06509 0
vt 1.67499 0.929838 0
vt 0.308332 1.13694 0
vt 0.308332 0.929838 0
vt -0.640475 1.15384 0
vt -0.523808 1.06509 0
vt -0.523808 1.15384 0
vt -0.308332 1.13694 0
vt 0.640475 1.15384 0
vt 1.67499 1.13694 0
vt -0.640475 1.06509 0
vt -0.771427 1.15384 0
vt -0.654761 1.06509 0
vt -0.654761 1.15384 0
vt -0.771427 1.06509 0
vt 1.67499 1.1623 0
vt 0.308332 1.3694 0
vt 0.308332 1.1623 0
vt -1.67499 1.3694 0
vt -0.308332 1.1623 0
vt -0.308332 1.3694 0
vt 1.67499 1.3694 0
vt -1.67499 1.1623 0
vt 0.771427 1.06509 0
vt 0.654761 1.15384 0
vt 0.654761 1.06509 0
vt 0.771427 1.15384 0
vt -0.785713 1.06805 0
vt -0.902379 1.15384 0
vt -0.902379 1.06805 0
vt 0.308332 1.60186 0
vt 1.67499 1.39476 0
vt 1.67499 1.60186 0
vt 0.785713 1.15384 0
vt 0.902379 1.06805 0
vt 0.902379 1.15384 0
vt 0.785713 1.06805 0
vt 0.902379 1.06509 0
vt -0.785713 1.15384 0
vt -0.785713 1.06509 0
vt 0.308332 1.39476 0
vt 0.785713 1.06509 0
vt -1.67499 1.60186 0
vt -0.308332 1.39476 0
vt -0.308332 1.60186 0
vt -0.902379 1.06509 0
vt -1.67499 1.39476 0
vt 0.231249 0.692771 0
vt 1.25625 0.603205 0
vt 1.25625 0.692771 0
vt 0.231249 0.603205 0
vt 0.589285 0.461909 0
vt 0.676784 0.460629 0
vt 0.676784 0.461909 0
vt -0.676784 0.461909 0
vt -0.589285 0.460629 0
vt -0.589285 0.461909 0
vt 0.589285 0.460629 0
vt -0.676784 0.460629 0
vt 0.676784 0.423523 0
vt -0.589285 0.423523 0
vt 0.589285 0.423523 0
vt -0.676784 0.423523 0
vt -1.25625 0.692771 0
vt -0.231249 0.603205 0
vt -0.231249 0.692771 0
vt -1.25625 0.603205 0

# 6 vertex normals
vn -0.001 0 0
vn 0 0 0.001
vn 0 0.001 0
vn 0 0 -0.001
vn 0 -0.001 0
vn 0.001 0 0

# Mesh 'mesh1_mesh1-geometry' with 12 faces
g mesh1_mesh1-geometry
usemtl material_0_1_8
f  1/1/1 2/2/1 3/3/1
f  2/2/1 1/1/1 4/4/1
f  2/2/2 5/5/2 3/3/2
f  5/6/3 1/7/3 3/2/3
f  1/3/4 6/8/4 4/2/4
f  6/9/5 2/2/5 4/7/5
f  5/5/2 2/2/2 7/6/2
f  1/7/3 5/6/3 8/10/3
f  6/8/4 1/3/4 8/11/4
f  2/2/5 6/9/5 7/8/5
f  6/12/6 5/3/6 7/2/6
f  5/3/6 6/12/6 8/13/6

# Mesh 'mesh1_mesh1-geometry' with 12 faces
g mesh1_mesh1-geometry
usemtl material_1_24
f  3//6 2//6 1//6
f  4//6 1//6 2//6
f  3//4 5//4 2//4
f  3//5 1//5 5//5
f  4//2 6//2 1//2
f  4//3 2//3 6//3
f  7//4 2//4 5//4
f  8//5 5//5 1//5
f  8//2 1//2 6//2
f  7//3 6//3 2//3
f  7//1 5//1 6//1
f  8//1 6//1 5//1

# Mesh 'mesh2_mesh2-geometry' with 12 faces
g mesh2_mesh2-geometry
usemtl material_0_1_8
f  9/14/3 10/15/3 11/16/3
f  10/15/3 9/14/3 12/17/3
f  10/1/1 13/2/1 11/3/1
f  13/16/2 9/18/2 11/19/2
f  9/3/6 14/12/6 12/13/6
f  14/20/4 10/21/4 12/22/4
f  13/2/1 10/1/1 15/4/1
f  9/18/2 13/16/2 16/14/2
f  14/12/6 9/3/6 16/2/6
f  10/21/4 14/20/4 15/23/4
f  14/24/5 13/23/5 15/25/5
f  13/23/5 14/24/5 16/20/5

# Mesh 'mesh2_mesh2-geometry' with 12 faces
g mesh2_mesh2-geometry
usemtl material_1_24
f  11//5 10//5 9//5
f  12//5 9//5 10//5
f  11//6 13//6 10//6
f  11//4 9//4 13//4
f  12//1 14//1 9//1
f  12//2 10//2 14//2
f  15//6 10//6 13//6
f  16//4 13//4 9//4
f  16//1 9//1 14//1
f  15//2 14//2 10//2
f  15//3 13//3 14//3
f  16//3 14//3 13//3

# Mesh 'mesh3_mesh3-geometry' with 12 faces
g mesh3_mesh3-geometry
usemtl material_2_2_8
f  17/26/5 18/27/5 19/28/5
f  18/27/5 17/26/5 20/29/5
f  18/30/1 21/31/1 19/32/1
f  21/33/4 17/34/4 19/35/4
f  17/36/6 22/37/6 20/30/6
f  22/38/2 18/39/2 20/40/2
f  21/31/1 18/30/1 23/37/1
f  17/34/4 21/33/4 24/41/4
f  22/37/6 17/36/6 24/42/6
f  18/39/2 22/38/2 23/43/2
f  22/44/3 21/45/3 23/46/3
f  21/45/3 22/44/3 24/47/3

# Mesh 'mesh3_mesh3-geometry' with 12 faces
g mesh3_mesh3-geometry
usemtl material_1_24
f  19//3 18//3 17//3
f  20//3 17//3 18//3
f  19//6 21//6 18//6
f  19//2 17//2 21//2
f  20//1 22//1 17//1
f  20//4 18//4 22//4
f  23//6 18//6 21//6
f  24//2 21//2 17//2
f  24//1 17//1 22//1
f  23//4 22//4 18//4
f  23//5 21//5 22//5
f  24//5 22//5 21//5

# Mesh 'mesh4_mesh4-geometry' with 12 faces
g mesh4_mesh4-geometry
usemtl material_2_2_8
f  25/48/1 26/49/1 27/50/1
f  26/49/1 25/48/1 28/51/1
f  26/39/2 29/38/2 27/43/2
f  29/52/3 25/53/3 27/54/3
f  25/33/4 30/34/4 28/35/4
f  30/55/5 26/56/5 28/57/5
f  29/38/2 26/39/2 31/40/2
f  25/53/3 29/52/3 32/58/3
f  30/34/4 25/33/4 32/41/4
f  26/56/5 30/55/5 31/59/5
f  30/60/6 29/61/6 31/62/6
f  29/61/6 30/60/6 32/63/6

# Mesh 'mesh4_mesh4-geometry' with 12 faces
g mesh4_mesh4-geometry
usemtl material_1_24
f  27//6 26//6 25//6
f  28//6 25//6 26//6
f  27//4 29//4 26//4
f  27//5 25//5 29//5
f  28//2 30//2 25//2
f  28//3 26//3 30//3
f  31//4 26//4 29//4
f  32//5 29//5 25//5
f  32//2 25//2 30//2
f  31//3 30//3 26//3
f  31//1 29//1 30//1
f  32//1 30//1 29//1

# Mesh 'mesh5_mesh5-geometry' with 20 faces
g mesh5_mesh5-geometry
usemtl material_2_2_8
f  33/64/5 34/65/5 35/66/5
f  34/65/5 33/64/5 36/67/5
f  34/68/1 37/69/1 35/70/1
f  37/71/4 33/72/4 35/73/4
f  33/74/6 38/75/6 36/76/6
f  38/77/2 34/78/2 36/79/2
f  37/69/1 34/68/1 39/80/1
f  33/72/4 37/71/4 40/81/4
f  38/75/6 33/74/6 40/82/6
f  34/78/2 38/77/2 39/83/2
f  39/80/1 41/84/1 37/69/1
f  41/33/4 40/81/4 37/71/4
f  40/82/6 42/85/6 38/75/6
f  42/38/2 39/83/2 38/77/2
f  41/84/1 39/80/1 43/86/1
f  40/81/4 41/33/4 44/41/4
f  42/85/6 40/82/6 44/87/6
f  39/83/2 42/38/2 43/43/2
f  42/88/3 41/89/3 43/90/3
f  41/89/3 42/88/3 44/91/3

# Mesh 'mesh5_mesh5-geometry' with 40 faces
g mesh5_mesh5-geometry
usemtl material_1_24
f  35/2/3 34/2/3 33/2/3
f  36/2/3 33/2/3 34/2/3
f  34/2/6 45/2/6 35/2/6
f  35/2/6 37/2/6 34/2/6
f  35/2/6 37/2/6 34/2/6
f  33/2/2 35/2/2 46/2/2
f  35/2/2 33/2/2 37/2/2
f  35/2/2 33/2/2 37/2/2
f  33/2/1 46/2/1 36/2/1
f  36/2/1 38/2/1 33/2/1
f  36/2/1 38/2/1 33/2/1
f  34/2/4 36/2/4 45/2/4
f  36/2/4 34/2/4 38/2/4
f  36/2/4 34/2/4 38/2/4
f  47/2/6 35/2/6 45/2/6
f  39/2/6 34/2/6 37/2/6
f  39/2/6 34/2/6 37/2/6
f  47/2/2 46/2/2 35/2/2
f  40/2/2 37/2/2 33/2/2
f  40/2/2 37/2/2 33/2/2
f  48/2/1 36/2/1 46/2/1
f  40/2/1 33/2/1 38/2/1
f  40/2/1 33/2/1 38/2/1
f  48/2/4 45/2/4 36/2/4
f  39/2/4 38/2/4 34/2/4
f  39/2/4 38/2/4 34/2/4
f  47/2/3 45/2/3 46/2/3
f  37/2/6 41/2/6 39/2/6
f  39/2/5 37/2/5 38/2/5
f  37/2/2 40/2/2 41/2/2
f  40/2/5 38/2/5 37/2/5
f  48/2/3 46/2/3 45/2/3
f  38/2/1 42/2/1 40/2/1
f  38/2/4 39/2/4 42/2/4
f  43/2/6 39/2/6 41/2/6
f  44/2/2 41/2/2 40/2/2
f  44/2/1 40/2/1 42/2/1
f  43/2/4 42/2/4 39/2/4
f  43/2/5 41/2/5 42/2/5
f  44/2/5 42/2/5 41/2/5

# Mesh 'mesh5_mesh5-geometry' with 20 faces
g mesh5_mesh5-geometry
usemtl material_3_3_8
f  35/92/1 45/93/1 34/94/1
f  34/94/1 37/95/1 35/92/1
f  46/96/4 35/97/4 33/98/4
f  37/99/4 33/98/4 35/97/4
f  36/100/6 46/101/6 33/102/6
f  33/102/6 38/103/6 36/100/6
f  45/104/2 36/105/2 34/106/2
f  38/107/2 34/106/2 36/105/2
f  45/93/1 35/92/1 47/108/1
f  37/95/1 34/94/1 39/109/1
f  35/97/4 46/96/4 47/110/4
f  33/98/4 37/99/4 40/111/4
f  46/101/6 36/100/6 48/112/6
f  38/103/6 33/102/6 40/113/6
f  36/105/2 45/104/2 48/114/2
f  34/106/2 38/107/2 39/115/2
f  46/116/5 45/117/5 47/118/5
f  38/119/3 37/120/3 39/121/3
f  37/120/3 38/119/3 40/122/3
f  45/117/5 46/116/5 48/123/5

# Mesh 'mesh6_mesh6-geometry' with 12 faces
g mesh6_mesh6-geometry
usemtl material_2_2_8
f  49/124/1 50/125/1 51/126/1
f  50/125/1 49/124/1 52/127/1
f  50/78/2 53/38/2 51/43/2
f  53/128/3 49/129/3 51/130/3
f  49/33/4 54/72/4 52/73/4
f  54/131/5 50/132/5 52/133/5
f  53/38/2 50/78/2 55/79/2
f  49/129/3 53/128/3 56/134/3
f  54/72/4 49/33/4 56/41/4
f  50/132/5 54/131/5 55/135/5
f  54/136/6 53/137/6 55/138/6
f  53/137/6 54/136/6 56/139/6

# Mesh 'mesh6_mesh6-geometry' with 12 faces
g mesh6_mesh6-geometry
usemtl material_1_24
f  51//6 50//6 49//6
f  52//6 49//6 50//6
f  51//4 53//4 50//4
f  51//5 49//5 53//5
f  52//2 54//2 49//2
f  52//3 50//3 54//3
f  55//4 50//4 53//4
f  56//5 53//5 49//5
f  56//2 49//2 54//2
f  55//3 54//3 50//3
f  55//1 53//1 54//1
f  56//1 54//1 53//1

# Mesh 'mesh7_mesh7-geometry' with 12 faces
g mesh7_mesh7-geometry
usemtl material_2_2_8
f  57/140/3 58/141/3 59/142/3
f  58/141/3 57/140/3 60/143/3
f  58/144/1 61/145/1 59/146/1
f  61/78/2 57/38/2 59/43/2
f  57/147/6 62/148/6 60/149/6
f  62/72/4 58/33/4 60/41/4
f  61/145/1 58/144/1 63/150/1
f  57/38/2 61/78/2 64/79/2
f  62/148/6 57/147/6 64/151/6
f  58/33/4 62/72/4 63/73/4
f  62/152/5 61/153/5 63/154/5
f  61/153/5 62/152/5 64/155/5

# Mesh 'mesh7_mesh7-geometry' with 12 faces
g mesh7_mesh7-geometry
usemtl material_1_24
f  59//5 58//5 57//5
f  60//5 57//5 58//5
f  59//6 61//6 58//6
f  59//4 57//4 61//4
f  60//1 62//1 57//1
f  60//2 58//2 62//2
f  63//6 58//6 61//6
f  64//4 61//4 57//4
f  64//1 57//1 62//1
f  63//2 62//2 58//2
f  63//3 61//3 62//3
f  64//3 62//3 61//3

# Mesh 'mesh8_mesh8-geometry' with 12 faces
g mesh8_mesh8-geometry
usemtl material_2_2_8
f  65/38/2 66/78/2 67/79/2
f  66/78/2 65/38/2 68/43/2
f  66/156/5 69/157/5 67/158/5
f  69/159/6 65/160/6 67/161/6
f  65/162/3 70/163/3 68/164/3
f  70/165/1 66/166/1 68/167/1
f  69/157/5 66/156/5 71/168/5
f  65/160/6 69/159/6 72/169/6
f  70/163/3 65/162/3 72/170/3
f  66/166/1 70/165/1 71/171/1
f  70/33/4 69/72/4 71/73/4
f  69/72/4 70/33/4 72/41/4

# Mesh 'mesh8_mesh8-geometry' with 12 faces
g mesh8_mesh8-geometry
usemtl material_1_24
f  67//4 66//4 65//4
f  68//4 65//4 66//4
f  67//3 69//3 66//3
f  67//1 65//1 69//1
f  68//5 70//5 65//5
f  68//6 66//6 70//6
f  71//3 66//3 69//3
f  72//1 69//1 65//1
f  72//5 65//5 70//5
f  71//6 70//6 66//6
f  71//2 69//2 70//2
f  72//2 70//2 69//2

# Mesh 'mesh9_mesh9-geometry' with 12 faces
g mesh9_mesh9-geometry
usemtl material_2_2_8
f  73/172/1 74/173/1 75/174/1
f  74/173/1 73/172/1 76/175/1
f  74/78/2 77/38/2 75/43/2
f  77/176/3 73/177/3 75/178/3
f  73/33/4 78/72/4 76/73/4
f  78/179/5 74/180/5 76/181/5
f  77/38/2 74/78/2 79/79/2
f  73/177/3 77/176/3 80/182/3
f  78/72/4 73/33/4 80/41/4
f  74/180/5 78/179/5 79/183/5
f  78/184/6 77/185/6 79/186/6
f  77/185/6 78/184/6 80/187/6

# Mesh 'mesh9_mesh9-geometry' with 12 faces
g mesh9_mesh9-geometry
usemtl material_1_24
f  75//6 74//6 73//6
f  76//6 73//6 74//6
f  75//4 77//4 74//4
f  75//5 73//5 77//5
f  76//2 78//2 73//2
f  76//3 74//3 78//3
f  79//4 74//4 77//4
f  80//5 77//5 73//5
f  80//2 73//2 78//2
f  79//3 78//3 74//3
f  79//1 77//1 78//1
f  80//1 78//1 77//1

# Mesh 'mesh10_mesh10-geometry' with 20 faces
g mesh10_mesh10-geometry
usemtl material_2_2_8
f  81/33/4 82/81/4 83/71/4
f  82/81/4 81/33/4 84/41/4
f  85/72/4 83/71/4 82/81/4
f  86/188/1 81/189/1 83/190/1
f  81/191/3 87/192/3 84/193/3
f  87/194/6 82/195/6 84/196/6
f  82/195/6 87/194/6 88/197/6
f  88/197/6 85/198/6 82/195/6
f  83/71/4 85/72/4 89/73/4
f  81/189/1 86/188/1 90/199/1
f  83/190/1 91/200/1 86/188/1
f  87/192/3 81/191/3 90/201/3
f  87/38/2 86/83/2 88/77/2
f  91/78/2 88/77/2 86/83/2
f  85/198/6 88/197/6 92/202/6
f  85/203/5 91/204/5 89/205/5
f  91/200/1 83/190/1 89/206/1
f  86/83/2 87/38/2 90/43/2
f  88/77/2 91/78/2 92/79/2
f  91/204/5 85/203/5 92/207/5

# Mesh 'mesh10_mesh10-geometry' with 40 faces
g mesh10_mesh10-geometry
usemtl material_1_24
f  83/2/2 82/2/2 81/2/2
f  84/2/2 81/2/2 82/2/2
f  82/2/5 88/2/5 83/2/5
f  82/2/2 83/2/2 85/2/2
f  82/2/2 83/2/2 85/2/2
f  83/2/6 81/2/6 86/2/6
f  84/2/5 87/2/5 81/2/5
f  84/2/1 82/2/1 87/2/1
f  86/2/5 83/2/5 88/2/5
f  88/2/1 87/2/1 82/2/1
f  82/2/1 85/2/1 88/2/1
f  82/2/1 85/2/1 88/2/1
f  89/2/2 85/2/2 83/2/2
f  89/2/2 85/2/2 83/2/2
f  90/2/6 86/2/6 81/2/6
f  86/2/6 91/2/6 83/2/6
f  86/2/6 91/2/6 83/2/6
f  90/2/5 81/2/5 87/2/5
f  88/2/4 86/2/4 87/2/4
f  86/2/4 88/2/4 91/2/4
f  86/2/4 88/2/4 91/2/4
f  92/2/1 88/2/1 85/2/1
f  92/2/1 88/2/1 85/2/1
f  89/2/3 91/2/3 85/2/3
f  85/2/2 89/2/2 93/2/2
f  89/2/6 83/2/6 91/2/6
f  89/2/6 83/2/6 91/2/6
f  90/2/4 87/2/4 86/2/4
f  92/2/4 91/2/4 88/2/4
f  92/2/4 91/2/4 88/2/4
f  92/2/3 85/2/3 91/2/3
f  85/2/1 93/2/1 92/2/1
f  91/2/6 94/2/6 89/2/6
f  95/2/2 93/2/2 89/2/2
f  91/2/4 92/2/4 94/2/4
f  96/2/1 92/2/1 93/2/1
f  95/2/6 89/2/6 94/2/6
f  95/2/3 94/2/3 93/2/3
f  96/2/4 94/2/4 92/2/4
f  96/2/3 93/2/3 94/2/3

# Mesh 'mesh10_mesh10-geometry' with 20 faces
g mesh10_mesh10-geometry
usemtl material_3_3_8
f  83/208/3 88/209/3 82/210/3
f  85/98/4 83/99/4 82/111/4
f  88/209/3 83/208/3 86/211/3
f  88/212/6 85/213/6 82/214/6
f  83/99/4 85/98/4 89/97/4
f  83/215/1 91/216/1 86/217/1
f  91/106/2 88/107/2 86/115/2
f  85/213/6 88/212/6 92/218/6
f  93/96/4 89/97/4 85/98/4
f  91/216/1 83/215/1 89/219/1
f  88/107/2 91/106/2 92/105/2
f  92/218/6 93/220/6 85/213/6
f  89/219/1 94/221/1 91/216/1
f  89/97/4 93/96/4 95/110/4
f  94/104/2 92/105/2 91/106/2
f  93/220/6 92/218/6 96/222/6
f  94/221/1 89/219/1 95/223/1
f  93/224/5 94/225/5 95/226/5
f  92/105/2 94/104/2 96/114/2
f  94/225/5 93/224/5 96/227/5

