# File produced by Open Asset Import Library (http://www.assimp.sf.net)
# (assimp v3.2.202087883)

mtllib model_normalized.mtl

# 104 vertex positions
v -0.409412 0.262916 -0.134030
v -0.394851 0.248354 -0.134030
v -0.409412 -0.172040 -0.134030
v 0.406039 0.262916 -0.134030
v -0.394851 -0.157479 -0.134030
v -0.409412 0.262916 0.171764
v 0.391477 0.248354 -0.134030
v 0.406039 -0.172040 -0.134030
v -0.394851 0.160985 -0.134030
v -0.409412 -0.172040 0.171764
v 0.406039 0.262916 0.171764
v 0.391477 0.160985 -0.134030
v 0.391477 0.248354 0.157203
v 0.391477 -0.157479 -0.134030
v 0.406039 -0.172040 0.171764
v -0.394851 0.160985 -0.126749
v -0.394851 0.146423 -0.134030
v 0.391477 0.146423 -0.134030
v -0.394851 0.248354 0.157203
v 0.391477 -0.157479 0.157203
v -0.394851 0.017261 -0.134030
v 0.391477 0.017261 -0.134030
v 0.391477 0.146423 -0.126749
v 0.391477 0.160985 -0.126749
v -0.001687 0.160985 0.157203
v -0.394851 -0.157479 0.157203
v 0.391477 0.002700 0.157203
v 0.391477 0.002700 -0.134030
v -0.394851 0.160985 0.157203
v -0.394851 0.146423 -0.126749
v -0.394851 0.017261 -0.126749
v -0.394851 0.002700 -0.134030
v 0.391477 0.146423 0.157203
v 0.391477 0.160985 0.157203
v -0.089057 0.002700 0.157203
v -0.394851 0.146423 0.157203
v -0.001687 0.160985 -0.126749
v 0.391477 0.002700 -0.126749
v 0.391477 0.017261 -0.126749
v 0.085768 0.146423 -0.126749
v -0.001687 0.146423 0.157203
v 0.085768 0.146423 0.157203
v -0.394851 0.002700 0.157203
v -0.089057 0.002700 -0.126749
v 0.085768 0.017261 0.157203
v -0.001687 0.146423 -0.126749
v -0.394851 0.017261 0.157203
v -0.394851 0.002700 -0.126749
v 0.391477 0.017261 0.157203
v 0.085768 0.017261 -0.126749
v -0.409412 -0.228539 0.171764
v -0.409412 -0.213978 0.157203
v -0.409412 -0.228539 -0.134030
v -0.409412 -0.213978 -0.119468
v -0.394851 -0.228539 0.171764
v -0.409412 -0.172040 0.157203
v -0.394851 -0.213978 -0.119468
v -0.394851 -0.228539 -0.134030
v -0.394851 -0.172040 0.171764
v -0.394851 -0.172040 0.157203
v -0.409412 -0.172040 -0.119468
v -0.394851 -0.172040 -0.134030
v -0.394851 -0.213978 0.157203
v -0.394851 -0.172040 -0.119468
v 0.391477 -0.228539 0.171764
v 0.391477 -0.213978 0.157203
v 0.391477 -0.228539 -0.134030
v 0.391477 -0.172040 0.171764
v 0.391477 -0.213978 -0.119468
v 0.406039 -0.228539 0.171764
v 0.391477 -0.172040 0.157203
v 0.391477 -0.172040 -0.134030
v 0.406039 -0.213978 -0.119468
v 0.406039 -0.228539 -0.134030
v 0.406039 -0.172040 0.157203
v 0.391477 -0.172040 -0.119468
v 0.406039 -0.213978 0.157203
v 0.406039 -0.172040 -0.119468
v -0.089057 -0.157479 -0.134030
v -0.089057 0.002700 -0.134030
v -0.394851 -0.157479 0.044350
v -0.089057 0.002700 0.044350
v -0.089057 -0.157479 0.044350
v -0.394851 0.002700 0.044350
v 0.391477 0.002700 0.044350
v 0.391477 -0.157479 0.044350
v 0.085768 0.017261 -0.134030
v 0.085768 0.146423 -0.134030
v -0.394851 0.017261 0.044350
v -0.001687 0.146423 -0.134030
v 0.085768 0.017261 0.044350
v -0.394851 0.146423 0.044350
v -0.001687 0.146423 0.044350
v 0.085768 0.146423 0.044350
v 0.391477 0.146423 0.044350
v 0.391477 0.017261 0.044350
v 0.391477 0.248354 0.044350
v 0.391477 0.160985 0.044350
v -0.001687 0.248354 -0.134030
v -0.001687 0.160985 0.044350
v -0.001687 0.160985 -0.134030
v -0.001687 0.248354 0.044350
v -0.394851 0.160985 0.044350
v -0.394851 0.248354 0.044350

# 146 UV coordinates
vt 0 1.443 0
vt -0.027778 1.39469 0
vt 0 0 0
vt -1.55556 1.443 0
vt -0.027778 0.048309 0
vt 0.583333 1.443 0
vt 0.583333 0 0
vt 0 2.70531 0
vt -1.52778 1.39469 0
vt -1.55556 0 0
vt -0.027778 1.10483 0
vt 0.583333 2.70531 0
vt -1.52778 1.10483 0
vt -0.555556 2.65701 0
vt 0 0.048309 0
vt 0 2.65701 0
vt -1.52778 0.048309 0
vt -0.583333 2.70531 0
vt -0 1.39469 0
vt -0.013889 1.10483 0
vt -0 1.10483 0
vt -0.027778 1.05652 0
vt -0.583333 0 0
vt 1.55556 0 0
vt 1.55556 1.443 0
vt -0.583333 1.443 0
vt -1.52778 1.05652 0
vt 0.555556 1.39469 0
vt -0.555556 0.048309 0
vt 0.555556 2.65701 0
vt -0.555556 1.39469 0
vt 0 1.05652 0
vt 0.013889 1.10483 0
vt -0.027778 0.628019 0
vt -1.52778 0.628019 0
vt -0.013889 1.05652 0
vt -0.777778 1.10483 0
vt 0.555556 0.048309 0
vt 0.555556 0.57971 0
vt -1.52778 0.57971 0
vt -0.555556 1.10483 0
vt 0.013889 1.05652 0
vt -0.013889 0.628019 0
vt -0 0.628019 0
vt -0.027778 0.57971 0
vt 0.555556 1.05652 0
vt 0.555556 1.10483 0
vt -0 0.57971 0
vt -0.611111 0.57971 0
vt 0.555556 1.35266 0
vt 0.013889 0.048309 0
vt -0.555556 1.05652 0
vt 0.013889 0.628019 0
vt -0.013889 0.57971 0
vt -0.944607 1.05652 0
vt -0.013889 1.64279 0
vt -0.013889 2.65701 0
vt 0.013889 1.35266 0
vt 0.013889 2.65701 0
vt 0.027778 1.10483 0
vt 0.777778 1.05652 0
vt 0.777778 1.10483 0
vt 0.944607 1.05652 0
vt 1.52778 1.10483 0
vt -0.555556 0.57971 0
vt 0.013889 0.57971 0
vt -0.013889 1.0628 0
vt -0.555556 1.0628 0
vt 0.944607 0.628019 0
vt 0.611111 0.57971 0
vt 1.52778 0.57971 0
vt -0.013889 0.048309 0
vt -0.555556 1.35266 0
vt -0.777778 1.05652 0
vt -0.555556 0.628019 0
vt 0.555556 0.628019 0
vt 1.52778 1.05652 0
vt -0.555556 1.64279 0
vt 0.027778 1.05652 0
vt 0.027778 0.628019 0
vt 0.027778 0.57971 0
vt 1.52778 0.628019 0
vt -0.013889 1.35266 0
vt 0.555556 1.64279 0
vt -0.944607 0.628019 0
vt 0.013889 1.64279 0
vt 0.116751 0 0
vt 0.111192 0.009622 0
vt 0.116751 0.037335 0
vt 0.00556 0.009622 0
vt -0.116751 0.009622 0
vt -0.116751 0 0
vt 0.00556 0 0
vt 0 0.037335 0
vt 0.111192 0.037335 0
vt 0.111192 0 0
vt 0 0.009622 0
vt 0.00556 0.037335 0
vt -0.00556 0.037335 0
vt -0.00556 0 0
vt -0.00556 0.009622 0
vt -0.111192 0.009622 0
vt -0.116751 0.037335 0
vt 0.116751 0.009622 0
vt -0.111192 0.037335 0
vt 0.944444 0.048309 0
vt 1.52778 0.048309 0
vt 0.944444 0.57971 0
vt -0.944444 -0.591787 0
vt -1.52778 0 0
vt -1.52778 -0.591787 0
vt -0.340278 0.57971 0
vt -0.340278 0.048309 0
vt 1.52778 -0.591787 0
vt 0.944444 0 0
vt 0.944444 -0.591787 0
vt 0.027778 0.048309 0
vt -0.944444 0 0
vt 1.52778 0 0
vt 0.027778 0 0
vt -0.027778 0 0
vt -0.027778 -0.591787 0
vt 0.027778 -0.591787 0
vt 0.340278 0.048309 0
vt 0.340278 0.57971 0
vt 0.610949 0.628019 0
vt 0.610949 1.05652 0
vt -0.610949 -0.591787 0
vt -0.340278 1.05652 0
vt -0.340278 0.628019 0
vt -0.610949 0 0
vt 0.777778 -0 0
vt 0.777778 -0.591787 0
vt 0.610949 0 0
vt 0.610949 -0.591787 0
vt 0.340278 0.628019 0
vt 0.340278 1.05652 0
vt 0.340278 1.10483 0
vt 0.340278 1.39469 0
vt 0.777778 1.39469 0
vt 0.027778 1.39469 0
vt -0.777778 0 0
vt -0.777778 -0.591787 0
vt 1.52778 1.39469 0
vt -0.340278 1.39469 0
vt -0.340278 1.10483 0

# 6 vertex normals
vn 0 0 -0.0254
vn 0 0 0.0254
vn -0.0254 0 0
vn 0.0254 0 0
vn 0 0.0254 0
vn 0 -0.0254 -0

# Mesh 'mesh1_mesh1-geometry' with 226 faces
g mesh1_mesh1-geometry
usemtl material_0_1_8
f  1/1/1 2/2/1 3/3/1
f  2/2/1 1/1/1 4/4/1
f  3/3/2 2/2/2 1/1/2
f  4/4/2 1/1/2 2/2/2
f  5/5/1 3/3/1 2/2/1
f  2/2/2 3/3/2 5/5/2
f  3/3/3 6/6/3 1/1/3
f  1/1/4 6/6/4 3/3/4
f  6/7/5 4/8/5 1/3/5
f  1/3/6 4/8/6 6/7/6
f  2/2/1 4/4/1 7/9/1
f  7/9/2 4/4/2 2/2/2
f  3/3/1 5/5/1 8/10/1
f  8/10/2 5/5/2 3/3/2
f  5/5/1 2/2/1 9/11/1
f  9/11/2 2/2/2 5/5/2
f  6/6/3 3/3/3 10/7/3
f  10/7/4 3/3/4 6/6/4
f  4/8/5 6/7/5 11/12/5
f  11/12/6 6/7/6 4/8/6
f  7/9/1 4/4/1 12/13/1
f  12/13/2 4/4/2 7/9/2
f  13/14/6 2/15/6 7/16/6
f  7/16/5 2/15/5 13/14/5
f  8/10/1 5/5/1 14/17/1
f  14/17/2 5/5/2 8/10/2
f  15/18/6 3/3/6 8/8/6
f  8/8/5 3/3/5 15/18/5
f  2/19/4 16/20/4 9/21/4
f  9/21/3 16/20/3 2/19/3
f  5/5/1 9/11/1 17/22/1
f  17/22/2 9/11/2 5/5/2
f  3/3/6 15/18/6 10/23/6
f  10/23/5 15/18/5 3/3/5
f  15/24/2 6/1/2 10/3/2
f  10/3/1 6/1/1 15/24/1
f  6/1/2 15/24/2 11/25/2
f  11/25/1 15/24/1 6/1/1
f  15/23/4 4/1/4 11/26/4
f  11/26/3 4/1/3 15/23/3
f  12/13/1 4/4/1 18/27/1
f  18/27/2 4/4/2 12/13/2
f  12/21/3 13/28/3 7/19/3
f  7/19/4 13/28/4 12/21/4
f  2/15/6 13/14/6 19/29/6
f  19/29/5 13/14/5 2/15/5
f  5/15/5 20/30/5 14/16/5
f  14/16/6 20/30/6 5/15/6
f  8/10/1 14/17/1 4/4/1
f  4/4/2 14/17/2 8/10/2
f  4/1/4 15/23/4 8/3/4
f  8/3/3 15/23/3 4/1/3
f  19/31/4 16/20/4 2/19/4
f  2/19/3 16/20/3 19/31/3
f  17/32/3 16/33/3 9/21/3
f  9/21/4 16/33/4 17/32/4
f  5/5/1 17/22/1 21/34/1
f  21/34/2 17/22/2 5/5/2
f  18/27/1 4/4/1 22/35/1
f  22/35/2 4/4/2 18/27/2
f  12/21/4 23/36/4 18/32/4
f  18/32/3 23/36/3 12/21/3
f  24/33/3 13/28/3 12/21/3
f  12/21/4 13/28/4 24/33/4
f  25/37/1 19/2/1 13/9/1
f  13/9/2 19/2/2 25/37/2
f  20/30/5 5/15/5 26/38/5
f  26/38/6 5/15/6 20/30/6
f  27/39/3 14/15/3 20/38/3
f  20/38/4 14/15/4 27/39/4
f  28/40/1 4/4/1 14/17/1
f  14/17/2 4/4/2 28/40/2
f  16/20/4 19/31/4 29/41/4
f  29/41/3 19/31/3 16/20/3
f  16/33/3 17/32/3 30/42/3
f  30/42/4 17/32/4 16/33/4
f  17/32/4 31/43/4 21/44/4
f  21/44/3 31/43/3 17/32/3
f  5/5/1 21/34/1 32/45/1
f  32/45/2 21/34/2 5/5/2
f  22/35/1 4/4/1 28/40/1
f  28/40/2 4/4/2 22/35/2
f  22/44/3 33/46/3 18/32/3
f  18/32/4 33/46/4 22/44/4
f  23/36/4 12/21/4 24/20/4
f  24/20/3 12/21/3 23/36/3
f  18/32/3 33/46/3 23/42/3
f  23/42/4 33/46/4 18/32/4
f  13/28/3 24/33/3 34/47/3
f  34/47/4 24/33/4 13/28/4
f  19/2/1 25/37/1 29/11/1
f  29/11/2 25/37/2 19/2/2
f  25/37/1 13/9/1 34/13/1
f  34/13/2 13/9/2 25/37/2
f  32/48/4 26/29/4 5/15/4
f  5/15/3 26/29/3 32/48/3
f  26/5/1 35/49/1 20/17/1
f  20/17/2 35/49/2 26/5/2
f  14/15/3 27/39/3 28/48/3
f  28/48/4 27/39/4 14/15/4
f  20/17/1 35/49/1 27/40/1
f  27/40/2 35/49/2 20/17/2
f  30/42/3 29/47/3 16/33/3
f  16/33/4 29/47/4 30/42/4
f  25/50/5 16/51/5 29/38/5
f  29/38/6 16/51/6 25/50/6
f  36/52/4 17/32/4 30/36/4
f  30/36/3 17/32/3 36/52/3
f  37/37/1 30/22/1 16/11/1
f  16/11/2 30/22/2 37/37/2
f  31/43/4 17/32/4 36/52/4
f  36/52/3 17/32/3 31/43/3
f  32/48/3 31/53/3 21/44/3
f  21/44/4 31/53/4 32/48/4
f  22/44/4 38/54/4 28/48/4
f  28/48/3 38/54/3 22/44/3
f  39/53/3 33/46/3 22/44/3
f  22/44/4 33/46/4 39/53/4
f  34/41/4 23/36/4 24/20/4
f  24/20/3 23/36/3 34/41/3
f  40/55/1 24/13/1 23/27/1
f  23/27/2 24/13/2 40/55/2
f  23/36/4 34/41/4 33/52/4
f  33/52/3 34/41/3 23/36/3
f  33/14/6 40/56/6 23/57/6
f  23/57/5 40/56/5 33/14/5
f  37/58/5 34/30/5 24/59/5
f  24/59/6 34/30/6 37/58/6
f  29/60/2 41/61/2 25/62/2
f  25/62/1 41/61/1 29/60/1
f  34/30/5 37/58/5 25/50/5
f  25/50/6 37/58/6 34/30/6
f  25/62/2 42/63/2 34/64/2
f  34/64/1 42/63/1 25/62/1
f  26/29/4 32/48/4 43/65/4
f  43/65/3 32/48/3 26/29/3
f  35/49/1 26/5/1 43/45/1
f  43/45/2 26/5/2 35/49/2
f  28/48/3 27/39/3 38/66/3
f  38/66/4 27/39/4 28/48/4
f  44/67/6 27/14/6 35/68/6
f  35/68/5 27/14/5 44/67/5
f  45/69/2 35/70/2 27/71/2
f  27/71/1 35/70/1 45/69/1
f  29/47/3 30/42/3 36/46/3
f  36/46/4 30/42/4 29/47/4
f  16/51/5 25/50/5 37/58/5
f  37/58/6 25/50/6 16/51/6
f  30/72/6 41/73/6 36/29/6
f  36/29/5 41/73/5 30/72/5
f  30/22/1 37/37/1 46/74/1
f  46/74/2 37/37/2 30/22/2
f  36/52/4 47/75/4 31/43/4
f  31/43/3 47/75/3 36/52/3
f  31/53/3 32/48/3 48/66/3
f  48/66/4 32/48/4 31/53/4
f  38/54/4 22/44/4 39/43/4
f  39/43/3 22/44/3 38/54/3
f  33/46/3 39/53/3 49/76/3
f  49/76/4 39/53/4 33/46/4
f  46/74/1 24/13/1 40/55/1
f  40/55/2 24/13/2 46/74/2
f  34/64/2 42/63/2 33/77/2
f  33/77/1 42/63/1 34/64/1
f  40/56/6 33/14/6 42/78/6
f  42/78/5 33/14/5 40/56/5
f  46/74/1 37/37/1 24/13/1
f  24/13/2 37/37/2 46/74/2
f  41/61/2 29/60/2 36/79/2
f  36/79/1 29/60/1 41/61/1
f  25/62/2 41/61/2 42/63/2
f  42/63/1 41/61/1 25/62/1
f  43/65/4 32/48/4 48/54/4
f  48/54/3 32/48/3 43/65/3
f  48/72/6 35/68/6 43/29/6
f  43/29/5 35/68/5 48/72/5
f  35/70/2 47/80/2 43/81/2
f  43/81/1 47/80/1 35/70/1
f  27/14/6 44/67/6 38/57/6
f  38/57/5 44/67/5 27/14/5
f  38/54/4 49/75/4 27/65/4
f  27/65/3 49/75/3 38/54/3
f  35/68/6 48/72/6 44/67/6
f  44/67/5 48/72/5 35/68/5
f  47/80/2 35/70/2 45/69/2
f  45/69/1 35/70/1 47/80/1
f  45/69/2 27/71/2 49/82/2
f  49/82/1 27/71/1 45/69/1
f  41/73/6 30/72/6 46/83/6
f  46/83/5 30/72/5 41/73/5
f  41/74/1 47/34/1 36/22/1
f  36/22/2 47/34/2 41/74/2
f  45/84/5 31/51/5 47/38/5
f  47/38/6 31/51/6 45/84/6
f  48/66/3 47/76/3 31/53/3
f  31/53/4 47/76/4 48/66/4
f  50/85/1 48/45/1 31/34/1
f  31/34/2 48/45/2 50/85/2
f  49/75/4 38/54/4 39/43/4
f  39/43/3 38/54/3 49/75/3
f  38/40/1 50/85/1 39/35/1
f  39/35/2 50/85/2 38/40/2
f  50/86/5 49/30/5 39/59/5
f  39/59/6 49/30/6 50/86/6
f  45/85/1 33/27/1 49/35/1
f  49/35/2 33/27/2 45/85/2
f  42/78/6 46/83/6 40/56/6
f  40/56/5 46/83/5 42/78/5
f  45/85/1 42/55/1 33/27/1
f  33/27/2 42/55/2 45/85/2
f  46/83/6 42/78/6 41/73/6
f  41/73/5 42/78/5 46/83/5
f  45/85/1 41/74/1 42/55/1
f  42/55/2 41/74/2 45/85/2
f  47/76/3 48/66/3 43/39/3
f  43/39/4 48/66/4 47/76/4
f  44/49/1 50/85/1 38/40/1
f  38/40/2 50/85/2 44/49/2
f  48/45/1 50/85/1 44/49/1
f  44/49/2 50/85/2 48/45/2
f  47/34/1 41/74/1 45/85/1
f  45/85/2 41/74/2 47/34/2
f  49/30/5 50/86/5 45/84/5
f  45/84/6 50/86/6 49/30/6
f  31/51/5 45/84/5 50/86/5
f  50/86/6 45/84/6 31/51/6

# Mesh 'mesh2_mesh2-geometry' with 12 faces
g mesh2_mesh2-geometry
usemtl material_1_0
l  4 1
l  8 4
l  11 4
l  3 1
l  1 6
l  8 3
l  15 8
l  15 11
l  6 11
l  3 10
l  10 6
l  10 15

# Mesh 'mesh3_mesh3-geometry' with 71 faces
g mesh3_mesh3-geometry
usemtl material_1_0
l  7 12
l  2 7
l  7 13
l  12 18
l  12 24
l  2 19
l  9 2
l  19 13
l  13 34
l  18 22
l  18 23
l  24 23
l  24 37
l  24 34
l  29 19
l  17 9
l  9 16
l  34 25
l  34 33
l  22 28
l  22 39
l  23 40
l  23 33
l  37 25
l  37 16
l  25 29
l  36 29
l  16 29
l  21 17
l  17 30
l  30 16
l  33 42
l  33 49
l  28 14
l  28 38
l  39 38
l  39 50
l  39 49
l  40 42
l  40 46
l  41 36
l  47 36
l  30 36
l  32 21
l  21 31
l  46 30
l  42 41
l  49 45
l  49 27
l  14 5
l  14 20
l  38 44
l  38 27
l  50 45
l  50 31
l  46 41
l  45 47
l  43 47
l  31 47
l  5 32
l  32 48
l  48 31
l  27 35
l  27 20
l  5 26
l  20 26
l  44 35
l  44 48
l  26 43
l  35 43
l  48 43

# Mesh 'mesh4_mesh4-geometry' with 56 faces
g mesh4_mesh4-geometry
usemtl material_2_2_8
f  51/87/3 52/88/3 53/3/3
f  52/88/3 51/87/3 10/89/3
f  53/3/4 52/88/4 51/87/4
f  10/89/4 51/87/4 52/88/4
f  54/90/3 53/3/3 52/88/3
f  52/88/4 53/3/4 54/90/4
f  53/3/6 55/91/6 51/92/6
f  51/92/5 55/91/5 53/3/5
f  55/93/2 10/94/2 51/3/2
f  51/3/1 10/94/1 55/93/1
f  52/88/3 10/89/3 56/95/3
f  56/95/4 10/89/4 52/88/4
f  53/3/3 54/90/3 3/94/3
f  3/94/4 54/90/4 53/3/4
f  52/96/5 57/90/5 54/93/5
f  54/93/6 57/90/6 52/96/6
f  55/91/6 53/3/6 58/97/6
f  58/97/5 53/3/5 55/91/5
f  10/94/2 55/93/2 59/98/2
f  59/98/1 55/93/1 10/94/1
f  10/87/5 60/88/5 56/96/5
f  56/96/6 60/88/6 10/87/6
f  60/99/1 52/97/1 56/94/1
f  56/94/2 52/97/2 60/99/2
f  3/94/3 54/90/3 61/98/3
f  61/98/4 54/90/4 3/94/4
f  62/99/1 53/3/1 3/94/1
f  3/94/2 53/3/2 62/99/2
f  57/90/5 52/96/5 63/88/5
f  63/88/6 52/96/6 57/90/6
f  57/90/2 61/94/2 54/97/2
f  54/97/1 61/94/1 57/90/1
f  53/3/1 62/99/1 58/100/1
f  58/100/2 62/99/2 53/3/2
f  58/3/4 57/101/4 55/92/4
f  55/92/3 57/101/3 58/3/3
f  55/92/4 63/102/4 59/103/4
f  59/103/3 63/102/3 55/92/3
f  60/88/5 10/87/5 59/104/5
f  59/104/6 10/87/6 60/88/6
f  52/97/1 60/99/1 63/101/1
f  63/101/2 60/99/2 52/97/2
f  61/93/5 62/97/5 3/3/5
f  3/3/6 62/97/6 61/93/6
f  63/102/4 55/92/4 57/101/4
f  57/101/3 55/92/3 63/102/3
f  61/94/2 57/90/2 64/98/2
f  64/98/1 57/90/1 61/94/1
f  57/101/4 58/3/4 62/94/4
f  62/94/3 58/3/3 57/101/3
f  59/103/4 63/102/4 60/105/4
f  60/105/3 63/102/3 59/103/3
f  62/97/5 61/93/5 64/90/5
f  64/90/6 61/93/6 62/97/6
f  57/101/4 62/94/4 64/99/4
f  64/99/3 62/94/3 57/101/3

# Mesh 'mesh5_mesh5-geometry' with 24 faces
g mesh5_mesh5-geometry
usemtl material_1_0
l  56 10
l  52 56
l  56 60
l  51 10
l  10 59
l  54 52
l  52 63
l  63 60
l  59 60
l  53 51
l  51 55
l  55 59
l  61 54
l  54 57
l  57 63
l  53 3
l  58 53
l  55 58
l  3 61
l  61 64
l  64 57
l  62 3
l  58 62
l  64 62

# Mesh 'mesh6_mesh6-geometry' with 56 faces
g mesh6_mesh6-geometry
usemtl material_2_2_8
f  65/87/3 66/88/3 67/3/3
f  66/88/3 65/87/3 68/89/3
f  67/3/4 66/88/4 65/87/4
f  68/89/4 65/87/4 66/88/4
f  69/90/3 67/3/3 66/88/3
f  66/88/4 67/3/4 69/90/4
f  67/3/6 70/91/6 65/92/6
f  65/92/5 70/91/5 67/3/5
f  70/93/2 68/94/2 65/3/2
f  65/3/1 68/94/1 70/93/1
f  66/88/3 68/89/3 71/95/3
f  71/95/4 68/89/4 66/88/4
f  67/3/3 69/90/3 72/94/3
f  72/94/4 69/90/4 67/3/4
f  66/96/5 73/90/5 69/93/5
f  69/93/6 73/90/6 66/96/6
f  70/91/6 67/3/6 74/97/6
f  74/97/5 67/3/5 70/91/5
f  68/94/2 70/93/2 15/98/2
f  15/98/1 70/93/1 68/94/1
f  68/87/5 75/88/5 71/96/5
f  71/96/6 75/88/6 68/87/6
f  75/99/1 66/97/1 71/94/1
f  71/94/2 66/97/2 75/99/2
f  72/94/3 69/90/3 76/98/3
f  76/98/4 69/90/4 72/94/4
f  8/99/1 67/3/1 72/94/1
f  72/94/2 67/3/2 8/99/2
f  73/90/5 66/96/5 77/88/5
f  77/88/6 66/96/6 73/90/6
f  73/90/2 76/94/2 69/97/2
f  69/97/1 76/94/1 73/90/1
f  67/3/1 8/99/1 74/100/1
f  74/100/2 8/99/2 67/3/2
f  74/3/4 73/101/4 70/92/4
f  70/92/3 73/101/3 74/3/3
f  70/92/4 77/102/4 15/103/4
f  15/103/3 77/102/3 70/92/3
f  75/88/5 68/87/5 15/104/5
f  15/104/6 68/87/6 75/88/6
f  66/97/1 75/99/1 77/101/1
f  77/101/2 75/99/2 66/97/2
f  76/93/5 8/97/5 72/3/5
f  72/3/6 8/97/6 76/93/6
f  77/102/4 70/92/4 73/101/4
f  73/101/3 70/92/3 77/102/3
f  76/94/2 73/90/2 78/98/2
f  78/98/1 73/90/1 76/94/1
f  73/101/4 74/3/4 8/94/4
f  8/94/3 74/3/3 73/101/3
f  15/103/4 77/102/4 75/105/4
f  75/105/3 77/102/3 15/103/3
f  8/97/5 76/93/5 78/90/5
f  78/90/6 76/93/6 8/97/6
f  73/101/4 8/94/4 78/99/4
f  78/99/3 8/94/3 73/101/3

# Mesh 'mesh7_mesh7-geometry' with 24 faces
g mesh7_mesh7-geometry
usemtl material_1_0
l  71 68
l  66 71
l  71 75
l  65 68
l  68 15
l  69 66
l  66 77
l  77 75
l  15 75
l  67 65
l  65 70
l  70 15
l  76 69
l  69 73
l  73 77
l  67 72
l  74 67
l  70 74
l  72 76
l  76 78
l  78 73
l  8 72
l  74 8
l  78 8

# Mesh 'mesh8_mesh8-geometry' with 32 faces
g mesh8_mesh8-geometry
usemtl material_0_1_8
f  32/71/1 79/106/1 5/107/1
f  79/106/1 32/71/1 80/108/1
f  5/107/2 79/106/2 32/71/2
f  80/108/2 32/71/2 79/106/2
f  79/109/6 81/110/6 5/111/6
f  5/111/5 81/110/5 79/109/5
f  81/15/3 32/112/3 5/113/3
f  5/113/4 32/112/4 81/15/4
f  32/114/5 82/115/5 80/116/5
f  80/116/6 82/115/6 32/114/6
f  80/108/1 14/117/1 79/106/1
f  79/106/2 14/117/2 80/108/2
f  81/110/6 79/109/6 83/118/6
f  83/118/5 79/109/5 81/110/5
f  32/112/3 81/15/3 84/48/3
f  84/48/4 81/15/4 32/112/4
f  82/115/5 32/114/5 84/119/5
f  84/119/6 32/114/6 82/115/6
f  85/120/5 80/116/5 82/115/5
f  82/115/6 80/116/6 85/120/6
f  14/117/1 80/108/1 28/81/1
f  28/81/2 80/108/2 14/117/2
f  86/121/6 79/109/6 14/122/6
f  14/122/5 79/109/5 86/121/5
f  79/109/6 86/121/6 83/118/6
f  83/118/5 86/121/5 79/109/5
f  80/116/5 85/120/5 28/123/5
f  28/123/6 85/120/6 80/116/6
f  85/48/4 14/124/4 28/125/4
f  28/125/3 14/124/3 85/48/3
f  14/124/4 85/48/4 86/15/4
f  86/15/3 85/48/3 14/124/3

# Mesh 'mesh9_mesh9-geometry' with 38 faces
g mesh9_mesh9-geometry
usemtl material_0_1_8
f  17/77/1 87/126/1 21/82/1
f  87/126/1 17/77/1 88/127/1
f  21/82/2 87/126/2 17/77/2
f  88/127/2 17/77/2 87/126/2
f  87/128/6 89/110/6 21/111/6
f  21/111/5 89/110/5 87/128/5
f  89/44/3 17/129/3 21/130/3
f  21/130/4 17/129/4 89/44/4
f  88/127/1 17/77/1 90/61/1
f  90/61/2 17/77/2 88/127/2
f  88/127/1 22/80/1 87/126/1
f  87/126/2 22/80/2 88/127/2
f  89/110/6 87/128/6 91/131/6
f  91/131/5 87/128/5 89/110/5
f  17/129/3 89/44/3 92/32/3
f  92/32/4 89/44/4 17/129/4
f  17/114/5 93/132/5 90/133/5
f  90/133/6 93/132/6 17/114/6
f  90/133/5 94/134/5 88/135/5
f  88/135/6 94/134/6 90/133/6
f  22/80/1 88/127/1 18/79/1
f  18/79/2 88/127/2 22/80/2
f  22/122/6 91/131/6 87/128/6
f  87/128/5 91/131/5 22/122/5
f  93/132/5 17/114/5 92/119/5
f  92/119/6 17/114/6 93/132/6
f  94/134/5 90/133/5 93/132/5
f  93/132/6 90/133/6 94/134/6
f  94/134/5 18/123/5 88/135/5
f  88/135/6 18/123/6 94/134/6
f  95/32/4 22/136/4 18/137/4
f  18/137/3 22/136/3 95/32/3
f  91/131/6 22/122/6 96/121/6
f  96/121/5 22/122/5 91/131/5
f  18/123/5 94/134/5 95/120/5
f  95/120/6 94/134/6 18/123/6
f  22/136/4 95/32/4 96/44/4
f  96/44/3 95/32/3 22/136/3

# Mesh 'mesh10_mesh10-geometry' with 32 faces
g mesh10_mesh10-geometry
usemtl material_0_1_8
f  97/19/4 12/138/4 7/139/4
f  12/138/4 97/19/4 98/21/4
f  7/139/3 12/138/3 97/19/3
f  98/21/3 97/19/3 12/138/3
f  12/60/1 99/140/1 7/141/1
f  7/141/2 99/140/2 12/60/2
f  99/133/5 97/120/5 7/123/5
f  7/123/6 97/120/6 99/133/6
f  100/142/6 12/122/6 98/121/6
f  98/121/5 12/122/5 100/142/5
f  99/140/1 12/60/1 101/62/1
f  101/62/2 12/60/2 99/140/2
f  97/120/5 99/133/5 102/132/5
f  102/132/6 99/133/6 97/120/6
f  12/122/6 100/142/6 101/143/6
f  101/143/5 100/142/5 12/122/5
f  101/62/1 2/144/1 99/140/1
f  99/140/2 2/144/2 101/62/2
f  2/114/5 102/132/5 99/133/5
f  99/133/6 102/132/6 2/114/6
f  103/110/6 101/143/6 100/142/6
f  100/142/5 101/143/5 103/110/5
f  2/144/1 101/62/1 9/64/1
f  9/64/2 101/62/2 2/144/2
f  102/132/5 2/114/5 104/119/5
f  104/119/6 2/114/6 102/132/6
f  101/143/6 103/110/6 9/111/6
f  9/111/5 103/110/5 101/143/5
f  103/21/3 2/145/3 9/146/3
f  9/146/4 2/145/4 103/21/4
f  2/145/3 103/21/3 104/19/3
f  104/19/4 103/21/4 2/145/4

# Mesh 'mesh11_mesh11-geometry' with 45 faces
g mesh11_mesh11-geometry
usemtl material_1_0
l  92 103
l  92 17
l  103 9
l  21 17
l  90 17
l  101 9
l  9 2
l  87 21
l  89 21
l  88 90
l  93 90
l  99 101
l  100 101
l  12 101
l  2 99
l  104 2
l  91 87
l  22 87
l  88 87
l  84 89
l  94 88
l  18 88
l  102 99
l  99 7
l  98 12
l  7 12
l  96 22
l  18 22
l  84 32
l  95 18
l  97 7
l  98 95
l  96 85
l  80 32
l  5 32
l  85 28
l  79 80
l  82 80
l  28 80
l  79 5
l  81 5
l  28 14
l  83 79
l  14 79
l  86 14

