# File produced by Open Asset Import Library (http://www.assimp.sf.net)
# (assimp v3.2.202087883)

mtllib model_normalized.mtl

# 70 vertex positions
v -0.418956 -0.003806 0.103675
v -0.447003 0.003205 0.103675
v -0.447003 -0.003806 0.103675
v 0.447003 0.003205 0.103675
v -0.447003 -0.003806 0.036186
v 0.418955 -0.003806 0.103675
v -0.447003 0.003205 0.036186
v 0.447003 -0.003806 0.103675
v 0.447003 0.003205 0.036186
v 0.447003 0.003205 0.089651
v -0.447003 0.003205 0.089651
v -0.418956 -0.003806 0.036186
v 0.418955 -0.003806 0.036186
v 0.447003 -0.003806 0.036186
v -0.418956 -0.003806 0.029174
v -0.447003 0.003205 0.029174
v -0.447003 -0.003806 0.029174
v -0.447003 -0.003806 -0.166280
v 0.447003 0.003205 -0.166280
v -0.418956 -0.003806 -0.166280
v -0.447003 -0.003806 -0.031303
v 0.447003 0.003205 -0.105803
v -0.418956 -0.003806 -0.105803
v 0.418955 -0.003806 -0.105803
v -0.447003 0.003205 -0.098791
v -0.418956 -0.003806 -0.098791
v -0.447003 -0.003806 -0.098791
v 0.447003 0.003205 0.029174
v 0.418955 -0.003806 0.029174
v -0.447003 0.003205 -0.166280
v 0.418955 -0.003806 -0.166280
v -0.447003 0.003205 -0.031303
v -0.418956 -0.003806 -0.031303
v -0.447003 0.003205 -0.105803
v 0.447003 -0.003806 -0.105803
v -0.447003 -0.003806 -0.105803
v 0.447003 0.003205 -0.098791
v -0.447003 0.003205 -0.038315
v 0.447003 0.003205 -0.038315
v -0.418956 -0.003806 -0.038315
v 0.418955 -0.003806 -0.038315
v 0.447003 -0.003806 -0.166280
v -0.447003 -0.003806 -0.038315
v 0.447003 0.003205 -0.031303
v 0.418955 -0.003806 -0.031303
v 0.447003 -0.003806 0.029174
v 0.418955 -0.003806 -0.098791
v 0.447003 -0.003806 -0.038315
v 0.447003 -0.003806 -0.031303
v 0.447003 -0.003806 -0.098791
v -0.418956 -0.175596 0.103675
v -0.396914 0.053293 0.103675
v -0.447003 -0.175596 0.103675
v -0.447003 0.182006 0.103675
v 0.396917 0.053293 0.103675
v 0.447003 0.182006 0.089651
v -0.447003 -0.175596 -0.031303
v -0.418956 -0.175596 -0.031303
v 0.447003 -0.175596 0.103675
v -0.396914 0.131919 0.103675
v 0.396917 0.131919 0.103675
v 0.396917 0.053293 0.089651
v -0.396914 0.053293 0.089651
v 0.447003 0.182006 0.103675
v 0.418955 -0.175596 0.103675
v -0.396914 0.131919 0.089651
v -0.447003 0.182006 0.089651
v 0.396917 0.131919 0.089651
v 0.418955 -0.175596 -0.031303
v 0.447003 -0.175596 -0.031303

# 154 UV coordinates
vt -1.04865 40.0452 0
vt -1.0428 40.014 0
vt -1.05052 40.0143 0
vt -0.983257 41.0005 0
vt -2.05073 40.0141 0
vt -0.992845 40.9699 0
vt -2.04302 40.0137 0
vt -0.990977 41.0009 0
vt -2 41 0
vt -1.19453 41.0004 0
vt -1.25063 40.0139 0
vt -2.04939 40.045 0
vt -2.00907 40.9694 0
vt -2.00772 41.0003 0
vt -2.13789 40.0443 0
vt -2.1469 40.0137 0
vt -2.13918 40.0134 0
vt -5.04794 40.013 0
vt -5.04667 40.9985 0
vt -5.04814 40.0439 0
vt -3.03494 40.0132 0
vt -4.13718 40.9989 0
vt -4.13752 40.0441 0
vt -4.12973 40.9679 0
vt -4.04173 40.0133 0
vt -4.04913 40.0443 0
vt -4.04944 40.0134 0
vt -2.1056 40.9999 0
vt -2.09918 40.9687 0
vt -5.04023 40.0131 0
vt -5.05418 40.9675 0
vt -3.04266 40.0135 0
vt -3.04955 40.0447 0
vt -3.05038 40.0137 0
vt -4.1455 40.0133 0
vt -4.12947 40.9989 0
vt -4.13778 40.0132 0
vt -5.0402 39.9091 0
vt -4.14547 39.9093 0
vt -4.03171 40.999 0
vt -4.04171 39.9093 0
vt -3.14649 40.0135 0
vt -3.12169 40.9994 0
vt -3.13799 40.0442 0
vt -3.11475 40.9683 0
vt -4.13724 41.1046 0
vt -5.04672 41.1041 0
vt -3.13877 40.0133 0
vt -3.01615 40.9995 0
vt -3.0247 40.9688 0
vt -2.09788 40.9996 0
vt -5.05438 40.9984 0
vt -3.14646 39.9095 0
vt -4.03973 40.9681 0
vt -3.11397 40.9992 0
vt -3.00843 40.9992 0
vt -3.02387 40.9997 0
vt -4.03942 40.9991 0
vt -3.12174 41.1052 0
vt -4.03176 41.1047 0
vt 0 0 0
vt 1.60787 4.44565 0
vt 1.71991 3.45636 0
vt 1.71991 4.44565 0
vt 0.529531 4.44565 0
vt 1.33829 4.44565 0
vt 1.60787 3.45636 0
vt 2.79825 4.44565 0
vt 2.55668 4.44565 0
vt 1.9895 4.44565 0
vt 1.0687 3.45636 0
vt 1.31028 4.44565 0
vt 2.25908 3.29485 0
vt 1.71991 3.29485 0
vt 2.25908 3.45636 0
vt 2.52867 4.44565 0
vt 2.25908 4.44565 0
vt 2.01751 4.44565 0
vt 2.34718 3.35657 0
vt 2.88635 4.34586 0
vt 1.0687 4.44565 0
vt 2.28709 4.44565 0
vt 1.04069 4.44565 0
vt 0.771108 4.44565 0
vt 0.799117 4.44565 0
vt -39.8052 8.46623 0
vt -39.8615 7.77548 0
vt -38.5454 8.02375 0
vt -39.9235 10.1917 0
vt -38.6365 8.68668 0
vt -42.8691 9.61285 0
vt -42.9966 7.19179 0
vt -42.8071 7.19666 0
vt -39.8324 9.52873 0
vt -41.6477 9.85869 0
vt -41.7752 7.43764 0
vt -41.5857 7.4425 0
vt -38.6638 9.74919 0
vt -42.8899 7.86828 0
vt -41.7252 8.10938 0
vt -42.8938 7.88892 0
vt -41.6331 7.44129 0
vt -41.7242 8.10422 0
vt -42.9492 7.19301 0
vt -43.0586 9.60799 0
vt -42.8929 7.88376 0
vt -43.0112 9.6092 0
vt -38.6074 10.4399 0
vt -41.7716 8.103 0
vt -41.6093 9.17037 0
vt -41.7988 9.16551 0
vt -41.8372 9.85383 0
vt -42.8727 8.94749 0
vt -43.035 7.88012 0
vt -42.8455 7.88498 0
vt -41.7213 8.08873 0
vt -41.7515 9.16673 0
vt -43.0083 9.59372 0
vt -41.6961 9.86264 0
vt -43.0122 9.61436 0
vt -42.9201 8.94627 0
vt -41.5821 8.10786 0
vt -41.7544 9.18221 0
vt -42.9191 8.94111 0
vt -41.7505 9.16157 0
vt -41.6922 9.84199 0
vt -41.6951 9.85748 0
vt -43.0622 8.94263 0
vt -42.923 8.96176 0
vt 0.25 0 0
vt 0 1 0
vt 0.25 1 0
vt 1 0 0
vt 0.775974 1 0
vt 0.775974 0 0
vt 0.5 0 0
vt 0.275974 1 0
vt 0.275974 0 0
vt 1 1 0
vt 0.75 0 0
vt 0.525974 1 0
vt 0.525974 0 0
vt 0.5 1 0
vt 0.75 1 0
vt 0.791096 1 0
vt 0.791096 0 0
vt 0.527397 1 0
vt 0.763699 0 0
vt 0.763699 1 0
vt 0.236301 0 0
vt 0.527397 0 0
vt 0.236301 1 0
vt 0.263699 1 0
vt 0.263699 0 0

# 8 vertex normals
vn 0 0 1
vn -1 0 0
vn 1 0 0
vn 0 0 -1
vn 0 -1 0
vn 0 1 0
vn 0 0.617822 0.786318
vn 0 -0.617822 -0.786318

# Mesh 'mesh1_mesh1-geometry' with 50 faces
g mesh1_mesh1-geometry
usemtl material_0_1_8
f  1/1/1 2/2/1 3/3/1
f  2/2/1 1/1/1 4/4/1
f  2/2/2 5/5/2 3/3/2
f  4/4/1 1/1/1 6/6/1
f  5/5/2 2/2/2 7/7/2
f  4/4/1 6/6/1 8/8/1
f  4/4/3 9/9/3 10/10/3
f  7/7/2 2/2/2 11/11/2
f  7/7/4 12/12/4 5/5/4
f  8/8/3 9/9/3 4/4/3
f  12/12/4 7/7/4 9/9/4
f  12/12/4 9/9/4 13/13/4
f  9/9/3 8/8/3 14/14/3
f  15/15/1 16/16/1 17/17/1
f  18/18/4 19/19/4 20/20/4
f  16/16/2 21/21/2 17/17/2
f  22/22/1 23/23/1 24/24/1
f  25/25/4 26/26/4 27/27/4
f  13/13/4 9/9/4 14/14/4
f  16/16/1 15/15/1 28/28/1
f  28/28/1 15/15/1 29/29/1
f  19/19/4 18/18/4 30/30/4
f  20/20/4 19/19/4 31/31/4
f  21/21/2 16/16/2 32/32/2
f  32/32/4 33/33/4 21/34/4
f  34/35/1 23/23/1 22/22/1
f  22/22/1 24/24/1 35/36/1
f  23/23/1 34/35/1 36/37/1
f  34/35/2 18/38/2 36/39/2
f  26/26/4 25/25/4 37/40/4
f  27/41/2 38/42/2 25/25/2
f  39/43/1 40/44/1 41/45/1
f  19/19/3 35/46/3 42/47/3
f  40/44/1 38/42/1 43/48/1
f  33/33/4 44/49/4 45/50/4
f  28/28/1 29/29/1 46/51/1
f  18/38/2 34/35/2 30/30/2
f  31/31/4 19/19/4 42/52/4
f  33/33/4 32/32/4 44/49/4
f  38/42/2 27/41/2 43/53/2
f  35/46/3 19/19/3 22/22/3
f  26/26/4 37/40/4 47/54/4
f  38/42/1 40/44/1 39/43/1
f  39/43/1 41/45/1 48/55/1
f  44/49/3 46/51/3 49/56/3
f  46/51/3 44/49/3 28/28/3
f  45/50/4 44/49/4 49/57/4
f  47/54/4 37/40/4 50/58/4
f  48/59/3 37/40/3 39/43/3
f  37/40/3 48/59/3 50/60/3

# Mesh 'mesh1_mesh1-geometry' with 200 faces
g mesh1_mesh1-geometry
usemtl material_1_24
f  3/61/4 2/61/4 1/61/4
f  4/61/4 1/61/4 2/61/4
f  3/61/3 5/61/3 2/61/3
f  1/61/4 51/61/4 3/61/4
f  3/61/5 12/61/5 1/61/5
f  1/61/6 12/61/6 3/61/6
f  6/61/4 1/61/4 4/61/4
f  4/61/4 2/61/4 52/61/4
f  10/61/6 2/61/6 4/61/6
f  4/61/5 2/61/5 10/61/5
f  7/61/3 2/61/3 5/61/3
f  12/61/5 3/61/5 5/61/5
f  5/61/6 3/61/6 12/61/6
f  5/61/3 3/61/3 18/61/3
f  53/61/4 3/61/4 51/61/4
f  1/61/2 20/61/2 51/61/2
f  12/61/2 23/61/2 1/61/2
f  1/61/6 6/61/6 12/61/6
f  8/61/4 6/61/4 4/61/4
f  54/61/4 52/61/4 2/61/4
f  55/61/4 4/61/4 52/61/4
f  2/61/6 10/61/6 11/61/6
f  11/61/5 10/61/5 2/61/5
f  10/61/2 9/61/2 4/61/2
f  10/61/2 4/61/2 56/61/2
f  11/61/3 2/61/3 7/61/3
f  5/61/1 12/61/1 7/61/1
f  15/61/6 5/61/6 12/61/6
f  12/61/5 5/61/5 15/61/5
f  18/61/3 3/61/3 57/61/3
f  17/61/3 5/61/3 18/61/3
f  53/61/3 57/61/3 3/61/3
f  53/61/6 51/61/6 57/61/6
f  58/61/2 51/61/2 20/61/2
f  23/61/2 20/61/2 1/61/2
f  26/61/2 23/61/2 12/61/2
f  13/61/6 12/61/6 6/61/6
f  8/61/4 59/61/4 6/61/4
f  13/61/5 8/61/5 6/61/5
f  6/61/6 8/61/6 13/61/6
f  4/61/2 9/61/2 8/61/2
f  52/61/4 54/61/4 60/61/4
f  2/61/3 11/61/3 54/61/3
f  61/61/4 4/61/4 55/61/4
f  55/61/5 52/61/5 62/61/5
f  10/61/5 11/61/5 9/61/5
f  10/61/1 63/61/1 11/61/1
f  64/61/2 56/61/2 4/61/2
f  56/61/1 62/61/1 10/61/1
f  7/61/5 9/61/5 11/61/5
f  9/61/1 7/61/1 12/61/1
f  5/61/6 15/61/6 17/61/6
f  17/61/5 15/61/5 5/61/5
f  15/61/2 33/61/2 12/61/2
f  18/61/7 57/61/7 20/61/7
f  21/61/3 17/61/3 18/61/3
f  58/61/6 57/61/6 51/61/6
f  58/61/7 20/61/7 57/61/7
f  23/61/6 24/61/6 20/61/6
f  23/61/5 18/61/5 20/61/5
f  20/61/6 18/61/6 23/61/6
f  23/61/6 27/61/6 26/61/6
f  26/61/5 27/61/5 23/61/5
f  40/61/2 26/61/2 12/61/2
f  13/61/1 9/61/1 12/61/1
f  13/61/3 6/61/3 31/61/3
f  65/61/4 6/61/4 59/61/4
f  8/61/2 42/61/2 59/61/2
f  8/61/5 13/61/5 14/61/5
f  14/61/6 13/61/6 8/61/6
f  14/61/2 8/61/2 9/61/2
f  64/61/4 60/61/4 54/61/4
f  60/61/2 66/61/2 52/61/2
f  67/61/3 54/61/3 11/61/3
f  4/61/4 61/61/4 64/61/4
f  55/61/3 62/61/3 61/61/3
f  63/61/5 62/61/5 52/61/5
f  66/61/1 11/61/1 63/61/1
f  62/61/1 63/61/1 10/61/1
f  64/61/5 54/61/5 56/61/5
f  62/61/1 56/61/1 68/61/1
f  17/61/5 33/61/5 15/61/5
f  15/61/6 33/61/6 17/61/6
f  17/61/4 16/61/4 15/61/4
f  33/61/2 40/61/2 12/61/2
f  15/61/6 29/61/6 33/61/6
f  20/61/1 19/61/1 18/61/1
f  17/61/3 21/61/3 16/61/3
f  33/61/5 17/61/5 21/61/5
f  21/61/6 17/61/6 33/61/6
f  43/61/3 21/61/3 18/61/3
f  31/61/6 20/61/6 24/61/6
f  24/61/4 23/61/4 22/61/4
f  18/61/5 23/61/5 36/61/5
f  36/61/6 23/61/6 18/61/6
f  27/61/6 23/61/6 36/61/6
f  36/61/5 23/61/5 27/61/5
f  27/61/1 26/61/1 25/61/1
f  40/61/5 27/61/5 26/61/5
f  26/61/6 27/61/6 40/61/6
f  40/61/6 41/61/6 26/61/6
f  14/61/1 9/61/1 13/61/1
f  31/61/3 6/61/3 69/61/3
f  24/61/3 13/61/3 31/61/3
f  65/61/3 69/61/3 6/61/3
f  65/61/6 59/61/6 69/61/6
f  70/61/2 59/61/2 42/61/2
f  35/61/2 42/61/2 8/61/2
f  14/61/6 29/61/6 13/61/6
f  13/61/5 29/61/5 14/61/5
f  14/61/2 46/61/2 8/61/2
f  61/61/4 60/61/4 64/61/4
f  63/61/2 52/61/2 66/61/2
f  60/61/6 61/61/6 66/61/6
f  67/61/5 56/61/5 54/61/5
f  11/61/1 66/61/1 67/61/1
f  68/61/3 61/61/3 62/61/3
f  68/61/1 56/61/1 66/61/1
f  28/61/4 15/61/4 16/61/4
f  43/61/6 33/61/6 40/61/6
f  40/61/5 33/61/5 43/61/5
f  45/61/6 33/61/6 29/61/6
f  29/61/4 15/61/4 28/61/4
f  30/61/1 18/61/1 19/61/1
f  31/61/1 19/61/1 20/61/1
f  32/61/3 16/61/3 21/61/3
f  21/61/1 33/61/1 32/61/1
f  33/61/6 43/61/6 21/61/6
f  21/61/5 43/61/5 33/61/5
f  27/61/3 43/61/3 18/61/3
f  31/61/5 35/61/5 24/61/5
f  24/61/6 35/61/6 31/61/6
f  22/61/4 23/61/4 34/61/4
f  35/61/4 24/61/4 22/61/4
f  36/61/4 34/61/4 23/61/4
f  36/61/3 18/61/3 34/61/3
f  36/61/3 27/61/3 18/61/3
f  37/61/1 25/61/1 26/61/1
f  25/61/3 38/61/3 27/61/3
f  27/61/5 40/61/5 43/61/5
f  43/61/6 40/61/6 27/61/6
f  47/61/6 26/61/6 41/61/6
f  41/61/4 40/61/4 39/61/4
f  31/61/7 69/61/7 42/61/7
f  29/61/3 13/61/3 24/61/3
f  70/61/6 69/61/6 59/61/6
f  70/61/7 42/61/7 69/61/7
f  42/61/2 35/61/2 19/61/2
f  35/61/5 31/61/5 42/61/5
f  42/61/6 31/61/6 35/61/6
f  50/61/2 35/61/2 8/61/2
f  29/61/6 14/61/6 46/61/6
f  46/61/5 14/61/5 29/61/5
f  46/61/2 49/61/2 8/61/2
f  68/61/6 66/61/6 61/61/6
f  56/61/1 67/61/1 66/61/1
f  28/61/5 16/61/5 44/61/5
f  43/61/4 38/61/4 40/61/4
f  45/61/1 44/61/1 33/61/1
f  45/61/3 29/61/3 24/61/3
f  45/61/5 46/61/5 29/61/5
f  29/61/6 46/61/6 45/61/6
f  46/61/4 29/61/4 28/61/4
f  30/61/3 34/61/3 18/61/3
f  30/61/5 19/61/5 34/61/5
f  42/61/1 19/61/1 31/61/1
f  32/61/5 44/61/5 16/61/5
f  44/61/1 32/61/1 33/61/1
f  43/61/3 27/61/3 38/61/3
f  47/61/6 35/61/6 24/61/6
f  24/61/5 35/61/5 47/61/5
f  22/61/5 34/61/5 19/61/5
f  22/61/2 19/61/2 35/61/2
f  25/61/5 37/61/5 38/61/5
f  47/61/1 37/61/1 26/61/1
f  47/61/3 41/61/3 24/61/3
f  47/61/5 48/61/5 41/61/5
f  41/61/6 48/61/6 47/61/6
f  39/61/4 40/61/4 38/61/4
f  48/61/4 41/61/4 39/61/4
f  35/61/6 47/61/6 50/61/6
f  50/61/5 47/61/5 35/61/5
f  48/61/2 50/61/2 8/61/2
f  49/61/2 48/61/2 8/61/2
f  49/61/2 46/61/2 44/61/2
f  46/61/5 45/61/5 49/61/5
f  49/61/6 45/61/6 46/61/6
f  28/61/2 44/61/2 46/61/2
f  49/61/1 44/61/1 45/61/1
f  41/61/3 45/61/3 24/61/3
f  39/61/5 38/61/5 37/61/5
f  50/61/1 37/61/1 47/61/1
f  48/61/5 47/61/5 50/61/5
f  50/61/6 47/61/6 48/61/6
f  45/61/6 48/61/6 41/61/6
f  41/61/5 48/61/5 45/61/5
f  39/61/2 37/61/2 48/61/2
f  50/61/2 48/61/2 37/61/2
f  48/61/6 45/61/6 49/61/6
f  49/61/5 45/61/5 48/61/5

# Mesh 'mesh1_mesh1-geometry' with 44 faces
g mesh1_mesh1-geometry
usemtl material_2_3_8
f  3/62/1 51/63/1 1/64/1
f  18/65/2 3/62/2 5/66/2
f  51/63/1 3/62/1 53/67/1
f  51/63/3 20/68/3 1/64/3
f  1/64/3 23/69/3 12/70/3
f  57/71/2 3/62/2 18/65/2
f  18/65/2 5/66/2 17/72/2
f  3/62/2 57/71/2 53/67/2
f  57/73/5 51/63/5 53/74/5
f  20/68/3 51/63/3 58/75/3
f  1/64/3 20/68/3 23/69/3
f  12/70/3 23/69/3 26/76/3
f  6/62/1 59/63/1 8/64/1
f  12/70/3 33/77/3 15/78/3
f  20/68/8 57/79/8 18/80/8
f  18/65/2 17/72/2 21/81/2
f  51/63/5 57/73/5 58/75/5
f  57/79/8 20/68/8 58/75/8
f  12/70/3 26/76/3 40/82/3
f  31/65/2 6/62/2 13/66/2
f  59/63/1 6/62/1 65/67/1
f  59/63/3 42/68/3 8/64/3
f  12/70/3 40/82/3 33/77/3
f  18/65/2 21/81/2 43/83/2
f  69/71/2 6/62/2 31/65/2
f  31/65/2 13/66/2 24/84/2
f  6/62/2 69/71/2 65/67/2
f  69/73/5 59/63/5 65/74/5
f  42/68/3 59/63/3 70/75/3
f  8/64/3 42/68/3 35/69/3
f  8/64/3 46/78/3 14/70/3
f  18/65/2 43/83/2 27/85/2
f  18/65/2 27/85/2 36/84/2
f  42/68/8 69/79/8 31/80/8
f  24/84/2 13/66/2 29/72/2
f  59/63/5 69/73/5 70/75/5
f  69/79/8 42/68/8 70/75/8
f  8/64/3 35/69/3 50/76/3
f  8/64/3 49/77/3 46/78/3
f  24/84/2 29/72/2 45/81/2
f  24/84/2 41/83/2 47/85/2
f  8/64/3 50/76/3 48/82/3
f  8/64/3 48/82/3 49/77/3
f  24/84/2 45/81/2 41/83/2

# Mesh 'mesh1_mesh1-geometry' with 30 faces
g mesh1_mesh1-geometry
usemtl material_3_5_8
f  52/86/1 2/87/1 4/88/1
f  2/87/1 52/86/1 54/89/1
f  52/86/1 4/88/1 55/90/1
f  56/91/3 4/92/3 10/93/3
f  60/94/1 54/89/1 52/86/1
f  54/95/2 11/96/2 2/97/2
f  55/90/1 4/88/1 61/98/1
f  62/99/6 52/100/6 55/101/6
f  11/102/4 63/103/4 10/104/4
f  4/92/3 56/91/3 64/105/3
f  10/104/4 62/106/4 56/107/4
f  54/89/1 60/94/1 64/108/1
f  52/109/3 66/110/3 60/111/3
f  11/96/2 54/95/2 67/112/2
f  64/108/1 61/98/1 4/88/1
f  61/113/2 62/114/2 55/115/2
f  52/100/6 62/99/6 63/116/6
f  63/103/4 11/102/4 66/117/4
f  10/104/4 63/103/4 62/106/4
f  56/118/6 54/119/6 64/120/6
f  68/121/4 56/107/4 62/106/4
f  64/108/1 60/94/1 61/98/1
f  66/110/3 52/109/3 63/122/3
f  66/123/5 61/124/5 60/125/5
f  54/119/6 56/118/6 67/126/6
f  67/127/4 66/117/4 11/102/4
f  62/114/2 61/113/2 68/128/2
f  66/117/4 56/107/4 68/121/4
f  61/124/5 66/123/5 68/129/5
f  66/117/4 67/127/4 56/107/4

# Mesh 'mesh1_mesh1-geometry' with 8 faces
g mesh1_mesh1-geometry
usemtl material_0_2_8
f  12/130/5 6/131/5 1/61/5
f  6/131/5 12/130/5 13/132/5
f  20/133/5 24/134/5 23/135/5
f  33/136/5 29/137/5 15/138/5
f  24/134/5 20/133/5 31/139/5
f  26/140/5 41/141/5 40/142/5
f  29/137/5 33/136/5 45/143/5
f  41/141/5 26/140/5 47/144/5

# Mesh 'mesh1_mesh1-geometry' with 8 faces
g mesh1_mesh1-geometry
usemtl material_0_4_8
f  9/145/6 11/133/6 10/139/6
f  11/133/6 9/145/6 7/146/6
f  44/147/6 16/148/6 28/149/6
f  34/150/6 19/131/6 30/61/6
f  16/148/6 44/147/6 32/151/6
f  19/131/6 34/150/6 22/152/6
f  38/136/6 37/153/6 25/154/6
f  37/153/6 38/136/6 39/143/6

# Mesh 'mesh2_mesh2-geometry' with 1 faces
g mesh2_mesh2-geometry
usemtl material_1_0
l  17 5

# Mesh 'mesh3_mesh3-geometry' with 1 faces
g mesh3_mesh3-geometry
usemtl material_1_0
l  35 24

# Mesh 'mesh4_mesh4-geometry' with 1 faces
g mesh4_mesh4-geometry
usemtl material_1_0
l  27 36

# Mesh 'mesh5_mesh5-geometry' with 1 faces
g mesh5_mesh5-geometry
usemtl material_1_0
l  21 43

# Mesh 'mesh6_mesh6-geometry' with 1 faces
g mesh6_mesh6-geometry
usemtl material_1_0
l  46 29

