# File produced by Open Asset Import Library (http://www.assimp.sf.net)
# (assimp v3.2.202087883)

mtllib model_normalized.mtl

# 96 vertex positions
v -0.416131 0.103970 -0.047858
v -0.416131 -0.087461 0.047858
v -0.416131 0.103970 0.047858
v -0.416131 -0.087461 -0.047858
v -0.401774 0.103970 0.047858
v -0.401774 -0.087461 -0.047858
v -0.401774 -0.087461 0.047858
v -0.401774 0.103970 -0.047858
v -0.454417 0.043199 0.062215
v -0.454417 0.103970 0.047858
v -0.454417 0.043199 0.047858
v -0.454417 0.103970 0.062215
v 0.454879 0.043199 0.047858
v -0.419472 0.008255 0.062215
v 0.454879 0.103970 0.062215
v 0.454879 0.103970 0.047858
v 0.414387 0.008255 0.047858
v -0.419472 0.008255 0.047858
v 0.414387 0.008255 0.062215
v 0.454879 0.043199 0.062215
v 0.416593 -0.070710 0.086144
v 0.416593 -0.094639 0.057429
v 0.416593 -0.094639 0.086144
v 0.416593 -0.087461 0.050251
v 0.430951 -0.094639 0.086144
v 0.416593 -0.087461 -0.050251
v 0.430951 -0.087461 0.050251
v 0.430951 -0.094639 0.057429
v 0.430951 -0.070710 0.086144
v 0.416593 -0.070710 -0.086144
v 0.416593 -0.046782 0.062215
v 0.416593 -0.094639 -0.086144
v 0.430951 -0.087461 -0.050251
v 0.430951 -0.070710 -0.086144
v 0.430951 -0.046782 0.062215
v 0.416593 -0.094639 -0.057429
v 0.416593 -0.046782 -0.062215
v 0.430951 -0.094639 -0.057429
v 0.430951 -0.046782 -0.062215
v 0.430951 -0.094639 -0.086144
v -0.478346 0.118327 0.098108
v 0.478808 0.118327 0.002393
v -0.478346 0.118327 0.002393
v 0.478808 0.118327 0.098108
v -0.478346 0.103970 0.002393
v 0.478808 0.103970 0.098108
v 0.478808 0.103970 0.002393
v -0.478346 0.103970 0.098108
v 0.402236 0.103970 -0.047858
v 0.402236 -0.087461 0.047858
v 0.402236 0.103970 0.047858
v 0.402236 -0.087461 -0.047858
v 0.416593 0.103970 0.047858
v 0.416593 -0.087461 -0.047858
v 0.416593 -0.087461 0.047858
v 0.416593 0.103970 -0.047858
v -0.478346 0.118327 -0.002393
v 0.478808 0.118327 -0.098108
v -0.478346 0.118327 -0.098108
v 0.478808 0.118327 -0.002393
v -0.478346 0.103970 -0.098108
v 0.478808 0.103970 -0.002393
v 0.478808 0.103970 -0.098108
v -0.478346 0.103970 -0.002393
v -0.454417 0.043199 -0.047858
v -0.454417 0.103970 -0.062215
v -0.454417 0.043199 -0.062215
v -0.454417 0.103970 -0.047858
v 0.454879 0.043199 -0.062215
v -0.419472 0.008255 -0.047858
v 0.454879 0.103970 -0.047858
v 0.454879 0.103970 -0.062215
v 0.414387 0.008255 -0.062215
v -0.419472 0.008255 -0.062215
v 0.414387 0.008255 -0.047858
v 0.454879 0.043199 -0.047858
v -0.430488 -0.070710 0.086144
v -0.430488 -0.094639 0.057429
v -0.430488 -0.094639 0.086144
v -0.430488 -0.087461 0.050251
v -0.416131 -0.094639 0.086144
v -0.430488 -0.087461 -0.050251
v -0.416131 -0.087461 0.050251
v -0.416131 -0.094639 0.057429
v -0.416131 -0.070710 0.086144
v -0.430488 -0.070710 -0.086144
v -0.430488 -0.046782 0.062215
v -0.430488 -0.094639 -0.086144
v -0.416131 -0.087461 -0.050251
v -0.416131 -0.070710 -0.086144
v -0.416131 -0.046782 0.062215
v -0.430488 -0.094639 -0.057429
v -0.430488 -0.046782 -0.062215
v -0.416131 -0.094639 -0.057429
v -0.416131 -0.046782 -0.062215
v -0.416131 -0.094639 -0.086144

# 207 UV coordinates
vt 5.09616 13.1583 0
vt 4.30876 14.7331 0
vt 4.30876 13.1583 0
vt 5.09616 14.7331 0
vt -14.7331 0.11811 0
vt -13.1583 0 0
vt -13.1583 0.11811 0
vt 4.30876 0 0
vt 5.09616 0.11811 0
vt 4.30876 0.11811 0
vt 13.1583 0.11811 0
vt 14.7331 0 0
vt 14.7331 0.11811 0
vt -5.09616 0 0
vt -4.30876 0.11811 0
vt -5.09616 0.11811 0
vt -14.7331 0 0
vt 5.09616 0 0
vt 13.1583 0 0
vt -4.30876 0 0
vt -5.09616 14.7331 0
vt -4.30876 13.1583 0
vt -4.30876 14.7331 0
vt -5.09616 13.1583 0
vt 0 1.04987 0
vt 0 1.31234 0
vt 0.131234 1.04987 0
vt 0.131234 1.31234 0
vt -1.04987 0.019685 0
vt -1.04987 0 0
vt -1.31234 0.019685 0
vt 0 0.019685 0
vt 0.131234 0.019685 0
vt 0 0 0
vt 1.31234 0.019685 0
vt 1.31234 0 0
vt 1.04987 0.019685 0
vt -0.131234 0.019685 0
vt -0.131234 0 0
vt -1.31234 0 0
vt 0.131234 0 0
vt 1.04987 0 0
vt -0.131234 1.31234 0
vt -0.131234 1.04987 0
vt 4.80869 0.11811 0
vt 4.80869 0 0
vt -4.30876 7.05598 0
vt -4.80869 14.5363 0
vt -4.80869 7.05598 0
vt 9.5124 5.50955 0
vt 9.91895 5.62766 0
vt 9.5124 5.62766 0
vt 4.80869 7.05598 0
vt 4.30876 14.5363 0
vt 4.30876 7.05598 0
vt -14.5363 0.11811 0
vt -7.05598 0 0
vt -7.05598 0.11811 0
vt -4.30876 14.5363 0
vt -5.09616 14.2032 0
vt 9.91895 5.50955 0
vt 5.09616 14.2032 0
vt 5.09616 7.34345 0
vt 4.80869 14.5363 0
vt -14.5363 0 0
vt -4.80869 0 0
vt -6.51853 -5.50955 0
vt -6.07853 -5.62766 0
vt -6.07853 -5.50955 0
vt -5.09616 7.34345 0
vt 14.2032 0 0
vt 7.34345 0.11811 0
vt 7.34345 0 0
vt 14.2032 0.11811 0
vt -4.80869 0.11811 0
vt -6.51853 -5.62766 0
vt 0.083322 0 0
vt 0.083322 0.019685 0
vt -0.083322 0.032808 0
vt -0.083322 1.27953 0
vt 0 0.032808 0
vt 0.082116 0.019685 0
vt 0.149874 0.019685 0
vt 0.082116 0 0
vt 0 1.27953 0
vt 0.083322 0.032808 0
vt -0.032808 0.019685 0
vt -0.032808 0 0
vt -1.27953 0.019685 0
vt -0.131234 1.22401 0
vt 0.149874 0 0
vt 0.131234 0.08072 0
vt 0.131234 1.22401 0
vt 0.083322 1.27953 0
vt -1.27953 0 0
vt -0.083322 0 0
vt 0.840912 0 0
vt 0.840912 0.019685 0
vt 0.914246 0 0
vt -0.131234 0.08072 0
vt 0.08072 0 0
vt 0.08072 0.019685 0
vt 1.22401 0 0
vt 1.22401 0.019685 0
vt -0.083322 0.019685 0
vt 0.914246 0.019685 0
vt 1.41732 0.19685 0
vt 1.1811 0 0
vt 1.41732 0 0
vt 1.12205 0.059055 0
vt -1.1811 0 0
vt -1.41732 0.11811 0
vt -1.41732 0 0
vt 0.11811 0 0
vt 0 0.19685 0
vt 0.295276 0.059055 0
vt -0.11811 -0.751649 0
vt 0 -0.835165 0
vt 0 -0.751649 0
vt -1.1811 0.11811 0
vt 0.11811 0.19685 0
vt -0.295276 0 0
vt -1.12205 0.11811 0
vt -1.12205 0 0
vt -0.11811 -0.835165 0
vt -1.12205 0.059055 0
vt -1.41732 0.19685 0
vt 0.11811 -0.863004 0
vt 0 -0.584616 0
vt 0 -0.863004 0
vt 1.22047 0.393701 0
vt -0.295276 0.11811 0
vt 0.11811 -0.584616 0
vt 0.23622 0 0
vt -0.11811 0.19685 0
vt 0.19685 0.393701 0
vt 0 0.25055 0
vt 0.11811 0.167033 0
vt 0.11811 0.25055 0
vt -0.295276 0.059055 0
vt -0.19685 0.393701 0
vt -1.22047 0.393701 0
vt 0.19685 0.11811 0
vt 1.22047 0 0
vt 1.22047 0.11811 0
vt -0.23622 0.11811 0
vt -0.23622 0 0
vt 0 0.167033 0
vt -0.11811 0 0
vt 0 0.139194 0
vt -0.11811 0.417583 0
vt -0.11811 0.139194 0
vt 0.19685 0 0
vt 0 0.417583 0
vt 0 0.11811 0
vt 0.23622 0.032808 0
vt 0.187008 0.009843 0
vt -0.23622 0.019685 0
vt -0.19685 0 0
vt 0.019685 0 0
vt 0.049213 0.009843 0
vt 0 -0.125275 0
vt 0 -0.139194 0
vt -0.019685 -0.125275 0
vt -0.19685 0.019685 0
vt 0.019685 0.032808 0
vt -0.187008 0 0
vt -0.187008 0.019685 0
vt -0.049213 0 0
vt -0.019685 -0.139194 0
vt -0.187008 0.009843 0
vt -0.23622 0.032808 0
vt 0 -0.143834 0
vt 0 -0.097436 0
vt 0.019685 -0.143834 0
vt 0.203412 0.065617 0
vt -0.049213 0.019685 0
vt 0.019685 -0.097436 0
vt 0.03937 0 0
vt -0.019685 0.032808 0
vt 0.032808 0.065617 0
vt 0.019685 0.041758 0
vt 0.019685 0.027839 0
vt 0 0.041758 0
vt -0.049213 0.009843 0
vt -0.032808 0.065617 0
vt -0.203412 0.065617 0
vt 0.203412 0.019685 0
vt 0.203412 0 0
vt 0.032808 0.019685 0
vt -0.03937 0 0
vt -0.03937 0.019685 0
vt 0 0.027839 0
vt -0.019685 0 0
vt -0.019685 0.023199 0
vt -0.019685 0.069597 0
vt 0 0.023199 0
vt 0.032808 0 0
vt 0 0.069597 0
vt 5.09616 6.85913 0
vt 4.30876 6.85913 0
vt -6.85913 0 0
vt -6.85913 0.11811 0
vt 6.85913 0.11811 0
vt 6.85913 0 0
vt -4.30876 6.85913 0
vt -5.09616 6.85913 0

# 14 vertex normals
vn -0.0254 0 0
vn 0 0 0.0254
vn 0 0.0254 0
vn 0 0 -0.0254
vn 0 -0.0254 0
vn 0.0254 0 0
vn -0.0179605 -0.0179605 0
vn 0.0165949 -0.0192294 0
vn 0.0179605 0.0179605 0
vn -0.0165949 0.0192294 -0
vn -0 -0.0179605 -0.0179605
vn 0 0.0179605 0.0179605
vn 0 -0.0179605 0.0179605
vn 0 0.0179605 -0.0179605

# Mesh 'mesh1_mesh1-geometry' with 12 faces
g mesh1_mesh1-geometry
usemtl material_0_2_8
f  1/1/1 2/2/1 3/3/1
f  2/2/1 1/1/1 4/4/1
f  2/5/2 5/6/2 3/7/2
f  5/8/3 1/9/3 3/10/3
f  1/11/4 6/12/4 4/13/4
f  6/14/5 2/15/5 4/16/5
f  5/6/2 2/5/2 7/17/2
f  1/9/3 5/8/3 8/18/3
f  6/12/4 1/11/4 8/19/4
f  2/15/5 6/14/5 7/20/5
f  6/21/6 5/22/6 7/23/6
f  5/22/6 6/21/6 8/24/6

# Mesh 'mesh1_mesh1-geometry' with 12 faces
g mesh1_mesh1-geometry
usemtl material_1_1_8
f  3/25/6 2/26/6 1/27/6
f  4/28/6 1/27/6 2/26/6
f  3/29/4 5/30/4 2/31/4
f  3/32/5 1/33/5 5/34/5
f  4/35/2 6/36/2 1/37/2
f  4/38/3 2/32/3 6/39/3
f  7/40/4 2/31/4 5/30/4
f  8/41/5 5/34/5 1/33/5
f  8/42/2 1/37/2 6/36/2
f  7/34/3 6/39/3 2/32/3
f  7/26/1 5/25/1 6/43/1
f  8/44/1 6/43/1 5/25/1

# Mesh 'mesh2_mesh2-geometry' with 20 faces
g mesh2_mesh2-geometry
usemtl material_0_2_8
f  9/45/1 10/8/1 11/46/1
f  10/8/1 9/45/1 12/10/1
f  10/47/4 13/48/4 11/49/4
f  11/50/7 14/51/7 9/52/7
f  9/53/2 15/54/2 12/55/2
f  15/56/3 10/57/3 12/58/3
f  13/48/4 10/47/4 16/59/4
f  11/49/4 13/48/4 17/60/4
f  14/51/7 11/50/7 18/61/7
f  19/62/2 9/53/2 14/63/2
f  15/54/2 9/53/2 20/64/2
f  10/57/3 15/56/3 16/65/3
f  15/15/6 13/66/6 16/20/6
f  13/67/8 19/68/8 17/69/8
f  11/49/4 17/60/4 18/70/4
f  17/71/5 14/72/5 18/73/5
f  20/64/2 9/53/2 19/62/2
f  14/72/5 17/71/5 19/74/5
f  13/66/6 15/15/6 20/75/6
f  19/68/8 13/67/8 20/76/8

# Mesh 'mesh2_mesh2-geometry' with 20 faces
g mesh2_mesh2-geometry
usemtl material_1_1_8
f  11/77/6 10/34/6 9/78/6
f  12/32/6 9/78/6 10/34/6
f  11/79/2 13/80/2 10/81/2
f  9/82/9 14/83/9 11/84/9
f  12/81/4 15/85/4 9/86/4
f  12/87/5 10/88/5 15/89/5
f  16/85/2 10/81/2 13/80/2
f  17/90/2 13/80/2 11/79/2
f  18/91/9 11/84/9 14/83/9
f  14/92/4 9/86/4 19/93/4
f  20/94/4 9/86/4 15/85/4
f  16/95/5 15/89/5 10/88/5
f  16/34/1 13/96/1 15/32/1
f  17/97/10 19/98/10 13/99/10
f  18/100/2 17/90/2 11/79/2
f  18/101/3 14/102/3 17/103/3
f  19/93/4 9/86/4 20/94/4
f  19/104/3 17/103/3 14/102/3
f  20/105/1 15/32/1 13/96/1
f  20/106/10 13/99/10 19/98/10

# Mesh 'mesh3_mesh3-geometry' with 36 faces
g mesh3_mesh3-geometry
usemtl material_0_2_8
f  21/107/1 22/108/1 23/109/1
f  22/108/1 21/107/1 24/110/1
f  22/111/5 25/112/5 23/113/5
f  25/114/2 21/115/2 23/34/2
f  24/110/1 21/107/1 26/116/1
f  27/117/11 22/118/11 24/119/11
f  25/112/5 22/111/5 28/120/5
f  21/115/2 25/114/2 29/121/2
f  30/115/1 26/116/1 21/107/1
f  26/122/5 27/123/5 24/124/5
f  22/118/11 27/117/11 28/125/11
f  27/126/6 25/113/6 28/111/6
f  25/113/6 27/126/6 29/127/6
f  29/128/12 31/129/12 21/130/12
f  32/34/1 26/116/1 30/115/1
f  30/115/1 21/107/1 31/131/1
f  27/123/5 26/122/5 33/132/5
f  29/127/6 27/126/6 34/115/6
f  31/129/12 29/128/12 35/133/12
f  26/116/1 32/34/1 36/134/1
f  34/135/4 32/34/4 30/115/4
f  30/115/1 31/131/1 37/136/1
f  26/137/13 38/138/13 33/139/13
f  33/140/6 34/115/6 27/126/6
f  29/127/6 34/115/6 39/141/6
f  29/127/6 39/141/6 35/142/6
f  39/143/3 31/144/3 35/145/3
f  32/34/5 38/146/5 36/147/5
f  38/138/13 26/137/13 36/148/13
f  32/34/4 34/135/4 40/149/4
f  30/150/14 39/151/14 34/152/14
f  31/144/3 39/143/3 37/153/3
f  39/151/14 30/150/14 37/154/14
f  38/147/6 34/115/6 33/140/6
f  38/146/5 32/34/5 40/155/5
f  34/115/6 38/147/6 40/34/6

# Mesh 'mesh3_mesh3-geometry' with 36 faces
g mesh3_mesh3-geometry
usemtl material_1_1_8
f  23/134/6 22/153/6 21/156/6
f  24/157/6 21/156/6 22/153/6
f  23/147/3 25/158/3 22/159/3
f  23/34/4 21/81/4 25/160/4
f  26/161/6 21/156/6 24/157/6
f  24/162/12 22/163/12 27/164/12
f  28/165/3 22/159/3 25/158/3
f  29/166/4 25/160/4 21/81/4
f  21/156/6 26/161/6 30/81/6
f  24/167/3 27/168/3 26/169/3
f  28/170/12 27/164/12 22/163/12
f  28/159/1 25/147/1 27/171/1
f  29/172/1 27/171/1 25/147/1
f  21/173/11 31/174/11 29/175/11
f  30/81/6 26/161/6 32/34/6
f  31/176/6 21/156/6 30/81/6
f  33/177/3 26/169/3 27/168/3
f  34/81/1 27/171/1 29/172/1
f  35/178/11 29/175/11 31/174/11
f  36/179/6 32/34/6 26/161/6
f  30/81/2 32/34/2 34/180/2
f  37/181/6 31/176/6 30/81/6
f  33/182/14 38/183/14 26/184/14
f  27/171/1 34/81/1 33/185/1
f  39/186/1 34/81/1 29/172/1
f  35/187/1 39/186/1 29/172/1
f  35/188/5 31/189/5 39/190/5
f  36/191/3 38/192/3 32/34/3
f  36/193/14 26/184/14 38/183/14
f  40/194/2 34/180/2 32/34/2
f  34/195/13 39/196/13 30/197/13
f  37/198/5 39/190/5 31/189/5
f  37/199/13 30/197/13 39/196/13
f  33/185/1 34/81/1 38/191/1
f  40/32/3 32/34/3 38/192/3
f  40/34/1 38/191/1 34/81/1

# Mesh 'mesh4_mesh4-geometry' with 12 faces
g mesh4_mesh4-geometry
usemtl material_0_2_8
f  41/200/3 42/2/3 43/201/3
f  42/2/3 41/200/3 44/4/3
f  42/5/4 45/202/4 43/203/4
f  45/8/1 41/9/1 43/10/1
f  41/204/2 46/12/2 44/13/2
f  46/14/6 42/15/6 44/16/6
f  45/202/4 42/5/4 47/17/4
f  41/9/1 45/8/1 48/18/1
f  46/12/2 41/204/2 48/205/2
f  42/15/6 46/14/6 47/20/6
f  46/21/5 45/206/5 47/23/5
f  45/206/5 46/21/5 48/207/5

# Mesh 'mesh4_mesh4-geometry' with 12 faces
g mesh4_mesh4-geometry
usemtl material_1_1_8
f  43/34/5 42/26/5 41/41/5
f  44/28/5 41/41/5 42/26/5
f  43/32/2 45/34/2 42/31/2
f  43/32/6 41/33/6 45/34/6
f  44/35/4 46/36/4 41/32/4
f  44/38/1 42/32/1 46/39/1
f  47/40/2 42/31/2 45/34/2
f  48/41/6 45/34/6 41/33/6
f  48/34/4 41/32/4 46/36/4
f  47/34/1 46/39/1 42/32/1
f  47/26/3 45/34/3 46/43/3
f  48/39/3 46/43/3 45/34/3

# Mesh 'mesh1_mesh1-geometry' with 12 faces
g mesh1_mesh1-geometry
usemtl material_0_2_8
f  49/1/1 50/2/1 51/3/1
f  50/2/1 49/1/1 52/4/1
f  50/5/2 53/6/2 51/7/2
f  53/8/3 49/9/3 51/10/3
f  49/11/4 54/12/4 52/13/4
f  54/14/5 50/15/5 52/16/5
f  53/6/2 50/5/2 55/17/2
f  49/9/3 53/8/3 56/18/3
f  54/12/4 49/11/4 56/19/4
f  50/15/5 54/14/5 55/20/5
f  54/21/6 53/22/6 55/23/6
f  53/22/6 54/21/6 56/24/6

# Mesh 'mesh1_mesh1-geometry' with 12 faces
g mesh1_mesh1-geometry
usemtl material_1_1_8
f  51/25/6 50/26/6 49/27/6
f  52/28/6 49/27/6 50/26/6
f  51/29/4 53/30/4 50/31/4
f  51/32/5 49/33/5 53/34/5
f  52/35/2 54/36/2 49/37/2
f  52/38/3 50/32/3 54/39/3
f  55/40/4 50/31/4 53/30/4
f  56/41/5 53/34/5 49/33/5
f  56/42/2 49/37/2 54/36/2
f  55/34/3 54/39/3 50/32/3
f  55/26/1 53/25/1 54/43/1
f  56/44/1 54/43/1 53/25/1

# Mesh 'mesh4_mesh4-geometry' with 12 faces
g mesh4_mesh4-geometry
usemtl material_0_2_8
f  57/200/3 58/2/3 59/201/3
f  58/2/3 57/200/3 60/4/3
f  58/5/4 61/202/4 59/203/4
f  61/8/1 57/9/1 59/10/1
f  57/204/2 62/12/2 60/13/2
f  62/14/6 58/15/6 60/16/6
f  61/202/4 58/5/4 63/17/4
f  57/9/1 61/8/1 64/18/1
f  62/12/2 57/204/2 64/205/2
f  58/15/6 62/14/6 63/20/6
f  62/21/5 61/206/5 63/23/5
f  61/206/5 62/21/5 64/207/5

# Mesh 'mesh4_mesh4-geometry' with 12 faces
g mesh4_mesh4-geometry
usemtl material_1_1_8
f  59/34/5 58/26/5 57/41/5
f  60/28/5 57/41/5 58/26/5
f  59/32/2 61/34/2 58/31/2
f  59/32/6 57/33/6 61/34/6
f  60/35/4 62/36/4 57/32/4
f  60/38/1 58/32/1 62/39/1
f  63/40/2 58/31/2 61/34/2
f  64/41/6 61/34/6 57/33/6
f  64/34/4 57/32/4 62/36/4
f  63/34/1 62/39/1 58/32/1
f  63/26/3 61/34/3 62/43/3
f  64/39/3 62/43/3 61/34/3

# Mesh 'mesh2_mesh2-geometry' with 20 faces
g mesh2_mesh2-geometry
usemtl material_0_2_8
f  65/45/1 66/8/1 67/46/1
f  66/8/1 65/45/1 68/10/1
f  66/47/4 69/48/4 67/49/4
f  67/50/7 70/51/7 65/52/7
f  65/53/2 71/54/2 68/55/2
f  71/56/3 66/57/3 68/58/3
f  69/48/4 66/47/4 72/59/4
f  67/49/4 69/48/4 73/60/4
f  70/51/7 67/50/7 74/61/7
f  75/62/2 65/53/2 70/63/2
f  71/54/2 65/53/2 76/64/2
f  66/57/3 71/56/3 72/65/3
f  71/15/6 69/66/6 72/20/6
f  69/67/8 75/68/8 73/69/8
f  67/49/4 73/60/4 74/70/4
f  73/71/5 70/72/5 74/73/5
f  76/64/2 65/53/2 75/62/2
f  70/72/5 73/71/5 75/74/5
f  69/66/6 71/15/6 76/75/6
f  75/68/8 69/67/8 76/76/8

# Mesh 'mesh2_mesh2-geometry' with 20 faces
g mesh2_mesh2-geometry
usemtl material_1_1_8
f  67/77/6 66/34/6 65/78/6
f  68/32/6 65/78/6 66/34/6
f  67/79/2 69/80/2 66/81/2
f  65/82/9 70/83/9 67/84/9
f  68/81/4 71/85/4 65/86/4
f  68/87/5 66/88/5 71/89/5
f  72/85/2 66/81/2 69/80/2
f  73/90/2 69/80/2 67/79/2
f  74/91/9 67/84/9 70/83/9
f  70/92/4 65/86/4 75/93/4
f  76/94/4 65/86/4 71/85/4
f  72/95/5 71/89/5 66/88/5
f  72/34/1 69/96/1 71/32/1
f  73/97/10 75/98/10 69/99/10
f  74/100/2 73/90/2 67/79/2
f  74/101/3 70/102/3 73/103/3
f  75/93/4 65/86/4 76/94/4
f  75/104/3 73/103/3 70/102/3
f  76/105/1 71/32/1 69/96/1
f  76/106/10 69/99/10 75/98/10

# Mesh 'mesh3_mesh3-geometry' with 36 faces
g mesh3_mesh3-geometry
usemtl material_0_2_8
f  77/107/1 78/108/1 79/109/1
f  78/108/1 77/107/1 80/110/1
f  78/111/5 81/112/5 79/113/5
f  81/114/2 77/115/2 79/34/2
f  80/110/1 77/107/1 82/116/1
f  83/117/11 78/118/11 80/119/11
f  81/112/5 78/111/5 84/120/5
f  77/115/2 81/114/2 85/121/2
f  86/115/1 82/116/1 77/107/1
f  82/122/5 83/123/5 80/124/5
f  78/118/11 83/117/11 84/125/11
f  83/126/6 81/113/6 84/111/6
f  81/113/6 83/126/6 85/127/6
f  85/128/12 87/129/12 77/130/12
f  88/34/1 82/116/1 86/115/1
f  86/115/1 77/107/1 87/131/1
f  83/123/5 82/122/5 89/132/5
f  85/127/6 83/126/6 90/115/6
f  87/129/12 85/128/12 91/133/12
f  82/116/1 88/34/1 92/134/1
f  90/135/4 88/34/4 86/115/4
f  86/115/1 87/131/1 93/136/1
f  82/137/13 94/138/13 89/139/13
f  89/140/6 90/115/6 83/126/6
f  85/127/6 90/115/6 95/141/6
f  85/127/6 95/141/6 91/142/6
f  95/143/3 87/144/3 91/145/3
f  88/34/5 94/146/5 92/147/5
f  94/138/13 82/137/13 92/148/13
f  88/34/4 90/135/4 96/149/4
f  86/150/14 95/151/14 90/152/14
f  87/144/3 95/143/3 93/153/3
f  95/151/14 86/150/14 93/154/14
f  94/147/6 90/115/6 89/140/6
f  94/146/5 88/34/5 96/155/5
f  90/115/6 94/147/6 96/34/6

# Mesh 'mesh3_mesh3-geometry' with 36 faces
g mesh3_mesh3-geometry
usemtl material_1_1_8
f  79/134/6 78/153/6 77/156/6
f  80/157/6 77/156/6 78/153/6
f  79/147/3 81/158/3 78/159/3
f  79/34/4 77/81/4 81/160/4
f  82/161/6 77/156/6 80/157/6
f  80/162/12 78/163/12 83/164/12
f  84/165/3 78/159/3 81/158/3
f  85/166/4 81/160/4 77/81/4
f  77/156/6 82/161/6 86/81/6
f  80/167/3 83/168/3 82/169/3
f  84/170/12 83/164/12 78/163/12
f  84/159/1 81/147/1 83/171/1
f  85/172/1 83/171/1 81/147/1
f  77/173/11 87/174/11 85/175/11
f  86/81/6 82/161/6 88/34/6
f  87/176/6 77/156/6 86/81/6
f  89/177/3 82/169/3 83/168/3
f  90/81/1 83/171/1 85/172/1
f  91/178/11 85/175/11 87/174/11
f  92/179/6 88/34/6 82/161/6
f  86/81/2 88/34/2 90/180/2
f  93/181/6 87/176/6 86/81/6
f  89/182/14 94/183/14 82/184/14
f  83/171/1 90/81/1 89/185/1
f  95/186/1 90/81/1 85/172/1
f  91/187/1 95/186/1 85/172/1
f  91/188/5 87/189/5 95/190/5
f  92/191/3 94/192/3 88/34/3
f  92/193/14 82/184/14 94/183/14
f  96/194/2 90/180/2 88/34/2
f  90/195/13 95/196/13 86/197/13
f  93/198/5 95/190/5 87/189/5
f  93/199/13 86/197/13 95/196/13
f  89/185/1 90/81/1 94/191/1
f  96/32/3 88/34/3 94/192/3
f  96/34/1 94/191/1 90/81/1

