# File produced by Open Asset Import Library (http://www.assimp.sf.net)
# (assimp v3.2.202087883)

mtllib model_normalized.mtl

# 119 vertex positions
v 0.541800 0.021418 0.142198
v 0.528115 -0.017683 0.142198
v 0.541800 -0.017683 0.142198
v 0.528115 0.021418 0.142198
v 0.541800 -0.017683 -0.178433
v 0.528115 0.021418 -0.164747
v 0.498789 -0.017683 0.142198
v 0.528115 0.099621 0.142198
v 0.528115 -0.017683 -0.178433
v 0.541800 0.021418 -0.178433
v 0.528115 0.021418 0.128513
v 0.498789 -0.142807 0.142198
v 0.498789 0.021418 0.142198
v 0.528115 -0.142807 0.142198
v 0.498789 0.099621 0.142198
v 0.528115 -0.017683 0.128513
v -0.357531 0.021418 -0.178433
v 0.528115 0.005778 -0.164747
v 0.528115 0.044879 0.128513
v 0.498789 -0.017683 0.128513
v 0.498789 -0.142807 0.155884
v -0.314520 -0.017683 0.142198
v 0.528115 -0.142807 0.155884
v 0.528115 -0.142807 0.128513
v 0.498789 0.099621 0.128513
v 0.498789 0.138722 0.142198
v 0.528115 -0.017683 -0.151062
v 0.498789 -0.017683 -0.178433
v -0.343846 0.021418 -0.164747
v -0.343846 0.021418 0.128513
v 0.528115 0.005778 -0.151062
v 0.498789 0.005778 -0.164747
v 0.528115 0.044879 -0.164747
v 0.498789 -0.142807 0.128513
v -0.314520 0.021418 0.142198
v 0.528115 0.138722 0.155884
v 0.541800 0.099621 0.142198
v -0.314520 0.099621 0.142198
v 0.528115 0.138722 0.142198
v 0.498789 0.138722 0.155884
v -0.314520 0.138722 0.142198
v 0.528115 -0.017683 -0.164747
v -0.314520 -0.017683 -0.178433
v 0.528115 -0.142807 -0.178433
v 0.498789 -0.017683 -0.151062
v -0.343846 0.021418 -0.141706
v -0.343846 0.005778 -0.164747
v -0.343846 0.044879 -0.164747
v 0.498789 0.005778 -0.151062
v -0.314520 0.005778 -0.164747
v 0.498789 -0.017683 -0.164747
v -0.343846 0.044879 0.128513
v -0.314520 -0.017683 0.128513
v -0.343846 0.021418 0.142198
v 0.541800 0.099621 0.128513
v 0.541800 0.138722 0.142198
v -0.314520 0.099621 0.128513
v -0.357531 0.138722 0.128513
v 0.528115 -0.142807 -0.164747
v -0.343846 -0.017683 -0.178433
v -0.314520 -0.017683 -0.164747
v 0.498789 -0.142807 -0.178433
v -0.357531 0.021418 -0.141706
v -0.343846 0.044879 -0.141706
v -0.343846 0.044879 -0.104208
v -0.314520 -0.142338 0.128513
v -0.343846 -0.017683 0.142198
v -0.343846 0.060520 0.142198
v -0.314520 -0.142338 0.142198
v -0.343846 0.099621 0.128513
v -0.343846 0.099621 0.142198
v -0.314520 0.138722 0.155884
v -0.343846 0.138722 0.142198
v 0.498789 -0.142807 -0.151062
v 0.528115 -0.142807 -0.151062
v 0.498789 -0.142807 -0.164747
v -0.357531 -0.017683 -0.178433
v -0.314520 -0.143120 -0.178433
v -0.343846 -0.017683 -0.151062
v -0.357531 -0.017683 0.142198
v -0.357531 0.021418 -0.104208
v -0.357531 0.060520 -0.141706
v -0.343846 0.005778 -0.151062
v -0.314520 -0.017683 -0.151062
v -0.343846 0.021418 -0.104208
v -0.343846 -0.017683 0.128513
v -0.357531 0.021418 0.142198
v -0.343846 -0.142807 0.155884
v -0.314520 -0.142807 0.142198
v 0.541800 0.138722 0.128513
v -0.314520 -0.142807 0.155884
v -0.357531 0.138722 0.142198
v -0.343846 -0.143120 -0.178433
v -0.343846 -0.017683 -0.164747
v -0.314520 -0.142807 -0.164747
v -0.343846 0.060520 -0.141706
v -0.343846 0.060520 -0.104208
v -0.314520 0.005778 -0.151062
v -0.314520 -0.142807 -0.151062
v -0.343846 -0.142338 0.142198
v -0.343846 -0.142338 0.128513
v -0.343846 0.060520 0.155884
v -0.357531 0.099621 0.142198
v -0.343846 0.138722 0.155884
v -0.357531 0.099621 0.128513
v -0.343846 -0.143120 -0.164747
v -0.343846 -0.142807 -0.151062
v -0.343846 -0.142807 -0.164747
v -0.314520 -0.143120 -0.164747
v -0.357531 0.060520 -0.104208
v -0.343846 0.060520 -0.178433
v -0.343846 -0.142807 0.142198
v -0.357531 0.060520 0.155884
v -0.343846 0.099621 0.155884
v -0.357531 0.060520 -0.178433
v -0.343846 0.099621 -0.178433
v -0.357531 0.060520 0.142198
v -0.357531 0.099621 -0.178433
v -0.357531 0.099621 0.155884

# 0 UV coordinates

# 6 vertex normals
vn 0 0 0.001
vn 0 -0 -0.001
vn 0 -0.001 0
vn 0 0.001 0
vn 0.001 0 0
vn -0.001 0 0

# Mesh 'mesh1_mesh1-geometry' with 580 faces
g mesh1_mesh1-geometry
usemtl material_0_24
f  1//1 2//1 3//1
f  2//1 1//1 4//1
f  3//2 2//2 1//2
f  4//2 1//2 2//2
f  2//3 5//3 3//3
f  3//4 5//4 2//4
f  5//5 1//5 3//5
f  3//6 1//6 5//6
f  1//4 6//4 4//4
f  4//3 6//3 1//3
f  7//1 2//1 4//1
f  4//2 2//2 7//2
f  8//5 2//5 4//5
f  4//6 2//6 8//6
f  5//3 2//3 9//3
f  9//4 2//4 5//4
f  1//5 5//5 10//5
f  10//6 5//6 1//6
f  10//4 6//4 1//4
f  1//3 6//3 10//3
f  11//4 4//4 6//4
f  6//3 4//3 11//3
f  12//1 2//1 7//1
f  7//2 2//2 12//2
f  7//1 4//1 13//1
f  13//2 4//2 7//2
f  2//5 8//5 14//5
f  14//6 8//6 2//6
f  4//2 15//2 8//2
f  8//1 15//1 4//1
f  9//3 2//3 16//3
f  16//4 2//4 9//4
f  9//2 17//2 5//2
f  5//1 17//1 9//1
f  5//2 17//2 10//2
f  10//1 17//1 5//1
f  6//4 10//4 17//4
f  17//3 10//3 6//3
f  4//4 11//4 13//4
f  13//3 11//3 4//3
f  18//6 11//6 6//6
f  6//5 11//5 18//5
f  6//5 19//5 11//5
f  11//6 19//6 6//6
f  2//1 12//1 14//1
f  14//2 12//2 2//2
f  20//6 12//6 7//6
f  7//5 12//5 20//5
f  21//6 7//6 12//6
f  12//5 7//5 21//5
f  15//2 4//2 13//2
f  13//1 4//1 15//1
f  13//1 22//1 7//1
f  7//2 22//2 13//2
f  7//6 21//6 13//6
f  13//5 21//5 7//5
f  14//5 8//5 23//5
f  23//6 8//6 14//6
f  24//5 2//5 14//5
f  14//6 2//6 24//6
f  25//3 8//3 15//3
f  15//4 8//4 25//4
f  26//2 8//2 15//2
f  15//1 8//1 26//1
f  2//5 24//5 16//5
f  16//6 24//6 2//6
f  9//3 16//3 27//3
f  27//4 16//4 9//4
f  28//2 17//2 9//2
f  9//1 17//1 28//1
f  6//4 17//4 29//4
f  29//3 17//3 6//3
f  13//4 11//4 30//4
f  30//3 11//3 13//3
f  11//6 18//6 31//6
f  31//5 18//5 11//5
f  6//1 32//1 18//1
f  18//2 32//2 6//2
f  19//5 6//5 33//5
f  33//6 6//6 19//6
f  19//1 30//1 11//1
f  11//2 30//2 19//2
f  12//3 24//3 14//3
f  14//4 24//4 12//4
f  23//3 12//3 14//3
f  14//4 12//4 23//4
f  12//6 20//6 34//6
f  34//5 20//5 12//5
f  22//3 20//3 7//3
f  7//4 20//4 22//4
f  12//3 23//3 21//3
f  21//4 23//4 12//4
f  13//6 21//6 15//6
f  15//5 21//5 13//5
f  22//1 13//1 35//1
f  35//2 13//2 22//2
f  23//5 8//5 36//5
f  36//6 8//6 23//6
f  25//3 37//3 8//3
f  8//4 37//4 25//4
f  38//3 25//3 15//3
f  15//4 25//4 38//4
f  8//2 26//2 39//2
f  39//1 26//1 8//1
f  15//6 40//6 26//6
f  26//5 40//5 15//5
f  15//2 41//2 26//2
f  26//1 41//1 15//1
f  24//2 20//2 16//2
f  16//1 20//1 24//1
f  16//6 31//6 27//6
f  27//5 31//5 16//5
f  9//3 27//3 42//3
f  42//4 27//4 9//4
f  43//2 17//2 28//2
f  28//1 17//1 43//1
f  44//2 28//2 9//2
f  9//1 28//1 44//1
f  9//3 45//3 28//3
f  28//4 45//4 9//4
f  29//4 17//4 46//4
f  46//3 17//3 29//3
f  47//1 6//1 29//1
f  29//2 6//2 47//2
f  48//2 6//2 29//2
f  29//1 6//1 48//1
f  16//2 30//2 11//2
f  11//1 30//1 16//1
f  13//4 30//4 35//4
f  35//3 30//3 13//3
f  49//3 18//3 31//3
f  31//4 18//4 49//4
f  18//6 27//6 31//6
f  31//5 27//5 18//5
f  11//6 31//6 16//6
f  16//5 31//5 11//5
f  32//1 6//1 50//1
f  50//2 6//2 32//2
f  51//1 18//1 32//1
f  32//2 18//2 51//2
f  18//3 49//3 32//3
f  32//4 49//4 18//4
f  6//2 48//2 33//2
f  33//1 48//1 6//1
f  48//4 19//4 33//4
f  33//3 19//3 48//3
f  30//1 19//1 52//1
f  52//2 19//2 30//2
f  24//3 12//3 34//3
f  34//4 12//4 24//4
f  20//2 24//2 34//2
f  34//1 24//1 20//1
f  20//3 22//3 53//3
f  53//4 22//4 20//4
f  36//1 21//1 23//1
f  23//2 21//2 36//2
f  40//6 15//6 21//6
f  21//5 15//5 40//5
f  22//2 54//2 35//2
f  35//1 54//1 22//1
f  38//5 22//5 35//5
f  35//6 22//6 38//6
f  36//5 8//5 39//5
f  39//6 8//6 36//6
f  37//3 25//3 55//3
f  55//4 25//4 37//4
f  56//1 8//1 37//1
f  37//2 8//2 56//2
f  25//3 38//3 57//3
f  57//4 38//4 25//4
f  41//2 15//2 38//2
f  38//1 15//1 41//1
f  39//4 58//4 26//4
f  26//3 58//3 39//3
f  26//4 36//4 39//4
f  39//3 36//3 26//3
f  8//1 56//1 39//1
f  39//2 56//2 8//2
f  36//4 26//4 40//4
f  40//3 26//3 36//3
f  26//4 58//4 41//4
f  41//3 58//3 26//3
f  20//2 30//2 16//2
f  16//1 30//1 20//1
f  45//2 31//2 27//2
f  27//1 31//1 45//1
f  27//5 59//5 42//5
f  42//6 59//6 27//6
f  27//6 18//6 42//6
f  42//5 18//5 27//5
f  45//3 42//3 27//3
f  27//4 42//4 45//4
f  42//5 44//5 9//5
f  9//6 44//6 42//6
f  42//3 45//3 9//3
f  9//4 45//4 42//4
f  60//2 17//2 43//2
f  43//1 17//1 60//1
f  28//3 61//3 43//3
f  43//4 61//4 28//4
f  28//2 44//2 62//2
f  62//1 44//1 28//1
f  28//3 45//3 51//3
f  51//4 45//4 28//4
f  46//4 17//4 63//4
f  63//3 17//3 46//3
f  46//5 47//5 29//5
f  29//6 47//6 46//6
f  64//6 29//6 46//6
f  46//5 29//5 64//5
f  50//1 6//1 47//1
f  47//2 6//2 50//2
f  29//6 64//6 48//6
f  48//5 64//5 29//5
f  35//4 30//4 54//4
f  54//3 30//3 35//3
f  31//2 45//2 49//2
f  49//1 45//1 31//1
f  61//1 32//1 50//1
f  50//2 32//2 61//2
f  51//1 42//1 18//1
f  18//2 42//2 51//2
f  32//1 61//1 51//1
f  51//2 61//2 32//2
f  32//5 45//5 51//5
f  51//6 45//6 32//6
f  45//5 32//5 49//5
f  49//6 32//6 45//6
f  19//4 48//4 52//4
f  52//3 48//3 19//3
f  65//6 30//6 52//6
f  52//5 30//5 65//5
f  22//5 66//5 53//5
f  53//6 66//6 22//6
f  53//2 30//2 20//2
f  20//1 30//1 53//1
f  21//1 36//1 40//1
f  40//2 36//2 21//2
f  22//2 67//2 54//2
f  54//1 67//1 22//1
f  68//2 35//2 54//2
f  54//1 35//1 68//1
f  22//5 38//5 69//5
f  69//6 38//6 22//6
f  35//2 68//2 38//2
f  38//1 68//1 35//1
f  25//2 70//2 55//2
f  55//1 70//1 25//1
f  55//5 56//5 37//5
f  37//6 56//6 55//6
f  71//3 57//3 38//3
f  38//4 57//4 71//4
f  70//2 25//2 57//2
f  57//1 25//1 70//1
f  72//5 38//5 41//5
f  41//6 38//6 72//6
f  38//2 73//2 41//2
f  41//1 73//1 38//1
f  56//4 58//4 39//4
f  39//3 58//3 56//3
f  41//4 58//4 73//4
f  73//3 58//3 41//3
f  74//1 27//1 45//1
f  45//2 27//2 74//2
f  59//5 27//5 75//5
f  75//6 27//6 59//6
f  42//1 76//1 59//1
f  59//2 76//2 42//2
f  44//5 42//5 59//5
f  59//6 42//6 44//6
f  17//2 60//2 77//2
f  77//1 60//1 17//1
f  78//2 60//2 43//2
f  43//1 60//1 78//1
f  43//3 79//3 60//3
f  60//4 79//4 43//4
f  61//3 28//3 51//3
f  51//4 28//4 61//4
f  61//5 78//5 43//5
f  43//6 78//6 61//6
f  61//3 79//3 43//3
f  43//4 79//4 61//4
f  44//3 76//3 62//3
f  62//4 76//4 44//4
f  76//6 28//6 62//6
f  62//5 28//5 76//5
f  51//6 74//6 45//6
f  45//5 74//5 51//5
f  28//6 76//6 51//6
f  51//5 76//5 28//5
f  17//6 80//6 63//6
f  63//5 80//5 17//5
f  46//3 81//3 63//3
f  63//4 81//4 46//4
f  82//2 46//2 63//2
f  63//1 46//1 82//1
f  47//5 46//5 83//5
f  83//6 46//6 47//6
f  46//2 82//2 64//2
f  64//1 82//1 46//1
f  65//5 46//5 64//5
f  64//6 46//6 65//6
f  47//1 61//1 50//1
f  50//2 61//2 47//2
f  50//3 83//3 47//3
f  47//4 83//4 50//4
f  52//4 48//4 64//4
f  64//3 48//3 52//3
f  30//4 81//4 54//4
f  54//3 81//3 30//3
f  84//6 50//6 61//6
f  61//5 50//5 84//5
f  76//1 42//1 51//1
f  51//2 42//2 76//2
f  30//6 65//6 85//6
f  85//5 65//5 30//5
f  52//4 64//4 65//4
f  65//3 64//3 52//3
f  66//5 22//5 69//5
f  69//6 22//6 66//6
f  66//2 86//2 53//2
f  53//1 86//1 66//1
f  30//2 53//2 86//2
f  86//1 53//1 30//1
f  69//2 67//2 22//2
f  22//1 67//1 69//1
f  87//1 67//1 54//1
f  54//2 67//2 87//2
f  67//6 88//6 54//6
f  54//5 88//5 67//5
f  54//6 88//6 68//6
f  68//5 88//5 54//5
f  69//5 38//5 89//5
f  89//6 38//6 69//6
f  38//2 68//2 71//2
f  71//1 68//1 38//1
f  55//2 70//2 90//2
f  90//1 70//1 55//1
f  56//5 55//5 90//5
f  90//6 55//6 56//6
f  57//3 71//3 70//3
f  70//4 71//4 57//4
f  73//2 38//2 71//2
f  71//1 38//1 73//1
f  91//5 38//5 72//5
f  72//6 38//6 91//6
f  73//4 72//4 41//4
f  41//3 72//3 73//3
f  58//4 56//4 90//4
f  90//3 56//3 58//3
f  73//4 58//4 92//4
f  92//3 58//3 73//3
f  27//1 74//1 75//1
f  75//2 74//2 27//2
f  75//3 76//3 59//3
f  59//4 76//4 75//4
f  76//3 44//3 59//3
f  59//4 44//4 76//4
f  60//3 80//3 77//3
f  77//4 80//4 60//4
f  80//6 17//6 77//6
f  77//5 17//5 80//5
f  60//2 78//2 93//2
f  93//1 78//1 60//1
f  60//3 79//3 94//3
f  94//4 79//4 60//4
f  78//5 61//5 95//5
f  95//6 61//6 78//6
f  79//3 61//3 84//3
f  84//4 61//4 79//4
f  74//6 51//6 76//6
f  76//5 51//5 74//5
f  63//6 80//6 81//6
f  81//5 80//5 63//5
f  81//3 46//3 85//3
f  85//4 46//4 81//4
f  81//6 82//6 63//6
f  63//5 82//5 81//5
f  86//5 83//5 46//5
f  46//6 83//6 86//6
f  79//5 47//5 83//5
f  83//6 47//6 79//6
f  64//2 82//2 96//2
f  96//1 82//1 64//1
f  46//5 65//5 85//5
f  85//6 65//6 46//6
f  65//5 64//5 97//5
f  97//6 64//6 65//6
f  94//1 61//1 47//1
f  47//2 61//2 94//2
f  83//3 50//3 98//3
f  98//4 50//4 83//4
f  81//4 30//4 85//4
f  85//3 30//3 81//3
f  54//4 81//4 87//4
f  87//3 81//3 54//3
f  50//6 84//6 98//6
f  98//5 84//5 50//5
f  99//5 61//5 84//5
f  84//6 61//6 99//6
f  65//1 81//1 85//1
f  85//2 81//2 65//2
f  86//5 85//5 30//5
f  30//6 85//6 86//6
f  100//3 66//3 69//3
f  69//4 66//4 100//4
f  86//2 66//2 101//2
f  101//1 66//1 86//1
f  67//2 69//2 100//2
f  100//1 69//1 67//1
f  67//1 87//1 80//1
f  80//2 87//2 67//2
f  100//6 88//6 67//6
f  67//5 88//5 100//5
f  68//6 88//6 102//6
f  102//5 88//5 68//5
f  89//5 38//5 91//5
f  91//6 38//6 89//6
f  89//2 100//2 69//2
f  69//1 100//1 89//1
f  68//5 70//5 71//5
f  71//6 70//6 68//6
f  90//2 70//2 58//2
f  58//1 70//1 90//1
f  103//3 70//3 71//3
f  71//4 70//4 103//4
f  73//1 103//1 71//1
f  71//2 103//2 73//2
f  71//6 104//6 73//6
f  73//5 104//5 71//5
f  72//1 88//1 91//1
f  91//2 88//2 72//2
f  72//4 73//4 104//4
f  104//3 73//3 72//3
f  105//6 92//6 58//6
f  58//5 92//5 105//5
f  103//1 73//1 92//1
f  92//2 73//2 103//2
f  76//3 75//3 74//3
f  74//4 75//4 76//4
f  94//3 80//3 60//3
f  60//4 80//4 94//4
f  78//3 106//3 93//3
f  93//4 106//4 78//4
f  106//6 60//6 93//6
f  93//5 60//5 106//5
f  79//3 80//3 94//3
f  94//4 80//4 79//4
f  94//6 107//6 79//6
f  79//5 107//5 94//5
f  47//5 79//5 94//5
f  94//6 79//6 47//6
f  94//6 60//6 108//6
f  108//5 60//5 94//5
f  61//5 99//5 95//5
f  95//6 99//6 61//6
f  61//1 108//1 95//1
f  95//2 108//2 61//2
f  109//5 78//5 95//5
f  95//6 78//6 109//6
f  79//1 99//1 84//1
f  84//2 99//2 79//2
f  83//2 84//2 79//2
f  79//1 84//1 83//1
f  81//6 80//6 87//6
f  87//5 80//5 81//5
f  86//5 46//5 85//5
f  85//6 46//6 86//6
f  82//6 81//6 110//6
f  110//5 81//5 82//5
f  83//5 86//5 79//5
f  79//6 86//6 83//6
f  82//3 111//3 96//3
f  96//4 111//4 82//4
f  96//5 97//5 64//5
f  64//6 97//6 96//6
f  110//1 65//1 97//1
f  97//2 65//2 110//2
f  108//1 61//1 94//1
f  94//2 61//2 108//2
f  84//2 83//2 98//2
f  98//1 83//1 84//1
f  81//1 65//1 110//1
f  110//2 65//2 81//2
f  66//3 100//3 101//3
f  101//4 100//4 66//4
f  100//6 86//6 101//6
f  101//5 86//5 100//5
f  86//6 100//6 67//6
f  67//5 100//5 86//5
f  80//3 86//3 67//3
f  67//4 86//4 80//4
f  88//6 100//6 112//6
f  112//5 100//5 88//5
f  88//1 72//1 102//1
f  102//2 72//2 88//2
f  113//3 68//3 102//3
f  102//4 68//4 113//4
f  88//3 89//3 91//3
f  91//4 89//4 88//4
f  100//2 89//2 112//2
f  112//1 89//1 100//1
f  97//5 70//5 68//5
f  68//6 70//6 97//6
f  58//2 70//2 105//2
f  105//1 70//1 58//1
f  70//3 103//3 105//3
f  105//4 103//4 70//4
f  103//4 114//4 71//4
f  71//3 114//3 103//3
f  104//6 71//6 114//6
f  114//5 71//5 104//5
f  114//1 72//1 104//1
f  104//2 72//2 114//2
f  92//6 105//6 103//6
f  103//5 105//5 92//5
f  106//3 78//3 109//3
f  109//4 78//4 106//4
f  60//6 106//6 108//6
f  108//5 106//5 60//5
f  86//3 80//3 79//3
f  79//4 80//4 86//4
f  107//6 94//6 108//6
f  108//5 94//5 107//5
f  99//1 79//1 107//1
f  107//2 79//2 99//2
f  107//3 95//3 99//3
f  99//4 95//4 107//4
f  95//3 107//3 108//3
f  108//4 107//4 95//4
f  106//1 95//1 108//1
f  108//2 95//2 106//2
f  95//1 106//1 109//1
f  109//2 106//2 95//2
f  105//6 82//6 110//6
f  110//5 82//5 105//5
f  111//3 82//3 115//3
f  115//4 82//4 111//4
f  116//5 96//5 111//5
f  111//6 96//6 116//6
f  96//5 70//5 97//5
f  97//6 70//6 96//6
f  97//3 117//3 110//3
f  110//4 117//4 97//4
f  89//3 88//3 112//3
f  112//4 88//4 89//4
f  102//1 72//1 113//1
f  113//2 72//2 102//2
f  68//3 113//3 117//3
f  117//4 113//4 68//4
f  117//3 97//3 68//3
f  68//4 97//4 117//4
f  70//4 118//4 105//4
f  105//3 118//3 70//3
f  105//6 117//6 103//6
f  103//5 117//5 105//5
f  114//4 103//4 119//4
f  119//3 103//3 114//3
f  113//1 72//1 114//1
f  114//2 72//2 113//2
f  118//6 82//6 105//6
f  105//5 82//5 118//5
f  105//6 110//6 117//6
f  117//5 110//5 105//5
f  82//6 118//6 115//6
f  115//5 118//5 82//5
f  118//2 111//2 115//2
f  115//1 111//1 118//1
f  96//5 116//5 70//5
f  70//6 116//6 96//6
f  111//2 118//2 116//2
f  116//1 118//1 111//1
f  103//6 117//6 113//6
f  113//5 117//5 103//5
f  118//4 70//4 116//4
f  116//3 70//3 118//3
f  103//6 113//6 119//6
f  119//5 113//5 103//5
f  119//1 113//1 114//1
f  114//2 113//2 119//2

# Mesh 'mesh2_mesh2-geometry' with 213 faces
g mesh2_mesh2-geometry
usemtl material_0_0
l  16 27
l  16 11
l  16 2
l  20 16
l  16 24
l  27 45
l  42 27
l  27 75
l  27 31
l  30 11
l  11 6
l  11 19
l  2 3
l  2 14
l  2 4
l  7 20
l  20 34
l  53 20
l  34 24
l  24 14
l  45 51
l  45 74
l  45 49
l  9 42
l  42 59
l  42 18
l  59 75
l  75 74
l  18 31
l  31 49
l  86 30
l  30 85
l  30 52
l  6 29
l  18 6
l  6 33
l  52 19
l  19 33
l  3 5
l  3 1
l  14 23
l  12 14
l  4 1
l  13 4
l  4 8
l  7 12
l  22 7
l  7 13
l  12 34
l  86 53
l  22 53
l  53 66
l  51 61
l  51 28
l  51 76
l  51 32
l  74 76
l  49 32
l  5 9
l  9 44
l  9 28
l  44 59
l  59 76
l  18 32
l  79 86
l  86 67
l  86 101
l  81 85
l  85 46
l  65 85
l  52 65
l  47 29
l  46 29
l  29 48
l  33 48
l  5 10
l  1 10
l  36 23
l  23 21
l  21 12
l  35 13
l  15 13
l  8 15
l  39 8
l  8 37
l  22 69
l  22 35
l  101 66
l  69 66
l  84 61
l  61 43
l  61 95
l  61 50
l  28 43
l  28 62
l  76 62
l  44 62
l  79 84
l  94 79
l  79 107
l  79 83
l  80 67
l  67 100
l  67 54
l  101 100
l  110 81
l  81 87
l  63 81
l  46 63
l  64 46
l  97 65
l  65 64
l  47 50
l  47 83
l  94 47
l  64 48
l  10 17
l  36 40
l  39 36
l  40 21
l  54 35
l  38 35
l  15 38
l  15 25
l  26 15
l  39 56
l  39 26
l  56 37
l  37 55
l  100 69
l  69 89
l  84 99
l  84 98
l  43 78
l  43 60
l  95 108
l  99 95
l  109 95
l  98 50
l  60 94
l  94 108
l  107 99
l  108 107
l  83 98
l  77 80
l  80 87
l  100 112
l  87 54
l  54 68
l  110 97
l  110 117
l  82 110
l  17 63
l  82 63
l  96 64
l  97 68
l  77 17
l  40 26
l  38 71
l  38 57
l  41 38
l  25 57
l  55 25
l  26 41
l  90 56
l  55 90
l  91 89
l  112 89
l  78 93
l  109 78
l  60 77
l  60 93
l  106 108
l  109 106
l  112 88
l  68 71
l  68 102
l  68 117
l  117 113
l  115 82
l  96 82
l  111 96
l  71 73
l  71 70
l  114 71
l  71 103
l  57 70
l  72 41
l  73 41
l  90 58
l  72 91
l  88 91
l  93 106
l  102 88
l  102 113
l  119 113
l  118 115
l  111 115
l  116 111
l  73 104
l  73 92
l  70 105
l  70 116
l  104 114
l  114 119
l  103 92
l  103 105
l  119 103
l  104 72
l  58 92
l  105 58
l  105 118
l  116 118

