# File produced by Open Asset Import Library (http://www.assimp.sf.net)
# (assimp v3.2.202087883)

mtllib model_normalized.mtl

# 106 vertex positions
v -0.376818 0.026529 -0.093555
v -0.350831 0.026529 -0.083160
v -0.350831 0.026529 -0.093555
v -0.376818 0.026529 -0.083160
v -0.350831 -0.129396 -0.093555
v -0.376818 -0.116402 -0.083160
v -0.350831 -0.116402 -0.083160
v -0.376818 -0.129396 -0.093555
v -0.350831 -0.129396 0.093555
v -0.376818 -0.129396 0.093555
v -0.350831 -0.116402 0.083160
v -0.376818 -0.116402 0.083160
v -0.350831 0.026529 0.093555
v -0.376818 0.026529 0.083160
v -0.350831 0.026529 0.083160
v -0.376818 0.026529 0.093555
v -0.142931 0.026529 -0.093555
v -0.116944 0.026529 -0.083160
v -0.116944 0.026529 -0.093555
v -0.142931 0.026529 -0.083160
v -0.116944 -0.129396 -0.093555
v -0.142931 -0.116402 -0.083160
v -0.116944 -0.116402 -0.083160
v -0.142931 -0.129396 -0.093555
v -0.116944 -0.129396 0.093555
v -0.142931 -0.129396 0.093555
v -0.116944 -0.116402 0.083160
v -0.142931 -0.116402 0.083160
v -0.116944 0.026529 0.093555
v -0.142931 0.026529 0.083160
v -0.116944 0.026529 0.083160
v -0.142931 0.026529 0.093555
v 0.350831 0.026529 -0.093555
v 0.350831 0.026529 -0.083160
v 0.376818 0.026529 -0.093555
v 0.350831 -0.129396 -0.093555
v 0.376818 0.026529 -0.083160
v 0.350831 -0.116402 -0.083160
v 0.376818 -0.116402 -0.083160
v 0.376818 -0.129396 -0.093555
v 0.350831 -0.129396 0.093555
v 0.376818 -0.129396 0.093555
v 0.350831 -0.116402 0.083160
v 0.376818 -0.116402 0.083160
v 0.350831 0.026529 0.093555
v 0.376818 0.026529 0.083160
v 0.350831 0.026529 0.083160
v 0.376818 0.026529 0.093555
v 0.116944 0.026529 -0.093555
v 0.116944 0.026529 -0.083160
v 0.142931 0.026529 -0.093555
v 0.116944 -0.129396 -0.093555
v 0.142931 0.026529 -0.083160
v 0.116944 -0.116402 -0.083160
v 0.142931 -0.116402 -0.083160
v 0.142931 -0.129396 -0.093555
v 0.116944 -0.129396 0.093555
v 0.142931 -0.129396 0.093555
v 0.116944 -0.116402 0.083160
v 0.142931 -0.116402 0.083160
v 0.116944 0.026529 0.093555
v 0.142931 0.026529 0.083160
v 0.116944 0.026529 0.083160
v 0.142931 0.026529 0.093555
v -0.467774 0.056373 0.125587
v -0.467774 0.078979 -0.125587
v -0.467774 0.056373 -0.125587
v -0.467774 0.095635 -0.119944
v 0.000000 0.078979 -0.125587
v -0.464173 0.047516 -0.124054
v -0.467774 0.095635 0.119944
v 0.000000 0.104491 -0.116944
v -0.466015 0.052042 -0.125587
v -0.464173 0.047516 0.124053
v -0.467774 0.078979 0.125587
v -0.464173 0.104491 -0.116944
v 0.000000 0.052042 -0.125587
v 0.467775 0.078979 -0.125587
v -0.455635 0.026529 -0.116944
v -0.466015 0.052042 0.125587
v 0.000000 0.078979 0.125587
v 0.000000 0.104491 0.116944
v -0.464173 0.104491 0.116944
v 0.000000 0.118918 -0.039425
v 0.466013 0.052042 -0.125587
v 0.467775 0.095635 -0.119944
v 0.467775 0.056373 -0.125587
v -0.455635 0.026529 0.116944
v 0.000000 0.052042 0.125587
v -0.458305 0.118918 -0.039425
v 0.458304 0.118918 -0.039425
v 0.464172 0.047516 -0.124054
v 0.464172 0.104491 -0.116944
v 0.000000 0.026529 -0.116944
v 0.467775 0.078979 0.125587
v 0.000000 0.118918 0.039425
v -0.458305 0.118918 0.039425
v 0.467775 0.056373 0.125587
v 0.455636 0.026529 -0.116944
v 0.467775 0.095635 0.119944
v 0.000000 0.026529 0.116944
v 0.466013 0.052042 0.125587
v 0.458304 0.118918 0.039425
v 0.464172 0.104491 0.116944
v 0.464172 0.047516 0.124053
v 0.455636 0.026529 0.116944

# 0 UV coordinates

# 86 vertex normals
vn 0 0.0254 0
vn 0.0254 0 0
vn 0 0 -0.0254
vn -0.0254 0 0
vn 0 0 0.0254
vn 0 -0.0254 0
vn -0.0222111 -0.00434447 0.0115305
vn -0.0114813 0.00368389 -0.0223555
vn -0.0222111 -0.00434447 -0.0115305
vn -0.0216776 0.00785091 -0.0106585
vn 0 0.00412989 -0.025062
vn -0.0200948 -0.0116541 -0.0102733
vn -0.0216776 0.00785091 0.0106585
vn 0 0.0191946 -0.0166351
vn -0.0103818 -0.00781903 -0.021823
vn -0.0200948 -0.0116541 0.0102733
vn -0.0114813 0.00368389 0.0223555
vn -0.0157355 0.0174762 -0.00959874
vn -0 -0.00412989 -0.025062
vn 0.0114813 0.00368389 -0.0223555
vn -0.0109261 -0.0200243 -0.0111717
vn -0.0103818 -0.00781903 0.021823
vn 0 0.00412989 0.025062
vn 0 0.0191946 0.0166351
vn -0.0157355 0.0174762 0.00959874
vn 0 0.0252926 -0.0023336
vn 0.0103818 -0.00781903 -0.021823
vn 0.0216776 0.00785091 -0.0106585
vn 0.0222111 -0.00434447 -0.0115305
vn -0.0109261 -0.0200243 0.0111717
vn 0 -0.00412989 0.025062
vn -0.00925655 0.0235825 -0.00182844
vn 0.00925655 0.0235825 -0.00182844
vn 0.0200948 -0.0116541 -0.0102733
vn 0.0157355 0.0174762 -0.00959874
vn -0 -0.0206418 -0.0148012
vn 0.0114813 0.00368389 0.0223555
vn 0 0.0252926 0.0023336
vn -0.00925655 0.0235825 0.00182844
vn 0.0222111 -0.00434447 0.0115305
vn 0.0109261 -0.0200243 -0.0111717
vn 0.0216776 0.00785091 0.0106585
vn 0 -0.0206418 0.0148012
vn 0.0103818 -0.00781903 0.021823
vn 0.00925655 0.0235825 0.00182844
vn 0.0157355 0.0174762 0.00959874
vn 0.0200948 -0.0116541 0.0102733
vn 0.0109261 -0.0200243 0.0111717
vn 0.0222111 0.00434447 0.0115305
vn 0.0114813 -0.00368389 0.0223555
vn 0.0222111 0.00434447 -0.0115305
vn 0.0216776 -0.00785091 0.0106585
vn 0.0200948 0.0116541 0.0102733
vn 0.0216776 -0.00785091 -0.0106585
vn 0 -0.0191946 0.0166351
vn 0.0103818 0.00781903 0.021823
vn 0.0200948 0.0116541 -0.0102733
vn 0.0114813 -0.00368389 -0.0223555
vn 0.0157355 -0.0174762 0.00959874
vn -0.0114813 -0.00368389 0.0223555
vn 0.0109261 0.0200243 0.0111717
vn 0.0103818 0.00781903 -0.021823
vn 0 -0.0191946 -0.0166351
vn 0.0157355 -0.0174762 -0.00959874
vn 0 -0.0252926 0.0023336
vn -0.0103818 0.00781903 0.021823
vn -0.0216776 -0.00785091 0.0106585
vn -0.0222111 0.00434447 0.0115305
vn 0.0109261 0.0200243 -0.0111717
vn 0.00925655 -0.0235825 0.00182844
vn -0.00925655 -0.0235825 0.00182844
vn -0.0200948 0.0116541 0.0102733
vn -0.0157355 -0.0174762 0.00959874
vn 0 0.0206418 0.0148012
vn -0.0114813 -0.00368389 -0.0223555
vn -0 -0.0252926 -0.0023336
vn 0.00925655 -0.0235825 -0.00182844
vn -0.0222111 0.00434447 -0.0115305
vn -0.0109261 0.0200243 0.0111717
vn -0.0216776 -0.00785091 -0.0106585
vn 0 0.0206418 -0.0148012
vn -0.0103818 0.00781903 -0.021823
vn -0.00925655 -0.0235825 -0.00182844
vn -0.0157355 -0.0174762 -0.00959874
vn -0.0200948 0.0116541 -0.0102733
vn -0.0109261 0.0200243 -0.0111717

# Mesh 'mesh1_mesh1-geometry' with 28 faces
g mesh1_mesh1-geometry
usemtl material_0_24
f  1//1 2//1 3//1
f  2//1 1//1 4//1
f  2//2 5//2 3//2
f  5//3 1//3 3//3
f  4//4 1//4 6//4
f  6//5 2//5 4//5
f  5//2 2//2 7//2
f  1//3 5//3 8//3
f  8//4 6//4 1//4
f  2//5 6//5 7//5
f  5//2 7//2 9//2
f  5//6 10//6 8//6
f  6//4 8//4 10//4
f  6//1 11//1 7//1
f  9//2 7//2 11//2
f  10//6 5//6 9//6
f  6//4 10//4 12//4
f  11//1 6//1 12//1
f  9//2 11//2 13//2
f  13//5 10//5 9//5
f  12//4 10//4 14//4
f  14//3 11//3 12//3
f  13//2 11//2 15//2
f  10//5 13//5 16//5
f  14//4 10//4 16//4
f  11//3 14//3 15//3
f  14//1 13//1 15//1
f  13//1 14//1 16//1

# Mesh 'mesh1_mesh1-geometry' with 28 faces
g mesh1_mesh1-geometry
usemtl material_1_24
f  3//6 2//6 1//6
f  4//6 1//6 2//6
f  3//4 5//4 2//4
f  3//5 1//5 5//5
f  6//2 1//2 4//2
f  4//3 2//3 6//3
f  7//4 2//4 5//4
f  8//5 5//5 1//5
f  1//2 6//2 8//2
f  7//3 6//3 2//3
f  9//4 7//4 5//4
f  8//1 10//1 5//1
f  10//2 8//2 6//2
f  7//6 11//6 6//6
f  11//4 7//4 9//4
f  9//1 5//1 10//1
f  12//2 10//2 6//2
f  12//6 6//6 11//6
f  13//4 11//4 9//4
f  9//3 10//3 13//3
f  14//2 10//2 12//2
f  12//5 11//5 14//5
f  15//4 11//4 13//4
f  16//3 13//3 10//3
f  16//2 10//2 14//2
f  15//5 14//5 11//5
f  15//6 13//6 14//6
f  16//6 14//6 13//6

# Mesh 'mesh1_mesh1-geometry' with 28 faces
g mesh1_mesh1-geometry
usemtl material_0_24
f  17//1 18//1 19//1
f  18//1 17//1 20//1
f  18//2 21//2 19//2
f  21//3 17//3 19//3
f  20//4 17//4 22//4
f  22//5 18//5 20//5
f  21//2 18//2 23//2
f  17//3 21//3 24//3
f  24//4 22//4 17//4
f  18//5 22//5 23//5
f  21//2 23//2 25//2
f  21//6 26//6 24//6
f  22//4 24//4 26//4
f  22//1 27//1 23//1
f  25//2 23//2 27//2
f  26//6 21//6 25//6
f  22//4 26//4 28//4
f  27//1 22//1 28//1
f  25//2 27//2 29//2
f  29//5 26//5 25//5
f  28//4 26//4 30//4
f  30//3 27//3 28//3
f  29//2 27//2 31//2
f  26//5 29//5 32//5
f  30//4 26//4 32//4
f  27//3 30//3 31//3
f  30//1 29//1 31//1
f  29//1 30//1 32//1

# Mesh 'mesh1_mesh1-geometry' with 28 faces
g mesh1_mesh1-geometry
usemtl material_1_24
f  19//6 18//6 17//6
f  20//6 17//6 18//6
f  19//4 21//4 18//4
f  19//5 17//5 21//5
f  22//2 17//2 20//2
f  20//3 18//3 22//3
f  23//4 18//4 21//4
f  24//5 21//5 17//5
f  17//2 22//2 24//2
f  23//3 22//3 18//3
f  25//4 23//4 21//4
f  24//1 26//1 21//1
f  26//2 24//2 22//2
f  23//6 27//6 22//6
f  27//4 23//4 25//4
f  25//1 21//1 26//1
f  28//2 26//2 22//2
f  28//6 22//6 27//6
f  29//4 27//4 25//4
f  25//3 26//3 29//3
f  30//2 26//2 28//2
f  28//5 27//5 30//5
f  31//4 27//4 29//4
f  32//3 29//3 26//3
f  32//2 26//2 30//2
f  31//5 30//5 27//5
f  31//6 29//6 30//6
f  32//6 30//6 29//6

# Mesh 'mesh2_mesh2-geometry' with 28 faces
g mesh2_mesh2-geometry
usemtl material_0_24
f  33//1 34//1 35//1
f  33//4 36//4 34//4
f  37//1 35//1 34//1
f  33//3 35//3 36//3
f  38//4 34//4 36//4
f  39//2 35//2 37//2
f  37//5 34//5 39//5
f  40//3 36//3 35//3
f  38//5 39//5 34//5
f  41//4 38//4 36//4
f  35//2 39//2 40//2
f  40//6 42//6 36//6
f  38//1 43//1 39//1
f  43//4 38//4 41//4
f  41//6 36//6 42//6
f  42//2 40//2 39//2
f  44//1 39//1 43//1
f  45//4 43//4 41//4
f  41//5 42//5 45//5
f  44//2 42//2 39//2
f  44//3 43//3 46//3
f  47//4 43//4 45//4
f  48//5 45//5 42//5
f  46//2 42//2 44//2
f  47//3 46//3 43//3
f  47//1 45//1 46//1
f  48//1 46//1 45//1
f  48//2 42//2 46//2

# Mesh 'mesh2_mesh2-geometry' with 28 faces
g mesh2_mesh2-geometry
usemtl material_1_24
f  35//6 34//6 33//6
f  34//2 36//2 33//2
f  34//6 35//6 37//6
f  36//5 35//5 33//5
f  36//2 34//2 38//2
f  37//4 35//4 39//4
f  39//3 34//3 37//3
f  35//5 36//5 40//5
f  34//3 39//3 38//3
f  36//2 38//2 41//2
f  40//4 39//4 35//4
f  36//1 42//1 40//1
f  39//6 43//6 38//6
f  41//2 38//2 43//2
f  42//1 36//1 41//1
f  39//4 40//4 42//4
f  43//6 39//6 44//6
f  41//2 43//2 45//2
f  45//3 42//3 41//3
f  39//4 42//4 44//4
f  46//5 43//5 44//5
f  45//2 43//2 47//2
f  42//3 45//3 48//3
f  44//4 42//4 46//4
f  43//5 46//5 47//5
f  46//6 45//6 47//6
f  45//6 46//6 48//6
f  46//4 42//4 48//4

# Mesh 'mesh2_mesh2-geometry' with 28 faces
g mesh2_mesh2-geometry
usemtl material_0_24
f  49//1 50//1 51//1
f  49//4 52//4 50//4
f  53//1 51//1 50//1
f  49//3 51//3 52//3
f  54//4 50//4 52//4
f  55//2 51//2 53//2
f  53//5 50//5 55//5
f  56//3 52//3 51//3
f  54//5 55//5 50//5
f  57//4 54//4 52//4
f  51//2 55//2 56//2
f  56//6 58//6 52//6
f  54//1 59//1 55//1
f  59//4 54//4 57//4
f  57//6 52//6 58//6
f  58//2 56//2 55//2
f  60//1 55//1 59//1
f  61//4 59//4 57//4
f  57//5 58//5 61//5
f  60//2 58//2 55//2
f  60//3 59//3 62//3
f  63//4 59//4 61//4
f  64//5 61//5 58//5
f  62//2 58//2 60//2
f  63//3 62//3 59//3
f  63//1 61//1 62//1
f  64//1 62//1 61//1
f  64//2 58//2 62//2

# Mesh 'mesh2_mesh2-geometry' with 28 faces
g mesh2_mesh2-geometry
usemtl material_1_24
f  51//6 50//6 49//6
f  50//2 52//2 49//2
f  50//6 51//6 53//6
f  52//5 51//5 49//5
f  52//2 50//2 54//2
f  53//4 51//4 55//4
f  55//3 50//3 53//3
f  51//5 52//5 56//5
f  50//3 55//3 54//3
f  52//2 54//2 57//2
f  56//4 55//4 51//4
f  52//1 58//1 56//1
f  55//6 59//6 54//6
f  57//2 54//2 59//2
f  58//1 52//1 57//1
f  55//4 56//4 58//4
f  59//6 55//6 60//6
f  57//2 59//2 61//2
f  61//3 58//3 57//3
f  55//4 58//4 60//4
f  62//5 59//5 60//5
f  61//2 59//2 63//2
f  58//3 61//3 64//3
f  60//4 58//4 62//4
f  59//5 62//5 63//5
f  62//6 61//6 63//6
f  61//6 62//6 64//6
f  62//4 58//4 64//4

# Mesh 'mesh3_mesh3-geometry' with 80 faces
g mesh3_mesh3-geometry
usemtl material_2_24
f  65//7 66//8 67//9
f  66//8 65//7 68//10
f  69//11 67//9 66//8
f  67//9 70//12 65//7
f  68//10 65//7 71//13
f  72//14 66//8 68//10
f  69//11 73//15 67//9
f  66//8 72//14 69//11
f  70//12 67//9 73//15
f  65//7 70//12 74//16
f  71//13 65//7 75//17
f  71//13 76//18 68//10
f  72//14 68//10 76//18
f  73//15 69//11 77//19
f  72//14 78//20 69//11
f  77//19 70//12 73//15
f  79//21 74//16 70//12
f  65//7 74//16 80//22
f  65//7 81//23 75//17
f  75//17 82//24 71//13
f  76//18 71//13 83//25
f  76//18 84//26 72//14
f  69//11 85//27 77//19
f  78//20 72//14 86//28
f  87//29 69//11 78//20
f  77//19 79//21 70//12
f  74//16 79//21 88//30
f  74//16 89//31 80//22
f  80//22 81//23 65//7
f  82//24 75//17 81//23
f  71//13 82//24 83//25
f  83//25 90//32 76//18
f  84//26 76//18 90//32
f  91//33 72//14 84//26
f  85//27 69//11 87//29
f  92//34 77//19 85//27
f  86//28 72//14 93//35
f  86//28 87//29 78//20
f  79//21 77//19 94//36
f  94//36 88//30 79//21
f  88//30 89//31 74//16
f  81//23 80//22 89//31
f  95//37 82//24 81//23
f  96//38 83//25 82//24
f  90//32 83//25 97//39
f  90//32 96//38 84//26
f  72//14 91//33 93//35
f  96//38 91//33 84//26
f  98//40 85//27 87//29
f  99//41 77//19 92//34
f  85//27 98//40 92//34
f  93//35 100//42 86//28
f  87//29 86//28 98//40
f  77//19 99//41 94//36
f  88//30 94//36 101//43
f  89//31 88//30 101//43
f  102//44 81//23 89//31
f  82//24 95//37 100//42
f  81//23 98//40 95//37
f  83//25 96//38 97//39
f  82//24 103//45 96//38
f  96//38 90//32 97//39
f  91//33 104//46 93//35
f  91//33 96//38 103//45
f  105//47 99//41 92//34
f  92//34 98//40 105//47
f  100//42 93//35 104//46
f  98//40 86//28 100//42
f  99//41 101//43 94//36
f  106//48 89//31 101//43
f  81//23 102//44 98//40
f  89//31 105//47 102//44
f  98//40 100//42 95//37
f  82//24 100//42 104//46
f  103//45 82//24 104//46
f  104//46 91//33 103//45
f  99//41 105//47 106//48
f  105//47 98//40 102//44
f  101//43 99//41 106//48
f  89//31 106//48 105//47

# Mesh 'mesh3_mesh3-geometry' with 80 faces
g mesh3_mesh3-geometry
usemtl material_1_24
f  67//49 66//50 65//51
f  68//52 65//51 66//50
f  66//50 67//49 69//31
f  65//51 70//53 67//49
f  71//54 65//51 68//52
f  68//52 66//50 72//55
f  67//49 73//56 69//31
f  69//31 72//55 66//50
f  73//56 67//49 70//53
f  74//57 70//53 65//51
f  75//58 65//51 71//54
f  68//52 76//59 71//54
f  76//59 68//52 72//55
f  77//23 69//31 73//56
f  69//31 78//60 72//55
f  73//56 70//53 77//23
f  70//53 74//57 79//61
f  80//62 74//57 65//51
f  75//58 81//19 65//51
f  71//54 82//63 75//58
f  83//64 71//54 76//59
f  72//55 84//65 76//59
f  77//23 85//66 69//31
f  86//67 72//55 78//60
f  78//60 69//31 87//68
f  70//53 79//61 77//23
f  88//69 79//61 74//57
f  80//62 89//11 74//57
f  65//51 81//19 80//62
f  81//19 75//58 82//63
f  83//64 82//63 71//54
f  76//59 90//70 83//64
f  90//70 76//59 84//65
f  84//65 72//55 91//71
f  87//68 69//31 85//66
f  85//66 77//23 92//72
f  93//73 72//55 86//67
f  78//60 87//68 86//67
f  94//74 77//23 79//61
f  79//61 88//69 94//74
f  74//57 89//11 88//69
f  89//11 80//62 81//19
f  81//19 82//63 95//75
f  82//63 83//64 96//76
f  97//77 83//64 90//70
f  84//65 96//76 90//70
f  93//73 91//71 72//55
f  84//65 91//71 96//76
f  87//68 85//66 98//78
f  92//72 77//23 99//79
f  92//72 98//78 85//66
f  86//67 100//80 93//73
f  98//78 86//67 87//68
f  94//74 99//79 77//23
f  101//81 94//74 88//69
f  101//81 88//69 89//11
f  89//11 81//19 102//82
f  100//80 95//75 82//63
f  95//75 98//78 81//19
f  97//77 96//76 83//64
f  96//76 103//83 82//63
f  97//77 90//70 96//76
f  93//73 104//84 91//71
f  103//83 96//76 91//71
f  92//72 99//79 105//85
f  105//85 98//78 92//72
f  104//84 93//73 100//80
f  100//80 86//67 98//78
f  94//74 101//81 99//79
f  101//81 89//11 106//86
f  98//78 102//82 81//19
f  102//82 105//85 89//11
f  95//75 100//80 98//78
f  104//84 100//80 82//63
f  104//84 82//63 103//83
f  103//83 91//71 104//84
f  106//86 105//85 99//79
f  102//82 98//78 105//85
f  106//86 99//79 101//81
f  105//85 106//86 89//11

