# File produced by Open Asset Import Library (http://www.assimp.sf.net)
# (assimp v3.2.202087883)

mtllib model_normalized.mtl

# 70 vertex positions
v -0.138140 0.480899 -0.062697
v -0.138140 0.477911 0.066034
v -0.138140 0.480899 0.066034
v -0.138140 0.477911 -0.062697
v 0.138140 0.480899 0.066034
v 0.138140 0.477911 -0.062697
v 0.138140 0.477911 0.066034
v 0.138140 0.480899 -0.062697
v -0.138140 0.337514 -0.062697
v -0.138140 0.334526 0.066034
v -0.138140 0.337514 0.066034
v -0.138140 0.334526 -0.062697
v 0.138140 0.337514 0.066034
v 0.138140 0.334526 -0.062697
v 0.138140 0.334526 0.066034
v 0.138140 0.337514 -0.062697
v -0.138140 0.194129 -0.062697
v -0.138140 0.191142 0.066034
v -0.138140 0.194129 0.066034
v -0.138140 0.191142 -0.062697
v 0.138140 0.194129 0.066034
v 0.138140 0.191142 -0.062697
v 0.138140 0.191142 0.066034
v 0.138140 0.194129 -0.062697
v -0.138140 0.050744 -0.062697
v -0.138140 0.047757 0.066034
v -0.138140 0.050744 0.066034
v -0.138140 0.047757 -0.062697
v 0.138140 0.050744 0.066034
v 0.138140 0.047757 -0.062697
v 0.138140 0.047757 0.066034
v 0.138140 0.050744 -0.062697
v -0.138140 -0.092641 -0.062697
v -0.138140 -0.095628 0.066034
v -0.138140 -0.092641 0.066034
v -0.138140 -0.095628 -0.062697
v 0.138140 -0.092641 0.066034
v 0.138140 -0.095628 -0.062697
v 0.138140 -0.095628 0.066034
v 0.138140 -0.092641 -0.062697
v -0.138140 -0.236026 -0.062697
v -0.138140 -0.239013 0.066034
v -0.138140 -0.236026 0.066034
v -0.138140 -0.239013 -0.062697
v 0.138140 -0.236026 0.066034
v 0.138140 -0.239013 -0.062697
v 0.138140 -0.239013 0.066034
v 0.138140 -0.236026 -0.062697
v -0.138140 -0.379411 -0.062697
v -0.138140 -0.382398 0.066034
v -0.138140 -0.379411 0.066034
v -0.138140 -0.382398 -0.062697
v 0.138140 -0.379411 0.066034
v 0.138140 -0.382398 -0.062697
v 0.138140 -0.382398 0.066034
v 0.138140 -0.379411 -0.062697
v 0.141127 0.480899 -0.062697
v 0.141127 0.480899 0.069021
v 0.141127 -0.469356 0.069021
v 0.138140 -0.466369 -0.062697
v -0.141127 0.480899 0.069021
v 0.141127 -0.469356 -0.062697
v 0.138140 -0.469356 -0.062697
v -0.141127 -0.469356 0.069021
v -0.138140 -0.469356 -0.062697
v 0.138140 -0.466369 0.066034
v -0.141127 0.480899 -0.062697
v -0.141127 -0.469356 -0.062697
v -0.138140 -0.466369 -0.062697
v -0.138140 -0.466369 0.066034

# 40 UV coordinates
vt -0.149634 0.003472 0
vt 0 0 0
vt 0 0.003472 0
vt -0.149634 0 0
vt 0.32114 0.003472 0
vt 0.32114 0 0
vt 0 0.149634 0
vt -0.32114 0 0
vt -0.32114 0.149634 0
vt 0.32114 0.149634 0
vt -0.32114 0.003472 0
vt 0.149634 0 0
vt 0.149634 0.003472 0
vt -0.324612 0.153106 0
vt -0.324612 0.003472 0
vt -0.328084 0.153106 0
vt -0.328084 0 0
vt 0.324612 1.10455 0
vt 0.328084 1.10455 0
vt 0.324612 1.10108 0
vt -0.003472 0.003472 0
vt 0 1.10455 0
vt -0.153106 1.10455 0
vt 0.324612 0.003472 0
vt -0.153106 0 0
vt 0.324612 0 0
vt 0.153106 1.10108 0
vt 0.153106 0.003472 0
vt 0.003472 1.10108 0
vt -0.003472 0.153106 0
vt 0.328084 0 0
vt 0.003472 0 0
vt 0.003472 0.003472 0
vt 0 0.153106 0
vt 0.153106 0 0
vt 0.153106 1.10455 0
vt 0.003472 1.10455 0
vt -0.153106 0.003472 0
vt -0.153106 1.10108 0
vt -0.003472 1.10108 0

# 6 vertex normals
vn -0.0254 0 0
vn 0.0254 0 0
vn 0 0 0.0254
vn 0 0 -0.0254
vn 0 0.0254 0
vn -0 -0.0254 0

# Mesh 'mesh1_mesh1-geometry' with 24 faces
g mesh1_mesh1-geometry
usemtl material_0_1_8
f  1/1/1 2/2/1 3/3/1
f  2/2/1 1/1/1 4/4/1
f  3/3/2 2/2/2 1/1/2
f  4/4/2 1/1/2 2/2/2
f  2/2/3 5/5/3 3/3/3
f  3/3/4 5/5/4 2/2/4
f  5/6/5 1/7/5 3/2/5
f  3/2/6 1/7/6 5/6/6
f  1/3/4 6/8/4 4/2/4
f  4/2/3 6/8/3 1/3/3
f  6/9/6 2/2/6 4/7/6
f  4/7/5 2/2/5 6/9/5
f  5/5/3 2/2/3 7/6/3
f  7/6/4 2/2/4 5/5/4
f  1/7/5 5/6/5 8/10/5
f  8/10/6 5/6/6 1/7/6
f  6/8/4 1/3/4 8/11/4
f  8/11/3 1/3/3 6/8/3
f  2/2/6 6/9/6 7/8/6
f  7/8/5 6/9/5 2/2/5
f  6/12/2 5/3/2 7/2/2
f  7/2/1 5/3/1 6/12/1
f  5/3/2 6/12/2 8/13/2
f  8/13/1 6/12/1 5/3/1

# Mesh 'mesh2_mesh2-geometry' with 12 faces
g mesh2_mesh2-geometry
usemtl material_1_0
l  3 1
l  2 3
l  5 3
l  4 1
l  1 8
l  2 4
l  7 2
l  7 5
l  8 5
l  4 6
l  6 8
l  6 7

# Mesh 'mesh3_mesh3-geometry' with 24 faces
g mesh3_mesh3-geometry
usemtl material_0_1_8
f  9/1/1 10/2/1 11/3/1
f  10/2/1 9/1/1 12/4/1
f  11/3/2 10/2/2 9/1/2
f  12/4/2 9/1/2 10/2/2
f  10/2/3 13/5/3 11/3/3
f  11/3/4 13/5/4 10/2/4
f  13/6/5 9/7/5 11/2/5
f  11/2/6 9/7/6 13/6/6
f  9/3/4 14/8/4 12/2/4
f  12/2/3 14/8/3 9/3/3
f  14/9/6 10/2/6 12/7/6
f  12/7/5 10/2/5 14/9/5
f  13/5/3 10/2/3 15/6/3
f  15/6/4 10/2/4 13/5/4
f  9/7/5 13/6/5 16/10/5
f  16/10/6 13/6/6 9/7/6
f  14/8/4 9/3/4 16/11/4
f  16/11/3 9/3/3 14/8/3
f  10/2/6 14/9/6 15/8/6
f  15/8/5 14/9/5 10/2/5
f  14/12/2 13/3/2 15/2/2
f  15/2/1 13/3/1 14/12/1
f  13/3/2 14/12/2 16/13/2
f  16/13/1 14/12/1 13/3/1

# Mesh 'mesh4_mesh4-geometry' with 12 faces
g mesh4_mesh4-geometry
usemtl material_1_0
l  11 9
l  10 11
l  13 11
l  12 9
l  9 16
l  10 12
l  15 10
l  15 13
l  16 13
l  12 14
l  14 16
l  14 15

# Mesh 'mesh5_mesh5-geometry' with 24 faces
g mesh5_mesh5-geometry
usemtl material_0_1_8
f  17/1/1 18/2/1 19/3/1
f  18/2/1 17/1/1 20/4/1
f  19/3/2 18/2/2 17/1/2
f  20/4/2 17/1/2 18/2/2
f  18/2/3 21/5/3 19/3/3
f  19/3/4 21/5/4 18/2/4
f  21/6/5 17/7/5 19/2/5
f  19/2/6 17/7/6 21/6/6
f  17/3/4 22/8/4 20/2/4
f  20/2/3 22/8/3 17/3/3
f  22/9/6 18/2/6 20/7/6
f  20/7/5 18/2/5 22/9/5
f  21/5/3 18/2/3 23/6/3
f  23/6/4 18/2/4 21/5/4
f  17/7/5 21/6/5 24/10/5
f  24/10/6 21/6/6 17/7/6
f  22/8/4 17/3/4 24/11/4
f  24/11/3 17/3/3 22/8/3
f  18/2/6 22/9/6 23/8/6
f  23/8/5 22/9/5 18/2/5
f  22/12/2 21/3/2 23/2/2
f  23/2/1 21/3/1 22/12/1
f  21/3/2 22/12/2 24/13/2
f  24/13/1 22/12/1 21/3/1

# Mesh 'mesh6_mesh6-geometry' with 12 faces
g mesh6_mesh6-geometry
usemtl material_1_0
l  19 17
l  18 19
l  21 19
l  20 17
l  17 24
l  18 20
l  23 18
l  23 21
l  24 21
l  20 22
l  22 24
l  22 23

# Mesh 'mesh7_mesh7-geometry' with 24 faces
g mesh7_mesh7-geometry
usemtl material_0_1_8
f  25/1/1 26/2/1 27/3/1
f  26/2/1 25/1/1 28/4/1
f  27/3/2 26/2/2 25/1/2
f  28/4/2 25/1/2 26/2/2
f  26/2/3 29/5/3 27/3/3
f  27/3/4 29/5/4 26/2/4
f  29/6/5 25/7/5 27/2/5
f  27/2/6 25/7/6 29/6/6
f  25/3/4 30/8/4 28/2/4
f  28/2/3 30/8/3 25/3/3
f  30/9/6 26/2/6 28/7/6
f  28/7/5 26/2/5 30/9/5
f  29/5/3 26/2/3 31/6/3
f  31/6/4 26/2/4 29/5/4
f  25/7/5 29/6/5 32/10/5
f  32/10/6 29/6/6 25/7/6
f  30/8/4 25/3/4 32/11/4
f  32/11/3 25/3/3 30/8/3
f  26/2/6 30/9/6 31/8/6
f  31/8/5 30/9/5 26/2/5
f  30/12/2 29/3/2 31/2/2
f  31/2/1 29/3/1 30/12/1
f  29/3/2 30/12/2 32/13/2
f  32/13/1 30/12/1 29/3/1

# Mesh 'mesh8_mesh8-geometry' with 12 faces
g mesh8_mesh8-geometry
usemtl material_1_0
l  27 25
l  26 27
l  29 27
l  28 25
l  25 32
l  26 28
l  31 26
l  31 29
l  32 29
l  28 30
l  30 32
l  30 31

# Mesh 'mesh9_mesh9-geometry' with 24 faces
g mesh9_mesh9-geometry
usemtl material_0_1_8
f  33/1/1 34/2/1 35/3/1
f  34/2/1 33/1/1 36/4/1
f  35/3/2 34/2/2 33/1/2
f  36/4/2 33/1/2 34/2/2
f  34/2/3 37/5/3 35/3/3
f  35/3/4 37/5/4 34/2/4
f  37/6/5 33/7/5 35/2/5
f  35/2/6 33/7/6 37/6/6
f  33/3/4 38/8/4 36/2/4
f  36/2/3 38/8/3 33/3/3
f  38/9/6 34/2/6 36/7/6
f  36/7/5 34/2/5 38/9/5
f  37/5/3 34/2/3 39/6/3
f  39/6/4 34/2/4 37/5/4
f  33/7/5 37/6/5 40/10/5
f  40/10/6 37/6/6 33/7/6
f  38/8/4 33/3/4 40/11/4
f  40/11/3 33/3/3 38/8/3
f  34/2/6 38/9/6 39/8/6
f  39/8/5 38/9/5 34/2/5
f  38/12/2 37/3/2 39/2/2
f  39/2/1 37/3/1 38/12/1
f  37/3/2 38/12/2 40/13/2
f  40/13/1 38/12/1 37/3/1

# Mesh 'mesh10_mesh10-geometry' with 12 faces
g mesh10_mesh10-geometry
usemtl material_1_0
l  35 33
l  34 35
l  37 35
l  36 33
l  33 40
l  34 36
l  39 34
l  39 37
l  40 37
l  36 38
l  38 40
l  38 39

# Mesh 'mesh11_mesh11-geometry' with 24 faces
g mesh11_mesh11-geometry
usemtl material_0_1_8
f  41/1/1 42/2/1 43/3/1
f  42/2/1 41/1/1 44/4/1
f  43/3/2 42/2/2 41/1/2
f  44/4/2 41/1/2 42/2/2
f  42/2/3 45/5/3 43/3/3
f  43/3/4 45/5/4 42/2/4
f  45/6/5 41/7/5 43/2/5
f  43/2/6 41/7/6 45/6/6
f  41/3/4 46/8/4 44/2/4
f  44/2/3 46/8/3 41/3/3
f  46/9/6 42/2/6 44/7/6
f  44/7/5 42/2/5 46/9/5
f  45/5/3 42/2/3 47/6/3
f  47/6/4 42/2/4 45/5/4
f  41/7/5 45/6/5 48/10/5
f  48/10/6 45/6/6 41/7/6
f  46/8/4 41/3/4 48/11/4
f  48/11/3 41/3/3 46/8/3
f  42/2/6 46/9/6 47/8/6
f  47/8/5 46/9/5 42/2/5
f  46/12/2 45/3/2 47/2/2
f  47/2/1 45/3/1 46/12/1
f  45/3/2 46/12/2 48/13/2
f  48/13/1 46/12/1 45/3/1

# Mesh 'mesh12_mesh12-geometry' with 12 faces
g mesh12_mesh12-geometry
usemtl material_1_0
l  43 41
l  42 43
l  45 43
l  44 41
l  41 48
l  42 44
l  47 42
l  47 45
l  48 45
l  44 46
l  46 48
l  46 47

# Mesh 'mesh13_mesh13-geometry' with 24 faces
g mesh13_mesh13-geometry
usemtl material_0_1_8
f  49/1/1 50/2/1 51/3/1
f  50/2/1 49/1/1 52/4/1
f  51/3/2 50/2/2 49/1/2
f  52/4/2 49/1/2 50/2/2
f  50/2/3 53/5/3 51/3/3
f  51/3/4 53/5/4 50/2/4
f  53/6/5 49/7/5 51/2/5
f  51/2/6 49/7/6 53/6/6
f  49/3/4 54/8/4 52/2/4
f  52/2/3 54/8/3 49/3/3
f  54/9/6 50/2/6 52/7/6
f  52/7/5 50/2/5 54/9/5
f  53/5/3 50/2/3 55/6/3
f  55/6/4 50/2/4 53/5/4
f  49/7/5 53/6/5 56/10/5
f  56/10/6 53/6/6 49/7/6
f  54/8/4 49/3/4 56/11/4
f  56/11/3 49/3/3 54/8/3
f  50/2/6 54/9/6 55/8/6
f  55/8/5 54/9/5 50/2/5
f  54/12/2 53/3/2 55/2/2
f  55/2/1 53/3/1 54/12/1
f  53/3/2 54/12/2 56/13/2
f  56/13/1 54/12/1 53/3/1

# Mesh 'mesh14_mesh14-geometry' with 12 faces
g mesh14_mesh14-geometry
usemtl material_1_0
l  51 49
l  50 51
l  53 51
l  52 49
l  49 56
l  50 52
l  55 50
l  55 53
l  56 53
l  52 54
l  54 56
l  54 55

# Mesh 'mesh15_mesh15-geometry' with 32 faces
g mesh15_mesh15-geometry
usemtl material_1_24
f  57/2/6 5/2/6 8/2/6
f  58/2/6 5/2/6 57/2/6
f  6/2/3 57/2/3 8/2/3
f  58/2/6 3/2/6 5/2/6
f  57/2/1 59/2/1 58/2/1
f  60/2/3 57/2/3 6/2/3
f  61/2/6 3/2/6 58/2/6
f  59/2/1 57/2/1 62/2/1
f  59/2/4 61/2/4 58/2/4
f  58/2/3 61/2/3 59/2/3
f  63/2/3 57/2/3 60/2/3
f  7/2/2 60/2/2 6/2/2
f  61/2/6 1/2/6 3/2/6
f  57/2/3 63/2/3 62/2/3
f  61/2/4 59/2/4 64/2/4
f  64/2/3 59/2/3 61/2/3
f  60/2/3 65/2/3 63/2/3
f  60/2/2 7/2/2 66/2/2
f  1/2/6 61/2/6 67/2/6
f  68/2/2 61/2/2 64/2/2
f  65/2/3 60/2/3 69/2/3
f  7/2/3 70/2/3 66/2/3
f  70/2/6 60/2/6 66/2/6
f  61/2/2 68/2/2 67/2/2
f  67/2/3 4/2/3 1/2/3
f  60/2/6 70/2/6 69/2/6
f  69/2/3 68/2/3 65/2/3
f  70/2/3 7/2/3 2/2/3
f  68/2/3 69/2/3 67/2/3
f  67/2/3 69/2/3 4/2/3
f  70/2/1 4/2/1 69/2/1
f  4/2/1 70/2/1 2/2/1

# Mesh 'mesh15_mesh15-geometry' with 28 faces
g mesh15_mesh15-geometry
usemtl material_0_1_8
f  8/14/5 5/15/5 57/16/5
f  57/16/5 5/15/5 58/17/5
f  8/18/4 57/19/4 6/20/4
f  5/15/5 3/21/5 58/17/5
f  58/22/2 59/2/2 57/23/2
f  6/20/4 57/19/4 60/24/4
f  58/17/5 3/21/5 61/2/5
f  62/25/2 57/23/2 59/2/2
f  60/24/4 57/19/4 63/26/4
f  6/27/1 60/28/1 7/29/1
f  3/21/5 1/30/5 61/2/5
f  62/31/4 63/26/4 57/19/4
f  63/26/4 65/32/4 60/24/4
f  66/33/1 7/29/1 60/28/1
f  67/34/5 61/2/5 1/30/5
f  64/2/1 61/22/1 68/35/1
f  69/33/4 60/24/4 65/32/4
f  66/24/4 70/33/4 7/20/4
f  66/15/5 60/14/5 70/21/5
f  67/36/1 68/35/1 61/22/1
f  1/37/4 4/29/4 67/22/4
f  69/30/5 70/21/5 60/14/5
f  65/32/4 68/2/4 69/33/4
f  2/29/4 7/20/4 70/33/4
f  67/22/4 69/33/4 68/2/4
f  4/29/4 69/33/4 67/22/4
f  69/38/2 4/39/2 70/21/2
f  2/40/2 70/21/2 4/39/2

# Mesh 'mesh16_mesh16-geometry' with 1 faces
g mesh16_mesh16-geometry
usemtl material_1_0
l  64 61

