# File produced by Open Asset Import Library (http://www.assimp.sf.net)
# (assimp v3.2.202087883)

mtllib model_normalized.mtl

# 88 vertex positions
v -0.445650 -0.067523 0.167119
v -0.445650 -0.178935 0.055706
v -0.445650 -0.178935 0.167119
v -0.445650 -0.123229 0.055706
v -0.334237 -0.178935 0.167119
v -0.445650 -0.123229 -0.055706
v -0.334237 -0.178935 0.055706
v -0.445650 -0.178935 -0.055706
v -0.334237 -0.067523 0.167119
v -0.445650 -0.067523 -0.167119
v -0.334237 -0.123229 0.055706
v 0.334237 -0.178935 0.055706
v 0.445650 -0.178935 0.055706
v -0.334237 -0.067523 0.055706
v -0.445650 -0.178935 -0.167119
v -0.334237 -0.067523 -0.167119
v -0.334237 -0.123229 -0.055706
v -0.334237 -0.178935 -0.055706
v -0.334237 -0.067523 -0.055706
v 0.445650 -0.178935 0.167119
v 0.334237 -0.123229 0.055706
v 0.334237 -0.178935 -0.055706
v -0.334237 0.081027 0.055706
v -0.334237 -0.178935 -0.167119
v -0.222825 -0.067523 -0.055706
v -0.222825 -0.067523 0.055706
v 0.334237 -0.178935 0.167119
v 0.445650 -0.123229 0.055706
v 0.334237 -0.067523 0.055706
v 0.334237 -0.067523 0.167119
v 0.445650 -0.178935 -0.055706
v -0.334237 0.081027 -0.055706
v -0.222825 0.081027 -0.055706
v 0.222825 -0.067523 0.055706
v 0.445650 -0.067523 0.167119
v 0.445650 -0.123229 -0.055706
v 0.334237 -0.123229 -0.055706
v 0.334237 -0.178935 -0.167119
v 0.222825 -0.067523 -0.055706
v -0.222825 0.081027 0.055706
v -0.334237 0.108880 0.167119
v 0.445650 -0.067523 -0.167119
v 0.222825 0.081027 0.055706
v 0.334237 -0.067523 -0.055706
v 0.445650 -0.178935 -0.167119
v -0.222825 0.081027 0.167119
v -0.334237 0.081027 0.167119
v -0.334237 0.081027 -0.167119
v 0.334237 0.081027 0.055706
v 0.334237 0.081027 -0.055706
v 0.334237 -0.067523 -0.167119
v -0.222825 0.108880 -0.167119
v -0.334237 0.108880 -0.167119
v -0.222825 0.081027 -0.167119
v 0.222825 0.081027 -0.055706
v 0.334237 0.081027 0.167119
v -0.222825 0.108880 0.167119
v -0.334237 0.108880 0.055706
v 0.222825 0.108880 0.167119
v 0.334237 0.108880 -0.167119
v 0.222825 0.081027 0.167119
v 0.222825 0.081027 -0.167119
v -0.222825 0.108880 -0.055706
v 0.445650 0.127449 0.167119
v -0.445650 0.108880 0.055706
v -0.334237 0.108880 -0.055706
v 0.445650 0.127449 -0.167119
v 0.334237 0.081027 -0.167119
v 0.334237 0.108880 0.167119
v 0.222825 0.108880 -0.055706
v -0.222825 0.108880 0.055706
v -0.445650 0.127449 0.167119
v -0.445650 0.108880 0.167119
v -0.445650 0.108880 -0.055706
v -0.445650 0.108880 -0.167119
v 0.222825 0.108880 -0.167119
v 0.334237 0.108880 -0.055706
v 0.222825 0.108880 0.055706
v 0.445650 0.127449 0.055706
v -0.445650 0.127449 0.055706
v -0.445650 0.127449 -0.167119
v 0.445650 0.108880 -0.055706
v 0.334237 0.108880 0.055706
v 0.445650 0.108880 0.167119
v -0.445650 0.127449 -0.055706
v 0.445650 0.127449 -0.055706
v 0.445650 0.108880 -0.167119
v 0.445650 0.108880 0.055706

# 140 UV coordinates
vt 1.64931 0.083333 0
vt 1.56597 0 0
vt 1.64931 0 0
vt 1.56597 0.041667 0
vt -1.56597 0.5 0
vt -1.64931 0.583333 0
vt -1.64931 0.5 0
vt 0.583333 0 0
vt 0.5 0.083333 0
vt 0.5 0 0
vt 1.48264 0.041667 0
vt 0.5 0.041667 0
vt 1.48264 0 0
vt -1.56597 0.583333 0
vt 0.583333 0.083333 0
vt 1.39931 0.083333 0
vt -1.48264 0.5 0
vt 0.583333 0.041667 0
vt -1.56597 1.08333 0
vt -1.56597 1.16667 0
vt -1.56597 0.041667 0
vt -1.64931 0 0
vt -1.56597 0 0
vt -1.64931 0.083333 0
vt 1.56597 0.583333 0
vt 1.64931 0.5 0
vt 1.64931 0.583333 0
vt 1.39931 0 0
vt 1.39931 0.583333 0
vt 1.39931 0.5 0
vt -1.48264 0.583333 0
vt -0.583333 0.041667 0
vt -0.5 0 0
vt -0.5 0.041667 0
vt 1.08333 0 0
vt -1.56597 0.083333 0
vt 1.48264 0.583333 0
vt -0.583333 0.083333 0
vt -0.5 0.083333 0
vt -1.48264 0.083333 0
vt -1.48264 0.041667 0
vt -1.39931 0.5 0
vt -0.583333 0 0
vt -1.64931 1.16667 0
vt 1.16667 0 0
vt 1.08333 0.041667 0
vt -1.48264 1.08333 0
vt 1.56597 0.194444 0
vt 1.48264 0.083333 0
vt 1.56597 0.083333 0
vt -1.39931 0.083333 0
vt -0.666667 0.083333 0
vt -1.39931 0.583333 0
vt -1.48264 0 0
vt 0.666667 0.083333 0
vt -1.64931 1.08333 0
vt 1.16667 0.041667 0
vt 1.08333 0.083333 0
vt -1.48264 1.16667 0
vt -1.08333 0 0
vt 1.48264 0.194444 0
vt 0.583333 0.194444 0
vt -0.666667 0.194444 0
vt -1.39931 0 0
vt 1 0.083333 0
vt -1.39931 1.08333 0
vt -1.16667 0.041667 0
vt -1.16667 0 0
vt -1 0.083333 0
vt -1.56597 0.666667 0
vt 1.64931 0.215278 0
vt -0.583333 0.194444 0
vt 0.666667 0.194444 0
vt 1.56597 0.666667 0
vt 1.48264 1 0
vt 1.48264 0.666667 0
vt -1.48264 0.194444 0
vt 1.56597 1 0
vt 1.16667 0.083333 0
vt 1 0.194444 0
vt 1.64931 1.16667 0
vt 1.56597 1.08333 0
vt 1.64931 1.08333 0
vt -1.39931 1.16667 0
vt -1.08333 0.041667 0
vt -1.08333 0.083333 0
vt -1.48264 0.666667 0
vt -1.64931 0.666667 0
vt 1.64931 0.194444 0
vt 1.39931 0.194444 0
vt -1.56597 0.194444 0
vt 1.39931 1.16667 0
vt 1.48264 1.08333 0
vt 1.08333 0.194444 0
vt -1.16667 0.083333 0
vt -1.08333 0.194444 0
vt -1.39931 0.215278 0
vt -1.64931 0.194444 0
vt 0.583333 0.215278 0
vt 1.39931 0.215278 0
vt -1.39931 0.666667 0
vt 1.39931 1.08333 0
vt -1.48264 1 0
vt -1.56597 1 0
vt -1 0.194444 0
vt -1.39931 0.194444 0
vt -1.64931 0.215278 0
vt 0.666667 0.215278 0
vt 1.56597 0.215278 0
vt -0.666667 0.215278 0
vt -0.583333 0.215278 0
vt -1.64931 1 0
vt -1.39931 1 0
vt -1.48264 0.215278 0
vt 1.16667 0.229167 0
vt 1.48264 0.215278 0
vt -1.16667 0.229167 0
vt 1 0.215278 0
vt -1.56597 0.215278 0
vt 0.5 0.229167 0
vt -0.5 0.215278 0
vt -1 0.215278 0
vt -1.08333 0.215278 0
vt 1.08333 0.215278 0
vt 0.5 0.215278 0
vt 1.56597 1.16667 0
vt 1.64931 0.229167 0
vt 1.56597 0.229167 0
vt -0.5 0.229167 0
vt 1.56597 0.5 0
vt -1.56597 0.229167 0
vt -1.64931 0.229167 0
vt 1.16667 0.215278 0
vt 1.48264 0.229167 0
vt 1.48264 1.16667 0
vt 1.39931 0.229167 0
vt 1.48264 0.5 0
vt -1.16667 0.215278 0
vt -1.48264 0.229167 0
vt -1.39931 0.229167 0

# 6 vertex normals
vn -0.0254 0 0
vn 0 -0.0254 0
vn 0 0 0.0254
vn -0 -0 -0.0254
vn 0.0254 0 0
vn 0 0.0254 0

# Mesh 'mesh1_mesh1-geometry' with 264 faces
g mesh1_mesh1-geometry
usemtl material_0_1_8
f  1/1/1 2/2/1 3/3/1
f  2/2/1 1/1/1 4/4/1
f  2/5/2 5/6/2 3/7/2
f  5/8/3 1/9/3 3/10/3
f  4/4/1 1/1/1 6/11/1
f  7/8/3 4/12/3 2/10/3
f  2/10/4 4/12/4 7/8/4
f  4/4/1 8/13/1 2/2/1
f  2/2/5 8/13/5 4/4/5
f  5/6/2 2/5/2 7/14/2
f  1/9/3 5/8/3 9/15/3
f  10/16/1 6/11/1 1/1/1
f  6/17/2 11/14/2 4/5/2
f  4/5/6 11/14/6 6/17/6
f  8/13/1 4/4/1 6/11/1
f  6/11/5 4/4/5 8/13/5
f  4/12/3 7/8/3 11/18/3
f  11/18/4 7/8/4 4/12/4
f  2/5/2 12/19/2 7/14/2
f  7/14/6 12/19/6 2/5/6
f  8/17/2 13/20/2 2/5/2
f  2/5/6 13/20/6 8/17/6
f  11/21/5 5/22/5 7/23/5
f  5/22/5 11/21/5 9/24/5
f  14/25/6 1/26/6 9/27/6
f  15/28/1 6/11/1 10/16/1
f  1/26/6 16/29/6 10/30/6
f  11/14/2 6/17/2 17/31/2
f  17/31/6 6/17/6 11/14/6
f  6/11/1 15/28/1 8/13/1
f  17/32/4 8/33/4 6/34/4
f  12/35/3 11/18/3 7/8/3
f  7/8/4 11/18/4 12/35/4
f  2/5/2 13/20/2 12/19/2
f  12/19/6 13/20/6 2/5/6
f  18/31/2 13/20/2 8/17/2
f  8/17/6 13/20/6 18/31/6
f  9/24/5 11/21/5 14/36/5
f  19/37/6 1/26/6 14/25/6
f  16/38/4 15/33/4 10/39/4
f  16/29/6 1/26/6 19/37/6
f  19/40/5 11/21/5 17/41/5
f  17/41/1 11/21/1 19/40/1
f  15/42/2 18/31/2 8/17/2
f  8/33/4 17/32/4 18/43/4
f  11/18/3 12/35/3 14/15/3
f  14/15/4 12/35/4 11/18/4
f  20/44/2 12/19/2 13/20/2
f  13/45/3 21/46/3 12/35/3
f  12/35/4 21/46/4 13/45/4
f  22/47/2 13/20/2 18/31/2
f  18/31/6 13/20/6 22/47/6
f  11/21/5 19/40/5 14/36/5
f  14/36/1 19/40/1 11/21/1
f  23/48/1 19/49/1 14/50/1
f  14/50/5 19/49/5 23/48/5
f  15/33/4 16/38/4 24/43/4
f  17/41/5 16/51/5 19/40/5
f  25/52/4 17/32/4 19/38/4
f  19/38/3 17/32/3 25/52/3
f  18/31/2 15/42/2 24/53/2
f  17/32/4 25/52/4 18/43/4
f  18/43/3 25/52/3 17/32/3
f  18/54/5 16/51/5 17/41/5
f  14/15/3 12/35/3 26/55/3
f  26/55/4 12/35/4 14/15/4
f  12/19/2 20/44/2 27/56/2
f  28/21/5 20/22/5 13/23/5
f  21/46/3 13/45/3 28/57/3
f  28/57/4 13/45/4 21/46/4
f  29/58/3 12/35/3 21/46/3
f  21/46/4 12/35/4 29/58/4
f  12/2/1 30/1/1 21/4/1
f  13/20/2 22/47/2 31/59/2
f  31/59/6 22/47/6 13/20/6
f  18/43/4 25/52/4 22/60/4
f  22/60/3 25/52/3 18/43/3
f  19/49/1 23/48/1 32/61/1
f  32/61/5 23/48/5 19/49/5
f  26/55/3 23/62/3 14/15/3
f  14/15/4 23/62/4 26/55/4
f  19/38/4 33/63/4 25/52/4
f  25/52/3 33/63/3 19/38/3
f  16/51/5 18/54/5 24/64/5
f  26/55/3 12/35/3 34/65/3
f  34/65/4 12/35/4 26/55/4
f  20/45/3 30/58/3 27/35/3
f  30/1/1 12/2/1 27/3/1
f  20/22/5 28/21/5 35/24/5
f  13/23/5 36/41/5 28/21/5
f  28/21/1 36/41/1 13/23/1
f  37/47/2 28/20/2 21/19/2
f  21/19/6 28/20/6 37/47/6
f  34/65/3 12/35/3 29/58/3
f  29/58/4 12/35/4 34/65/4
f  29/50/1 37/11/1 21/4/1
f  21/4/5 37/11/5 29/50/5
f  21/4/1 30/1/1 29/50/1
f  38/66/2 31/59/2 22/47/2
f  22/60/4 36/67/4 31/68/4
f  36/41/5 13/23/5 31/54/5
f  31/54/1 13/23/1 36/41/1
f  22/60/4 25/52/4 39/69/4
f  39/69/3 25/52/3 22/60/3
f  32/31/2 40/70/2 23/14/2
f  23/14/6 40/70/6 32/31/6
f  23/48/1 41/71/1 32/61/1
f  33/63/4 19/38/4 32/72/4
f  32/72/3 19/38/3 33/63/3
f  23/62/3 26/55/3 40/73/3
f  40/73/4 26/55/4 23/62/4
f  26/74/6 39/75/6 25/76/6
f  25/76/2 39/75/2 26/74/2
f  33/77/5 26/36/5 25/40/5
f  25/40/1 26/36/1 33/77/1
f  39/75/6 26/74/6 34/78/6
f  34/78/2 26/74/2 39/75/2
f  30/58/3 20/45/3 35/79/3
f  35/24/5 28/21/5 42/51/5
f  28/20/2 37/47/2 36/59/2
f  36/59/6 37/47/6 28/20/6
f  36/41/5 42/51/5 28/21/5
f  29/58/3 43/80/3 34/65/3
f  34/65/4 43/80/4 29/58/4
f  37/11/1 29/50/1 44/49/1
f  44/49/5 29/50/5 37/11/5
f  35/81/6 29/82/6 30/83/6
f  31/59/2 38/66/2 45/84/2
f  37/11/1 38/28/1 22/13/1
f  36/67/4 22/60/4 37/85/4
f  31/54/5 42/51/5 36/41/5
f  22/60/4 39/69/4 44/86/4
f  44/86/3 39/69/3 22/60/3
f  40/70/2 32/31/2 33/87/2
f  33/87/6 32/31/6 40/70/6
f  46/88/2 23/14/2 40/70/2
f  41/71/1 23/48/1 47/89/1
f  32/61/1 41/71/1 48/90/1
f  48/53/2 33/87/2 32/31/2
f  26/36/5 33/77/5 40/91/5
f  40/91/1 33/77/1 26/36/1
f  43/48/1 39/49/1 34/50/1
f  34/50/5 39/49/5 43/48/5
f  42/92/6 44/93/6 35/81/6
f  43/80/3 29/58/3 49/94/3
f  49/94/4 29/58/4 43/80/4
f  50/77/5 29/36/5 44/40/5
f  44/40/1 29/36/1 50/77/1
f  35/81/6 44/93/6 29/82/6
f  22/60/4 44/86/4 37/85/4
f  37/85/3 44/86/3 22/60/3
f  51/16/1 37/11/1 44/49/1
f  38/60/4 42/95/4 45/68/4
f  42/51/5 31/54/5 45/64/5
f  38/28/1 37/11/1 51/16/1
f  39/69/4 50/96/4 44/86/4
f  44/86/3 50/96/3 39/69/3
f  33/77/5 52/97/5 40/91/5
f  23/14/2 46/88/2 47/6/2
f  40/91/5 52/97/5 46/98/5
f  46/73/3 41/99/3 47/62/3
f  48/90/1 41/71/1 53/100/1
f  33/87/2 48/53/2 54/101/2
f  39/49/1 43/48/1 55/61/1
f  55/61/5 43/48/5 39/49/5
f  44/93/6 42/92/6 51/102/6
f  29/36/5 50/77/5 49/91/5
f  49/91/1 50/77/1 29/36/1
f  55/103/2 49/19/2 43/104/2
f  43/104/6 49/19/6 55/103/6
f  56/56/2 43/104/2 49/19/2
f  42/95/4 38/60/4 51/86/4
f  50/96/4 39/69/4 55/105/4
f  55/105/3 39/69/3 50/96/3
f  52/97/5 33/77/5 54/106/5
f  46/98/5 52/97/5 57/107/5
f  41/99/3 46/73/3 57/108/3
f  53/100/1 41/71/1 58/109/1
f  52/110/4 48/72/4 53/111/4
f  48/72/4 52/110/4 54/63/4
f  43/48/1 59/71/1 55/61/1
f  49/19/2 55/103/2 50/47/2
f  50/47/6 55/103/6 49/19/6
f  50/77/5 60/97/5 49/91/5
f  43/104/2 56/56/2 61/112/2
f  49/91/5 60/97/5 56/98/5
f  62/113/2 50/47/2 55/103/2
f  57/107/5 52/97/5 63/114/5
f  64/115/3 41/99/3 57/108/3
f  58/14/2 57/88/2 41/6/2
f  41/6/2 65/5/2 58/14/2
f  53/100/1 58/109/1 66/116/1
f  53/111/4 67/117/4 52/110/4
f  63/87/2 53/53/2 52/101/2
f  59/71/1 43/48/1 61/89/1
f  55/61/1 59/71/1 62/90/1
f  60/97/5 50/77/5 68/106/5
f  56/94/3 59/118/3 61/80/3
f  56/98/5 60/97/5 69/107/5
f  50/47/2 62/113/2 68/66/2
f  52/101/2 70/103/2 63/87/2
f  57/107/5 63/114/5 71/119/5
f  72/120/3 41/99/3 64/115/3
f  64/115/3 57/108/3 59/118/3
f  57/88/2 58/14/2 71/70/2
f  65/5/2 41/6/2 73/7/2
f  74/17/2 58/14/2 65/5/2
f  58/14/2 74/17/2 66/31/2
f  66/31/2 71/70/2 58/14/2
f  53/53/2 63/87/2 66/31/2
f  66/31/2 75/42/2 53/53/2
f  75/121/4 67/117/4 53/111/4
f  52/110/4 67/117/4 76/122/4
f  62/90/1 59/71/1 76/100/1
f  62/105/4 60/123/4 68/96/4
f  59/118/3 56/94/3 69/124/3
f  69/107/5 60/97/5 77/114/5
f  70/103/2 52/101/2 76/113/2
f  78/104/2 63/87/2 70/103/2
f  63/87/2 78/104/2 71/70/2
f  71/70/2 66/31/2 63/87/2
f  71/70/2 59/112/2 57/88/2
f  41/99/3 72/120/3 73/125/3
f  79/126/6 72/26/6 64/81/6
f  64/115/3 59/118/3 69/124/3
f  72/127/1 65/109/1 73/71/1
f  80/128/1 74/116/1 65/109/1
f  75/42/2 66/31/2 74/17/2
f  67/117/4 75/121/4 81/129/4
f  76/122/4 67/117/4 60/123/4
f  76/100/1 59/71/1 78/109/1
f  60/123/4 62/105/4 76/122/4
f  78/104/2 69/56/2 59/112/2
f  60/66/2 82/59/2 77/47/2
f  77/47/2 76/113/2 60/66/2
f  69/107/5 77/114/5 83/119/5
f  76/113/2 77/47/2 70/103/2
f  76/100/1 78/109/1 70/116/1
f  70/103/2 83/19/2 78/104/2
f  59/112/2 71/70/2 78/104/2
f  72/26/6 79/126/6 80/130/6
f  84/107/5 79/131/5 64/132/5
f  64/115/3 69/124/3 84/133/3
f  65/109/1 72/127/1 80/128/1
f  74/116/1 80/128/1 85/134/1
f  86/135/6 80/130/6 79/126/6
f  85/134/1 75/100/1 74/116/1
f  75/100/1 85/134/1 81/136/1
f  85/137/6 67/92/6 81/30/6
f  60/123/4 67/117/4 87/138/4
f  69/56/2 78/104/2 83/19/2
f  82/59/2 60/66/2 87/84/2
f  88/20/2 77/47/2 82/59/2
f  83/19/2 70/103/2 77/47/2
f  77/47/2 88/20/2 83/19/2
f  83/19/2 84/44/2 69/56/2
f  79/131/5 84/107/5 88/119/5
f  80/130/6 86/135/6 85/137/6
f  88/119/5 86/139/5 79/131/5
f  67/92/6 85/137/6 86/135/6
f  67/140/5 82/114/5 87/97/5
f  86/139/5 88/119/5 82/114/5
f  82/114/5 67/140/5 86/139/5
f  84/44/2 83/19/2 88/20/2

# Mesh 'mesh1_mesh1-geometry' with 184 faces
g mesh1_mesh1-geometry
usemtl material_1_24
f  3//5 2//5 1//5
f  4//5 1//5 2//5
f  3//6 5//6 2//6
f  3//4 1//4 5//4
f  6//5 1//5 4//5
f  7//6 2//6 5//6
f  9//4 5//4 1//4
f  1//5 6//5 10//5
f  7//1 5//1 11//1
f  9//1 11//1 5//1
f  9//2 1//2 14//2
f  10//5 6//5 15//5
f  10//2 16//2 1//2
f  8//5 15//5 6//5
f  6//3 8//3 17//3
f  14//1 11//1 9//1
f  14//2 1//2 19//2
f  10//3 15//3 16//3
f  19//2 1//2 16//2
f  8//6 18//6 15//6
f  18//3 17//3 8//3
f  13//6 12//6 20//6
f  14//6 25//6 19//6
f  19//2 25//2 14//2
f  24//3 16//3 15//3
f  19//1 16//1 17//1
f  24//6 15//6 18//6
f  17//1 16//1 18//1
f  27//6 20//6 12//6
f  13//1 20//1 28//1
f  21//5 30//5 12//5
f  25//6 14//6 26//6
f  26//2 14//2 25//2
f  24//1 18//1 16//1
f  27//4 30//4 20//4
f  27//5 12//5 30//5
f  35//1 28//1 20//1
f  29//5 30//5 21//5
f  22//6 31//6 38//6
f  31//3 36//3 22//3
f  32//5 41//5 23//5
f  35//4 20//4 30//4
f  42//1 28//1 35//1
f  28//1 42//1 36//1
f  44//6 34//6 29//6
f  29//2 34//2 44//2
f  30//2 29//2 35//2
f  45//6 38//6 31//6
f  22//5 38//5 37//5
f  37//3 22//3 36//3
f  36//1 42//1 31//1
f  40//6 23//6 46//6
f  47//5 23//5 41//5
f  48//5 41//5 32//5
f  32//6 33//6 48//6
f  34//6 44//6 39//6
f  39//2 44//2 34//2
f  35//2 44//2 42//2
f  29//2 44//2 35//2
f  44//5 37//5 51//5
f  45//3 42//3 38//3
f  45//1 31//1 42//1
f  51//5 37//5 38//5
f  40//1 52//1 33//1
f  47//6 46//6 23//6
f  46//1 52//1 40//1
f  47//4 41//4 46//4
f  53//5 41//5 48//5
f  54//6 48//6 33//6
f  51//2 42//2 44//2
f  49//6 43//6 56//6
f  51//3 38//3 42//3
f  54//1 33//1 52//1
f  57//1 52//1 46//1
f  57//4 46//4 41//4
f  58//5 41//5 53//5
f  53//3 48//3 52//3
f  54//3 52//3 48//3
f  55//5 59//5 43//5
f  49//1 60//1 50//1
f  61//6 56//6 43//6
f  56//1 60//1 49//1
f  55//6 50//6 62//6
f  63//1 52//1 57//1
f  57//4 41//4 64//4
f  41//6 57//6 58//6
f  58//6 65//6 41//6
f  66//5 58//5 53//5
f  52//3 67//3 53//3
f  52//6 53//6 63//6
f  61//5 43//5 59//5
f  62//5 59//5 55//5
f  68//1 50//1 60//1
f  61//4 59//4 56//4
f  69//1 60//1 56//1
f  68//6 62//6 50//6
f  63//6 70//6 52//6
f  71//1 63//1 57//1
f  64//4 41//4 72//4
f  59//4 57//4 64//4
f  71//6 58//6 57//6
f  73//6 41//6 65//6
f  65//6 58//6 74//6
f  65//4 79//4 58//4
f  58//3 79//3 65//3
f  66//6 74//6 58//6
f  58//6 71//6 66//6
f  66//6 63//6 53//6
f  53//6 75//6 66//6
f  53//3 67//3 75//3
f  76//3 67//3 52//3
f  76//5 59//5 62//5
f  68//3 60//3 62//3
f  69//4 56//4 59//4
f  77//1 60//1 69//1
f  76//6 52//6 70//6
f  70//6 63//6 78//6
f  63//4 86//4 70//4
f  70//3 86//3 63//3
f  71//6 78//6 63//6
f  63//6 66//6 71//6
f  57//6 59//6 71//6
f  73//4 72//4 41//4
f  64//2 72//2 79//2
f  69//4 59//4 64//4
f  58//4 79//4 71//4
f  71//3 79//3 58//3
f  73//5 65//5 72//5
f  65//5 74//5 80//5
f  79//4 65//4 80//4
f  80//3 65//3 79//3
f  74//4 86//4 66//4
f  66//3 86//3 74//3
f  74//6 66//6 75//6
f  66//4 86//4 63//4
f  63//3 86//3 66//3
f  81//3 75//3 67//3
f  60//3 67//3 76//3
f  78//5 59//5 76//5
f  76//3 62//3 60//3
f  59//6 69//6 78//6
f  77//6 82//6 60//6
f  60//6 76//6 77//6
f  83//1 77//1 69//1
f  70//6 77//6 76//6
f  70//5 78//5 76//5
f  78//6 83//6 70//6
f  70//4 86//4 77//4
f  77//3 86//3 70//3
f  78//6 71//6 59//6
f  71//4 79//4 78//4
f  78//3 79//3 71//3
f  80//2 79//2 72//2
f  64//1 79//1 84//1
f  84//4 69//4 64//4
f  80//5 72//5 65//5
f  85//5 80//5 74//5
f  79//2 80//2 86//2
f  86//4 74//4 85//4
f  85//3 74//3 86//3
f  74//5 75//5 85//5
f  81//5 85//5 75//5
f  81//2 67//2 85//2
f  87//3 67//3 60//3
f  83//6 78//6 69//6
f  87//6 60//6 82//6
f  82//6 77//6 88//6
f  77//4 86//4 82//4
f  82//3 86//3 77//3
f  77//6 70//6 83//6
f  83//6 88//6 77//6
f  69//6 84//6 83//6
f  78//4 79//4 83//4
f  83//3 79//3 78//3
f  88//1 84//1 79//1
f  85//2 86//2 80//2
f  79//1 86//1 88//1
f  86//2 85//2 67//2
f  87//1 82//1 67//1
f  82//1 88//1 86//1
f  86//1 67//1 82//1
f  88//6 83//6 84//6
f  83//4 79//4 88//4
f  88//3 79//3 83//3

