# File produced by Open Asset Import Library (http://www.assimp.sf.net)
# (assimp v3.2.202087883)

mtllib model_normalized.mtl

# 110 vertex positions
v 0.416759 0.078313 0.026185
v 0.254670 0.159358 0.034289
v 0.254670 0.159358 0.026185
v 0.254670 0.159358 0.042393
v 0.416759 0.159358 0.026185
v 0.416759 0.078313 0.042393
v 0.416759 0.159358 0.014028
v -0.393682 0.159358 0.054550
v 0.416759 0.078313 0.034289
v 0.416759 0.159358 0.042393
v 0.416759 0.159358 0.054550
v 0.416759 0.078313 0.014028
v 0.416759 0.078313 0.054550
v -0.393682 0.159358 0.042393
v 0.457281 0.199880 0.054550
v 0.457281 0.199880 0.014028
v -0.393682 0.159358 0.034289
v -0.393682 0.078313 0.054550
v -0.434204 0.199880 0.054550
v 0.437020 0.058052 0.014028
v -0.434204 0.199880 0.014028
v -0.231594 0.078313 0.026185
v -0.393682 0.159358 0.026185
v -0.231594 0.078313 0.042393
v -0.393682 0.078313 0.042393
v 0.416759 0.037791 0.054550
v 0.437020 0.037791 0.014028
v -0.393682 0.078313 0.014028
v -0.393682 0.159358 0.014028
v -0.231594 0.078313 0.034289
v -0.393682 0.037791 0.054550
v 0.416759 -0.043253 0.054550
v -0.434204 -0.205341 0.054550
v 0.437020 -0.043253 0.014028
v 0.437020 0.037791 -0.107538
v 0.416759 0.058052 0.014028
v 0.457281 -0.205341 0.014028
v -0.393682 0.078313 0.026185
v -0.393682 -0.043253 0.054550
v 0.416759 -0.083775 0.054550
v 0.416759 0.037791 0.014028
v -0.434204 -0.205341 0.014028
v -0.393682 -0.164819 0.054550
v 0.437020 -0.083775 0.014028
v 0.437020 0.058052 -0.148060
v 0.416759 0.058052 -0.148060
v -0.393682 0.037791 0.014028
v 0.457281 -0.205341 0.054550
v -0.393682 -0.083775 0.054550
v -0.393682 -0.043253 0.014028
v 0.416759 -0.124297 0.054550
v 0.416759 -0.043253 0.014028
v -0.393682 0.037791 0.021646
v -0.413943 -0.083775 0.014028
v -0.393682 -0.205341 0.014028
v -0.393682 -0.205341 0.054550
v -0.393682 -0.124297 0.054550
v 0.437020 -0.083775 -0.148060
v 0.437020 0.037791 -0.148060
v 0.416759 0.037791 -0.107538
v 0.416759 -0.205341 0.054550
v 0.416759 -0.083775 0.014028
v 0.416759 -0.164819 0.054550
v -0.231594 -0.083775 0.014028
v 0.416759 -0.043253 -0.026494
v -0.413943 -0.043253 0.014028
v 0.437020 -0.043253 -0.026494
v 0.416759 -0.205341 0.014028
v -0.393682 -0.124297 0.034289
v -0.393682 -0.043253 -0.026494
v 0.416759 -0.124297 0.034289
v 0.254670 -0.083775 0.014028
v -0.231594 -0.083775 -0.026494
v -0.191072 -0.083775 0.014028
v -0.393682 -0.083775 0.014028
v -0.413943 0.037791 -0.107538
v -0.393682 -0.164819 0.034289
v 0.437020 -0.043253 -0.067016
v 0.437020 -0.020775 -0.019688
v 0.416759 0.037791 -0.148060
v 0.416759 -0.164819 0.034289
v -0.393682 0.037791 -0.107538
v 0.214148 -0.083775 0.014028
v -0.231594 -0.144558 0.034289
v 0.437020 -0.043253 -0.148060
v -0.413943 -0.043253 -0.026494
v 0.437020 -0.043253 -0.075120
v 0.254670 -0.083775 -0.026494
v -0.393682 0.037791 -0.148060
v 0.214148 -0.144558 0.034289
v -0.191072 -0.144558 0.034289
v -0.191072 -0.083775 -0.026494
v 0.214148 -0.083775 -0.026494
v -0.413943 -0.043253 -0.148060
v -0.393682 0.058052 0.014028
v -0.413943 -0.083775 -0.148060
v -0.413943 0.037791 -0.148060
v 0.254670 -0.144558 0.034289
v -0.413943 0.037791 0.014028
v -0.393682 0.058052 -0.148060
v -0.413943 0.058052 -0.148060
v -0.413943 0.058052 0.014028
v 0.416759 0.159358 0.034289
v -0.393682 0.078313 0.034289
v -0.393682 0.058052 0.021646
v -0.393682 -0.063514 0.014028
v -0.413943 0.037791 0.021646
v -0.413943 0.058052 0.021646
v -0.227970 0.166606 0.046446
v -0.227970 0.166606 0.030237

# 173 UV coordinates
vt -0.019138 -0.427944 0
vt -0.01367 -0.305674 0
vt -0.019138 -0.305674 0
vt -0.008202 -0.305674 0
vt -0.464786 0.008202 0
vt -0.464786 0.019138 0
vt -0.464786 0.01367 0
vt -0.574147 0.246063 0
vt -0.574147 0.191382 0
vt -0.464786 0.246063 0
vt -0.008202 -0.427944 0
vt -0.574147 0.02734 0
vt -0.574147 0.019138 0
vt -0.02734 0 0
vt -0.02734 0.246063 0
vt -0.019138 0.191382 0
vt -0.019138 0.246063 0
vt -0.01367 -0.427944 0
vt 0.464786 0.246063 0
vt 0.574147 0.191382 0
vt 0.574147 0.246063 0
vt -0.574147 0 0
vt -0.02734 0.191382 0
vt 0.574147 0.02734 0
vt 0.574147 0.01367 0
vt 0.574147 0.019138 0
vt 0.574147 0.008202 0
vt 0 0.191382 0
vt -0.008202 0.246063 0
vt -0.008202 0.191382 0
vt -0.574147 0.008202 0
vt -0.02734 0.008202 0
vt 0.601487 0.273403 0
vt 0.02734 0.246063 0
vt -0.601487 0.273403 0
vt 0.574147 0 0
vt 0 0.246063 0
vt -0.02734 0.01367 0
vt 0 0.273403 0
vt -0.587817 0.177712 0
vt 0.136702 0.019138 0
vt -0.02734 0.019138 0
vt 0.008202 -0.036681 0
vt 0.01367 0.085589 0
vt 0.008202 0.085589 0
vt 0.02734 0.191382 0
vt 0.574147 0.164042 0
vt 0.601487 0 0
vt 0 0.02734 0
vt 0 0 0
vt -0.587817 0.164042 0
vt 0.601487 0.02734 0
vt 0.02734 0.02734 0
vt 0.136702 0.01367 0
vt -0.02734 0.02734 0
vt 0.019138 0.085589 0
vt 0.136702 0.191382 0
vt 0.02734 0.008202 0
vt 0.02734 0 0
vt 0.02734 0.164042 0
vt 0.574147 0.109361 0
vt -0.02734 0.273403 0
vt -0.587817 0.109361 0
vt 0.109361 0.164042 0
vt 0.02734 0.177712 0
vt -0.574147 0.177712 0
vt 0.02734 0.273403 0
vt 0.02734 0.019138 0
vt 0.136702 0.008202 0
vt 0.019138 -0.036681 0
vt 0.01367 -0.036681 0
vt 0.02734 0.109361 0
vt 0.574147 0.082021 0
vt -0.02734 0.164042 0
vt 0 0.109361 0
vt 0 0.164042 0
vt -0.587817 0.082021 0
vt -0.574147 0.164042 0
vt 0.136702 0.177712 0
vt -0.587817 0.02734 0
vt 0.587817 0.02734 0
vt 0.574147 0.136702 0
vt -0.601487 0 0
vt -0.136702 0.191382 0
vt 0.02734 0.082021 0
vt 0.574147 0.054681 0
vt -0.02734 0.109361 0
vt -0.02734 0.0222 0
vt -0.01367 0.082021 0
vt 0.02734 0.054681 0
vt 0.136702 0.082021 0
vt -0.574147 0.109361 0
vt 0.136702 0.164042 0
vt 0.587817 0.136702 0
vt -0.136702 0.177712 0
vt -0.02734 0.177712 0
vt -0.601487 0.02734 0
vt -0.574147 0.082021 0
vt 0.0222 0.164042 0
vt -0.02734 0.082021 0
vt 0 0.054681 0
vt 0 0.082021 0
vt -0.136702 0.02734 0
vt -0.01367 0.109361 0
vt 0.054681 0.109361 0
vt -0.587817 0.136702 0
vt 0.587817 0.181988 0
vt 0.574147 0.083411 0
vt 0.587817 0.083411 0
vt -0.109361 0.164042 0
vt 0.574147 0.181988 0
vt 0.01367 0.054681 0
vt -0.01367 0.054681 0
vt -0.464786 0.02734 0
vt -0.136702 0.054681 0
vt -0.164042 0.02734 0
vt -0.054681 0.109361 0
vt 0.01367 0.02734 0
vt 0.02734 0.01367 0
vt -0.574147 0.01367 0
vt 0.082021 0.109361 0
vt 0.050089 0.124527 0
vt 0.587817 0.110752 0
vt -0.574147 0.10616 0
vt -0.587817 0.204737 0
vt -0.587817 0.10616 0
vt -0.136702 0.164042 0
vt 0.02734 0.083411 0
vt 0.01367 0.181988 0
vt 0.01367 0.083411 0
vt -0.01367 0.02734 0
vt -0.437445 0.02734 0
vt -0.054681 0.082021 0
vt -0.01367 0.04101 0
vt 0.136702 0.043229 0
vt 0.164042 0.086458 0
vt 0.136702 0.086458 0
vt 0.087489 0.109361 0
vt 0.587817 0.054681 0
vt 0.587817 0.082021 0
vt -0.464786 0.054681 0
vt -0.574147 0.204737 0
vt 0.02734 0.181988 0
vt 0.437445 0.043229 0
vt 0.464786 0.086458 0
vt 0.437445 0.086458 0
vt -0.136702 0.096663 0
vt -0.164042 0.038665 0
vt -0.136702 0.038665 0
vt -0.164042 0.054681 0
vt -0.164042 0.096663 0
vt 0.164042 0.043229 0
vt 0.054681 0.082021 0
vt 0.01367 0.04101 0
vt -0.437445 0.054681 0
vt 0.01367 0.136702 0
vt -0.01367 0.136702 0
vt -0.136702 0.082021 0
vt 0.136702 0.109361 0
vt 0.587817 0.087489 0
vt -0.01367 0.10616 0
vt -0.02734 0.204737 0
vt -0.02734 0.10616 0
vt 0.464786 0.043229 0
vt -0.01367 0.204737 0
vt -0.136702 0.109361 0
vt -0.464786 0.038665 0
vt -0.437445 0.096663 0
vt -0.464786 0.096663 0
vt -0.01367 0.177712 0
vt -0.437445 0.038665 0
vt 0.02734 0.136702 0
vt -0.01367 0.164042 0

# 14 vertex normals
vn -0.000447214 -0.000894427 -0
vn 0 -0.001 0
vn 0 0 -0.001
vn -0.001 0 0
vn 0 0 0.001
vn 0 0.001 0
vn 0.001 0 0
vn 0.000447214 0.000894427 0
vn 0 0.00083205 0.0005547
vn 0 -0.00083205 -0.0005547
vn 0 0.000316228 0.000948683
vn 0 -0.000707107 -0.000707107
vn 0 -0.000316228 -0.000948683
vn 0 0.000707107 0.000707107

# Mesh 'mesh1_mesh1-geometry' with 216 faces
g mesh1_mesh1-geometry
usemtl material_0_1_8
f  1/1/1 2/2/1 3/3/1
f  2/2/1 1/1/1 4/4/1
f  4/5/2 3/6/2 2/7/2
f  5/8/3 1/9/3 3/10/3
f  4/4/1 1/1/1 6/11/1
f  3/6/2 7/12/2 5/13/2
f  4/5/2 8/14/2 3/6/2
f  7/15/4 1/16/4 5/17/4
f  6/11/1 1/1/1 9/18/1
f  4/19/5 6/20/5 10/21/5
f  8/14/2 7/12/2 3/6/2
f  8/14/2 4/5/2 11/22/2
f  1/16/4 7/15/4 12/23/4
f  12/24/6 9/25/6 1/26/6
f  12/24/6 6/27/6 9/25/6
f  13/28/4 10/29/4 6/30/4
f  11/22/2 4/5/2 10/31/2
f  14/32/2 7/12/2 8/14/2
f  11/21/5 15/33/5 8/34/5
f  16/35/3 12/9/3 7/8/3
f  12/24/6 13/36/6 6/27/6
f  10/29/4 13/28/4 11/37/4
f  17/38/2 7/12/2 14/32/2
f  8/37/7 18/28/7 14/29/7
f  13/20/5 15/33/5 11/21/5
f  19/39/5 8/34/5 15/33/5
f  16/35/3 20/40/3 12/9/3
f  16/35/3 7/8/3 21/39/3
f  12/24/6 22/41/6 13/36/6
f  23/42/2 7/12/2 17/38/2
f  24/43/8 17/44/8 14/45/8
f  25/30/7 14/29/7 18/28/7
f  19/39/5 18/46/5 8/34/5
f  26/47/5 15/33/5 13/20/5
f  15/48/6 21/49/6 19/50/6
f  16/35/3 27/51/3 20/40/3
f  12/9/3 20/40/3 28/23/3
f  29/15/3 21/39/3 7/8/3
f  21/49/6 15/48/6 16/52/6
f  28/53/6 22/41/6 12/24/6
f  30/54/6 13/36/6 22/41/6
f  7/12/2 23/42/2 29/55/2
f  17/44/8 24/43/8 23/56/8
f  14/34/5 25/46/5 24/57/5
f  13/36/6 25/58/6 18/59/6
f  19/39/5 31/60/5 18/46/5
f  32/61/5 15/33/5 26/47/5
f  26/47/5 13/20/5 31/60/5
f  21/62/4 33/50/4 19/39/4
f  16/35/3 34/63/3 27/51/3
f  35/64/7 20/65/7 27/60/7
f  36/66/3 28/23/3 20/40/3
f  28/23/3 21/39/3 29/15/3
f  15/39/7 37/59/7 16/67/7
f  22/41/6 28/53/6 38/68/6
f  24/69/6 13/36/6 30/54/6
f  22/70/8 24/43/8 30/71/8
f  23/17/7 38/16/7 29/15/7
f  23/56/8 24/43/8 22/70/8
f  25/58/6 13/36/6 24/69/6
f  18/46/5 31/60/5 13/20/5
f  19/39/5 39/72/5 31/60/5
f  40/73/5 15/33/5 32/61/5
f  41/74/4 32/75/4 26/76/4
f  31/14/2 41/12/2 26/22/2
f  33/50/4 21/62/4 42/14/4
f  33/50/5 43/53/5 19/39/5
f  16/35/3 44/77/3 34/63/3
f  27/51/3 34/63/3 41/78/3
f  20/65/7 35/64/7 45/79/7
f  41/12/2 35/63/2 27/80/2
f  41/78/3 28/23/3 36/66/3
f  20/81/6 46/82/6 36/24/6
f  47/74/3 21/39/3 28/23/3
f  28/23/7 29/15/7 38/16/7
f  37/59/7 15/39/7 48/50/7
f  37/83/3 44/77/3 16/35/3
f  23/15/3 22/84/3 38/23/3
f  19/39/5 49/85/5 39/72/5
f  50/72/7 31/76/7 39/75/7
f  51/86/5 15/33/5 40/73/5
f  40/73/5 32/61/5 49/85/5
f  32/75/4 41/74/4 52/87/4
f  53/88/2 41/12/2 31/14/2
f  54/89/3 42/50/3 21/39/3
f  55/55/2 33/50/2 42/49/2
f  43/53/5 33/50/5 56/59/5
f  19/39/5 43/53/5 57/90/5
f  58/91/7 34/72/7 44/85/7
f  41/78/3 34/63/3 52/92/3
f  45/79/7 35/64/7 59/93/7
f  46/82/6 20/81/6 45/94/6
f  35/63/2 41/12/2 60/92/2
f  47/74/3 28/23/3 41/78/3
f  46/95/4 41/74/4 36/96/4
f  50/87/3 21/39/3 47/74/3
f  15/33/5 61/36/5 48/48/5
f  61/22/2 37/97/2 48/83/2
f  37/83/3 62/98/3 44/77/3
f  19/39/5 57/90/5 49/85/5
f  39/72/5 49/85/5 32/61/5
f  31/76/7 50/72/7 53/99/7
f  32/36/6 50/53/6 39/59/6
f  63/24/5 15/33/5 51/86/5
f  62/100/4 51/101/4 40/102/4
f  49/14/2 64/103/2 40/22/2
f  65/86/6 32/36/6 52/24/6
f  41/12/2 53/88/2 47/55/2
f  42/50/3 54/89/3 55/14/3
f  54/89/3 21/39/3 66/104/3
f  33/50/2 55/55/2 56/14/2
f  55/59/7 43/49/7 56/50/7
f  43/53/5 51/86/5 57/90/5
f  34/72/7 58/91/7 67/105/7
f  62/12/2 58/106/2 44/80/2
f  35/107/9 52/108/9 34/109/9
f  35/64/7 67/105/7 59/93/7
f  59/51/3 46/66/3 45/40/3
f  41/74/4 46/95/4 60/110/4
f  52/108/9 35/107/9 60/111/9
f  66/104/3 21/39/3 50/87/3
f  53/99/7 50/72/7 47/60/7
f  61/36/5 15/33/5 63/24/5
f  37/97/2 61/22/2 68/12/2
f  62/98/3 37/83/3 68/22/3
f  69/112/7 49/102/7 57/101/7
f  50/53/6 32/36/6 70/90/6
f  51/86/5 43/53/5 63/24/5
f  51/101/4 62/100/4 71/113/4
f  40/22/2 72/114/2 62/12/2
f  64/103/2 49/14/2 73/115/2
f  40/22/2 64/103/2 74/116/2
f  65/86/6 70/90/6 32/36/6
f  60/110/4 65/117/4 52/87/4
f  75/100/3 55/14/3 54/89/3
f  76/110/4 54/100/4 66/87/4
f  43/49/7 55/59/7 77/118/7
f  43/59/2 77/119/2 63/36/2
f  51/22/6 71/120/6 57/14/6
f  67/105/7 58/91/7 78/121/7
f  34/72/7 67/105/7 79/122/7
f  72/114/2 58/106/2 62/12/2
f  35/107/9 34/109/9 79/123/9
f  67/105/7 35/64/7 79/122/7
f  65/124/10 59/125/10 67/126/10
f  46/66/3 59/51/3 80/78/3
f  80/127/4 60/110/4 46/95/4
f  50/128/9 76/129/9 66/130/9
f  81/131/4 61/50/4 63/49/4
f  61/50/4 81/131/4 68/14/4
f  68/14/4 81/131/4 62/100/4
f  49/102/7 69/112/7 75/85/7
f  69/38/6 57/14/6 71/120/6
f  70/105/7 82/64/7 50/72/7
f  71/113/4 62/100/4 81/131/4
f  40/22/2 83/132/2 72/114/2
f  75/55/2 73/115/2 49/14/2
f  73/133/4 84/134/4 64/100/4
f  84/135/11 74/136/11 64/137/11
f  40/22/2 74/116/2 83/132/2
f  85/94/6 70/90/6 65/86/6
f  65/117/4 60/110/4 80/127/4
f  75/85/7 69/112/7 55/59/7
f  54/131/2 73/115/2 75/55/2
f  54/100/4 76/110/4 86/117/4
f  77/118/7 55/59/7 69/112/7
f  69/90/3 71/86/3 77/53/3
f  81/25/2 63/36/2 77/119/2
f  78/121/7 58/91/7 87/138/7
f  85/94/6 67/139/6 78/140/6
f  88/141/2 58/106/2 72/114/2
f  59/125/10 65/124/10 80/142/10
f  85/94/6 65/86/6 67/139/6
f  76/129/9 50/128/9 82/143/9
f  82/64/7 70/105/7 89/93/7
f  81/24/3 77/53/3 71/86/3
f  90/144/11 72/145/11 83/146/11
f  73/147/12 91/148/12 84/149/12
f  73/115/2 58/106/2 92/150/2
f  91/148/12 73/147/12 92/151/12
f  74/136/11 84/135/11 91/152/11
f  92/150/2 58/106/2 74/116/2
f  92/153/7 74/85/7 91/154/7
f  83/132/2 74/116/2 93/155/2
f  94/156/6 70/90/6 85/94/6
f  82/64/7 95/65/7 47/60/7
f  96/157/2 73/115/2 54/131/2
f  86/117/4 76/110/4 97/127/4
f  86/117/4 96/158/4 54/100/4
f  87/138/7 58/91/7 85/159/7
f  85/94/6 78/140/6 87/160/6
f  93/155/2 58/106/2 88/141/2
f  88/153/7 72/85/7 98/154/7
f  82/87/2 99/131/2 76/104/2
f  86/161/10 89/162/10 70/163/10
f  100/79/7 82/64/7 89/93/7
f  72/145/11 90/144/11 98/164/11
f  93/133/4 90/134/4 83/100/4
f  73/115/2 96/157/2 58/106/2
f  74/116/2 58/106/2 93/155/2
f  70/90/6 94/156/6 86/112/6
f  58/77/3 94/104/3 85/63/3
f  99/131/2 82/87/2 47/55/2
f  95/65/7 82/64/7 100/79/7
f  95/53/6 101/156/6 102/118/6
f  97/127/4 76/110/4 101/95/4
f  89/162/10 86/161/10 97/165/10
f  96/158/4 86/117/4 94/166/4
f  98/167/12 93/168/12 88/169/12
f  99/74/4 101/95/4 76/110/4
f  89/74/3 101/170/3 100/96/3
f  93/168/12 98/167/12 90/171/12
f  94/104/3 58/77/3 96/89/3
f  101/95/4 99/74/4 102/96/4
f  101/156/6 95/53/6 100/172/6
f  101/170/3 89/74/3 97/173/3

# Mesh 'mesh1_mesh1-geometry' with 290 faces
g mesh1_mesh1-geometry
usemtl material_1_24
f  3//8 2//8 1//8
f  4//8 1//8 2//8
f  5//2 2//2 3//2
f  3//6 2//6 5//6
f  2//6 3//6 4//6
f  3//5 1//5 5//5
f  6//8 1//8 4//8
f  2//2 5//2 4//2
f  4//6 5//6 2//6
f  5//6 7//6 3//6
f  3//6 8//6 4//6
f  5//7 1//7 7//7
f  9//4 5//4 1//4
f  1//7 5//7 9//7
f  9//8 1//8 6//8
f  10//3 6//3 4//3
f  4//2 5//2 10//2
f  10//6 5//6 4//6
f  3//6 7//6 8//6
f  11//6 4//6 8//6
f  12//7 7//7 1//7
f  5//4 9//4 103//4
f  103//7 9//7 5//7
f  1//2 9//2 12//2
f  9//2 6//2 12//2
f  6//4 103//4 9//4
f  9//7 103//7 6//7
f  6//7 10//7 13//7
f  103//4 6//4 10//4
f  10//7 6//7 103//7
f  10//6 4//6 11//6
f  10//2 5//2 103//2
f  103//6 5//6 10//6
f  8//6 7//6 14//6
f  8//3 15//3 11//3
f  7//5 12//5 16//5
f  6//2 13//2 12//2
f  11//7 13//7 10//7
f  14//6 7//6 17//6
f  14//4 18//4 8//4
f  11//3 15//3 13//3
f  15//3 8//3 19//3
f  12//5 20//5 16//5
f  21//5 7//5 16//5
f  13//2 22//2 12//2
f  17//6 7//6 23//6
f  14//1 17//1 24//1
f  17//4 25//4 14//4
f  14//7 25//7 17//7
f  18//4 14//4 25//4
f  8//3 18//3 19//3
f  13//3 15//3 26//3
f  19//2 21//2 15//2
f  20//5 27//5 16//5
f  28//5 20//5 12//5
f  7//5 21//5 29//5
f  16//2 15//2 21//2
f  12//2 22//2 28//2
f  22//2 13//2 30//2
f  29//6 23//6 7//6
f  23//1 24//1 17//1
f  23//4 104//4 17//4
f  17//7 104//7 23//7
f  24//3 25//3 14//3
f  25//4 17//4 104//4
f  104//7 17//7 25//7
f  18//2 25//2 13//2
f  18//3 31//3 19//3
f  26//3 15//3 32//3
f  31//3 13//3 26//3
f  19//7 33//7 21//7
f  27//5 34//5 16//5
f  27//4 20//4 35//4
f  20//5 28//5 36//5
f  29//5 21//5 28//5
f  16//4 37//4 15//4
f  38//2 28//2 22//2
f  30//2 13//2 24//2
f  30//1 24//1 22//1
f  22//6 24//6 30//6
f  30//2 24//2 22//2
f  29//4 38//4 23//4
f  22//1 24//1 23//1
f  104//4 23//4 38//4
f  38//7 23//7 104//7
f  24//6 104//6 25//6
f  25//2 104//2 24//2
f  24//2 13//2 25//2
f  13//3 31//3 18//3
f  31//3 39//3 19//3
f  32//3 15//3 40//3
f  26//7 32//7 41//7
f  26//6 41//6 31//6
f  42//7 21//7 33//7
f  19//3 43//3 33//3
f  34//5 44//5 16//5
f  41//5 34//5 27//5
f  45//4 35//4 20//4
f  27//6 35//6 41//6
f  36//5 28//5 41//5
f  36//2 46//2 20//2
f  28//5 21//5 47//5
f  38//4 29//4 28//4
f  48//4 15//4 37//4
f  16//5 44//5 37//5
f  38//5 22//5 23//5
f  38//6 24//6 22//6
f  22//2 24//2 38//2
f  104//6 24//6 38//6
f  38//2 24//2 104//2
f  39//3 49//3 19//3
f  39//4 31//4 50//4
f  40//3 15//3 51//3
f  49//3 32//3 40//3
f  52//7 41//7 32//7
f  31//6 41//6 53//6
f  21//5 42//5 54//5
f  42//6 33//6 55//6
f  56//3 33//3 43//3
f  57//3 43//3 19//3
f  44//4 34//4 58//4
f  44//3 52//3 34//3
f  34//5 52//5 44//5
f  52//5 34//5 41//5
f  59//4 35//4 45//4
f  45//2 20//2 46//2
f  60//6 41//6 35//6
f  41//5 28//5 47//5
f  36//7 41//7 46//7
f  47//5 21//5 50//5
f  48//3 61//3 15//3
f  48//6 37//6 61//6
f  44//5 62//5 37//5
f  49//3 57//3 19//3
f  32//3 49//3 39//3
f  53//4 50//4 31//4
f  39//2 50//2 32//2
f  51//3 15//3 63//3
f  40//7 51//7 62//7
f  40//6 64//6 49//6
f  52//2 32//2 65//2
f  47//6 53//6 41//6
f  55//5 54//5 42//5
f  66//5 21//5 54//5
f  56//6 55//6 33//6
f  56//4 43//4 55//4
f  77//7 57//7 43//7
f  43//4 57//4 77//4
f  57//3 51//3 43//3
f  67//4 58//4 34//4
f  44//6 58//6 62//6
f  52//3 44//3 62//3
f  62//5 44//5 52//5
f  34//10 52//10 35//10
f  59//4 67//4 35//4
f  45//5 46//5 59//5
f  60//7 46//7 41//7
f  60//10 35//10 52//10
f  50//5 21//5 66//5
f  47//4 50//4 53//4
f  63//3 15//3 61//3
f  68//6 61//6 37//6
f  68//5 37//5 62//5
f  57//4 49//4 69//4
f  70//2 32//2 50//2
f  71//4 63//4 51//4
f  51//7 63//7 71//7
f  63//3 43//3 51//3
f  71//7 62//7 51//7
f  62//6 72//6 40//6
f  73//6 49//6 64//6
f  74//6 64//6 40//6
f  32//2 70//2 65//2
f  52//7 65//7 60//7
f  47//7 105//7 53//7
f  53//4 105//4 47//4
f  54//5 55//5 75//5
f  66//3 75//3 54//3
f  54//5 75//5 66//5
f  66//7 54//7 76//7
f  77//4 55//4 43//4
f  57//7 77//7 69//7
f  69//4 77//4 57//4
f  63//6 77//6 43//6
f  57//2 71//2 51//2
f  78//4 58//4 67//4
f  79//4 67//4 34//4
f  62//6 58//6 72//6
f  79//10 34//10 35//10
f  79//4 35//4 67//4
f  67//9 59//9 65//9
f  80//5 59//5 46//5
f  46//7 60//7 80//7
f  106//3 66//3 50//3
f  50//5 66//5 106//5
f  66//10 76//10 50//10
f  63//7 61//7 81//7
f  68//7 81//7 61//7
f  62//7 81//7 68//7
f  75//4 69//4 49//4
f  71//2 57//2 69//2
f  50//4 82//4 70//4
f  63//4 71//4 81//4
f  81//7 71//7 63//7
f  81//7 62//7 71//7
f  72//6 83//6 40//6
f  49//6 73//6 75//6
f  64//7 84//7 73//7
f  92//2 64//2 73//2
f  73//6 64//6 92//6
f  64//13 74//13 84//13
f  64//2 92//2 74//2
f  74//6 92//6 64//6
f  83//6 74//6 40//6
f  65//2 70//2 85//2
f  80//7 60//7 65//7
f  105//7 47//7 95//7
f  95//4 47//4 105//4
f  105//5 107//5 53//5
f  53//3 107//3 105//3
f  55//4 69//4 75//4
f  75//6 73//6 54//6
f  75//3 66//3 106//3
f  106//5 66//5 75//5
f  86//7 76//7 54//7
f  69//4 55//4 77//4
f  77//5 71//5 69//5
f  77//6 63//6 81//6
f  87//4 58//4 78//4
f  78//2 67//2 85//2
f  72//6 58//6 88//6
f  80//9 65//9 59//9
f  67//2 65//2 85//2
f  82//10 50//10 76//10
f  89//4 70//4 82//4
f  71//5 77//5 81//5
f  83//13 72//13 90//13
f  83//2 88//2 72//2
f  72//6 88//6 83//6
f  84//14 91//14 73//14
f  92//6 58//6 73//6
f  92//14 73//14 91//14
f  91//13 84//13 74//13
f  74//6 58//6 92//6
f  91//4 74//4 92//4
f  93//6 74//6 83//6
f  85//2 70//2 94//2
f  95//5 99//5 47//5
f  47//3 99//3 95//3
f  47//4 95//4 82//4
f  102//6 105//6 95//6
f  95//2 105//2 102//2
f  107//5 105//5 108//5
f  108//3 105//3 107//3
f  54//6 73//6 96//6
f  97//7 76//7 86//7
f  54//7 96//7 86//7
f  85//4 58//4 87//4
f  87//2 78//2 85//2
f  88//6 58//6 93//6
f  98//4 72//4 88//4
f  76//6 99//6 82//6
f  70//9 89//9 86//9
f  89//4 82//4 100//4
f  98//13 90//13 72//13
f  83//7 90//7 93//7
f  88//2 83//2 93//2
f  93//6 83//6 88//6
f  58//6 96//6 73//6
f  93//6 58//6 74//6
f  86//2 94//2 70//2
f  85//5 94//5 58//5
f  99//5 95//5 102//5
f  102//3 95//3 99//3
f  47//6 82//6 99//6
f  100//4 82//4 95//4
f  105//6 102//6 108//6
f  108//2 102//2 105//2
f  102//2 101//2 95//2
f  101//7 76//7 97//7
f  97//9 86//9 89//9
f  94//7 86//7 96//7
f  88//14 93//14 98//14
f  76//7 101//7 99//7
f  100//5 101//5 89//5
f  90//14 98//14 93//14
f  96//5 58//5 94//5
f  102//7 99//7 101//7
f  100//2 95//2 101//2
f  97//5 89//5 101//5

# Mesh 'mesh2_mesh2-geometry' with 4 faces
g mesh2_mesh2-geometry
usemtl material_1_0
l  103 5
l  103 10
l  103 2
l  9 103

# Mesh 'mesh3_mesh3-geometry' with 4 faces
g mesh3_mesh3-geometry
usemtl material_1_0
l  104 38
l  104 25
l  17 104
l  104 30

# Mesh 'mesh4_mesh4-geometry' with 7 faces
g mesh4_mesh4-geometry
usemtl material_1_0
l  95 47
l  102 95
l  95 105
l  47 99
l  102 99
l  108 105
l  105 53

# Mesh 'mesh5_mesh5-geometry' with 1 faces
g mesh5_mesh5-geometry
usemtl material_1_0
l  109 110

