# File produced by Open Asset Import Library (http://www.assimp.sf.net)
# (assimp v3.2.202087883)

mtllib model_normalized.mtl

# 64 vertex positions
v -0.362710 0.045157 0.069088
v -0.483614 0.059550 0.069088
v -0.483614 0.045157 0.069088
v -0.362710 0.059550 0.069088
v -0.483614 0.045157 -0.069088
v -0.362710 0.045157 0.046059
v -0.359832 0.045157 0.069088
v -0.362710 0.059550 0.046059
v -0.483614 0.059550 -0.069088
v -0.362710 0.045157 -0.046059
v -0.362710 -0.153471 0.046059
v -0.339681 -0.153471 0.069088
v -0.339681 0.059550 0.069088
v -0.339681 0.059550 -0.046059
v -0.339681 0.059550 0.046059
v -0.362710 0.059550 -0.069088
v -0.362710 0.045157 -0.069088
v 0.362710 0.045157 0.046059
v -0.362710 -0.153471 0.069088
v -0.339681 0.045157 0.046059
v -0.342560 0.045157 0.069088
v -0.362710 0.059550 -0.046059
v 0.339681 0.059550 -0.046059
v 0.362710 0.059550 0.046059
v -0.362710 -0.153471 -0.069088
v -0.339681 0.045157 -0.046059
v 0.339681 0.045157 0.046059
v -0.339681 -0.153471 0.046059
v -0.339681 0.045157 0.069088
v 0.339681 0.059550 0.046059
v -0.339681 0.059550 -0.069088
v 0.362710 0.059550 -0.046059
v 0.339681 0.059550 -0.069088
v -0.359832 0.045157 -0.069088
v -0.362710 -0.153471 -0.046059
v 0.339681 0.045157 -0.046059
v -0.339681 -0.153471 -0.046059
v 0.339681 -0.153471 0.046059
v 0.339681 0.045157 0.069088
v 0.339681 0.059550 0.069088
v 0.362710 0.059550 -0.069088
v 0.483614 0.059550 0.069088
v -0.339681 -0.153471 -0.069088
v 0.362710 0.045157 -0.046059
v -0.339681 0.045157 -0.069088
v 0.362710 -0.153471 0.046059
v 0.483614 0.059550 -0.069088
v 0.342560 0.045157 -0.069088
v 0.362710 0.059550 0.069088
v -0.342560 0.045157 -0.069088
v 0.362710 -0.153471 -0.046059
v 0.483614 0.045157 0.069088
v 0.339681 0.045157 -0.069088
v 0.362710 -0.153471 0.069088
v 0.339681 -0.153471 0.069088
v 0.342560 0.045157 0.069088
v 0.362710 0.045157 -0.069088
v 0.359836 0.045285 -0.069088
v 0.339681 -0.153471 -0.046059
v 0.362710 0.045157 0.069088
v 0.339681 -0.153471 -0.069088
v 0.483614 0.045157 -0.069088
v 0.362710 -0.153471 -0.069088
v 0.359831 0.045157 0.069088

# 100 UV coordinates
vt 0.452813 0 0
vt 0.306979 0.017361 0
vt 0.306979 0 0
vt 0.452813 0.017361 0
vt 0.751032 0.017361 0
vt 0.584366 0 0
vt 0.751032 0 0
vt -0.751032 0.306979 0
vt -0.723255 0.452813 0
vt -0.751032 0.452813 0
vt 0.456285 0 0
vt 0.723255 0.452813 0
vt 0.751032 0.306979 0
vt 0.751032 0.452813 0
vt 0.584366 0.017361 0
vt -0.584366 0.306979 0
vt -0.612143 0.452813 0
vt 0.723255 -0.239583 0
vt 0.723255 0 0
vt 0.48059 -0.239583 0
vt 0.48059 0.017361 0
vt 0.612143 0.48059 0
vt 0.723255 0.48059 0
vt 0.584366 0.452813 0
vt 0.584366 0.306979 0
vt -0.452813 0.017361 0
vt -0.306979 0 0
vt -0.306979 0.017361 0
vt -0.584366 0.452813 0
vt -0.723255 1.32781 0
vt 0.751032 -0.239583 0
vt -0.48059 0 0
vt -0.452813 -0.239583 0
vt -0.452813 0 0
vt 0.452813 -0.239583 0
vt 0.477118 0 0
vt 0.751032 0.48059 0
vt 0.612143 0.452813 0
vt 0.612143 1.30003 0
vt 0.723255 1.32781 0
vt 0.584366 -0.239583 0
vt 0.612143 0 0
vt -0.612143 0.48059 0
vt -0.723255 1.30003 0
vt -0.751032 0.48059 0
vt -0.48059 -0.239583 0
vt -0.723255 0.48059 0
vt 0.48059 0 0
vt 0.723255 1.30003 0
vt 0.584366 0.48059 0
vt 0.612143 1.32781 0
vt 0.584366 1.30003 0
vt -0.456285 0 0
vt 0.612143 -0.239583 0
vt -0.612143 1.30003 0
vt -1.32781 0 0
vt -1.30003 -0.239583 0
vt -1.30003 0 0
vt -0.723255 0 0
vt -0.751032 -0.239583 0
vt -0.723255 -0.239583 0
vt -0.751032 1.30003 0
vt -0.751032 0 0
vt 1.30003 0 0
vt 0.751032 1.30003 0
vt 0.584366 1.32781 0
vt 0.751032 1.47365 0
vt -0.48059 0.017361 0
vt -0.612143 1.32781 0
vt -0.584366 0.48059 0
vt -0.612143 -0.239583 0
vt -0.584366 0 0
vt -0.612143 0 0
vt -1.32781 -0.239583 0
vt 1.30003 0.017361 0
vt -1.30003 0.017361 0
vt 0.584366 1.47365 0
vt -1.32781 0.017361 0
vt -1.30351 0 0
vt 0.751032 1.32781 0
vt -0.477118 0 0
vt 1.32781 -0.239583 0
vt 1.32781 0 0
vt -0.751032 1.47365 0
vt -0.584366 1.30003 0
vt -0.584366 -0.239583 0
vt -0.751032 1.32781 0
vt 1.30351 0 0
vt -1.47365 0.017361 0
vt -1.32434 0.000155 0
vt -0.584366 0.017361 0
vt -0.751032 0.017361 0
vt 1.32781 0.017361 0
vt 1.47365 0 0
vt 1.47365 0.017361 0
vt 1.30003 -0.239583 0
vt -0.584366 1.32781 0
vt -1.47365 0 0
vt 1.32434 0 0
vt -0.584366 1.47365 0

# 6 vertex normals
vn 0 0 0.0254
vn -0.0254 0 0
vn 0 -0.0254 0
vn 0 0.0254 0
vn 0 0 -0.0254
vn 0.0254 0 0

# Mesh 'mesh1_mesh1-geometry' with 124 faces
g mesh1_mesh1-geometry
usemtl material_0_1_8
f  1/1/1 2/2/1 3/3/1
f  2/2/1 1/1/1 4/4/1
f  2/5/2 5/6/2 3/7/2
f  3/8/3 6/9/3 1/10/3
f  4/4/1 1/1/1 7/11/1
f  8/12/4 2/13/4 4/14/4
f  5/6/2 2/5/2 9/15/2
f  5/16/3 10/17/3 3/8/3
f  3/8/3 10/17/3 6/9/3
f  11/18/2 1/7/2 6/19/2
f  1/1/1 12/20/1 7/11/1
f  7/11/1 13/21/1 4/4/1
f  14/22/4 2/13/4 8/12/4
f  4/14/4 15/23/4 8/12/4
f  2/13/4 16/24/4 9/25/4
f  16/26/5 5/27/5 9/28/5
f  10/17/3 5/16/3 17/29/3
f  10/17/3 18/30/3 6/9/3
f  1/7/2 11/18/2 19/31/2
f  20/32/5 11/33/5 6/34/5
f  12/20/1 1/1/1 19/35/1
f  7/11/1 12/20/1 21/36/1
f  13/21/1 7/11/1 21/36/1
f  15/23/4 4/14/4 13/37/4
f  22/38/4 2/13/4 14/22/4
f  14/22/4 8/12/4 23/39/4
f  24/40/4 8/12/4 15/23/4
f  16/24/4 2/13/4 22/38/4
f  5/27/5 16/26/5 17/34/5
f  25/41/2 10/42/2 17/6/2
f  26/43/3 18/30/3 10/17/3
f  6/9/3 18/30/3 27/44/3
f  11/9/3 12/45/3 19/10/3
f  11/33/5 20/32/5 28/46/5
f  6/9/3 27/44/3 20/47/3
f  21/36/1 12/20/1 29/48/1
f  29/48/1 13/21/1 21/36/1
f  13/37/4 30/49/4 15/23/4
f  31/50/4 22/38/4 14/22/4
f  23/39/4 8/12/4 32/51/4
f  33/52/4 14/22/4 23/39/4
f  24/40/4 32/51/4 8/12/4
f  24/40/4 15/23/4 30/49/4
f  22/38/4 31/50/4 16/24/4
f  17/34/5 16/26/5 34/53/5
f  10/42/2 25/41/2 35/54/2
f  34/53/5 25/33/5 17/34/5
f  36/55/3 18/30/3 26/43/3
f  10/1/1 37/20/1 26/48/1
f  18/56/5 38/57/5 27/58/5
f  12/45/3 11/9/3 28/47/3
f  20/59/6 12/60/6 28/61/6
f  39/62/3 20/47/3 27/44/3
f  12/60/6 20/59/6 29/63/6
f  13/21/1 29/48/1 39/64/1
f  30/49/4 13/37/4 40/65/4
f  14/22/4 33/52/4 31/50/4
f  41/66/4 23/39/4 32/51/4
f  23/39/4 41/66/4 33/52/4
f  42/67/4 32/51/4 24/40/4
f  40/65/4 24/40/4 30/49/4
f  31/68/5 34/53/5 16/26/5
f  25/29/3 37/43/3 35/17/3
f  37/20/1 10/1/1 35/35/1
f  25/33/5 34/53/5 43/46/5
f  18/30/3 36/55/3 44/69/3
f  45/70/3 36/55/3 26/43/3
f  37/71/6 45/72/6 26/73/6
f  38/57/5 18/56/5 46/74/5
f  38/18/2 39/7/2 27/19/2
f  20/47/3 39/62/3 29/45/3
f  13/21/1 39/64/1 40/75/1
f  45/32/5 31/68/5 33/76/5
f  32/51/4 47/77/4 41/66/4
f  41/78/5 48/79/5 33/76/5
f  47/77/4 32/51/4 42/67/4
f  42/67/4 24/40/4 49/80/4
f  24/40/4 40/65/4 49/80/4
f  34/53/5 31/68/5 50/81/5
f  37/43/3 25/29/3 43/70/3
f  43/46/5 34/53/5 50/81/5
f  36/64/1 51/82/1 44/83/1
f  44/69/3 52/84/3 18/30/3
f  36/55/3 45/70/3 53/85/3
f  45/72/6 37/71/6 43/86/6
f  18/59/6 54/60/6 46/61/6
f  54/87/3 38/44/3 46/30/3
f  39/7/2 38/18/2 55/31/2
f  40/75/1 39/64/1 56/88/1
f  31/68/5 45/32/5 50/81/5
f  45/32/5 33/76/5 53/58/5
f  57/56/5 41/78/5 47/89/5
f  48/79/5 41/78/5 58/90/5
f  53/58/5 33/76/5 48/79/5
f  52/63/6 47/91/6 42/92/6
f  49/93/1 52/94/1 42/95/1
f  56/88/1 49/93/1 40/75/1
f  43/46/5 50/81/5 45/32/5
f  51/82/1 36/64/1 59/96/1
f  51/71/6 57/72/6 44/73/6
f  57/97/3 52/84/3 44/69/3
f  18/30/3 52/84/3 60/87/3
f  61/41/2 36/42/2 53/6/2
f  54/60/6 18/59/6 60/63/6
f  38/44/3 54/87/3 55/62/3
f  54/82/1 39/64/1 55/96/1
f  39/64/1 54/82/1 56/88/1
f  41/78/5 57/56/5 58/90/5
f  57/56/5 47/89/5 62/98/5
f  63/74/5 48/79/5 58/90/5
f  48/79/5 61/57/5 53/58/5
f  47/91/6 52/63/6 62/72/6
f  49/93/1 60/83/1 52/94/1
f  49/93/1 56/88/1 64/99/1
f  36/42/2 61/41/2 59/54/2
f  61/85/3 51/69/3 59/55/3
f  57/72/6 51/71/6 63/86/6
f  52/84/3 57/97/3 62/100/3
f  64/99/1 54/82/1 60/83/1
f  56/88/1 54/82/1 64/99/1
f  63/74/5 58/90/5 57/56/5
f  61/57/5 48/79/5 63/74/5
f  60/83/1 49/93/1 64/99/1
f  51/69/3 61/85/3 63/97/3

# Mesh 'mesh1_mesh1-geometry' with 124 faces
g mesh1_mesh1-geometry
usemtl material_1_24
f  3//5 2//5 1//5
f  4//5 1//5 2//5
f  3//6 5//6 2//6
f  1//4 6//4 3//4
f  7//5 1//5 4//5
f  4//3 2//3 8//3
f  9//6 2//6 5//6
f  3//4 10//4 5//4
f  6//4 10//4 3//4
f  6//6 1//6 11//6
f  7//5 12//5 1//5
f  4//5 13//5 7//5
f  8//3 2//3 14//3
f  8//3 15//3 4//3
f  9//3 16//3 2//3
f  9//1 5//1 16//1
f  17//4 5//4 10//4
f  6//4 18//4 10//4
f  19//6 11//6 1//6
f  6//1 11//1 20//1
f  19//5 1//5 12//5
f  21//5 12//5 7//5
f  21//5 7//5 13//5
f  13//3 4//3 15//3
f  14//3 2//3 22//3
f  23//3 8//3 14//3
f  15//3 8//3 24//3
f  22//3 2//3 16//3
f  17//1 16//1 5//1
f  17//6 10//6 25//6
f  10//4 18//4 26//4
f  27//4 18//4 6//4
f  19//4 12//4 11//4
f  28//1 20//1 11//1
f  20//4 27//4 6//4
f  29//5 12//5 21//5
f  21//5 13//5 29//5
f  15//3 30//3 13//3
f  14//3 22//3 31//3
f  32//3 8//3 23//3
f  23//3 14//3 33//3
f  8//3 32//3 24//3
f  30//3 15//3 24//3
f  16//3 31//3 22//3
f  34//1 16//1 17//1
f  35//6 25//6 10//6
f  17//1 25//1 34//1
f  26//4 18//4 36//4
f  26//5 37//5 10//5
f  27//1 38//1 18//1
f  28//4 11//4 12//4
f  28//2 12//2 20//2
f  27//4 20//4 39//4
f  29//2 20//2 12//2
f  39//5 29//5 13//5
f  40//3 13//3 30//3
f  31//3 33//3 14//3
f  32//3 23//3 41//3
f  33//3 41//3 23//3
f  24//3 32//3 42//3
f  30//3 24//3 40//3
f  16//1 34//1 31//1
f  35//4 37//4 25//4
f  35//5 10//5 37//5
f  43//1 34//1 25//1
f  44//4 36//4 18//4
f  26//4 36//4 45//4
f  26//2 45//2 37//2
f  46//1 18//1 38//1
f  27//6 39//6 38//6
f  29//4 39//4 20//4
f  40//5 39//5 13//5
f  33//1 31//1 45//1
f  41//3 47//3 32//3
f  33//1 48//1 41//1
f  42//3 32//3 47//3
f  49//3 24//3 42//3
f  49//3 40//3 24//3
f  50//1 31//1 34//1
f  43//4 25//4 37//4
f  50//1 34//1 43//1
f  44//5 51//5 36//5
f  18//4 52//4 44//4
f  53//4 45//4 36//4
f  43//2 37//2 45//2
f  46//2 54//2 18//2
f  46//4 38//4 54//4
f  55//6 38//6 39//6
f  56//5 39//5 40//5
f  50//1 45//1 31//1
f  53//1 33//1 45//1
f  47//1 41//1 57//1
f  58//1 41//1 48//1
f  48//1 33//1 53//1
f  42//2 47//2 52//2
f  42//5 52//5 49//5
f  40//5 49//5 56//5
f  45//1 50//1 43//1
f  59//5 36//5 51//5
f  44//2 57//2 51//2
f  44//4 52//4 57//4
f  60//4 52//4 18//4
f  53//6 36//6 61//6
f  60//2 18//2 54//2
f  55//4 54//4 38//4
f  55//5 39//5 54//5
f  56//5 54//5 39//5
f  58//1 57//1 41//1
f  62//1 47//1 57//1
f  58//1 48//1 63//1
f  53//1 61//1 48//1
f  62//2 52//2 47//2
f  52//5 60//5 49//5
f  64//5 56//5 49//5
f  59//6 61//6 36//6
f  59//4 51//4 61//4
f  63//2 51//2 57//2
f  62//4 57//4 52//4
f  60//5 54//5 64//5
f  64//5 54//5 56//5
f  57//1 58//1 63//1
f  63//1 48//1 61//1
f  64//5 49//5 60//5
f  63//4 61//4 51//4

