# File produced by Open Asset Import Library (http://www.assimp.sf.net)
# (assimp v3.2.202087883)

mtllib model_normalized.mtl

# 37 vertex positions
v -0.465802 0.008476 0.158778
v -0.465802 -0.017065 -0.161311
v -0.465802 0.008476 -0.161311
v -0.465802 -0.017065 -0.101975
v 0.447624 -0.017065 -0.161311
v -0.425788 0.008476 -0.106163
v -0.465802 -0.017065 0.097882
v -0.465802 -0.102384 -0.161311
v 0.447624 -0.017065 -0.101975
v 0.447624 0.008476 -0.161311
v 0.397077 0.008476 -0.106163
v -0.425788 0.008476 -0.017161
v -0.465802 -0.017065 0.158778
v 0.447624 -0.017065 0.097882
v -0.465802 -0.102384 -0.101975
v 0.447624 -0.102384 -0.101975
v 0.447624 -0.102384 -0.161311
v -0.425788 0.008476 0.025827
v 0.447624 -0.017065 0.158778
v -0.465802 -0.102384 0.097882
v 0.447624 0.008476 0.158778
v 0.447624 -0.102384 0.097882
v 0.399132 0.008476 -0.017161
v 0.397077 0.008476 -0.017161
v -0.425788 0.008476 0.115460
v -0.425788 0.091232 -0.001133
v 0.447624 -0.102384 0.158778
v -0.465802 -0.102384 0.158778
v 0.399132 0.008476 0.115460
v 0.399132 0.091232 -0.017161
v 0.399132 0.008476 0.025827
v -0.425788 0.091232 -0.017161
v -0.425788 0.091232 0.025827
v 0.399132 0.091232 -0.001133
v 0.399132 0.091232 0.025827
v 0.399132 0.149004 -0.001133
v -0.425788 0.149004 -0.001133

# 88 UV coordinates
vt 0 0 0
vt -0.581467 0.328704 0
vt -0.581467 0.252973 0
vt -1.53054 0.328704 0
vt -0.757393 0.252973 0
vt -13.523 1.53054 0
vt -13.4043 0.74498 0
vt -13.523 0.581467 0
vt -1.34999 0.252973 0
vt -10.9645 0.74498 0
vt -13.4043 1.00887 0
vt -1.53054 0.252973 0
vt 0.581467 0.252973 0
vt 0.581467 0.328704 0
vt 0.757393 0.252973 0
vt -10.8146 0.581467 0
vt -13.4043 1.13633 0
vt 13.523 0.252973 0
vt 10.8146 0.252973 0
vt 13.523 0.328704 0
vt 1.34999 0.252973 0
vt 1.53054 0.328704 0
vt -10.9584 1.00887 0
vt -13.4043 1.40209 0
vt 10.8146 0.328704 0
vt 1.53054 0.252973 0
vt -10.9584 1.40209 0
vt -10.8146 1.53054 0
vt -10.9645 1.00887 0
vt -10.9584 1.13633 0
vt -1.7444 0.505945 0
vt -1.7444 0 0
vt -2.27218 0.505945 0
vt -40.5689 0.505945 0
vt -32.4439 0.505945 0
vt -40.5689 0 0
vt -4.04996 0.505945 0
vt -2.27218 0 0
vt 2.27218 0.505945 0
vt 2.27218 0 0
vt 1.7444 0.505945 0
vt -32.4439 0 0
vt -40.213 1.48996 0
vt -40.213 2.01774 0
vt -32.8936 1.48996 0
vt -4.59162 0.505945 0
vt -4.04996 0 0
vt 4.04996 0.505945 0
vt 4.04996 0 0
vt 1.7444 0 0
vt -32.8936 2.01774 0
vt -3.40898 0.657407 0
vt -3.16918 1.14815 0
vt -3.02661 0.657407 0
vt 32.4439 0.505945 0
vt 40.5689 0.505945 0
vt 32.4439 0 0
vt -4.59162 0 0
vt 4.59162 0.505945 0
vt 4.59162 0 0
vt -40.213 0.657407 0
vt -32.8753 1.14815 0
vt -32.8936 0.657407 0
vt -40.213 2.27265 0
vt -40.213 2.80418 0
vt -32.8753 2.27265 0
vt -3.02661 1.14815 0
vt -3.40898 1.14815 0
vt 40.5689 0 0
vt -32.8753 0.657407 0
vt -40.213 1.14815 0
vt -32.8753 2.80418 0
vt 40.213 0.657407 0
vt 32.8753 0.657407 0
vt 40.213 1.14815 0
vt -40.213 2.11279 0
vt -32.8753 2.01774 0
vt -32.8753 2.11279 0
vt 3.02661 0.657407 0
vt 3.02661 1.14815 0
vt 3.40898 0.657407 0
vt 32.8753 1.14815 0
vt 3.16918 1.14815 0
vt 3.40898 1.14815 0
vt -16.4376 1.11806 0
vt -20.1065 0.861111 0
vt -16.4376 0.861111 0
vt -20.1065 1.11806 0

# 6 vertex normals
vn 1.28553e+07 0 -1.57449e-09
vn 1.57449e-09 0 1.28553e+07
vn -1.57449e-09 -0 -1.28553e+07
vn 0 -1.28553e+07 0
vn 0 1.28553e+07 0
vn -1.28553e+07 0 1.57449e-09

# Mesh 'mesh1_mesh1-geometry' with 80 faces
g mesh1_mesh1-geometry
usemtl material_0_24
f  1/1/1 2/1/1 3/1/1
f  2/1/1 1/1/1 4/1/1
f  5/1/2 3/1/2 2/1/2
f  2/1/3 3/1/3 5/1/3
f  3/1/4 6/1/4 1/1/4
f  4/1/1 1/1/1 7/1/1
f  4/1/1 8/1/1 2/1/1
f  9/1/5 2/1/5 4/1/5
f  4/1/4 2/1/4 9/1/4
f  3/1/2 5/1/2 10/1/2
f  10/1/3 5/1/3 3/1/3
f  2/1/5 9/1/5 5/1/5
f  5/1/4 9/1/4 2/1/4
f  8/1/2 5/1/2 2/1/2
f  3/1/4 11/1/4 6/1/4
f  12/1/4 1/1/4 6/1/4
f  7/1/1 1/1/1 13/1/1
f  14/1/5 4/1/5 7/1/5
f  7/1/4 4/1/4 14/1/4
f  15/1/1 4/1/1 7/1/1
f  8/1/1 4/1/1 15/1/1
f  4/1/5 14/1/5 9/1/5
f  9/1/4 14/1/4 4/1/4
f  9/1/6 10/1/6 5/1/6
f  10/1/4 11/1/4 3/1/4
f  5/1/6 16/1/6 9/1/6
f  5/1/2 8/1/2 17/1/2
f  11/1/4 12/1/4 6/1/4
f  18/1/4 1/1/4 12/1/4
f  1/1/3 19/1/3 13/1/3
f  19/1/5 7/1/5 13/1/5
f  13/1/4 7/1/4 19/1/4
f  20/1/1 7/1/1 13/1/1
f  7/1/5 19/1/5 14/1/5
f  14/1/4 19/1/4 7/1/4
f  15/1/1 7/1/1 20/1/1
f  21/1/6 9/1/6 14/1/6
f  9/1/6 22/1/6 14/1/6
f  10/1/6 9/1/6 21/1/6
f  11/1/4 10/1/4 23/1/4
f  16/1/6 5/1/6 17/1/6
f  9/1/6 16/1/6 22/1/6
f  12/1/4 11/1/4 24/1/4
f  25/1/4 1/1/4 18/1/4
f  12/1/1 26/1/1 18/1/1
f  24/1/4 18/1/4 12/1/4
f  12/1/5 18/1/5 24/1/5
f  19/1/3 1/1/3 21/1/3
f  27/1/3 13/1/3 19/1/3
f  20/1/1 13/1/1 28/1/1
f  21/1/6 14/1/6 19/1/6
f  14/1/6 27/1/6 19/1/6
f  14/1/6 22/1/6 27/1/6
f  21/1/4 29/1/4 10/1/4
f  23/1/4 10/1/4 29/1/4
f  11/1/4 23/1/4 24/1/4
f  24/1/2 30/1/2 12/1/2
f  29/1/4 1/1/4 25/1/4
f  31/1/4 25/1/4 18/1/4
f  26/1/1 12/1/1 32/1/1
f  18/1/1 26/1/1 33/1/1
f  23/1/4 18/1/4 24/1/4
f  24/1/5 18/1/5 23/1/5
f  29/1/4 21/1/4 1/1/4
f  13/1/3 27/1/3 28/1/3
f  23/1/4 29/1/4 31/1/4
f  30/1/2 24/1/2 23/1/2
f  12/1/2 30/1/2 32/1/2
f  25/1/4 31/1/4 29/1/4
f  33/1/3 31/1/3 18/1/3
f  18/1/4 23/1/4 31/1/4
f  31/1/5 23/1/5 18/1/5
f  30/1/4 26/1/4 32/1/4
f  34/1/4 33/1/4 26/1/4
f  31/1/6 30/1/6 23/1/6
f  31/1/3 33/1/3 35/1/3
f  26/1/4 30/1/4 34/1/4
f  33/1/4 34/1/4 35/1/4
f  30/1/6 31/1/6 34/1/6
f  34/1/6 31/1/6 35/1/6

# Mesh 'mesh1_mesh1-geometry' with 23 faces
g mesh1_mesh1-geometry
usemtl material_1_1_8
f  3/2/6 2/3/6 1/4/6
f  4/5/6 1/4/6 2/3/6
f  1/6/5 6/7/5 3/8/5
f  7/9/6 1/4/6 4/5/6
f  6/7/5 11/10/5 3/8/5
f  6/7/5 1/6/5 12/11/5
f  13/12/6 1/4/6 7/9/6
f  5/13/1 10/14/1 9/15/1
f  3/8/5 11/10/5 10/16/5
f  12/11/5 1/6/5 18/17/5
f  13/18/2 19/19/2 1/20/2
f  14/21/1 9/15/1 21/22/1
f  21/22/1 9/15/1 10/14/1
f  23/23/5 10/16/5 11/10/5
f  18/17/5 1/6/5 25/24/5
f  21/25/2 1/20/2 19/19/2
f  19/26/1 14/21/1 21/22/1
f  10/16/5 29/27/5 21/28/5
f  29/27/5 10/16/5 23/23/5
f  24/29/5 23/23/5 11/10/5
f  25/24/5 1/6/5 29/27/5
f  1/6/5 21/28/5 29/27/5
f  31/30/5 29/27/5 23/23/5

# Mesh 'mesh1_mesh1-geometry' with 35 faces
g mesh1_mesh1-geometry
usemtl material_2_2_8
f  2/31/6 8/32/6 4/33/6
f  2/34/3 5/35/3 8/36/3
f  7/37/6 4/33/6 15/38/6
f  15/38/6 4/33/6 8/32/6
f  9/39/1 16/40/1 5/41/1
f  17/42/3 8/36/3 5/35/3
f  6/43/5 12/44/5 11/45/5
f  13/46/6 7/37/6 20/47/6
f  20/47/6 7/37/6 15/38/6
f  14/48/1 22/49/1 9/39/1
f  17/50/1 5/41/1 16/40/1
f  22/49/1 16/40/1 9/39/1
f  24/51/5 11/45/5 12/44/5
f  18/52/6 26/53/6 12/54/6
f  19/55/2 13/56/2 27/57/2
f  28/58/6 13/46/6 20/47/6
f  19/59/1 27/60/1 14/48/1
f  27/60/1 22/49/1 14/48/1
f  12/61/3 30/62/3 24/63/3
f  18/64/5 25/65/5 31/66/5
f  32/67/6 12/54/6 26/53/6
f  33/68/6 26/53/6 18/52/6
f  28/69/2 27/57/2 13/56/2
f  23/70/3 24/63/3 30/62/3
f  32/71/3 30/62/3 12/61/3
f  29/72/5 31/66/5 25/65/5
f  18/73/2 31/74/2 33/75/2
f  32/44/5 26/76/5 30/77/5
f  26/76/5 33/64/5 34/78/5
f  23/79/1 30/80/1 31/81/1
f  35/82/2 33/75/2 31/74/2
f  34/78/5 30/77/5 26/76/5
f  35/66/5 34/78/5 33/64/5
f  34/83/1 31/81/1 30/80/1
f  35/84/1 31/81/1 34/83/1

# Mesh 'mesh1_mesh1-geometry' with 4 faces
g mesh1_mesh1-geometry
usemtl material_3_3_8
f  36/85/2 26/86/2 34/87/2
f  34/87/3 26/86/3 36/85/3
f  26/86/2 36/85/2 37/88/2
f  37/88/3 36/85/3 26/86/3

# Mesh 'mesh2_mesh2-geometry' with 1 faces
g mesh2_mesh2-geometry
usemtl material_0_0
l  7 14

# Mesh 'mesh3_mesh3-geometry' with 1 faces
g mesh3_mesh3-geometry
usemtl material_0_0
l  9 4

# Mesh 'mesh4_mesh4-geometry' with 1 faces
g mesh4_mesh4-geometry
usemtl material_0_0
l  3 10

# Mesh 'mesh5_mesh5-geometry' with 1 faces
g mesh5_mesh5-geometry
usemtl material_0_0
l  16 15

# Mesh 'mesh6_mesh6-geometry' with 1 faces
g mesh6_mesh6-geometry
usemtl material_0_0
l  5 2

# Mesh 'mesh7_mesh7-geometry' with 1 faces
g mesh7_mesh7-geometry
usemtl material_0_0
l  20 22

