# File produced by Open Asset Import Library (http://www.assimp.sf.net)
# (assimp v3.2.202087883)

mtllib model_normalized.mtl

# 112 vertex positions
v -0.448549 0.194661 0.101847
v 0.455728 0.194661 0.101847
v -0.448549 0.196051 0.075510
v 0.455728 0.052618 0.086960
v 0.455728 0.196051 0.075510
v -0.448549 0.052618 0.086960
v -0.448549 0.054008 0.060623
v 0.455728 0.010209 0.064125
v 0.455728 0.054008 0.060623
v -0.448549 0.010209 0.064125
v -0.448549 0.016525 0.038518
v 0.455728 -0.017729 0.033439
v 0.455728 0.016525 0.038518
v -0.448549 -0.017729 0.033439
v -0.448549 0.004516 0.019272
v 0.455728 -0.026285 -0.001366
v 0.455728 0.004516 0.019272
v -0.448549 -0.026285 -0.001366
v -0.448549 -0.002381 -0.002191
v 0.455728 -0.020649 -0.053559
v 0.455728 -0.002381 -0.002191
v -0.448549 -0.020649 -0.053559
v -0.448549 0.003027 -0.049886
v 0.455670 -0.018905 -0.089815
v 0.455728 0.003027 -0.049886
v -0.448606 -0.018905 -0.089815
v 0.455670 0.004168 -0.096270
v -0.448606 0.004169 -0.096270
v -0.448549 -0.023751 -0.127247
v 0.455728 -0.023751 -0.127247
v -0.448549 -0.000677 -0.133702
v 0.455728 -0.000677 -0.133702
v -0.271413 -0.018905 -0.089815
v -0.228568 -0.018905 -0.089815
v -0.271351 -0.023751 -0.127247
v -0.271351 -0.020649 -0.053559
v -0.228511 -0.023751 -0.127247
v -0.271413 -0.031041 -0.089815
v -0.228511 -0.020649 -0.053559
v -0.228568 -0.031167 -0.089815
v -0.271351 -0.035887 -0.127247
v -0.271351 -0.032784 -0.053559
v -0.228511 -0.026285 -0.001366
v -0.228511 -0.036014 -0.127247
v -0.271351 -0.026285 -0.001366
v -0.228511 -0.032911 -0.053559
v -0.271351 -0.036719 -0.001194
v -0.228511 -0.017729 0.033439
v -0.228511 -0.036845 -0.001194
v -0.271351 -0.026972 0.037866
v -0.271351 -0.017729 0.033439
v -0.228511 -0.027097 0.037866
v -0.228511 0.010209 0.064125
v -0.228511 0.005270 0.072471
v -0.271351 0.005397 0.072471
v -0.271351 0.010209 0.064125
v -0.228511 0.052618 0.086960
v -0.271351 0.052618 0.086960
v -0.228511 0.052618 0.095816
v -0.271351 0.052618 0.095628
v -0.228511 0.155146 0.098661
v -0.271351 0.155146 0.098661
v -0.271351 0.155146 0.107330
v -0.228511 0.155146 0.107518
v 0.268480 -0.023751 -0.127247
v 0.225635 -0.035887 -0.127247
v 0.225635 -0.023751 -0.127247
v 0.268480 -0.036014 -0.127247
v 0.225577 -0.031041 -0.089815
v 0.268422 -0.018905 -0.089815
v 0.268422 -0.031167 -0.089815
v 0.225577 -0.018905 -0.089815
v 0.225635 -0.020649 -0.053559
v 0.225635 -0.032784 -0.053559
v 0.268480 -0.020649 -0.053559
v 0.268480 -0.032911 -0.053559
v 0.225635 -0.026285 -0.001366
v 0.225635 -0.036719 -0.001194
v 0.268480 -0.026285 -0.001366
v 0.268480 -0.036845 -0.001194
v 0.268480 -0.017729 0.033439
v 0.225635 -0.026972 0.037866
v 0.268480 -0.027097 0.037866
v 0.225635 -0.017729 0.033439
v 0.268480 0.010209 0.064125
v 0.268480 0.005270 0.072471
v 0.225635 0.005397 0.072471
v 0.225635 0.010209 0.064125
v 0.268480 0.052618 0.086960
v 0.225635 0.052618 0.086960
v 0.268480 0.052618 0.095816
v 0.225635 0.052618 0.095628
v 0.268480 0.155146 0.098661
v 0.225635 0.155146 0.098661
v 0.225635 0.155146 0.107330
v 0.268480 0.155146 0.107518
v -0.236110 -0.030295 0.009823
v -0.263753 -0.156073 0.009823
v -0.236110 -0.156073 0.009823
v -0.263753 -0.030295 0.009823
v -0.263753 -0.156073 -0.017821
v -0.236110 -0.030295 -0.017821
v -0.263753 -0.030295 -0.017821
v -0.236110 -0.156073 -0.017821
v 0.260975 -0.156073 0.009823
v 0.260975 -0.030295 -0.017821
v 0.260975 -0.030295 0.009823
v 0.260975 -0.156073 -0.017821
v 0.233331 -0.156073 0.009823
v 0.233331 -0.156073 -0.017821
v 0.233331 -0.030295 -0.017821
v 0.233331 -0.030295 0.009823

# 0 UV coordinates

# 148 vertex normals
vn 0 1.90418 0.100518
vn 0 1.75611 -0.743007
vn 0 -1.75611 0.743007
vn 0 -1.90418 -0.100518
vn 0 -0.198768 1.89644
vn 0 -0.441257 1.85507
vn 0 0.198768 -1.89644
vn 0 0.441257 -1.85507
vn 0 1.00872 -1.61817
vn 0 -1.00872 1.61817
vn -1.90683 0 0
vn 1.90683 -0 -0
vn 0 -0.680353 1.78133
vn 0 0.680353 -1.78133
vn 0 0.464807 -1.84931
vn 0 -0.464807 1.84931
vn 0 -1.08644 1.56705
vn 0 1.08644 -1.56705
vn 0 0.726729 -1.76291
vn 0 -0.726729 1.76291
vn 0 -1.25727 1.43362
vn 0 1.25727 -1.43362
vn 0 1.21594 -1.46884
vn 0 -1.21594 1.46884
vn 0 -1.60095 1.03584
vn 0 1.60095 -1.03584
vn 0 1.43798 -1.25228
vn 0 -1.43798 1.25228
vn 0 -1.75232 0.751914
vn 0 1.75232 -0.751914
vn 0 1.69511 -0.873267
vn 0 -1.69511 0.873267
vn 0 -1.89186 0.238439
vn 0 1.89186 -0.238439
vn 0 1.76143 -0.7303
vn 0 -1.76143 0.7303
vn 0 -1.90677 0.0154606
vn 0 1.90677 -0.0154606
vn 0 1.87915 -0.323719
vn 0 -1.87915 0.323719
vn 0 -1.8995 -0.16708
vn 0 1.8995 0.16708
vn 0 1.90611 -0.0522547
vn 0 -1.90611 0.0522547
vn -1.90683 -0.000158267 0.00102397
vn 1.90683 0.000158267 -0.00102397
vn 0 -1.90244 -0.129357
vn 0 1.90244 0.129357
vn 1.90683 0.000158267 -0.00101825
vn -1.90683 -0.000158267 0.00101825
vn 0 1.90232 0.131005
vn -0 -1.90232 -0.131005
vn -1.90683 6.86458e-05 0.00183437
vn 1.90683 -6.86458e-05 -0.00183437
vn 0 -1.90528 0.0769157
vn 0 1.90528 -0.0769157
vn 1.90683 -6.86458e-05 -0.00182484
vn -1.90683 6.86458e-05 0.00182484
vn 0 1.90232 0.131001
vn 0 -1.90232 -0.131001
vn -1.90683 -0.000202124 0.000871421
vn 1.90683 0.000202124 -0.000871421
vn 1.90683 0.000200217 -0.0008657
vn -1.90683 -0.000200217 0.0008657
vn 0 1.90424 -0.0992581
vn 0 -1.90424 0.0992581
vn -1.90683 -0.00031272 -0.00111549
vn 1.90683 0.00031272 0.00111549
vn 0 -1.81951 -0.570401
vn 0 1.81951 0.570401
vn 1.90683 0.000310813 0.00110977
vn -1.90683 -0.000310813 -0.00110977
vn 0 1.90424 -0.0992543
vn 0 -1.90424 0.0992543
vn -1.90683 -0.000808495 -0.00289075
vn 1.90683 0.000808495 0.00289075
vn -0 -1.23612 -1.4519
vn 0 1.23612 1.4519
vn 1.90683 0.000804682 0.0028755
vn -1.90683 -0.000804682 -0.0028755
vn 0 1.89105 -0.244827
vn 0 -1.89105 0.244827
vn -0 -0.513673 -1.83634
vn 0 0.513673 1.83634
vn -0 -0.513677 -1.83634
vn 0 0.513677 1.83634
vn 0 1.6107 -1.02061
vn 0 -1.6107 1.02061
vn 0 1.90106 0.148225
vn 0 -1.90106 -0.148225
vn 0 0.805351 -1.72841
vn 0 -0.805351 1.72841
vn -1.90683 0 4.76707e-05
vn -1.90683 0 -0.00299563
vn 1.90683 -0 -4.76707e-05
vn 1.90683 0 0.00299563
vn -1.90683 0 0.00206128
vn 1.90683 -0 -0.00206128
vn 1.90683 0 0.00298037
vn -1.90683 0 -0.00298037
vn 0 0 -1.90683
vn 0 0 1.90683
vn -1.90683 0 0.00103159
vn 1.90683 -0 -0.00103159
vn 1.90683 0 -0.00205175
vn -1.90683 0 0.00205175
vn -0.00562705 -1.90527 0.0769157
vn -0.0055851 -1.89104 0.244818
vn 0.00562705 1.90527 -0.0769157
vn 0.0055851 1.89104 -0.244818
vn -0.00562133 -1.90372 -0.108682
vn 0.00562133 1.90372 0.108682
vn 1.90683 0 -0.00102587
vn -1.90683 0 0.00102587
vn -0.00561942 -1.90267 -0.125769
vn 0.00561942 1.90267 0.125769
vn -0.0056118 -1.89997 0.16147
vn 0.0056118 1.89997 -0.16147
vn -0.00515988 -1.74722 0.763666
vn -0.00469652 -1.59026 1.05216
vn 0.00469652 1.59026 -1.05216
vn 0.00515988 1.74722 -0.763666
vn -0.00362297 -1.22714 1.45949
vn 0.00362297 1.22714 -1.45949
vn -0.00476707 -1.04021 1.59811
vn 0.00476707 1.04021 -1.59811
vn 0 0.685728 -1.77926
vn 0 -0.685728 1.77926
vn -0.00674255 -0.536713 1.82972
vn 0.00674255 0.536713 -1.82972
vn 0 0.452738 -1.8523
vn 0 -0.452738 1.8523
vn -0.00800868 -0.535735 1.83001
vn 0.00800868 0.535735 -1.83001
vn 0 1.42273 -1.26958
vn 0 -1.42273 1.26958
vn -0.00829661 -0.216232 1.89451
vn 0.00829661 0.216232 -1.89451
vn -0.00830424 -0.216236 1.89451
vn 0.00830424 0.216236 -1.89451
vn 0 1.90683 0
vn 0 -1.90683 -0
vn 1.1441e-05 -1.90683 1.1441e-05
vn 0 -1.90683 2.09751e-05
vn 0 1.90683 -2.09751e-05
vn -1.1441e-05 1.90683 -1.1441e-05
vn 2.09751e-05 -1.90683 0
vn -2.09751e-05 1.90683 0

# Mesh 'mesh1_mesh1-geometry' with 120 faces
g mesh1_mesh1-geometry
usemtl material_0_24
f  1//1 2//1 3//2
f  3//3 2//4 1//4
f  1//5 4//6 2//5
f  2//7 4//8 1//7
f  3//2 2//1 5//9
f  5//10 2//4 3//3
f  1//11 3//11 6//11
f  6//12 3//12 1//12
f  1//5 6//13 4//6
f  4//8 6//14 1//7
f  2//12 4//12 5//12
f  5//11 4//11 2//11
f  5//9 7//15 3//2
f  3//3 7//16 5//10
f  6//11 3//11 7//11
f  7//12 3//12 6//12
f  6//13 8//17 4//6
f  4//8 8//18 6//14
f  4//12 9//12 5//12
f  5//11 9//11 4//11
f  5//9 9//19 7//15
f  7//16 9//20 5//10
f  6//11 7//11 10//11
f  10//12 7//12 6//12
f  6//13 10//21 8//17
f  8//18 10//22 6//14
f  4//12 8//12 9//12
f  9//11 8//11 4//11
f  9//19 11//23 7//15
f  7//16 11//24 9//20
f  10//11 7//11 11//11
f  11//12 7//12 10//12
f  10//21 12//25 8//17
f  8//18 12//26 10//22
f  8//12 13//12 9//12
f  9//11 13//11 8//11
f  9//19 13//27 11//23
f  11//24 13//28 9//20
f  10//11 11//11 14//11
f  14//12 11//12 10//12
f  14//29 12//25 10//21
f  10//22 12//26 14//30
f  8//12 12//12 13//12
f  13//11 12//11 8//11
f  11//23 13//27 15//31
f  15//32 13//28 11//24
f  11//11 15//11 14//11
f  14//12 15//12 11//12
f  14//29 16//33 12//25
f  12//26 16//34 14//30
f  13//12 12//12 17//12
f  17//11 12//11 13//11
f  15//31 13//27 17//35
f  17//36 13//28 15//32
f  14//11 15//11 18//11
f  18//12 15//12 14//12
f  18//37 16//33 14//29
f  14//30 16//34 18//38
f  12//12 16//12 17//12
f  17//11 16//11 12//11
f  15//31 17//35 19//39
f  19//40 17//36 15//32
f  15//11 19//11 18//11
f  18//12 19//12 15//12
f  18//37 20//41 16//33
f  16//34 20//42 18//38
f  17//12 16//12 21//12
f  21//11 16//11 17//11
f  19//39 17//35 21//43
f  21//44 17//36 19//40
f  18//11 19//11 22//45
f  22//46 19//12 18//12
f  22//47 20//41 18//37
f  18//38 20//42 22//48
f  16//12 20//49 21//12
f  21//11 20//50 16//11
f  19//39 21//43 23//51
f  23//52 21//44 19//40
f  19//11 23//53 22//45
f  22//46 23//54 19//12
f  22//47 24//55 20//41
f  20//42 24//56 22//48
f  21//12 20//49 25//57
f  25//58 20//50 21//11
f  23//51 21//43 25//59
f  25//60 21//44 23//52
f  23//53 26//61 22//45
f  22//46 26//62 23//54
f  26//55 24//55 22//47
f  22//48 24//56 26//56
f  25//57 20//49 24//63
f  24//64 20//50 25//58
f  23//51 25//59 27//65
f  27//66 25//60 23//52
f  23//53 28//67 26//61
f  26//62 28//68 23//54
f  26//55 29//69 24//55
f  24//56 29//70 26//56
f  25//57 24//63 27//71
f  27//72 24//64 25//58
f  28//73 23//51 27//65
f  27//66 23//52 28//74
f  26//61 28//67 29//75
f  29//76 28//68 26//62
f  29//69 30//77 24//55
f  24//56 30//78 29//70
f  24//63 30//79 27//71
f  27//72 30//80 24//64
f  28//73 27//65 31//81
f  31//82 27//66 28//74
f  28//67 31//75 29//75
f  29//76 31//76 28//68
f  31//83 30//77 29//69
f  29//70 30//78 31//84
f  27//71 30//79 32//79
f  32//80 30//80 27//72
f  31//81 27//65 32//81
f  32//82 27//66 31//82
f  31//83 32//85 30//77
f  30//78 32//86 31//84

# Mesh 'mesh2_mesh2-geometry' with 120 faces
g mesh2_mesh2-geometry
usemtl material_0_24
f  33//56 34//56 35//87
f  35//88 34//55 33//55
f  33//56 36//89 34//56
f  34//55 36//90 33//55
f  35//87 34//56 37//91
f  37//92 34//55 35//88
f  33//93 35//94 38//93
f  38//95 35//96 33//95
f  36//97 33//93 38//93
f  38//95 33//95 36//98
f  36//89 39//89 34//56
f  34//55 39//90 36//90
f  40//95 37//99 34//95
f  34//93 37//100 40//93
f  37//91 41//101 35//87
f  35//88 41//102 37//92
f  38//93 35//94 41//94
f  41//96 35//96 38//95
f  36//97 38//93 42//103
f  42//104 38//95 36//98
f  36//89 43//38 39//89
f  39//90 43//37 36//90
f  39//105 40//95 34//95
f  34//93 40//93 39//106
f  40//95 44//99 37//99
f  37//100 44//100 40//93
f  37//91 44//101 41//101
f  41//102 44//102 37//92
f  38//107 41//108 40//107
f  40//109 41//110 38//109
f  38//107 40//107 42//111
f  42//112 40//109 38//109
f  45//11 36//97 42//103
f  42//104 36//98 45//12
f  45//34 43//38 36//89
f  36//90 43//37 45//33
f  43//12 46//113 39//105
f  39//106 46//114 43//11
f  46//113 40//95 39//105
f  39//106 40//93 46//114
f  41//108 44//108 40//107
f  40//109 44//110 41//110
f  42//111 40//107 46//115
f  46//116 40//109 42//112
f  47//11 45//11 42//103
f  42//104 45//12 47//12
f  45//34 48//30 43//38
f  43//37 48//29 45//33
f  49//12 46//113 43//12
f  43//11 46//114 49//11
f  42//111 46//115 47//117
f  47//118 46//116 42//112
f  50//11 45//11 47//11
f  47//12 45//12 50//12
f  51//26 48//30 45//34
f  45//33 48//29 51//25
f  52//12 43//12 48//12
f  48//11 43//11 52//11
f  47//117 46//115 49//117
f  49//118 46//116 47//118
f  52//12 49//12 43//12
f  43//11 49//11 52//11
f  50//11 51//11 45//11
f  45//12 51//12 50//12
f  47//117 52//119 50//120
f  50//121 52//122 47//118
f  51//26 53//22 48//30
f  48//29 53//21 51//25
f  54//12 52//12 48//12
f  48//11 52//11 54//11
f  47//117 49//117 52//119
f  52//122 49//118 47//118
f  55//11 51//11 50//11
f  50//12 51//12 55//12
f  50//120 52//119 54//123
f  54//124 52//122 50//121
f  56//18 53//22 51//26
f  51//25 53//21 56//17
f  54//12 48//12 53//12
f  53//11 48//11 54//11
f  55//11 56//11 51//11
f  51//12 56//12 55//12
f  50//120 54//123 55//125
f  55//126 54//124 50//121
f  57//127 53//22 56//18
f  56//17 53//21 57//128
f  57//12 54//12 53//12
f  53//11 54//11 57//11
f  58//11 56//11 55//11
f  55//12 56//12 58//12
f  59//129 55//125 54//123
f  54//124 55//126 59//130
f  57//127 56//18 58//131
f  58//132 56//17 57//128
f  59//12 54//12 57//12
f  57//11 54//11 59//11
f  60//11 58//11 55//11
f  55//12 58//12 60//12
f  60//133 55//125 59//129
f  59//130 55//126 60//134
f  61//135 57//127 58//131
f  58//132 57//128 61//136
f  61//12 59//12 57//12
f  57//11 59//11 61//11
f  62//11 58//11 60//11
f  60//12 58//12 62//12
f  63//137 60//133 59//129
f  59//130 60//134 63//138
f  61//135 58//131 62//135
f  62//136 58//132 61//136
f  64//12 59//12 61//12
f  61//11 59//11 64//11
f  63//11 62//11 60//11
f  60//12 62//12 63//12
f  63//137 59//129 64//139
f  64//140 59//130 63//138
f  63//141 61//135 62//135
f  62//136 61//136 63//142
f  63//141 64//141 61//135
f  61//136 64//142 63//142

# Mesh 'mesh3_mesh3-geometry' with 120 faces
g mesh3_mesh3-geometry
usemtl material_0_24
f  65//91 66//101 67//87
f  67//88 66//102 65//92
f  65//91 68//101 66//101
f  66//102 68//102 65//92
f  69//93 67//94 66//94
f  66//96 67//96 69//95
f  67//87 70//56 65//91
f  65//92 70//55 67//88
f  71//95 68//96 65//96
f  65//94 68//94 71//93
f  66//108 68//108 71//107
f  71//109 68//110 66//110
f  72//93 67//94 69//93
f  69//95 67//96 72//95
f  69//107 66//108 71//107
f  71//109 66//110 69//109
f  72//56 70//56 67//87
f  67//88 70//55 72//55
f  71//95 65//96 70//95
f  70//93 65//94 71//93
f  73//97 72//93 69//93
f  69//95 72//95 73//98
f  69//107 71//107 74//111
f  74//112 71//109 69//109
f  72//56 73//89 70//56
f  70//55 73//90 72//55
f  75//98 71//95 70//95
f  70//93 71//93 75//97
f  73//97 69//93 74//103
f  74//104 69//95 73//98
f  74//111 71//107 76//115
f  76//116 71//109 74//112
f  73//89 75//89 70//56
f  70//55 75//90 73//90
f  76//104 71//95 75//98
f  75//97 71//93 76//103
f  77//11 73//97 74//103
f  74//104 73//98 77//12
f  74//111 76//115 78//117
f  78//118 76//116 74//112
f  73//89 79//38 75//89
f  75//90 79//37 73//90
f  79//12 76//104 75//98
f  75//97 76//103 79//11
f  77//34 79//38 73//89
f  73//90 79//37 77//33
f  78//11 77//11 74//103
f  74//104 77//12 78//12
f  78//117 76//115 80//117
f  80//118 76//116 78//118
f  80//12 76//104 79//12
f  79//11 76//103 80//11
f  77//34 81//30 79//38
f  79//37 81//29 77//33
f  82//11 77//11 78//11
f  78//12 77//12 82//12
f  78//117 80//117 83//119
f  83//122 80//118 78//118
f  83//12 80//12 79//12
f  79//11 80//11 83//11
f  84//26 81//30 77//34
f  77//33 81//29 84//25
f  83//12 79//12 81//12
f  81//11 79//11 83//11
f  82//11 84//11 77//11
f  77//12 84//12 82//12
f  78//117 83//119 82//120
f  82//121 83//122 78//118
f  84//26 85//22 81//30
f  81//29 85//21 84//25
f  86//12 83//12 81//12
f  81//11 83//11 86//11
f  87//11 84//11 82//11
f  82//12 84//12 87//12
f  82//120 83//119 86//123
f  86//124 83//122 82//121
f  88//18 85//22 84//26
f  84//25 85//21 88//17
f  86//12 81//12 85//12
f  85//11 81//11 86//11
f  87//11 88//11 84//11
f  84//12 88//12 87//12
f  82//120 86//123 87//125
f  87//126 86//124 82//121
f  89//127 85//22 88//18
f  88//17 85//21 89//128
f  89//12 86//12 85//12
f  85//11 86//11 89//11
f  90//11 88//11 87//11
f  87//12 88//12 90//12
f  91//129 87//125 86//123
f  86//124 87//126 91//130
f  89//127 88//18 90//131
f  90//132 88//17 89//128
f  91//12 86//12 89//12
f  89//11 86//11 91//11
f  92//11 90//11 87//11
f  87//12 90//12 92//12
f  92//133 87//125 91//129
f  91//130 87//126 92//134
f  93//135 89//127 90//131
f  90//132 89//128 93//136
f  93//12 91//12 89//12
f  89//11 91//11 93//11
f  94//11 90//11 92//11
f  92//12 90//12 94//12
f  95//137 92//133 91//129
f  91//130 92//134 95//138
f  93//135 90//131 94//135
f  94//136 90//132 93//136
f  96//12 91//12 93//12
f  93//11 91//11 96//11
f  95//11 94//11 92//11
f  92//12 94//12 95//12
f  95//137 91//129 96//139
f  96//140 91//130 95//138
f  95//141 93//135 94//135
f  94//136 93//136 95//142
f  95//141 96//141 93//135
f  93//136 96//142 95//142

# Mesh 'mesh4_mesh4-geometry' with 20 faces
g mesh4_mesh4-geometry
usemtl material_0_24
f  97//102 98//102 99//102
f  99//101 98//101 97//101
f  100//102 98//102 97//102
f  97//101 98//101 100//101
f  101//143 99//143 98//144
f  98//145 99//146 101//146
f  99//12 102//12 97//12
f  97//11 102//11 99//11
f  100//11 103//11 98//11
f  98//12 103//12 100//12
f  101//143 104//147 99//143
f  99//146 104//148 101//146
f  98//11 103//11 101//11
f  101//12 103//12 98//12
f  99//12 104//12 102//12
f  102//11 104//11 99//11
f  103//101 104//101 101//101
f  101//102 104//102 103//102
f  102//101 104//101 103//101
f  103//102 104//102 102//102

# Mesh 'mesh5_mesh5-geometry' with 20 faces
g mesh5_mesh5-geometry
usemtl material_0_24
f  105//12 106//12 107//12
f  107//11 106//11 105//11
f  105//12 108//12 106//12
f  106//11 108//11 105//11
f  107//102 109//102 105//102
f  105//101 109//101 107//101
f  110//143 108//147 105//143
f  105//146 108//148 110//146
f  106//101 108//101 111//101
f  111//102 108//102 106//102
f  112//102 109//102 107//102
f  107//101 109//101 112//101
f  110//143 105//143 109//144
f  109//145 105//146 110//146
f  111//101 108//101 110//101
f  110//102 108//102 111//102
f  112//11 111//11 109//11
f  109//12 111//12 112//12
f  109//11 111//11 110//11
f  110//12 111//12 109//12

